<svg width="18" height="20" viewBox="0 0 18 20" fill="none" xmlns="http://www.w3.org/2000/svg">
<path fill-rule="evenodd" clip-rule="evenodd" d="M8.434 1.05L0.283997 5.75C0.143997 5.82 0.103997 5.99 0.173997 6.12L4.89 14.3C5.02 14.52 5.36 14.37 5.29 14.12C5.29 14.12 3.02 6.67 2.81 5.952C2.63 5.362 2.93 4.814 3.54 4.63C5.08 4.16 9.713 2.74 9.713 2.74C9.713 2.74 8.893 1.33 8.773 1.127C8.683 0.976995 8.503 0.956995 8.393 1.017L8.434 1.05ZM13.1 2.838L13.81 5.158H7.19996C6.61996 5.158 6.13997 5.628 6.13997 6.208V12.688C6.13997 12.938 5.77996 12.988 5.69996 12.748C5.69996 12.748 4.08997 7.488 3.54997 5.728C3.49997 5.588 3.56996 5.428 3.72996 5.378C5.96996 4.678 12.72 2.628 12.72 2.628C12.87 2.578 13.02 2.668 13.06 2.808L13.1 2.838ZM7.20004 5.94H17.574L17.54 5.91C17.7 5.91 17.82 6.05 17.82 6.19V18.722C17.82 18.882 17.68 19.002 17.55 19.002H7.19004C7.05004 19.002 6.92004 18.902 6.92004 18.732V6.21C6.92004 6.07 7.02004 5.94 7.20004 5.94ZM11.605 8.616H9.35504L9.32504 8.596C9.01504 8.596 8.77504 8.846 8.77504 9.156C8.77504 9.466 9.02504 9.716 9.33504 9.716H11.595C11.905 9.716 12.155 9.466 12.155 9.166C12.155 8.856 11.905 8.616 11.605 8.616ZM8.79504 11.934C8.79504 12.244 9.04504 12.494 9.35504 12.494L9.33004 12.474H15.165C15.475 12.474 15.725 12.224 15.725 11.924C15.725 11.644 15.475 11.374 15.175 11.374H9.34504C9.03504 11.374 8.79504 11.624 8.79504 11.934ZM9.35004 15.524H15.185L15.164 15.504C15.454 15.504 15.724 15.274 15.724 14.954C15.724 14.644 15.454 14.404 15.154 14.404H9.34004C9.03004 14.404 8.79004 14.654 8.79004 14.964C8.79004 15.264 9.10004 15.524 9.35004 15.524Z" fill="#33383B"/>
</svg>
