<?xml version="1.0" standalone="no"?>
<!DOCTYPE svg PUBLIC "-//W3C//DTD SVG 1.1//EN" "http://www.w3.org/Graphics/SVG/1.1/DTD/svg11.dtd" >
<svg xmlns="http://www.w3.org/2000/svg">
<metadata></metadata>
<defs>
<font id="keep_calmmedium" horiz-adv-x="1406" >
<font-face units-per-em="2048" ascent="1638" descent="-410" />
<missing-glyph horiz-adv-x="645" />
<glyph horiz-adv-x="0" />
<glyph horiz-adv-x="682" />
<glyph horiz-adv-x="0" />
<glyph horiz-adv-x="0" />
<glyph unicode="&#x9;" horiz-adv-x="2048" />
<glyph unicode="&#xa;" horiz-adv-x="2048" />
<glyph unicode="&#xd;" horiz-adv-x="2048" />
<glyph horiz-adv-x="2048" />
<glyph horiz-adv-x="2048" />
<glyph horiz-adv-x="2048" />
<glyph horiz-adv-x="2048" />
<glyph horiz-adv-x="2048" />
<glyph unicode=" "  horiz-adv-x="645" />
<glyph unicode="&#x09;" horiz-adv-x="645" />
<glyph unicode="&#xa0;" horiz-adv-x="645" />
<glyph unicode="!" horiz-adv-x="559" d="M123 1638h354l-86 -1183h-182zM147 0v305h306v-305h-306z" />
<glyph unicode="&#x22;" horiz-adv-x="829" d="M61 1700h316l-60 -586h-196zM463 1700h315l-59 -586h-197z" />
<glyph unicode="#" horiz-adv-x="1544" d="M82 430v242h242l61 295h-303v237h350l92 432h244l-88 -432h346l92 432h240l-88 -432h192v-237h-243l-60 -295h303v-242h-352l-92 -430h-244l90 430h-346l-90 -430h-246l90 430h-190zM567 672h348l62 295h-348z" />
<glyph unicode="$" horiz-adv-x="1236" d="M82 174l178 211q131 -113 295 -131v432l-16 6q-430 148 -430 510q0 181 126 309t310 154v131h186v-131q232 -35 369 -172l-178 -207q-79 84 -201 107v-424v-11q227 -77 330.5 -204.5t103.5 -321.5q0 -162 -122 -292.5t-302 -159.5v-3v-192h-186v190q-148 7 -252.5 53.5 t-210.5 145.5zM418 1214q0 -69 29.5 -110.5t107.5 -79.5v358q-60 -25 -98.5 -69t-38.5 -99zM721 266q57 23 90 67t33 95q0 62 -26.5 105t-96.5 83v-350z" />
<glyph unicode="%" horiz-adv-x="1912" d="M82 1262q0 167 121.5 288t288.5 121t288 -121t121 -288t-121 -288.5t-288 -121.5t-288.5 121.5t-121.5 288.5zM250 -94l1098 1732h256l-1098 -1732h-256zM328 1262q0 -68 48 -116t116 -48q67 0 115 48t48 116t-47.5 115.5t-115.5 47.5t-116 -48t-48 -115zM1012 373 q0 172 118.5 290.5t290.5 118.5q168 0 289 -119t121 -290q0 -167 -121.5 -288.5t-288.5 -121.5q-171 0 -290 121t-119 289zM1257 373q0 -67 48.5 -115.5t115.5 -48.5t115.5 48.5t48.5 115.5t-48.5 115.5t-115.5 48.5t-115.5 -48.5t-48.5 -115.5z" />
<glyph unicode="&#x26;" horiz-adv-x="1529" d="M164 473q0 131 74 234t227 198q-91 109 -130.5 189.5t-39.5 154.5q0 116 61.5 210t167 147t232.5 53q197 0 331 -123.5t134 -306.5q0 -118 -75 -208t-245 -190l227 -262q17 42 29 123h283q-20 -203 -107 -352l156 -174l-197 -197l-139 158q-99 -87 -196 -122.5 t-263 -35.5q-146 0 -268 67.5t-192 183t-70 253.5zM479 473q0 -89 68 -153t162 -64q73 0 129.5 17t124.5 69l-328 369q-84 -50 -120 -107t-36 -131zM584 1247q0 -36 16 -68.5t57 -76.5l72 -76q217 97 217 227q0 66 -53 109t-127 43q-76 0 -129 -45.5t-53 -112.5z" />
<glyph unicode="'" horiz-adv-x="407" d="M51 1700h316l-60 -586h-198z" />
<glyph unicode="(" horiz-adv-x="776" d="M102 598q0 176 30 330.5t94 297t141 265t192 272.5h240q-104 -166 -166.5 -287t-111 -260.5t-68 -288t-19.5 -337.5q0 -323 93 -607t280 -550h-248q-114 144 -192 267.5t-141 266t-93.5 298.5t-30.5 333z" />
<glyph unicode=")" horiz-adv-x="776" d="M-31 1763h248q223 -281 340 -558.5t117 -604.5q0 -331 -115.5 -607.5t-341.5 -559.5h-242q104 165 167.5 287.5t111.5 261.5t68 287t20 335q0 323 -93 608t-280 551z" />
<glyph unicode="*" horiz-adv-x="993" d="M61 1094l105 47l121 69l-109 62l-117 51l119 209l109 -82l98 -59v125l-14 122h237l-16 -127v-125l104 62l113 84l121 -209l-129 -53l-105 -62l97 -57l137 -55l-121 -207l-102 78l-115 65v-121l16 -137h-237l14 133v123l-104 -61l-103 -80z" />
<glyph unicode="+" horiz-adv-x="1404" d="M123 616v306h436v460h305v-460h439v-306h-439v-460h-305v460h-436z" />
<glyph unicode="," horiz-adv-x="509" d="M123 0v305h305v-305q0 -104 -58.5 -174t-164.5 -70q-26 0 -76 13v22q60 10 96.5 55t36.5 105q0 30 -8 49h-131z" />
<glyph unicode="-" horiz-adv-x="765" d="M61 532v275h644v-275h-644z" />
<glyph unicode="." horiz-adv-x="518" d="M123 0v313h313v-313h-313z" />
<glyph unicode="/" horiz-adv-x="643" d="M-41 -117l473 1901h252l-473 -1901h-252z" />
<glyph unicode="0" horiz-adv-x="1622" d="M123 801q0 128 28 252t86 236.5t139.5 197.5t196.5 135.5t248 50.5q111 0 210 -35.5t174.5 -98t136 -146.5t99 -181.5t59 -201.5t20.5 -209q0 -122 -30 -242t-90.5 -226.5t-143 -187.5t-195.5 -128.5t-240 -47.5q-126 0 -238.5 47.5t-195 128.5t-143 187.5t-91 226.5 t-30.5 242zM455 801q0 -71 12.5 -144t41 -146t70 -130t104.5 -92t138 -35t138 35t104.5 91.5t70.5 129.5t41.5 146.5t12.5 144.5q0 60 -8 123t-24.5 130t-46 125.5t-68.5 105.5t-95.5 74t-124.5 27q-77 0 -140.5 -40t-104.5 -102t-69 -141.5t-40 -155.5t-12 -146z" />
<glyph unicode="1" horiz-adv-x="868" d="M82 1182v268l582 217v-1667h-316v1284z" />
<glyph unicode="2" horiz-adv-x="1388" d="M82 0l631 748q47 57 76 96.5t64.5 95t53 105.5t17.5 94q0 108 -67.5 171.5t-170.5 63.5q-217 0 -356 -209l-221 219q114 143 252 214t333 71q108 0 206.5 -32.5t177 -94t125 -158.5t46.5 -217q0 -47 -8.5 -93t-19.5 -83t-35.5 -83.5t-41.5 -75.5t-53.5 -79t-56 -75 t-63.5 -80l-234 -291h549v-307h-1204z" />
<glyph unicode="3" horiz-adv-x="1476" d="M82 293l219 221q77 -108 197 -178t247 -70q116 0 197.5 63t81.5 175q0 42 -15.5 76.5t-39.5 57t-61 39t-71.5 25t-79.5 13.5t-78 6.5t-73 1.5v229q387 0 387 213q0 100 -70.5 153.5t-174.5 53.5q-251 0 -392 -209l-221 219q124 149 266.5 217t333.5 68q104 0 207 -32 t188.5 -90t139 -150t53.5 -201q0 -110 -67.5 -201.5t-172.5 -144.5q115 -43 193 -139t78 -213q0 -126 -47.5 -228t-130 -167t-189.5 -99.5t-229 -34.5q-210 0 -375.5 80t-300.5 246z" />
<glyph unicode="4" horiz-adv-x="1423" d="M61 354v226l797 1056h272v-1009h232v-273h-232v-354h-313v354h-756zM401 629l416 -2v544z" />
<glyph unicode="5" horiz-adv-x="1421" d="M123 252l217 219q149 -192 340 -192q145 0 238.5 79.5t93.5 198.5q0 126 -102 201.5t-248 75.5q-83 0 -151 -21.5t-138 -73.5l-160 164l80 735l919 -2v-278h-671l-37 -309q97 47 244 47q257 0 424 -154.5t167 -388.5q0 -168 -82 -302.5t-219.5 -208t-300.5 -73.5 q-187 0 -338 66.5t-276 216.5z" />
<glyph unicode="6" horiz-adv-x="1525" d="M143 817q0 252 82.5 445t235 299t354.5 106q173 0 302.5 -62t242.5 -198l-213 -215q-124 188 -324 188q-139 0 -232 -119.5t-93 -293.5q55 43 137.5 69.5t157.5 26.5q164 0 303 -69.5t223 -197t84 -286.5q0 -103 -47 -202t-127 -173.5t-194 -120t-240 -45.5 q-102 0 -194 27t-177 90.5t-146.5 159t-98 242t-36.5 329.5zM481 526q0 -110 91 -190t216 -80q126 0 211.5 79t85.5 191q0 111 -85.5 190t-211.5 79q-125 0 -216 -79.5t-91 -189.5z" />
<glyph unicode="7" horiz-adv-x="1210" d="M41 1358v280h1190l-744 -1638h-346l625 1358h-725z" />
<glyph unicode="8" horiz-adv-x="1515" d="M143 459q0 122 82 234.5t195 154.5q-101 51 -166.5 148.5t-65.5 209.5q0 88 35.5 164t95.5 130t137 93t161 57.5t167 18.5q84 0 167 -18.5t158 -57.5t133 -93t92 -130t34 -164q0 -113 -65 -210t-166 -148q113 -42 194.5 -154.5t81.5 -234.5q0 -100 -35.5 -183t-96 -139.5 t-142.5 -95t-172.5 -56.5t-188.5 -18q-99 0 -190.5 18t-173 56.5t-141.5 95t-95 139.5t-35 183zM471 496q0 -98 90 -168t217 -70t217 70t90 168q0 97 -90 166t-217 69t-217 -69t-90 -166zM516 1167q0 -86 76.5 -147.5t185.5 -61.5t185.5 61.5t76.5 147.5t-76.5 147.5 t-185.5 61.5t-185.5 -61.5t-76.5 -147.5z" />
<glyph unicode="9" horiz-adv-x="1484" d="M123 1126q0 103 47 202t127 173.5t193.5 120t238.5 45.5q103 0 195 -27t177 -90.5t146.5 -159t98 -242t36.5 -329.5q0 -252 -82 -445t-234.5 -299t-354.5 -106q-173 0 -302.5 62t-242.5 198l213 215q124 -188 323 -188q138 0 232 121.5t94 292.5q-56 -43 -138 -70 t-157 -27q-164 0 -303 69.5t-223 197t-84 286.5zM440 1110q0 -111 85.5 -189.5t211.5 -78.5q125 0 216 79t91 189t-91 190t-216 80q-126 0 -211.5 -79t-85.5 -191z" />
<glyph unicode=":" horiz-adv-x="518" d="M123 0v313h313v-313h-313zM123 870v314h313v-314h-313z" />
<glyph unicode=";" horiz-adv-x="518" d="M123 870v314h313v-314h-313zM127 0v305h305v-305q0 -104 -58.5 -174t-164.5 -70q-26 0 -76 13v22q60 10 96.5 55t36.5 105q0 30 -8 49h-131z" />
<glyph unicode="&#x3c;" horiz-adv-x="1376" d="M102 655v246l1172 496v-295l-793 -324l793 -329v-293z" />
<glyph unicode="=" horiz-adv-x="1458" d="M143 387v275h1172v-275h-1172zM143 887v274h1172v-274h-1172z" />
<glyph unicode="&#x3e;" horiz-adv-x="1376" d="M102 156v293l793 325l-793 328v295l1172 -500v-246z" />
<glyph unicode="?" horiz-adv-x="1155" d="M82 1489q182 182 475 182q144 0 261.5 -55t186 -158.5t68.5 -236.5q0 -151 -83 -266.5t-218 -180.5l-106 -49q-54 -25 -78.5 -62.5t-24.5 -109.5v-98h-293v100q0 124 23 200.5t64.5 118t117.5 76.5l94 43q195 90 195 228q0 71 -63 124.5t-162 53.5q-168 0 -279 -117z M264 0v305h305v-305h-305z" />
<glyph unicode="@" horiz-adv-x="2363" d="M102 592q0 226 88.5 432.5t237.5 355.5t355.5 237.5t433.5 88.5q216 0 409 -77.5t332.5 -212.5t221 -327.5t81.5 -412.5q0 -222 -92 -385t-242 -252q-52 -30 -128 -48t-154 -18q-100 0 -179 45.5t-114 126.5q-60 -85 -160 -130.5t-215 -45.5q-189 0 -317 133.5 t-128 348.5q0 135 51.5 273t136.5 246t203.5 176t243.5 68q187 0 285 -116l18 86h267l-170 -840q-17 -83 14 -124.5t94 -41.5q163 0 268 130.5t105 371.5q0 169 -64.5 319.5t-175 258.5t-264.5 170.5t-327 62.5q-123 0 -239.5 -32t-215.5 -90t-182 -141t-140.5 -181.5 t-90 -215t-32.5 -239.5t32.5 -239.5t90 -215t140.5 -181.5t182 -141t215.5 -90t239.5 -32q273 0 477 135l153 -145q-126 -92 -289.5 -147.5t-340.5 -55.5q-227 0 -433.5 88t-355.5 237t-237.5 355t-88.5 432zM827 475q0 -131 54.5 -197.5t134.5 -66.5q86 0 168 50t123 149 l96 462q-35 53 -93.5 81t-129.5 28q-65 0 -123.5 -33.5t-99.5 -87.5t-71 -121t-44.5 -135t-14.5 -129z" />
<glyph unicode="A" horiz-adv-x="1816" d="M20 0l775 1638h247l775 -1638h-349l-151 328h-795l-153 -328h-349zM643 592h549l-272 590z" />
<glyph unicode="B" horiz-adv-x="1392" d="M164 0v1638h590q218 0 358.5 -126.5t140.5 -340.5q0 -91 -40 -176.5t-109 -146.5q104 -53 165.5 -157.5t61.5 -221.5q0 -100 -42 -188.5t-111.5 -150t-161.5 -97t-191 -35.5zM481 264h238q74 0 135.5 22t104 74t42.5 127q0 102 -70.5 166t-174.5 64h-275v-453zM481 946 q68 -2 187 -2q116 0 194 55t78 166t-79 171.5t-193 60.5h-187v-451z" />
<glyph unicode="C" horiz-adv-x="1662" d="M102 819q0 175 69.5 332.5t187 271t279.5 180t341 66.5q205 0 381 -85.5t297 -231.5l-219 -226q-76 112 -197.5 177t-261.5 65q-150 0 -278.5 -74.5t-203.5 -201t-75 -273.5q0 -109 44.5 -210t119 -174.5t178 -118t215.5 -44.5q290 0 463 250l221 -227 q-126 -153 -302 -239.5t-382 -86.5q-179 0 -341 67t-279.5 180.5t-187 271t-69.5 331.5z" />
<glyph unicode="D" horiz-adv-x="1701" d="M164 0v1638h684q221 0 398.5 -110.5t275.5 -297.5t98 -411t-98 -411t-275.5 -297.5t-398.5 -110.5h-684zM481 270h277q148 0 273 77t196 205t71 275q0 104 -42.5 206t-113.5 180.5t-172.5 127t-211.5 48.5h-277v-1119z" />
<glyph unicode="E" horiz-adv-x="1327" d="M164 0v1636h1081v-262h-770v-391h760v-256h-760v-451h770v-276h-1081z" />
<glyph unicode="F" horiz-adv-x="1286" d="M164 0v1636h1081v-272h-770v-381h760v-258h-760v-725h-311z" />
<glyph unicode="G" horiz-adv-x="1753" d="M102 821q0 173 69.5 330t187.5 270.5t280.5 180.5t341.5 67q204 0 377 -83.5t301 -231.5l-215 -219q-90 122 -204 177.5t-259 55.5q-153 0 -282.5 -73.5t-205 -199.5t-75.5 -274q0 -149 75.5 -276t205 -201t282.5 -74q212 0 385 150v158h-336v270h641v-547 q-135 -166 -316 -249t-374 -83q-178 0 -340.5 66t-280.5 179t-188 271.5t-70 335.5z" />
<glyph unicode="H" horiz-adv-x="1587" d="M164 0v1636h317v-649h645v649h318v-1636h-318v725h-645v-725h-317z" />
<glyph unicode="I" horiz-adv-x="624" d="M164 0v1636h317v-1636h-317z" />
<glyph unicode="J" horiz-adv-x="1189" d="M41 209l209 207q41 -65 106.5 -102.5t135.5 -37.5q100 0 175.5 70t75.5 186v1104h324v-1087q0 -126 -38.5 -228.5t-97.5 -166.5t-134.5 -107t-145.5 -60.5t-135 -17.5q-139 0 -263 64t-212 176z" />
<glyph unicode="K" horiz-adv-x="1529" d="M164 0v1638h317v-731l670 731h377l-740 -804l762 -834h-413l-656 725v-725h-317z" />
<glyph unicode="L" horiz-adv-x="1292" d="M164 0v1636h323v-1329h785v-307h-1108z" />
<glyph unicode="M" horiz-adv-x="1941" d="M164 0v1638h358l455 -813l475 813h346v-1638h-311v1094l-516 -871l-496 879v-1102h-311z" />
<glyph unicode="N" horiz-adv-x="1669" d="M164 0v1638h356l694 -1069v1069h312v-1638h-312l-739 1149v-1149h-311z" />
<glyph unicode="O" horiz-adv-x="1923" d="M102 819q0 175 69.5 333.5t186.5 271t278 179t337 66.5q175 0 335.5 -66.5t277 -179.5t186 -271t69.5 -333q0 -173 -69.5 -331t-186 -271.5t-277 -180.5t-335.5 -67q-176 0 -337 67t-278 180t-186.5 271t-69.5 332zM422 819q0 -146 73.5 -272.5t201 -201.5t276.5 -75 t275.5 75t200 201.5t73.5 272.5q0 147 -73.5 273.5t-200 201t-275.5 74.5q-150 0 -277 -74.5t-200.5 -201t-73.5 -273.5z" />
<glyph unicode="P" horiz-adv-x="1351" d="M164 0v1636h588q152 0 280 -71.5t203.5 -198.5t75.5 -279q0 -153 -75.5 -280.5t-203.5 -199.5t-280 -72h-271v-535h-317zM481 778h211q126 0 214.5 93.5t88.5 220.5t-88 216t-215 89h-211v-619z" />
<glyph unicode="Q" horiz-adv-x="1910" d="M102 819q0 173 68.5 330.5t184.5 271t275.5 181t334.5 67.5q176 0 336 -67.5t275.5 -181t184 -271t68.5 -330.5q0 -286 -178 -514l164 -162l-189 -188l-168 170q-223 -154 -493 -154q-175 0 -334.5 67.5t-275.5 181t-184.5 270.5t-68.5 329zM412 819q0 -148 74 -275 t201.5 -201.5t277.5 -74.5q148 0 282 78l-153 150l188 188l152 -156q86 133 86 291q0 148 -74.5 275.5t-202.5 202.5t-278 75t-277.5 -75t-201.5 -202.5t-74 -275.5z" />
<glyph unicode="R" horiz-adv-x="1427" d="M164 0v1636l647 2q210 0 349.5 -135t139.5 -336q0 -142 -86.5 -265t-220.5 -167q143 -54 205 -213q32 -76 115 -321q52 -150 84 -201h-350l-117 373q-40 134 -117.5 206t-216.5 72h-119v-651h-313zM477 895h230q118 0 196 68.5t78 181.5t-78.5 186.5t-195.5 73.5h-230 v-510z" />
<glyph unicode="S" horiz-adv-x="1318" d="M82 190l225 228q96 -80 191 -115t207 -35q91 0 155 49t64 121q0 79 -67 130t-269 124q-79 29 -140.5 58.5t-123.5 73.5t-102 95t-65.5 122t-25.5 155q0 138 72 247t194 168.5t271 59.5q184 0 313.5 -47.5t232.5 -144.5l-221 -224q-126 123 -315 123q-91 0 -155 -52 t-64 -122q0 -78 72 -132.5t264 -123.5q247 -87 354.5 -207t107.5 -311q0 -122 -68 -227t-192.5 -169.5t-277.5 -64.5q-207 0 -346 49.5t-291 171.5z" />
<glyph unicode="T" horiz-adv-x="1329" d="M61 1354v282h1227v-282h-452v-1354h-322v1354h-453z" />
<glyph unicode="U" horiz-adv-x="1701" d="M143 739v899h318v-901q0 -197 108 -325.5t299 -128.5q200 0 305 123.5t105 326.5v905h321v-888q0 -163 -49.5 -305t-141 -247.5t-229.5 -166t-305 -60.5q-219 0 -387 102t-256 276t-88 390z" />
<glyph unicode="V" horiz-adv-x="1587" d="M31 1638h352l426 -1151l420 1151h348l-621 -1638h-290z" />
<glyph unicode="W" horiz-adv-x="2267" d="M31 1638h336l346 -1058l299 1058h262l299 -1060l350 1060h334l-533 -1638h-278l-301 1012l-303 -1012h-279z" />
<glyph unicode="X" horiz-adv-x="1617" d="M20 0l598 850l-548 788h385l364 -555l363 555h391l-553 -786l598 -852h-391l-408 623l-407 -623h-392z" />
<glyph unicode="Y" horiz-adv-x="1662" d="M31 1636h368l426 -688l445 688h383l-668 -966v-672h-321v676z" />
<glyph unicode="Z" horiz-adv-x="1482" d="M82 0l811 1356l-780 -2v284h1308l-792 -1325h786v-313h-1333z" />
<glyph unicode="[" horiz-adv-x="774" d="M123 -522v2285h620v-247h-335v-1792h335v-246h-620z" />
<glyph unicode="\" horiz-adv-x="643" d="M-41 1784h252l473 -1901h-252z" />
<glyph unicode="]" horiz-adv-x="772" d="M31 -276h334v1794h-334v245h618v-2285h-618v246z" />
<glyph unicode="^" horiz-adv-x="2387" d="M41 655q80 27 176 43q-63 -169 -63 -178q2 -5 4 -6q24 6 59 36t57 58l52 -258q-31 25 -105 49q-6 1 -11.5 2t-8.5 1.5t-6 0.5q28 -97 86 -159t151 -62q79 0 141 49.5t62 128.5q0 41 -27 77t-67 36q-99 0 -99 -111q0 -19 7 -47q-47 7 -71 50t-24 94q0 74 45.5 124 t118.5 50q27 0 43.5 -7t42.5 -26q-22 34 -29.5 62t-7.5 71q0 74 58 154q108 -73 108 -197q0 -24 -16 -86q68 68 125 68q50 0 86.5 -42t36.5 -93q0 -82 -78 -129q2 2 2 12q0 38 -25 65t-65 27q-39 0 -61.5 -28.5t-22.5 -69.5q0 -68 64.5 -112t135.5 -44q60 0 110.5 17.5 t87 61.5t36.5 109q0 7 -4 35q-81 -33 -133 -61l-8 250q77 -52 126 -78q5 -2 6.5 0t0.5 6q-6 24 -15.5 49.5t-15.5 40.5t-20 46t-19 44h238q-23 -51 -66 -182q-1 -3 -1 -5t1.5 -3t3.5 0q83 49 127 84l-6 -252q-19 11 -39 20.5t-45 21t-41 19.5v-37q0 -91 49.5 -140.5 t138.5 -49.5q79 0 139 42.5t60 117.5q0 36 -22 61t-58 25q-48 0 -84 -80q-51 51 -51 110q0 64 31 103t94 39q51 0 121 -74q-6 38 -6 72q0 120 108 204q58 -71 58 -143q0 -84 -50 -166q61 53 109 53q54 0 94.5 -39.5t40.5 -93.5q0 -55 -44 -109.5t-99 -72.5q22 25 22 84 q0 72 -71 72q-39 0 -61.5 -38t-22.5 -81q0 -72 38 -106t113 -54q28 -9 58 -6q97 4 147 58.5t80 175.5q-103 -36 -146 -60q10 34 34.5 130.5t37.5 137.5q62 -71 98 -102q11 -11 11 8l-6 68q-2 12 -7 50.5t-8 53.5q102 -14 162 -39q-2 -5 -15.5 -43t-21.5 -59q-1 -3 -22 -64 q13 -61 -17 -110q-18 -30 -39 -39l-88 -207q18 -63 31 -139q3 -27 -12 -45l-117 -146q-349 160 -846 160q-221 0 -458 -39t-392 -119q-8 7 -40 35.5t-50 42.5l-53 43q-18 18 -21 31q-2 6 -2 23q0 14 7.5 85t7.5 87l-62 196q-19 11 -26 21q-30 26 -36.5 68.5t13.5 80.5z M106 459q0 -21 14 -47.5t32 -26.5q16 0 16 29q0 20 -15 49t-32 29q-15 0 -15 -33zM215 799q0 14 10 24.5t23 10.5q14 0 25.5 -11t11.5 -24t-10.5 -24t-24.5 -11t-24.5 11t-10.5 24zM225 -27q0 -4 4.5 -10t13 -14t17 -14.5t20 -16t17.5 -14.5q6 18 6 57v41l-67 55 q-11 -57 -11 -84zM287 735q9 16 41 41q154 120 319.5 197t394.5 133q22 -51 44 -137t30 -146q2 -5 -2 -7.5t-14 -2.5q-17 0 -21 4q-32 156 -71 236q-169 -36 -349 -122t-309 -190q-6 -5 -22 -18t-21 -16q-4 -1 -13 11t-7 17zM289 879q0 17 11 29t28 12t30 -12t13 -29 t-12 -29t-29 -12t-29 12t-12 29zM387 952q0 17 12 29t29 12t30 -12t13 -29q0 -19 -12 -31t-29 -12q-18 0 -30.5 12.5t-12.5 30.5zM391 74q0 -17 12 -28t29 -11q39 0 39 39q0 17 -12 29t-29 12t-28 -12t-11 -29zM403 -231q0 9 21 18q159 64 369.5 95.5t408.5 31.5 q186 0 393.5 -30t356.5 -91q30 -9 30 -24q0 -16 -26 -25q-167 -64 -332.5 -87.5t-378.5 -23.5q-236 0 -430.5 26t-388.5 91q-23 7 -23 19zM428 -35q0 -17 13 -29t30 -12t29 12t12 29t-13 29t-30 12t-29 -12t-12 -29zM494 1024q0 19 13.5 33t33.5 14q19 0 34 -14t15 -33 q0 -20 -13.5 -34.5t-33.5 -14.5t-34.5 14.5t-14.5 34.5zM596 76q6 -41 46.5 -62.5t94.5 -13.5q55 11 87.5 43.5t25.5 73.5q-6 39 -47 61t-94 12q-53 -7 -86 -41t-27 -73zM608 1085q0 23 15.5 38.5t38.5 15.5t38 -15.5t15 -38.5t-14 -38t-37 -15q-24 0 -40 15t-16 38z M752 1143q0 23 15 39t38 16t40 -16t17 -39t-16 -39.5t-39 -16.5t-39 16.5t-16 39.5zM899 1184q0 24 16.5 40.5t40.5 16.5q23 0 40.5 -17t17.5 -40t-16.5 -40.5t-39.5 -17.5t-41 17.5t-18 40.5zM942 166q0 -17 12 -29t29 -12t28 12t11 29t-12 28t-29 11q-39 0 -39 -39z M952 49q0 -18 12.5 -30.5t30.5 -12.5q17 0 29 12t12 31q0 17 -13 29t-30 12t-29 -12t-12 -29zM1055 1534l100 -27l-43 133h156l-39 -133l98 27l-2 -127l-111 39v-74q42 -4 73.5 -41t31.5 -82q0 -51 -37 -87t-88 -36q-56 0 -93.5 35.5t-37.5 89.5q0 44 31 79.5t75 41.5v74 l-108 -39zM1102 1266q27 -15 69 -15l-2 84q-52 -15 -67 -69zM1116 1202q11 -19 34.5 -29t43.5 -10q18 0 40 11t32 28q-28 19 -74 19q-45 0 -76 -19zM1126 141l27 -47q26 -47 37 -47t37 47l26 47l-28 45q-29 47 -37 47t-37 -47zM1139 1051q0 23 15 38t38 15q20 0 35.5 -16.5 t15.5 -36.5q0 -23 -15 -38.5t-38 -15.5q-21 0 -36 15.5t-15 38.5zM1145 934q0 18 13.5 30.5t31.5 12.5t31.5 -12.5t13.5 -30.5t-12.5 -30.5t-30.5 -12.5t-32.5 12.5t-14.5 30.5zM1153 836q0 13 11.5 23.5t25.5 10.5t26.5 -10.5t12.5 -23.5q0 -16 -11.5 -26.5t-25.5 -10.5 q-15 0 -27 10.5t-12 26.5zM1157 539q0 -13 10.5 -24t24.5 -11t24.5 11t10.5 24q0 14 -10 24t-27 10q-13 0 -23 -10t-10 -24zM1214 1251q31 -3 64 17q-8 43 -64 67v-45v-39zM1262 823q7 56 30 141t45 144q233 -59 397 -139.5t339 -212.5l36 -33q-1 -3 -4 -7t-4 -7 q-5 -8 -8 -11t-4 -2l-35 25q-294 235 -684 334q-24 -49 -44 -117t-26 -115q-3 -10 -18 -10q-17 0 -19.5 1t-0.5 9zM1335 51q0 -19 12 -31t29 -12q19 0 31 12t12 31q0 17 -13 29t-30 12q-18 0 -29.5 -11.5t-11.5 -29.5zM1352 166q0 -17 12 -29t29 -12t28 12t11 29t-12 28 t-29 11q-39 0 -39 -39zM1360 1178q0 24 16.5 40.5t40.5 16.5q23 0 40.5 -17t17.5 -40t-16.5 -40.5t-39.5 -17.5t-41 17.5t-18 40.5zM1513 115q-6 -38 26.5 -71.5t86.5 -43.5q53 -10 95 12.5t48 61.5q6 41 -25.5 73t-86.5 43q-55 8 -96.5 -13t-47.5 -62zM1518 1135 q0 23 15 39t38 16t40 -16t17 -39t-16 -39.5t-39 -16.5t-39 16.5t-16 39.5zM1663 1077q0 23 15 38t38 15t38 -15t15 -38t-14 -38t-37 -15t-39 15t-16 38zM1792 1016q0 19 13.5 33t33.5 14q19 0 34 -14t15 -33q0 -20 -13.5 -34.5t-33.5 -14.5t-34.5 14.5t-14.5 34.5zM1841 -31 q0 -17 13 -29t30 -12t29 12t12 29t-13 29t-30 12t-29 -12t-12 -29zM1878 80q0 -17 12 -29t29 -12t28 12t11 29t-12 28t-29 11q-39 0 -39 -39zM1911 944q0 17 12 29t29 12t30 -12t13 -29q0 -19 -12 -31t-29 -12q-18 0 -30.5 12.5t-12.5 30.5zM2015 870q0 17 12 29t29 12 t29 -12t12 -29t-12 -29t-29 -12t-29 12t-12 29zM2050 2l39 -84q6 9 18.5 25t20.5 27.5t8 17.5q0 27 -22 78zM2105 791q0 14 10 24t23 10q14 0 25.5 -10.5t11.5 -23.5t-10.5 -24t-24.5 -11t-24.5 11t-10.5 24zM2198 406q0 -27 16 -27q18 0 31.5 28.5t13.5 49.5q0 26 -16 26 q-18 0 -31.5 -28t-13.5 -49z" />
<glyph unicode="_" horiz-adv-x="1136" d="M-51 -135h1239v-199h-1239v199z" />
<glyph unicode="`" horiz-adv-x="1187" d="M244 1726h329l183 -395h-217z" />
<glyph unicode="a" horiz-adv-x="1187" d="M61 328q0 130 76.5 221.5t201 134.5t282.5 43h170q0 106 -68 166.5t-195 60.5q-144 0 -258 -104l-174 176q92 91 216.5 139.5t256.5 48.5q119 0 216 -37.5t159 -101.5q77 -77 109 -174t32 -246v-655h-297v63q-136 -94 -344 -94q-170 0 -276.5 99.5t-106.5 259.5zM356 354 q0 -61 48.5 -100t123.5 -39q122 0 260 80v219h-135q-133 0 -215 -38.5t-82 -121.5z" />
<glyph unicode="b" horiz-adv-x="1323" d="M123 0v1700h299v-574q113 91 270 91q107 0 210.5 -49t183 -131t128 -199.5t48.5 -245.5q0 -166 -72 -308t-203.5 -227.5t-294.5 -85.5q-158 0 -272 90v-61h-297zM420 317q94 -88 217 -88q142 0 234 102t92 261q0 164 -92.5 264t-239.5 100q-49 0 -110 -19.5t-101 -49.5 v-570z" />
<glyph unicode="c" horiz-adv-x="1212" d="M82 592q0 129 49 244.5t133 198t200 131t245 48.5q286 0 469 -198l-199 -203q-101 137 -266 137q-136 0 -235 -105.5t-99 -252.5q0 -148 98.5 -253.5t235.5 -105.5q85 0 157.5 41t116.5 109l205 -205q-91 -103 -215.5 -156t-267.5 -53q-128 0 -243.5 47.5t-200 130 t-134 198.5t-49.5 247z" />
<glyph unicode="d" horiz-adv-x="1343" d="M82 592q0 128 48.5 245.5t127.5 199.5t182.5 131t210.5 49q75 0 147.5 -20.5t123.5 -57.5v561h299v-1700h-301v61q-109 -90 -269 -90q-122 0 -229 50t-181 135t-116.5 198.5t-42.5 237.5zM379 592q0 -159 92.5 -261t235.5 -102q116 0 217 88v570q-41 29 -102.5 49 t-108.5 20q-148 0 -241 -100t-93 -264z" />
<glyph unicode="e" d="M82 592q0 127 50 242t134 198.5t201 132.5t246 49q125 0 240.5 -46t202 -126.5t138.5 -197.5t52 -250q0 -44 -11 -123h-946q37 -111 124 -180.5t212 -69.5q80 0 159.5 28t133.5 75l186 -187q-120 -90 -237.5 -129t-251.5 -39q-130 0 -247.5 49.5t-202 133t-134 198.5 t-49.5 242zM389 709h647q-35 113 -124 181t-201 68q-110 0 -198.5 -68t-123.5 -181z" />
<glyph unicode="f" horiz-adv-x="751" d="M41 924v258h143v90q0 231 86 344t289 113q101 0 223 -29v-270q-64 26 -147 26q-88 0 -123 -38.5t-35 -141.5v-94h187v-258h-187v-924h-293v924h-143z" />
<glyph unicode="g" horiz-adv-x="1230" d="M72 -203q0 126 72 208t229 122q-62 24 -83 69q-9 20 -9 39q0 25 15 50q26 44 87 65q-113 51 -192.5 159.5t-79.5 244.5q0 125 69.5 231.5t186.5 167.5t251 61q101 0 187 -30h405v-234h-125q48 -105 48 -196q0 -106 -51 -202t-149.5 -164t-225.5 -87q-65 -10 -100.5 -31 t-35.5 -42.5t35.5 -40.5t100.5 -25q229 -20 355 -115t126 -250q0 -163 -152 -264.5t-403 -101.5q-257 0 -409 100.5t-152 265.5zM369 -203q0 -67 71.5 -103t192.5 -36q123 0 191.5 34.5t68.5 104.5t-69 103.5t-191 33.5q-125 0 -194.5 -35t-69.5 -102zM403 754 q0 -90 64.5 -154.5t153.5 -64.5q91 0 155 64t64 155q0 89 -64 153t-155 64q-89 0 -153.5 -64t-64.5 -153z" />
<glyph unicode="h" horiz-adv-x="1296" d="M123 0v1698h297v-582q64 49 149 75t168 26q93 0 174.5 -30t145 -88.5t100.5 -153.5t37 -216v-729h-295v709q0 122 -67 188t-164 66q-127 0 -248 -78v-885h-297z" />
<glyph unicode="i" horiz-adv-x="573" d="M123 1391v307h307v-307h-307zM127 0v1186h299v-1186h-299z" />
<glyph unicode="j" horiz-adv-x="598" d="M-102 -229q39 -12 74 -16q12 -1 24 -1q23 0 44 4q34 8 58 28.5t39 60.5t15 96v1243h299v-1247q0 -236 -123 -359q-95 -94 -241 -94q-44 0 -91 8zM147 1391v307h308v-307h-308z" />
<glyph unicode="k" horiz-adv-x="1228" d="M123 0v1698h301v-1016l414 502h344l-486 -576l553 -608h-350l-475 530v-530h-301z" />
<glyph unicode="l" horiz-adv-x="643" d="M123 295v1405h301v-1354q0 -129 100 -129q51 0 99 31v-242q-76 -37 -170 -37q-69 0 -126.5 18t-104 55.5t-73 102t-26.5 150.5z" />
<glyph unicode="m" horiz-adv-x="1976" d="M123 0v1184h295v-88q56 55 130.5 86.5t151.5 31.5q88 0 174.5 -39.5t151.5 -111.5q91 80 184.5 115.5t208.5 35.5q95 0 175.5 -28.5t144 -86t99.5 -154.5t36 -224v-721h-293v707q0 120 -59 187t-150 67q-139 0 -246 -93q19 -74 19 -161v-707h-295v707q0 120 -58.5 187 t-148.5 67q-66 0 -117 -23t-108 -76v-862h-295z" />
<glyph unicode="n" horiz-adv-x="1302" d="M123 0v1184h297v-88q54 54 144 86t173 32q92 0 173 -29t147 -87t104.5 -155t38.5 -222v-721h-295v707q0 122 -67.5 188t-165.5 66q-147 0 -252 -99v-862h-297z" />
<glyph unicode="o" d="M82 592q0 127 50.5 242.5t135.5 198.5t201.5 132t243.5 49q174 0 319 -81.5t229.5 -224.5t84.5 -316t-84.5 -316.5t-229.5 -225t-319 -81.5q-129 0 -246 48.5t-201.5 131.5t-134 198.5t-49.5 244.5zM375 592q0 -152 99 -256.5t239 -104.5t239 104.5t99 256.5 q0 151 -99 255.5t-239 104.5t-239 -104.5t-99 -255.5z" />
<glyph unicode="p" horiz-adv-x="1323" d="M123 -514v1700h299v-62q111 90 270 90q107 0 210.5 -48.5t183 -131t128 -199.5t48.5 -245q0 -166 -72 -308t-203.5 -227.5t-294.5 -85.5q-158 0 -272 90l2 -573h-299zM420 315q94 -88 215 -88q141 0 233.5 102t92.5 259q0 166 -92 266t-240 100q-49 0 -109 -20t-100 -51 v-568z" />
<glyph unicode="q" horiz-adv-x="1341" d="M82 590q0 128 48.5 245t127.5 199.5t182.5 131t210.5 48.5q76 0 148.5 -20.5t122.5 -56.5v49h297v-1700h-297v573q-109 -90 -271 -90q-122 0 -229 50t-181 135t-116.5 198.5t-42.5 237.5zM379 588q0 -157 93 -259t235 -102q116 0 217 88v568q-40 31 -101 51t-110 20 q-148 0 -241 -100t-93 -266z" />
<glyph unicode="r" horiz-adv-x="954" d="M123 0v1184h297v-127q113 157 262 157q147 0 293 -153l-158 -250q-108 119 -201 119q-30 0 -62 -14t-63 -42.5t-51 -82t-20 -123.5v-668h-297z" />
<glyph unicode="s" horiz-adv-x="1050" d="M82 850q0 84 40 154t105 115t146 70t166 25q271 0 442 -204l-176 -179q-112 138 -260 138q-62 0 -116 -30t-54 -81q0 -45 58 -79t183 -72q107 -31 188 -80t133 -125.5t52 -169.5q0 -86 -41 -157t-107.5 -115.5t-146.5 -68.5t-162 -24q-283 0 -448 211l178 180 q114 -143 273 -143q72 0 116.5 26.5t44.5 75.5q0 51 -60 86t-190 74q-74 22 -136 53.5t-115 76t-83 107t-30 136.5z" />
<glyph unicode="t" horiz-adv-x="833" d="M31 920v112q147 74 243.5 202.5t120.5 297.5h86v-346h299v-266h-299v-539q0 -84 35 -116t98 -32q41 0 88.5 13.5t79.5 40.5v-260q-88 -58 -223 -58q-205 0 -289 102t-84 330v519h-155z" />
<glyph unicode="u" horiz-adv-x="1294" d="M102 465v719h295v-705q0 -122 67 -188t165 -66q143 0 248 99v860h294v-1184h-294v90q-55 -55 -144.5 -87t-171.5 -32q-93 0 -173.5 29.5t-145.5 87.5t-102.5 155t-37.5 222z" />
<glyph unicode="v" horiz-adv-x="1222" d="M31 1184h323l269 -795l268 795h321l-444 -1186h-291z" />
<glyph unicode="w" horiz-adv-x="1820" d="M31 1186h311l223 -742l223 742h263l225 -742l223 742h311l-397 -1188h-256l-235 707l-236 -707h-256z" />
<glyph unicode="x" horiz-adv-x="1210" d="M31 -2l422 620l-387 568h333l217 -332l215 332h336l-389 -568l422 -620h-338l-246 379l-247 -379h-338z" />
<glyph unicode="y" horiz-adv-x="1208" d="M31 1186h321l273 -762l256 762h317l-532 -1407q-59 -156 -153 -226.5t-232 -70.5q-47 0 -93 12l-98 275q81 -35 141 -35q162 0 215 149l41 119z" />
<glyph unicode="z" horiz-adv-x="1140" d="M41 0l575 922h-520v264h1014l-588 -922h565v-264h-1046z" />
<glyph unicode="{" horiz-adv-x="827" d="M61 477v232q55 0 95.5 15t64.5 51t38.5 68.5t21 95t7.5 101.5t2 116q0 71 1 108t5.5 102.5t15.5 102.5t29 88t48 80t71 58t99 41.5t131 12.5h107v-272h-80q-87 0 -117.5 -81.5t-30.5 -260.5v-17v-67t-2 -66t-5 -69.5t-9 -65.5t-15 -65t-23 -58t-32 -54t-43 -43t-55 -36 q28 -12 51 -28t40.5 -37.5t31.5 -40.5t23.5 -49.5t17 -51.5t11.5 -58.5t6.5 -58.5t3.5 -63.5t1 -62v-64.5q0 -195 31.5 -283t114.5 -88h80v-274h-123q-56 0 -103.5 9t-83 25t-64 39t-48 51.5t-34.5 62t-23 70.5t-13.5 77t-7 81t-2.5 83.5t0 84.5q0 40 0.5 78.5t-2 75.5 t-6 71t-11.5 64.5t-19.5 56.5t-29.5 47t-41 35.5t-54.5 22.5t-70.5 8z" />
<glyph unicode="|" horiz-adv-x="546" d="M168 -399v2183h252v-2183h-252z" />
<glyph unicode="}" horiz-adv-x="827" d="M31 -291h80q83 0 114 87.5t31 283.5v13v70t2 67.5t5 68t9.5 62t15.5 61t23 52.5t32.5 49t43.5 39t55 32q-30 15 -55 36t-43 43t-32 54t-23 58t-15 65t-9 65.5t-5 69.5t-2 66v67v17q0 180 -30 261t-117 81h-80v272h106q65 0 118.5 -12t92.5 -29.5t69 -50.5t50 -61 t33.5 -77.5t20.5 -82.5t11 -92.5t4.5 -91.5t0.5 -96q1 -77 2 -116t7.5 -101.5t21 -95t38.5 -68.5t64.5 -51t95.5 -15v-232q-43 0 -78 -10t-58.5 -28.5t-41.5 -44t-28 -57.5t-17 -69t-8.5 -77.5t-2.5 -84t0 -88.5q-1 -47 0 -93.5t-3 -92.5t-9.5 -89.5t-19 -83t-31.5 -73.5 t-47 -62t-66 -47.5t-88.5 -30.5t-113.5 -11h-123v274z" />
<glyph unicode="~" horiz-adv-x="1333" d="M51 543v319q149 152 355 152q69 0 149 -23t139.5 -51t130.5 -51t125 -23q46 0 89 12t84 37.5t69.5 47t70.5 57.5q13 11 19 16v-336q-85 -72 -166.5 -107.5t-185.5 -35.5q-63 0 -127 15.5t-116 38t-101.5 45t-102 38t-98.5 15.5q-41 0 -80.5 -10.5t-67 -22t-67 -39.5 t-57.5 -42.5t-62 -51.5z" />
<glyph horiz-adv-x="657" />
<glyph unicode="&#xa1;" horiz-adv-x="559" d="M82 0l86 1184h182l86 -1184h-354zM106 1333v305h306v-305h-306z" />
<glyph unicode="&#xa2;" horiz-adv-x="1222" d="M82 592q0 231 148 404t370 210v133h186v-131q220 -34 363 -190l-193 -193q-71 95 -180 121v-708q128 35 191 135l194 -195q-147 -167 -375 -203v-190h-186v192q-222 37 -370 210.5t-148 404.5zM360 592q0 -125 71 -224t179 -128v704q-106 -33 -178 -131.5t-72 -220.5z " />
<glyph unicode="&#xa3;" horiz-adv-x="1302" d="M102 -33q79 141 126.5 292t70.5 339h-164l2 279h191q0 9 8 67t8 68q11 109 23 182.5t21 106t26 79.5q43 135 151 212t240 77q246 0 387 -184l-203 -199q-58 98 -162 98q-52 0 -91 -26.5t-60 -69.5q-24 -48 -45 -219l-23 -192h348l2 -279h-378q-8 -69 -26.5 -157.5 t-37.5 -137.5q69 6 76 6q68 0 162 -16q14 -3 47 -9.5t46 -8.5t39.5 -4.5t55.5 -2.5q77 0 128 12.5t130 47.5v-318q-121 -33 -282 -33q-88 0 -302 39q-90 17 -204 17q-68 0 -159.5 -19.5t-150.5 -46.5z" />
<glyph unicode="&#xa4;" horiz-adv-x="1652" d="M61 528l121 207h62q-4 54 -4 78q0 49 2 74h-181l121 207h103q88 259 314.5 417t528.5 158q232 0 441 -115l-152 -264q-134 78 -289 78q-165 0 -295 -72t-202 -202h686l-121 -207h-633q-2 -23 -2 -68q0 -43 6 -84l551 -2l-119 -207h-356q73 -119 199.5 -186.5t285.5 -67.5 q172 0 291 76l152 -266q-196 -113 -443 -113q-288 0 -516 156.5t-321 402.5h-230z" />
<glyph unicode="&#xa5;" horiz-adv-x="1593" d="M31 1630h381l391 -631l397 631h373l-356 -553h172v-272h-349l-79 -123v-61h428v-273h-428v-354h-316v354h-432v273h432v59l-82 125h-350v272h174z" />
<glyph unicode="&#xa6;" horiz-adv-x="587" d="M168 -399v944h252v-944h-252zM168 842v942h252v-942h-252z" />
<glyph unicode="&#xa7;" horiz-adv-x="2387" d="M41 655q80 27 176 43q-63 -169 -63 -178q2 -5 4 -6q24 6 59 36t57 58l52 -258q-31 25 -105 49q-6 1 -11.5 2t-8.5 1.5t-6 0.5q28 -97 86 -159t151 -62q79 0 141 49.5t62 128.5q0 41 -27 77t-67 36q-99 0 -99 -111q0 -19 7 -47q-47 7 -71 50t-24 94q0 74 45.5 124 t118.5 50q27 0 43.5 -7t42.5 -26q-22 34 -29.5 62t-7.5 71q0 74 58 154q108 -73 108 -197q0 -24 -16 -86q68 68 125 68q50 0 86.5 -42t36.5 -93q0 -82 -78 -129q2 2 2 12q0 38 -25 65t-65 27q-39 0 -61.5 -28.5t-22.5 -69.5q0 -68 64.5 -112t135.5 -44q60 0 110.5 17.5 t87 61.5t36.5 109q0 7 -4 35q-81 -33 -133 -61l-8 250q77 -52 126 -78q5 -2 6.5 0t0.5 6q-6 24 -15.5 49.5t-15.5 40.5t-20 46t-19 44h238q-23 -51 -66 -182q-1 -3 -1 -5t1.5 -3t3.5 0q83 49 127 84l-6 -252q-19 11 -39 20.5t-45 21t-41 19.5v-37q0 -91 49.5 -140.5 t138.5 -49.5q79 0 139 42.5t60 117.5q0 36 -22 61t-58 25q-48 0 -84 -80q-51 51 -51 110q0 64 31 103t94 39q51 0 121 -74q-6 38 -6 72q0 120 108 204q58 -71 58 -143q0 -84 -50 -166q61 53 109 53q54 0 94.5 -39.5t40.5 -93.5q0 -55 -44 -109.5t-99 -72.5q22 25 22 84 q0 72 -71 72q-39 0 -61.5 -38t-22.5 -81q0 -72 38 -106t113 -54q28 -9 58 -6q97 4 147 58.5t80 175.5q-103 -36 -146 -60q10 34 34.5 130.5t37.5 137.5q62 -71 98 -102q11 -11 11 8l-6 68q-2 12 -7 50.5t-8 53.5q102 -14 162 -39q-2 -5 -15.5 -43t-21.5 -59q-1 -3 -22 -64 q13 -61 -17 -110q-18 -30 -39 -39l-88 -207q18 -63 31 -139q3 -27 -12 -45l-117 -146q-349 160 -846 160q-221 0 -458 -39t-392 -119q-8 7 -40 35.5t-50 42.5l-53 43q-18 18 -21 31q-2 6 -2 23q0 14 7.5 85t7.5 87l-62 196q-19 11 -26 21q-30 26 -36.5 68.5t13.5 80.5z M106 459q0 -21 14 -47.5t32 -26.5q16 0 16 29q0 20 -15 49t-32 29q-15 0 -15 -33zM215 799q0 14 10 24.5t23 10.5q14 0 25.5 -11t11.5 -24t-10.5 -24t-24.5 -11t-24.5 11t-10.5 24zM225 -27q0 -4 4.5 -10t13 -14t17 -14.5t20 -16t17.5 -14.5q6 18 6 57v41l-67 55 q-11 -57 -11 -84zM287 735q9 16 41 41q154 120 319.5 197t394.5 133q22 -51 44 -137t30 -146q2 -5 -2 -7.5t-14 -2.5q-17 0 -21 4q-32 156 -71 236q-169 -36 -349 -122t-309 -190q-6 -5 -22 -18t-21 -16q-4 -1 -13 11t-7 17zM289 879q0 17 11 29t28 12t30 -12t13 -29 t-12 -29t-29 -12t-29 12t-12 29zM387 952q0 17 12 29t29 12t30 -12t13 -29q0 -19 -12 -31t-29 -12q-18 0 -30.5 12.5t-12.5 30.5zM391 74q0 -17 12 -28t29 -11q39 0 39 39q0 17 -12 29t-29 12t-28 -12t-11 -29zM403 -231q0 9 21 18q159 64 369.5 95.5t408.5 31.5 q186 0 393.5 -30t356.5 -91q30 -9 30 -24q0 -16 -26 -25q-167 -64 -332.5 -87.5t-378.5 -23.5q-236 0 -430.5 26t-388.5 91q-23 7 -23 19zM428 -35q0 -17 13 -29t30 -12t29 12t12 29t-13 29t-30 12t-29 -12t-12 -29zM494 1024q0 19 13.5 33t33.5 14q19 0 34 -14t15 -33 q0 -20 -13.5 -34.5t-33.5 -14.5t-34.5 14.5t-14.5 34.5zM596 76q6 -41 46.5 -62.5t94.5 -13.5q55 11 87.5 43.5t25.5 73.5q-6 39 -47 61t-94 12q-53 -7 -86 -41t-27 -73zM608 1085q0 23 15.5 38.5t38.5 15.5t38 -15.5t15 -38.5t-14 -38t-37 -15q-24 0 -40 15t-16 38z M752 1143q0 23 15 39t38 16t40 -16t17 -39t-16 -39.5t-39 -16.5t-39 16.5t-16 39.5zM899 1184q0 24 16.5 40.5t40.5 16.5q23 0 40.5 -17t17.5 -40t-16.5 -40.5t-39.5 -17.5t-41 17.5t-18 40.5zM942 166q0 -17 12 -29t29 -12t28 12t11 29t-12 28t-29 11q-39 0 -39 -39z M952 49q0 -18 12.5 -30.5t30.5 -12.5q17 0 29 12t12 31q0 17 -13 29t-30 12t-29 -12t-12 -29zM1055 1534l100 -27l-43 133h156l-39 -133l98 27l-2 -127l-111 39v-74q42 -4 73.5 -41t31.5 -82q0 -51 -37 -87t-88 -36q-56 0 -93.5 35.5t-37.5 89.5q0 44 31 79.5t75 41.5v74 l-108 -39zM1102 1266q27 -15 69 -15l-2 84q-52 -15 -67 -69zM1116 1202q11 -19 34.5 -29t43.5 -10q18 0 40 11t32 28q-28 19 -74 19q-45 0 -76 -19zM1126 141l27 -47q26 -47 37 -47t37 47l26 47l-28 45q-29 47 -37 47t-37 -47zM1139 1051q0 23 15 38t38 15q20 0 35.5 -16.5 t15.5 -36.5q0 -23 -15 -38.5t-38 -15.5q-21 0 -36 15.5t-15 38.5zM1145 934q0 18 13.5 30.5t31.5 12.5t31.5 -12.5t13.5 -30.5t-12.5 -30.5t-30.5 -12.5t-32.5 12.5t-14.5 30.5zM1153 836q0 13 11.5 23.5t25.5 10.5t26.5 -10.5t12.5 -23.5q0 -16 -11.5 -26.5t-25.5 -10.5 q-15 0 -27 10.5t-12 26.5zM1157 539q0 -13 10.5 -24t24.5 -11t24.5 11t10.5 24q0 14 -10 24t-27 10q-13 0 -23 -10t-10 -24zM1214 1251q31 -3 64 17q-8 43 -64 67v-45v-39zM1262 823q7 56 30 141t45 144q233 -59 397 -139.5t339 -212.5l36 -33q-1 -3 -4 -7t-4 -7 q-5 -8 -8 -11t-4 -2l-35 25q-294 235 -684 334q-24 -49 -44 -117t-26 -115q-3 -10 -18 -10q-17 0 -19.5 1t-0.5 9zM1335 51q0 -19 12 -31t29 -12q19 0 31 12t12 31q0 17 -13 29t-30 12q-18 0 -29.5 -11.5t-11.5 -29.5zM1352 166q0 -17 12 -29t29 -12t28 12t11 29t-12 28 t-29 11q-39 0 -39 -39zM1360 1178q0 24 16.5 40.5t40.5 16.5q23 0 40.5 -17t17.5 -40t-16.5 -40.5t-39.5 -17.5t-41 17.5t-18 40.5zM1513 115q-6 -38 26.5 -71.5t86.5 -43.5q53 -10 95 12.5t48 61.5q6 41 -25.5 73t-86.5 43q-55 8 -96.5 -13t-47.5 -62zM1518 1135 q0 23 15 39t38 16t40 -16t17 -39t-16 -39.5t-39 -16.5t-39 16.5t-16 39.5zM1663 1077q0 23 15 38t38 15t38 -15t15 -38t-14 -38t-37 -15t-39 15t-16 38zM1792 1016q0 19 13.5 33t33.5 14q19 0 34 -14t15 -33q0 -20 -13.5 -34.5t-33.5 -14.5t-34.5 14.5t-14.5 34.5zM1841 -31 q0 -17 13 -29t30 -12t29 12t12 29t-13 29t-30 12t-29 -12t-12 -29zM1878 80q0 -17 12 -29t29 -12t28 12t11 29t-12 28t-29 11q-39 0 -39 -39zM1911 944q0 17 12 29t29 12t30 -12t13 -29q0 -19 -12 -31t-29 -12q-18 0 -30.5 12.5t-12.5 30.5zM2015 870q0 17 12 29t29 12 t29 -12t12 -29t-12 -29t-29 -12t-29 12t-12 29zM2050 2l39 -84q6 9 18.5 25t20.5 27.5t8 17.5q0 27 -22 78zM2105 791q0 14 10 24t23 10q14 0 25.5 -10.5t11.5 -23.5t-10.5 -24t-24.5 -11t-24.5 11t-10.5 24zM2198 406q0 -27 16 -27q18 0 31.5 28.5t13.5 49.5q0 26 -16 26 q-18 0 -31.5 -28t-13.5 -49z" />
<glyph unicode="&#xa8;" horiz-adv-x="1187" d="M209 1331v266h266v-266h-266zM680 1331v266h266v-266h-266z" />
<glyph unicode="&#xa9;" horiz-adv-x="1323" d="M82 633q0 149 75 283.5t202 216t270 81.5q78 0 151.5 -21.5t124.5 -59.5v53h295v-1196q0 -101 -24.5 -183.5t-61.5 -135t-90 -91t-100.5 -58t-103 -31t-86.5 -13.5t-62 -2q-174 0 -307 71l-97 269q88 -45 180 -68.5t162 -23.5q25 0 45 1.5t52.5 8t57 17.5t52.5 34 t46 54.5t30 80t12 109.5v121q-122 -93 -276 -93q-148 0 -274 78.5t-199.5 211.5t-73.5 286zM371 631q0 -131 96.5 -226.5t228.5 -95.5q115 0 211 78v498q-42 36 -99 56t-110 20q-137 0 -232 -96t-95 -234z" />
<glyph unicode="&#xaa;" horiz-adv-x="802" d="M41 1116q0 96 65 161t164.5 87.5t212.5 5.5q-12 107 -139 107q-76 0 -156 -70l-129 131q137 131 312 131q149 0 239 -90q50 -50 70 -110.5t20 -155.5v-414h-215v25q-74 -43 -192 -43q-111 0 -181.5 65t-70.5 170zM262 1133q0 -27 23 -46.5t59 -19.5q71 0 139 39v100 q-221 19 -221 -73z" />
<glyph unicode="&#xab;" horiz-adv-x="1261" d="M41 559l369 557h305l-369 -557l367 -559h-303zM551 559l364 557h306l-369 -557l369 -559h-306z" />
<glyph unicode="&#xac;" horiz-adv-x="1376" d="M82 895v274h1171v-774h-274v500h-897z" />
<glyph unicode="&#xad;" horiz-adv-x="765" d="M61 532v275h644v-275h-644z" />
<glyph unicode="&#xae;" horiz-adv-x="1859" d="M51 850q0 179 69.5 341.5t187.5 280.5t280.5 187.5t341.5 69.5t341.5 -69.5t280 -187.5t187 -280.5t69.5 -341.5t-69.5 -341.5t-187 -280.5t-280 -187.5t-341.5 -69.5t-341.5 69.5t-280.5 187.5t-187.5 280.5t-69.5 341.5zM219 850q0 -144 56.5 -275.5t152 -227t227 -152 t275.5 -56.5t275.5 56.5t226.5 152t151.5 227t56.5 275.5t-56.5 275.5t-151.5 227t-226.5 152t-275.5 56.5t-275.5 -56.5t-227 -152t-152 -227t-56.5 -275.5zM559 317v1069h203h215q139 0 232.5 -88.5t93.5 -232.5q0 -80 -54.5 -157t-140.5 -120q48 -24 75 -53t46 -78 q26 -65 76 -211q6 -16 15 -39.5t13.5 -36t11.5 -27.5t13 -26h-225l-76 244q-28 89 -75.5 135.5t-137.5 46.5h-82v-426h-203zM762 901h151q77 0 130 45.5t53 118.5q0 74 -53 121t-130 47h-151v-332z" />
<glyph unicode="&#xaf;" horiz-adv-x="1294" d="M193 1331v236h888v-236h-888z" />
<glyph unicode="&#xb0;" horiz-adv-x="892" d="M102 1276q0 147 103.5 249.5t251.5 102.5t251 -103t103 -249q0 -149 -103 -252.5t-251 -103.5q-144 0 -249.5 104t-105.5 252zM309 1276q0 -61 44 -104.5t104 -43.5t102.5 43.5t42.5 104.5q0 60 -42.5 102.5t-102.5 42.5q-61 0 -104.5 -42.5t-43.5 -102.5z" />
<glyph unicode="&#xb1;" horiz-adv-x="2387" d="M41 655q80 27 176 43q-63 -169 -63 -178q2 -5 4 -6q24 6 59 36t57 58l52 -258q-31 25 -105 49q-6 1 -11.5 2t-8.5 1.5t-6 0.5q28 -97 86 -159t151 -62q79 0 141 49.5t62 128.5q0 41 -27 77t-67 36q-99 0 -99 -111q0 -19 7 -47q-47 7 -71 50t-24 94q0 74 45.5 124 t118.5 50q27 0 43.5 -7t42.5 -26q-22 34 -29.5 62t-7.5 71q0 74 58 154q108 -73 108 -197q0 -24 -16 -86q68 68 125 68q50 0 86.5 -42t36.5 -93q0 -82 -78 -129q2 2 2 12q0 38 -25 65t-65 27q-39 0 -61.5 -28.5t-22.5 -69.5q0 -68 64.5 -112t135.5 -44q60 0 110.5 17.5 t87 61.5t36.5 109q0 7 -4 35q-81 -33 -133 -61l-8 250q77 -52 126 -78q5 -2 6.5 0t0.5 6q-6 24 -15.5 49.5t-15.5 40.5t-20 46t-19 44h238q-23 -51 -66 -182q-1 -3 -1 -5t1.5 -3t3.5 0q83 49 127 84l-6 -252q-19 11 -39 20.5t-45 21t-41 19.5v-37q0 -91 49.5 -140.5 t138.5 -49.5q79 0 139 42.5t60 117.5q0 36 -22 61t-58 25q-48 0 -84 -80q-51 51 -51 110q0 64 31 103t94 39q51 0 121 -74q-6 38 -6 72q0 120 108 204q58 -71 58 -143q0 -84 -50 -166q61 53 109 53q54 0 94.5 -39.5t40.5 -93.5q0 -55 -44 -109.5t-99 -72.5q22 25 22 84 q0 72 -71 72q-39 0 -61.5 -38t-22.5 -81q0 -72 38 -106t113 -54q28 -9 58 -6q97 4 147 58.5t80 175.5q-103 -36 -146 -60q10 34 34.5 130.5t37.5 137.5q62 -71 98 -102q11 -11 11 8l-6 68q-2 12 -7 50.5t-8 53.5q102 -14 162 -39q-2 -5 -15.5 -43t-21.5 -59q-1 -3 -22 -64 q13 -61 -17 -110q-18 -30 -39 -39l-88 -207q18 -63 31 -139q3 -27 -12 -45l-117 -146q-349 160 -846 160q-221 0 -458 -39t-392 -119q-8 7 -40 35.5t-50 42.5l-53 43q-18 18 -21 31q-2 6 -2 23q0 14 7.5 85t7.5 87l-62 196q-19 11 -26 21q-30 26 -36.5 68.5t13.5 80.5z M106 459q0 -21 14 -47.5t32 -26.5q16 0 16 29q0 20 -15 49t-32 29q-15 0 -15 -33zM215 799q0 14 10 24.5t23 10.5q14 0 25.5 -11t11.5 -24t-10.5 -24t-24.5 -11t-24.5 11t-10.5 24zM225 -27q0 -4 4.5 -10t13 -14t17 -14.5t20 -16t17.5 -14.5q6 18 6 57v41l-67 55 q-11 -57 -11 -84zM287 735q9 16 41 41q154 120 319.5 197t394.5 133q22 -51 44 -137t30 -146q2 -5 -2 -7.5t-14 -2.5q-17 0 -21 4q-32 156 -71 236q-169 -36 -349 -122t-309 -190q-6 -5 -22 -18t-21 -16q-4 -1 -13 11t-7 17zM289 879q0 17 11 29t28 12t30 -12t13 -29 t-12 -29t-29 -12t-29 12t-12 29zM387 952q0 17 12 29t29 12t30 -12t13 -29q0 -19 -12 -31t-29 -12q-18 0 -30.5 12.5t-12.5 30.5zM391 74q0 -17 12 -28t29 -11q39 0 39 39q0 17 -12 29t-29 12t-28 -12t-11 -29zM403 -231q0 9 21 18q159 64 369.5 95.5t408.5 31.5 q186 0 393.5 -30t356.5 -91q30 -9 30 -24q0 -16 -26 -25q-167 -64 -332.5 -87.5t-378.5 -23.5q-236 0 -430.5 26t-388.5 91q-23 7 -23 19zM428 -35q0 -17 13 -29t30 -12t29 12t12 29t-13 29t-30 12t-29 -12t-12 -29zM494 1024q0 19 13.5 33t33.5 14q19 0 34 -14t15 -33 q0 -20 -13.5 -34.5t-33.5 -14.5t-34.5 14.5t-14.5 34.5zM596 76q6 -41 46.5 -62.5t94.5 -13.5q55 11 87.5 43.5t25.5 73.5q-6 39 -47 61t-94 12q-53 -7 -86 -41t-27 -73zM608 1085q0 23 15.5 38.5t38.5 15.5t38 -15.5t15 -38.5t-14 -38t-37 -15q-24 0 -40 15t-16 38z M752 1143q0 23 15 39t38 16t40 -16t17 -39t-16 -39.5t-39 -16.5t-39 16.5t-16 39.5zM899 1184q0 24 16.5 40.5t40.5 16.5q23 0 40.5 -17t17.5 -40t-16.5 -40.5t-39.5 -17.5t-41 17.5t-18 40.5zM942 166q0 -17 12 -29t29 -12t28 12t11 29t-12 28t-29 11q-39 0 -39 -39z M952 49q0 -18 12.5 -30.5t30.5 -12.5q17 0 29 12t12 31q0 17 -13 29t-30 12t-29 -12t-12 -29zM1055 1534l100 -27l-43 133h156l-39 -133l98 27l-2 -127l-111 39v-74q42 -4 73.5 -41t31.5 -82q0 -51 -37 -87t-88 -36q-56 0 -93.5 35.5t-37.5 89.5q0 44 31 79.5t75 41.5v74 l-108 -39zM1102 1266q27 -15 69 -15l-2 84q-52 -15 -67 -69zM1116 1202q11 -19 34.5 -29t43.5 -10q18 0 40 11t32 28q-28 19 -74 19q-45 0 -76 -19zM1126 141l27 -47q26 -47 37 -47t37 47l26 47l-28 45q-29 47 -37 47t-37 -47zM1139 1051q0 23 15 38t38 15q20 0 35.5 -16.5 t15.5 -36.5q0 -23 -15 -38.5t-38 -15.5q-21 0 -36 15.5t-15 38.5zM1145 934q0 18 13.5 30.5t31.5 12.5t31.5 -12.5t13.5 -30.5t-12.5 -30.5t-30.5 -12.5t-32.5 12.5t-14.5 30.5zM1153 836q0 13 11.5 23.5t25.5 10.5t26.5 -10.5t12.5 -23.5q0 -16 -11.5 -26.5t-25.5 -10.5 q-15 0 -27 10.5t-12 26.5zM1157 539q0 -13 10.5 -24t24.5 -11t24.5 11t10.5 24q0 14 -10 24t-27 10q-13 0 -23 -10t-10 -24zM1214 1251q31 -3 64 17q-8 43 -64 67v-45v-39zM1262 823q7 56 30 141t45 144q233 -59 397 -139.5t339 -212.5l36 -33q-1 -3 -4 -7t-4 -7 q-5 -8 -8 -11t-4 -2l-35 25q-294 235 -684 334q-24 -49 -44 -117t-26 -115q-3 -10 -18 -10q-17 0 -19.5 1t-0.5 9zM1335 51q0 -19 12 -31t29 -12q19 0 31 12t12 31q0 17 -13 29t-30 12q-18 0 -29.5 -11.5t-11.5 -29.5zM1352 166q0 -17 12 -29t29 -12t28 12t11 29t-12 28 t-29 11q-39 0 -39 -39zM1360 1178q0 24 16.5 40.5t40.5 16.5q23 0 40.5 -17t17.5 -40t-16.5 -40.5t-39.5 -17.5t-41 17.5t-18 40.5zM1513 115q-6 -38 26.5 -71.5t86.5 -43.5q53 -10 95 12.5t48 61.5q6 41 -25.5 73t-86.5 43q-55 8 -96.5 -13t-47.5 -62zM1518 1135 q0 23 15 39t38 16t40 -16t17 -39t-16 -39.5t-39 -16.5t-39 16.5t-16 39.5zM1663 1077q0 23 15 38t38 15t38 -15t15 -38t-14 -38t-37 -15t-39 15t-16 38zM1792 1016q0 19 13.5 33t33.5 14q19 0 34 -14t15 -33q0 -20 -13.5 -34.5t-33.5 -14.5t-34.5 14.5t-14.5 34.5zM1841 -31 q0 -17 13 -29t30 -12t29 12t12 29t-13 29t-30 12t-29 -12t-12 -29zM1878 80q0 -17 12 -29t29 -12t28 12t11 29t-12 28t-29 11q-39 0 -39 -39zM1911 944q0 17 12 29t29 12t30 -12t13 -29q0 -19 -12 -31t-29 -12q-18 0 -30.5 12.5t-12.5 30.5zM2015 870q0 17 12 29t29 12 t29 -12t12 -29t-12 -29t-29 -12t-29 12t-12 29zM2050 2l39 -84q6 9 18.5 25t20.5 27.5t8 17.5q0 27 -22 78zM2105 791q0 14 10 24t23 10q14 0 25.5 -10.5t11.5 -23.5t-10.5 -24t-24.5 -11t-24.5 11t-10.5 24zM2198 406q0 -27 16 -27q18 0 31.5 28.5t13.5 49.5q0 26 -16 26 q-18 0 -31.5 -28t-13.5 -49z" />
<glyph unicode="&#xb2;" horiz-adv-x="907" d="M82 668l385 462q54 69 84.5 120t30.5 93q0 56 -35 87.5t-80 31.5q-119 0 -207 -125l-149 148q78 92 164.5 138t203.5 46q142 0 234 -80t92 -229q0 -48 -12 -92t-40 -90.5t-49 -75.5t-63 -82l-109 -137h291v-215h-741z" />
<glyph unicode="&#xb3;" horiz-adv-x="931" d="M82 856l149 154q138 -152 254 -152q63 0 102.5 30.5t39.5 88.5q0 25 -10 44.5t-31 31t-41.5 18.5t-52 10t-51.5 3.5t-52 0.5l-2 170q36 0 59.5 1t57.5 6.5t54 16t35 31.5t15 50q0 49 -33.5 74.5t-87.5 25.5q-69 0 -122 -30.5t-99 -100.5l-153 156q79 98 166 141t200 43 q62 0 124 -20t114 -55.5t84.5 -92.5t32.5 -125q0 -60 -32 -111.5t-83 -86.5q58 -32 94.5 -86.5t36.5 -120.5q0 -152 -104 -237t-254 -85q-125 0 -225 49.5t-185 157.5z" />
<glyph unicode="&#xb4;" horiz-adv-x="1208" d="M401 1331l185 395h327l-295 -395h-217z" />
<glyph unicode="&#xb5;" horiz-adv-x="1304" d="M102 -514v1700h295v-707q0 -113 63 -186.5t175 -73.5q148 0 254 100v867h293v-1186h-293v98q-55 -59 -146.5 -93t-177.5 -34q-99 0 -170 27v-512h-293z" />
<glyph unicode="&#xb6;" horiz-adv-x="1292" d="M82 1186q0 130 63 234.5t174 158.5q136 59 345 59h669v-170h-137v-2037h-209v2037h-151v-2037h-222v1263q-149 11 -211 33q-142 44 -231.5 172t-89.5 287z" />
<glyph unicode="&#xb7;" horiz-adv-x="548" d="M123 614v314h313v-314h-313z" />
<glyph unicode="&#xb8;" horiz-adv-x="1318" d="M535 -463l14 70q41 -25 82 -25q53 0 88 31.5t35 73.5q0 48 -34 80t-89 32q-7 0 -49 -6l39 199h161l-24 -109q99 -16 148.5 -74.5t49.5 -136.5q0 -73 -63 -135.5t-156 -62.5q-126 0 -202 63z" />
<glyph unicode="&#xb9;" horiz-adv-x="516" d="M82 1348v196l352 139v-1009h-209v731z" />
<glyph unicode="&#xba;" horiz-adv-x="925" d="M41 1276q0 164 114 278.5t277 114.5q162 0 276.5 -114.5t114.5 -278.5t-114.5 -279.5t-276.5 -115.5q-163 0 -277 115.5t-114 279.5zM248 1276q0 -84 54 -142.5t130 -58.5q74 0 129 58.5t55 142.5q0 82 -55 140.5t-129 58.5q-76 0 -130 -57t-54 -142z" />
<glyph unicode="&#xbb;" horiz-adv-x="1261" d="M41 0l369 559l-369 557h305l365 -557l-365 -559h-305zM547 0l368 559l-368 557h305l369 -557l-369 -559h-305z" />
<glyph unicode="&#xbc;" horiz-adv-x="1708" d="M82 1348v196l352 139v-1009h-209v731zM86 -104l1100 1732h254l-1098 -1732h-256zM846 205v153l465 625h182v-584h133v-194h-133v-205h-215v205h-432zM1096 401l182 -2v242z" />
<glyph unicode="&#xbd;" horiz-adv-x="1867" d="M82 1348v196l352 139v-1009h-209v731zM86 -104l1100 1732h254l-1098 -1732h-256zM1044 0l386 463q54 68 84 119.5t30 93.5q0 56 -34.5 87.5t-79.5 31.5q-119 0 -207 -125l-150 147q78 92 165 138t204 46q143 0 233 -79.5t90 -229.5q0 -48 -12 -92.5t-38.5 -90 t-48.5 -76.5t-62 -81l-109 -139l291 2v-215h-742z" />
<glyph unicode="&#xbe;" horiz-adv-x="1980" d="M82 856l149 154q138 -152 254 -152q63 0 102.5 30.5t39.5 88.5q0 25 -10 44.5t-31 31t-41.5 18.5t-52 10t-51.5 3.5t-52 0.5l-2 170q36 0 59.5 1t57.5 6.5t54 16t35 31.5t15 50q0 49 -33.5 74.5t-87.5 25.5q-69 0 -122 -30.5t-99 -100.5l-153 156q79 98 166 141t200 43 q62 0 124 -20t114 -55.5t84.5 -92.5t32.5 -125q0 -60 -32 -111.5t-83 -86.5q58 -32 94.5 -86.5t36.5 -120.5q0 -152 -104 -237t-254 -85q-125 0 -225 49.5t-185 157.5zM360 -104l1098 1732h256l-1100 -1732h-254zM1118 205v153l465 625h184v-584h131v-194h-131v-205h-217 v205h-432zM1370 401l180 -2v242z" />
<glyph unicode="&#xbf;" horiz-adv-x="1155" d="M82 416q0 152 82.5 268.5t218.5 179.5l106 49q54 25 78.5 62.5t24.5 109.5v99h293v-101q0 -125 -23 -201.5t-64.5 -117t-117.5 -76.5l-94 -43q-195 -90 -195 -227q0 -71 63 -124.5t162 -53.5q169 0 279 116l178 -206q-183 -183 -477 -183q-219 0 -366.5 125t-147.5 324z M586 1333v305h305v-305h-305z" />
<glyph unicode="&#xc0;" horiz-adv-x="1816" d="M20 0l775 1638h247l775 -1638h-349l-151 328h-795l-153 -328h-349zM598 2179h330l182 -395h-217zM643 592h549l-272 590z" />
<glyph unicode="&#xc1;" horiz-adv-x="1816" d="M20 0l775 1638h247l775 -1638h-349l-151 328h-795l-153 -328h-349zM643 592h549l-272 590zM717 1784l184 395h328l-295 -395h-217z" />
<glyph unicode="&#xc2;" horiz-adv-x="1816" d="M20 0l775 1638h247l775 -1638h-349l-151 328h-795l-153 -328h-349zM522 1784l264 395h265l264 -395h-221l-174 174l-177 -174h-221zM643 592h549l-272 590z" />
<glyph unicode="&#xc3;" horiz-adv-x="1816" d="M20 0l775 1638h247l775 -1638h-349l-151 328h-795l-153 -328h-349zM500 1784q0 51 9.5 99.5t30.5 94.5t51.5 80.5t76 55t100.5 20.5q64 0 167.5 -45t141.5 -45q73 0 88 90h176q-2 -68 -17.5 -127t-46 -111t-83.5 -82t-123 -30q-53 0 -110.5 22.5t-110.5 45t-96 22.5 q-34 0 -53.5 -26.5t-24.5 -63.5h-176zM643 592h549l-272 590z" />
<glyph unicode="&#xc4;" horiz-adv-x="1816" d="M20 0l775 1638h247l775 -1638h-349l-151 328h-795l-153 -328h-349zM549 1784v266h266v-266h-266zM643 592h549l-272 590zM1020 1784v266h266v-266h-266z" />
<glyph unicode="&#xc5;" horiz-adv-x="1816" d="M20 0l775 1638h247l775 -1638h-349l-151 328h-795l-153 -328h-349zM643 592h549l-272 590zM678 2028q0 98 72 169.5t170 71.5q100 0 171.5 -71.5t71.5 -169.5q0 -101 -71.5 -172.5t-171.5 -71.5q-99 0 -170.5 71.5t-71.5 172.5zM829 2028q0 -38 27 -64.5t64 -26.5 t63.5 26.5t26.5 64.5q0 37 -26.5 62.5t-63.5 25.5t-64 -26t-27 -62z" />
<glyph unicode="&#xc6;" horiz-adv-x="2222" d="M0 0l948 1638h246v-2h836l28 -262h-770l39 -391h762l27 -256h-760l47 -451h770l29 -276h-754h-328l-35 328h-548l-189 -328h-348zM686 592h373l-60 551z" />
<glyph unicode="&#xc7;" horiz-adv-x="1662" d="M102 819q0 175 69.5 332.5t187 271t279.5 180t341 66.5q205 0 381 -85.5t297 -231.5l-219 -226q-76 112 -197.5 177t-261.5 65q-150 0 -278.5 -74.5t-203.5 -201t-75 -273.5q0 -109 44.5 -210t119 -174.5t178 -118t215.5 -44.5q290 0 463 250l221 -227 q-115 -138 -270 -221.5t-338 -100.5l-21 -90q99 -16 149 -75t50 -136q0 -73 -63 -135.5t-156 -62.5q-127 0 -203 63l14 70q41 -25 82 -25q53 0 88 31.5t35 73.5q0 48 -34 80t-89 32q-7 0 -49 -6l35 180q-221 19 -402.5 136.5t-285 304.5t-103.5 405z" />
<glyph unicode="&#xc8;" horiz-adv-x="1327" d="M164 0v1636h1081v-262h-770v-391h760v-256h-760v-451h770v-276h-1081zM373 2179h329l183 -395h-217z" />
<glyph unicode="&#xc9;" horiz-adv-x="1327" d="M164 0v1636h1081v-262h-770v-391h760v-256h-760v-451h770v-276h-1081zM547 1784l184 395h328l-295 -395h-217z" />
<glyph unicode="&#xca;" horiz-adv-x="1327" d="M164 0v1636h1081v-262h-770v-391h760v-256h-760v-451h770v-276h-1081zM313 1784l265 395h264l264 -395h-221l-174 174l-176 -174h-222z" />
<glyph unicode="&#xcb;" horiz-adv-x="1327" d="M164 0v1636h1081v-262h-770v-391h760v-256h-760v-451h770v-276h-1081zM332 1784v266h266v-266h-266zM803 1784v266h266v-266h-266z" />
<glyph unicode="&#xcc;" horiz-adv-x="624" d="M4 2179h330l182 -395h-217zM164 0v1636h317v-1636h-317z" />
<glyph unicode="&#xcd;" horiz-adv-x="624" d="M102 1784l185 395h327l-295 -395h-217zM164 0v1636h317v-1636h-317z" />
<glyph unicode="&#xce;" horiz-adv-x="624" d="M-72 1784l265 395h264l264 -395h-221l-174 174l-176 -174h-222zM164 0v1636h317v-1636h-317z" />
<glyph unicode="&#xcf;" horiz-adv-x="624" d="M-47 1784v266h266v-266h-266zM164 0v1636h317v-1636h-317zM424 1784v266h266v-266h-266z" />
<glyph unicode="&#xd0;" horiz-adv-x="1701" d="M41 688v275h123v675h684q221 0 398.5 -110.5t275.5 -297.5t98 -411t-98 -411t-275.5 -297.5t-398.5 -110.5h-684v688h-123zM481 270h279q148 0 272 77t194 205t70 275q0 105 -41.5 206.5t-111.5 180t-171 127t-212 48.5h-279v-426h267v-275h-267v-418z" />
<glyph unicode="&#xd1;" horiz-adv-x="1669" d="M164 0v1638h356l694 -1069v1069h312v-1638h-312l-739 1149v-1149h-311zM426 1784q0 51 9.5 99.5t30.5 94.5t51.5 80.5t76 55t100.5 20.5q64 0 168 -45t142 -45q73 0 88 90h176q-2 -68 -18 -127t-46.5 -111t-83.5 -82t-123 -30q-53 0 -110.5 22.5t-110.5 45t-96 22.5 q-34 0 -53.5 -26.5t-24.5 -63.5h-176z" />
<glyph unicode="&#xd2;" horiz-adv-x="1923" d="M102 819q0 175 69.5 333.5t186.5 271t278 179t337 66.5q175 0 335.5 -66.5t277 -179.5t186 -271t69.5 -333q0 -173 -69.5 -331t-186 -271.5t-277 -180.5t-335.5 -67q-176 0 -337 67t-278 180t-186.5 271t-69.5 332zM422 819q0 -146 73.5 -272.5t201 -201.5t276.5 -75 t275.5 75t200 201.5t73.5 272.5q0 147 -73.5 273.5t-200 201t-275.5 74.5q-150 0 -277 -74.5t-200.5 -201t-73.5 -273.5zM649 2179h330l182 -395h-217z" />
<glyph unicode="&#xd3;" horiz-adv-x="1923" d="M102 819q0 175 69.5 333.5t186.5 271t278 179t337 66.5q175 0 335.5 -66.5t277 -179.5t186 -271t69.5 -333q0 -173 -69.5 -331t-186 -271.5t-277 -180.5t-335.5 -67q-176 0 -337 67t-278 180t-186.5 271t-69.5 332zM422 819q0 -146 73.5 -272.5t201 -201.5t276.5 -75 t275.5 75t200 201.5t73.5 272.5q0 147 -73.5 273.5t-200 201t-275.5 74.5q-150 0 -277 -74.5t-200.5 -201t-73.5 -273.5zM788 1784l185 395h327l-294 -395h-218z" />
<glyph unicode="&#xd4;" horiz-adv-x="1923" d="M102 819q0 175 69.5 333.5t186.5 271t278 179t337 66.5q175 0 335.5 -66.5t277 -179.5t186 -271t69.5 -333q0 -173 -69.5 -331t-186 -271.5t-277 -180.5t-335.5 -67q-176 0 -337 67t-278 180t-186.5 271t-69.5 332zM422 819q0 -146 73.5 -272.5t201 -201.5t276.5 -75 t275.5 75t200 201.5t73.5 272.5q0 147 -73.5 273.5t-200 201t-275.5 74.5q-150 0 -277 -74.5t-200.5 -201t-73.5 -273.5zM575 1784l265 395h264l264 -395h-221l-174 174l-176 -174h-222z" />
<glyph unicode="&#xd5;" horiz-adv-x="1923" d="M102 819q0 175 69.5 333.5t186.5 271t278 179t337 66.5q175 0 335.5 -66.5t277 -179.5t186 -271t69.5 -333q0 -173 -69.5 -331t-186 -271.5t-277 -180.5t-335.5 -67q-176 0 -337 67t-278 180t-186.5 271t-69.5 332zM422 819q0 -146 73.5 -272.5t201 -201.5t276.5 -75 t275.5 75t200 201.5t73.5 272.5q0 147 -73.5 273.5t-200 201t-275.5 74.5q-150 0 -277 -74.5t-200.5 -201t-73.5 -273.5zM551 1784q0 51 9.5 99.5t30.5 94.5t51.5 80.5t76 55t100.5 20.5q64 0 167.5 -45t141.5 -45q74 0 89 90h176q-2 -68 -18 -127t-46.5 -111t-83.5 -82 t-123 -30q-53 0 -110.5 22.5t-110.5 45t-96 22.5q-34 0 -53.5 -26.5t-24.5 -63.5h-176z" />
<glyph unicode="&#xd6;" horiz-adv-x="1923" d="M102 819q0 175 69.5 333.5t186.5 271t278 179t337 66.5q175 0 335.5 -66.5t277 -179.5t186 -271t69.5 -333q0 -173 -69.5 -331t-186 -271.5t-277 -180.5t-335.5 -67q-176 0 -337 67t-278 180t-186.5 271t-69.5 332zM422 819q0 -146 73.5 -272.5t201 -201.5t276.5 -75 t275.5 75t200 201.5t73.5 272.5q0 147 -73.5 273.5t-200 201t-275.5 74.5q-150 0 -277 -74.5t-200.5 -201t-73.5 -273.5zM596 1784v266h266v-266h-266zM1067 1784v266h266v-266h-266z" />
<glyph unicode="&#xd7;" horiz-adv-x="1349" d="M143 1096l215 215l328 -326l309 309l215 -215l-307 -309l324 -328l-215 -215l-326 326l-307 -309l-219 215l309 311z" />
<glyph unicode="&#xd8;" horiz-adv-x="1923" d="M102 819q0 175 69.5 333.5t186.5 271t278 179t337 66.5q218 0 422 -106l90 123h254l-176 -242q133 -120 205.5 -279t72.5 -346q0 -173 -69.5 -331t-186 -271.5t-277 -180.5t-335.5 -67q-225 0 -422 107l-92 -123h-254l178 242q-132 120 -206.5 281t-74.5 343zM422 819 q0 -213 147 -373l641 869q-121 53 -237 53q-150 0 -277 -74.5t-200.5 -201t-73.5 -273.5zM733 324q127 -54 240 -54q149 0 275.5 75t200 201.5t73.5 272.5q0 215 -148 373z" />
<glyph unicode="&#xd9;" horiz-adv-x="1701" d="M143 739v899h318v-901q0 -197 108 -325.5t299 -128.5q200 0 305 123.5t105 326.5v905h321v-888q0 -163 -49.5 -305t-141 -247.5t-229.5 -166t-305 -60.5q-219 0 -387 102t-256 276t-88 390zM549 2179h330l182 -395h-217z" />
<glyph unicode="&#xda;" horiz-adv-x="1701" d="M143 739v899h318v-901q0 -197 108 -325.5t299 -128.5q200 0 305 123.5t105 326.5v905h321v-888q0 -163 -49.5 -305t-141 -247.5t-229.5 -166t-305 -60.5q-219 0 -387 102t-256 276t-88 390zM676 1784l184 395h328l-295 -395h-217z" />
<glyph unicode="&#xdb;" horiz-adv-x="1701" d="M143 739v899h318v-901q0 -197 108 -325.5t299 -128.5q200 0 305 123.5t105 326.5v905h321v-888q0 -163 -49.5 -305t-141 -247.5t-229.5 -166t-305 -60.5q-219 0 -387 102t-256 276t-88 390zM475 1784l264 395h265l264 -395h-221l-175 174l-176 -174h-221z" />
<glyph unicode="&#xdc;" horiz-adv-x="1701" d="M143 739v899h318v-901q0 -197 108 -325.5t299 -128.5q200 0 305 123.5t105 326.5v905h321v-888q0 -163 -49.5 -305t-141 -247.5t-229.5 -166t-305 -60.5q-219 0 -387 102t-256 276t-88 390zM500 1784v266h266v-266h-266zM971 1784v266h266v-266h-266z" />
<glyph unicode="&#xdd;" horiz-adv-x="1662" d="M31 1636h368l426 -688l445 688h383l-668 -966v-672h-321v676zM629 1784l184 395h328l-295 -395h-217z" />
<glyph unicode="&#xde;" horiz-adv-x="1286" d="M164 0v1636h317v-303h211q152 0 278 -64.5t200.5 -183t74.5 -266.5q0 -149 -74.5 -268t-200.5 -183.5t-278 -64.5h-211v-303h-317zM481 557h150q131 0 217 72t86 194q0 123 -86 196t-217 73h-150v-535z" />
<glyph unicode="&#xdf;" horiz-adv-x="1239" d="M123 0v1182q0 542 506 542q126 0 231.5 -52.5t170.5 -154t65 -231.5q0 -125 -57.5 -216t-159.5 -140q78 -29 142.5 -81.5t110.5 -144t46 -204.5q0 -251 -129 -391t-373 -140q-75 0 -148 23v260q65 -23 129 -23q109 0 165.5 81t56.5 204q0 154 -95 220t-245 48v238 q133 -6 196.5 57t63.5 174q0 97 -46.5 155t-140.5 58q-110 0 -152 -76t-42 -253v-1135h-295z" />
<glyph unicode="&#xe0;" horiz-adv-x="1187" d="M61 328q0 130 76.5 221.5t201 134.5t282.5 43h170q0 106 -68 166.5t-195 60.5q-144 0 -258 -104l-174 176q92 91 216.5 139.5t256.5 48.5q119 0 216 -37.5t159 -101.5q77 -77 109 -174t32 -246v-655h-297v63q-136 -94 -344 -94q-170 0 -276.5 99.5t-106.5 259.5z M244 1726h329l183 -395h-217zM356 354q0 -61 48.5 -100t123.5 -39q122 0 260 80v219h-135q-133 0 -215 -38.5t-82 -121.5z" />
<glyph unicode="&#xe1;" horiz-adv-x="1187" d="M61 328q0 130 76.5 221.5t201 134.5t282.5 43h170q0 106 -68 166.5t-195 60.5q-144 0 -258 -104l-174 176q92 91 216.5 139.5t256.5 48.5q119 0 216 -37.5t159 -101.5q77 -77 109 -174t32 -246v-655h-297v63q-136 -94 -344 -94q-170 0 -276.5 99.5t-106.5 259.5zM356 354 q0 -61 48.5 -100t123.5 -39q122 0 260 80v219h-135q-133 0 -215 -38.5t-82 -121.5zM422 1331l184 395h328l-295 -395h-217z" />
<glyph unicode="&#xe2;" horiz-adv-x="1187" d="M61 328q0 130 76.5 223t201.5 136t282 40h170q0 107 -68 167t-195 60q-144 0 -258 -104l-174 176q92 91 216.5 139.5t256.5 48.5q119 0 216 -37.5t159 -101.5q77 -77 109 -174t32 -246v-655h-297v63q-136 -94 -344 -94q-170 0 -276.5 99.5t-106.5 259.5zM186 1331 l265 395h264l264 -395h-221l-174 174l-176 -174h-222zM356 354q0 -61 48.5 -100t123.5 -39q122 0 260 80v219h-135q-133 0 -215 -38.5t-82 -121.5z" />
<glyph unicode="&#xe3;" horiz-adv-x="1187" d="M61 328q0 130 76.5 221.5t201 134.5t282.5 43h170q0 106 -68 166.5t-195 60.5q-144 0 -258 -104l-174 176q92 91 216.5 139.5t256.5 48.5q119 0 216 -37.5t159 -101.5q77 -77 109 -174t32 -246v-655h-297v63q-136 -94 -344 -94q-170 0 -276.5 99.5t-106.5 259.5z M178 1331q0 51 9.5 99.5t30.5 94.5t51.5 80.5t76 55t100.5 20.5q64 0 168 -45t142 -45q73 0 88 90h176q-2 -68 -17.5 -127t-46 -111t-83.5 -82t-123 -30q-65 0 -168.5 45t-149.5 45q-34 0 -53.5 -26.5t-24.5 -63.5h-176zM356 354q0 -61 48.5 -100t123.5 -39q122 0 260 80 v219h-135q-133 0 -215 -38.5t-82 -121.5z" />
<glyph unicode="&#xe4;" horiz-adv-x="1187" d="M61 328q0 130 76.5 221.5t201 134.5t282.5 43h170q0 106 -68 166.5t-195 60.5q-144 0 -258 -104l-174 176q92 91 216.5 139.5t256.5 48.5q119 0 216 -37.5t159 -101.5q77 -77 109 -174t32 -246v-655h-297v63q-136 -94 -344 -94q-170 0 -276.5 99.5t-106.5 259.5z M209 1331v266h266v-266h-266zM356 354q0 -61 48.5 -100t123.5 -39q122 0 260 80v219h-135q-133 0 -215 -38.5t-82 -121.5zM680 1331v266h266v-266h-266z" />
<glyph unicode="&#xe5;" horiz-adv-x="1187" d="M61 328q0 130 76.5 223t201.5 136t282 40h170q0 107 -68 167t-195 60q-144 0 -258 -104l-174 176q92 91 216.5 139.5t256.5 48.5q119 0 216 -37.5t159 -101.5q77 -77 109 -174t32 -246v-655h-297v63q-136 -94 -344 -94q-170 0 -276.5 99.5t-106.5 259.5zM346 1575 q0 98 72 170t170 72q100 0 171.5 -71.5t71.5 -170.5q0 -101 -71.5 -172.5t-171.5 -71.5q-99 0 -170.5 71.5t-71.5 172.5zM356 354q0 -61 48.5 -100t123.5 -39q122 0 260 80v219h-135q-133 0 -215 -38.5t-82 -121.5zM498 1575q0 -38 26.5 -64t63.5 -26t63.5 26t26.5 64 q0 37 -26.5 62.5t-63.5 25.5t-63.5 -25.5t-26.5 -62.5z" />
<glyph unicode="&#xe6;" horiz-adv-x="2082" d="M61 328q0 130 76.5 221.5t201 134.5t282.5 43h170q0 227 -263 227q-144 0 -258 -104l-174 176q92 91 216.5 139.5t256.5 48.5q119 0 216 -37.5t159 -101.5l21 -22q185 161 424 161q125 0 240.5 -46t202 -126.5t138 -197.5t51.5 -250q0 -51 -10 -123h-946 q37 -111 124 -180.5t212 -69.5q80 0 159.5 28t133.5 75l186 -187q-120 -90 -237.5 -129t-251.5 -39q-176 0 -326 86v-55h-277v63q-75 -52 -155.5 -73t-188.5 -21q-170 0 -276.5 99.5t-106.5 259.5zM356 354q0 -61 48.5 -100t123.5 -39q122 0 260 80v219h-135 q-133 0 -215 -38.5t-82 -121.5zM1065 709h647q-35 113 -124.5 181t-201.5 68q-110 0 -198 -68t-123 -181z" />
<glyph unicode="&#xe7;" horiz-adv-x="1212" d="M82 592q0 129 49 244.5t133 198t200 131t245 48.5q286 0 469 -198l-199 -203q-101 137 -266 137q-136 0 -235 -105.5t-99 -252.5q0 -148 98.5 -253.5t235.5 -105.5q85 0 157.5 41t116.5 109l205 -205q-78 -86 -182 -138.5t-222 -66.5l-20 -90q99 -16 149 -75t50 -136 q0 -73 -63 -135.5t-156 -62.5q-127 0 -203 63l14 70q41 -25 82 -25q53 0 88 31.5t35 73.5q0 48 -34 80t-89 32q-7 0 -49 -6l35 180q-232 30 -388.5 203.5t-156.5 415.5z" />
<glyph unicode="&#xe8;" d="M82 592q0 127 50 242t134 198.5t201 132.5t246 49q125 0 240.5 -46t202 -126.5t138.5 -197.5t52 -250q0 -44 -11 -123h-946q37 -111 124 -180.5t212 -69.5q80 0 159.5 28t133.5 75l186 -187q-120 -90 -237.5 -129t-251.5 -39q-130 0 -247.5 49.5t-202 133t-134 198.5 t-49.5 242zM381 1726h330l182 -395h-217zM389 709h647q-35 113 -124 181t-201 68q-110 0 -198.5 -68t-123.5 -181z" />
<glyph unicode="&#xe9;" d="M82 592q0 127 50 242t134 198.5t201 132.5t246 49q125 0 240.5 -46t202 -126.5t138.5 -197.5t52 -250q0 -44 -11 -123h-946q37 -111 124 -180.5t212 -69.5q80 0 159.5 28t133.5 75l186 -187q-120 -90 -237.5 -129t-251.5 -39q-130 0 -247.5 49.5t-202 133t-134 198.5 t-49.5 242zM389 709h647q-35 113 -124 181t-201 68q-110 0 -198.5 -68t-123.5 -181zM526 1331l185 395h327l-295 -395h-217z" />
<glyph unicode="&#xea;" d="M82 592q0 127 50 242t134 198.5t201 132.5t246 49q125 0 240.5 -46t202 -126.5t138.5 -197.5t52 -250q0 -44 -11 -123h-946q37 -111 124 -180.5t212 -69.5q80 0 159.5 28t133.5 75l186 -187q-120 -90 -237.5 -129t-251.5 -39q-130 0 -247.5 49.5t-202 133t-134 198.5 t-49.5 242zM313 1331l265 395h264l264 -395h-221l-174 174l-176 -174h-222zM389 709h647q-35 113 -124 181t-201 68q-110 0 -198.5 -68t-123.5 -181z" />
<glyph unicode="&#xeb;" d="M82 592q0 127 50 242t134 198.5t201 132.5t246 49q125 0 240.5 -46t202 -126.5t138.5 -197.5t52 -250q0 -44 -11 -123h-946q37 -111 124 -180.5t212 -69.5q80 0 159.5 28t133.5 75l186 -187q-120 -90 -237.5 -129t-251.5 -39q-130 0 -247.5 49.5t-202 133t-134 198.5 t-49.5 242zM338 1331v266h266v-266h-266zM389 709h647q-35 113 -124 181t-201 68q-110 0 -198.5 -68t-123.5 -181zM809 1331v266h266v-266h-266z" />
<glyph unicode="&#xec;" horiz-adv-x="573" d="M-20 1726h329l183 -395h-218zM127 0v1186h299v-1186h-299z" />
<glyph unicode="&#xed;" horiz-adv-x="573" d="M61 1331l185 395h327l-294 -395h-218zM127 0v1186h299v-1186h-299z" />
<glyph unicode="&#xee;" horiz-adv-x="573" d="M-121 1331l264 395h265l264 -395h-221l-175 174l-176 -174h-221zM127 0v1186h299v-1186h-299z" />
<glyph unicode="&#xef;" horiz-adv-x="573" d="M-90 1331v266h266v-266h-266zM127 0v1186h299v-1186h-299zM381 1331v266h266v-266h-266z" />
<glyph unicode="&#xf0;" horiz-adv-x="1380" d="M82 510q0 159 84 286.5t223 197t303 69.5q96 0 189 -35q-54 131 -203 242l-229 -168l-121 168l159 116q-120 54 -227 62l223 221q136 -24 262 -94l201 147l123 -168l-143 -102q177 -146 285 -354.5t108 -454.5q0 -150 -34.5 -267.5t-92.5 -193t-140 -124.5t-171 -69 t-193 -20q-125 0 -238.5 45.5t-193.5 120t-127 173.5t-47 202zM399 526q0 -112 85.5 -191t211.5 -79q125 0 216.5 80t91.5 190t-91.5 189.5t-216.5 79.5q-126 0 -211.5 -79t-85.5 -190z" />
<glyph unicode="&#xf1;" horiz-adv-x="1302" d="M123 0v1184h297v-88q54 54 144 86t173 32q92 0 173 -29t147 -87t104.5 -155t38.5 -222v-721h-295v707q0 122 -67.5 188t-165.5 66q-147 0 -252 -99v-862h-297zM248 1331q0 51 9.5 99.5t30.5 94.5t51.5 80.5t76 55t100.5 20.5q64 0 167.5 -45t141.5 -45q73 0 88 90h177 q-2 -68 -18 -127t-46.5 -111t-83.5 -82t-123 -30q-65 0 -168 45t-149 45q-34 0 -53.5 -26.5t-24.5 -63.5h-176z" />
<glyph unicode="&#xf2;" d="M82 592q0 127 50.5 242.5t135.5 198.5t201.5 132t243.5 49q174 0 319 -81.5t229.5 -224.5t84.5 -316t-84.5 -316.5t-229.5 -225t-319 -81.5q-129 0 -246 48.5t-201.5 131.5t-134 198.5t-49.5 244.5zM375 592q0 -152 99 -256.5t239 -104.5t239 104.5t99 256.5 q0 151 -99 255.5t-239 104.5t-239 -104.5t-99 -255.5zM395 1726h330l182 -395h-217z" />
<glyph unicode="&#xf3;" d="M82 592q0 127 50.5 242.5t135.5 198.5t201.5 132t243.5 49q174 0 319 -81.5t229.5 -224.5t84.5 -316t-84.5 -316.5t-229.5 -225t-319 -81.5q-129 0 -246 48.5t-201.5 131.5t-134 198.5t-49.5 244.5zM375 592q0 -152 99 -256.5t239 -104.5t239 104.5t99 256.5 q0 151 -99 255.5t-239 104.5t-239 -104.5t-99 -255.5zM524 1331l185 395h327l-295 -395h-217z" />
<glyph unicode="&#xf4;" d="M82 592q0 127 50.5 242.5t135.5 198.5t201.5 132t243.5 49q174 0 319 -81.5t229.5 -224.5t84.5 -316t-84.5 -316.5t-229.5 -225t-319 -81.5q-129 0 -246 48.5t-201.5 131.5t-134 198.5t-49.5 244.5zM317 1331l265 395h264l264 -395h-221l-174 174l-176 -174h-222z M375 592q0 -152 99 -256.5t239 -104.5t239 104.5t99 256.5q0 151 -99 255.5t-239 104.5t-239 -104.5t-99 -255.5z" />
<glyph unicode="&#xf5;" d="M82 592q0 127 50.5 242.5t135.5 198.5t201.5 132t243.5 49q174 0 319 -81.5t229.5 -224.5t84.5 -316t-84.5 -316.5t-229.5 -225t-319 -81.5q-129 0 -246 48.5t-201.5 131.5t-134 198.5t-49.5 244.5zM295 1331q0 51 9.5 99.5t30.5 94.5t51.5 80.5t76 55t100.5 20.5 q64 0 167.5 -45t141.5 -45q74 0 89 90h176q-2 -68 -18 -127t-46.5 -111t-83.5 -82t-123 -30q-65 0 -168 45t-149 45q-34 0 -53.5 -26.5t-24.5 -63.5h-176zM375 592q0 -152 99 -256.5t239 -104.5t239 104.5t99 256.5q0 151 -99 255.5t-239 104.5t-239 -104.5t-99 -255.5z" />
<glyph unicode="&#xf6;" d="M82 592q0 127 50.5 242.5t135.5 198.5t201.5 132t243.5 49q174 0 319 -81.5t229.5 -224.5t84.5 -316t-84.5 -316.5t-229.5 -225t-319 -81.5q-129 0 -246 48.5t-201.5 131.5t-134 198.5t-49.5 244.5zM344 1331v266h266v-266h-266zM375 592q0 -152 99 -256.5t239 -104.5 t239 104.5t99 256.5q0 151 -99 255.5t-239 104.5t-239 -104.5t-99 -255.5zM815 1331v266h266v-266h-266z" />
<glyph unicode="&#xf7;" horiz-adv-x="1312" d="M123 616v310h1087v-310h-1087zM512 170v305h305v-305h-305zM512 1071v305h305v-305h-305z" />
<glyph unicode="&#xf8;" d="M82 592q0 127 50.5 242.5t135.5 198.5t201.5 132t243.5 49q166 0 295 -69l61 86h231l-141 -193q187 -187 187 -446q0 -173 -84.5 -316.5t-229.5 -225t-319 -81.5q-160 0 -291 70l-66 -86h-229l143 194q-188 185 -188 445zM375 592q0 -119 65 -213l404 545q-76 28 -131 28 q-140 0 -239 -104.5t-99 -255.5zM584 258q56 -27 129 -27q140 0 239 104.5t99 256.5q0 118 -66 213z" />
<glyph unicode="&#xf9;" horiz-adv-x="1294" d="M102 465v719h295v-705q0 -122 67 -188t165 -66q143 0 248 99v860h294v-1184h-294v90q-55 -55 -144.5 -87t-171.5 -32q-93 0 -173.5 29.5t-145.5 87.5t-102.5 155t-37.5 222zM326 1726h329l183 -395h-217z" />
<glyph unicode="&#xfa;" horiz-adv-x="1294" d="M102 465v719h295v-705q0 -122 67 -188t165 -66q143 0 248 99v860h294v-1184h-294v90q-55 -55 -144.5 -87t-171.5 -32q-93 0 -173.5 29.5t-145.5 87.5t-102.5 155t-37.5 222zM432 1331l184 395h328l-295 -395h-217z" />
<glyph unicode="&#xfb;" horiz-adv-x="1294" d="M102 465v719h295v-705q0 -122 67 -188t165 -66q143 0 248 99v860h294v-1184h-294v90q-55 -55 -144.5 -87t-171.5 -32q-93 0 -173.5 29.5t-145.5 87.5t-102.5 155t-37.5 222zM236 1331l264 395h264l264 -395h-221l-174 174l-176 -174h-221z" />
<glyph unicode="&#xfc;" horiz-adv-x="1294" d="M102 465v719h295v-705q0 -122 67 -188t165 -66q143 0 248 99v860h294v-1184h-294v90q-55 -55 -144.5 -87t-171.5 -32q-93 0 -173.5 29.5t-145.5 87.5t-102.5 155t-37.5 222zM260 1331v266h266v-266h-266zM731 1331v266h266v-266h-266z" />
<glyph unicode="&#xfd;" horiz-adv-x="1208" d="M31 1186h321l273 -762l256 762h317l-532 -1407q-59 -156 -153 -226.5t-232 -70.5q-47 0 -93 12l-98 275q81 -35 141 -35q162 0 215 149l41 119zM401 1331l185 395h327l-295 -395h-217z" />
<glyph unicode="&#xfe;" horiz-adv-x="1323" d="M143 -514v2152h299v-514q111 93 271 93q107 0 210.5 -49t182.5 -131t127.5 -199.5t48.5 -245.5q0 -124 -42.5 -238t-116.5 -199t-181 -135.5t-229 -50.5q-159 0 -273 90v-573h-297zM442 315q101 -88 224 -88q146 0 242 103.5t96 259.5q0 164 -96.5 264t-248.5 100 q-50 0 -114 -19t-103 -50v-570z" />
<glyph unicode="&#xff;" horiz-adv-x="1208" d="M31 1186h321l273 -762l256 762h317l-532 -1407q-59 -156 -153 -226.5t-232 -70.5q-47 0 -93 12l-98 275q81 -35 141 -35q162 0 215 149l41 119zM248 1331v266h266v-266h-266zM719 1331v266h266v-266h-266z" />
<glyph unicode="&#x152;" horiz-adv-x="2684" d="M102 819q0 175 69.5 333.5t186.5 271t278 179t337 66.5q317 0 549 -190v157h1081v-262h-770v-391h760v-256h-760v-451h770v-276h-1081v162q-113 -93 -254 -143t-295 -50q-176 0 -337 67t-278 180t-186.5 271t-69.5 332zM422 819q0 -146 73.5 -272.5t201 -201.5t276.5 -75 t275.5 75t200 201.5t73.5 272.5q0 147 -73.5 273.5t-200 201t-275.5 74.5q-150 0 -277 -74.5t-200.5 -201t-73.5 -273.5z" />
<glyph unicode="&#x153;" horiz-adv-x="2336" d="M82 592q0 127 50.5 242.5t135.5 198.5t201.5 132t243.5 49q139 0 259 -52t208 -146q87 94 207 146t255 52q125 0 240.5 -46t202 -126.5t138.5 -197.5t52 -250q0 -51 -10 -123h-946q37 -111 124 -180.5t212 -69.5q80 0 159.5 28t133.5 75l186 -187q-120 -90 -237.5 -129 t-251.5 -39q-139 0 -258 51.5t-207 145.5q-88 -94 -208 -145.5t-259 -51.5q-129 0 -246 48.5t-201.5 131.5t-134 198.5t-49.5 244.5zM375 592q0 -152 99 -256.5t239 -104.5t239 104.5t99 256.5q0 151 -99 255.5t-239 104.5t-239 -104.5t-99 -255.5zM1319 709h647 q-35 113 -124.5 181t-201.5 68q-110 0 -198 -68t-123 -181z" />
<glyph unicode="&#x178;" horiz-adv-x="1662" d="M31 1636h368l426 -688l445 688h383l-668 -966v-672h-321v676zM459 1784v266h266v-266h-266zM930 1784v266h266v-266h-266z" />
<glyph unicode="&#x2c6;" horiz-adv-x="1187" d="M186 1331l265 395h264l264 -395h-221l-174 174l-176 -174h-222z" />
<glyph unicode="&#x2dc;" horiz-adv-x="1187" d="M178 1331q0 51 9.5 99.5t30.5 94.5t51.5 80.5t76 55t100.5 20.5q64 0 168 -45t142 -45q73 0 88 90h176q-2 -68 -17.5 -127t-46 -111t-83.5 -82t-123 -30q-65 0 -168.5 45t-149.5 45q-34 0 -53.5 -26.5t-24.5 -63.5h-176z" />
<glyph unicode="&#x2000;" horiz-adv-x="1134" />
<glyph unicode="&#x2001;" horiz-adv-x="2269" />
<glyph unicode="&#x2002;" horiz-adv-x="1134" />
<glyph unicode="&#x2003;" horiz-adv-x="2269" />
<glyph unicode="&#x2004;" horiz-adv-x="756" />
<glyph unicode="&#x2005;" horiz-adv-x="567" />
<glyph unicode="&#x2006;" horiz-adv-x="378" />
<glyph unicode="&#x2007;" horiz-adv-x="378" />
<glyph unicode="&#x2008;" horiz-adv-x="283" />
<glyph unicode="&#x2009;" horiz-adv-x="453" />
<glyph unicode="&#x200a;" horiz-adv-x="126" />
<glyph unicode="&#x2010;" horiz-adv-x="765" d="M61 532v275h644v-275h-644z" />
<glyph unicode="&#x2011;" horiz-adv-x="765" d="M61 532v275h644v-275h-644z" />
<glyph unicode="&#x2012;" horiz-adv-x="765" d="M61 532v275h644v-275h-644z" />
<glyph unicode="&#x2013;" horiz-adv-x="1202" d="M61 532v275h1080v-275h-1080z" />
<glyph unicode="&#x2014;" horiz-adv-x="1882" d="M61 532v275h1760v-275h-1760z" />
<glyph unicode="&#x2018;" horiz-adv-x="397" d="M51 1151v305q0 104 58.5 174t164.5 70q30 0 76 -12v-23q-60 -10 -96.5 -55t-36.5 -105q0 -30 8 -49h131v-305h-305z" />
<glyph unicode="&#x2019;" horiz-adv-x="397" d="M51 1395v305h305v-305q0 -104 -58.5 -174t-164.5 -70q-30 0 -76 12v23q60 10 96.5 55t36.5 105q0 30 -8 49h-131z" />
<glyph unicode="&#x201a;" horiz-adv-x="407" d="M51 0v305h305v-305q0 -104 -58.5 -174t-164.5 -70q-26 0 -76 13v22q60 10 96.5 55t36.5 105q0 30 -8 49h-131z" />
<glyph unicode="&#x201c;" horiz-adv-x="827" d="M61 1151v305q0 104 59 174t165 70q29 0 75 -12v-23q-60 -10 -96.5 -55t-36.5 -105q0 -28 9 -49h131v-305h-306zM471 1151v305q0 104 58.5 174t164.5 70q30 0 76 -12v-23q-60 -10 -96.5 -55t-36.5 -105q0 -30 8 -49h131v-305h-305z" />
<glyph unicode="&#x201d;" horiz-adv-x="827" d="M61 1395v305h306v-305q0 -104 -59 -174t-165 -70q-29 0 -75 12v23q60 10 96.5 55t36.5 105q0 30 -8 49h-132zM471 1395v305h305v-305q0 -104 -58.5 -174t-164.5 -70q-30 0 -76 12v23q60 10 96.5 55t36.5 105q0 30 -8 49h-131z" />
<glyph unicode="&#x201e;" horiz-adv-x="817" d="M51 0v305h305v-305q0 -104 -58.5 -174t-164.5 -70q-26 0 -76 13v22q60 10 96.5 55t36.5 105q0 30 -8 49h-131zM461 0v305h305v-305q0 -104 -58.5 -174t-164.5 -70q-26 0 -76 13v22q60 10 96.5 55t36.5 105q0 30 -8 49h-131z" />
<glyph unicode="&#x2022;" horiz-adv-x="780" d="M0 463v616h616v-616h-616z" />
<glyph unicode="&#x2026;" horiz-adv-x="1574" d="M123 0v305h305v-305h-305zM635 0v305h305v-305h-305zM1147 0v305h305v-305h-305z" />
<glyph unicode="&#x202f;" horiz-adv-x="453" />
<glyph unicode="&#x2039;" horiz-adv-x="755" d="M41 559l369 557h305l-369 -557l367 -559h-303z" />
<glyph unicode="&#x203a;" horiz-adv-x="751" d="M41 0l369 559l-369 557h305l365 -557l-365 -559h-305z" />
<glyph unicode="&#x205f;" horiz-adv-x="567" />
<glyph unicode="&#x20ac;" horiz-adv-x="1652" d="M61 528l121 207h62q-4 54 -4 78q0 49 2 74h-181l121 207h103q88 259 314.5 417t528.5 158q232 0 441 -115l-152 -264q-134 78 -289 78q-165 0 -295 -72t-202 -202h686l-121 -207h-633q-2 -23 -2 -68q0 -43 6 -84l551 -2l-119 -207h-356q73 -119 199.5 -186.5t285.5 -67.5 q172 0 291 76l152 -266q-196 -113 -443 -113q-288 0 -516 156.5t-321 402.5h-230z" />
<glyph unicode="&#x2122;" horiz-adv-x="1708" d="M61 1499v139h615v-139h-225v-680h-164v680h-226zM788 819v819h185l221 -397l233 397h179v-819h-156v547l-258 -436l-248 440v-551h-156z" />
<glyph unicode="&#xe000;" horiz-adv-x="1187" d="M0 0v1188h1188v-1188h-1188z" />
<glyph unicode="&#xfb01;" horiz-adv-x="1325" d="M41 922v266h143v84q0 231 86 344t289 113q101 0 223 -29v-270q-64 26 -147 26q-88 0 -123 -38.5t-35 -141.5v-88h185l2 -4v-258l-2 -4h-185v-922h-293v922h-143zM874 1391v307h308v-307h-308zM879 0v1186h299v-1186h-299z" />
<glyph unicode="&#xfb02;" horiz-adv-x="1394" d="M41 922v266h143v84q0 231 86 344t289 113q101 0 223 -29v-270q-64 26 -147 26q-88 0 -123 -38.5t-35 -141.5v-88h185l2 -4v-258l-2 -4h-185v-922h-293v922h-143zM874 295v1405h302v-1354q0 -129 100 -129q50 0 98 31v-242q-76 -37 -170 -37q-69 0 -126.5 18t-104 55.5 t-73 102t-26.5 150.5z" />
</font>
</defs>
</svg>
