<?xml version="1.0" encoding="utf-8"?>
<!-- Generator: Adobe Illustrator 16.0.4, SVG Export Plug-In . SVG Version: 6.00 Build 0)  -->
<!DOCTYPE svg PUBLIC "-//W3C//DTD SVG 1.1//EN" "http://www.w3.org/Graphics/SVG/1.1/DTD/svg11.dtd">
<svg version="1.1" id="Layer_1" xmlns="http://www.w3.org/2000/svg" xmlns:xlink="http://www.w3.org/1999/xlink" x="0px" y="0px"
	 width="402.203px" height="401.422px" viewBox="0 0 402.203 401.422" enable-background="new 0 0 402.203 401.422"
	 xml:space="preserve">
<g>
	<g id="XMLID_9_">
		<g>
			<path fill="#185885" d="M385.222,188.33l16.73,24.225l-19.634,21.935l10.182,27.614l-24.468,16.359l2.993,29.289l-27.781,9.759
				l-4.374,29.11l-29.341,2.546l-11.473,27.115l-29.047-4.835l-17.867,23.406l-26.924-11.908l-23.125,18.227l-23.112-18.227
				l-26.937,11.908l-17.855-23.406l-29.046,4.835l-11.486-27.115l-29.328-2.546l-4.361-29.11l-27.793-9.759l3.005-29.289
				L9.689,262.104l10.194-27.614L0.25,212.555l16.729-24.225L3.409,162.2l22.229-19.3L19,114.224l26.348-13.161l0.665-29.43
				l28.791-6.203l8.006-28.331l29.417,1.164l14.786-25.478l28.203,8.441L175.873,0.25l25.222,15.182L226.33,0.25l20.656,20.976
				l28.202-8.441l14.786,25.478l29.43-1.164l7.969,28.331l28.791,6.203l0.703,29.43l26.322,13.161l-6.638,28.676l22.242,19.3
				L385.222,188.33z M360.422,200.711c0-42.553-16.563-82.561-46.659-112.656c-30.095-30.096-70.103-46.672-112.668-46.672
				c-42.541,0-82.561,16.576-112.644,46.672C58.343,118.15,41.78,158.158,41.78,200.711c0,42.553,16.563,82.573,46.671,112.656
				c30.083,30.095,70.103,46.658,112.644,46.658c42.566,0,82.574-16.563,112.668-46.658
				C343.859,283.285,360.422,243.264,360.422,200.711z"/>
			<path fill="#B3E2F9" d="M313.763,88.055c30.096,30.095,46.659,70.103,46.659,112.656c0,42.553-16.563,82.573-46.659,112.656
				c-30.095,30.095-70.103,46.658-112.668,46.658c-42.541,0-82.561-16.563-112.644-46.658
				C58.343,283.285,41.78,243.264,41.78,200.711c0-42.553,16.563-82.561,46.671-112.656c30.083-30.096,70.103-46.672,112.644-46.672
				C243.661,41.383,283.668,57.959,313.763,88.055z M351.929,200.711c0-83.175-67.66-150.835-150.834-150.835
				c-83.162,0-150.822,67.66-150.822,150.835c0,83.162,67.66,150.822,150.822,150.822
				C284.269,351.534,351.929,283.874,351.929,200.711z"/>
			<path fill="#B3E2F9" d="M329.368,205.124c0.294,1.254,0.396,2.559,0.319,3.901l-0.626,11.242l-5.296-0.294l0.128-2.341
				l-18.687-1.049l-0.127,2.328l-5.309-0.294l0.614-11.243c0.09-1.33,0.332-2.608,0.755-3.824c0.409-1.215,0.972-2.328,1.649-3.351
				c0.69-1.036,1.51-1.944,2.431-2.775c0.946-0.819,1.956-1.509,3.069-2.072c1.125-0.55,2.314-0.959,3.594-1.228
				c1.267-0.269,2.571-0.358,3.914-0.282c1.355,0.077,2.66,0.32,3.888,0.716c1.229,0.409,2.366,0.947,3.415,1.637
				c1.062,0.665,2.009,1.471,2.853,2.379c0.845,0.934,1.573,1.932,2.136,3.044C328.665,202.707,329.112,203.883,329.368,205.124z
				 M324.392,208.769c0.052-1.049-0.141-2.06-0.575-3.006c-0.422-0.959-1.049-1.803-1.867-2.532
				c-0.793-0.716-1.766-1.317-2.878-1.778c-1.113-0.473-2.328-0.729-3.646-0.806c-1.305-0.077-2.532,0.051-3.696,0.383
				c-1.151,0.346-2.148,0.832-3.031,1.458c-0.87,0.64-1.573,1.407-2.11,2.303c-0.537,0.908-0.831,1.88-0.883,2.929l-0.141,2.443
				l18.687,1.049L324.392,208.769z"/>
			<path fill="#B3E2F9" d="M328.178,226.036l-3.377,10.604l-5.052-1.599l0.896-2.775l-4.426-0.026l-2.725,8.583l3.62,2.545
				l0.934-2.955l5.052,1.612l-3.363,10.603l-5.053-1.611l0.652-2.085l-20.477-14.888l2.354-7.393l25.273-0.179l0.64-2.034
				L328.178,226.036z M309.236,237.879l1.791-5.653l-9.989-0.038L309.236,237.879z"/>
			<polygon fill="#B3E2F9" points="325.556,179.262 318.253,180.324 314.979,186.936 311.717,180.324 304.414,179.262 
				309.697,174.107 308.456,166.83 314.979,170.271 321.527,166.83 320.274,174.107 			"/>
			<path fill="#185885" d="M323.817,205.763c0.435,0.946,0.627,1.957,0.575,3.006l-0.141,2.443l-18.687-1.049l0.141-2.443
				c0.052-1.049,0.346-2.021,0.883-2.929c0.537-0.896,1.24-1.663,2.11-2.303c0.883-0.626,1.88-1.112,3.031-1.458
				c1.164-0.333,2.392-0.46,3.696-0.383c1.317,0.077,2.532,0.333,3.646,0.806c1.112,0.46,2.085,1.062,2.878,1.778
				C322.768,203.96,323.395,204.804,323.817,205.763z"/>
			<polygon fill="#B3E2F9" points="313.06,129.726 324.085,150.766 315.055,155.485 312.076,149.806 315.835,147.836 
				312.267,141.045 307.048,143.769 309.811,149.026 304.747,151.673 301.997,146.417 295.883,149.627 299.413,156.419 
				304.12,153.95 307.087,159.655 297.623,164.617 286.61,143.564 291.394,141.058 292.839,143.833 309.249,135.251 
				307.791,132.476 			"/>
			<path fill="#B3E2F9" d="M311.64,261.068c0.384,1.472,0.448,2.955,0.18,4.451c-0.256,1.484-0.832,2.916-1.688,4.26
				c-0.845,1.343-1.893,2.442-3.121,3.287c-1.215,0.856-2.558,1.419-4.028,1.7c-1.484,0.282-3.031,0.256-4.669-0.089
				c-1.637-0.333-3.287-1.036-4.95-2.085l-9.925-6.331l-1.42,2.238l-4.489-2.853l6.318-9.938l4.489,2.864l-1.433,2.265l10.258,6.548
				c0.934,0.589,1.791,0.998,2.584,1.203c0.78,0.204,1.509,0.242,2.175,0.128c0.639-0.128,1.228-0.384,1.765-0.78
				c0.524-0.41,0.972-0.921,1.368-1.535c0.409-0.64,0.704-1.279,0.87-1.906c0.179-0.626,0.191-1.266,0.038-1.893
				c-0.166-0.627-0.512-1.253-1.036-1.88c-0.55-0.627-1.317-1.254-2.327-1.894l-10.258-6.535l-1.663,2.622l-4.502-2.853l6.331-9.925
				l4.489,2.852l-1.253,1.982l9.618,6.127c1.739,1.112,3.133,2.354,4.169,3.722C310.566,258.177,311.27,259.597,311.64,261.068z"/>
			<polygon fill="#185885" points="311.027,232.226 309.236,237.879 301.038,232.188 			"/>
			<path fill="#185885" d="M201.095,49.876c83.174,0,150.834,67.66,150.834,150.835c0,83.162-67.66,150.822-150.834,150.822
				c-83.162,0-150.822-67.66-150.822-150.822C50.272,117.537,117.933,49.876,201.095,49.876z M329.687,209.025
				c0.077-1.343-0.025-2.647-0.319-3.901c-0.256-1.24-0.703-2.417-1.279-3.504c-0.562-1.112-1.291-2.11-2.136-3.044
				c-0.844-0.908-1.79-1.714-2.853-2.379c-1.049-0.69-2.187-1.228-3.415-1.637c-1.228-0.396-2.532-0.64-3.888-0.716
				c-1.343-0.077-2.647,0.013-3.914,0.282c-1.279,0.269-2.469,0.678-3.594,1.228c-1.113,0.563-2.123,1.253-3.069,2.072
				c-0.921,0.831-1.74,1.739-2.431,2.775c-0.678,1.023-1.24,2.136-1.649,3.351c-0.423,1.216-0.665,2.494-0.755,3.824l-0.614,11.243
				l5.309,0.294l0.127-2.328l18.687,1.049l-0.128,2.341l5.296,0.294L329.687,209.025z M324.801,236.639l3.377-10.604l-5.052-1.599
				l-0.64,2.034l-25.273,0.179l-2.354,7.393l20.477,14.888l-0.652,2.085l5.053,1.611l3.363-10.603l-5.052-1.612l-0.934,2.955
				l-3.62-2.545l2.725-8.583l4.426,0.026l-0.896,2.775L324.801,236.639z M318.253,180.324l7.303-1.062l-5.282-5.155l1.253-7.277
				l-6.548,3.44l-6.523-3.44l1.241,7.277l-5.283,5.155l7.304,1.062l3.262,6.612L318.253,180.324z M324.085,150.766l-11.025-21.04
				l-5.27,2.75l1.458,2.775l-16.409,8.582l-1.445-2.775l-4.784,2.507l11.013,21.053l9.465-4.962l-2.968-5.705l-4.707,2.469
				l-3.529-6.792l6.113-3.21l2.75,5.256l5.064-2.647l-2.763-5.257l5.219-2.724l3.568,6.792l-3.76,1.97l2.979,5.679L324.085,150.766z
				 M311.82,265.519c0.269-1.496,0.204-2.979-0.18-4.451c-0.37-1.471-1.074-2.891-2.11-4.246c-1.036-1.368-2.43-2.609-4.169-3.722
				l-9.618-6.127l1.253-1.982l-4.489-2.852l-6.331,9.925l4.502,2.853l1.663-2.622l10.258,6.535c1.01,0.64,1.777,1.267,2.327,1.894
				c0.524,0.627,0.87,1.253,1.036,1.88c0.153,0.627,0.141,1.267-0.038,1.893c-0.166,0.627-0.461,1.267-0.87,1.906
				c-0.396,0.614-0.844,1.125-1.368,1.535c-0.537,0.396-1.126,0.652-1.765,0.78c-0.666,0.114-1.395,0.076-2.175-0.128
				c-0.793-0.205-1.65-0.614-2.584-1.203l-10.258-6.548l1.433-2.265l-4.489-2.864l-6.318,9.938l4.489,2.853l1.42-2.238l9.925,6.331
				c1.663,1.049,3.313,1.752,4.95,2.085c1.638,0.345,3.185,0.371,4.669,0.089c1.471-0.281,2.813-0.844,4.028-1.7
				c1.229-0.845,2.276-1.944,3.121-3.287C310.988,268.435,311.564,267.003,311.82,265.519z M306.345,124.021l-2.954-3.287
				c-0.026-1.778-0.243-3.197-0.678-4.285c-0.448-1.087-1.216-2.238-2.303-3.428c-1.343-1.509-2.916-2.635-4.694-3.389
				c-1.765-0.755-3.606-1.151-5.513-1.189c-1.918-0.026-3.824,0.319-5.704,1.01c-1.905,0.704-3.632,1.765-5.218,3.21
				c-1.049,0.946-1.97,1.995-2.725,3.133c-0.755,1.139-1.343,2.315-1.791,3.556c-0.435,1.215-0.716,2.469-0.818,3.748
				c-0.115,1.292-0.064,2.558,0.153,3.799c0.23,1.241,0.614,2.443,1.151,3.607c0.562,1.177,1.292,2.251,2.2,3.261
				c1.074,1.177,2.251,2.136,3.517,2.853c1.267,0.716,2.571,1.228,3.914,1.522c1.33,0.269,2.673,0.345,4.017,0.192
				c1.343-0.154,2.622-0.512,3.862-1.062l-2.941-5.896c-0.602,0.217-1.241,0.358-1.919,0.409c-0.69,0.064-1.381,0.013-2.072-0.115
				c-0.69-0.127-1.343-0.371-1.995-0.703s-1.24-0.793-1.765-1.381c-0.755-0.832-1.267-1.778-1.535-2.801
				c-0.269-1.036-0.319-2.084-0.153-3.159c0.166-1.074,0.537-2.123,1.1-3.172c0.576-1.023,1.343-1.97,2.29-2.827
				c0.934-0.844,1.943-1.509,3.057-1.957c1.087-0.473,2.174-0.729,3.274-0.78c1.1-0.051,2.136,0.103,3.134,0.474
				c0.997,0.371,1.867,0.972,2.596,1.791c0.512,0.55,0.921,1.151,1.241,1.778c0.307,0.64,0.498,1.317,0.575,2.046
				c0.064,0.742-0.038,1.739-0.319,2.98l4.067,4.515L306.345,124.021z M300.449,292.263c0.128-0.844,0.09-1.688-0.102-2.532
				c-0.205-0.844-0.576-1.662-1.126-2.43l-4.63,1.292c0.281,0.435,0.447,0.844,0.512,1.253c0.076,0.409,0.051,0.793-0.025,1.177
				c-0.09,0.358-0.23,0.716-0.448,1.062c-0.204,0.32-0.46,0.627-0.755,0.883c-0.319,0.269-0.678,0.485-1.049,0.665
				c-0.37,0.179-0.767,0.319-1.177,0.473c-0.422,0.128-0.831,0.256-1.253,0.371c-0.435,0.115-0.857,0.243-1.254,0.384
				c1.062-1.343,1.816-2.826,2.29-4.477c0.473-1.624,0.665-3.274,0.55-4.963c-0.103-1.688-0.499-3.363-1.177-5.001
				c-0.69-1.649-1.663-3.172-2.929-4.565c-0.934-1.049-1.97-1.932-3.083-2.674c-1.112-0.729-2.276-1.317-3.491-1.752
				c-1.202-0.422-2.443-0.703-3.696-0.806c-1.267-0.115-2.494-0.051-3.723,0.153c-1.215,0.23-2.404,0.614-3.542,1.151
				c-1.164,0.55-2.226,1.267-3.224,2.161c-0.972,0.896-1.791,1.868-2.456,2.955c-0.665,1.074-1.15,2.213-1.496,3.402
				c-0.332,1.189-0.537,2.417-0.537,3.684c-0.025,1.266,0.115,2.507,0.422,3.76c0.32,1.241,0.78,2.456,1.395,3.633
				c0.613,1.202,1.406,2.314,2.354,3.351c1.24,1.382,2.635,2.494,4.156,3.352c1.535,0.844,3.134,1.406,4.771,1.701
				c1.65,0.281,3.287,0.294,4.925,0.025c1.649-0.269,3.197-0.831,4.643-1.688l3.236,3.646c0.128-0.23,0.243-0.422,0.357-0.576
				c0.115-0.141,0.23-0.281,0.333-0.384c0.115-0.114,0.23-0.217,0.358-0.319c0.115-0.103,0.256-0.23,0.409-0.358
				c0.371-0.319,0.883-0.588,1.535-0.793c0.665-0.217,1.381-0.422,2.148-0.652c0.755-0.229,1.509-0.485,2.276-0.793
				c0.768-0.294,1.433-0.69,1.995-1.215c0.691-0.614,1.254-1.33,1.688-2.11C300.052,293.914,300.321,293.108,300.449,292.263z
				 M282.683,103.953l3.198-4.349l-10.297-7.559l-3.197,4.349l2.494,1.816l-11.294,15.374l-2.481-1.829l-3.197,4.361l10.296,7.559
				l3.198-4.361l-2.533-1.854l11.281-15.374L282.683,103.953z M267.143,96.676l3.876-8.224l-24.583-11.562l-3.876,8.211l5.82,2.724
				l1.649-3.479l3.274,1.535l-8.198,17.407l-2.801-1.317l-2.303,4.886l11.575,5.436l2.289-4.873l-2.839-1.33l8.186-17.433
				l3.722,1.765l-1.637,3.504L267.143,96.676z M267.898,308.456c0.435-1.189,0.588-2.417,0.512-3.696
				c-0.09-1.278-0.486-2.545-1.151-3.798c-0.486-0.921-1.049-1.701-1.676-2.303c-0.652-0.614-1.33-1.087-2.033-1.433
				c-0.729-0.358-1.483-0.575-2.251-0.665c-0.793-0.103-1.561-0.076-2.341,0.025l-5.538,0.946c-0.46,0.077-0.946,0.167-1.42,0.282
				c-0.473,0.114-0.946,0.153-1.394,0.141c-0.461,0-0.87-0.09-1.254-0.281c-0.384-0.18-0.716-0.524-0.984-1.036
				c-0.205-0.409-0.32-0.806-0.32-1.189c0.013-0.396,0.115-0.755,0.281-1.088c0.167-0.332,0.436-0.639,0.742-0.946
				c0.332-0.281,0.729-0.55,1.151-0.78c0.485-0.256,0.972-0.422,1.496-0.512c0.512-0.076,1.023-0.089,1.51-0.013
				c0.473,0.064,0.921,0.218,1.33,0.448c0.409,0.243,0.754,0.537,1.022,0.908l0.793,1.496l6.178-3.3l-2.736-5.154l-1.714,0.921
				c-0.563-0.436-1.229-0.78-2.009-1.049c-0.793-0.256-1.637-0.409-2.57-0.436c-0.921-0.038-1.919,0.064-2.942,0.308
				c-1.035,0.23-2.059,0.64-3.12,1.202c-1.343,0.716-2.507,1.535-3.428,2.481c-0.947,0.946-1.65,1.97-2.123,3.069
				c-0.474,1.1-0.679,2.251-0.614,3.44c0.051,1.215,0.422,2.431,1.074,3.658c0.562,1.049,1.228,1.919,1.97,2.571
				c0.755,0.651,1.573,1.15,2.43,1.483c0.845,0.345,1.728,0.537,2.635,0.562c0.921,0.051,1.791-0.025,2.648-0.179l4.591-0.832
				c0.423-0.076,0.845-0.141,1.279-0.191c0.436-0.064,0.857-0.077,1.254-0.038c0.396,0.038,0.78,0.166,1.125,0.345
				c0.346,0.192,0.627,0.499,0.857,0.946c0.447,0.832,0.524,1.638,0.243,2.393c-0.269,0.767-0.934,1.419-1.957,1.957
				c-0.665,0.357-1.292,0.588-1.906,0.678c-0.575,0.089-1.125,0.063-1.624-0.064c-0.512-0.153-0.959-0.396-1.355-0.741
				c-0.384-0.346-0.717-0.768-0.998-1.292l-0.562-1.062l-6.178,3.312l2.737,5.142l1.752-0.946c0.703,0.575,1.496,1.022,2.354,1.305
				c0.844,0.294,1.765,0.46,2.711,0.485c0.96,0.039,1.932-0.076,2.942-0.332c0.997-0.243,1.995-0.627,2.979-1.151
				c1.407-0.755,2.584-1.649,3.53-2.673C266.759,310.746,267.451,309.646,267.898,308.456z M263.485,155.229l0.461-6.101
				l-4.067-0.307c-0.269-0.013-6.677-0.473-16.026,1.305c-9.362,1.778-18.277,5.231-26.155,10.027l-8.519-9.605l-10.897,32.667
				l33.728-6.894l-7.431-8.403c7.904-4.515,15.617-6.74,21.168-7.789c7.865-1.497,13.314-1.151,13.365-1.138l4.042,0.269
				L263.485,155.229z M249.941,224.821c0-0.486-0.09-0.934-0.256-1.343l-8.902-22.409c0,0-0.921-9.286-1.765-12.841
				c-0.167-0.716-0.371-1.433-0.589-2.149L155.6,201.351c0.319,13.174,6.587,24.89,16.256,32.488v36.17h45.457v-13.046h6.676
				c9.273,0,16.794-7.521,16.794-16.806v-11.908h5.704C248.393,228.249,249.941,226.701,249.941,224.821z M240.233,80.279
				l0.908-5.347l-11.179-1.893l-0.908,5.32l2.507,0.448l-2.366,13.929l-8.902-21.347l-8.901-1.522l-0.908,5.347l2.392,0.409
				l-3.185,18.776l-2.431-0.409l-0.703,4.131l-0.857-9.158l-6.408,0.614l0.512,5.27l-7.636,0.716l-0.652-6.869l5.896-0.575
				l-0.537-5.679l-5.909,0.563l-0.55-5.871l7.623-0.716l0.41,4.208l6.382-0.601l-0.946-10.143l-23.662,2.238l0.575,5.935
				l3.108-0.307l1.752,18.443l-3.121,0.294l0.281,2.903l-1.292-3.479l-2.315,0.844l-2.264-3.312
				c-0.627-0.959-1.292-1.688-2.008-2.175c-0.729-0.486-1.458-0.767-2.2-0.87c0.601-0.601,1.1-1.228,1.522-1.854
				c0.422-0.64,0.716-1.305,0.896-1.995c0.205-0.691,0.256-1.445,0.205-2.226c-0.051-0.793-0.256-1.663-0.588-2.609
				c-0.371-1.036-0.959-1.957-1.714-2.775c-0.755-0.806-1.65-1.419-2.699-1.867c-1.036-0.435-2.2-0.678-3.492-0.691
				c-1.292-0.025-2.661,0.23-4.106,0.742L147.9,82.491l1.854,5.104l2.903-1.049l6.484,17.906l-2.916,1.049l1.829,5.065l11.639-4.195
				l-1.842-5.065l-2.571,0.921l-2.213-6.101l2.392-0.87c0.742-0.281,1.445-0.422,2.046-0.46c0.614-0.013,1.177,0.077,1.688,0.307
				c0.524,0.23,0.985,0.576,1.433,1.074c0.435,0.499,0.844,1.113,1.241,1.868l3.53,6.267l7.623-2.763l0.013,0.307l23.662-2.251
				l-0.013-0.243l10.846,1.842l0.896-5.321l-2.481-0.422l2.341-13.711l9.018,21.117l6.459,1.1l4.093-24.097L240.233,80.279z
				 M236.908,324.878l-2.725-15.412l-13.379,2.354l0.921,5.219l5.513-0.96c-0.204,1.433-0.742,2.635-1.599,3.595
				c-0.87,0.972-1.97,1.573-3.325,1.803c-1.049,0.205-2.085,0.141-3.083-0.128c-1.01-0.281-1.944-0.78-2.775-1.483
				c-0.844-0.729-1.535-1.561-2.072-2.545c-0.524-0.985-0.882-2.047-1.087-3.197c-0.218-1.177-0.218-2.354-0.038-3.518
				c0.179-1.189,0.537-2.238,1.074-3.185c0.512-0.934,1.189-1.728,2.021-2.366c0.819-0.652,1.766-1.062,2.84-1.254
				c1.074-0.191,1.944-0.218,2.597-0.051c0.652,0.166,1.253,0.396,1.842,0.716c0.601,0.307,1.266,0.87,2.008,1.676l5.884-1.049
				l-1.126-6.434l-4.271,0.742c-1.472-0.857-2.789-1.395-3.966-1.599c-1.176-0.205-2.52-0.18-4.003,0.089
				c-1.317,0.23-2.545,0.627-3.671,1.202c-1.125,0.563-2.148,1.254-3.082,2.098c-0.921,0.832-1.714,1.778-2.405,2.827
				c-0.69,1.062-1.215,2.187-1.637,3.402c-0.384,1.202-0.64,2.48-0.742,3.812c-0.114,1.33-0.051,2.673,0.192,4.028
				c0.384,2.213,1.151,4.183,2.251,5.922c1.112,1.739,2.507,3.197,4.157,4.361c0.69,0.474,1.406,0.87,2.187,1.177
				c0.793,0.32,1.573,0.563,2.379,0.742c0.78,0.179,1.586,0.281,2.392,0.319c0.832,0.025,1.625-0.013,2.418-0.141
				c1.599-0.269,2.826-0.678,3.709-1.24s1.637-1.229,2.264-2.021c0.64-0.779,1.229-1.931,1.766-3.453l0.882,4.95L236.908,324.878z
				 M155.267,200.941l55.74-63.132c-13.046-8.979-34.649-8.851-49.179,2.545c-18.507,14.517-21.73,41.287-7.213,59.807
				C154.833,200.43,155.05,200.673,155.267,200.941z M205.367,306.192l0.55-5.282l-11.076-1.177l-0.563,5.295l2.481,0.269
				l-1.471,13.827l-10.041-20.388l-8.812-0.934l-0.562,5.295l2.366,0.243l-1.97,18.622l-2.392-0.256l-0.562,5.257l11.051,1.177
				l0.575-5.27l-2.443-0.269l1.42-13.583l10.168,20.145l6.382,0.678L203,305.949L205.367,306.192z M174.824,302.061l1.663-5.039
				l-11.92-3.939l-1.663,5.039l2.877,0.946l-5.858,17.791l-2.891-0.946l-1.675,5.026l11.946,3.939l1.663-5.039l-2.942-0.959
				l5.871-17.792L174.824,302.061z M161.317,298.556l2.712-4.565l-9.619-5.666l-2.699,4.591l2.162,1.254l-7.06,11.984l-0.704-22.716
				l-7.623-4.502l-2.711,4.579l2.06,1.215l-9.491,16.116l-2.098-1.229l-2.686,4.579l9.592,5.641l2.686-4.566l-2.11-1.253
				l6.933-11.768l0.882,22.55l5.538,3.248l12.189-20.682L161.317,298.556z M148.565,117.166l-3.057-4.451l-2.264,1.548l-3.21-4.694
				l3.415-2.341c1.497-1.023,2.647-2.136,3.453-3.312c0.793-1.177,1.305-2.379,1.522-3.594c0.205-1.241,0.141-2.468-0.205-3.696
				c-0.358-1.241-0.908-2.43-1.701-3.594c-0.652-0.946-1.497-1.714-2.533-2.289c-1.036-0.576-2.162-0.934-3.389-1.087
				c-1.241-0.153-2.52-0.051-3.837,0.281c-1.355,0.333-2.647,0.934-3.901,1.791l-11.396,7.79l3.069,4.477l2.558-1.74l10.757,15.707
				l-2.545,1.74l3.044,4.463L148.565,117.166z M133.92,281.367c0.409-1.011,0.614-2.06,0.601-3.172
				c-0.025-1.101-0.281-2.238-0.78-3.402c-0.486-1.177-1.266-2.315-2.315-3.402l-10.756-11.179l-3.837,3.696l2.111,2.175
				l-13.494,12.981l-2.097-2.187l-3.825,3.67l8.429,8.762l3.824-3.684l-1.868-1.932l4.604-4.425l1.714,1.79
				c0.55,0.576,0.959,1.139,1.228,1.663c0.269,0.537,0.396,1.087,0.409,1.637c0,0.551-0.128,1.126-0.396,1.714
				c-0.269,0.589-0.652,1.216-1.177,1.854l-4.208,5.68l5.884,6.126l4.105-3.978l-1.688-1.739l2.06-3.352
				c0.626-0.959,0.998-1.842,1.151-2.686c0.141-0.845,0.103-1.611-0.102-2.328c0.793,0.308,1.56,0.512,2.276,0.627
				c0.742,0.128,1.458,0.128,2.162,0.013c0.691-0.103,1.394-0.346,2.072-0.703c0.69-0.371,1.394-0.896,2.11-1.586
				C132.884,283.259,133.499,282.376,133.92,281.367z M122.192,142.042l8.25-9.222l-4.016-3.594l-1.842,2.046l-4.246-3.798
				l2.775-3.095c1.215-1.356,2.059-2.699,2.571-4.029c0.499-1.343,0.704-2.622,0.601-3.862c-0.077-1.241-0.435-2.43-1.062-3.543
				c-0.64-1.125-1.471-2.149-2.507-3.07c-0.857-0.78-1.868-1.317-2.993-1.637c-1.164-0.307-2.34-0.396-3.568-0.243
				c-1.228,0.153-2.456,0.55-3.671,1.189c-1.202,0.64-2.328,1.522-3.351,2.673l-9.209,10.271l4.055,3.62l2.046-2.315l14.21,12.701
				l-2.072,2.315l1.164,1.023l-1.688-0.87l-0.985,1.931l-25.376-4.272l-3.658,6.997l17.932,18.533l-1.036,1.97l4.784,2.494
				l5.244-10.027l-4.784-2.494l-1.458,2.788l-3.198-3.185l4.259-8.135l4.425,0.806l-1.369,2.635l4.771,2.507l4.834-9.26
				L122.192,142.042z M116.231,252.422l-3.786-6.767l-24.864,4.771l-1.074-1.906l-4.618,2.597l5.436,9.708l4.63-2.597l-1.522-2.699
				l4.336-0.908l4.4,7.866l-3.031,3.197l-1.445-2.532l-4.617,2.584l5.449,9.695l4.617-2.584l-1.049-1.854L116.231,252.422z
				 M108.327,238.315l-6.126-22.524l-5.641,1.535l0.819,2.98l-17.561,4.771l-0.806-2.968l-5.116,1.395l6.126,22.511l10.155-2.763
				l-1.675-6.075l-5.014,1.368l-1.996-7.277l6.562-1.778l1.535,5.628l5.423-1.471l-1.535-5.641l5.576-1.509l1.982,7.265l-4.016,1.1
				l1.65,6.075L108.327,238.315z M101.779,205.61l-0.448-12.547l-5.308,0.179l0.09,3.044l-18.687,0.652l-0.115-3.031l-5.295,0.179
				l0.806,23.432l10.782-0.371l-0.217-6.268l-3.926,0.141c-0.167,0-0.346-0.025-0.538-0.103c-0.166-0.063-0.333-0.166-0.499-0.281
				c-0.167-0.115-0.294-0.243-0.384-0.409c-0.115-0.166-0.167-0.319-0.167-0.486l-0.23-6.382l18.712-0.652l0.09,3.095
				L101.779,205.61z M90.894,179.39l7.303-1.062l-5.295-5.155l1.253-7.277l-6.536,3.44l-6.523-3.44l1.241,7.277l-5.282,5.155
				l7.303,1.062l3.262,6.612L90.894,179.39z"/>
			<path fill="#B3E2F9" d="M303.391,120.734l2.954,3.287l-4.949,4.451l-4.067-4.515c0.281-1.241,0.384-2.238,0.319-2.98
				c-0.077-0.729-0.269-1.407-0.575-2.046c-0.32-0.627-0.729-1.228-1.241-1.778c-0.729-0.819-1.599-1.42-2.596-1.791
				c-0.998-0.371-2.034-0.524-3.134-0.474c-1.101,0.051-2.188,0.307-3.274,0.78c-1.113,0.448-2.123,1.113-3.057,1.957
				c-0.947,0.857-1.714,1.803-2.29,2.827c-0.562,1.049-0.934,2.098-1.1,3.172c-0.166,1.075-0.115,2.123,0.153,3.159
				c0.269,1.023,0.78,1.97,1.535,2.801c0.524,0.588,1.112,1.049,1.765,1.381s1.305,0.576,1.995,0.703
				c0.691,0.128,1.382,0.179,2.072,0.115c0.678-0.051,1.317-0.192,1.919-0.409l2.941,5.896c-1.24,0.55-2.52,0.908-3.862,1.062
				c-1.344,0.153-2.687,0.077-4.017-0.192c-1.343-0.294-2.647-0.806-3.914-1.522c-1.266-0.716-2.442-1.676-3.517-2.853
				c-0.908-1.01-1.638-2.084-2.2-3.261c-0.537-1.164-0.921-2.366-1.151-3.607c-0.218-1.241-0.269-2.507-0.153-3.799
				c0.103-1.279,0.384-2.532,0.818-3.748c0.448-1.241,1.036-2.417,1.791-3.556c0.755-1.138,1.676-2.187,2.725-3.133
				c1.586-1.445,3.312-2.507,5.218-3.21c1.88-0.691,3.786-1.036,5.704-1.01c1.906,0.038,3.748,0.435,5.513,1.189
				c1.778,0.754,3.352,1.88,4.694,3.389c1.087,1.189,1.854,2.341,2.303,3.428C303.148,117.537,303.365,118.956,303.391,120.734z"/>
			<path fill="#B3E2F9" d="M300.347,289.731c0.191,0.845,0.229,1.688,0.102,2.532c-0.128,0.845-0.396,1.65-0.818,2.443
				c-0.435,0.78-0.997,1.496-1.688,2.11c-0.562,0.524-1.228,0.921-1.995,1.215c-0.768,0.308-1.521,0.563-2.276,0.793
				c-0.768,0.23-1.483,0.436-2.148,0.652c-0.652,0.205-1.164,0.474-1.535,0.793c-0.153,0.128-0.294,0.256-0.409,0.358
				c-0.128,0.103-0.243,0.205-0.358,0.319c-0.103,0.103-0.218,0.243-0.333,0.384c-0.114,0.154-0.229,0.346-0.357,0.576l-3.236-3.646
				c-1.445,0.857-2.993,1.42-4.643,1.688c-1.638,0.269-3.274,0.256-4.925-0.025c-1.637-0.295-3.235-0.857-4.771-1.701
				c-1.521-0.857-2.916-1.97-4.156-3.352c-0.947-1.036-1.74-2.148-2.354-3.351c-0.614-1.177-1.074-2.392-1.395-3.633
				c-0.307-1.253-0.447-2.494-0.422-3.76c0-1.267,0.205-2.494,0.537-3.684c0.346-1.189,0.831-2.328,1.496-3.402
				c0.665-1.087,1.484-2.06,2.456-2.955c0.998-0.895,2.06-1.611,3.224-2.161c1.138-0.537,2.327-0.921,3.542-1.151
				c1.229-0.204,2.456-0.269,3.723-0.153c1.253,0.103,2.494,0.384,3.696,0.806c1.215,0.435,2.379,1.023,3.491,1.752
				c1.113,0.742,2.149,1.625,3.083,2.674c1.266,1.394,2.238,2.916,2.929,4.565c0.678,1.638,1.074,3.313,1.177,5.001
				c0.115,1.688-0.077,3.339-0.55,4.963c-0.474,1.65-1.229,3.134-2.29,4.477c0.396-0.141,0.819-0.269,1.254-0.384
				c0.422-0.115,0.831-0.243,1.253-0.371c0.41-0.153,0.807-0.294,1.177-0.473c0.371-0.18,0.729-0.396,1.049-0.665
				c0.295-0.256,0.551-0.562,0.755-0.883c0.218-0.346,0.358-0.703,0.448-1.062c0.076-0.384,0.102-0.768,0.025-1.177
				c-0.064-0.409-0.23-0.818-0.512-1.253l4.63-1.292C299.771,288.069,300.142,288.887,300.347,289.731z M285.242,289.54
				c0.358-0.985,0.512-2.021,0.46-3.083c-0.063-1.062-0.319-2.136-0.793-3.197c-0.473-1.062-1.112-2.06-1.944-2.98
				c-0.844-0.921-1.765-1.675-2.788-2.238c-1.022-0.575-2.059-0.959-3.12-1.112c-1.062-0.166-2.098-0.115-3.108,0.141
				c-1.011,0.269-1.932,0.768-2.763,1.509c-0.831,0.742-1.42,1.612-1.791,2.584c-0.357,0.998-0.512,2.008-0.447,3.083
				c0.063,1.074,0.319,2.136,0.793,3.223c0.447,1.074,1.1,2.072,1.944,3.006c0.818,0.921,1.752,1.662,2.763,2.226
				c1.023,0.562,2.046,0.934,3.12,1.1c1.049,0.166,2.085,0.115,3.108-0.141c1.011-0.269,1.919-0.768,2.763-1.509
				C284.256,291.394,284.858,290.524,285.242,289.54z"/>
			<polygon fill="#B3E2F9" points="285.881,99.604 282.683,103.953 280.151,102.086 268.87,117.46 271.403,119.314 268.205,123.676 
				257.909,116.117 261.106,111.755 263.587,113.584 274.881,98.21 272.387,96.394 275.584,92.045 			"/>
			<path fill="#185885" d="M285.702,286.457c0.052,1.062-0.102,2.098-0.46,3.083c-0.384,0.984-0.985,1.854-1.804,2.609
				c-0.844,0.741-1.752,1.24-2.763,1.509c-1.023,0.256-2.06,0.307-3.108,0.141c-1.074-0.166-2.097-0.537-3.12-1.1
				c-1.011-0.563-1.944-1.305-2.763-2.226c-0.845-0.934-1.497-1.932-1.944-3.006c-0.474-1.087-0.729-2.148-0.793-3.223
				c-0.064-1.075,0.09-2.085,0.447-3.083c0.371-0.972,0.96-1.842,1.791-2.584c0.831-0.741,1.752-1.24,2.763-1.509
				c1.011-0.256,2.047-0.307,3.108-0.141c1.062,0.153,2.098,0.537,3.12,1.112c1.023,0.563,1.944,1.317,2.788,2.238
				c0.832,0.921,1.472,1.919,1.944,2.98C285.382,284.321,285.638,285.395,285.702,286.457z"/>
			<polygon fill="#B3E2F9" points="271.019,88.452 267.143,96.676 261.298,93.926 262.935,90.421 259.213,88.656 251.028,106.089 
				253.867,107.419 251.578,112.292 240.002,106.856 242.305,101.971 245.106,103.288 253.304,85.881 250.03,84.346 248.38,87.825 
				242.56,85.101 246.436,76.889 			"/>
			<path fill="#B3E2F9" d="M268.41,304.759c0.076,1.279-0.077,2.507-0.512,3.696c-0.447,1.19-1.139,2.29-2.072,3.326
				c-0.946,1.023-2.123,1.918-3.53,2.673c-0.984,0.524-1.982,0.908-2.979,1.151c-1.011,0.256-1.982,0.371-2.942,0.332
				c-0.946-0.025-1.867-0.191-2.711-0.485c-0.857-0.282-1.65-0.729-2.354-1.305l-1.752,0.946l-2.737-5.142l6.178-3.312l0.562,1.062
				c0.281,0.524,0.614,0.946,0.998,1.292c0.396,0.345,0.844,0.588,1.355,0.741c0.499,0.128,1.049,0.153,1.624,0.064
				c0.614-0.09,1.241-0.32,1.906-0.678c1.023-0.538,1.688-1.19,1.957-1.957c0.281-0.755,0.204-1.561-0.243-2.393
				c-0.23-0.447-0.512-0.754-0.857-0.946c-0.345-0.179-0.729-0.307-1.125-0.345c-0.396-0.039-0.818-0.026-1.254,0.038
				c-0.435,0.051-0.856,0.115-1.279,0.191l-4.591,0.832c-0.857,0.153-1.728,0.229-2.648,0.179c-0.907-0.025-1.79-0.218-2.635-0.562
				c-0.856-0.333-1.675-0.832-2.43-1.483c-0.742-0.652-1.407-1.522-1.97-2.571c-0.652-1.228-1.023-2.443-1.074-3.658
				c-0.064-1.189,0.141-2.341,0.614-3.44c0.473-1.1,1.176-2.123,2.123-3.069c0.921-0.946,2.085-1.766,3.428-2.481
				c1.062-0.562,2.085-0.972,3.12-1.202c1.023-0.243,2.021-0.346,2.942-0.308c0.934,0.026,1.777,0.18,2.57,0.436
				c0.78,0.269,1.445,0.613,2.009,1.049l1.714-0.921l2.736,5.154l-6.178,3.3l-0.793-1.496c-0.269-0.371-0.613-0.665-1.022-0.908
				c-0.409-0.23-0.857-0.384-1.33-0.448c-0.486-0.076-0.998-0.063-1.51,0.013c-0.524,0.09-1.011,0.256-1.496,0.512
				c-0.422,0.23-0.819,0.499-1.151,0.78c-0.307,0.308-0.575,0.614-0.742,0.946c-0.166,0.333-0.269,0.691-0.281,1.088
				c0,0.384,0.115,0.78,0.32,1.189c0.269,0.512,0.601,0.856,0.984,1.036c0.384,0.191,0.793,0.281,1.254,0.281
				c0.447,0.013,0.921-0.026,1.394-0.141c0.474-0.115,0.96-0.205,1.42-0.282l5.538-0.946c0.78-0.102,1.548-0.128,2.341-0.025
				c0.768,0.09,1.521,0.307,2.251,0.665c0.703,0.346,1.381,0.818,2.033,1.433c0.627,0.602,1.189,1.382,1.676,2.303
				C267.923,302.214,268.32,303.481,268.41,304.759z"/>
			<path fill="#B3E2F9" d="M263.946,149.128l-0.461,6.101l-0.332,4.029l-4.042-0.269c-0.051-0.013-5.5-0.358-13.365,1.138
				c-5.551,1.049-13.264,3.274-21.168,7.789l7.431,8.403l-33.728,6.894l10.897-32.667l8.519,9.605
				c7.878-4.796,16.793-8.25,26.155-10.027c9.35-1.778,15.758-1.317,16.026-1.305L263.946,149.128z"/>
			<path fill="#B3E2F9" d="M249.685,223.478c0.166,0.409,0.256,0.856,0.256,1.343c0,1.88-1.548,3.428-3.454,3.428h-5.704v11.908
				c0,9.285-7.521,16.806-16.794,16.806h-6.676v13.046h-45.457v-36.17c-9.669-7.598-15.937-19.313-16.256-32.488l82.829-15.271
				c0.218,0.716,0.422,1.433,0.589,2.149c0.844,3.556,1.765,12.841,1.765,12.841L249.685,223.478z"/>
			<polygon fill="#B3E2F9" points="241.141,74.932 240.233,80.279 237.854,79.869 233.761,103.966 227.302,102.866 218.285,81.75 
				215.944,95.46 218.425,95.883 217.53,101.204 206.684,99.362 206.556,98.121 207.259,93.99 209.69,94.399 212.875,75.623 
				210.483,75.214 211.391,69.867 220.292,71.389 229.195,92.736 231.561,78.808 229.054,78.36 229.962,73.04 			"/>
			<path fill="#B3E2F9" d="M234.183,309.466l2.725,15.412l-5.692,0.998l-0.882-4.95c-0.537,1.522-1.126,2.674-1.766,3.453
				c-0.627,0.793-1.381,1.459-2.264,2.021s-2.11,0.972-3.709,1.24c-0.793,0.128-1.586,0.166-2.418,0.141
				c-0.806-0.038-1.611-0.141-2.392-0.319c-0.806-0.179-1.586-0.422-2.379-0.742c-0.78-0.307-1.496-0.703-2.187-1.177
				c-1.65-1.164-3.045-2.622-4.157-4.361c-1.1-1.739-1.867-3.709-2.251-5.922c-0.243-1.355-0.307-2.698-0.192-4.028
				c0.103-1.331,0.358-2.609,0.742-3.812c0.422-1.216,0.946-2.341,1.637-3.402c0.691-1.049,1.484-1.995,2.405-2.827
				c0.934-0.844,1.957-1.534,3.082-2.098c1.126-0.575,2.354-0.972,3.671-1.202c1.483-0.269,2.827-0.294,4.003-0.089
				c1.177,0.204,2.494,0.741,3.966,1.599l4.271-0.742l1.126,6.434l-5.884,1.049c-0.742-0.806-1.407-1.369-2.008-1.676
				c-0.589-0.319-1.189-0.55-1.842-0.716c-0.652-0.167-1.522-0.141-2.597,0.051c-1.074,0.192-2.021,0.602-2.84,1.254
				c-0.831,0.639-1.509,1.433-2.021,2.366c-0.537,0.946-0.896,1.995-1.074,3.185c-0.18,1.164-0.18,2.341,0.038,3.518
				c0.205,1.15,0.562,2.212,1.087,3.197c0.537,0.984,1.229,1.816,2.072,2.545c0.831,0.703,1.766,1.202,2.775,1.483
				c0.998,0.269,2.034,0.333,3.083,0.128c1.355-0.229,2.455-0.831,3.325-1.803c0.856-0.96,1.395-2.162,1.599-3.595l-5.513,0.96
				l-0.921-5.219L234.183,309.466z"/>
			<path fill="#B3E2F9" d="M211.007,137.809l-55.74,63.132c-0.217-0.269-0.435-0.512-0.652-0.78
				c-14.517-18.52-11.294-45.29,7.213-59.807C176.358,128.958,197.961,128.83,211.007,137.809z"/>
			<polygon fill="#B3E2F9" points="206.684,99.362 206.697,99.604 183.035,101.855 183.022,101.549 182.817,99.387 182.536,96.484 
				185.657,96.189 183.905,77.746 180.796,78.053 180.221,72.119 203.883,69.88 204.83,80.023 198.447,80.624 198.038,76.416 
				190.415,77.132 190.965,83.003 196.874,82.44 197.411,88.119 191.515,88.694 192.167,95.563 199.803,94.847 199.291,89.577 
				205.699,88.963 206.556,98.121 			"/>
			<polygon fill="#B3E2F9" points="205.917,300.91 205.367,306.192 203,305.949 200.468,329.841 194.085,329.164 183.917,309.019 
				182.498,322.602 184.94,322.871 184.365,328.14 173.314,326.963 173.877,321.707 176.269,321.962 178.239,303.34 
				175.873,303.097 176.435,297.802 185.248,298.736 195.288,319.124 196.759,305.296 194.277,305.028 194.84,299.733 			"/>
			<path fill="#B3E2F9" d="M182.817,99.387l0.205,2.162l-7.623,2.763l-3.53-6.267c-0.396-0.755-0.806-1.369-1.241-1.868
				c-0.448-0.499-0.908-0.844-1.433-1.074c-0.512-0.23-1.074-0.32-1.688-0.307c-0.601,0.039-1.304,0.179-2.046,0.46l-2.392,0.87
				l2.213,6.101l2.571-0.921l1.842,5.065l-11.639,4.195l-1.829-5.065l2.916-1.049l-6.484-17.906l-2.903,1.049l-1.854-5.104
				l14.862-5.372c1.445-0.512,2.814-0.768,4.106-0.742c1.292,0.013,2.456,0.256,3.492,0.691c1.049,0.448,1.944,1.062,2.699,1.867
				c0.754,0.819,1.343,1.74,1.714,2.775c0.333,0.947,0.537,1.816,0.588,2.609c0.051,0.78,0,1.535-0.205,2.226
				c-0.179,0.69-0.473,1.355-0.896,1.995c-0.422,0.627-0.921,1.253-1.522,1.854c0.742,0.103,1.471,0.384,2.2,0.87
				c0.716,0.486,1.381,1.215,2.008,2.175l2.264,3.312l2.315-0.844L182.817,99.387z M168.556,86.379
				c0.051-0.499-0.013-1.036-0.217-1.611c-0.396-1.087-1.1-1.791-2.098-2.124c-0.998-0.319-2.251-0.205-3.748,0.333l-3.684,1.343
				l2.443,6.792l3.697-1.33c0.703-0.256,1.317-0.55,1.829-0.882c0.524-0.333,0.908-0.716,1.228-1.126
				C168.301,87.339,168.479,86.878,168.556,86.379z"/>
			<polygon fill="#B3E2F9" points="176.486,297.022 174.824,302.061 171.895,301.088 166.024,318.88 168.966,319.839 
				167.303,324.878 155.357,320.939 157.032,315.913 159.923,316.859 165.781,299.068 162.903,298.122 164.566,293.083 			"/>
			<path fill="#185885" d="M168.339,84.768c0.205,0.576,0.269,1.113,0.217,1.611c-0.077,0.499-0.255,0.959-0.55,1.394
				c-0.32,0.41-0.704,0.793-1.228,1.126c-0.511,0.333-1.125,0.626-1.829,0.882l-3.697,1.33l-2.443-6.792l3.684-1.343
				c1.497-0.538,2.75-0.652,3.748-0.333C167.239,82.978,167.942,83.681,168.339,84.768z"/>
			<polygon fill="#B3E2F9" points="164.029,293.991 161.317,298.556 159.271,297.367 147.082,318.048 141.543,314.8 140.661,292.25 
				133.729,304.018 135.839,305.271 133.153,309.837 123.561,304.197 126.246,299.618 128.344,300.846 137.834,284.73 
				135.775,283.515 138.486,278.936 146.109,283.438 146.813,306.154 153.873,294.169 151.711,292.916 154.41,288.325 			"/>
			<path fill="#B3E2F9" d="M145.508,112.714l3.057,4.451l-10.22,6.996l-3.044-4.463l2.545-1.74l-10.757-15.707l-2.558,1.74
				l-3.069-4.477l11.396-7.79c1.253-0.857,2.545-1.458,3.901-1.791c1.317-0.333,2.597-0.435,3.837-0.281
				c1.228,0.153,2.353,0.512,3.389,1.087c1.036,0.575,1.88,1.343,2.533,2.289c0.793,1.164,1.343,2.354,1.701,3.594
				c0.346,1.228,0.41,2.456,0.205,3.696c-0.218,1.215-0.729,2.417-1.522,3.594c-0.806,1.177-1.957,2.29-3.453,3.312l-3.415,2.341
				l3.21,4.694L145.508,112.714z M141.633,100.845c0.384-1.023,0.167-2.085-0.588-3.223c-0.729-1.049-1.624-1.637-2.724-1.752
				c-1.087-0.141-2.29,0.256-3.62,1.151l-2.213,1.522l4.515,6.625l2.226-1.522C140.469,102.79,141.275,101.855,141.633,100.845z"/>
			<path fill="#185885" d="M141.044,97.622c0.755,1.138,0.972,2.2,0.588,3.223c-0.358,1.01-1.164,1.944-2.404,2.801l-2.226,1.522
				l-4.515-6.625l2.213-1.522c1.33-0.896,2.532-1.292,3.62-1.151C139.42,95.985,140.315,96.573,141.044,97.622z"/>
			<path fill="#B3E2F9" d="M134.521,278.195c0.013,1.112-0.192,2.161-0.601,3.172c-0.422,1.01-1.036,1.893-1.803,2.635
				c-0.716,0.69-1.42,1.215-2.11,1.586c-0.678,0.357-1.381,0.601-2.072,0.703c-0.704,0.115-1.419,0.115-2.162-0.013
				c-0.716-0.115-1.483-0.319-2.276-0.627c0.205,0.717,0.243,1.483,0.102,2.328c-0.153,0.844-0.524,1.727-1.151,2.686l-2.06,3.352
				l1.688,1.739l-4.105,3.978l-5.884-6.126l4.208-5.68c0.524-0.639,0.908-1.266,1.177-1.854c0.269-0.588,0.396-1.163,0.396-1.714
				c-0.013-0.55-0.141-1.1-0.409-1.637c-0.269-0.524-0.678-1.087-1.228-1.663l-1.714-1.79l-4.604,4.425l1.868,1.932l-3.824,3.684
				l-8.429-8.762l3.825-3.67l2.097,2.187l13.494-12.981l-2.111-2.175l3.837-3.696l10.756,11.179
				c1.049,1.087,1.829,2.226,2.315,3.402C134.24,275.957,134.496,277.094,134.521,278.195z M126.796,279.448
				c0.806-0.793,1.177-1.688,1.062-2.712c-0.103-1.022-0.704-2.11-1.791-3.235l-2.673-2.775l-5.129,4.924l2.673,2.775
				c0.524,0.524,1.023,0.96,1.522,1.292c0.512,0.32,1.01,0.537,1.522,0.64c0.499,0.103,0.972,0.077,1.445-0.064
				C125.901,280.151,126.349,279.87,126.796,279.448z"/>
			<path fill="#B3E2F9" d="M130.441,132.821l-8.25,9.222l-0.167-0.153l-2.699-2.417l-1.164-1.023l2.072-2.315l-14.21-12.701
				l-2.046,2.315l-4.055-3.62l9.209-10.271c1.023-1.151,2.149-2.033,3.351-2.673c1.215-0.64,2.443-1.036,3.671-1.189
				c1.228-0.154,2.405-0.064,3.568,0.243c1.125,0.32,2.136,0.857,2.993,1.637c1.036,0.921,1.867,1.944,2.507,3.07
				c0.626,1.113,0.985,2.302,1.062,3.543c0.103,1.241-0.102,2.52-0.601,3.862c-0.512,1.331-1.356,2.673-2.571,4.029l-2.775,3.095
				l4.246,3.798l1.842-2.046L130.441,132.821z M119.851,118.624c0.103-1.087-0.333-2.084-1.355-2.98
				c-0.947-0.857-1.97-1.215-3.07-1.087c-1.074,0.141-2.162,0.806-3.223,2.008l-1.816,1.995l5.973,5.347l1.816-2.008
				C119.173,120.785,119.723,119.685,119.851,118.624z"/>
			<path fill="#185885" d="M127.858,276.736c0.115,1.023-0.256,1.919-1.062,2.712c-0.448,0.422-0.896,0.703-1.369,0.844
				c-0.473,0.142-0.946,0.167-1.445,0.064c-0.512-0.103-1.01-0.319-1.522-0.64c-0.499-0.332-0.998-0.768-1.522-1.292l-2.673-2.775
				l5.129-4.924l2.673,2.775C127.154,274.625,127.755,275.713,127.858,276.736z"/>
			<path fill="#B3E2F9" d="M122.025,141.889l-4.834,9.26l-4.771-2.507l1.369-2.635l-4.425-0.806l-4.259,8.135l3.198,3.185
				l1.458-2.788l4.784,2.494l-5.244,10.027l-4.784-2.494l1.036-1.97L87.62,143.258l3.658-6.997l25.376,4.272l0.985-1.931l1.688,0.87
				L122.025,141.889z M101.369,149.627l2.789-5.346l-10.015-1.803L101.369,149.627z"/>
			<path fill="#185885" d="M118.496,115.644c1.023,0.896,1.458,1.893,1.355,2.98c-0.128,1.062-0.678,2.162-1.675,3.274l-1.816,2.008
				l-5.973-5.347l1.816-1.995c1.062-1.202,2.149-1.867,3.223-2.008C116.526,114.428,117.549,114.787,118.496,115.644z"/>
			<path fill="#B3E2F9" d="M112.446,245.656l3.786,6.767l-17.139,18.571l1.049,1.854l-4.617,2.584l-5.449-9.695l4.617-2.584
				l1.445,2.532l3.031-3.197l-4.4-7.866l-4.336,0.908l1.522,2.699l-4.63,2.597l-5.436-9.708l4.618-2.597l1.074,1.906
				L112.446,245.656z M102.725,258.689l6.855-7.252l-9.746,2.085L102.725,258.689z"/>
			<polygon fill="#185885" points="109.581,251.437 102.725,258.689 99.834,253.522 			"/>
			<polygon fill="#B3E2F9" points="102.201,215.791 108.327,238.315 98.67,240.936 97.021,234.861 101.037,233.761 99.054,226.497 
				93.478,228.005 95.013,233.646 89.589,235.117 88.055,229.489 81.493,231.267 83.489,238.544 88.502,237.176 90.178,243.251 
				80.022,246.014 73.896,223.503 79.012,222.109 79.818,225.077 97.379,220.306 96.56,217.326 			"/>
			<polygon fill="#185885" points="104.158,144.281 101.369,149.627 94.143,142.478 			"/>
			<path fill="#B3E2F9" d="M101.331,193.062l0.448,12.547l-5.333,0.191l-0.09-3.095l-18.712,0.652l0.23,6.382
				c0,0.167,0.051,0.32,0.167,0.486c0.089,0.166,0.217,0.294,0.384,0.409c0.166,0.115,0.333,0.218,0.499,0.281
				c0.192,0.077,0.371,0.103,0.538,0.103l3.926-0.141l0.217,6.268l-10.782,0.371l-0.806-23.432l5.295-0.179l0.115,3.031
				l18.687-0.652l-0.09-3.044L101.331,193.062z"/>
			<polygon fill="#B3E2F9" points="98.197,178.329 90.894,179.39 87.62,186.002 84.358,179.39 77.055,178.329 82.337,173.174 
				81.097,165.896 87.62,169.337 94.156,165.896 92.902,173.174 			"/>
		</g>
		<g>
		</g>
	</g>
</g>
</svg>
