<?xml version="1.0" encoding="utf-8"?>
<!-- Generator: Adobe Illustrator 16.0.4, SVG Export Plug-In . SVG Version: 6.00 Build 0)  -->
<!DOCTYPE svg PUBLIC "-//W3C//DTD SVG 1.1//EN" "http://www.w3.org/Graphics/SVG/1.1/DTD/svg11.dtd">
<svg version="1.1" id="Layer_1" xmlns="http://www.w3.org/2000/svg" xmlns:xlink="http://www.w3.org/1999/xlink" x="0px" y="0px"
	 width="292.721px" height="378.854px" viewBox="0 0 292.721 378.854" enable-background="new 0 0 292.721 378.854"
	 xml:space="preserve">
<g>
	<g>
		<path d="M94.995,159.158c-0.555-1.717-1.345-3.318-2.376-4.799c-1.031-1.48-2.328-2.815-3.894-3.996
			c-1.565-1.181-3.443-2.139-5.631-2.867c-2.189-0.728-4.707-1.198-7.551-1.398c-2.845-0.2-6.056-0.064-9.623,0.424
			c-1.926,0.264-3.788,0.659-5.585,1.185c-1.797,0.526-3.465,1.19-5.003,1.986c-1.538,0.796-2.92,1.724-4.138,2.785
			c-1.219,1.06-2.216,2.272-2.995,3.631s-1.307,2.855-1.586,4.488s-0.247,3.415,0.09,5.346c0.347,1.99,0.985,2.903,1.914,2.743
			c0.676-0.116,1.405-0.864,2.197-2.244s1.841-3.335,2.98-5.796c0.443-0.958,1.175-1.885,2.225-2.707
			c1.048-0.822,2.303-1.558,3.76-2.201c1.458-0.643,3.065-1.19,4.82-1.64c1.755-0.449,3.542-0.793,5.36-1.033
			c2.488-0.328,4.816-0.282,6.972,0.134c2.156,0.416,4.044,1.178,5.66,2.276c1.615,1.1,2.923,2.519,3.928,4.254
			c1.003,1.735,1.619,3.759,1.856,6.067c0.193,1.871,0.15,3.841-0.121,5.911c-0.271,2.07-0.743,4.127-1.414,6.171
			c-0.671,2.045-1.531,4.011-2.573,5.9c-1.043,1.89-2.255,3.588-3.64,5.096c-1.386,1.509-2.933,2.771-4.649,3.79
			c-1.716,1.021-3.576,1.672-5.59,1.955c-0.665,0.094-1.201,0.104-1.612,0.031s-0.737-0.241-0.971-0.511
			c-0.235-0.269-0.412-0.647-0.535-1.135c-0.123-0.487-0.238-1.099-0.345-1.831c-0.101-0.693-0.181-1.408-0.237-2.148
			c-0.056-0.74-0.1-1.604-0.128-2.59c-0.029-0.986-0.04-2.142-0.032-3.467c0.007-1.325,0.032-2.926,0.054-4.782
			c0.02-1.672,0.043-3.402,0.092-5.167c0.048-1.765,0.177-3.506,0.389-5.222c0.211-1.716,0.543-3.374,0.997-4.971
			c0.453-1.596,1.965-3.779,1.912-4.437c-0.061-0.75-2.694-2.12-4.264-1.9c-1.249,0.174-3.019,0.885-3.948,2.049
			c-1.507,1.887-2.372,5.487-2.949,8.623c-0.578,3.136-0.873,6.386-0.895,9.751c-0.021,3.366,0.162,6.782,0.539,10.247
			c0.377,3.466,0.832,6.837,1.359,10.115c0.054,0.336,0.109,0.61,0.164,0.824c0.055,0.215,0.134,0.39,0.238,0.525
			c0.104,0.136,0.239,0.245,0.406,0.329c0.167,0.086,0.415,0.127,0.659,0.184c0.625,0.144,1.437,0.411,2.301,0.581
			c0.864,0.171,1.772,0.306,2.725,0.405c0.953,0.1,1.927,0.148,2.924,0.146c0.997-0.003,1.963-0.068,2.9-0.198
			c2.771-0.386,5.293-1.175,7.583-2.377s4.351-2.7,6.191-4.498c1.839-1.798,3.44-3.827,4.804-6.099
			c1.362-2.272,2.479-4.664,3.343-7.178c0.863-2.514,1.476-5.087,1.826-7.721s0.419-5.206,0.194-7.717
			C95.907,162.65,95.55,160.876,94.995,159.158z"/>
		<path d="M133.898,160.488c1.087-0.027,2.017-0.202,2.79-0.527c0.772-0.326,1.411-0.742,1.916-1.25
			c0.506-0.509,0.871-1.085,1.098-1.729c0.227-0.643,0.336-1.305,0.326-1.985c-0.011-0.74-0.166-1.378-0.465-1.914
			c-0.299-0.536-0.701-0.964-1.203-1.286c-0.504-0.322-1.094-0.557-1.768-0.704c-0.676-0.147-1.394-0.21-2.151-0.192
			c-1.214,0.028-2.223,0.23-3.024,0.604s-1.437,0.824-1.907,1.35s-0.804,1.082-1,1.669c-0.196,0.587-0.286,1.11-0.27,1.569
			c0.047,1.38,0.536,2.468,1.459,3.27S132.021,160.535,133.898,160.488z"/>
		<path d="M242.502,187.143c-0.922,0.617-2.022,1.25-3.298,1.905c-1.276,0.655-2.607,1.238-3.996,1.751
			c-1.389,0.514-2.789,0.908-4.205,1.184c-1.417,0.275-2.73,0.33-3.944,0.159c-0.385-0.054-0.734-0.145-1.058-0.271
			c-0.323-0.125-0.623-0.31-0.899-0.55c-0.276-0.239-0.538-0.557-0.784-0.953c-0.246-0.397-0.785-1.349-0.72-1.461
			c0.11-0.188,3.57-0.672,5.212-1.307c1.641-0.634,3.097-1.412,4.366-2.334c1.27-0.922,2.313-1.945,3.132-3.073
			c0.817-1.128,1.326-2.303,1.519-3.528c0.177-1.127,0.127-2.177-0.148-3.151c-0.275-0.974-0.733-1.841-1.378-2.597
			c-0.646-0.756-1.449-1.386-2.404-1.892c-0.955-0.505-2.021-0.842-3.198-1.009c-1.451-0.206-2.805-0.146-4.058,0.18
			s-2.413,0.839-3.473,1.539c-1.061,0.7-2.013,1.548-2.856,2.541c-0.845,0.994-1.573,2.059-2.186,3.193s-1.102,2.31-1.478,3.524
			c-0.376,1.214-0.63,2.377-0.763,3.49c-0.058,0.485-0.088,0.966-0.103,1.443c-0.458,0.242-0.922,0.493-1.364,0.711
			c-0.593,0.293-1.208,0.579-1.838,0.859c-0.631,0.28-1.239,0.524-1.829,0.73s-1.142,0.363-1.657,0.468
			c-0.516,0.106-0.967,0.139-1.353,0.098c-0.163-0.017-0.32-0.15-0.479-0.398c-0.159-0.248-0.302-0.576-0.425-0.98
			s-0.215-0.855-0.276-1.354c-0.062-0.499-0.068-1.008-0.015-1.525c0.018-0.167,0.025-0.251,0.043-0.418
			c0.102-0.392,0.23-0.792,0.376-1.199c0.146-0.408,0.284-0.789,0.426-1.147c0.141-0.357,0.288-0.689,0.435-0.996
			c0.146-0.306,0.28-0.556,0.404-0.743c1.125-1.688,2.357-3.416,3.658-5.174s2.611-3.543,3.931-5.354
			c1.318-1.811,2.607-3.636,3.865-5.478c1.259-1.842,2.405-3.691,3.435-5.547c1.029-1.856,1.905-3.72,2.621-5.594
			s1.199-3.744,1.443-5.608c0.109-0.833,0.144-1.661,0.105-2.483c-0.038-0.822-0.193-1.573-0.463-2.254
			c-0.27-0.68-0.687-1.253-1.256-1.719s-1.331-0.756-2.281-0.873c-1.394-0.171-2.811,0.043-4.244,0.642
			c-1.435,0.6-2.843,1.491-4.219,2.679s-2.715,2.616-4.013,4.281c-1.298,1.666-2.517,3.48-3.659,5.438
			c-1.143,1.958-2.188,4.018-3.136,6.179c-0.948,2.162-1.784,4.323-2.514,6.487s-1.323,4.277-1.78,6.335
			c-0.457,2.059-0.759,3.975-0.915,5.749c-0.117,1.338-0.157,2.644-0.135,3.923c-0.331,0.231-0.661,0.46-0.983,0.662
			c-0.832,0.521-1.652,0.989-2.461,1.404s-1.607,0.791-2.396,1.13c-0.789,0.339-2.316,1.074-2.331,1.056c0,0,1.245-1.722,1.691-2.55
			c0.445-0.828,0.813-1.667,1.098-2.518c0.284-0.851,0.502-1.726,0.657-2.627c0.155-0.901,0.275-1.86,0.356-2.877
			c0.097-1.216,0.014-2.396-0.254-3.542c-0.268-1.145-0.706-2.173-1.313-3.082c-0.608-0.909-1.381-1.659-2.314-2.248
			c-0.935-0.589-2.025-0.926-3.273-1.008c-0.974-0.064-1.98,0.297-3.014,1.085c-1.034,0.789-2.181,1.849-3.435,3.182
			c-0.194-0.143-0.293-0.213-0.487-0.356c1.563-1.618,3.153-3.34,4.768-5.164c1.614-1.823,3.101-3.694,4.46-5.615
			s2.5-3.857,3.418-5.816c0.917-1.958,1.454-3.883,1.599-5.778c0.104-1.356,0.114-2.64,0.029-3.85s-0.368-2.281-0.854-3.209
			s-1.22-1.689-2.203-2.28c-0.983-0.59-2.32-0.942-4.008-1.049c-1.51-0.096-2.947,0.37-4.306,1.395
			c-1.358,1.025-2.631,2.42-3.812,4.183c-1.181,1.763-2.268,3.789-3.256,6.076s-1.883,4.651-2.685,7.091
			c-0.803,2.44-1.505,4.855-2.108,7.244c-0.604,2.39-1.106,4.557-1.514,6.504c-0.612,2.92-1.102,5.571-1.475,7.951
			c-0.225,1.433-0.42,2.739-0.59,3.945c-0.57,0.38-1.138,0.743-1.698,1.069c-0.785,0.456-1.562,0.874-2.331,1.253
			c-0.77,0.38-2.258,1.192-2.272,1.175c0,0,1.154-1.784,1.557-2.635c0.402-0.85,0.723-1.708,0.963-2.572
			c0.24-0.864,0.414-1.748,0.522-2.656c0.108-0.908,0.179-1.873,0.207-2.893c0.034-1.22-0.11-2.393-0.437-3.523
			c-0.326-1.129-0.815-2.134-1.469-3.011c-0.654-0.876-1.464-1.585-2.426-2.125c-0.963-0.54-2.07-0.819-3.32-0.837
			c-0.975-0.014-1.96,0.398-2.951,1.239c-0.991,0.841-2.084,1.959-3.267,3.355c-0.201-0.133-0.301-0.199-0.502-0.332
			c1.478-1.696,2.972-3.497,4.489-5.401c1.518-1.904,2.907-3.85,4.165-5.839s2.297-3.981,3.111-5.984
			c0.814-2.002,1.252-3.953,1.299-5.854c0.033-1.36-0.024-2.642-0.172-3.846s-0.485-2.259-1.019-3.161s-1.306-1.624-2.317-2.163
			c-1.012-0.539-2.363-0.822-4.053-0.842c-1.512-0.018-2.924,0.521-4.227,1.614c-1.303,1.094-2.502,2.554-3.59,4.375
			c-1.088,1.822-2.067,3.902-2.936,6.237c-0.869,2.335-1.642,4.741-2.316,7.219c-0.676,2.478-1.25,4.927-1.729,7.344
			c-0.479,2.417-0.87,4.608-1.177,6.573c-0.461,2.948-0.813,5.621-1.062,8.016c-0.25,2.395-0.441,4.476-0.57,6.237
			c-0.039,0.522-0.101,1.092-0.165,1.663c-0.027,0.021-0.053,0.045-0.08,0.067c-0.906,0.728-1.804,1.353-2.688,1.873
			c-0.886,0.521-1.691,0.793-2.424,0.813c-0.631,0.018-1.057-0.234-1.276-0.758c-0.22-0.523-0.344-1.236-0.372-2.136
			c-0.028-0.919,0.043-1.957,0.214-3.113c0.17-1.156,0.394-2.344,0.67-3.562c0.275-1.219,0.573-2.437,0.895-3.657
			c0.321-1.219,0.626-2.359,0.913-3.417c0.289-1.058,0.527-2.003,0.719-2.839c0.191-0.834,0.281-1.473,0.271-1.913
			c-0.012-0.52-0.182-0.931-0.506-1.234c-0.325-0.302-0.932-0.442-1.821-0.418c-0.488,0.013-1.032,0.086-1.633,0.213
			c-0.601,0.128-1.177,0.315-1.73,0.563c-0.553,0.249-1.044,0.566-1.475,0.952c-0.43,0.386-0.72,0.847-0.839,1.367
			c-0.34,1.487-0.697,3.169-1.118,4.968c-0.298,1.274-0.562,2.554-0.828,3.833c-0.747,0.473-1.554,0.919-2.437,1.322
			c-0.976,0.445-1.928,0.691-2.859,0.739c-0.331,0.017-0.65-0.026-0.956-0.131c-0.307-0.104-0.586-0.294-0.84-0.571
			c-0.253-0.276-0.466-0.65-0.637-1.122c-0.171-0.471-0.277-1.067-0.317-1.787c-0.023-0.42-0.001-0.946,0.069-1.582
			c0.069-0.635,0.15-1.292,0.24-1.968c0.089-0.676,0.17-1.32,0.243-1.935c0.072-0.615,0.098-1.093,0.08-1.433
			c-0.023-0.439-0.128-0.83-0.316-1.17c-0.188-0.34-0.43-0.623-0.729-0.847s-0.642-0.391-1.031-0.499
			c-0.388-0.108-0.784-0.15-1.186-0.126c-1.164,0.068-2.172,0.427-3.021,1.072c-0.85,0.646-1.593,1.422-2.229,2.328
			c-0.636,0.906-1.18,1.871-1.632,2.896c-0.454,1.025-0.858,1.954-1.216,2.782c-0.138,0.01-0.207,0.016-0.344,0.026
			c-0.118-1.015-0.215-2.046-0.293-3.094s-0.144-1.939-0.199-2.678c-0.046-0.618-0.098-1.106-0.156-1.462
			c-0.059-0.357-0.17-0.625-0.332-0.803s-0.399-0.281-0.709-0.308c-0.31-0.026-0.74-0.018-1.29,0.025
			c-0.486,0.038-0.892,0.094-1.215,0.17c-0.324,0.077-0.59,0.199-0.799,0.367c-0.209,0.167-0.387,0.389-0.534,0.662
			c-0.148,0.273-0.285,0.645-0.42,1.089c-0.206,0.674-0.422,1.541-0.608,2.581c-0.186,1.04-0.361,2.18-0.526,3.419
			c-0.166,1.239-0.309,2.542-0.429,3.908s-0.209,2.704-0.268,4.015c-0.06,1.312-0.087,2.555-0.085,3.73
			c0.002,1.174,0.042,2.2,0.121,3.077c0.072,0.797,0.189,1.563,0.347,2.303c0.159,0.739,0.399,1.392,0.724,1.955
			c0.324,0.563,0.754,0.999,1.287,1.304s1.21,0.422,2.034,0.354c0.362-0.03,0.688-0.121,0.979-0.275
			c0.291-0.154,0.554-0.4,0.791-0.741c0.236-0.34,0.459-0.773,0.672-1.302c0.212-0.528,0.431-1.193,0.654-1.993
			c1.715-6.14,2.602-9.207,4.435-15.333c0.2-0.013,0.299-0.02,0.499-0.033c0.25,1.247,0.55,2.475,0.899,3.685
			c0.348,1.21,0.832,2.291,1.449,3.245c0.617,0.953,1.413,1.705,2.391,2.258c0.977,0.554,2.23,0.788,3.763,0.708
			c0.858-0.045,1.696-0.211,2.513-0.501c0.742-0.263,1.453-0.58,2.142-0.937c-0.168,1.439-0.232,2.725-0.183,3.835
			c0.04,0.899,0.172,1.72,0.398,2.461c0.226,0.74,0.572,1.361,1.039,1.862c0.466,0.501,1.062,0.882,1.789,1.144
			c0.727,0.262,1.612,0.373,2.659,0.337c1.168-0.04,2.396-0.29,3.685-0.747c1.289-0.456,2.553-1.01,3.794-1.666
			c0.873-0.462,1.688-0.961,2.479-1.477c0.994,0.459,9.938,5.838,19.072,0.765c0.918-0.51,2.772-0.626,4.051-0.995
			c1.277-0.368,2.511-0.808,3.697-1.321c0.227-0.098,0.448-0.216,0.673-0.321c-0.04,0.525-0.079,0.982,0.077,1.169
			c0,0,8.617,7.123,20.336,2.721c0.982-0.369,2.805-0.481,4.101-0.784c1.296-0.302,2.549-0.677,3.761-1.129
			c1.212-0.451,2.404-0.997,3.58-1.635c0.225-0.122,0.454-0.271,0.681-0.402c0.189,0.925,0.418,1.795,0.688,2.606
			c0.553,1.658,1.246,3.004,2.091,4.04s1.808,1.608,2.892,1.719c0.683,0.069,1.426,0.051,2.229-0.056
			c0.803-0.105,1.632-0.271,2.491-0.498c0.859-0.228,1.722-0.498,2.583-0.812c0.862-0.314,1.708-0.629,2.515-0.959
			c0.771-0.314,1.554-0.665,2.344-1.034c0.175,0.347,0.365,0.685,0.574,1.012c0.806,1.26,1.87,2.317,3.196,3.177
			c1.325,0.86,2.926,1.417,4.806,1.681c1.2,0.168,2.401,0.205,3.61,0.109s2.394-0.282,3.554-0.56
			c1.159-0.277,2.282-0.624,3.366-1.039s2.109-0.846,3.067-1.298c2.215-1.045,4.374-2.323,6.471-3.806
			C244.47,189.922,243.817,188.994,242.502,187.143z M208.472,166.132c0.504-1.989,1.111-3.913,1.824-5.769
			c0.714-1.856,1.489-3.596,2.329-5.216s1.694-3.025,2.563-4.217c0.869-1.191,1.713-2.116,2.529-2.777
			c0.816-0.661,1.541-0.955,2.175-0.88c0.175,0.021,0.255,0.238,0.239,0.648c-0.016,0.412-0.032,0.94-0.126,1.48
			c-0.298,1.707-1.1,3.683-2.056,5.695c-0.956,2.013-2.035,4.019-3.232,6.018s-2.439,3.937-3.719,5.811
			c-1.28,1.875-3.513,5.08-3.574,5.056C207.425,171.981,207.968,168.122,208.472,166.132z M147.088,163.537
			c0.209-1.07,0.456-2.252,0.743-3.543s0.607-2.655,0.963-4.096s0.739-2.855,1.154-4.245c0.414-1.389,0.844-2.718,1.285-3.987
			c0.441-1.268,0.895-2.386,1.361-3.354c0.467-0.967,0.94-1.732,1.419-2.298c0.478-0.566,0.938-0.847,1.378-0.842
			c0.375,0.004,0.67,0.118,0.888,0.341c0.217,0.223,0.386,0.475,0.503,0.757s0.19,0.552,0.22,0.812
			c0.029,0.261,0.046,0.435,0.042,0.512c-0.071,1.366-0.398,2.811-0.797,4.176c-0.398,1.366-0.892,2.711-1.479,4.035
			c-0.588,1.325-1.237,2.617-1.945,3.883s-1.425,2.501-2.155,3.709c-0.731,1.208-1.453,2.373-2.164,3.493
			c-0.712,1.121-1.904,3.249-1.918,3.244C146.586,166.134,146.878,164.607,147.088,163.537z M157.404,177.348
			c-0.118,0.909-0.285,1.827-0.505,2.754c-0.22,0.928-0.5,1.818-0.84,2.674c-0.34,0.856-0.738,1.617-1.195,2.282
			s-0.975,1.195-1.548,1.59c-0.574,0.396-1.205,0.59-1.897,0.587c-0.59-0.003-1.212-0.055-1.863-0.156s-1.273-0.211-1.863-0.331
			c-0.67-0.137-1.872-0.292-2.019-0.505c-0.131-0.19,0.12-1.455,0.204-2.25c0.073-0.695,0.178-1.506,0.297-2.417
			c0.119-0.911,0.272-1.909,0.453-2.988c0.225-1.339,0.572-2.488,1.05-3.438s1.028-1.73,1.655-2.34
			c0.627-0.609,1.309-1.057,2.043-1.344c0.733-0.286,1.467-0.426,2.2-0.42c0.816,0.007,1.49,0.119,2.021,0.335
			c0.531,0.217,0.947,0.498,1.245,0.843s0.501,0.742,0.608,1.194s0.157,0.929,0.149,1.429
			C157.589,175.606,157.522,176.439,157.404,177.348z M177.307,164.245c0.265-1.058,0.574-2.225,0.927-3.5
			c0.354-1.274,0.743-2.622,1.173-4.042s0.886-2.812,1.372-4.179c0.485-1.366,0.984-2.671,1.491-3.916
			c0.507-1.244,1.019-2.336,1.535-3.279c0.516-0.942,1.027-1.682,1.535-2.222c0.507-0.541,0.979-0.796,1.42-0.769
			c0.374,0.023,0.662,0.153,0.868,0.386c0.205,0.234,0.359,0.493,0.462,0.781s0.163,0.562,0.179,0.824
			c0.016,0.262,0.024,0.436,0.017,0.513c-0.14,1.359-0.541,2.786-1.01,4.129c-0.469,1.343-1.034,2.661-1.689,3.953
			c-0.655,1.293-1.37,2.551-2.143,3.778s-1.553,2.424-2.345,3.592c-0.793,1.168-1.575,2.295-2.344,3.377
			c-0.769,1.083-2.069,3.146-2.083,3.14C176.672,166.812,177.042,165.303,177.307,164.245z M187.228,176.081
			c-0.052,0.759-0.159,1.588-0.324,2.489c-0.165,0.902-0.381,1.809-0.648,2.724c-0.268,0.915-0.595,1.791-0.979,2.628
			s-0.819,1.576-1.311,2.216s-1.035,1.143-1.628,1.508c-0.595,0.365-1.235,0.527-1.927,0.488c-0.59-0.034-1.208-0.117-1.854-0.252
			s-1.26-0.276-1.842-0.426c-0.663-0.171-1.857-0.387-1.992-0.607c-0.121-0.197,0.197-1.449,0.321-2.238
			c0.109-0.691,0.255-1.495,0.422-2.398c0.167-0.903,0.368-1.892,0.604-2.961c0.293-1.325,0.7-2.455,1.226-3.38
			s1.116-1.676,1.774-2.252c0.658-0.576,1.364-0.988,2.112-1.236c0.747-0.248,1.486-0.35,2.219-0.305
			c0.815,0.049,1.482,0.195,2.002,0.439c0.52,0.244,0.921,0.547,1.201,0.907s0.462,0.767,0.546,1.224
			S187.261,175.583,187.228,176.081z M223.83,182.278c0.123-0.609,0.293-1.232,0.515-1.868c0.222-0.637,0.505-1.261,0.851-1.871
			c0.346-0.609,0.766-1.138,1.261-1.585c0.494-0.447,1.082-0.785,1.761-1.014c0.679-0.229,1.468-0.281,2.363-0.152
			c0.5,0.071,0.879,0.42,1.139,1.044c0.26,0.625,0.323,1.383,0.192,2.274c-0.093,0.634-0.447,1.249-1.061,1.847
			c-0.613,0.599-1.337,1.13-2.169,1.598c-0.833,0.468-1.71,0.827-2.633,1.073c-0.923,0.248-2.357,0.396-2.49,0.223
			C223.496,183.764,223.707,182.887,223.83,182.278z"/>
	</g>
	<g>
		<path d="M152.837,222.442c-0.186,0.177-0.38,0.346-0.581,0.509c-0.203,0.164-0.409,0.306-0.621,0.429
			c-0.211,0.124-0.419,0.225-0.622,0.305c-0.202,0.079-0.396,0.119-0.58,0.119c-0.177,0-0.326-0.15-0.449-0.449
			c-0.124-0.3-0.185-0.688-0.185-1.162c0-0.608,0.03-1.183,0.093-1.724c0.061-0.542,0.132-1.077,0.211-1.604
			c0.079-0.529,0.149-1.067,0.211-1.612c0.062-0.546,0.093-1.123,0.093-1.73c0-0.396-0.143-0.702-0.429-0.918
			c-0.287-0.216-0.637-0.323-1.051-0.323c-0.37,0-0.683,0.121-0.938,0.362c-0.256,0.243-0.511,0.54-0.766,0.892
			c-0.266,0.361-0.549,0.78-0.852,1.255c-0.305,0.476-0.591,0.929-0.859,1.36c-0.269,0.433-0.496,0.8-0.681,1.104
			s-0.286,0.469-0.304,0.495l-0.146-0.158c0-0.019,0.006-0.054,0.014-0.106c0.009-0.053,0.035-0.181,0.08-0.384
			c0.061-0.289,0.127-0.573,0.198-0.852c0.07-0.276,0.138-0.561,0.204-0.852c0.066-0.29,0.121-0.589,0.165-0.897
			s0.067-0.635,0.067-0.978c0-0.396-0.133-0.702-0.397-0.918c-0.264-0.216-0.581-0.323-0.95-0.323c-0.396,0-0.738,0.117-1.024,0.355
			s-0.557,0.538-0.812,0.898c-0.264,0.361-0.542,0.777-0.833,1.248c-0.289,0.472-0.561,0.923-0.811,1.354
			c-0.252,0.432-0.463,0.801-0.635,1.109s-0.267,0.476-0.285,0.502l-0.144-0.158c0.087-0.555,0.171-1.092,0.25-1.612
			c0.035-0.219,0.068-0.445,0.099-0.68c0.031-0.234,0.061-0.46,0.087-0.68c0.025-0.221,0.046-0.428,0.06-0.621
			c0.013-0.193,0.02-0.365,0.02-0.516c0-0.272-0.009-0.488-0.027-0.647c-0.018-0.158-0.072-0.279-0.164-0.362
			c-0.092-0.084-0.234-0.138-0.423-0.159c-0.189-0.022-0.452-0.032-0.786-0.032c-0.22,0-0.4,0.015-0.541,0.045
			c-0.142,0.032-0.262,0.093-0.364,0.185c-0.101,0.094-0.191,0.224-0.271,0.391c-0.078,0.168-0.162,0.393-0.251,0.673
			c-0.087,0.273-0.185,0.626-0.29,1.058c-0.071,0.289-0.141,0.604-0.209,0.933c-0.109-0.117-0.214-0.236-0.326-0.352
			c-0.551-0.564-1.145-1.063-1.783-1.499c-0.639-0.437-1.322-0.784-2.054-1.044c-0.731-0.26-1.515-0.389-2.351-0.389
			c-0.978,0-1.858,0.178-2.642,0.534c-0.784,0.356-1.446,0.846-1.988,1.467c-0.542,0.62-0.957,1.352-1.248,2.191
			c-0.165,0.476-0.27,0.978-0.341,1.493c-0.386,0.148-0.761,0.23-1.125,0.23c-0.141,0-0.275-0.026-0.403-0.079
			c-0.127-0.053-0.243-0.142-0.343-0.27c-0.101-0.128-0.183-0.298-0.244-0.509c-0.062-0.212-0.093-0.475-0.093-0.793
			c0-0.186,0.022-0.415,0.066-0.693c0.044-0.276,0.092-0.563,0.145-0.858c0.053-0.296,0.102-0.577,0.146-0.846
			c0.044-0.268,0.066-0.478,0.066-0.627c0-0.193-0.035-0.368-0.106-0.521c-0.07-0.154-0.165-0.285-0.284-0.391
			s-0.258-0.187-0.417-0.243c-0.159-0.058-0.321-0.086-0.488-0.086c-0.484,0-0.911,0.129-1.281,0.389s-0.7,0.579-0.991,0.958
			s-0.546,0.786-0.767,1.222c-0.22,0.436-0.418,0.831-0.594,1.182h-0.146c-0.018-0.448-0.026-0.904-0.026-1.366s0-0.856,0-1.183
			c0-0.272-0.007-0.488-0.02-0.647c-0.013-0.158-0.051-0.279-0.112-0.362c-0.062-0.084-0.156-0.138-0.284-0.159
			c-0.128-0.022-0.307-0.032-0.535-0.032c-0.202,0-0.372,0.01-0.509,0.032c-0.137,0.021-0.25,0.066-0.343,0.133
			c-0.093,0.064-0.174,0.155-0.245,0.27c-0.07,0.115-0.141,0.27-0.211,0.462c-0.115,0.291-0.229,0.661-0.344,1.111
			c-0.114,0.448-0.229,0.941-0.343,1.479c-0.001,0.005-0.002,0.011-0.003,0.016c-0.211,0.148-0.432,0.291-0.67,0.421
			c-0.458,0.255-1.022,0.486-1.691,0.692c-0.669,0.208-1.44,0.311-2.312,0.311c-0.088,0-0.163-0.011-0.225-0.032
			c-0.062-0.022-0.121-0.047-0.178-0.074c-0.057-0.025-0.121-0.05-0.191-0.071c-0.071-0.022-0.163-0.033-0.277-0.033
			c-0.097,0-0.19,0.013-0.277,0.04c-0.088,0.026-0.221,0.083-0.396,0.171l0.026-0.211c0.546-0.695,1.081-1.441,1.605-2.239
			c0.524-0.796,1.023-1.606,1.499-2.431c0.476-0.823,0.914-1.648,1.314-2.477c0.401-0.827,0.749-1.625,1.044-2.391
			s0.524-1.485,0.687-2.159c0.163-0.674,0.245-1.27,0.245-1.791c0-0.571-0.09-1.054-0.271-1.445
			c-0.181-0.393-0.408-0.707-0.681-0.944c-0.272-0.238-0.574-0.409-0.905-0.515c-0.33-0.107-0.645-0.159-0.944-0.159
			c-0.758,0-1.453,0.229-2.087,0.687c-0.634,0.458-1.208,1.081-1.724,1.869s-0.98,1.709-1.394,2.762
			c-0.414,1.051-0.781,2.172-1.103,3.361c-0.322,1.188-0.599,2.411-0.833,3.665c-0.233,1.255-0.436,2.479-0.607,3.672
			c-0.171,1.193-0.311,2.326-0.416,3.396s-0.19,2.014-0.251,2.833c-0.062,0.819-0.104,1.475-0.125,1.968
			c-0.022,0.494-0.033,0.762-0.033,0.806c0,0.537,0.02,1.095,0.06,1.672c0.039,0.575,0.108,1.142,0.205,1.696
			c0.097,0.556,0.231,1.081,0.403,1.579c0.171,0.498,0.385,0.934,0.64,1.308s0.564,0.671,0.925,0.891
			c0.361,0.222,0.784,0.331,1.268,0.331s0.918-0.101,1.301-0.304s0.722-0.469,1.017-0.799c0.295-0.33,0.552-0.71,0.772-1.137
			c0.22-0.426,0.407-0.869,0.562-1.327c0.154-0.457,0.28-0.911,0.376-1.36c0.097-0.449,0.172-0.859,0.225-1.229
			c0.053-0.371,0.09-0.683,0.112-0.938c0.022-0.256,0.033-0.423,0.033-0.503c0-0.678-0.09-1.349-0.271-2.014
			s-0.381-1.266-0.601-1.804c-0.256-0.625-0.542-1.228-0.859-1.81c0.616-0.025,1.237-0.087,1.862-0.184
			c0.537-0.089,1.123-0.221,1.757-0.398c0.291-0.08,0.575-0.18,0.855-0.29c-0.017,0.122-0.04,0.25-0.056,0.371
			c-0.075,0.571-0.134,1.115-0.178,1.631c-0.044,0.515-0.066,0.966-0.066,1.354c0,0.352,0.021,0.692,0.06,1.022
			s0.119,0.626,0.238,0.886c0.119,0.26,0.288,0.467,0.508,0.62c0.22,0.154,0.51,0.231,0.872,0.231c0.159,0,0.304-0.028,0.436-0.086
			c0.132-0.057,0.255-0.156,0.37-0.297c0.114-0.14,0.227-0.323,0.337-0.548c0.11-0.225,0.226-0.51,0.35-0.853l2.365-6.591h0.211
			c0.07,0.555,0.163,1.104,0.277,1.644c0.114,0.542,0.29,1.031,0.528,1.467c0.238,0.437,0.56,0.788,0.965,1.057
			c0.405,0.269,0.938,0.403,1.598,0.403c0.37,0,0.733-0.056,1.09-0.165c0.18-0.056,0.347-0.138,0.521-0.208
			c0.029,0.164,0.048,0.329,0.087,0.491c0.163,0.688,0.42,1.304,0.772,1.85c0.352,0.547,0.803,0.989,1.354,1.328
			c0.55,0.339,1.212,0.508,1.988,0.508c0.537,0,1.043-0.092,1.519-0.277c0.475-0.185,0.914-0.436,1.315-0.752
			c0.4-0.317,0.757-0.691,1.069-1.124c0.312-0.431,0.577-0.894,0.792-1.386c0.216-0.494,0.382-1.005,0.496-1.533
			s0.171-1.052,0.171-1.571c0-0.521-0.063-1.063-0.191-1.632c-0.127-0.568-0.318-1.107-0.574-1.617l0.105-0.146
			c0.317,0.211,0.696,0.473,1.137,0.786c0.439,0.312,0.887,0.644,1.34,0.996c0.33,0.256,0.631,0.521,0.935,0.785
			c-0.012,0.069-0.024,0.131-0.036,0.2c-0.093,0.567-0.174,1.124-0.244,1.67c-0.07,0.547-0.127,1.066-0.172,1.559
			c-0.045,0.494-0.066,0.921-0.066,1.282c0,0.352,0.021,0.692,0.061,1.022c0.039,0.33,0.117,0.626,0.236,0.886
			s0.289,0.467,0.51,0.62c0.22,0.154,0.51,0.231,0.871,0.231c0.281,0,0.539-0.063,0.773-0.191c0.232-0.127,0.438-0.372,0.613-0.732
			c0.608-1.225,1.104-2.243,1.487-3.059c0.382-0.814,0.697-1.478,0.944-1.987c0.246-0.512,0.438-0.899,0.573-1.162
			c0.138-0.266,0.259-0.463,0.364-0.596h0.197c-0.141,0.811-0.26,1.568-0.356,2.272c-0.044,0.3-0.087,0.601-0.132,0.905
			c-0.045,0.304-0.084,0.593-0.119,0.864c-0.035,0.273-0.062,0.516-0.078,0.728c-0.019,0.211-0.027,0.374-0.027,0.488
			c0,0.273,0.016,0.555,0.047,0.845c0.031,0.291,0.092,0.557,0.185,0.8c0.093,0.242,0.222,0.44,0.39,0.594
			c0.168,0.154,0.393,0.231,0.674,0.231c0.369,0,0.695-0.063,0.979-0.191c0.281-0.127,0.536-0.376,0.765-0.746l2.681-6.828h0.199
			c-0.071,0.634-0.126,1.261-0.166,1.881c-0.039,0.621-0.059,1.209-0.059,1.764c0,0.59,0.028,1.137,0.086,1.638
			c0.057,0.503,0.151,0.938,0.284,1.309c0.132,0.37,0.306,0.658,0.521,0.864c0.216,0.207,0.483,0.311,0.8,0.311
			c0.642,0,1.219-0.086,1.73-0.258c0.51-0.171,0.979-0.392,1.405-0.659c0.428-0.269,0.834-0.569,1.217-0.899
			c0.382-0.33,0.768-0.648,1.155-0.957l-0.226-3.117C153.695,221.58,153.269,222.038,152.837,222.442z M107.226,214.604
			c0.062-0.568,0.167-1.227,0.317-1.975s0.37-1.605,0.661-2.569c0.291-0.965,0.691-2.081,1.202-3.35
			c0.167-0.431,0.356-0.755,0.568-0.97c0.211-0.216,0.519-0.323,0.924-0.323c0.229,0,0.41,0.107,0.542,0.323
			c0.132,0.215,0.198,0.557,0.198,1.023c0,0.335-0.138,0.824-0.416,1.466c-0.277,0.644-0.636,1.385-1.077,2.226
			c-0.44,0.842-0.933,1.753-1.479,2.735c-0.546,0.98-1.087,1.979-1.625,2.991C107.103,215.697,107.164,215.171,107.226,214.604z
			 M107.761,229.146c-0.031,0.497-0.092,0.955-0.186,1.374c-0.092,0.418-0.229,0.763-0.409,1.037
			c-0.18,0.272-0.421,0.409-0.719,0.409c-0.098,0-0.192-0.059-0.285-0.179c-0.092-0.118-0.176-0.376-0.25-0.772
			c-0.075-0.396-0.137-0.978-0.185-1.744c-0.049-0.765-0.073-1.797-0.073-3.091c0-0.185,0.009-0.438,0.027-0.76
			c0.018-0.321,0.04-0.67,0.066-1.043c0.026-0.375,0.057-0.755,0.092-1.143s0.073-0.737,0.112-1.05s0.081-0.568,0.125-0.766
			c0.044-0.199,0.084-0.298,0.119-0.298c0.105,0,0.22,0.118,0.344,0.356c0.123,0.237,0.244,0.548,0.363,0.932
			c0.119,0.383,0.233,0.817,0.344,1.3c0.11,0.484,0.207,0.972,0.291,1.461c0.083,0.488,0.15,0.957,0.198,1.406
			c0.049,0.449,0.073,0.827,0.073,1.137C107.807,228.171,107.792,228.648,107.761,229.146z M130.573,221.287
			c-0.127,0.56-0.297,1.07-0.508,1.533c-0.211,0.461-0.458,0.844-0.74,1.148c-0.282,0.304-0.572,0.456-0.872,0.456
			c-0.344,0-0.639-0.074-0.885-0.219c-0.247-0.146-0.445-0.339-0.594-0.581c-0.15-0.242-0.26-0.526-0.331-0.853
			c-0.07-0.325-0.105-0.674-0.105-1.043c0-0.536,0.07-1.097,0.211-1.677c0.141-0.582,0.334-1.112,0.581-1.593
			s0.532-0.874,0.858-1.182c0.326-0.309,0.669-0.463,1.03-0.463c0.273,0,0.506,0.075,0.7,0.225c0.193,0.149,0.352,0.353,0.476,0.607
			c0.124,0.256,0.216,0.557,0.277,0.905c0.062,0.348,0.093,0.725,0.093,1.129C130.765,220.193,130.7,220.728,130.573,221.287z"/>
		<path d="M193.488,220.95c-0.343,0.335-0.762,0.688-1.255,1.062c-0.492,0.375-1.017,0.721-1.571,1.038s-1.125,0.58-1.71,0.792
			c-0.586,0.212-1.143,0.317-1.672,0.317c-0.167,0-0.324-0.018-0.468-0.053c-0.146-0.035-0.285-0.097-0.416-0.186
			c-0.133-0.088-0.264-0.212-0.392-0.37c-0.127-0.158-0.257-0.356-0.389-0.594c0.767-0.212,1.477-0.506,2.133-0.885
			s1.223-0.81,1.698-1.295c0.476-0.484,0.847-1,1.115-1.546c0.269-0.545,0.403-1.091,0.403-1.638c0-0.502-0.089-0.955-0.265-1.36
			s-0.42-0.751-0.732-1.037s-0.68-0.508-1.103-0.667c-0.423-0.158-0.882-0.238-1.374-0.238c-0.608,0-1.16,0.109-1.658,0.324
			c-0.498,0.216-0.947,0.506-1.347,0.872c-0.401,0.365-0.752,0.788-1.051,1.268c-0.3,0.481-0.548,0.984-0.746,1.513
			s-0.347,1.067-0.442,1.618c-0.097,0.551-0.146,1.073-0.146,1.566c0,0.168,0.024,0.327,0.035,0.492
			c-0.078,0.076-0.154,0.16-0.233,0.233c-0.203,0.193-0.418,0.381-0.647,0.561c-0.228,0.181-0.461,0.342-0.699,0.482
			c-0.238,0.142-0.476,0.256-0.714,0.345c-0.237,0.087-0.462,0.132-0.673,0.132c-0.167,0-0.304-0.106-0.409-0.318
			c-0.105-0.211-0.159-0.493-0.159-0.846c0-0.643,0.081-1.258,0.245-1.848c0.162-0.59,0.343-1.17,0.541-1.737
			c0.198-0.568,0.381-1.136,0.548-1.704s0.251-1.152,0.251-1.751c0-0.299-0.039-0.543-0.119-0.732
			c-0.079-0.189-0.178-0.337-0.297-0.443c-0.119-0.105-0.245-0.177-0.376-0.218c-0.132-0.038-0.251-0.059-0.356-0.059
			c-0.424,0-0.875,0.156-1.354,0.468c-0.479,0.313-0.962,0.706-1.446,1.176c-0.485,0.472-0.951,0.98-1.4,1.526
			c-0.45,0.547-0.854,1.057-1.215,1.532l-0.265-0.185c0.299-0.555,0.646-1.197,1.037-1.929s0.791-1.509,1.195-2.332
			c0.405-0.823,0.802-1.672,1.188-2.549c0.388-0.875,0.733-1.741,1.037-2.597c0.305-0.853,0.548-1.677,0.734-2.469
			c0.185-0.792,0.276-1.515,0.276-2.166c0-0.44-0.035-0.84-0.105-1.196s-0.196-0.662-0.378-0.918
			c-0.18-0.256-0.422-0.453-0.726-0.595c-0.304-0.14-0.692-0.211-1.169-0.211c-0.915,0-1.726,0.255-2.43,0.767
			c-0.705,0.51-1.319,1.199-1.843,2.066c-0.524,0.868-0.97,1.873-1.334,3.012c-0.366,1.141-0.671,2.339-0.912,3.594
			c-0.19,0.988-0.337,1.989-0.46,2.998c-0.005-0.233-0.04-0.432-0.114-0.589c-0.08-0.165-0.207-0.254-0.384-0.263
			c-0.149-0.009-0.339-0.019-0.568-0.026c-0.228-0.009-0.475-0.018-0.738-0.027c-0.265-0.009-0.538-0.021-0.819-0.032
			c-0.282-0.014-0.544-0.024-0.786-0.034c-0.242-0.008-0.456-0.015-0.641-0.019c-0.186-0.005-0.317-0.011-0.396-0.021
			c0.317-0.501,0.619-1.008,0.905-1.519c0.285-0.512,0.535-1.016,0.746-1.512c0.212-0.498,0.378-0.987,0.502-1.467
			c0.123-0.48,0.185-0.936,0.185-1.367c0-0.511-0.06-1.002-0.178-1.473c-0.119-0.472-0.289-0.883-0.509-1.235
			c-0.221-0.353-0.487-0.634-0.8-0.846c-0.312-0.211-0.658-0.317-1.036-0.317c-0.591,0-1.154,0.263-1.69,0.786
			c-0.538,0.524-1.032,1.22-1.487,2.087c-0.453,0.868-0.862,1.857-1.228,2.973c-0.366,1.113-0.667,2.265-0.905,3.453
			c-0.088,0.019-0.248,0.025-0.481,0.021c-0.234-0.003-0.498-0.011-0.793-0.021c-0.295-0.008-0.603-0.01-0.925-0.006
			c-0.321,0.004-0.615,0.029-0.885,0.072c-0.269,0.045-0.488,0.113-0.661,0.205c-0.171,0.092-0.257,0.227-0.257,0.403
			c0,0.079,0.005,0.174,0.014,0.283c0.009,0.11,0.038,0.216,0.092,0.317c0.053,0.102,0.137,0.189,0.251,0.265
			s0.278,0.126,0.488,0.152c0.477,0.053,0.84,0.096,1.091,0.132c0.25,0.034,0.457,0.068,0.62,0.098
			c0.163,0.032,0.317,0.062,0.463,0.094c0.145,0.03,0.35,0.063,0.614,0.099c-0.079,0.591-0.142,1.185-0.185,1.783
			c-0.045,0.599-0.066,1.162-0.066,1.691c0,1.356,0.085,2.575,0.258,3.658c0.171,1.083,0.429,2.006,0.772,2.768
			c0.343,0.762,0.771,1.345,1.281,1.75c0.51,0.405,1.101,0.607,1.77,0.607c0.326,0,0.689-0.062,1.09-0.184
			c0.401-0.124,0.858-0.31,1.374-0.556c0.515-0.246,1.103-0.556,1.764-0.924c0.51-0.287,1.094-0.621,1.715-0.98
			c0.005,0.263,0.009,0.527,0.028,0.781c0.026,0.353,0.083,0.667,0.172,0.945c0.088,0.276,0.215,0.499,0.383,0.666
			s0.396,0.251,0.688,0.251c0.22,0,0.399-0.048,0.542-0.146c0.139-0.097,0.27-0.239,0.389-0.429s0.24-0.432,0.362-0.727
			c0.124-0.295,0.282-0.641,0.477-1.037c0.388-0.801,0.821-1.578,1.302-2.331c0.479-0.753,0.943-1.432,1.393-2.034
			c0.45-0.604,0.852-1.104,1.209-1.499c0.355-0.397,0.609-0.643,0.759-0.739l0.278,0.038c-0.027,0.027-0.084,0.124-0.173,0.292
			c-0.087,0.167-0.191,0.383-0.31,0.646c-0.12,0.265-0.247,0.564-0.383,0.898c-0.138,0.335-0.26,0.679-0.371,1.03
			c-0.108,0.353-0.202,0.702-0.276,1.051c-0.075,0.347-0.112,0.662-0.112,0.943c0,0.424,0.057,0.872,0.171,1.347
			c0.115,0.478,0.286,0.914,0.517,1.315c0.229,0.4,0.521,0.73,0.877,0.99c0.357,0.26,0.778,0.39,1.263,0.39
			c0.316,0,0.648-0.053,0.996-0.158c0.349-0.106,0.696-0.239,1.045-0.403c0.347-0.162,0.693-0.35,1.036-0.562
			c0.344-0.211,0.663-0.42,0.958-0.627c0.279-0.196,0.531-0.381,0.763-0.558c0.132,0.226,0.268,0.449,0.432,0.65
			c0.414,0.507,0.932,0.909,1.553,1.208c0.621,0.301,1.345,0.449,2.172,0.449c0.529,0,1.051-0.059,1.566-0.178
			c0.515-0.118,1.013-0.277,1.492-0.476s0.938-0.425,1.374-0.681s0.843-0.516,1.223-0.779c0.871-0.617,1.693-1.324,2.469-2.126
			L193.488,220.95z M162.573,210.488c0.189-0.756,0.392-1.451,0.607-2.08s0.441-1.146,0.674-1.553
			c0.233-0.404,0.465-0.606,0.694-0.606c0.167,0,0.297,0.034,0.389,0.105c0.093,0.07,0.161,0.158,0.205,0.264
			s0.072,0.218,0.086,0.337c0.013,0.119,0.02,0.227,0.02,0.324c0,0.281-0.075,0.643-0.225,1.082
			c-0.149,0.441-0.339,0.914-0.567,1.421c-0.229,0.507-0.487,1.021-0.773,1.545s-0.561,1.011-0.826,1.46
			c-0.14-0.018-0.276-0.033-0.408-0.047c-0.133-0.013-0.264-0.028-0.396-0.046C162.21,211.981,162.384,211.246,162.573,210.488z
			 M167.566,222.265c-0.356,0.252-0.719,0.481-1.084,0.693c-0.365,0.211-0.713,0.395-1.043,0.548
			c-0.33,0.154-0.634,0.276-0.911,0.363c-0.278,0.088-0.509,0.133-0.693,0.133c-0.3,0-0.57-0.047-0.812-0.139
			c-0.243-0.093-0.447-0.243-0.614-0.45c-0.167-0.206-0.296-0.473-0.383-0.799c-0.088-0.325-0.133-0.727-0.133-1.202
			c0-0.184,0.002-0.387,0.007-0.607c0.005-0.22,0.011-0.448,0.02-0.688c0.009-0.237,0.019-0.478,0.027-0.719
			c0.008-0.243,0.017-0.478,0.026-0.708c0.025-0.527,0.058-1.064,0.093-1.61c0.22-0.272,0.46-0.58,0.72-0.919
			s0.516-0.684,0.772-1.036h5.072c0.211,0,0.405-0.097,0.581-0.291c0.112-0.123,0.176-0.279,0.216-0.449
			c-0.018,0.154-0.042,0.307-0.058,0.462c-0.131,1.287-0.233,2.511-0.304,3.673c-0.057,0.94-0.091,1.796-0.11,2.601
			c-0.124,0.116-0.23,0.237-0.365,0.352C168.264,221.75,167.923,222.013,167.566,222.265z M172.592,215.772
			c-0.281,0.651-0.541,1.255-0.778,1.81c0.079-1.005,0.193-2.03,0.343-3.078c0.062-0.448,0.135-0.923,0.218-1.42
			c0.084-0.498,0.177-1.004,0.278-1.519c0.101-0.516,0.215-1.034,0.343-1.554c0.127-0.518,0.267-1.021,0.417-1.504
			c0.607-1.428,1.135-2.516,1.584-3.264c0.45-0.748,0.789-1.123,1.018-1.123c0.176,0,0.265,0.336,0.265,1.004
			c0,0.441-0.117,1.124-0.351,2.048c-0.233,0.925-0.609,2.062-1.129,3.408c-0.159,0.396-0.359,0.878-0.603,1.446
			c-0.241,0.568-0.499,1.171-0.772,1.811C173.152,214.476,172.874,215.12,172.592,215.772z M185.339,220.053
			c0.018-0.274,0.055-0.555,0.112-0.847c0.058-0.29,0.141-0.578,0.25-0.864c0.111-0.286,0.256-0.542,0.437-0.766
			c0.181-0.226,0.406-0.408,0.675-0.549c0.268-0.141,0.592-0.212,0.97-0.212c0.212,0,0.39,0.128,0.536,0.383
			c0.145,0.257,0.217,0.582,0.217,0.979c0,0.281-0.11,0.572-0.33,0.871c-0.221,0.3-0.491,0.577-0.812,0.832
			c-0.32,0.256-0.669,0.465-1.043,0.628s-0.72,0.244-1.037,0.244C185.312,220.559,185.321,220.325,185.339,220.053z"/>
	</g>
	<g>
		<path d="M121.372,254.513c1.299,0.048,2.418-0.102,3.359-0.448c0.94-0.346,1.726-0.813,2.353-1.402s1.091-1.27,1.391-2.039
			c0.299-0.769,0.458-1.563,0.48-2.389c0.023-0.897-0.127-1.681-0.449-2.345s-0.766-1.203-1.332-1.62
			c-0.566-0.417-1.231-0.734-2.001-0.953s-1.594-0.344-2.47-0.375c-1.402-0.05-2.58,0.115-3.537,0.501
			c-0.957,0.387-1.732,0.875-2.324,1.468c-0.593,0.594-1.032,1.234-1.316,1.926c-0.285,0.691-0.441,1.316-0.467,1.874
			c-0.078,1.673,0.391,3.04,1.413,4.093C117.495,253.856,119.13,254.43,121.372,254.513z"/>
		<path d="M251.085,270.209c-0.881,1.065-1.981,2.219-3.303,3.453c-1.322,1.235-2.755,2.4-4.297,3.496s-3.153,2.048-4.838,2.856
			c-1.686,0.808-3.33,1.311-4.922,1.508c-0.504,0.062-0.979,0.071-1.429,0.028s-0.889-0.16-1.315-0.354
			c-0.426-0.192-0.858-0.484-1.293-0.873c-0.436-0.388-1.403-1.344-1.363-1.488c0.062-0.226,4.265-1.915,6.095-3.197
			c1.829-1.282,3.362-2.683,4.599-4.194c1.236-1.511,2.145-3.068,2.731-4.669c0.587-1.6,0.772-3.143,0.563-4.634
			c-0.191-1.37-0.624-2.573-1.29-3.607c-0.667-1.034-1.506-1.879-2.52-2.538c-1.015-0.658-2.163-1.124-3.445-1.397
			c-1.281-0.273-2.637-0.316-4.065-0.139c-1.76,0.22-3.323,0.706-4.698,1.466c-1.375,0.761-2.587,1.706-3.643,2.837
			c-1.057,1.132-1.953,2.4-2.689,3.81s-1.322,2.867-1.756,4.376c-0.434,1.51-0.717,3.033-0.851,4.571
			c-0.134,1.539-0.133,2.985,0.004,4.337c0.061,0.594,0.154,1.173,0.268,1.744c-0.516,0.415-1.027,0.82-1.531,1.2
			c-0.67,0.505-1.367,1.005-2.094,1.501c-0.728,0.497-1.441,0.943-2.141,1.337s-1.363,0.719-1.996,0.971s-1.207,0.397-1.711,0.441
			c-0.213,0.019-0.449-0.102-0.713-0.359c-0.263-0.257-0.52-0.612-0.771-1.065s-0.477-0.972-0.672-1.552s-0.322-1.183-0.375-1.812
			c-0.018-0.203-0.025-0.306-0.043-0.509c0.038-0.49,0.104-0.997,0.193-1.516s0.178-1.005,0.271-1.464
			c0.093-0.458,0.194-0.888,0.306-1.287c0.11-0.399,0.219-0.728,0.329-0.979c1-2.274,2.1-4.624,3.249-7.033s2.277-4.857,3.379-7.343
			s2.137-4.986,3.105-7.503c0.969-2.516,1.777-5.012,2.435-7.488c0.657-2.476,1.117-4.922,1.388-7.333
			c0.27-2.411,0.271-4.748,0.015-7.016c-0.114-1.013-0.307-2-0.575-2.959c-0.27-0.959-0.642-1.803-1.117-2.531
			s-1.076-1.288-1.806-1.685c-0.73-0.396-1.62-0.539-2.662-0.43c-1.527,0.16-2.98,0.771-4.373,1.834s-2.701,2.459-3.924,4.191
			c-1.224,1.732-2.37,3.734-3.445,6.006s-2.056,4.694-2.943,7.272c-0.887,2.579-1.664,5.258-2.331,8.033
			c-0.667,2.776-1.227,5.529-1.672,8.262c-0.446,2.733-0.752,5.378-0.911,7.931c-0.16,2.554-0.169,4.909-0.021,7.064
			c0.194,2.809,0.636,5.471,1.33,7.988c0.138,0.497,0.287,0.972,0.438,1.443c-1.23,1.02-2.593,1.946-4.109,2.765
			c-1.741,0.939-3.706,1.715-5.893,2.323c-2.187,0.609-4.633,0.979-7.33,1.103c-0.11-0.301-0.166-0.453-0.276-0.754
			c2.357-1.078,4.37-2.282,6.043-3.601s3.028-2.714,4.065-4.188c1.037-1.473,1.766-2.994,2.192-4.566
			c0.427-1.571,0.585-3.182,0.479-4.829c-0.134-2.059-0.549-3.775-1.233-5.154s-1.568-2.486-2.65-3.32s-2.313-1.415-3.695-1.741
			c-1.382-0.325-2.85-0.448-4.413-0.373c-2.103,0.102-3.885,0.544-5.345,1.332s-2.7,1.815-3.728,3.09s-1.86,2.757-2.496,4.452
			s-1.158,3.485-1.562,5.366c-0.405,1.882-0.735,3.82-0.985,5.817c-0.054,0.432-0.094,0.886-0.13,1.345
			c-0.73,0.72-1.495,1.421-2.325,2.086c-1.42,1.138-3.019,2.134-4.803,2.988s-3.785,1.536-5.997,2.039
			c-2.213,0.503-4.672,0.754-7.371,0.747c-0.096-0.306-0.144-0.458-0.238-0.764c2.406-0.963,4.474-2.069,6.207-3.306
			s3.152-2.565,4.259-3.987c1.106-1.421,1.906-2.908,2.408-4.458c0.501-1.549,0.736-3.148,0.709-4.799
			c-0.034-2.062-0.364-3.799-0.981-5.209s-1.447-2.56-2.487-3.444c-1.04-0.886-2.24-1.523-3.604-1.915
			c-1.364-0.392-2.824-0.584-4.39-0.584c-2.104,0-3.903,0.355-5.398,1.072c-1.496,0.717-2.788,1.683-3.875,2.906
			c-1.088,1.224-1.993,2.664-2.71,4.327s-1.322,3.427-1.816,5.286c-0.495,1.859-0.916,3.778-1.262,5.761
			c-0.061,0.348-0.112,0.713-0.162,1.082c0.005-0.257,0.011-0.513,0.017-0.793c-0.885,0.637-1.909,1.401-3.071,2.294
			c-1.163,0.893-2.355,1.75-3.577,2.573c-1.223,0.824-2.435,1.521-3.629,2.085c-1.195,0.564-2.274,0.826-3.236,0.787
			c-0.828-0.033-1.362-0.379-1.601-1.032s-0.334-1.529-0.287-2.62c0.048-1.114,0.234-2.361,0.559-3.745
			c0.323-1.383,0.714-2.798,1.169-4.249c0.454-1.451,0.932-2.901,1.434-4.352c0.501-1.449,0.97-2.805,1.406-4.063
			c0.437-1.259,0.803-2.385,1.098-3.383c0.294-0.997,0.45-1.762,0.469-2.296c0.022-0.631-0.152-1.141-0.524-1.531
			c-0.371-0.39-1.094-0.605-2.17-0.648c-0.59-0.023-1.255,0.02-1.992,0.121c-0.737,0.103-1.451,0.276-2.144,0.523
			c-0.693,0.248-1.32,0.581-1.882,1.004s-0.96,0.948-1.16,1.563c-0.572,1.762-1.192,3.757-1.915,5.882
			c-0.724,2.125-1.421,4.258-2.091,6.396c-0.597,1.905-1.116,3.748-1.577,5.543c-0.173,0.131-0.341,0.26-0.52,0.393
			c-1.29,0.959-2.647,1.835-4.07,2.633c-1.424,0.798-2.87,1.439-4.334,1.923c-1.465,0.483-2.839,0.677-4.118,0.581
			c-0.906-0.067-1.673-0.296-2.299-0.686s-1.136-0.881-1.53-1.473c-0.395-0.592-0.688-1.247-0.883-1.97
			c-0.195-0.722-0.327-1.459-0.397-2.208c-0.071-0.749-0.097-1.479-0.078-2.196c0.02-0.717,0.055-1.366,0.103-1.946
			c0.148-1.79,0.431-3.684,0.846-5.683c0.414-1.999,0.887-4.031,1.419-6.095c0.531-2.062,1.098-4.137,1.702-6.219
			c0.603-2.082,1.158-4.103,1.667-6.06c0.509-1.956,0.951-3.812,1.326-5.573c0.374-1.761,0.614-3.369,0.724-4.821
			c0.094-1.234,0.04-2.503-0.16-3.809c-0.2-1.305-0.585-2.517-1.156-3.632c-0.57-1.115-1.333-2.054-2.285-2.814
			c-0.953-0.76-2.137-1.199-3.56-1.324c-1.227-0.108-2.514-0.042-3.861,0.197c-1.347,0.238-2.772,0.759-4.282,1.559
			c-1.509,0.8-3.097,1.947-4.77,3.439c-1.674,1.493-3.46,3.445-5.366,5.854s-3.924,5.332-6.063,8.775
			c-2.14,3.443-4.408,7.509-6.822,12.188c-0.251-0.121-0.379-0.181-0.63-0.302c0.907-1.938,1.799-3.89,2.673-5.857
			s1.674-3.904,2.401-5.808c0.727-1.902,1.338-3.751,1.841-5.548c0.502-1.796,0.851-3.49,1.046-5.08s0.211-3.055,0.05-4.396
			s-0.554-2.521-1.175-3.541c-0.622-1.02-1.493-1.864-2.614-2.537c-1.122-0.673-2.552-1.124-4.29-1.363
			c-1.151-0.158-2.361-0.06-3.636,0.297c-1.276,0.356-2.582,1.03-3.921,2.021c-1.34,0.991-2.679,2.35-4.02,4.071
			c-1.341,1.722-2.498,4.815-3.89,6.448c-0.068,0.079-0.185,0.192-0.208,0.336c-0.042,0.264,0.012,0.574,0.161,0.93
			c0.149,0.355,0.352,0.699,0.607,1.034c0.256,0.335,0.543,0.632,0.864,0.89c0.319,0.259,0.642,0.413,0.969,0.463
			c0.401,0.062,0.778,0.04,1.129-0.066c0.35-0.106,0.623-0.352,0.832-0.666c0.756-1.133,1.734-2.205,2.68-3.17
			c0.946-0.965,1.854-1.794,2.729-2.49c0.874-0.695,1.696-1.223,2.468-1.58c0.771-0.356,1.403-0.502,1.899-0.434
			c0.372,0.051,0.635,0.197,0.791,0.439c0.157,0.241,0.253,0.519,0.287,0.829c0.034,0.312,0.027,0.635-0.019,0.971
			c-0.046,0.337-0.077,0.622-0.113,0.829c-0.399,2.312-1.009,4.615-1.524,6.7c-0.516,2.085-1.063,4.111-1.645,6.076
			c-0.581,1.966-1.196,3.916-1.844,5.848c-0.648,1.932-1.353,3.921-2.116,5.97c-0.763,2.049-1.593,4.197-2.488,6.447
			s-1.862,4.715-2.929,7.337c-0.329,0.808-0.613,1.616-0.838,2.417c-0.226,0.801-0.414,1.705-0.562,2.713
			c-0.142,0.961-0.122,1.84,0.061,2.64c0.182,0.8,0.49,1.495,0.923,2.085c0.432,0.59,0.958,1.063,1.578,1.421
			c0.618,0.357,1.275,0.585,1.972,0.682c1.206,0.168,2.334,0.048,3.385-0.362c1.05-0.409,2.212-1.25,2.955-2.417
			c1.269-1.994,2.469-4.733,3.818-7.327c1.348-2.593,2.725-5.227,4.125-7.904c1.401-2.677,2.825-5.34,4.274-7.992
			s2.884-5.176,4.303-7.568c1.418-2.392,2.812-4.616,4.183-6.679c1.371-2.062,2.694-3.835,3.972-5.314
			c1.277-1.479,2.487-2.621,3.635-3.424s2.215-1.158,3.21-1.066c0.597,0.056,1.052,0.306,1.364,0.748
			c0.311,0.442,0.523,0.947,0.637,1.518c0.112,0.571,0.165,1.16,0.162,1.769c-0.004,0.609-0.021,1.094-0.053,1.457
			c-0.122,1.378-0.408,2.798-0.856,4.257c-0.449,1.458-0.971,2.958-1.573,4.499s-1.263,3.119-1.981,4.733
			c-0.719,1.615-1.394,3.276-2.025,4.983c-0.631,1.708-1.2,3.451-1.701,5.23c-0.501,1.78-0.848,3.611-1.033,5.495
			c-0.14,1.425-0.198,2.906-0.175,4.445c0.022,1.538,0.167,3.065,0.436,4.578c0.269,1.514,0.687,2.96,1.257,4.342
			c0.569,1.383,1.326,2.619,2.269,3.703c0.943,1.085,2.104,1.98,3.481,2.683c1.377,0.702,3.012,1.129,4.9,1.276
			c1.456,0.114,2.944,0.061,4.464-0.158c1.52-0.219,3.039-0.569,4.558-1.053c1.518-0.483,3.008-1.078,4.464-1.781
			c0.734-0.354,1.448-0.728,2.144-1.12c0.218,0.646,0.535,1.219,0.954,1.718c0.556,0.663,1.303,1.195,2.241,1.597
			c0.937,0.401,2.108,0.637,3.51,0.703c1.562,0.074,3.225-0.108,4.982-0.548c1.757-0.438,3.483-1.012,5.175-1.721
			c1.69-0.709,3.264-1.503,4.72-2.375c0.109-0.065,0.208-0.129,0.315-0.194c-1.328,1.78-2.81,3.605-3.87,5.283
			c-0.825,1.307-1.634,2.661-2.429,4.055c-0.794,1.394-1.518,2.76-2.169,4.107c-0.651,1.348-1.182,2.641-1.587,3.875
			s-0.629,2.349-0.669,3.344c-0.069,1.722-0.003,3.361,0.199,4.911s0.596,2.914,1.179,4.09c0.584,1.175,1.396,2.121,2.436,2.837
			c1.041,0.715,2.362,1.097,3.959,1.143c1.99,0.058,3.93-0.584,5.804-1.928c1.875-1.345,3.542-3.284,4.994-5.812
			s2.61-5.59,3.481-9.185s1.316-7.604,1.354-12.021c0.002-0.262,0.004-0.392,0.006-0.653c2.23,0.31,4.001,0.562,5.307,0.77
			c1.307,0.207,2.313,0.368,3.016,0.487c0.701,0.119,1.191,0.2,1.475,0.247s0.521,0.069,0.711,0.068
			c1.564-0.01,3.146-0.223,4.744-0.644c1.392-0.366,2.714-0.857,3.985-1.434c-0.451,0.679-0.881,1.349-1.245,1.991
			c-0.761,1.345-1.505,2.738-2.232,4.168c-0.727,1.43-1.382,2.831-1.968,4.209c-0.585,1.378-1.053,2.694-1.398,3.947
			c-0.346,1.252-0.515,2.374-0.507,3.369c0.014,1.723,0.159,3.357,0.436,4.896s0.733,2.881,1.373,4.027
			c0.64,1.146,1.496,2.055,2.569,2.72c1.074,0.664,2.41,0.982,4.008,0.951c1.99-0.038,3.899-0.772,5.707-2.205
			s3.377-3.449,4.706-6.044s2.341-5.71,3.038-9.343s0.947-7.658,0.771-12.071c-0.011-0.262-0.013-0.394-0.023-0.655
			c2.244,0.202,4.024,0.37,5.339,0.514s2.326,0.256,3.033,0.341c0.706,0.085,1.201,0.144,1.486,0.177s0.525,0.045,0.715,0.034
			c1.562-0.085,3.133-0.374,4.71-0.872c1.576-0.498,3.069-1.131,4.474-1.896c1.404-0.764,2.683-1.63,3.836-2.603
			c0.216-0.182,0.418-0.365,0.62-0.549c0.857,1.268,1.793,2.305,2.807,3.102c1.338,1.052,2.736,1.516,4.189,1.395
			c0.914-0.076,1.887-0.275,2.915-0.598c1.028-0.321,2.075-0.725,3.141-1.213c1.064-0.488,2.116-1.033,3.152-1.634
			c1.037-0.6,2.048-1.203,3-1.816c0.908-0.585,1.816-1.219,2.726-1.88c0.325,0.36,0.667,0.706,1.032,1.032
			c1.402,1.254,3.095,2.186,5.077,2.791s4.242,0.756,6.763,0.446c1.609-0.198,3.179-0.56,4.703-1.088s2.977-1.162,4.359-1.902
			c1.382-0.739,2.684-1.55,3.902-2.435c1.22-0.884,2.355-1.774,3.385-2.663c2.378-2.055,4.552-4.377,6.52-6.925
			C254.562,272.643,253.398,271.833,251.085,270.209z M131.166,295.441c-0.038,0.604-0.089,1.364-0.149,2.273
			c-0.061,0.909-0.14,2.025-0.256,3.326c-0.067,0.747-0.123,1.6-0.157,2.545s-0.092,1.916-0.168,2.909
			c-0.077,0.993-0.165,1.963-0.269,2.907c-0.104,0.944-0.262,1.793-0.472,2.541c-0.21,0.747-0.474,1.342-0.789,1.783
			c-0.316,0.441-0.708,0.653-1.18,0.642c-0.526-0.014-0.966-0.193-1.316-0.542c-0.351-0.35-0.632-0.747-0.841-1.19
			c-0.209-0.443-0.355-0.884-0.439-1.323s-0.122-0.757-0.116-0.95c0.009-0.315,0.101-0.831,0.272-1.541
			c0.172-0.711,0.401-1.554,0.689-2.529c0.288-0.976,0.627-2.027,1.012-3.158s0.811-2.263,1.273-3.392s0.95-2.216,1.461-3.261
			c0.511-1.044,1.531-2.758,1.561-2.748C131.283,293.733,131.208,294.765,131.166,295.441z M139.659,284.432
			c-0.05-0.033,0.074-2.869,0.18-4.312s0.277-2.829,0.512-4.162c0.235-1.332,0.535-2.582,0.896-3.744s0.811-2.164,1.35-3.011
			c0.537-0.846,1.17-1.518,1.898-2.014c0.728-0.495,1.57-0.744,2.529-0.745c0.855-0.001,1.523,0.225,2.005,0.672
			s0.82,0.986,1.019,1.616s0.281,1.3,0.246,2.016c-0.035,0.717-0.111,1.354-0.245,1.88c-0.287,1.13-0.724,2.258-1.245,3.352
			s-1.195,2.152-2.026,3.172s-1.823,1.978-2.979,2.87C142.642,282.914,139.892,284.585,139.659,284.432z M165.763,295.348
			c-0.009,0.605-0.023,1.364-0.039,2.275c-0.017,0.911-0.041,2.029-0.095,3.334c-0.03,0.749-0.046,1.604-0.035,2.551
			c0.011,0.945,0.002,1.917-0.026,2.913c-0.029,0.996-0.072,1.971-0.13,2.919c-0.059,0.948-0.177,1.8-0.351,2.557
			c-0.175,0.757-0.407,1.366-0.7,1.822c-0.294,0.456-0.678,0.688-1.149,0.698c-0.526,0.012-0.974-0.147-1.34-0.479
			c-0.367-0.333-0.667-0.715-0.896-1.147c-0.23-0.433-0.396-0.866-0.502-1.302s-0.159-0.749-0.163-0.942
			c-0.006-0.315,0.062-0.835,0.198-1.553c0.138-0.719,0.328-1.572,0.569-2.561c0.24-0.988,0.526-2.058,0.856-3.205
			c0.33-1.148,0.701-2.294,1.109-3.444s0.843-2.259,1.304-3.327c0.46-1.067,1.396-2.831,1.426-2.822
			C165.799,293.634,165.773,294.67,165.763,295.348z M177.735,281.333c-1.112,0.948-3.779,2.748-4.02,2.606
			c-0.051-0.03-0.064-2.868-0.028-4.314s0.144-2.841,0.314-4.184c0.17-1.342,0.408-2.603,0.714-3.781
			c0.306-1.178,0.706-2.201,1.203-3.073c0.496-0.871,1.096-1.573,1.799-2.104c0.703-0.529,1.533-0.817,2.491-0.864
			c0.854-0.042,1.532,0.147,2.035,0.57c0.502,0.424,0.87,0.948,1.099,1.567c0.229,0.62,0.342,1.285,0.342,2.002
			c-0.001,0.718-0.046,1.358-0.154,1.889c-0.232,1.143-0.613,2.289-1.082,3.407s-1.095,2.209-1.876,3.268
			S178.848,280.386,177.735,281.333z M203.775,255.895c0.15-2.484,0.434-4.912,0.839-7.286c0.405-2.373,0.896-4.622,1.475-6.745
			s1.211-3.997,1.898-5.621c0.687-1.624,1.398-2.929,2.137-3.915s1.459-1.517,2.173-1.589c0.196-0.02,0.341,0.218,0.428,0.709
			s0.201,1.119,0.235,1.786c0.106,2.105-0.279,4.645-0.852,7.274s-1.304,5.281-2.199,7.949c-0.895,2.669-1.878,5.27-2.953,7.802
			s-3.033,6.86-3.114,6.845C203.842,263.104,203.624,258.38,203.775,255.895z M226.72,272.9c-0.099-0.078-0.111-1.173-0.145-1.926
			s-0.013-1.537,0.064-2.353s0.234-1.634,0.468-2.455c0.232-0.821,0.575-1.569,1.032-2.247s1.058-1.259,1.798-1.74
			c0.739-0.48,1.659-0.788,2.768-0.928c0.618-0.078,1.186,0.203,1.701,0.847c0.516,0.645,0.844,1.51,0.983,2.593
			c0.1,0.771-0.121,1.604-0.666,2.505c-0.545,0.902-1.251,1.762-2.116,2.578c-0.865,0.817-1.825,1.516-2.884,2.095
			S226.938,273.073,226.72,272.9z"/>
	</g>
	<path d="M240.85,103.054C211.333,62.118,175.185,25.97,151.265,2.05C149.942,0.728,148.22,0,146.414,0
		c-1.726,0-3.282,0.674-4.384,1.897l-0.157,0.165C95.823,47.719,0,142.724,0,232.494c0,80.703,65.657,146.36,146.36,146.36
		s146.36-65.657,146.36-146.36C292.721,194.338,275.269,150.788,240.85,103.054z M146.36,365.374
		c-73.27,0-132.88-59.609-132.88-132.88c0-34.543,15.75-74.257,46.812-118.038c24.839-35.01,54.68-66.484,83.227-95.282l2.829-2.854
		l2.84,2.841c60.55,60.55,130.052,139.518,130.052,213.333C279.24,305.765,219.631,365.374,146.36,365.374z"/>
</g>
</svg>
