<?xml version="1.0" encoding="utf-8"?>
<!-- Generator: Adobe Illustrator 21.1.0, SVG Export Plug-In . SVG Version: 6.00 Build 0)  -->
<svg version="1.1" id="Layer_1" xmlns="http://www.w3.org/2000/svg" xmlns:xlink="http://www.w3.org/1999/xlink" x="0px" y="0px"
	 viewBox="0 0 800 800" style="enable-background:new 0 0 800 800;" xml:space="preserve">
<style type="text/css">
	.st0{fill:#2B2B2B;}
	.st1{fill:#FFFFFF;}
</style>
<rect class="st0" width="800" height="800"/>
<g>
	<g>
		<path class="st1" d="M412.7,424c0,0.5,0.4,1,0.9,1.2C413.3,424.8,413,424.4,412.7,424z"/>
		<path class="st1" d="M384.2,437.2l-1.5,3.3c-0.5,1.2-1.1,2.4-1.6,3.5c-0.1-0.1-0.2-0.1-0.3-0.2c-0.8-0.6-1.8-1.1-3-1.5
			c0.3-0.5,0.7-0.9,1-1.2l0.1-0.1l0.1-0.2c0.9-1.1,1.5-2.3,2-3.5C382,437.2,383.1,437.2,384.2,437.2z"/>
		<path class="st1" d="M507.1,441.3c-0.2,0.4-0.4,0.8-0.6,1.2c-0.3,0.7-0.7,1.3-1,2c-1.8-0.8-3.7-1.4-5.6-1.7
			c-1.2-0.2-2.5-0.3-3.7-0.2c-2.4,0.1-4.8,0.5-7.1,1.3c-3,1.1-5.9,2.7-8.6,4.7c-0.8,0.6-1.5,1.2-2.3,1.9c-0.5-0.5-0.9-1-1.4-1.5
			c-1.5-1.5-2.9-2.6-4.3-3.5c-2-1.2-4-1.8-6-1.8c-0.2,0-0.5,0-0.7,0c-0.9-0.6-1.9-1.2-2.8-1.7c-2.4-1.3-4.9-2-7.6-2.2
			c-0.8-0.1-1.6-0.1-2.4-0.1c-2.8,0.1-5.6,0.7-8.3,1.8c-2.9,1.2-5.7,2.9-8.2,5c-0.4-0.5-0.9-0.9-1.3-1.4l-0.5-0.4l-0.5-0.4
			c-1.7-1.2-3.4-2.3-5.1-3.1c-2.4-1.2-5-1.8-7.7-1.9c-0.5,0-0.9,0-1.4,0c-1.9,0-3.7,0.3-5.5,0.8c0.4-1,0.9-2,1.4-3.1
			c23.4,0.2,46.7,1,70,2.6l6.4,0.4l6.6,0.5C501.5,440.8,504.3,441,507.1,441.3z"/>
		<path class="st1" d="M719,415.6v72.1c0,2-1.9,3.4-3.8,2.9c-10.6-3.1-42.9-12-90.6-20.8c0,0,0,0,0,0c-1.5-0.9-3.1-1.5-4.7-1.6
			c-1-0.9-2.1-1.8-3.1-2.6c-2.1-1.6-4.4-2.8-6.8-3.5c-2.3-0.7-4.6-1-6.9-1c-1.3,0-2.6,0.2-3.9,0.4c-2.5,0.5-4.9,1.4-7.2,2.6
			c-0.9-0.1-1.8-0.3-2.6-0.4c-1.2-1.4-2.5-2.7-4-3.9c-1.3-1-2.7-2-4.1-2.9c-1.6-1-2.9-1.7-4.2-2.1l-0.1,0c-1.5-0.5-3-0.8-4.6-0.7
			c-1.8,0-3.7,0.5-5.6,1.3c-0.9,0.4-1.7,0.8-2.6,1.3c-0.1-0.1-0.1-0.1-0.2-0.2c-1.4-1.6-2.8-2.9-4.3-4c-0.8-0.6-1.7-1.1-2.6-1.4
			c0.1-0.2,0.2-0.4,0.3-0.7c0.9-1.7,1.7-3.4,2.4-5.2c1.5-2.7,2-6.5-0.3-10.6c-0.6-1-1.2-2-2-2.9c0.5,0.1,1,0.1,1.4,0.2l5,0.6
			c1.1,0.1,2,1.1,2,2.2L566,446c0,1.1,0.8,2,1.9,2.2l7.9,1.2c9.3,1.4,18.6,2.9,27.9,4.5l8.7,1.5l8.7,1.6c24,4.5,48.1,9.9,71.7,16
			l11.7,3c1.4,0.4,2.8-0.7,2.8-2.2v-49.2c0-1.1-0.8-2-1.8-2.2l-3.9-0.8c-1.1-0.2-1.8-1.1-1.8-2.2l0-36.9c0-1.3,1.1-2.3,2.4-2.2
			l1.6,0.1c1.3,0.1,2.4-0.9,2.4-2.2l0-48.7c0-1.2-1-2.2-2.2-2.2H568.3c-0.9,0-1.7,0.5-2,1.3c-1.9,4.1-8,16.9-11.9,25
			c-0.8,1.7-3.2,1.7-4,0c-1.9-3.7-3.8-7.5-5.7-11.2c-0.8-1.5,0.3-3.3,2-3.3H557c1.2,0,2.2-1,2.2-2.2v-61.5c0-1.2-1-2.2-2.2-2.2
			h-58.4c-1.2,0-2.2,1-2.2,2.2v6.4c0,2-2.5,3-3.9,1.5c0,0,0,0,0,0c-3-3.1-6.6-5.6-10.7-7.5c-4.3-1.9-9-2.9-14-2.9
			c-4.9,0-9.5,0.9-13.7,2.7c-0.4,0.2-0.8,0.3-1.1,0.5c-0.4,0.2-0.9,0.3-1.3,0.2l-16.5-2.4c-0.3,0-0.5-0.1-0.8-0.3l-12.1-6.1
			c-0.7-0.4-1.5-0.4-2.2,0l-12.1,6.1c-0.2,0.1-0.5,0.2-0.8,0.3l-12.1,1.8c-0.4,0.1-0.7,0-1.1-0.1c-0.6-0.2-1.2-0.4-1.8-0.6
			c-1.9-0.6-3.8-1.1-5.8-1.5c-2.3-0.4-4.6-0.7-7-0.7c-3.4,0-6.7,0.5-9.8,1.5c-3.3,1-6.3,2.6-9,4.6c-0.3,0.3-0.7,0.6-1,0.8
			c-1.5,1.3-3.8,0.3-3.8-1.7v-2.7c0-1.2-1-2.2-2.2-2.2H247.4c-1.2,0-2.2,1-2.2,2.2v49.7c0,1.2-1,2.2-2.2,2.2h-61.2
			c-0.8,0-1.6,0.4-2,1.2l-2.7,4.8c-2.2,4.1-4.5,8.2-6.7,12.3c-0.9,1.6-3.1,1.6-4,0c-2.1-3.9-4.1-7.9-6.1-11.9l-2.6-5.1
			c-0.4-0.8-1.2-1.2-2-1.2h-52.1c-1.7,0-2.8,1.8-2,3.3l7.6,13.9c9.8,17.8,19.9,35.3,30.1,51.9c0.4,0.7,0.4,1.5,0.1,2.2
			c-10.1,18.7-20,38.2-29.4,57.9l-8.6,18c-0.8,1.7,0.7,3.6,2.6,3.1l19.3-4.9c9.9-2.5,19.9-4.9,29.8-7.2l4.6-1
			c0.7-0.2,1.3-0.6,1.5-1.3l1.9-4.2c2-4.4,4-8.8,6-13.1c0.8-1.6,3.1-1.8,4-0.2c1.4,2.4,2.8,4.7,4.1,7.1l3.4,5.7
			c0.5,0.8,1.4,1.2,2.4,1.1l6.5-1.3c3.2-0.6,6.4-1.2,9.6-1.8c-1.5,2.5-2.9,5-4.3,7.5c-0.6,1.1-1.2,2.3-1.8,3.4
			c-35,6.7-70.6,15.5-106.1,26.7c-2.5,0.8-4.7-1.8-3.6-4.2l44.5-90.7c0.4-0.9,0.4-2-0.1-2.8c-8.8-14.8-35-61.7-43.2-76.4
			c-1.1-2,0.3-4.4,2.6-4.4h145.5c1.6,0,3-1.3,3-3v-48.2c0-1.6,1.3-3,3-3h331.4c1.6,0,3,1.3,3,3v48.2c0,1.6,1.3,3,3,3h140.9
			c1.6,0,3,1.3,3,3l0,71.1c0,1.7-1.3,3-3,3c-0.1,0-0.1,0-0.2,0c-1.7-0.1-3.2,1.3-3.2,3l0,13.6c0,1.4,1,2.6,2.4,2.9l2.8,0.5
			C718,412.9,719,414.2,719,415.6z"/>
		<path class="st1" d="M348.7,440.9c-0.4,2.5-0.4,4.9-0.2,7.4c-1.6-0.9-3.2-1.7-4.8-2.4c-2.1-0.8-4.4-1.2-6.8-1.2
			c-0.4,0-0.7,0-1.1,0.1c-3.6,0.3-7.1,1.4-10.3,3.4c-1.4,0.8-2.8,1.8-4.1,2.9c-2.4,0.1-4.7,0.3-7.1,0.5c-1-0.5-2-0.9-3-1.2
			c-1.9-0.7-4-1-6-0.9c-0.6,0-1.3,0.1-1.9,0.1c-3.5,0.4-6.8,1.6-10,3.7c-5.3,0.5-10.6,1-16,1.5c0.2-0.6,0.5-1.2,0.7-1.8l0.8-1.9
			l-0.2-2.1c-0.1-1.5-0.6-3-1.4-4.5c0.7-0.1,1.4-0.2,2.1-0.2l8.2-0.9c1.1-0.1,2-1.1,2-2.2l0.6-66.2c0-1.2,1-2.2,2.2-2.2
			c2.8-0.1,5.6-0.1,8.5-0.2c1.3,0,2.3,1,2.3,2.3l-0.5,64.6c0,1.3,1.1,2.4,2.4,2.3l10.2-0.8c9.3-0.8,18.8-1.4,28.1-1.9l5.8-0.3
			C349,439.2,348.9,440,348.7,440.9z"/>
		<path class="st1" d="M236.4,374.2l-26.2,1c-0.7,0-1.3,0.4-1.7,0.9c-1.9,2.6-7.6,10.5-11.1,16.2c-0.5,0.7-0.4,1.7,0,2.4
			c7.2,10.8,14.6,21.6,22.1,32.2c1.8-1.6,3.7-3.1,5.5-4.4c4.2-3,8.7-4.9,13.3-5.8l0.4-40.3C238.7,375.2,237.7,374.2,236.4,374.2z
			 M226.8,407.8c0,2.9-3.8,4.1-5.4,1.7c-3.4-4.8-6.7-9.7-10-14.6c-0.6-1-0.7-2.2-0.1-3.2c0.7-1.2,1.5-2.4,2.2-3.6
			c0.5-0.8,1.4-1.4,2.4-1.4c3-0.1,5.9-0.2,7.9-0.3c1.7-0.1,3.1,1.3,3.1,3L226.8,407.8z"/>
		<path class="st1" d="M412.7,424c0,0.5,0.4,1,0.9,1.2C413.3,424.8,413,424.4,412.7,424z"/>
		<g>
			<path class="st1" d="M287.3,285.3v8.8c0,0.4-0.3,0.7-0.7,0.7h-16.9c-0.4,0-0.7,0.3-0.7,0.7v5.6c0,0.4,0.3,0.7,0.7,0.7h13.5
				c0.4,0,0.7,0.3,0.7,0.7v8.1c0,0.4-0.3,0.7-0.7,0.7h-13.5c-0.4,0-0.7,0.3-0.7,0.7v14.4c0,0.4-0.3,0.7-0.7,0.7h-10.8
				c-0.4,0-0.7-0.3-0.7-0.7v-41.3c0-0.4,0.3-0.7,0.7-0.7h29.1C287,284.6,287.3,284.9,287.3,285.3z"/>
			<path class="st1" d="M344.2,285.3v21.2c0,3-0.4,5.8-1.2,8.3c-0.8,2.6-2,4.8-3.7,6.7c-1.7,1.9-3.8,3.4-6.3,4.5
				c-2.5,1.1-5.5,1.6-8.9,1.6c-3.6,0-6.6-0.6-9.1-1.7c-2.5-1.1-4.6-2.7-6.2-4.6c-1.6-1.9-2.8-4.2-3.6-6.7c-0.7-2.5-1.1-5.2-1.1-8.1
				v-21.2c0-0.4,0.3-0.7,0.7-0.7h10.8c0.4,0,0.7,0.3,0.7,0.7v21.2c0,1.4,0.1,2.8,0.4,4.1c0.3,1.3,0.7,2.4,1.4,3.4
				c0.6,1,1.4,1.8,2.4,2.4c1,0.6,2.2,0.9,3.6,0.9c1.4,0,2.6-0.3,3.6-0.9c1-0.6,1.8-1.4,2.4-2.4c0.6-1,1.1-2.1,1.4-3.4
				c0.3-1.3,0.4-2.6,0.4-4v-21.2c0-0.4,0.3-0.7,0.7-0.7h10.8C343.9,284.6,344.2,284.9,344.2,285.3z"/>
			<path class="st1" d="M397.1,314.3c0,2.6-0.5,4.7-1.5,6.5c-1,1.8-2.3,3.1-3.9,4.2c-1.6,1-3.4,1.8-5.5,2.3c-2,0.5-4.1,0.7-6.1,0.7
				c-1.6,0-3.3-0.1-5-0.4c-1.7-0.2-3.4-0.6-5.1-1c-1.7-0.4-3.3-1-4.9-1.6c-1.3-0.5-2.6-1.1-3.7-1.7c-0.4-0.2-0.5-0.6-0.3-1l4.6-9
				c0.2-0.4,0.6-0.5,1-0.3c1.3,0.7,2.6,1.4,3.9,2c1.8,0.8,3.9,1.5,6.3,2.1c0,0,0.1,0,0.1,0c3.2,0.4,5.2,0.3,6.1-0.3
				c0.5-0.3,0.8-0.8,0.8-1.3c0-0.6-0.3-1.1-0.8-1.5c-0.5-0.4-1.2-0.8-2.2-1.1c-0.9-0.3-2-0.6-3.2-1c-1.2-0.3-2.5-0.7-3.8-1.1
				c-2-0.6-3.7-1.3-5.1-2.1c-1.4-0.7-2.6-1.6-3.5-2.5c-0.9-0.9-1.6-2-2-3.2c-0.4-1.2-0.7-2.6-0.7-4.2c0-2.4,0.4-4.5,1.3-6.3
				c0.9-1.8,2.1-3.3,3.7-4.5c1.5-1.2,3.3-2.1,5.3-2.7c2-0.6,4.1-0.9,6.3-0.9c1.6,0,3.2,0.2,4.8,0.5c1.5,0.3,3,0.7,4.5,1.1
				c1.4,0.5,2.8,1,4,1.5c1,0.4,1.9,0.8,2.7,1.2c0.4,0.2,0.5,0.6,0.3,1l-4.6,8.4c-0.2,0.4-0.6,0.5-1,0.3c-1.1-0.6-2.1-1.1-3.3-1.6
				c-1.1-0.5-2.4-0.9-3.8-1.3c-1.4-0.4-2.8-0.6-4.1-0.6c-1.1,0-1.9,0.2-2.6,0.5c-0.6,0.3-1,0.9-1,1.6c0,0.6,0.2,1,0.6,1.4
				c0.4,0.4,0.9,0.7,1.6,1c0.7,0.3,1.6,0.6,2.6,0.9c1,0.3,2.2,0.6,3.5,1c2.1,0.6,3.9,1.3,5.6,2c1.6,0.7,3.1,1.6,4.2,2.6
				c1.2,1,2.1,2.2,2.7,3.6S397.1,312.3,397.1,314.3z"/>
			<path class="st1" d="M427.2,311v15.7c0,0.4-0.3,0.7-0.7,0.7h-10.8c-0.4,0-0.7-0.3-0.7-0.7V311c0-0.3,0.1-0.5,0.4-0.6l5.4-2.8
				c0.2-0.1,0.5-0.1,0.7,0l5.4,2.8C427.1,310.4,427.2,310.7,427.2,311z"/>
			<path class="st1" d="M488.6,298.2c-1.1-2.6-2.6-4.9-4.6-7c-2-2-4.3-3.7-7.1-4.9c-2.8-1.2-5.8-1.9-9.2-1.9c-3.3,0-6.4,0.6-9.1,1.8
				c-2.8,1.2-5.2,2.8-7.2,4.8c-2,2-3.6,4.3-4.7,6.9c-1.1,2.6-1.7,5.3-1.7,8.1c0,2.8,0.5,5.5,1.6,8.1c1.1,2.6,2.6,4.9,4.6,7
				c2,2,4.3,3.7,7.1,4.9c2.8,1.2,5.8,1.9,9.2,1.9c3.3,0,6.3-0.6,9.1-1.8c2.8-1.2,5.2-2.8,7.2-4.8c2-2,3.6-4.3,4.7-6.9
				c1.1-2.6,1.7-5.3,1.7-8.1C490.2,303.4,489.7,300.8,488.6,298.2z M477.2,310.1c-0.4,1.4-1,2.6-1.8,3.6c-0.8,1.1-1.9,1.9-3.2,2.6
				c-1.3,0.7-2.8,1-4.6,1c-1.8,0-3.3-0.3-4.5-1c-1.3-0.6-2.3-1.5-3.2-2.5c-0.8-1-1.5-2.2-1.9-3.6c-0.4-1.3-0.6-2.7-0.6-4.2
				c0-1.4,0.2-2.8,0.6-4.1c0.4-1.3,1-2.5,1.9-3.6c0.8-1.1,1.9-1.9,3.2-2.6c1.3-0.6,2.8-1,4.5-1c1.7,0,3.2,0.3,4.5,0.9
				c1.3,0.6,2.3,1.5,3.2,2.5c0.9,1,1.5,2.2,1.9,3.6c0.4,1.3,0.6,2.7,0.6,4.2C477.8,307.3,477.6,308.7,477.2,310.1z"/>
			<path class="st1" d="M547.6,285.3v41.3c0,0.4-0.3,0.7-0.7,0.7h-8.7c-0.2,0-0.4-0.1-0.6-0.3l-16.2-19.2c-0.4-0.5-1.3-0.2-1.3,0.5
				v18.3c0,0.4-0.3,0.7-0.7,0.7h-10.8c-0.4,0-0.7-0.3-0.7-0.7v-41.3c0-0.4,0.3-0.7,0.7-0.7h8.5c0.2,0,0.4,0.1,0.6,0.3l16.4,19.9
				c0.4,0.5,1.3,0.2,1.3-0.5v-19c0-0.4,0.3-0.7,0.7-0.7h10.8C547.3,284.6,547.6,284.9,547.6,285.3z"/>
			<path class="st1" d="M183.3,393.1c-0.3,0.5-0.3,1.1,0,1.5c9.3,14.3,18.6,27.9,28,40.9c-1.9,2.3-3.9,4.8-5.7,7.5
				c-6.5,1.1-12.9,2.3-19.4,3.6c-0.6,0.1-1.2-0.1-1.5-0.7c-5.1-8.7-10.2-17.6-15.3-26.8c-0.6-1-2.1-1-2.6,0.1
				c-5.4,11.1-10.7,22.5-16,34.3c-0.2,0.4-0.6,0.7-1,0.8c-8.8,2-17.6,4.1-26.4,6.4c-1.2,0.3-2.2-0.9-1.7-2
				c10.3-21.6,20.7-41.8,31.2-60.9c0.3-0.5,0.2-1,0-1.5c-10.7-17.3-21.5-35.6-32.4-55.3c-0.5-1,0.2-2.2,1.3-2.2h27.2
				c0.5,0,1,0.3,1.3,0.8c5.6,11,11.2,21.7,16.8,32c0.6,1,2,1,2.6,0c5.7-11,11.4-21.7,17.2-32c0.3-0.5,0.7-0.7,1.3-0.7h26.8
				c1.2,0,1.9,1.3,1.2,2.2C205.1,357.5,194.2,374.7,183.3,393.1z"/>
			<path class="st1" d="M308.4,340.3l-0.1,18.9c0,0.8-0.6,1.4-1.4,1.4c-8.9,0.2-17.8,0.4-26.7,0.6c-0.8,0-1.4,0.7-1.4,1.4
				c-0.2,22.9-0.4,45.7-0.6,68.6c0,0.7-0.6,1.3-1.3,1.4c-4.4,0.5-8.7,1-13.1,1.6h0c-0.5-0.1-0.9-0.1-1.4-0.1c-0.4,0-0.8,0-1.2,0.1
				c-0.1-0.4-0.2-0.7-0.3-1.1c-0.9-3.5-2.4-6.6-4.3-9.1c-1.9-2.4-4.1-4.3-6.6-5.6c0.2-18.3,0.3-36.6,0.5-54.9c0-0.8-0.7-1.5-1.5-1.5
				c-8.9,0.3-17.7,0.6-26.6,1c-0.8,0-1.5-0.6-1.5-1.5c0.1-7.1,0.1-14.3,0.2-21.4c0-0.8,0.7-1.4,1.5-1.4h84.5
				C307.7,338.8,308.4,339.5,308.4,340.3z"/>
			<path class="st1" d="M382.7,394.9c-0.4-0.7-0.3-1.6,0.4-2c4.1-2.7,7.3-6,9.7-10c2.6-4.4,3.9-9.1,3.9-14.1c0-3.7-0.9-7.3-2.6-10.9
				c-1.7-3.6-4.1-6.8-7.1-9.6c-3-2.8-6.7-5.1-10.9-6.8c-4.2-1.7-8.9-2.6-13.9-2.6h-45.7c-0.8,0-1.4,0.6-1.5,1.4
				c-0.2,29.1-0.4,58.2-0.6,87.2c0,0.8,0.7,1.5,1.6,1.5c8.5-0.7,17-1.3,25.4-1.7c0.8,0,1.4-0.7,1.4-1.4c0-8.1,0.1-16.2,0.1-24.4
				c0-0.8,0.6-1.4,1.4-1.4c2.8-0.1,5.6-0.2,8.4-0.3c0.5,0,1,0.2,1.2,0.6c4.3,6.2,8.6,12.5,12.9,18.7c0.1,0,0.3,0,0.4,0
				c0.4,0,0.9,0,1.3,0.1c0.8,0.1,1.6,0.3,2.3,0.5c1.6,0.5,2.9,1.3,3.9,1.9c1.3,0.9,2.6,2.1,3.7,3.4c0.2,0.3,0.4,0.5,0.6,0.8
				c3.5-0.1,7-0.1,10.6-0.2c0.8-1.7,1.5-3.1,2.2-4.3l0.1-0.1l0.1-0.1c1.3-2.2,3.3-3.7,5.7-4.3C392.7,409.4,387.7,402.2,382.7,394.9z
				 M365.7,375.9c-1.5,1.7-3.1,2.5-4.9,2.5c-5.5,0.1-10.9,0.2-16.4,0.4c-0.8,0-1.5-0.6-1.5-1.5c0-5.3,0.1-10.7,0.1-16
				c0-0.8,0.6-1.4,1.4-1.4c5.2-0.1,10.4-0.1,15.7-0.2c1.7,0,3.5,0.8,5.2,2.3c1.7,1.6,2.6,3.9,2.6,6.9
				C368,372,367.2,374.3,365.7,375.9z"/>
			<path class="st1" d="M412.7,424c0,0.5,0.4,1,0.9,1.2C413.3,424.8,413,424.4,412.7,424z"/>
			<path class="st1" d="M486.4,426.4c0,0.8-0.7,1.5-1.5,1.5c-23.6-1.6-47.1-2.4-70.7-2.6c-0.2,0-0.4,0-0.5-0.1
				c-0.3-0.4-0.6-0.8-0.9-1.2c0,0,0-0.1,0-0.2c0-27.9,0-55.7,0-83.6c0-0.8,0.6-1.5,1.5-1.5h69c0.8,0,1.5,0.6,1.5,1.4
				c0,6.1,0.1,12.3,0.1,18.4c0,0.8-0.7,1.5-1.5,1.5c-13.6-0.2-27.2-0.4-40.8-0.5c-0.8,0-1.5,0.7-1.5,1.5c0,3.1,0,6.2,0,9.4
				c0,0.8,0.6,1.4,1.4,1.5c11.5,0.1,23.1,0.3,34.6,0.6c0.8,0,1.4,0.7,1.4,1.5c0,5.6,0.1,11.2,0.1,16.8c0,0.8-0.7,1.5-1.5,1.5
				c-11.5-0.4-23-0.7-34.5-0.9c-0.8,0-1.5,0.6-1.5,1.5c0,3.6,0,7.2,0,10.8c0,0.8,0.6,1.4,1.4,1.4c14.1,0.3,28.3,0.8,42.4,1.6
				c0.8,0,1.4,0.7,1.4,1.5C486.4,414.2,486.4,420.3,486.4,426.4z"/>
			<path class="st1" d="M605.7,440.6c0,0.9-0.8,1.6-1.7,1.4c-8.4-1.4-16.8-2.8-25.2-4.1c-0.7-0.1-1.2-0.7-1.2-1.4
				c-0.1-14.9-0.3-29.8-0.4-44.7c0-1.5-2.1-2-2.8-0.6c-4.6,9.5-9.2,18.9-13.7,28.1c-0.3,0.5-0.9,0.9-1.5,0.8
				c-4.4-0.5-8.8-1-13.2-1.4c-0.5,0-0.9-0.4-1.2-0.8c-4.8-10.1-9.6-19.9-14.4-29.6c-0.7-1.4-2.8-0.9-2.8,0.7
				c0.1,11.6,0.2,23.1,0.3,34.7c-1.8-1.1-3.6-1.6-5.5-1.5c-3,0.1-5.8,1.6-7.5,4.1c-0.6,0.8-1,1.6-1.3,2.1c-0.3,0.5-0.6,1.1-0.9,1.7
				c-3.9-0.4-7.9-0.7-11.8-1c-0.7-0.1-1.3-0.7-1.3-1.4c-0.2-29.1-0.4-58.2-0.6-87.4c0-0.8,0.6-1.5,1.5-1.5h28.5c0.5,0,1,0.3,1.3,0.8
				c6.9,13.5,13.9,27.3,20.8,41.6c0.5,1.1,2.1,1.1,2.6,0c6.7-13.5,13.4-27.3,20.2-41.5c0.2-0.5,0.7-0.8,1.3-0.8h28.3
				c0.8,0,1.5,0.6,1.5,1.4C605.2,373.7,605.5,407.2,605.7,440.6z"/>
			<path class="st1" d="M695.8,433.5v26.4c0,0.9-0.9,1.6-1.8,1.4c-23-5.9-46.2-11-69.5-15.5c-0.7-0.1-1.2-0.7-1.2-1.4
				c-0.2-34.7-0.5-69.4-0.7-104.1c0-0.8,0.6-1.5,1.5-1.5h69c0.8,0,1.5,0.6,1.5,1.4c0,8.8,0,17.6,0,26.4c0,0.8-0.7,1.5-1.5,1.4
				c-13.5-0.8-27-1.6-40.5-2.3c-0.8,0-1.5,0.6-1.5,1.5c0,4.3,0,8.6,0.1,13c0,0.7,0.6,1.4,1.3,1.4c11.5,0.9,23,1.9,34.5,3
				c0.7,0.1,1.3,0.7,1.3,1.5c0,8,0,15.9,0,23.9c0,0.9-0.8,1.6-1.7,1.4c-11.2-1.7-22.5-3.2-33.7-4.7c-0.9-0.1-1.6,0.6-1.6,1.5
				c0,4.9,0,9.9,0.1,14.8c0,0.7,0.5,1.3,1.2,1.4c14.1,2.3,28.2,4.8,42.2,7.5C695.3,432.2,695.8,432.8,695.8,433.5z"/>
			<path class="st1" d="M429.3,294.4c-0.2,0.2-0.3,0.4-0.2,0.6l1.6,9.1c0.1,0.6-0.5,1-1,0.8l-3.4-1.8l-4.8-2.5
				c-0.2-0.1-0.5-0.1-0.7,0l-4.8,2.5l-3.4,1.8c-0.5,0.3-1.2-0.2-1.1-0.8l1.6-9.1c0-0.2,0-0.5-0.2-0.6l-6.6-6.4
				c-0.4-0.4-0.2-1.2,0.4-1.2l9.1-1.3c0.2,0,0.4-0.2,0.6-0.4l4.1-8.3c0.3-0.5,1-0.5,1.3,0l4.1,8.3c0.1,0.2,0.3,0.4,0.5,0.4l9.1,1.3
				c0.6,0.1,0.8,0.8,0.4,1.2L429.3,294.4z"/>
		</g>
	</g>
	<g>
		<path class="st1" d="M552,441.3c-0.6,1.7-1.4,3.4-2.3,5.1c-0.9,1.7-1.8,3.3-2.7,4.8c-0.6,1-1.2,2-1.7,2.9c-0.3-0.4-0.6-0.7-1-1.1
			c-1.4-1.5-2.8-2.8-4.1-3.7c-0.9-0.7-1.9-1.2-2.9-1.6c0.3-0.7,0.6-1.5,0.9-2.2c0.2-0.6,0.5-1.2,0.7-1.8l0,0c0.3-0.7,0.5-1.3,0.8-2
			c0.5-1.3,1.1-2.6,1.8-3.8c0.7-1.3,1.5-2.7,2.5-4.2c0.5-0.5,1.4-0.4,2.5,0.1s2.1,1.2,3.1,2.2c1,0.9,1.7,1.9,2.3,3
			C552.5,439.9,552.5,440.8,552,441.3z"/>
		<path class="st1" d="M412.7,424c0,0.5,0.4,1,0.9,1.2C413.3,424.8,413,424.4,412.7,424z"/>
		<path class="st1" d="M638.5,488.2c-0.1-0.4-0.3-0.8-0.6-1.1c-0.3-0.3-0.6-0.5-1.1-0.6c-0.4-0.1-0.8,0-1.2,0.2
			c-1.3,1.4-2.5,2.7-3.8,4c-1.3,1.3-2.6,2.5-3.9,3.7c-1.8,1.5-3.5,3-5.3,4.3c-1.8,1.3-3.7,2.5-5.6,3.7c0.1-0.1,0.2-0.3,0.2-0.4
			c0.3-0.5,0.6-1,0.9-1.5c0.3-0.5,0.6-0.9,0.8-1.4c0.8-1.2,1.6-2.4,2.6-3.7c0.9-1.3,1.8-2.5,2.6-3.6c0.8-1.1,1.5-2,2.1-2.8
			c0.6-0.8,0.9-1.3,1-1.6c-0.1-0.8-0.5-1.9-1.3-3.2c-0.8-1.3-1.6-2.6-2.6-3.7c-1-1.2-1.9-2.1-2.7-2.9c-0.9-0.7-1.4-0.9-1.7-0.5
			c-0.5,0.6-1.1,1.2-1.6,1.7c-0.2-0.4-0.5-0.9-0.8-1.4c-0.3-0.5-0.7-1-1.1-1.5c-1.2-1.3-2.5-2.4-3.8-3.4c-1.3-1-2.6-1.7-4.1-2.1
			c-2.2-0.7-4.4-0.8-6.5-0.3c-2.1,0.4-4.2,1.3-6.1,2.5c-2,1.2-3.8,2.7-5.4,4.5c-1.7,1.8-3.1,3.8-4.3,5.8c-0.4,0.7-0.7,1.4-1.1,2.1
			c-1.1,1.3-2.2,2.5-3.2,3.7c-1.4,1.5-2.6,2.8-3.7,4c-1.1,1.1-2,2-2.8,2.5c-0.8,0.5-1.3,0.6-1.5,0.3c-0.1-0.1-0.1-0.4,0.1-0.7
			c0.1-0.3,0.4-0.7,0.6-1.1c1-1.6,2.1-3.3,3.4-4.9s2.4-3.3,3.4-5.1c1.1-1.8,1.9-3.6,2.6-5.5c0.7-1.9,1-4,0.9-6.2
			c-0.1-0.8-0.5-1.7-1.3-2.6c-0.8-0.9-1.7-1.8-2.7-2.7c-1-0.8-2.1-1.6-3.2-2.3c-1.1-0.7-2-1.1-2.7-1.4c-1.1-0.4-2.4-0.3-3.8,0.3
			c-1.4,0.6-2.9,1.5-4.4,2.8c-1.5,1.2-3.1,2.7-4.7,4.4c-1.6,1.7-3.1,3.5-4.6,5.4c0.4-1.2,1-2.6,2-4.1c0.1-0.1,0.2-0.3,0.5-0.5
			c0.3-0.3,0.5-0.6,0.8-0.9c0.3-0.3,0.5-0.7,0.8-1c0.2-0.3,0.4-0.6,0.4-0.7c0-0.8-0.4-1.8-1.1-3c-0.7-1.2-1.6-2.4-2.5-3.4
			c-0.9-1.1-1.9-1.9-2.7-2.6c-0.9-0.6-1.5-0.7-1.7-0.3c0,0,0-0.1,0-0.1c0,0-0.1,0.1-0.2,0.4c-0.1,0.3-0.3,0.8-0.6,1.4
			c-0.3,0.7-0.8,1.6-1.4,2.9c-0.3,0.6-0.8,1.6-1.5,3c-0.4,0.7-0.7,1.5-1.2,2.4c-0.4,0.5-0.9,1.1-1.4,1.7c-1.3,1.6-2.6,3.2-4,4.9
			c-1.4,1.7-2.8,3.3-4.2,4.9c-1.4,1.6-2.6,3-3.8,4.2c-1.1,1.2-2.1,2.1-2.8,2.7c-0.8,0.6-1.3,0.7-1.5,0.4c-0.2-0.3-0.1-1.1,0.4-2.2
			c0.5-1.2,1.2-2.6,2-4.2c0.9-1.6,1.8-3.3,2.9-5.2c1.1-1.8,2.1-3.5,3-5.1c0.9-1.5,1.6-2.8,2.2-3.9c0-0.1,0.1-0.1,0.1-0.2
			c0.6-1.2,0.9-1.9,0.9-2.1c-0.1-0.7-0.5-1.7-1.3-3c-0.8-1.2-1.7-2.4-2.6-3.4c-0.8-0.9-1.6-1.7-2.4-2.3c0,0,0,0,0,0
			c-0.1-0.1-0.2-0.2-0.3-0.3c-0.9-0.6-1.5-0.7-1.7-0.3c-0.1,0.1-0.2,0.2-0.3,0.3h0c-0.3,0.4-0.7,1-1.3,1.9c-0.3,0.5-0.7,1-1.1,1.6
			c-0.5,0.9-1.1,1.8-1.8,2.9c-0.5,0.9-1.1,1.9-1.7,3c-0.6,0.7-1.2,1.4-1.8,2.2c-1.3,1.6-2.7,3.3-4.1,5c-1.4,1.7-2.8,3.4-4.2,5.1
			c-1.4,1.6-2.6,3.1-3.8,4.3c-1.1,1.2-2.1,2.1-2.8,2.8c-0.8,0.6-1.3,0.8-1.5,0.5c-0.2-0.3-0.1-0.9,0.2-1.9c0.3-0.9,0.8-2.1,1.3-3.4
			c0.6-1.3,1.3-2.8,2-4.3c0.8-1.6,1.6-3.1,2.3-4.7c0.8-1.5,1.5-3,2.2-4.4c0.7-1.4,1.2-2.5,1.5-3.5c0.1-0.3,0.5-1.1,1.1-2.4
			c0.6-1.3,1.4-2.8,2.3-4.5c0.2-0.4,0.4-0.9,0.7-1.3c0.7-1.3,1.4-2.7,2.2-4.1c1-1.9,1.9-3.6,2.7-5.2c0.4-0.8,0.9-1.6,1.3-2.5h0
			c0.5-0.9,1-1.9,1.6-3c-0.1-0.8-0.5-1.8-1.3-3c-0.8-1.2-1.7-2.4-2.6-3.4c-1-1-1.9-1.9-2.8-2.5c-0.2-0.1-0.4-0.3-0.5-0.3
			c-0.5-0.3-0.8-0.3-1.1-0.1c0,0-0.1,0.1-0.1,0.1c-0.1,0-0.3,0.5-0.8,1.4c-0.5,0.9-1.1,2.1-1.9,3.6c-0.8,1.5-1.6,3.1-2.5,5
			c-0.2,0.4-0.4,0.7-0.5,1.1c-0.7,1.5-1.5,2.9-2.2,4.3c-0.9,1.8-1.7,3.4-2.5,4.9c-0.5,1-0.9,1.9-1.2,2.6c-0.2,0.4-0.3,0.7-0.4,1
			c-0.2,0.5-0.5,1-0.7,1.5c-0.3,0.5-0.5,1.1-0.8,1.7c-0.5-0.8-1.1-1.6-1.9-2.5c-1-0.8-2-1.6-3-2.2c-0.3-0.2-0.6-0.4-0.9-0.5
			c-1.3-0.8-2.7-1.3-4.2-1.5c-2.3-0.3-4.5-0.1-6.6,0.7c-0.3,0.1-0.5,0.2-0.8,0.3c0,0,0,0,0,0c-1.9,0.8-3.7,1.8-5.4,3.1
			c-2,1.5-3.8,3.3-5.5,5.4c-1.7,2.1-3.1,4.2-4.3,6.5c-0.3,0.7-0.7,1.3-1,2c-0.5,0.7-1.1,1.4-1.6,2c-1.8,2.1-3.5,4.1-5.1,5.9
			c-1.7,1.8-3.2,3.3-4.6,4.5c-0.5,0-0.6-0.3-0.6-0.7c0.1-0.5,0.3-1.1,0.6-1.8c0.3-0.7,0.8-1.5,1.3-2.4c0.5-0.8,0.9-1.6,1.4-2.4
			c0.8-1.3,1.7-2.8,2.7-4.2c1-1.5,1.8-2.8,2.7-4.1c0.8-1.2,1.5-2.3,2.1-3.2c0.6-0.9,0.9-1.5,0.9-1.9c-0.1-0.8-0.5-1.8-1.3-2.9
			c-0.8-1.2-1.7-2.2-2.6-3.2c-1-1-1.9-1.7-2.8-2.3c-0.9-0.6-1.5-0.6-1.7-0.2c-0.1,0.2-0.3,0.4-0.6,0.8c-0.3,0.3-0.6,0.8-0.9,1.4
			c-0.4-0.7-1.1-1.6-2-2.6c-0.9-0.7-1.8-1.3-2.6-1.8c0,0,0,0,0,0c-0.4-0.3-0.8-0.5-1.2-0.7c-1.3-0.7-2.7-1.1-4.1-1.2
			c-2.3-0.2-4.5,0.2-6.7,1.1c-0.2,0.1-0.4,0.2-0.6,0.3h0c-1.9,0.9-3.8,2.1-5.6,3.5c-2,1.6-3.8,3.5-5.5,5.7c-1.5,2-2.9,4-4,6.2
			c-0.2,0.3-0.4,0.5-0.6,0.8c-1.9,2.6-3.9,5-6,7.2c-2.1,2.2-4.1,4.1-6.1,5.7c-2,1.6-3.9,2.8-5.6,3.7c-1.8,0.9-3.2,1.2-4.4,1.1
			c-0.7-0.1-1.2-0.4-1.5-0.8c-0.2-0.5-0.3-1-0.3-1.7c0.1-0.7,0.2-1.4,0.5-2.2c0.2-0.8,0.5-1.5,0.7-2.3c0.1-0.3,0.2-0.7,0.4-1.1
			c0.2-0.4,0.3-0.8,0.6-1.3c1-0.1,2.3-0.4,3.9-0.9c1.6-0.5,3.2-1.2,4.9-2.2c1.7-0.9,3.5-2.1,5.2-3.5c1.8-1.4,3.3-3,4.8-5
			c0.8-1,1.4-1.9,2.1-2.8c0.6-0.9,1-1.7,1.1-2.6c0.1-0.9,0-1.8-0.4-2.8c-0.4-1-1.2-2.1-2.5-3.3c-1.3-0.9-2.5-1.7-3.7-2.3
			c-0.1,0-0.1-0.1-0.2-0.1c-1.3-0.6-2.7-1-4.1-1c-1.9-0.1-3.7,0.2-5.5,0.9c0,0,0,0,0,0c-0.4,0.1-0.7,0.3-1.1,0.5
			c-2.1,1-4.1,2.4-6,4.1c-1.9,1.7-3.6,3.7-5.1,5.9c-1.5,2.2-2.8,4.5-3.9,6.9c-0.1,0.2-0.2,0.4-0.3,0.6c-0.1,0.2-0.3,0.4-0.4,0.6
			c-1.4,2-2.8,3.9-4.2,5.8c-1.4,1.9-2.7,3.5-3.8,4.9c-1.1,1.4-2.1,2.5-2.8,3.3c-0.8,0.7-1.3,1-1.5,0.7c-0.2-0.3-0.1-0.9,0.2-1.9
			c0.3-1,0.7-2.2,1.3-3.6c0.6-1.4,1.2-3,2-4.7c0.7-1.7,1.5-3.4,2.3-5.1c0.8-1.7,1.5-3.3,2.2-4.7c0.7-1.5,1.3-2.7,1.7-3.8
			c0.2-0.3,0.6-1.2,1.2-2.6c0.6-1.4,1.4-3,2.3-4.9c0.3-0.7,0.7-1.4,1-2.2c0.6-1.2,1.1-2.4,1.8-3.7c1-2.1,1.9-4,2.7-5.7
			c0.3-0.7,0.7-1.5,1.1-2.3c0.5-1.2,1.1-2.4,1.8-3.8c-0.1-0.8-0.5-1.7-1.3-2.8c-0.8-1.1-1.6-2.1-2.6-3c-0.9-0.9-1.9-1.6-2.8-2
			c0,0,0,0-0.1,0c-0.9-0.4-1.4-0.4-1.7,0c0,0,0,0,0,0h0c-0.6,1.2-1.4,2.8-2.3,4.7c-0.9,2-1.9,4.1-3,6.5c-0.1,0.1-0.1,0.3-0.2,0.4
			c-1,2.3-2.1,4.6-3.3,7.1c-0.7,1.5-1.4,3.1-2.1,4.6c-0.5,1.1-1,2.1-1.4,3.2c-1.2,2.5-2.2,5-3.3,7.3c-0.1,0.2-0.2,0.4-0.3,0.6
			c-0.7,0.9-1.4,1.9-2.2,2.9c-1.4,1.9-2.9,3.9-4.4,5.9c-1.5,2.1-3.1,4.1-4.6,6.1c-1.5,2-3,3.8-4.2,5.3c-1.3,1.6-2.4,2.9-3.3,3.8
			c-0.9,1-1.6,1.5-1.9,1.4c-0.9,0.3-1.3-0.1-1.2-1.1c0.1-1,0.8-2.7,2.1-4.8c0.8-1.3,1.6-2.7,2.6-4.4c1-1.6,2.1-3.3,3.1-5
			c1.1-1.7,2.2-3.4,3.2-5c1.1-1.6,2-3.1,2.8-4.4c0.8-1.3,1.5-2.4,1.9-3.2c0.5-0.8,0.6-1.3,0.5-1.5c0-0.6-0.2-1.4-0.6-2.5
			c-0.4-1.1-1-2-1.8-2.6c-0.2-0.1-0.7-0.2-1.5-0.1c-0.8,0.1-1.8,0.2-2.8,0.4c-1.1,0.1-2.2,0.3-3.3,0.3c-1.1,0.1-2.1,0.1-2.8,0
			c-0.4-0.1-0.7-0.2-0.9-0.5c-0.2-0.2-0.4-0.5-0.5-0.7c-0.1-0.2-0.1-0.6,0.1-1.2c0.1-0.3,0.2-0.7,0.4-1.1c0.5-1.2,1.2-2.6,2.1-4.1
			c0.9-1.5,1.8-3.1,2.9-4.6c0.4-0.6,0.8-1.2,1.2-1.7c0.6-0.8,1.2-1.6,1.7-2.2c0.7-0.8,0.9-1.7,0.7-2.6c-0.2-0.9-0.6-1.7-1.2-2.4
			c-0.6-0.7-1.2-1.3-1.9-1.8c-0.7-0.5-1.2-0.7-1.5-0.8c-0.2-0.1-0.4-0.2-0.7-0.2c-0.3,0-0.7,0.1-1.1,0.4s-1.1,0.8-1.9,1.5
			c-0.7,0.6-1.6,1.5-2.7,2.7c0,0,0,0,0,0c-0.1,0.1-0.2,0.2-0.3,0.3c-1.1,1.3-2,2.8-2.7,4.4c-0.7,1.7-1.2,3.4-1.5,5.2
			c-0.3,1.8-0.3,3.5-0.1,5.3c0.1,0.6,0.2,1.2,0.3,1.8c0.3,1,0.6,2,1.1,2.9c-1,1.6-2,3.3-3,5c-0.9,1.4-1.6,2.7-2.1,3.7
			c-2.1,3.1-4.3,6.3-6.4,9.4c-1.9,2.8-3.9,5.5-6,7.9c-2.1,2.5-4.1,4.6-6.1,6.4c-2,1.8-3.9,3.3-5.6,4.4c-1.7,1.1-3.2,1.6-4.4,1.6
			c-0.7,0-1.2-0.2-1.4-0.7c-0.2-0.4-0.3-1-0.3-1.7c0.1-0.7,0.2-1.4,0.4-2.2c0.2-0.8,0.5-1.6,0.7-2.4c0.1-0.4,0.2-0.7,0.4-1.2
			c0.2-0.4,0.3-0.9,0.6-1.3c1-0.2,2.3-0.6,3.8-1.3c1.6-0.7,3.2-1.6,4.9-2.7c1.7-1.1,3.4-2.5,5.2-4.1c1.7-1.6,3.3-3.4,4.7-5.5
			c0.8-1.1,1.4-2.1,2-3c0.6-0.9,1-1.8,1.1-2.8c0.1-0.9,0-1.8-0.4-2.8c-0.4-0.9-1.2-1.9-2.5-3c-1.3-0.8-2.6-1.4-3.9-1.9
			c-1.3-0.5-2.7-0.7-4.1-0.6c-2.2,0.2-4.4,0.9-6.5,2.1c-2.1,1.3-4.1,2.8-5.9,4.8c-1.9,1.9-3.6,4.1-5.1,6.5c-1.5,2.4-2.8,4.9-3.9,7.4
			c0,0,0,0.1,0,0.1c0,0.1-0.1,0.1-0.1,0.2c-1.9,2.9-3.9,5.6-5.9,8.2c-2.1,2.5-4.1,4.8-6.1,6.7c-2,1.9-3.8,3.5-5.6,4.6
			c-1.7,1.2-3.2,1.8-4.4,1.8c-0.7,0-1.2-0.2-1.4-0.6c-0.2-0.4-0.3-1-0.2-1.7c0.1-0.7,0.2-1.4,0.4-2.3c0.2-0.8,0.5-1.6,0.7-2.4
			c0.1-0.4,0.2-0.7,0.4-1.2c0.2-0.4,0.3-0.9,0.6-1.4c1-0.2,2.3-0.7,3.8-1.5c1.5-0.7,3.2-1.7,4.9-3c1.7-1.2,3.4-2.7,5.1-4.3
			c1.7-1.6,3.3-3.6,4.7-5.7c0.8-1.1,1.4-2.2,2-3.1c0.6-1,1-1.9,1.1-2.8c0.1-0.9,0-1.8-0.4-2.8c-0.4-0.9-1.2-1.9-2.5-2.9
			c-1.3-0.7-2.6-1.3-3.9-1.8c-1.3-0.4-2.6-0.6-4.1-0.4c-2.2,0.3-4.4,1.1-6.4,2.4c-2.1,1.3-4,3-5.9,5.1c-1.9,2-3.5,4.3-5,6.7
			c-1.5,2.4-2.7,4.8-3.7,7.3c-0.4,0.6-0.7,1.1-1.1,1.7c-1.4,2.2-2.7,4.4-4.1,6.5c-1.4,2.1-2.6,4-3.7,5.6c-1.1,1.6-2,2.8-2.8,3.7
			c-0.8,0.9-1.2,1.2-1.5,1c-0.1-0.1-0.1-0.3,0.1-0.8c0.2-0.4,0.4-0.9,0.6-1.4c1-2.2,2.1-4.4,3.4-6.6c1.2-2.2,2.4-4.4,3.4-6.6
			c1.1-2.2,1.9-4.4,2.6-6.6c0.7-2.2,1-4.3,0.9-6.5c-0.1-0.8-0.5-1.5-1.3-2.1c-0.8-0.6-1.7-1.1-2.7-1.5c-1-0.4-2.1-0.7-3.2-0.9
			c-1.1-0.2-2-0.3-2.6-0.3c-0.9,0.1-1.9,0.5-3,1.3c-1.1,0.8-2.2,1.9-3.4,3.2c-1.2,1.3-2.4,2.9-3.7,4.6c-1.3,1.8-2.5,3.6-3.7,5.6
			c0.9-2.3,1.9-4.8,3-7.5c1.1-2.6,2.4-5.8,4-9.5c0.7-1.6,1.4-3.2,2-4.7c0.3-0.7,0.6-1.3,0.9-2c0.3-0.7,0.6-1.4,0.9-2.1
			c0.5-1.2,1.1-2.5,1.7-4c-0.1-0.8-0.5-1.6-1.3-2.6c-0.5-0.6-1-1.1-1.5-1.6c-0.3-0.3-0.7-0.6-1.1-0.9c-0.9-0.7-1.8-1.2-2.7-1.5
			c-0.9-0.3-1.5-0.2-1.7,0.3c-0.5,1-0.9,2.1-1.3,3c-0.4,1-0.9,2-1.3,2.9c-0.8,1.8-1.6,3.7-2.5,5.9c-0.3,0.6-0.5,1.3-0.8,1.9
			c-0.6,1.5-1.3,3.1-1.9,4.6c-0.9,2.1-1.7,4.1-2.4,5.9c-0.7,1.8-1.3,3.2-1.6,4.3c-0.3,0.8-0.9,2.2-1.7,4c-0.7,1.8-1.6,3.9-2.5,6.1
			c-0.1,0.2-0.2,0.4-0.4,0.6c-0.8,1.3-1.6,2.7-2.4,3.9c-1.4,2.2-3,4.6-4.9,7.3c-1.9,2.7-3.9,5.4-6.1,8.2c-2.2,2.8-4.6,5.6-7,8.3
			c-2.4,2.7-4.9,5.3-7.4,7.6c-2.5,2.4-5.1,4.4-7.6,6.2c-2.5,1.8-5,3.1-7.4,3.9c-2.3,0.8-4.1,0.8-5.2-0.1c-1.1-0.9-1.8-2.3-2-4.3
			c-0.2-2,0-4.5,0.6-7.4c0.6-2.9,1.5-6.1,2.6-9.5c1.1-3.4,2.4-6.9,3.9-10.5c1.5-3.6,3-7,4.5-10.4c1.5-3.3,3-6.4,4.5-9.3
			c1.5-2.8,2.8-5.2,3.9-7c1.5-2.5,2.9-4.9,4.4-7.2c0.7-1.1,1.4-2.1,2-3.2c1.9-2.9,3.7-5.5,5.5-8c0.2-0.3,0.4-0.6,0.7-0.9
			c1.5-2,3-3.8,4.5-5.5c0.5-0.6,1-1.1,1.5-1.6c1.5-1.5,2.9-2.9,4.3-4v0c0.5-0.4,1-0.7,1.5-1.1c1.2-0.7,2-1.1,2.6-1.1
			c0.6,0,1,0.3,1.2,0.9c0.2,0.6,0.2,1.4,0.1,2.4c-0.1,1-0.4,2.1-0.8,3.3c-0.3,0.9-0.8,2.2-1.8,3.9c-0.3,0.5-0.6,1.1-0.9,1.7
			c-0.7,1.3-1.6,2.8-2.5,4.3c-1.3,2.1-2.7,4.4-4.2,6.8h0c-0.1,0.1-0.2,0.3-0.3,0.4c-1.6,2.5-3.2,5-4.8,7.3c-1.6,2.4-3.1,4.5-4.6,6.5
			c-1.4,2-2.6,3.5-3.6,4.6c-0.4,0.6-0.5,1.1-0.1,1.6c0.4,0.5,1,0.9,1.9,1.3c0.9,0.4,1.9,0.6,3.2,0.8c1.2,0.2,2.4,0.2,3.7,0.2
			c1.2-0.1,2.4-0.3,3.5-0.6c1.1-0.4,2-0.9,2.7-1.6c1.4-1.6,3.1-3.9,5-7c1.9-3,3.8-6.3,5.7-9.9c1-1.9,1.9-3.8,2.8-5.7
			c0.7-1.6,1.4-3.3,2.1-5c0.8-2,1.4-3.9,1.8-5.6c0.3-1.4,0.6-2.7,0.7-3.9c0.3-2.9,0.2-5.6-0.4-7.9c0-0.1,0-0.2-0.1-0.3
			c-0.6-2.3-1.5-4.2-2.6-5.7v0c-0.1-0.1-0.1-0.2-0.2-0.3c-1.2-1.6-2.6-2.7-4.2-3.5c-1.6-0.7-3.1-1-4.6-0.8c-0.9,0.1-1.7,0.3-2.6,0.5
			c-2.8,0.7-5.5,2.1-8.2,4c-1.8,1.3-3.6,2.8-5.4,4.4c-1.7,1.5-3.3,3.2-4.9,5.1c-3.4,3.8-6.7,8.2-9.9,13.2c-0.4,0.6-0.8,1.3-1.2,1.9
			c-2.2,3.5-4.4,7.2-6.5,11h0c-0.5,0.9-1,1.9-1.6,2.8c-3.5,6.4-6.5,12.7-9,18.8c-2.5,6.1-4.4,11.8-5.7,17.1c-1.3,5.3-2,10-2.1,14.2
			c-0.1,4.2,0.5,7.6,1.8,10.3c1.3,2.7,3.3,4.5,6,5.4c2.7,0.9,6.3,0.8,10.5-0.4c3.9-1.1,7.7-3,11.5-5.7c3.7-2.7,7.3-5.8,10.7-9.3
			c3.4-3.5,6.5-7.3,9.5-11.3c1.6-2.1,3-4.2,4.4-6.3c-0.3,0.8-0.6,1.5-0.8,2.2c-0.6,1.7-0.8,2.7-0.8,3.1c0.1,0.8,0.5,1.6,1.2,2.5
			c0.7,0.9,1.6,1.7,2.5,2.3c0.9,0.7,1.8,1.1,2.6,1.3c0.8,0.2,1.4,0.1,1.6-0.4c0.3-0.3,0.8-1.5,1.5-3.4c0.7-1.9,1.6-4.2,2.7-6.8
			c1-1.6,2.2-3.6,3.6-5.7c1.4-2.2,2.8-4.3,4.3-6.6c1.5-2.2,2.9-4.4,4.4-6.5c1.5-2.1,2.8-3.9,4-5.5c1.2-1.6,2.2-2.8,3-3.6
			c0.8-0.9,1.3-1.2,1.6-0.9c0.2,0.2,0.1,0.7-0.1,1.6c-0.3,0.9-0.7,1.9-1.2,3.2c-1,2.4-2.1,4.7-3.4,7c-1.3,2.3-2.5,4.8-3.5,7.4
			c-0.8,1.9-1.4,3.6-1.9,5.3c-0.5,1.6-0.6,3.1-0.5,4.4c0,0.8,0.3,1.5,0.9,2c0.6,0.6,1.3,1,2.1,1.4c0.8,0.4,1.7,0.7,2.6,0.8
			c0.9,0.2,1.7,0.3,2.3,0.2c1.2-0.1,2.5-0.8,4-2.1c1.5-1.3,3.1-3,4.7-5.1c1.6-2.1,3.3-4.4,4.9-7c0-0.1,0.1-0.1,0.1-0.2
			c0,0.7,0,1.3,0.1,1.9c0.1,0.9,0.5,1.8,1.3,2.6c0.8,0.8,1.7,1.5,2.8,2.2c1.1,0.6,2.2,1.2,3.4,1.6c1.2,0.4,2.2,0.7,3.1,0.9
			c0.7,0.1,1.7,0.2,2.9,0.1c1.2-0.1,2.2-0.2,3-0.5c1.4-0.5,3-1.4,4.5-2.6c1.6-1.3,2.8-2.5,3.8-3.6c1.2-1.2,2.3-2.6,3.6-4.2
			c1.1-1.5,2.3-3,3.4-4.5c0,0.7,0,1.5,0.1,2.1c0.1,0.9,0.5,1.8,1.3,2.7c0.8,0.9,1.8,1.6,2.9,2.3c1.1,0.7,2.3,1.3,3.4,1.8
			c1.2,0.5,2.2,0.8,3.1,1c0.7,0.2,1.7,0.3,2.9,0.3c1.2,0,2.2-0.1,3-0.3c1.5-0.4,3-1.2,4.5-2.4c1.6-1.2,2.9-2.3,3.9-3.4
			c1.2-1.1,2.3-2.5,3.6-4c1.2-1.5,2.4-3.1,3.6-4.6c1.2-1.6,2.3-3.1,3.3-4.7c1-1.5,2-3,2.8-4.3c1.2-2,2.4-4,3.5-5.8
			c1.1-1.8,2-3.4,2.8-4.7c0.5-0.7,1-1.5,1.6-2.4c1-1.4,2-2.8,3-4c0.5,0.3,1,0.6,1.4,0.8c0.4,0.2,0.7,0.3,0.9,0.4
			c0.2,0.1,0.3,0.3,0.3,0.5c0,0.2-0.1,0.5-0.4,0.9c-2.5,3.8-4.5,7.2-6.1,10.3c-1.6,3.1-2.8,5.9-3.7,8.2c-0.9,2.4-1.5,4.4-1.8,6.1
			c-0.3,1.7-0.5,3-0.4,3.9c0,0.8,0.4,1.5,1.1,2.1c0.7,0.6,1.6,1.1,2.7,1.6c1,0.5,2.1,0.8,3.1,1.1c1.1,0.3,2,0.4,2.6,0.5
			c1.2,0.1,2.5-0.5,4.1-1.6c1.5-1.1,3.1-2.6,4.8-4.5c1.7-1.9,3.4-4,5.1-6.4c0.4-0.5,0.7-1.1,1.1-1.6c-0.3,1-0.5,1.9-0.7,2.8
			c-0.3,1.5-0.4,2.9-0.3,4.1c0,0.8,0.3,1.5,0.8,2.1c0.5,0.6,1.1,1.2,1.9,1.6c0.7,0.5,1.5,0.9,2.4,1.1c0.9,0.3,1.6,0.5,2.3,0.5
			c1.2,0.1,2.5-0.4,4.1-1.5c1.5-1.1,3.1-2.5,4.8-4.3c1.6-1.8,3.2-3.8,4.9-6c0,0.5,0,1.1,0.1,1.6c0.1,0.9,0.5,1.9,1.3,2.8
			c0.8,0.9,1.8,1.8,2.9,2.7c1.1,0.8,2.3,1.5,3.5,2.1c1.2,0.6,2.2,1.1,3.2,1.4c0.7,0.3,1.7,0.4,2.9,0.6c1.2,0.1,2.2,0.1,3,0
			c1.5-0.3,3-0.9,4.6-1.9c1.6-1,2.9-2,3.9-3c1.2-1,2.4-2.2,3.6-3.6c1-1.2,2.1-2.4,3.1-3.6c0,0.6,0,1.3,0,1.9
			c0.2,1.9,1.1,3.6,2.6,5.1c1.5,1.5,3.2,2.7,4.9,3.7c0.7,0.4,1.5,0.7,2.4,0.9c0.9,0.2,1.7,0.3,2.5,0.2c0.7,0,1.6-0.4,2.5-1
			c0.9-0.6,1.8-1.3,2.7-2.1c0.9-0.8,1.7-1.6,2.5-2.3c0.8-0.7,1.4-1.3,1.9-1.8c0.6-0.5,1.2-1.1,1.7-1.7c0.6-0.6,1.1-1.2,1.6-1.8
			c-0.1,0.4-0.2,0.8-0.2,1.1c0,0.4-0.1,0.7-0.1,1.1c-0.1,1.2-0.2,2.4-0.1,3.5c0.1,1.1,0.3,2.1,0.7,3c0.4,0.9,1,1.6,1.8,2.2
			c0.8,0.6,1.8,0.9,3.1,1c1.2,0.1,2.6-0.4,4.2-1.4c1.6-1,3.2-2.4,4.9-4.1c1.4-1.4,2.8-3,4.3-4.7c0,0.1,0,0.3,0,0.4
			c0.2,1.9,1.1,3.6,2.6,5.2c1.5,1.6,3.2,2.9,4.9,4c0.7,0.4,1.5,0.8,2.3,1.1c0.9,0.3,1.7,0.4,2.5,0.4c0.7,0,1.5-0.3,2.5-0.8
			c0.9-0.5,1.8-1.2,2.7-1.9c0.9-0.7,1.8-1.4,2.5-2.2c0.8-0.7,1.4-1.3,1.9-1.7c0.8-0.6,1.5-1.3,2.2-2c0.7-0.7,1.4-1.5,2.1-2.2
			c-0.3,1.1-0.4,2.1-0.6,3c-0.1,0.9-0.2,1.8-0.1,2.7c0.1,0.8,0.4,1.5,0.9,2.2c0.5,0.7,1.1,1.3,1.9,1.9c0.7,0.6,1.5,1.1,2.4,1.5
			c0.8,0.4,1.6,0.7,2.3,0.9c1.2,0.3,2.5,0,4.1-0.8c1.5-0.8,3.1-2,4.8-3.5c1.6-1.5,3.3-3.3,5-5.3c0.3-0.3,0.6-0.7,0.9-1.1
			c0,0.2-0.1,0.4-0.2,0.6c-0.6,2.2-0.8,4.2-0.7,5.9c0,0.8,0.3,1.5,0.8,2.2c0.5,0.7,1.1,1.4,1.9,2c0.7,0.6,1.5,1.2,2.3,1.6
			c0.9,0.4,1.6,0.8,2.3,1c1.2,0.3,2.5,0.1,4-0.7c1.5-0.8,3.1-1.9,4.7-3.4c1.2-1.1,2.5-2.4,3.8-3.8c-0.4,1.1-0.6,1.8-0.5,2.2
			c0.1,0.8,0.5,1.8,1.2,3c0.7,1.2,1.6,2.3,2.5,3.3c0.9,1,1.8,1.8,2.6,2.4c0.9,0.6,1.4,0.7,1.7,0.3c0.3-0.2,0.8-1.2,1.5-2.8
			c0.7-1.6,1.6-3.5,2.8-5.6c1-1.2,2.2-2.6,3.6-4.2c1.4-1.6,2.8-3.1,4.3-4.7c1.5-1.6,3-3.1,4.4-4.5c1.5-1.4,2.8-2.7,4-3.8
			c1.2-1.1,2.2-1.9,3-2.4c0.8-0.5,1.3-0.6,1.6-0.3c0.2,0.3,0.1,0.8-0.1,1.5c-0.3,0.8-0.7,1.7-1.2,2.7c-1,1.9-2.2,3.7-3.4,5.5
			c-1.3,1.8-2.5,3.7-3.5,5.9c-0.8,1.5-1.4,3-1.9,4.4c-0.5,1.4-0.6,2.8-0.5,4.1c0,0.8,0.3,1.6,0.9,2.4c0.6,0.8,1.3,1.6,2.1,2.3
			c0.8,0.7,1.7,1.3,2.6,1.9c0.9,0.6,1.7,1,2.4,1.2c1.2,0.4,2.5,0.2,4-0.4c1.5-0.7,3.1-1.7,4.7-3.1c1.3-1.1,2.6-2.4,4-3.8
			c0,0.2,0,0.4,0,0.6c0.2,1.9,1.1,3.8,2.6,5.6c1.5,1.8,3.1,3.4,4.9,4.7c0.7,0.5,1.4,1,2.3,1.4c0.9,0.4,1.7,0.7,2.5,0.7
			c0.7,0.1,1.4,0,2.1-0.3c0.7-0.3,1.5-0.7,2.2-1.1c0.8-0.5,1.5-0.9,2.2-1.5c0.7-0.5,1.3-1,1.9-1.4c-1,2.2-2,4.3-3.1,6.5
			c-3.2,1.2-6,2.6-8.5,4c-2.5,1.5-4.8,3.6-6.7,6.3c-0.7,1.1-1.2,2.4-1.4,4c-0.2,1.5-0.1,3.1,0.1,4.6c0.3,1.6,0.8,3,1.6,4.4
			s1.8,2.5,3,3.4c1.2,0.9,2.6,1.3,4.2,1.4c1.6,0.1,3.4-0.4,5.3-1.5c0.7-0.7,1.3-1.3,1.8-1.9c0.5-0.6,1-1.3,1.5-2.1
			c0.5-0.8,1-1.8,1.7-3c0.6-1.2,1.4-2.8,2.3-4.6c1.2-2.5,2.4-4.8,3.5-6.9c1.1-2.1,2.1-4,3-5.7c3.5-1.9,6.9-4,10.2-6.2
			c3.3-2.2,6.6-5,9.9-8.2c1.5-1.5,3-3,4.3-4.5c1.3-1.5,2.4-2.9,3.2-4.1C638.6,489.1,638.6,488.6,638.5,488.2z M416.8,462.8
			c1.1-1.5,2.3-2.9,3.4-4.1c1.1-1.2,2.2-2.2,3.2-2.9c1-0.7,1.9-1,2.6-1c0.6,0.1,0.8,0.4,0.7,0.9c-0.1,0.5-0.4,1.1-0.9,1.8
			c-0.5,0.7-1.1,1.4-1.9,2.1c-0.7,0.7-1.5,1.4-2.2,2.1c-1.8,1.6-3.3,2.9-4.7,3.8c-1.4,0.9-2.5,1.6-3.5,2.1
			C414.6,465.9,415.7,464.4,416.8,462.8z M332.4,468.8c1.1-1.7,2.3-3.2,3.4-4.5c1.1-1.3,2.2-2.4,3.2-3.2c1-0.8,1.9-1.2,2.6-1.3
			c0.6,0,0.8,0.3,0.7,0.8c-0.1,0.5-0.4,1.1-0.9,1.9c-0.5,0.7-1.1,1.5-1.8,2.4c-0.7,0.8-1.5,1.6-2.2,2.3c-1.8,1.8-3.3,3.3-4.7,4.4
			c-1.3,1.1-2.5,1.9-3.4,2.5C330.2,472.2,331.3,470.5,332.4,468.8z M300.4,473.7c1.1-1.7,2.3-3.3,3.4-4.7c1.1-1.4,2.2-2.5,3.2-3.4
			c1-0.9,1.8-1.3,2.6-1.4c0.6,0,0.8,0.3,0.7,0.8c-0.1,0.5-0.4,1.2-0.9,1.9c-0.5,0.7-1.1,1.6-1.8,2.4c-0.7,0.9-1.5,1.7-2.2,2.4
			c-1.7,1.9-3.3,3.4-4.6,4.6c-1.3,1.1-2.5,2-3.4,2.6C298.2,477.2,299.3,475.4,300.4,473.7z M460.6,457.1c-0.2,0.9-0.6,1.9-1.2,3
			c-0.6,1.1-1.4,2.2-2.2,3.2c-0.9,1-1.5,1.7-2,2.2c-0.3,0.3-0.4,0.5-0.3,0.6c0.1,0.1,0.3,0.2,0.7,0.3c0.4,0.1,0.8,0.1,1.3,0
			c0.5,0,1-0.1,1.6-0.2c-0.5,1.1-1,2.2-1.5,3.4c-1.4,1.4-3,2.9-4.7,4.4c-1.7,1.6-3.3,3-4.9,4.3c-1.6,1.3-3,2.4-4.2,3.3
			c-1.2,0.9-2.1,1.3-2.6,1.4c-0.7,0.1-1.1-0.1-1.3-0.7c-0.2-0.6-0.2-1.3-0.1-2.2c0.1-0.9,0.4-1.8,0.7-2.7c0.3-0.9,0.6-1.8,0.9-2.5
			c0.4-1.1,1-2.4,1.9-3.8c0.9-1.4,1.9-2.9,3.1-4.4c1.2-1.5,2.4-2.9,3.7-4.3c1.3-1.4,2.6-2.6,3.9-3.7c1.2-1.1,2.4-1.9,3.5-2.5
			c1.1-0.6,2-0.8,2.8-0.7C460.5,455.7,460.7,456.2,460.6,457.1z M504.6,460.5c-0.2,0.9-0.6,1.8-1.2,2.9c-0.6,1.1-1.3,2.1-2.2,3.1
			c-0.8,1-1.5,1.6-2,2.1c-0.3,0.2-0.4,0.4-0.3,0.6c0.1,0.2,0.4,0.3,0.9,0.4c0.4,0.1,0.9,0.1,1.5,0.1c0.6,0,1.2-0.1,1.8-0.2
			c-0.3,0.8-0.7,1.6-1,2.5c-1.4,1.4-3,2.8-4.8,4.3c-1.8,1.5-3.5,3-5.2,4.3c-1.7,1.3-3.2,2.4-4.5,3.3c-1.3,0.9-2.2,1.3-2.7,1.4
			c-0.7,0.1-1.2-0.2-1.3-0.8c-0.1-0.6-0.2-1.3,0-2.2c0.1-0.8,0.3-1.7,0.7-2.7c0.3-0.9,0.6-1.7,0.9-2.4c0.4-1.1,1-2.3,1.9-3.7
			c0.9-1.4,1.9-2.8,3.1-4.2c1.1-1.4,2.4-2.8,3.7-4.1c1.3-1.3,2.6-2.4,3.8-3.4c1.2-1,2.4-1.8,3.5-2.3c1.1-0.5,2-0.7,2.8-0.5
			C504.5,459.1,504.8,459.6,504.6,460.5z M592.5,524.7c-0.4,0.8-0.9,1.5-1.3,2.3c-1.2,1.8-2.1,3.2-2.8,4.1c-0.7,0.9-1.3,1.1-1.8,0.7
			c-0.7-0.6-1-1.3-0.9-2c0.1-0.7,0.5-1.5,1.1-2.2c0.6-0.8,1.3-1.5,2.2-2.1c0.9-0.7,1.7-1.2,2.5-1.7c0.8-0.5,1.6-1,2.4-1.5
			C593.4,523,593,523.9,592.5,524.7z M613.3,480.3c-0.2,0.8-0.6,1.8-1.2,2.7c-0.6,1-1.3,1.9-2.2,2.7c-0.8,0.8-1.5,1.4-2,1.7
			c-0.5,0.3-0.4,0.6,0.1,0.9c0.6,0.3,1.3,0.4,2.2,0.6c-0.4,0.7-0.8,1.5-1.2,2.2c-0.4,0.7-0.7,1.5-1.1,2.3c-1.3,1-2.8,2.1-4.3,3.1
			c-1.5,1-2.9,2-4.3,2.8c-1.4,0.8-2.5,1.5-3.6,2c-1,0.5-1.7,0.7-2.1,0.6c-0.7-0.1-1.2-0.4-1.3-1c-0.2-0.6-0.2-1.3-0.1-2.2
			c0.1-0.8,0.3-1.7,0.6-2.5c0.3-0.9,0.6-1.6,0.9-2.3c0.4-1,1-2.2,1.9-3.4c0.9-1.2,1.9-2.5,3-3.7c1.1-1.2,2.3-2.4,3.6-3.5
			c1.3-1.1,2.5-2,3.8-2.8c1.2-0.8,2.4-1.4,3.5-1.7c1.1-0.4,2-0.4,2.7-0.1C613.2,478.9,613.5,479.5,613.3,480.3z"/>
	</g>
</g>
</svg>
