<?xml version="1.0" encoding="utf-8"?>
<!-- Generator: Adobe Illustrator 21.1.0, SVG Export Plug-In . SVG Version: 6.00 Build 0)  -->
<svg version="1.1" id="Layer_1" xmlns="http://www.w3.org/2000/svg" xmlns:xlink="http://www.w3.org/1999/xlink" x="0px" y="0px"
	 viewBox="0 0 800 800" style="enable-background:new 0 0 800 800;" xml:space="preserve">
<style type="text/css">
	.st0{fill:#0B0B47;}
	.st1{fill:#FFFFFF;}
</style>
<rect class="st0" width="800" height="800"/>
<g>
	<g>
		<path class="st1" d="M619.5,220.2c-4,0-7.9,0.5-11.7,1.4c19.8,20.2,32.1,47.9,32.1,78.5c0,6.4-0.5,12.6-1.5,18.7
			c18.9-7.5,32.2-25.9,32.2-47.5C670.6,243,647.7,220.2,619.5,220.2z M378.1,436.1c-1.1-3.4-5.1-5.7-8.5-4.6
			c-3.4,1.1-5.7,5.1-4.6,8.5c1.1,3.4,5.1,5.7,8.5,4.6C377,443.4,379.2,439.5,378.1,436.1z M378.1,436.1c-1.1-3.4-5.1-5.7-8.5-4.6
			c-3.4,1.1-5.7,5.1-4.6,8.5c1.1,3.4,5.1,5.7,8.5,4.6C377,443.4,379.2,439.5,378.1,436.1z M378.1,436.1c-1.1-3.4-5.1-5.7-8.5-4.6
			c-3.4,1.1-5.7,5.1-4.6,8.5c1.1,3.4,5.1,5.7,8.5,4.6C377,443.4,379.2,439.5,378.1,436.1z M378.1,436.1c-1.1-3.4-5.1-5.7-8.5-4.6
			c-3.4,1.1-5.7,5.1-4.6,8.5c1.1,3.4,5.1,5.7,8.5,4.6C377,443.4,379.2,439.5,378.1,436.1z M378.1,436.1c-1.1-3.4-5.1-5.7-8.5-4.6
			c-3.4,1.1-5.7,5.1-4.6,8.5c1.1,3.4,5.1,5.7,8.5,4.6C377,443.4,379.2,439.5,378.1,436.1z M378.1,436.1c-1.1-3.4-5.1-5.7-8.5-4.6
			c-3.4,1.1-5.7,5.1-4.6,8.5c1.1,3.4,5.1,5.7,8.5,4.6C377,443.4,379.2,439.5,378.1,436.1z M378.1,436.1c-1.1-3.4-5.1-5.7-8.5-4.6
			c-3.4,1.1-5.7,5.1-4.6,8.5c1.1,3.4,5.1,5.7,8.5,4.6C377,443.4,379.2,439.5,378.1,436.1z M378.1,436.1c-1.1-3.4-5.1-5.7-8.5-4.6
			c-3.4,1.1-5.7,5.1-4.6,8.5c1.1,3.4,5.1,5.7,8.5,4.6C377,443.4,379.2,439.5,378.1,436.1z M378.1,436.1c-1.1-3.4-5.1-5.7-8.5-4.6
			c-3.4,1.1-5.7,5.1-4.6,8.5c1.1,3.4,5.1,5.7,8.5,4.6C377,443.4,379.2,439.5,378.1,436.1z M378.1,436.1c-1.1-3.4-5.1-5.7-8.5-4.6
			c-3.4,1.1-5.7,5.1-4.6,8.5c1.1,3.4,5.1,5.7,8.5,4.6C377,443.4,379.2,439.5,378.1,436.1z M378.1,436.1c-1.1-3.4-5.1-5.7-8.5-4.6
			c-3.4,1.1-5.7,5.1-4.6,8.5c1.1,3.4,5.1,5.7,8.5,4.6C377,443.4,379.2,439.5,378.1,436.1z M432.7,586.8l-51.8,23.3v21.3
			c6.3,0.5,12.8,0.8,19.2,0.8c17.1,0,33.8-1.8,49.8-5.2L432.7,586.8z M309.8,587.4l-9.2,23.1c18.8,8.6,38.8,14.9,59.9,18.4v-18.7
			L309.8,587.4z"/>
	</g>
	<g>
		<path class="st1" d="M628.3,321.4l-90.9,26.5c-6.8,2.3-14.2-1.7-15.9-9.1l-22.2-76.2c-1.7-6.2,2.3-13.7,9.1-15.4l65-18.9
			c-43.5-45.7-105-74.2-173.2-74.2c-132,0-239.1,107-239.1,239.1c0,89,48.6,166.6,120.7,207.7l52-130.6l19.3,7.4l-37,93.3l43.8,19.9
			V479.3h20.5v112.1l44.9-20.5l-39.8-92.7l18.8-8l65.8,151.6c97.9-29.9,169.1-121,169.1-228.7C639.2,368.1,635.4,344,628.3,321.4z
			 M436.5,239.9c2.8,0,5,2.3,5,5c0,2.8-2.2,5-5,5c-2.8,0-5-2.2-5-5C431.5,242.1,433.7,239.9,436.5,239.9z M406,202.4
			c3.3,0,6,2.7,6,6c0,3.3-2.7,6-6,6c-3.3,0-6-2.7-6-6C400,205.1,402.7,202.4,406,202.4z M374.3,261.1l5.1,17.5l-32.2,9.4l-5.1-17.5
			L374.3,261.1z M320.9,276.5l5.1,17.5l-18.6,5.4l-5.1-17.5L320.9,276.5z M272.8,230.4c2.7,0,4.9,2.2,4.9,4.9c0,2.7-2.2,4.9-4.9,4.9
			c-2.7,0-4.9-2.2-4.9-4.9C267.9,232.6,270.1,230.4,272.8,230.4z M255.6,459.3c-3.2,0-5.7-2.6-5.7-5.7c0-3.1,2.6-5.7,5.7-5.7
			s5.7,2.6,5.7,5.7C261.3,456.7,258.7,459.3,255.6,459.3z M208,364.9l10.8-3.4l-8-27.9l-2.8,0.6l-2.9-10.8l17.1-5.1l15.4-4l2.3-1.1
			l3.4,10.8l-2.9,1.1l8,27.9l12.5-3.4l18.2,63.7L208,364.9z M305.3,433.2c-11,0-19.9-8.9-19.9-19.9c0-11,8.9-19.9,19.9-19.9
			c11,0,19.9,8.9,19.9,19.9C325.2,424.3,316.3,433.2,305.3,433.2z M420.2,404.2l-24.5,51.2l-30.7,9.1l-22.2-6.8l-5.1-17.6l14.2-19.3
			l13.1-4l-6.3-22.2l96.1-28.4l7.4,25.6L420.2,404.2z M346.2,387.7l-21.6-8l-42.1,12.5l-13.1-45.5l42.1-12l13.7-18.8l10.2-2.8
			L324,275.6l12.5-3.4l11.4,37.6l97.3-28.5l20.5,71.7L346.2,387.7z M456.6,275.6l30.2-12.5l24.4,83.1l-33,5.7L456.6,275.6z
			 M482.6,493c0-5.5-7.6-14.2-12.4-14.2c4.8,0,12.4-8.7,12.4-14.2c0,5.5,7.6,14.2,12.4,14.2C490.2,478.7,482.6,487.4,482.6,493z
			 M518.1,427.2c-3.8,0-6.9-3.1-6.9-6.9s3.1-6.9,6.9-6.9c3.8,0,6.9,3.1,6.9,6.9S522,427.2,518.1,427.2z M588.7,385.7
			c0-4.1-5.6-10.5-9.1-10.5c3.5,0,9.1-6.5,9.1-10.5c0,4.1,5.6,10.5,9.1,10.5C594.3,375.1,588.7,381.6,588.7,385.7z"/>
	</g>
	<g>
		<path class="st1" d="M98.1,413.3l8.6-3.8l-0.4-16.6l-8.8-3.4l-0.3-11.4l49.1,21.4l0,1.5l-47.9,23.9L98.1,413.3z M126.6,400.7
			l-11.7-4.5l0.2,9.5L126.6,400.7z"/>
		<path class="st1" d="M119.7,462.6c-1.9,0.4-3.8,0.3-5.7,0c-1.9-0.4-3.7-1.1-5.3-2.3c-1.6-1.1-3.1-2.7-4.3-4.6
			c-1.2-2-2.1-4.4-2.6-7.2c-0.2-1.3-0.4-2.7-0.4-4.2c0-1.5,0.1-3,0.2-4.5c0.2-1.5,0.4-2.9,0.8-4.3c0.3-1.4,0.8-2.7,1.3-3.8l10.5,1.2
			c-1,2.2-1.7,4.5-2.1,7c-0.4,2.5-0.4,4.8,0,7.1c0.4,1.9,1,3.2,2,3.9c0.9,0.7,2,0.9,3.2,0.7c0.6-0.1,1.2-0.3,1.7-0.6
			c0.5-0.3,1-0.8,1.4-1.5c0.4-0.7,0.9-1.7,1.2-2.9s0.8-2.8,1.2-4.7c0.5-2.2,1.1-4.2,1.8-5.8c0.7-1.6,1.6-3,2.6-4.1
			c1-1.1,2.1-2,3.4-2.6c1.2-0.6,2.6-1.1,4-1.3c1.7-0.3,3.5-0.3,5.2,0.1c1.8,0.4,3.4,1.2,4.9,2.3c1.5,1.1,2.9,2.7,4,4.6
			c1.2,1.9,2,4.3,2.5,7c0.2,1.3,0.4,2.6,0.4,3.9c0,1.3,0,2.6-0.2,3.8c-0.1,1.2-0.3,2.4-0.6,3.4c-0.2,1.1-0.5,2-0.9,2.8l-10.3-0.9
			c0.3-0.8,0.7-1.6,1-2.6c0.3-0.9,0.5-1.9,0.7-2.9c0.2-1,0.3-2,0.4-2.9c0.1-1,0-1.9-0.1-2.7c-0.4-2-1-3.4-2-4.1
			c-0.9-0.7-1.9-1-2.9-0.8c-0.8,0.1-1.4,0.4-1.9,0.8s-0.9,1-1.3,1.8c-0.3,0.8-0.7,1.7-0.9,2.9c-0.3,1.1-0.6,2.5-1,4.1
			c-0.5,2.4-1.2,4.4-1.9,6.1c-0.7,1.7-1.6,3.1-2.6,4.2c-1,1.1-2.1,1.9-3.3,2.6S121.2,462.3,119.7,462.6z"/>
		<path class="st1" d="M152.5,487l-35.7,12.6l-3.7-10.5l35.7-12.6l-4.8-13.6l9.7-3.4l13.4,37.7l-9.7,3.4L152.5,487z"/>
		<path class="st1" d="M139.9,548l9.7-14.8c-0.2-0.3-0.4-0.6-0.5-0.8c-0.1-0.2-0.3-0.5-0.5-0.8c-0.4-0.7-0.7-1.3-1-1.9
			c-0.3-0.5-0.6-1.1-0.9-1.8l-13.8,7.7l-5.4-9.7l41.6-23.2c1.2,1.7,2.4,3.5,3.6,5.4c1.2,1.9,2.6,4.1,3.9,6.6c1.8,3.3,3,6.3,3.6,9
			c0.6,2.7,0.6,5.1,0.2,7.3c-0.4,2.2-1.3,4.1-2.7,5.7c-1.3,1.6-2.9,3-4.9,4c-2.5,1.4-5.2,2.1-8,2s-5.5-0.9-8.2-2.4l-10.7,18.9
			L139.9,548z M167,530.7c1.8-1,2.8-2.4,3-4.2s-0.2-3.8-1.3-5.9c-0.4-0.8-0.8-1.4-1.1-1.9c-0.3-0.5-0.8-1.1-1.3-1.7l-11.6,6.4
			c0.3,0.7,0.5,1.3,0.8,1.7c0.2,0.4,0.5,0.9,0.8,1.5c1.3,2.3,2.9,3.9,4.7,4.7C162.9,532.1,164.9,531.9,167,530.7z"/>
		<path class="st1" d="M202.9,591.6c-2.7,2.3-5.6,3.9-8.7,5c-3.1,1-6.2,1.4-9.3,1.2c-3.1-0.2-6.1-1.1-9-2.6c-2.9-1.5-5.6-3.7-8-6.5
			c-2.4-2.8-4.1-5.8-5.1-9c-1-3.1-1.3-6.2-1-9.3c0.3-3,1.3-6,2.8-8.8c1.6-2.8,3.7-5.4,6.4-7.6c2.7-2.3,5.6-3.9,8.7-5
			c3.1-1,6.2-1.4,9.3-1.2c3.1,0.2,6.1,1.1,9,2.6c2.9,1.5,5.6,3.7,8,6.6c2.4,2.8,4.1,5.8,5,8.9c1,3.1,1.3,6.2,1,9.2
			c-0.3,3-1.3,6-2.9,8.8C207.8,586.7,205.6,589.3,202.9,591.6z M195.2,582.4c1.7-1.4,3-2.9,4-4.6c1-1.6,1.6-3.3,1.9-5
			c0.3-1.7,0.2-3.4-0.2-5c-0.4-1.7-1.3-3.2-2.5-4.7c-1.2-1.4-2.6-2.5-4.2-3.2c-1.6-0.7-3.2-1.1-5-1.1s-3.5,0.3-5.3,1
			c-1.8,0.7-3.5,1.8-5.2,3.2c-1.6,1.4-3,2.9-4,4.5c-1,1.6-1.6,3.3-1.9,5c-0.3,1.7-0.2,3.4,0.2,5.1c0.4,1.7,1.3,3.2,2.5,4.7
			c1.2,1.5,2.6,2.6,4.2,3.3s3.2,1.1,5,1.1c1.7,0,3.5-0.4,5.3-1.1C191.9,584.8,193.6,583.8,195.2,582.4z"/>
		<path class="st1" d="M228.4,644.3l-6.8-38.4l-15.5,19.8l-8.8-6.9l30.1-38.4l1.3,0.7l6.6,38l15.4-19.6l8.8,6.9l-30.1,38.4
			L228.4,644.3z"/>
		<path class="st1" d="M299.2,654.2c-1.6,3.2-3.6,5.9-6,8c-2.4,2.2-5.1,3.8-8,4.8c-2.9,1-6.1,1.4-9.3,1.2c-3.3-0.2-6.6-1.1-9.9-2.8
			c-3.3-1.6-6.1-3.7-8.2-6.2c-2.1-2.5-3.7-5.2-4.6-8.1c-0.9-2.9-1.2-6-0.9-9.2c0.3-3.2,1.3-6.4,2.8-9.6c1.6-3.2,3.6-5.9,6-8.1
			c2.4-2.2,5.1-3.8,8-4.8c2.9-1,6-1.4,9.3-1.2c3.3,0.2,6.6,1.1,10,2.8s6.1,3.7,8.2,6.2c2.1,2.5,3.7,5.2,4.6,8.1
			c0.9,2.9,1.2,6,0.9,9.2C301.7,647.8,300.8,651,299.2,654.2z M288.5,648.9c1-2,1.6-3.9,1.8-5.8s0.2-3.7-0.3-5.4
			c-0.4-1.7-1.2-3.2-2.2-4.5c-1.1-1.4-2.5-2.5-4.2-3.3c-1.7-0.8-3.4-1.3-5.1-1.3c-1.7,0-3.4,0.3-5,1s-3,1.7-4.4,3.1
			c-1.4,1.4-2.5,3-3.5,5c-0.9,1.9-1.5,3.8-1.8,5.7c-0.3,1.9-0.2,3.7,0.2,5.4s1.2,3.2,2.2,4.6c1.1,1.4,2.5,2.5,4.2,3.3
			c1.7,0.9,3.5,1.3,5.2,1.3c1.7,0,3.4-0.3,5-1s3.1-1.7,4.4-3.1C286.4,652.5,287.6,650.8,288.5,648.9z"/>
		<path class="st1" d="M343.8,691l4.9-23.1l-16.9,13.3l-1.1-0.3l-9.2-19.5l-5.9,22.9l-10.5-2.5l13.4-46.6l1.5,0.2l14.8,31.8
			l27.1-21.8l1.4,0.5l-9,47.6L343.8,691z"/>
		<path class="st1" d="M371,694.5l3.7-48l11.1,0.9l-3.7,48L371,694.5z"/>
		<path class="st1" d="M438.2,690.5c-2,1.5-4.4,2.7-7.1,3.7c-2.7,0.9-5.4,1.5-8.2,1.6c-3.9,0.2-7.5-0.2-10.8-1.3
			c-3.3-1.1-6.1-2.6-8.6-4.7c-2.4-2.1-4.4-4.6-5.8-7.6c-1.4-3-2.2-6.2-2.4-9.8c-0.2-3.6,0.3-6.9,1.4-10c1.1-3.1,2.7-5.8,4.9-8.2
			c2.2-2.3,4.9-4.2,8-5.6s6.7-2.2,10.6-2.5c2.8-0.2,5.5,0.1,8,0.7c2.6,0.6,5,1.5,7.2,2.7l-2.9,9.6c-1.8-0.9-3.8-1.6-5.7-2.1
			c-2-0.5-3.9-0.6-5.9-0.5c-2.2,0.1-4.2,0.6-6,1.3c-1.8,0.8-3.3,1.8-4.4,3.1s-2.1,2.9-2.6,4.7c-0.6,1.8-0.8,3.9-0.7,6.1
			c0.1,2.2,0.6,4.2,1.3,5.9c0.8,1.7,1.8,3.2,3.1,4.4s2.9,2.1,4.7,2.6c1.8,0.6,3.9,0.8,6.1,0.7c2-0.1,4-0.5,6-1.3
			c2.1-0.7,4-1.7,5.8-2.9L438.2,690.5z"/>
		<path class="st1" d="M481.4,685l-5.5-7.7l-16.2,3.8l-1.5,9.3l-11,2.6l10.8-52.4l1.5-0.3l33.2,42L481.4,685z M463.2,659.7l-2,12.3
			l9.3-2.2L463.2,659.7z"/>
		<path class="st1" d="M503.1,678.1l-18.4-44.5l10.3-4.3l14.5,35.1l17.8-7.4l3.9,9.4L503.1,678.1z"/>
		<path class="st1" d="M572.6,624.8c1.1,1.6,1.8,3.3,2.2,5.2c0.4,1.9,0.4,3.8,0,5.8c-0.4,2-1.3,3.9-2.6,5.7
			c-1.3,1.9-3.2,3.6-5.6,5.2c-1.1,0.8-2.4,1.4-3.7,2c-1.4,0.6-2.8,1.1-4.2,1.5c-1.4,0.4-2.9,0.7-4.3,1c-1.4,0.2-2.8,0.3-4,0.3
			l-3-10.1c2.4,0.1,4.8-0.2,7.3-0.8c2.4-0.6,4.6-1.5,6.5-2.8c1.6-1.1,2.6-2.2,2.8-3.3c0.2-1.1,0-2.2-0.6-3.2
			c-0.3-0.5-0.7-0.9-1.2-1.3s-1.1-0.6-2-0.7c-0.8-0.1-1.9-0.1-3.1,0c-1.3,0.1-2.9,0.4-4.8,0.8c-2.2,0.4-4.2,0.6-6,0.6
			c-1.8,0-3.4-0.3-4.8-0.8c-1.4-0.5-2.6-1.2-3.7-2.1c-1.1-0.9-2-1.9-2.8-3.1c-1-1.5-1.6-3.1-1.9-4.9c-0.3-1.8-0.2-3.6,0.2-5.5
			c0.5-1.8,1.3-3.7,2.7-5.5c1.3-1.8,3.2-3.5,5.5-5.1c1.1-0.7,2.2-1.4,3.4-1.9c1.2-0.5,2.4-1,3.6-1.3c1.2-0.4,2.3-0.6,3.4-0.8
			c1.1-0.2,2-0.3,2.9-0.3l3.2,9.9c-0.8,0-1.8,0-2.7,0.1c-1,0.1-2,0.3-3,0.5c-1,0.2-1.9,0.5-2.9,0.8c-0.9,0.3-1.7,0.7-2.5,1.2
			c-1.7,1.1-2.7,2.3-3,3.4s-0.2,2.1,0.4,3c0.4,0.7,0.9,1.1,1.5,1.4c0.6,0.3,1.3,0.5,2.1,0.5c0.8,0,1.9-0.1,3-0.3
			c1.2-0.2,2.5-0.4,4.1-0.7c2.4-0.4,4.5-0.6,6.3-0.6c1.8,0,3.4,0.3,4.8,0.7c1.4,0.5,2.6,1.2,3.7,2.1
			C570.8,622.5,571.8,623.6,572.6,624.8z"/>
		<path class="st1" d="M610.5,577.3c2.5,2.6,4.3,5.3,5.5,8.4c1.2,3,1.8,6.1,1.8,9.2c0,3.1-0.7,6.2-2,9.2c-1.3,3-3.3,5.8-6,8.4
			c-2.7,2.6-5.6,4.4-8.6,5.6c-3.1,1.2-6.1,1.7-9.2,1.6c-3.1-0.1-6-0.9-9-2.3s-5.6-3.4-8-5.9c-2.5-2.6-4.3-5.3-5.5-8.4
			c-1.2-3-1.8-6.1-1.8-9.2c0-3.1,0.7-6.2,2-9.2c1.3-3,3.3-5.8,6-8.4c2.7-2.6,5.5-4.4,8.6-5.6c3-1.2,6.1-1.7,9.2-1.6
			c3.1,0.1,6.1,0.9,9,2.3C605.3,572.8,608,574.7,610.5,577.3z M601.9,585.6c-1.5-1.6-3.1-2.8-4.8-3.7c-1.7-0.9-3.4-1.4-5.1-1.6
			c-1.7-0.2-3.4,0-5,0.5c-1.6,0.5-3.1,1.5-4.5,2.8c-1.4,1.3-2.3,2.8-3,4.4c-0.6,1.6-0.9,3.3-0.8,5c0.1,1.7,0.6,3.4,1.4,5.2
			c0.8,1.7,2,3.4,3.5,5c1.5,1.5,3.1,2.8,4.8,3.6c1.7,0.9,3.4,1.4,5.1,1.6c1.7,0.2,3.4,0,5.1-0.5c1.7-0.6,3.2-1.5,4.5-2.8
			c1.4-1.3,2.4-2.8,3-4.4c0.6-1.6,0.8-3.3,0.7-5c-0.1-1.7-0.6-3.5-1.4-5.2C604.5,588.7,603.3,587.1,601.9,585.6z"/>
		<path class="st1" d="M657.7,546.2c0,2.5-0.5,5.1-1.4,7.8c-0.9,2.7-2.2,5.2-3.7,7.4c-2.2,3.2-4.8,5.8-7.7,7.7s-5.9,3.2-9,3.9
			c-3.1,0.6-6.3,0.6-9.5-0.1c-3.2-0.7-6.3-2.1-9.2-4.1c-2.9-2-5.3-4.5-7.1-7.2c-1.8-2.8-2.9-5.8-3.4-8.9c-0.5-3.2-0.3-6.4,0.5-9.8
			c0.8-3.4,2.3-6.6,4.6-9.9c1.6-2.3,3.4-4.3,5.5-5.9c2.1-1.6,4.2-3,6.5-4l5.8,8.2c-1.9,0.9-3.6,2-5.1,3.3c-1.6,1.3-2.9,2.7-4.1,4.3
			c-1.3,1.8-2.2,3.7-2.7,5.5s-0.6,3.7-0.3,5.4c0.3,1.7,1,3.4,2.1,5c1.1,1.6,2.5,3,4.4,4.3s3.7,2.1,5.5,2.6c1.8,0.5,3.6,0.5,5.4,0.2
			c1.7-0.3,3.4-1,5-2.1c1.6-1.1,3-2.6,4.3-4.4c1.1-1.6,2-3.5,2.7-5.5c0.7-2.1,1.1-4.2,1.2-6.3L657.7,546.2z"/>
		<path class="st1" d="M666.5,536.4l-42.8-22l5.1-9.9l42.8,22L666.5,536.4z"/>
		<path class="st1" d="M678.5,512.3l-45.1-16.7l10.6-28.6l9.6,3.5l-6.7,18.1l8.1,3l6.1-16.5l9.1,3.4L664,495l8.8,3.3l6.7-18.1
			l9.5,3.5L678.5,512.3z"/>
		<path class="st1" d="M660.6,439l37.2,7.3l-2.1,11l-37.2-7.3l-2.8,14.2l-10-2l7.7-39.3l10,2L660.6,439z"/>
		<path class="st1" d="M683.4,394.4l19,0.4l-0.2,11.2l-19.1-0.4l-29.4,16.3L654,409l18.7-9.4l-18.2-10.3l0.3-12.5L683.4,394.4z"/>
	</g>
	<g>
		<path class="st1" d="M178.5,201.7l8.3,7.3l11.3-12.8l7.6,6.7l-11.3,12.8l13.6,11.9l-7.6,8.7L163,203.4l20.8-23.6l7.9,7
			L178.5,201.7z"/>
		<path class="st1" d="M248,158.6c2.3,2.9,3.9,5.9,4.8,9.2c1,3.2,1.2,6.4,0.9,9.6c-0.4,3.2-1.4,6.3-3,9.3c-1.7,3-4,5.7-7,8
			c-3,2.4-6.2,4-9.4,4.9c-3.3,0.9-6.5,1.1-9.6,0.7c-3.1-0.4-6.1-1.5-9-3.3s-5.4-4-7.7-6.9c-2.3-2.9-3.9-5.9-4.8-9.2
			c-1-3.2-1.3-6.5-0.9-9.6c0.3-3.2,1.4-6.3,3-9.3c1.7-3,4-5.7,7.1-8.1c3-2.4,6.2-4,9.4-4.9c3.2-0.9,6.4-1.1,9.6-0.7
			c3.1,0.4,6.2,1.5,9,3.3C243.1,153.4,245.7,155.7,248,158.6z M238.3,166.2c-1.4-1.8-2.9-3.2-4.6-4.3c-1.7-1.1-3.4-1.8-5.1-2.2
			s-3.5-0.3-5.2,0.1c-1.7,0.4-3.4,1.2-5,2.4c-1.5,1.2-2.7,2.6-3.5,4.2s-1.2,3.3-1.3,5.1c-0.1,1.8,0.2,3.6,0.9,5.5
			c0.7,1.9,1.7,3.7,3.1,5.5c1.4,1.7,2.9,3.2,4.5,4.2c1.7,1.1,3.4,1.8,5.1,2.2c1.8,0.4,3.5,0.4,5.3,0c1.8-0.4,3.4-1.2,4.9-2.4
			c1.6-1.2,2.7-2.6,3.5-4.2c0.8-1.6,1.2-3.3,1.3-5.1c0.1-1.8-0.3-3.6-0.9-5.5C240.7,169.8,239.6,168,238.3,166.2z"/>
		<path class="st1" d="M296,161.7l-16.2-10.2l-1.8,19.2l-12.2,6.1l3.8-29.1l-26-15.5l12.3-6.1l16.3,10.2l1.7-19.2l12.1-6l-3.8,29.1
			l26,15.5L296,161.7z"/>
		<path class="st1" d="M344.1,146.3l-1.3,0.3L308.5,103l12.9-2.9l17,23.7l5.1-28.7l12.6-2.9L344.1,146.3z"/>
		<path class="st1" d="M400.3,139.5l-4.1-8.9l-17.2,0.8l-3.3,9.2l-11.7,0.5L385,89.9l1.6-0.1l25.7,49.1L400.3,139.5z M386.6,110.2
			l-4.4,12.2l9.8-0.5L386.6,110.2z"/>
		<path class="st1" d="M415.2,139.8l5.6-49.5l11.5,1.3l-4.4,39l19.8,2.2l-1.2,10.5L415.2,139.8z"/>
		<path class="st1" d="M451.4,144.6L464,96.4l11.2,2.9l-10,38l19.3,5.1l-2.7,10.2L451.4,144.6z"/>
		<path class="st1" d="M486.5,154.4l19.8-45.7l28.9,12.5l-4.2,9.7l-18.3-7.9l-3.5,8.2l16.7,7.2l-4,9.2l-16.7-7.2l-3.9,8.9l18.3,7.9
			l-4.2,9.7L486.5,154.4z"/>
		<path class="st1" d="M553.9,167.4l-10.8,16.5l-9.7-6.3l10.8-16.6l1.7-34.7l11.1,7.2l-1.9,21.6l19-10.4l10.9,7.1L553.9,167.4z"/>
	</g>
	<g>
		<circle class="st1" cx="144.3" cy="347.3" r="9.2"/>
	</g>
	<g>
		<circle class="st1" cx="174.3" cy="264.2" r="5.3"/>
	</g>
	<g>
		<circle class="st1" cx="593.9" cy="181.6" r="5.6"/>
	</g>
	<g>
		<path class="st1" d="M660.7,334.3c5,0,13-8,13-13c0,5,8,13,13,13c-5,0-13,8-13,13C673.7,342.3,665.7,334.3,660.7,334.3z"/>
	</g>
</g>
</svg>
