<?xml version="1.0" encoding="utf-8"?>
<!-- Generator: Adobe Illustrator 16.0.4, SVG Export Plug-In . SVG Version: 6.00 Build 0)  -->
<!DOCTYPE svg PUBLIC "-//W3C//DTD SVG 1.1//EN" "http://www.w3.org/Graphics/SVG/1.1/DTD/svg11.dtd">
<svg version="1.1" id="Layer_1" xmlns="http://www.w3.org/2000/svg" xmlns:xlink="http://www.w3.org/1999/xlink" x="0px" y="0px"
	 width="331.491px" height="427.785px" viewBox="234.254 86.109 331.491 427.785"
	 enable-background="new 234.254 86.109 331.491 427.785" xml:space="preserve">
<path d="M565.745,335.552l-0.06-1.3l-0.332-7.78l-0.068-1.517c0,0-0.551-11.701-0.547-11.75l0.008-0.001l0.03,0.005l-0.031-0.023
	l-0.011-0.008c0.016-0.526-0.434-10.964-0.434-10.964l-0.071-1.545l-1.537,0.205l-6.663,0.89
	c-4.948-15.24-12.092-29.487-21.062-42.372l-0.877-19.671l0.761-0.101l7.717-1.03l1.283-0.171l-0.06-1.299l-0.33-7.771l-0.651-14.96
	l-0.401-9.307l-0.062-1.547l-1.539,0.205l-8.36,1.116l-0.382-9.586l-0.369-9.34l-0.063-1.556l-1.548,0.207l-9.252,1.235
	l-26.298,3.509l-7.752,1.035l-1.294,0.172l0.061,1.309l0.374,7.812l0.551,11.339l-3.597,0.479
	c-23.828-13.778-51.488-21.667-80.991-21.667c-12.373,0-24.42,1.393-35.998,4.02l-0.639-10.833
	c-0.081-2.174,0.057-3.929,0.422-5.342c0.215-0.391,1.06-1.573,2.233-2.216c0.116-0.063,0.609-0.292,0.815-0.396
	c2.882-1.357,7.702-3.632,9.758-8.821l0.208-0.514l0.026-0.089l0.026-0.089l0.137-0.543c1.185-4.71-0.346-9.248-1.475-12.561
	c-0.192-0.576-0.364-1.078-0.466-1.417l-0.004-0.038l-1.763-6.128c-1.395-4.948-2.842-10.069-4.562-15.174l-0.013-0.026
	c-0.018-0.064-0.031-0.092-0.031-0.092l-0.028-0.062c-0.003-0.028-0.206-0.612-0.414-1.176c1.257-0.874,2.267-1.743,3.103-2.704
	c5.993-6.858,7.706-16.19,4.59-24.954c-2.535-7.123-8.887-12.325-17-13.914c-8.436-1.651-18.2-0.548-23.09,9.636
	c-3.425-0.97-8.972-1.323-11.725,1.327c-4.001,3.853-4.283,9.875-3.913,12.869c-2.293,3.054-3.174,6.74-2.518,10.517
	c-2.468,3.03-3.595,6.816-3.182,10.625c-0.862,0.831-2.358,2.566-3.02,5.183l-0.012,0.059L313.339,137
	c-0.335,1.991-0.181,5.148,0.037,6.855c-2.601,2.742-3.781,6.63-3.302,11.08l0.086,0.857c-2.859,3.244-3.858,8.053-2.464,12.208
	c1.46,4.226,6.912,5.257,6.912,5.257c0.006,0.543-0.369,2.32-0.079,3.525c0.965,4.019,3.152,7.909,7.869,12.012l0.775,21.392
	c-49.704,27.675-83.333,80.739-83.333,141.664c0,2.711,0.069,5.405,0.2,8.084c-4.129,6.814-6.07,14.32-5.753,22.407
	c0.001,0.01,0.004,0.247,0.004,0.247c0.005,0.038,3.418,73.884,3.418,73.884c0.416,10.555,4.817,19.652,12.717,26.298
	c7.899,6.638,17.62,9.404,28.119,8.004l26.906-3.591l5.793-0.772l0.272-0.036c25.817,17.377,56.907,27.521,90.368,27.521
	c17.784,0,34.896-2.874,50.906-8.168l0.129-0.018l14.83-1.979c7.426-0.99,14.062-3.44,19.799-7.298l0.134,3.073l0.064,1.557
	l1.537-0.204l9.225-1.231l14.841-1.979c10.866-1.449,19.975-5.977,27.078-13.441c5.047-5.301,8.334-11.341,9.777-17.907
	c0.065-0.219,0.422-1.478,0.629-3.871c0.205-2.471,0.226-3.59,0.141-5.448l-1.31-28.47l-0.42-9.177
	c9.424-20.546,14.685-43.397,14.685-67.48c0-5.383-0.27-10.7-0.782-15.948l1.312-0.177L565.745,335.552z M401.886,209.364
	c16.751,0,33.061,2.854,48.581,8.492c-2.28,1.027-4.445,2.214-6.473,3.583l-0.152-3.214l-0.073-1.546l-1.527,0.204l-9.195,1.228
	l-26.277,3.506l-5.354,0.714l-2.371,0.316l-6.797,0.907l-24.413,3.258l-0.776-13.169
	C378.363,210.802,390.012,209.364,401.886,209.364z M393.569,233.397l3.256,66.09c0.179,2.914,1.019,5.274,2.567,7.233
	c1.38,1.753,3.092,2.433,5.379,2.126l6.723-0.896l-3.403-76.49l26.276-3.507l1.031,22.028l2.542,54.44l22.366-2.984
	c6.217-0.83,8.634-3.814,7.853-9.665c-0.451-3.384-1.936-6.135-4.538-8.411c0,0-15.796-13.76-15.807-13.768
	c-5.431-4.8-8.606-10.436-9.45-16.763c-0.137-1.013-0.21-2.004-0.234-2.975c-0.146-6.812,2.481-12.649,7.841-17.391
	c5.212-4.712,11.946-7.653,20.026-8.731l30.846-4.106l-0.984-20.46l26.298-3.509l0.813,20.482l9.929-1.325l0.65,14.961l-9.769,1.303
	c0.396,8.849,2.381,53.459,2.383,53.469c0.179,4.985,2.216,7.166,6.608,7.057l1.628-0.036l0.667,14.939l-9.562,1.275
	c-7.042,0.938-12.924-0.24-17.482-3.517c-5.038-3.517-7.784-9.065-8.148-16.517L499.84,287l-2.338-52.415l-25.246,3.359
	c-6.919,0.923-6.58,3.463-6.453,4.42c0.194,1.453,0.988,2.826,2.45,4.196c0,0,19.566,18.495,19.567,18.504
	c6.252,5.96,9.901,12.572,10.849,19.668c0.104,0.778,0.179,1.551,0.214,2.31c0.384,7.315-2.249,13.679-7.857,18.92
	c-5.301,4.963-12.312,8.064-20.842,9.203l-67.376,8.991c-8.954,1.192-16.436-0.185-22.242-4.074
	c-6.438-4.265-9.887-11.094-10.255-20.291l-2.191-47.951l-6.009,0.803l-0.885-14.93L393.569,233.397z M424.376,370.809l-0.071-1.526
	l1.521-0.202l23.054-3.076l1.799-0.241l0.091,1.82l3.497,74.903l4.902-0.654l1.81-0.241l0.082,1.831l0.508,11.658l0.068,1.527
	l-1.518,0.201l-41.108,5.486c-8.981,1.198-16.494-0.185-22.312-4.093c-6.466-4.271-9.929-11.128-10.292-20.354l-2.203-48.121
	l-4.219,0.563l-1.809,0.242l-0.072-1.823l-0.506-11.659l-0.07-1.525l1.51-0.201l28.902-3.857l1.799-0.24l0.091,1.812l3.178,64.507
	c0.179,2.915,1.021,5.294,2.57,7.252c1.398,1.761,3.112,2.438,5.409,2.132l6.739-0.898L424.376,370.809z M317.315,165.283
	c-0.067-0.144-0.135-0.297-0.193-0.442c-0.268-0.794,0.019-2.502,1.032-2.857c2.799-0.326,6.594,2.508,9.252,1.552
	c0.626-2.526,1.253-5.053,1.871-7.568c-0.111-0.119-0.213-0.239-0.323-0.349c-2.741,0.194-6.418-0.479-9.001-1.747
	c-0.105-0.998-0.146-3.092,1.218-3.598c3.158-0.431,5.874,1.974,8.964,2.182c0.79-2.663,1.166-5.054,1.946-7.715l-1.784-0.417
	c-0.578,1.849-3.037,1.265-6.141,0.295c-1.772-2.837-0.8-5.977,1.87-7.488c4.727,1.164,5.971,1.373,5.193,3.901
	c0.572,0.143,1.4,0.301,1.973,0.444c0.163-0.136,1.554-5.875,2.182-8.392c-2.511-1.297-5.228,2.224-9.001-1.748
	c-0.422-1.518-0.059-3.293,1.523-4.668c2.788-0.267,5.502,1.26,8.094,3.099c0.164-0.136,0.317-0.271,0.481-0.398
	c0.66-2.493,1.32-4.975,1.981-7.458c-0.1-0.111-0.203-0.23-0.321-0.339c-2.469,0.091-6.438-0.973-8.753-1.952
	c-0.24-1.084-0.09-2.183,0.719-3.197c3.031,0.617,6.072,1.241,9.103,1.858c1.092-1.683,2.051-5.369,1.964-7.237
	c-0.101-0.111-0.211-0.229-0.322-0.339c-5.056,0.656-11.626,1.895-7.877-5.685c3.927-1.316,5.806,2.469,9.177,2.411
	c1.203-2.422,1.536-4.575,3.811-7.121c6.141-6.888,19.492-4.796,22.509,3.656c1.728,4.865,1.282,10.535-2.699,15.093
	c-1.847,2.107-7.232,3.723-7.401,5.816c0.938,2.661,1.882,5.312,2.838,7.97c2.351,6.957,4.208,14.085,6.21,20.936
	c0.721,2.471,2.452,6.362,1.848,8.771c-0.786,1.975-4.424,3.243-6.114,4.165c-3.708,2.031-6.346,5.713-7,8.109
	c-0.755,2.772-0.922,5.676-0.807,8.609l8.382,142.542c0.385,7.468-2.032,14.163-7.173,19.896c-5.108,5.69-11.995,9.148-20.479,10.28
	l-27.683,3.693l-0.65-14.95l20.193-2.694c6.807-0.908,9.823-5.042,9.506-12.995l-5.266-145.362c0,0-7.399-5.186-7.879-8.709
	c-0.339-2.541,2.599-5.624,1.808-8.113C323.177,166.447,320.237,165.867,317.315,165.283z M270.591,296.394
	c3.569-8.438,7.988-16.58,13.133-24.196c5.1-7.549,10.958-14.648,17.41-21.101c6.452-6.452,13.552-12.31,21.101-17.41
	c0.578-0.39,1.165-0.769,1.748-1.15l3.517,97.021c0.054,1.405-0.057,2.223-0.143,2.652c-0.182,0.062-0.415,0.104-0.753,0.148
	l-20.192,2.704l-7.716,1.029l-1.284,0.171l0.002,0.011l-27.656,3.688c-3.545,0.475-6.897,1.376-10.056,2.683
	C260.713,326.654,264.356,311.134,270.591,296.394z M277.243,480.926c-7.762,1.036-14.634-0.91-20.416-5.768
	c-5.781-4.858-8.875-11.307-9.188-19.155c0,0-3.419-74.036-3.422-74.054c-0.306-7.793,2.18-14.909,7.395-21.168
	c5.214-6.258,11.764-9.947,19.47-10.977l32.999-4.402l0.651,14.96l-24.646,3.289c-2.906,0.388-5.267,1.724-7.213,4.083
	c-1.936,2.365-2.802,4.887-2.624,7.726l1.548,32.693l28.612-3.818l0.866,14.932l-28.818,3.847
	c0.282,6.688,1.422,33.178,1.425,33.205c0.075,2.776,1.112,4.976,3.179,6.731s4.465,2.429,7.315,2.049l24.946-3.329l0.619,14.793
	L277.243,480.926z M338.138,472.8l-24.776,3.308l-3.402-76.491l-6.516,0.869l-0.642-14.962l40.246-5.37
	c9.788-1.307,17.817-0.336,23.878,2.892c7.038,3.832,10.844,10.403,11.317,19.529l2.183,43.818c0.258,4.002,1.146,4.801,1.313,4.911
	l0.042,0.032l0.031,0.015c0.031,0.024,0.788,0.47,4.229,0.01l1.81-0.241l0.65,14.96l-11.278,1.505
	c-6.075,0.811-11.236-0.037-15.365-2.52c-4.786-2.979-7.38-7.689-7.711-14.027l-2.22-48.024c-0.106-2.295-0.846-4.189-2.207-5.743
	c-1.658-1.773-3.538-2.486-5.731-2.193l-7.744,1.033l3.333,74.963l0.07,1.526L338.138,472.8z M441.927,472.089l-1.285,0.172
	l0.05,1.301l0.342,7.777l0.325,7.457c-12.75,3.673-25.966,5.536-39.473,5.536c-19.244,0-37.902-3.766-55.455-11.189
	c-0.839-0.354-1.672-0.724-2.506-1.096l4.755-0.635l1.284-0.172l-0.058-1.299l-0.343-7.788l-0.07-1.527l-0.17-3.851
	c1.917,2.645,4.355,4.896,7.28,6.719c0.073,0.048,0.135,0.077,0.135,0.077c6.091,3.672,13.43,4.974,21.792,3.856l11.277-1.505
	l7.716-1.029l1.283-0.172l-0.058-1.289l-0.144-3.216c6.362,2.338,13.646,3.007,21.708,1.933l38.998-5.205l0.137,2.807l-9.808,1.309
	L441.927,472.089z M553.931,327.107l-13.028,1.737c-1.436,0.191-2.657,1.118-3.731,2.854c-1.173,1.874-1.668,4.03-1.534,6.606
	l0.729,16.049l12.516-1.672l0.651,14.962l-12.508,1.669c0.533,11.788,4.041,88.12,4.041,88.12c0.363,7.379-2.265,14.075-7.82,19.92
	c-5.506,5.783-12.632,9.302-21.2,10.444l-14.841,1.979l-0.641-14.962l13.161-1.757c2.438-0.324,5.638-1.658,5.265-9.461
	l-4.241-90.776l-19.321,2.578c0.542,11.787,4.039,88.122,4.039,88.122c0.365,7.376-2.263,14.07-7.818,19.916
	c-5.506,5.782-12.633,9.302-21.2,10.443l-14.831,1.979l-0.651-14.961l13.162-1.757c2.438-0.324,5.639-1.658,5.265-9.462
	l-4.241-90.775l-10.81,1.441l-0.65-14.961l10.809-1.441c-0.15-3.786-0.538-13.401-0.538-13.401
	c-0.357-8.186,2.273-15.217,7.813-20.897c5.057-5.073,11.684-8.182,19.672-9.247l15.944-2.128l1.802-0.239l0.079,1.812l0.5,11.622
	l0.071,1.527l-1.51,0.2l-13.031,1.738c-1.435,0.191-2.657,1.117-3.73,2.854c-1.174,1.874-1.666,4.03-1.532,6.606l0.729,16.048
	l19.33-2.58c-0.151-3.786-0.538-13.4-0.538-13.4c-0.183-4.088,0.388-7.896,1.694-11.39c1.301-3.485,3.349-6.668,6.118-9.51
	c5.058-5.073,11.676-8.181,19.671-9.247l15.938-2.127l1.81-0.24l0.078,1.812l0.502,11.621l0.069,1.527L553.931,327.107z"/>
<g id="Layer_2">
</g>
</svg>
