<?xml version="1.0" encoding="utf-8"?>
<!-- Generator: Adobe Illustrator 16.0.4, SVG Export Plug-In . SVG Version: 6.00 Build 0)  -->
<!DOCTYPE svg PUBLIC "-//W3C//DTD SVG 1.1//EN" "http://www.w3.org/Graphics/SVG/1.1/DTD/svg11.dtd">
<svg version="1.1" id="Layer_1" xmlns="http://www.w3.org/2000/svg" xmlns:xlink="http://www.w3.org/1999/xlink" x="0px" y="0px"
	 width="612px" height="612px" viewBox="0 0 612 612" enable-background="new 0 0 612 612" xml:space="preserve">
<g>
	<g>
		<g>
			<g>
				<g>
					<path fill="#010101" d="M118.397,362.835c-6.605,1.321-11.841-0.265-13.746-3.752c-0.47-0.859-0.1-1.428,1.013-1.54
						c11.62-1.176,23.181-6.681,34.767-8.261c4.66-0.637,9.251,0.028,11.432,3.821c0.444,0.776,0.311,1.652-1.155,1.722
						c-5.517,0.263-17.922,2.547-18.9,4.182c-0.429,0.718,0.182,5.979-2.074,11.441c-6.546,15.827-13.068,31.926-17.197,48.218
						c-0.271,1.066-0.79,1.161-1.655,0.599c-1.672-1.084-3.633-4.022-3.008-9.074c2.051-16.612,17.243-49.135,17.243-49.135
						C124.987,360.899,120.379,362.438,118.397,362.835z"/>
				</g>
				<g>
					<path fill="#010101" d="M165.46,412.239c-9.002,1.11-12.24-5.054-10.024-14.23c1.923-7.956,8.681-23.079,8.681-23.079
						c-0.717-0.64-14.295,11.174-17.815,18.541c-3.195,6.684-5.728,13.954-7.685,21.04c-0.271,0.977-1.011,1.292-1.759,0.681
						c-1.955-1.596-3.51-4.495-2.056-10.83c4.784-20.839,16.408-43.72,28.3-61.754c0.882-1.336,2.021-1.362,2.742-0.217
						c1.759,2.809,2.069,8.074-1.446,15.027c-3.549,7.022-10.952,21.045-10.952,21.045c0.031,0.022,9.365-8.833,12.395-8.87
						c3.818-0.047,7.808,4.753,5.58,10.334c-1.914,4.793-6.29,12.997-8.085,18.651c-1.992,6.275-0.8,11.076,3.142,10.396
						c4.367-0.753,9.601-8.932,12.088-15.837c0.343-0.955,1.449-1.093,1.951-0.319c0.673,1.044,0.879,3.254-0.39,6.523
						C177.72,405.53,171.784,411.458,165.46,412.239z"/>
				</g>
				<g>
					<path fill="#010101" d="M193.38,406.117c9.061-0.701,16.009-8.945,20.273-16.611c0.48-0.864,1.343-0.908,1.864-0.042
						c0.47,0.788,0.405,3.766-1.346,6.567c-4.408,7.054-11.857,11.879-20.174,13.051c-14.734,2.076-18.661-13.913-14.191-24.861
						c3.186-7.799,12.907-21.623,22.467-18.062c2.806,1.044,5.049,2.727,7.014,4.831c2.166,2.319,1.518,8.753-2.36,14.375
						c-4.539,6.575-19.378,4.637-20.064,4.905C185.091,390.96,187.847,406.543,193.38,406.117z M200.172,381.472
						c3.126-4.66,4.678-11.031,3.459-11.258c-4.906-0.914-12.543,8.994-15.32,15.833c-0.265,0.655-0.764,1.695-0.695,1.85
						C188.489,389.867,197.338,385.691,200.172,381.472z"/>
				</g>
				<g>
					<path fill="#010101" d="M237.943,405.224c-0.384,1.032-1.013,1.075-1.817,0.317c-1.552-1.468-3.11-5.093-0.904-11.294
						c6.798-19.112,19.728-37.953,31.719-54.404c0.985-1.354,2.129-1.835,3.622-0.732c4.535,3.349,5.857,7.036,3.142,15.297
						c-4.007,12.189-10.585,37.03-10.585,37.03c0.259,0.112,26.988-34.871,39.683-52.507c1.024-1.427,1.951-1.562,3.301-0.313
						c4.551,4.212,3.36,9.982,0.324,15.172c-9.23,15.782-17.571,32.828-23.773,49.68c-0.38,1.034-0.848,1.026-1.721,0.346
						c-1.698-1.322-3.226-4.558-1.437-11.296c3.126-11.758,15.385-33.907,15.385-33.907c-0.091-0.062-24.116,28.599-32.186,44.902
						c-0.508,1.03-1.026,1.379-1.91,0.801c-3.609-2.364-5.477-5.958-4.625-12.395c1.533-11.602,8.197-34.421,8.197-34.421
						C264.195,357.421,244.137,388.549,237.943,405.224z"/>
				</g>
				<g>
					<path fill="#010101" d="M401.043,396.882c-3.48,5.432-10.984,10.081-16.938,9.747c-8.658-0.489-11.805-9.172-7.748-16.131
						c3.957-6.789,14.203-18.167,13.492-19.923c-0.105-0.259-5.367,0.645-12.352,6.875c-8.42,7.506-15.17,16.593-20.373,26.994
						c-0.602,1.205-1.578,1.49-2.502,0.511c-1.65-1.736-2.885-5.955,0.457-12.979c3.654-7.685,15.541-20.618,14.363-23.013
						c-0.188-0.377-6.926,2.017-14.195,8.979c-7.309,7.004-12.396,16.588-16.85,25.276c-0.416,0.808-1.01,1.116-2.061,0.256
						c-2.213-1.817-2.621-5.398-0.797-10.521c1.193-3.36,7.436-14.335,7.436-14.335c-0.08-0.08-9.295,1.627-10.309,2.309
						c-2.779,1.875-8.539,18.841-17.457,21.952c-3.723,1.296-9.766,1.024-13.708-4.509c-5.452-7.648-1.908-16.114,1.808-23.383
						c3.288-6.436,10.233-12.705,17.75-13.401c3.295-0.305,5.135,0.809,7.41,3.659c2.611,3.269,5.566,4.179,5.068,11.547
						c-0.031,0.493-0.262,1.65-0.26,1.655c0.711,1.013,15.717-8.812,20.494-15.546c0.711-1.006,1.828-0.953,2.457,0.105
						c1.643,2.77-0.691,10.787-0.691,10.787c0.102,0.071,13.668-10.683,17.676-10.343c3.787,0.319,3.729,10.424,3.729,10.424
						c0.219,0.155,13.303-8.69,16.857-8.324c3.998,0.413,4.404,6.609,1.803,11.395c-2.439,4.493-8.229,10.952-11.189,15.848
						c-3.449,5.697-2.355,10.656,1.643,10.74c4.316,0.091,9.67-6.358,14.443-13.27c0.615-0.886,1.373-0.617,1.855,0.154
						C402.838,391.192,402.559,394.52,401.043,396.882z M318.512,369.246c-0.391-0.177-6.146,5.885-8.592,9.804
						c-4.836,7.765-6.242,17.234-3.436,19.628c2.92,2.493,9.485-1.335,14.979-10.586c1.893-3.189,4.443-8.022,4.09-8.87
						C324.947,377.76,318.512,369.246,318.512,369.246z M327.283,369.381c-0.508-3.316-2.83-2.84-3.34,0.251
						c-0.354,2.167,2.461,7.035,2.535,7.009C326.922,376.494,327.566,371.248,327.283,369.381z"/>
				</g>
				<g>
					<path fill="#010101" d="M435.885,368.442c3.77,0.521,3.17,10.607,3.17,10.607c0.191,0.152,13.904-8.16,17.553-7.59
						c3.977,0.626,4.049,6.82,1.168,11.679c-2.586,4.377-8.842,10.498-12.156,15.318c-3.764,5.471-2.803,10.426,1.07,10.812
						c4.412,0.44,10.131-5.72,15.357-12.346c0.666-0.852,1.539-0.729,1.979,0.065c0.445,0.796-0.35,4.167-1.871,6.35
						c-3.783,5.442-11.516,9.497-17.578,8.916c-8.775-0.844-11.615-9.826-6.988-16.637c4.406-6.493,15.27-17.388,14.662-19.163
						c-0.092-0.265-5.273,0.161-12.709,6.104c-8.904,7.116-15.912,16.329-21.943,26.167c-0.713,1.166-1.646,1.291-2.521,0.276
						c-1.482-1.717-2.871-6.085,1.047-13.053c4.172-7.411,16.77-19.679,15.695-22.203c-0.207-0.482-7.129,1.526-14.77,8.094
						c-7.746,6.656-13.449,15.71-18.314,24.547c-0.49,0.892-1.188,1.244-2.086,0.351c-2.18-2.158-2.531-5.73-0.225-10.756
						c4.838-10.532,12.434-20.479,19.951-29.341c0.893-1.047,1.773-0.871,2.344,0.223c1.6,3.076-1.184,11.056-1.184,11.056
						C417.633,377.993,431.893,367.888,435.885,368.442z"/>
				</g>
				<g>
					<path fill="#010101" d="M478.055,419.101c-6.051,4.234-14.867,27.16-26.914,30.455c-1.943,0.53-4.047,0.193-5.633-2.94
						c-1.689-3.338-3.363-7.317-0.465-13.047c4.779-9.446,20.242-12.875,25.332-16.36c1.318-0.903,4.42-6.907,4.42-6.907
						c-0.049-0.048-8.291,4.885-12.508,3.965c-7.596-1.653-6.873-9.267-3.449-15.682c4.738-8.877,11.303-16.976,18.578-23.926
						c1.047-1.001,2.143-0.702,2.771,0.412c2.066,3.661,0.799,7.894-4.127,13.355c-4.828,5.354-7.812,9.27-10.551,13.805
						c-2.861,4.734-2.828,8.775-0.711,8.924c6.523,0.465,12.91-7.873,17.367-12.976c5.529-6.331,10.785-13.907,16.801-19.927
						c1.166-1.165,2.195-1.219,2.883-0.255c1.295,1.804,1.355,6.684-2.375,11.402c-6.611,8.361-18.967,25.873-18.967,25.873
						c0.24,0.29,15.225-6.729,21.641-12.66c0.668-0.615,1.646-0.544,1.693,0.504c0.047,0.949-0.68,3.272-2.971,5.604
						C494.891,414.799,482.133,416.244,478.055,419.101z M448.045,443.382c1.527,1.092,19.887-22.118,19.887-22.118
						C467.67,420.934,447.104,442.714,448.045,443.382z"/>
				</g>
			</g>
		</g>
		<g enable-background="new    ">
			<path fill="#010101" d="M72.889,504.572v-65.705h24.524c5.427,0,10.18,0.863,14.251,2.59c4.071,1.728,7.48,4.074,10.225,7.036
				c2.745,2.961,4.812,6.43,6.201,10.408s2.083,8.222,2.083,12.726c0,4.997-0.773,9.516-2.313,13.556
				c-1.544,4.043-3.75,7.497-6.617,10.365c-2.871,2.87-6.325,5.092-10.366,6.664c-4.041,1.573-8.53,2.36-13.464,2.36H72.889z
				 M114.717,471.627c0-2.898-0.385-5.537-1.158-7.912c-0.77-2.374-1.895-4.427-3.375-6.155c-1.481-1.726-3.301-3.053-5.461-3.979
				c-2.159-0.926-4.596-1.389-7.31-1.389h-9.348v39.053h9.348c2.775,0,5.243-0.492,7.403-1.48c2.159-0.986,3.963-2.359,5.414-4.117
				c1.446-1.759,2.559-3.824,3.329-6.2C114.333,477.072,114.717,474.467,114.717,471.627z"/>
			<path fill="#010101" d="M139.147,504.572v-65.705h15.177v65.705H139.147z"/>
			<path fill="#010101" d="M206.331,458.115c-0.184-0.245-0.833-0.708-1.942-1.388c-1.109-0.679-2.497-1.388-4.164-2.129
				c-1.665-0.741-3.488-1.388-5.461-1.943c-1.973-0.555-3.949-0.834-5.922-0.834c-5.43,0-8.142,1.823-8.142,5.461
				c0,1.111,0.29,2.036,0.879,2.777c0.586,0.739,1.45,1.402,2.59,1.989c1.141,0.588,2.574,1.126,4.305,1.618
				c1.727,0.494,3.731,1.053,6.012,1.667c3.148,0.866,5.985,1.804,8.516,2.824c2.528,1.016,4.672,2.281,6.431,3.793
				c1.761,1.512,3.113,3.347,4.071,5.504c0.957,2.163,1.437,4.754,1.437,7.776c0,3.701-0.695,6.832-2.083,9.392
				c-1.39,2.56-3.222,4.628-5.507,6.201c-2.282,1.574-4.903,2.717-7.864,3.424c-2.961,0.709-6.016,1.064-9.161,1.064
				c-2.409,0-4.875-0.186-7.406-0.557c-2.528-0.369-4.996-0.909-7.403-1.618c-2.406-0.709-4.736-1.557-6.985-2.545
				c-2.254-0.988-4.336-2.129-6.25-3.425l6.665-13.233c0.246,0.31,1.047,0.896,2.406,1.76c1.356,0.863,3.039,1.727,5.043,2.59
				c2.004,0.864,4.242,1.636,6.708,2.314c2.468,0.678,4.965,1.018,7.5,1.018c5.364,0,8.048-1.634,8.048-4.904
				c0-1.233-0.399-2.253-1.203-3.053c-0.801-0.804-1.911-1.528-3.329-2.177c-1.421-0.647-3.101-1.249-5.043-1.804
				c-1.945-0.555-4.059-1.171-6.34-1.852c-3.024-0.926-5.645-1.927-7.868-3.009c-2.221-1.078-4.055-2.328-5.505-3.746
				c-1.449-1.418-2.531-3.055-3.238-4.906c-0.71-1.849-1.066-4.009-1.066-6.478c0-3.453,0.648-6.508,1.945-9.16
				c1.294-2.652,3.051-4.89,5.274-6.709c2.221-1.821,4.797-3.193,7.727-4.119c2.93-0.927,6.031-1.388,9.301-1.388
				c2.282,0,4.532,0.217,6.758,0.646c2.219,0.434,4.345,0.988,6.384,1.667c2.035,0.679,3.933,1.448,5.692,2.312
				c1.757,0.865,3.378,1.728,4.856,2.594L206.331,458.115z"/>
			<path fill="#010101" d="M273.427,452.192h-19.989v52.38h-15.176v-52.38h-20.083v-13.325h55.249V452.192z"/>
			<path fill="#010101" d="M280.83,504.572v-65.705h29.612c3.082,0,5.938,0.646,8.562,1.941c2.619,1.298,4.887,2.994,6.801,5.091
				c1.912,2.098,3.408,4.476,4.486,7.127c1.078,2.654,1.623,5.336,1.623,8.05c0,2.037-0.248,3.995-0.742,5.877
				s-1.203,3.655-2.129,5.322c-0.926,1.665-2.051,3.161-3.375,4.487c-1.33,1.327-2.824,2.454-4.492,3.38l14.439,24.43h-17.119
				L305.91,483.38h-9.906v21.192H280.83z M296.003,470.146h13.883c1.793,0,3.332-0.848,4.629-2.543
				c1.293-1.697,1.945-3.874,1.945-6.527c0-2.714-0.742-4.872-2.227-6.478c-1.477-1.604-3.082-2.406-4.809-2.406h-13.422V470.146z"
				/>
			<path fill="#010101" d="M342.834,504.572v-65.705h15.176v65.705H342.834z"/>
			<path fill="#010101" d="M366.801,471.162c0-3.946,0.738-7.879,2.219-11.797c1.484-3.917,3.641-7.418,6.48-10.505
				c2.836-3.083,6.289-5.581,10.361-7.495c4.072-1.91,8.699-2.868,13.883-2.868c6.168,0,11.52,1.327,16.055,3.979
				c4.535,2.653,7.914,6.109,10.135,10.365l-11.662,8.145c-0.738-1.727-1.68-3.162-2.822-4.304s-2.393-2.067-3.748-2.776
				s-2.746-1.202-4.164-1.48c-1.422-0.278-2.809-0.417-4.164-0.417c-2.902,0-5.43,0.587-7.588,1.759
				c-2.162,1.172-3.951,2.684-5.367,4.534c-1.418,1.852-2.471,3.948-3.148,6.292c-0.678,2.346-1.016,4.722-1.016,7.128
				c0,2.59,0.398,5.09,1.203,7.496c0.801,2.406,1.955,4.532,3.471,6.383c1.51,1.853,3.328,3.317,5.461,4.396
				c2.129,1.081,4.516,1.62,7.172,1.62c1.355,0,2.758-0.168,4.207-0.51c1.449-0.338,2.836-0.863,4.168-1.572
				c1.324-0.707,2.543-1.633,3.652-2.777c1.109-1.141,2.006-2.543,2.684-4.211l12.402,7.312c-0.988,2.406-2.451,4.566-4.395,6.477
				c-1.945,1.914-4.184,3.517-6.711,4.813c-2.531,1.296-5.215,2.281-8.051,2.961c-2.84,0.68-5.617,1.018-8.328,1.018
				c-4.754,0-9.117-0.971-13.096-2.915c-3.979-1.942-7.406-4.518-10.27-7.727c-2.871-3.209-5.094-6.848-6.664-10.92
				C367.586,479.492,366.801,475.36,366.801,471.162z"/>
			<path fill="#010101" d="M483.682,452.192h-19.99v52.38h-15.18v-52.38h-20.08v-13.325h55.25V452.192z"/>
			<path fill="#010101" d="M530.502,458.115c-0.184-0.245-0.832-0.708-1.941-1.388c-1.111-0.679-2.498-1.388-4.166-2.129
				c-1.664-0.741-3.486-1.388-5.461-1.943c-1.973-0.555-3.949-0.834-5.922-0.834c-5.426,0-8.141,1.823-8.141,5.461
				c0,1.111,0.289,2.036,0.879,2.777c0.586,0.739,1.449,1.402,2.59,1.989c1.141,0.588,2.574,1.126,4.305,1.618
				c1.727,0.494,3.73,1.053,6.012,1.667c3.148,0.866,5.986,1.804,8.516,2.824c2.529,1.016,4.674,2.281,6.432,3.793
				c1.762,1.512,3.113,3.347,4.07,5.504c0.957,2.163,1.438,4.754,1.438,7.776c0,3.701-0.695,6.832-2.082,9.392
				c-1.391,2.56-3.223,4.628-5.508,6.201c-2.281,1.574-4.904,2.717-7.865,3.424c-2.961,0.709-6.016,1.064-9.16,1.064
				c-2.41,0-4.875-0.186-7.406-0.557c-2.531-0.369-4.996-0.909-7.402-1.618s-4.734-1.557-6.986-2.545
				c-2.254-0.988-4.334-2.129-6.246-3.425l6.664-13.233c0.244,0.31,1.049,0.896,2.404,1.76c1.355,0.863,3.039,1.727,5.043,2.59
				c2.004,0.864,4.242,1.636,6.707,2.314c2.469,0.678,4.967,1.018,7.5,1.018c5.367,0,8.049-1.634,8.049-4.904
				c0-1.233-0.4-2.253-1.203-3.053c-0.801-0.804-1.912-1.528-3.33-2.177c-1.42-0.647-3.102-1.249-5.043-1.804
				c-1.945-0.555-4.059-1.171-6.34-1.852c-3.023-0.926-5.645-1.927-7.865-3.009c-2.225-1.078-4.059-2.328-5.51-3.746
				c-1.447-1.418-2.527-3.055-3.236-4.906c-0.711-1.849-1.062-4.009-1.062-6.478c0-3.453,0.645-6.508,1.941-9.16
				s3.055-4.89,5.275-6.709c2.219-1.821,4.793-3.193,7.73-4.119c2.922-0.927,6.023-1.388,9.297-1.388
				c2.281,0,4.533,0.217,6.758,0.646c2.219,0.434,4.346,0.988,6.383,1.667c2.035,0.679,3.934,1.448,5.693,2.312
				c1.754,0.865,3.377,1.728,4.855,2.594L530.502,458.115z"/>
		</g>
	</g>
	<path fill="#D6525C" d="M262.806,218.296c-0.766-3.438,51.2,3.342,36.457-36.933c-5.878-16.056,13.202-24.992,21.454-5.592
		c11.018,25.904,56.193,48.45,77.121,11.754c43.305-75.93-67.428-108.438-94.034-50.938c-26.618-57.5-119.349-26.896-95.772,47.78
		c12.648,37.129,69.44,91.985,99.927,86.729c30.488-5.255,61.545-28.193,53.039-41.19c-7.48-11.431-35.697,6.019-55.467,5.451
		C281.677,234.673,263.673,222.201,262.806,218.296z M364.342,136.971c17.021,0,30.822,13.8,30.822,30.821
		s-13.801,30.82-30.822,30.82s-30.818-13.799-30.818-30.82S347.32,136.971,364.342,136.971z"/>
</g>
</svg>
