<?xml version="1.0" encoding="utf-8"?>
<!-- Generator: Adobe Illustrator 16.0.4, SVG Export Plug-In . SVG Version: 6.00 Build 0)  -->
<!DOCTYPE svg PUBLIC "-//W3C//DTD SVG 1.1//EN" "http://www.w3.org/Graphics/SVG/1.1/DTD/svg11.dtd">
<svg version="1.1" xmlns="http://www.w3.org/2000/svg" xmlns:xlink="http://www.w3.org/1999/xlink" x="0px" y="0px"
	 width="494.491px" height="494.491px" viewBox="0 0 494.491 494.491" enable-background="new 0 0 494.491 494.491"
	 xml:space="preserve">
<g id="Layer_2">
</g>
<g id="Layer_1">
	<g>
		<polygon fill="none" points="72.658,344.269 66.737,334.886 60.627,338.742 62.614,341.889 51.732,348.756 49.746,345.609 
			43.636,349.464 51.39,361.752 57.5,357.897 55.666,354.991 		"/>
		<path fill="none" d="M94.484,401.724l7.061-6.996c1.398-1.386,2.397-2.751,2.996-4.095c0.599-1.344,0.871-2.648,0.816-3.915
			c-0.055-1.267-0.41-2.499-1.065-3.697c-0.655-1.198-1.526-2.346-2.612-3.441c-1.4-1.412-2.955-2.519-4.665-3.321
			c-1.711-0.802-3.574-1.346-5.59-1.632l-2.021,5.228c1.176,0.312,2.279,0.758,3.311,1.337c1.031,0.579,2.073,1.399,3.126,2.462
			c0.503,0.508,0.915,1.029,1.234,1.564c0.319,0.534,0.515,1.068,0.586,1.603s0.013,1.062-0.175,1.584
			c-0.188,0.521-0.525,1.024-1.012,1.507l-0.6,0.594c-0.423-0.701-0.914-1.429-1.476-2.182c-0.561-0.754-1.239-1.532-2.034-2.334
			c-1.086-1.097-2.205-1.919-3.356-2.469s-2.29-0.85-3.415-0.899c-1.125-0.049-2.223,0.148-3.292,0.593
			c-1.07,0.443-2.054,1.111-2.953,2.002c-0.887,0.879-1.557,1.845-2.009,2.898c-0.454,1.054-0.675,2.141-0.665,3.262
			c0.009,1.121,0.267,2.255,0.771,3.4c0.504,1.146,1.277,2.244,2.319,3.295c0.414,0.418,0.823,0.774,1.226,1.069
			c0.403,0.294,0.827,0.547,1.27,0.757s0.923,0.383,1.442,0.52c0.518,0.136,1.11,0.265,1.777,0.389l-1.049,1.039l7.255,7.321
			l5.132-5.085L94.484,401.724z M89.863,396.461c-0.871-0.055-1.775-0.268-2.711-0.638c-0.937-0.371-1.803-0.958-2.597-1.76
			c-0.762-0.769-1.136-1.533-1.124-2.295c0.012-0.763,0.305-1.428,0.879-1.997c0.312-0.31,0.646-0.522,1-0.639
			c0.354-0.116,0.711-0.156,1.069-0.119c0.358,0.036,0.704,0.136,1.038,0.298c0.333,0.162,0.629,0.373,0.887,0.633l4.031,4.067
			L89.863,396.461z"/>
		<path fill="none" d="M75.07,375.25c-0.492,0.14-1.055,0.238-1.688,0.295c-0.634,0.058-1.266,0.029-1.899-0.085
			c-0.633-0.113-1.244-0.33-1.834-0.647c-0.59-0.317-1.142-0.751-1.654-1.299c-0.49-0.748-0.827-1.528-1.01-2.341
			c-0.184-0.812-0.197-1.627-0.039-2.442c0.158-0.816,0.48-1.613,0.967-2.392c0.486-0.779,1.112-1.464,1.877-2.056
			c0.862-0.666,1.729-1.146,2.603-1.439c0.873-0.293,1.728-0.416,2.564-0.369c0.836,0.047,1.625,0.262,2.365,0.645
			c0.74,0.383,1.364,0.96,1.873,1.733c0.756,0.863,1.201,1.775,1.334,2.738c0.133,0.962,0.033,2.004-0.299,3.126l4.028,5.209
			l6.278-4.854l-2.904-3.756c-0.051-1.388-0.301-2.703-0.75-3.944s-1.11-2.368-1.982-3.383c-1.093-1.527-2.413-2.703-3.96-3.527
			c-1.548-0.823-3.188-1.3-4.92-1.428c-1.732-0.128-3.486,0.076-5.259,0.613c-1.774,0.537-3.46,1.424-5.059,2.66
			c-1.613,1.247-2.925,2.669-3.936,4.265c-1.01,1.596-1.687,3.249-2.029,4.962c-0.343,1.712-0.33,3.432,0.038,5.157
			c0.368,1.727,1.131,3.338,2.289,4.835c1.138,1.473,2.396,2.596,3.773,3.371s2.761,1.293,4.152,1.555
			c1.391,0.262,2.74,0.304,4.048,0.127s2.461-0.48,3.461-0.912L75.07,375.25z"/>
		<path fill="none" d="M45.735,338.92l8.764-4.345c3.166-1.569,5.221-3.468,6.167-5.694s0.759-4.673-0.562-7.338
			c-0.601-1.211-1.39-2.199-2.369-2.966s-2.101-1.36-3.368-1.779l14.552-7.214l-4.949-9.982l-6.473,3.209l1.696,3.42l-23.812,11.806
			l-1.696-3.42l-6.473,3.209l6.56,13.231l6.473-3.209l-1.611-3.249l9.213-4.568c1.138,0.396,2.09,0.872,2.859,1.433
			c0.768,0.561,1.311,1.161,1.629,1.802c0.48,0.969,0.479,1.955-0.005,2.959c-0.484,1.003-1.411,1.844-2.781,2.523l-13.583,6.734
			l4.907,9.896l6.473-3.209L45.735,338.92z"/>
		<path fill="none" d="M35.403,308.174l-0.202-8.038c-0.841-0.02-1.688-0.153-2.542-0.403c-0.854-0.25-1.655-0.604-2.404-1.066
			c-0.749-0.461-1.418-1.029-2.006-1.703c-0.589-0.675-1.036-1.464-1.34-2.368c-0.437-1.297-0.525-2.593-0.266-3.889
			s0.79-2.515,1.592-3.657c0.802-1.144,1.841-2.177,3.116-3.101c1.274-0.925,2.72-1.658,4.336-2.203
			c1.599-0.538,3.187-0.82,4.764-0.848s3.036,0.174,4.376,0.604s2.506,1.082,3.497,1.957s1.698,1.945,2.125,3.212
			c0.29,0.858,0.445,1.721,0.467,2.586s-0.131,1.731-0.461,2.598c-0.33,0.866-1.019,1.945-2.067,3.238l2.352,6.987l8.446-2.844
			l-1.705-5.064c0.987-2.028,1.521-3.76,1.603-5.197c0.082-1.438-0.189-3.083-0.813-4.938c-0.782-2.321-2.023-4.315-3.726-5.983
			c-1.702-1.667-3.691-2.948-5.968-3.844c-2.277-0.895-4.747-1.372-7.41-1.433c-2.663-0.06-5.353,0.367-8.068,1.281
			c-1.816,0.611-3.495,1.395-5.037,2.351c-1.542,0.955-2.923,2.032-4.143,3.232c-1.219,1.199-2.26,2.501-3.122,3.908
			c-0.862,1.406-1.511,2.866-1.947,4.381s-0.649,3.059-0.638,4.633s0.277,3.138,0.8,4.69c0.619,1.839,1.488,3.455,2.606,4.85
			c1.118,1.394,2.4,2.557,3.845,3.488c1.445,0.932,3.015,1.616,4.711,2.052C31.87,308.08,33.613,308.256,35.403,308.174z"/>
		<polygon fill="none" points="33.574,219.264 47.037,210.654 61.761,216.864 57.733,201.4 68.189,189.316 52.237,188.367 
			43.976,174.689 38.145,189.567 22.583,193.198 34.93,203.341 		"/>
		<path fill="none" d="M340.334,263.843c-3.961,1.2-11.371,10.47-13.611,9.56c-4.889-1.979-8.479-0.189-12.229,2.25
			c-13.041,9.181-19.021,21.811-21.791,30.101c-6.619,19.75,16.5,21.77,16.5,21.77c11.229,18.626,42.551-11.109,42.551-11.109
			c-2.021-4.23-6.806-8.139-6.806-8.139c-39.17,24.14-44.726,8.639-46.046,4.538c-1.318-4.09,0.623-14.624,15.342-23.914
			c15.041-9.5,43.729,25.104,43.729,25.104s18.061-17.42,9.111-33.021C358.124,265.383,344.303,262.633,340.334,263.843z
			 M335.856,281.571c-3.398,0.975-5.438-5.625-5.438-5.625c1.625,1.438,2.614,3.954,4.947,2.475s-0.01-7.725-0.01-7.725
			s1.622,2.1,2.352,4.183C338.467,277.048,339.254,280.596,335.856,281.571z"/>
		<path fill="none" d="M281.374,224.593c-12.129-0.02-21.98,9.8-22,21.939c-0.01,12.131,9.25,20.561,21.381,20.57
			c4.498,0.008,8.493-1.63,11.747-4.307c-0.39,0.079-0.783,0.134-1.187,0.134c-5.191,0-9.397-6.777-9.397-15.135
			c0-7.653,3.529-13.963,8.109-14.976c-2.468-2.658-5.056-5.4-7.724-8.195C281.995,224.603,281.684,224.593,281.374,224.593z"/>
		<path fill="none" d="M153.632,420.146c-1.027-1.456-2.376-2.662-4.047-3.617c-1.671-0.954-3.392-1.501-5.162-1.642
			c-1.77-0.141-3.482,0.066-5.135,0.62c-1.654,0.554-3.195,1.424-4.624,2.612c-1.43,1.188-2.637,2.644-3.622,4.369
			c-0.994,1.739-1.652,3.525-1.973,5.355c-0.322,1.83-0.308,3.595,0.041,5.292c0.35,1.697,1.038,3.274,2.065,4.731
			c1.027,1.457,2.403,2.679,4.13,3.664c1.712,0.979,3.458,1.539,5.234,1.684s3.49-0.065,5.142-0.631
			c1.65-0.565,3.182-1.452,4.596-2.659c1.413-1.207,2.612-2.673,3.597-4.398c0.985-1.725,1.629-3.502,1.933-5.333
			c0.304-1.83,0.273-3.599-0.089-5.304C155.354,423.185,154.659,421.603,153.632,420.146z M148.688,429.165
			c-0.174,0.913-0.531,1.843-1.071,2.789c-0.523,0.916-1.131,1.677-1.825,2.282c-0.694,0.606-1.429,1.052-2.206,1.337
			c-0.777,0.285-1.564,0.397-2.363,0.336s-1.563-0.301-2.295-0.719c-0.718-0.41-1.305-0.947-1.759-1.611s-0.762-1.407-0.925-2.229
			c-0.163-0.821-0.167-1.688-0.011-2.603c0.155-0.913,0.49-1.819,1.004-2.721c0.541-0.946,1.167-1.722,1.879-2.327
			c0.712-0.605,1.458-1.039,2.24-1.302c0.782-0.262,1.567-0.354,2.357-0.278c0.79,0.076,1.539,0.327,2.249,0.753
			c0.741,0.403,1.345,0.925,1.812,1.566c0.467,0.642,0.779,1.361,0.937,2.159C148.869,427.396,148.861,428.251,148.688,429.165z"/>
		<path fill="none" d="M128.616,403.92l-0.354,0.46c-0.398-0.839-0.896-1.645-1.496-2.417c-0.6-0.772-1.342-1.511-2.225-2.214
			c-1.473-1.112-3.058-1.856-4.756-2.232c-1.698-0.376-3.383-0.404-5.055-0.084c-1.673,0.32-3.275,0.961-4.808,1.921
			c-1.533,0.961-2.884,2.2-4.053,3.718c-1.245,1.615-2.14,3.311-2.685,5.088c-0.545,1.776-0.744,3.526-0.596,5.249
			c0.148,1.724,0.639,3.36,1.472,4.911c0.833,1.552,2.005,2.91,3.517,4.074c0.73,0.563,1.524,1.02,2.38,1.368
			c0.855,0.349,1.808,0.572,2.857,0.67l-0.081,0.104c-0.783,1.017-1.552,1.767-2.306,2.251c-0.754,0.483-1.496,0.762-2.223,0.833
			c-0.728,0.071-1.443-0.03-2.145-0.305s-1.393-0.674-2.074-1.198c-1.247-0.961-2.245-2.012-2.991-3.153
			c-0.747-1.142-1.319-2.354-1.717-3.636l-5.935,2.817c0.458,1.75,1.217,3.444,2.275,5.08c1.059,1.637,2.444,3.115,4.158,4.436
			c1.386,1.067,2.873,1.874,4.46,2.421c1.587,0.545,3.192,0.75,4.813,0.612c1.622-0.138,3.229-0.652,4.82-1.545
			c1.592-0.894,3.09-2.252,4.496-4.076l15.979-20.741L128.616,403.92z M122.474,411.97l-4.093,5.234
			c-1.038,0.488-2.104,0.704-3.196,0.65c-1.093-0.055-2.08-0.421-2.962-1.101c-0.681-0.524-1.214-1.141-1.602-1.85
			c-0.387-0.709-0.613-1.466-0.676-2.269c-0.064-0.804,0.041-1.644,0.315-2.521c0.273-0.876,0.732-1.732,1.376-2.567
			c0.611-0.794,1.292-1.418,2.043-1.871s1.526-0.749,2.326-0.888c0.799-0.139,1.594-0.108,2.385,0.09
			c0.791,0.199,1.5,0.529,2.128,0.991c0.858,0.684,1.461,1.569,1.808,2.657C122.672,409.616,122.722,410.763,122.474,411.97z"/>
		<path fill="none" d="M290.403,238.732l-1.015-2.946c-7.047,6.793-3.789,17.854-3.789,17.854
			C284.049,247.628,287.254,240.175,290.403,238.732z"/>
		<polygon fill="none" points="434.383,216.864 449.108,210.654 462.57,219.264 461.214,203.341 473.561,193.198 458,189.567 
			452.168,174.689 443.907,188.367 427.956,189.316 438.411,201.4 		"/>
		<polygon fill="none" points="329.003,79.1 340.104,84.803 349.216,74.645 346.264,87.968 357.307,93.641 370.387,76.046 
			372.48,77.121 376.212,69.856 365.983,64.601 355.702,80.181 360.52,61.794 352.964,57.912 340.764,72.507 347.327,55.016 
			337.331,49.88 333.598,57.145 335.574,58.16 		"/>
		<polygon fill="none" points="370.117,92.9 368,91.366 363.208,97.98 376.225,107.411 381.017,100.797 378.901,99.263 
			400.713,69.155 389.813,61.258 385.021,67.873 387.138,69.406 		"/>
		<path fill="none" d="M74.265,339.108c0.306,0.484,0.698,0.876,1.178,1.175c0.479,0.299,1,0.497,1.56,0.595
			s1.142,0.089,1.744-0.028c0.602-0.116,1.178-0.348,1.728-0.695c0.55-0.347,1.007-0.767,1.372-1.26
			c0.364-0.494,0.623-1.015,0.776-1.562c0.153-0.548,0.198-1.103,0.134-1.664c-0.063-0.562-0.248-1.085-0.553-1.569
			c-0.323-0.512-0.726-0.92-1.21-1.226c-0.484-0.306-1.006-0.508-1.567-0.605s-1.14-0.084-1.737,0.039s-1.172,0.358-1.722,0.705
			c-0.55,0.348-1.009,0.764-1.378,1.25c-0.369,0.487-0.629,1.004-0.782,1.552c-0.153,0.549-0.196,1.106-0.128,1.675
			C73.747,338.056,73.942,338.596,74.265,339.108z"/>
		<polygon fill="none" points="105.396,84.599 101.048,78.47 104.566,75.975 119.801,97.454 116.922,99.495 122.442,107.276 
			138.697,95.746 133.178,87.965 130.3,90.006 115.065,68.528 118.583,66.033 122.93,72.162 130.498,66.794 120.669,52.937 
			87.999,76.11 97.828,89.967 		"/>
		<path fill="none" d="M298.683,69.02l13.718,4.915c2.46,0.881,4.728,0.815,6.804-0.2c2.075-1.015,3.584-2.833,4.524-5.458
			l9.123-25.466c0.94-2.624,0.94-4.984,0.003-7.079c-0.939-2.095-2.659-3.59-5.16-4.486l-13.718-4.915
			c-2.46-0.881-4.729-0.815-6.804,0.2c-2.076,1.015-3.584,2.835-4.524,5.459l-9.123,25.466c-0.955,2.666-0.961,5.036-0.014,7.11
			C294.458,66.638,296.181,68.123,298.683,69.02z M314.658,36.637l5.967,2.138l-8.882,24.79l-5.967-2.138L314.658,36.637z"/>
		<polygon fill="none" points="133.266,56.94 144.95,80.54 141.67,82.163 146.903,90.712 177.056,75.289 170.156,61.352 
			160.143,66.31 162.81,71.697 156.31,74.915 152.078,66.366 160.744,62.075 157.062,54.638 148.395,58.929 144.626,51.316 
			151.126,48.098 153.359,52.607 162.786,47.939 156.35,34.94 125.783,50.073 129.987,58.564 		"/>
		<polygon fill="none" points="225.591,29.25 226.018,55.58 222.359,55.639 222.514,65.177 237.736,64.931 237.345,40.757 
			248.692,59.459 259.166,40.403 259.557,64.577 275.499,65.318 275.344,54.78 271.685,54.839 271.258,28.51 274.917,28.451 
			274.764,18.977 259.671,19.222 248.952,39.197 237.001,19.589 221.779,19.836 221.932,29.31 		"/>
		<path fill="none" d="M210.529,63.706l1.562,3.033l8.118-1.983l-2.264-9.268l-3.11,0.76l-15.097-33.172l-19.995,4.884l1.831,36.412
			l-3.364,0.822l2.264,9.268l14.663-3.581l-1.287-11.053l7.426-1.814l4.017,10.387l1.789-0.437l2.167-4.144L210.529,63.706z
			 M192.768,51.549l-1.421-18.486l7.197,17.076L192.768,51.549z"/>
		<path fill="none" d="M244.954,377.383c34.779-15.58,56.85-38.5,61.6-43.73c-0.16-0.189-0.33-0.38-0.5-0.579
			c0,0-40.65-9.74-14.51-42.53c-7.76,4.04-16.529,6.35-25.9,6.33c-33.129-0.04-60.89-28.36-60.85-61.48
			c0.04-23.92,14.069-44.54,34.35-54.14c-11.809-11.52-20.399-19.67-20.96-20.2c-20.94,2.26-65.35,15.34-91.72,66.72
			c14.44-16.33,39.22-21.08,39.22-21.08c-32.1,25.24-47.16,59.721-51.54,82.69c17.14-25.14,38.32-27.069,52.77-25.14
			c-43.58,28.17-44.06,64.04-36.55,97.12c52.31-83.761,98.04-50.851,62.24,22.84c23.15-4.5,60.26-32.33,60.26-32.33
			S248.793,371.864,244.954,377.383z"/>
		<polygon fill="none" points="415.48,388.704 398.238,369.92 400.716,367.645 395.813,362.304 384.687,372.517 396.9,400.462 
			369.537,386.424 358.569,396.492 363.472,401.833 365.951,399.559 383.193,418.342 380.714,420.617 385.6,425.939 
			395.619,416.743 390.733,411.42 388.747,413.244 373.734,396.888 401.431,410.762 406.371,406.229 394.237,376.993 
			409.786,393.931 407.958,395.609 412.843,400.931 422.809,391.784 417.923,386.461 		"/>
		<path fill="none" d="M406.144,353.379c-0.51-0.403-1.058-0.696-1.644-0.877c-0.586-0.18-1.163-0.252-1.73-0.215
			c-0.568,0.037-1.106,0.179-1.615,0.424c-0.51,0.246-0.941,0.594-1.298,1.042c-0.375,0.474-0.627,0.99-0.756,1.548
			c-0.128,0.558-0.146,1.117-0.052,1.679c0.093,0.561,0.297,1.104,0.611,1.626c0.313,0.523,0.726,0.987,1.235,1.392
			s1.055,0.699,1.636,0.886c0.581,0.188,1.155,0.262,1.724,0.225c0.567-0.037,1.108-0.181,1.622-0.434
			c0.515-0.252,0.959-0.614,1.335-1.088c0.355-0.449,0.595-0.949,0.719-1.501c0.123-0.552,0.139-1.108,0.045-1.669
			c-0.094-0.562-0.295-1.106-0.604-1.637C407.063,354.25,406.654,353.784,406.144,353.379z"/>
		<path fill="none" d="M233.495,162.399c28.984,25.607,76.908,79.694,84.029,95.845c0,0,21.76-47.93-37.27-96.791
			c-25.711-21.28-63.741-45.62-69.491-68.26C210.763,93.193,199.162,132.066,233.495,162.399z"/>
		<path fill="none" d="M306.364,173.643c19.26,20.88,24.461,42.021,24.189,59.25c4.48-13.44,18.041-21.229,27.771-24.8
			c0.68-19.07-11.641-28.3-11.641-28.3c0.9,5.01-3.291,10.92-3.291,10.92s-20.42-25.87-50.209-30.19
			C297.534,164.503,301.934,168.854,306.364,173.643z"/>
		<polygon fill="none" points="428.357,371.878 412.614,359.394 405.721,368.086 411.381,372.576 413.694,369.66 423.776,377.655 
			421.463,380.571 427.124,385.06 436.152,373.675 430.492,369.186 		"/>
		<polygon fill="none" points="478.803,289.568 480.935,283.211 473.41,280.689 472.105,284.58 464.662,287.041 460.55,280.806 
			461.96,276.598 455.111,274.301 451.045,286.426 457.896,288.723 459.924,291.215 458.597,295.174 436.172,287.656 
			432.63,298.219 439.481,300.516 440.694,296.897 465.894,305.345 464.68,308.965 471.53,311.261 475.875,298.299 469.026,296.003 
			468.222,298.401 463.972,296.976 465.156,293.447 		"/>
		<path fill="none" d="M464.428,315.592c-0.783-1.1-1.882-1.983-3.297-2.65c-0.906-0.428-1.812-0.692-2.717-0.794
			c-0.904-0.101-1.816,0-2.738,0.305c-0.92,0.304-1.854,0.84-2.799,1.607s-1.923,1.811-2.933,3.128l-2.796,3.64
			c-0.27,0.366-0.531,0.643-0.785,0.83c-0.254,0.188-0.495,0.317-0.722,0.386s-0.439,0.087-0.638,0.055
			c-0.199-0.032-0.394-0.093-0.584-0.183c-0.382-0.181-0.65-0.426-0.805-0.736c-0.155-0.311-0.234-0.646-0.238-1.009
			s0.048-0.729,0.154-1.102c0.107-0.371,0.232-0.708,0.375-1.01c0.373-0.791,0.787-1.462,1.241-2.013s0.914-0.98,1.38-1.288
			s0.927-0.49,1.382-0.549c0.455-0.058,0.873,0.003,1.254,0.183l2.627-5.566l-6.63-3.128l-1.771,3.755
			c-0.442,0.196-0.896,0.444-1.357,0.744c-0.463,0.301-0.922,0.687-1.377,1.158c-0.456,0.471-0.909,1.031-1.361,1.679
			c-0.451,0.649-0.891,1.427-1.318,2.333c-0.625,1.323-1.02,2.654-1.184,3.992c-0.165,1.338-0.105,2.602,0.18,3.791
			c0.284,1.189,0.796,2.267,1.536,3.231s1.707,1.728,2.899,2.29c2.035,0.96,4.012,1.085,5.933,0.372
			c1.92-0.712,3.772-2.239,5.557-4.58l2.933-3.682c0.536-0.644,1.036-1.032,1.497-1.167c0.462-0.134,0.924-0.092,1.384,0.125
			c0.589,0.278,0.931,0.8,1.025,1.565c0.096,0.767-0.162,1.797-0.772,3.092c-0.265,0.561-0.575,1.064-0.933,1.512
			c-0.356,0.448-0.747,0.812-1.173,1.096c-0.425,0.283-0.865,0.467-1.323,0.55c-0.457,0.084-0.919,0.023-1.388-0.18l-0.143-0.067
			l-2.881,6.106l6.63,3.127l1.842-3.905c0.481-0.195,0.949-0.436,1.405-0.723c0.456-0.286,0.902-0.646,1.341-1.081
			c0.438-0.436,0.868-0.954,1.288-1.556c0.42-0.603,0.82-1.306,1.2-2.112c0.584-1.236,0.983-2.547,1.199-3.932
			c0.216-1.384,0.199-2.729-0.051-4.033C465.729,317.894,465.212,316.692,464.428,315.592z"/>
		<path fill="none" d="M329.104,251.984c8.5-10.371,23.709-14.891,38.83-20.961c16.5-6.619,35.799-17.709,41.58-40.939
			c-20.939,15.65-44.531,19.77-61.59,30.59C336.524,227.893,330.864,244.863,329.104,251.984z"/>
		<path fill="none" d="M449.141,340.98l-8.28-5.208c-2.99-1.882-5.69-2.631-8.101-2.249s-4.408,1.831-5.991,4.349
			c-0.754,1.198-1.252,2.478-1.495,3.838c-0.242,1.359-0.26,2.716-0.052,4.068l-2.031-1.277l-5.996,9.532l6.116,3.847l1.905-3.029
			l10.892,6.851l-1.931,3.07l6.115,3.847l8.181-13.006l-6.115-3.847l-2.134,3.393l-8.905-5.602
			c-0.515-1.263-0.718-2.358-0.611-3.288c0.106-0.929,0.38-1.743,0.82-2.443c0.644-1.022,1.528-1.612,2.655-1.769
			c1.126-0.156,2.336,0.173,3.631,0.987l13.302,8.367l6.009-9.552l-6.115-3.848L449.141,340.98z"/>
		<path fill="none" d="M417.844,247.245c0-13.963-1.689-27.529-4.854-40.519c3.4-6.471,5.756-14.281,5.756-23.624v-9.481
			l-8.23,4.707c-0.08,0.046-2.295,1.309-5.791,3.216c-25.73-61.603-86.545-104.897-157.48-104.897
			c-9.771,0-19.348,0.833-28.672,2.412c-1.249-2.251-2.513-4.605-3.798-7.104l-2.685-5.215l-5.01,1.224l-2.07,3.96
			c-1.866,3.569-3.496,7.364-4.89,11.32c-71.298,20.449-123.475,86.13-123.475,164.001c0,30.862,8.197,59.811,22.53,84.787v11.124
			l2.988-6.136c4.161,6.71,8.768,13.112,13.791,19.159c2.532,13.163,5.455,20.391,5.623,20.801l8.603,20.92l4.776-13.658
			c0.684-1.955,1.587-4.068,2.667-6.287c8.984,7.542,18.754,14.177,29.175,19.76l-0.303,0.481l1.581,0.192
			c23.661,12.42,50.591,19.457,79.168,19.457C341.465,417.845,417.844,341.464,417.844,247.245z M175.763,393.784
			c0,0,28.891-45.94,17.23-67.67c-11.8-21.99-55.05,32.92-63.23,56.31l-3.1-7.54c-0.32-0.78-5.44-13.69-7.78-36.79
			c-3.79-37.37,9.66-50.95,28.62-66.3c-14.9,4.85-29.34,19.8-36.01,33.51l-6.82,14c0-43,10.6-70.59,31.08-90.31
			c-11.99,5.17-26.88,26.27-27.34,26.92c0.18-0.85,6.18-28.141,22.39-52.34c24.13-36.03,55.23-46.581,78.72-50.621
			c-11.75-12.39-14.08-50.86,0.36-78.48c22.029,42.79,38.061,48.64,72.76,76.94c37.551,2.2,58.801,28.23,58.801,28.23
			c0.061-6.77-12.58-18.81-12.58-18.81c8.311,2.53,16.01,7.7,16.01,7.7c18.779,14.32,20.631,29.64,20.84,37.031
			c16.791-4.881,47.531-22.461,47.531-22.461c0,22.631-14.932,34.98-24.881,42.43c-4.59,3.451-11.211,6.781-21.68,11.851
			c-0.5,4.63-5,19.04-8.67,24.22c15.889,7.271,35.92,26.3,1.75,66.94l-5.621-8.47c0,0-25,28.14-42.629,17.81
			c-40.24,49.87-85.01,53.77-85.01,53.77s11.369-12.27,12.09-17.689C207.234,397.624,175.763,393.784,175.763,393.784z"/>
		<path fill="none" d="M249.334,191.263c-18.48,7.86-31.441,26.1-31.472,47.38c-0.039,28.5,23.13,51.63,51.751,51.67
			c17.75,0.021,35.15-10.55,44.609-25.76c-0.859-2.53-4.1-8.39-8.35-13.69c-3.449,12.301-14.75,21.32-28.15,21.301
			c-16.129-0.021-29.18-13.11-29.16-29.24c0.021-14.24,10.24-26.08,23.74-28.641C264.604,206.423,256.674,198.503,249.334,191.263z"
			/>
		<path fill="none" d="M336.292,252.979c-0.75,3.417,0.917,5.146,0.917,5.146c-1.083-1.271,0.917-6.062,0.917-6.062L336.292,252.979
			z"/>
		<path fill="none" d="M301.313,245.383c-0.272-0.318-0.564-0.65-0.845-0.974c0.154,1.09,0.244,2.22,0.244,3.385
			c0,0.503-0.017,1.001-0.047,1.492C300.973,248.007,301.194,246.702,301.313,245.383z"/>
		<path fill="none" d="M330.504,256.843c-3.01,4.41-1.791,5.01-3.451,7c1.735,0.87,4.909-1.897,9.108-4.014
			c-1.061-1.396-1.532-3.729-1.189-6.301C332.636,254.963,330.975,256.154,330.504,256.843z"/>
		<path fill="none" d="M348.745,258.223c1.529,0.37,3.369,0.931,5.369,1.69c1.66-2.45,4.551-8.141,5.33-19.021
			c-2.041,0.99-4.07,1.97-6.041,2.921C352.883,246.324,351.075,254.533,348.745,258.223z"/>
		<path fill="none" d="M343.117,257.704c0.341-0.026,0.679-0.06,1.026-0.061c1.24-2.35,4.061-7.21,3.971-11.229
			c-1.331,0.657-2.667,1.333-3.978,2.013c0.594,1.614,0.715,3.759,0.209,6.005C344.073,255.645,343.644,256.75,343.117,257.704z"/>
		<path d="M147.775,424.438c-0.467-0.642-1.071-1.163-1.812-1.566c-0.709-0.426-1.459-0.677-2.249-0.753
			c-0.79-0.076-1.576,0.017-2.357,0.278c-0.782,0.263-1.528,0.696-2.24,1.302c-0.712,0.605-1.338,1.381-1.879,2.327
			c-0.515,0.901-0.85,1.808-1.004,2.721c-0.155,0.914-0.152,1.781,0.011,2.603c0.163,0.822,0.471,1.565,0.925,2.229
			s1.041,1.201,1.759,1.611c0.732,0.418,1.497,0.657,2.295,0.719s1.586-0.051,2.363-0.336c0.776-0.285,1.511-0.73,2.206-1.337
			c0.694-0.605,1.302-1.366,1.825-2.282c0.541-0.946,0.897-1.876,1.071-2.789c0.173-0.913,0.181-1.769,0.023-2.567
			C148.554,425.799,148.242,425.08,147.775,424.438z"/>
		<path d="M120.518,405.871c-0.628-0.462-1.338-0.792-2.128-0.991c-0.791-0.198-1.585-0.229-2.385-0.09
			c-0.8,0.139-1.575,0.435-2.326,0.888s-1.432,1.077-2.043,1.871c-0.644,0.835-1.103,1.691-1.376,2.567
			c-0.274,0.877-0.379,1.717-0.315,2.521c0.063,0.803,0.289,1.56,0.676,2.269c0.388,0.709,0.921,1.325,1.602,1.85
			c0.882,0.68,1.869,1.046,2.962,1.101c1.092,0.054,2.158-0.162,3.196-0.65l4.093-5.234c0.248-1.207,0.198-2.354-0.148-3.442
			C121.979,407.44,121.376,406.554,120.518,405.871z"/>
		<path d="M87.418,389.312c-0.334-0.162-0.68-0.262-1.038-0.298c-0.358-0.037-0.715,0.003-1.069,0.119
			c-0.355,0.116-0.688,0.329-1,0.639c-0.574,0.569-0.868,1.234-0.879,1.997c-0.012,0.762,0.362,1.526,1.124,2.295
			c0.794,0.802,1.66,1.389,2.597,1.76c0.936,0.37,1.84,0.583,2.711,0.638l2.473-2.449l-4.031-4.067
			C88.047,389.685,87.751,389.474,87.418,389.312z"/>
		<path d="M311.514,337.883c17.629,10.33,42.629-17.81,42.629-17.81l5.621,8.47c34.17-40.641,14.139-59.67-1.75-66.94
			c3.67-5.18,8.17-19.59,8.67-24.22c10.469-5.069,17.09-8.399,21.68-11.851c9.949-7.449,24.881-19.799,24.881-42.43
			c0,0-30.74,17.58-47.531,22.461c-0.209-7.391-2.061-22.711-20.84-37.031c0,0-7.699-5.17-16.01-7.7c0,0,12.641,12.04,12.58,18.81
			c0,0-21.25-26.03-58.801-28.23c-34.699-28.3-50.73-34.15-72.76-76.94c-14.44,27.62-12.11,66.09-0.36,78.48
			c-23.49,4.04-54.59,14.59-78.72,50.621c-16.21,24.199-22.21,51.49-22.39,52.34c0.46-0.65,15.35-21.75,27.34-26.92
			c-20.48,19.72-31.08,47.31-31.08,90.31l6.82-14c6.67-13.71,21.11-28.66,36.01-33.51c-18.96,15.35-32.41,28.93-28.62,66.3
			c2.34,23.1,7.46,36.01,7.78,36.79l3.1,7.54c8.18-23.39,51.43-78.3,63.23-56.31c11.661,21.729-17.23,67.67-17.23,67.67
			s31.471,3.84,62.831-19.82c-0.721,5.42-12.09,17.689-12.09,17.689S271.274,387.753,311.514,337.883z M367.084,280.983
			c8.949,15.601-9.111,33.021-9.111,33.021s-28.688-34.604-43.729-25.104c-14.719,9.29-16.66,19.824-15.342,23.914
			c1.32,4.101,6.876,19.602,46.046-4.538c0,0,4.784,3.908,6.806,8.139c0,0-31.322,29.735-42.551,11.109c0,0-23.119-2.02-16.5-21.77
			c2.77-8.29,8.75-20.92,21.791-30.101c3.75-2.439,7.34-4.229,12.229-2.25c2.24,0.91,9.65-8.359,13.611-9.56
			C344.303,262.633,358.124,265.383,367.084,280.983z M285.599,253.641c0,0-3.258-11.062,3.789-17.854l1.015,2.946
			C287.254,240.175,284.049,247.628,285.599,253.641z M281.917,247.795c0,8.358,4.206,15.135,9.397,15.135
			c0.403,0,0.797-0.055,1.187-0.134c-3.254,2.677-7.249,4.314-11.747,4.307c-12.131-0.01-21.391-8.439-21.381-20.57
			c0.02-12.14,9.871-21.959,22-21.939c0.311,0,0.621,0.01,0.93,0.03c2.668,2.795,5.256,5.538,7.724,8.195
			C285.447,233.832,281.917,240.142,281.917,247.795z M248.563,242.923c-0.02,16.13,13.031,29.22,29.16,29.24
			c13.4,0.02,24.701-9,28.15-21.301c4.25,5.301,7.49,11.16,8.35,13.69c-9.459,15.21-26.859,25.78-44.609,25.76
			c-28.621-0.04-51.79-23.17-51.751-51.67c0.03-21.28,12.991-39.52,31.472-47.38c7.34,7.24,15.27,15.16,22.969,23.02
			C258.803,216.843,248.584,228.683,248.563,242.923z M300.468,244.41c0.28,0.323,0.572,0.656,0.845,0.974
			c-0.119,1.318-0.34,2.624-0.647,3.903c0.03-0.491,0.047-0.988,0.047-1.492C300.712,246.629,300.623,245.5,300.468,244.41z
			 M336.162,259.83c-4.199,2.116-7.373,4.884-9.108,4.014c1.66-1.99,0.441-2.59,3.451-7c0.471-0.689,2.132-1.88,4.468-3.314
			C334.629,256.101,335.101,258.433,336.162,259.83z M337.209,258.125c0,0-1.667-1.729-0.917-5.146l1.834-0.916
			C338.126,252.063,336.126,256.854,337.209,258.125z M344.136,248.427c1.311-0.68,2.646-1.356,3.978-2.013
			c0.09,4.02-2.73,8.88-3.971,11.229c-0.348,0.001-0.686,0.034-1.026,0.061c0.527-0.954,0.956-2.059,1.229-3.271
			C344.851,252.186,344.73,250.041,344.136,248.427z M354.114,259.914c-2-0.76-3.84-1.32-5.369-1.69
			c2.33-3.69,4.139-11.899,4.658-14.409c1.971-0.951,4-1.931,6.041-2.921C358.665,251.773,355.774,257.463,354.114,259.914z
			 M409.514,190.083c-5.781,23.23-25.08,34.32-41.58,40.939c-15.121,6.07-30.33,10.59-38.83,20.961
			c1.76-7.121,7.42-24.091,18.82-31.311C364.983,209.853,388.575,205.734,409.514,190.083z M343.393,190.713
			c0,0,4.191-5.91,3.291-10.92c0,0,12.32,9.229,11.641,28.3c-9.73,3.57-23.291,11.359-27.771,24.8
			c0.271-17.229-4.93-38.37-24.189-59.25c-4.43-4.79-8.83-9.14-13.18-13.12C322.973,164.843,343.393,190.713,343.393,190.713z
			 M210.763,93.193c5.75,22.64,43.78,46.98,69.491,68.26c59.029,48.861,37.27,96.791,37.27,96.791
			c-7.121-16.15-55.045-70.237-84.029-95.845C199.162,132.066,210.763,93.193,210.763,93.193z M192.604,384.204
			c35.799-73.69-9.93-106.601-62.24-22.84c-7.51-33.08-7.03-68.95,36.55-97.12c-14.45-1.93-35.63,0-52.77,25.14
			c4.38-22.97,19.44-57.45,51.54-82.69c0,0-24.78,4.75-39.22,21.08c26.37-51.38,70.78-64.459,91.72-66.72
			c0.561,0.53,9.151,8.68,20.96,20.2c-20.28,9.6-34.31,30.22-34.35,54.14c-0.04,33.12,27.721,61.44,60.85,61.48
			c9.371,0.02,18.141-2.29,25.9-6.33c-26.141,32.79,14.51,42.53,14.51,42.53c0.17,0.199,0.34,0.39,0.5,0.579
			c-4.75,5.23-26.82,28.15-61.6,43.73c3.84-5.52,7.91-25.51,7.91-25.51S215.753,379.704,192.604,384.204z"/>
		<path d="M335.356,270.696c0,0,2.343,6.245,0.01,7.725s-3.322-1.037-4.947-2.475c0,0,2.039,6.6,5.438,5.625
			s2.611-4.522,1.852-6.692C336.978,272.795,335.356,270.696,335.356,270.696z"/>
		<polygon fill="#FFFFFF" points="260.973,434.867 246.829,442.303 232.684,434.867 235.385,450.617 223.942,461.77 
			239.756,464.069 246.829,478.399 253.901,464.069 269.714,461.77 258.272,450.617 		"/>
		<polygon points="192.768,51.549 198.544,50.138 191.347,33.062 		"/>
		<path d="M247.245,0C110.696,0,0,110.696,0,247.245s110.696,247.246,247.245,247.246c136.551,0,247.246-110.697,247.246-247.246
			S383.795,0,247.245,0z M443.907,188.367l8.262-13.678L458,189.567l15.562,3.631l-12.347,10.144l1.355,15.922l-13.462-8.609
			l-14.725,6.21l4.027-15.464l-10.455-12.084L443.907,188.367z M389.813,61.258l10.9,7.897l-21.812,30.108l2.116,1.534l-4.792,6.614
			l-13.017-9.431L368,91.366l2.116,1.534l17.021-23.494l-2.117-1.533L389.813,61.258z M337.331,49.88l9.996,5.136l-6.562,17.491
			l12.2-14.595l7.556,3.882l-4.818,18.387l10.281-15.581l10.229,5.255l-3.732,7.265l-2.093-1.075l-13.08,17.595l-11.043-5.673
			l2.952-13.323l-9.112,10.158L329.003,79.1l6.57-20.939l-1.976-1.015L337.331,49.88z M293.526,57.454l9.123-25.466
			c0.94-2.624,2.448-4.444,4.524-5.459c2.075-1.015,4.344-1.081,6.804-0.2l13.718,4.915c2.501,0.896,4.221,2.392,5.16,4.486
			c0.938,2.095,0.938,4.455-0.003,7.079l-9.123,25.466c-0.94,2.625-2.449,4.444-4.524,5.458c-2.076,1.016-4.344,1.081-6.804,0.2
			l-13.718-4.915c-2.502-0.896-4.226-2.381-5.171-4.456C292.565,62.49,292.571,60.12,293.526,57.454z M237.001,19.589l11.95,19.607
			l10.72-19.975l15.093-0.245l0.153,9.474l-3.659,0.059l0.427,26.329l3.659-0.059l0.154,10.539l-15.941-0.742l-0.392-24.173
			l-10.474,19.056l-11.347-18.702l0.392,24.173l-15.223,0.247l-0.154-9.539l3.659-0.059l-0.427-26.329l-3.659,0.059l-0.153-9.473
			L237.001,19.589z M156.35,34.94l6.436,13l-9.427,4.668l-2.232-4.509l-6.5,3.218l3.769,7.613l8.667-4.291l3.682,7.437l-8.666,4.291
			l4.232,8.549l6.5-3.218l-2.667-5.388l10.013-4.958l6.9,13.937l-30.152,15.424l-5.233-8.549l3.279-1.624L133.266,56.94
			l-3.279,1.624l-4.204-8.491L156.35,34.94z M120.669,52.937l9.829,13.857l-7.568,5.368l-4.347-6.129l-3.518,2.495L130.3,90.006
			l2.878-2.042l5.52,7.781l-16.255,11.53l-5.52-7.781l2.878-2.041l-15.235-21.479l-3.518,2.495l4.348,6.129l-7.568,5.368
			L87.999,76.11L120.669,52.937z M73.807,335.813c0.153-0.548,0.414-1.064,0.782-1.552c0.369-0.486,0.828-0.902,1.378-1.25
			c0.55-0.347,1.124-0.582,1.722-0.705s1.177-0.137,1.737-0.039s1.083,0.3,1.567,0.605c0.484,0.306,0.887,0.714,1.21,1.226
			c0.305,0.484,0.49,1.007,0.553,1.569c0.063,0.562,0.019,1.116-0.134,1.664c-0.153,0.548-0.412,1.068-0.776,1.562
			c-0.364,0.493-0.822,0.913-1.372,1.26c-0.55,0.348-1.126,0.579-1.728,0.695c-0.602,0.117-1.183,0.126-1.744,0.028
			s-1.081-0.296-1.56-0.595c-0.48-0.299-0.873-0.69-1.178-1.175c-0.323-0.512-0.518-1.052-0.585-1.62
			C73.611,336.919,73.654,336.362,73.807,335.813z M38.145,189.567l5.831-14.877l8.261,13.678l15.952,0.949L57.733,201.4
			l4.028,15.464l-14.725-6.21l-13.462,8.609l1.355-15.922l-12.347-10.144L38.145,189.567z M21.619,302.103
			c-1.119-1.395-1.987-3.011-2.606-4.85c-0.523-1.553-0.79-3.116-0.8-4.69s0.202-3.118,0.638-4.633s1.085-2.975,1.947-4.381
			c0.862-1.407,1.902-2.709,3.122-3.908c1.219-1.2,2.6-2.277,4.143-3.232c1.542-0.956,3.221-1.739,5.037-2.351
			c2.715-0.914,5.405-1.341,8.068-1.281c2.664,0.061,5.133,0.538,7.41,1.433c2.276,0.896,4.266,2.177,5.968,3.844
			c1.702,1.668,2.944,3.662,3.726,5.983c0.624,1.854,0.895,3.5,0.813,4.938c-0.082,1.438-0.616,3.169-1.603,5.197l1.705,5.064
			l-8.446,2.844l-2.352-6.987c1.048-1.293,1.737-2.372,2.067-3.238c0.33-0.866,0.483-1.732,0.461-2.598s-0.178-1.728-0.467-2.586
			c-0.426-1.267-1.134-2.337-2.125-3.212s-2.156-1.527-3.497-1.957s-2.8-0.631-4.376-0.604s-3.165,0.31-4.764,0.848
			c-1.616,0.545-3.062,1.278-4.336,2.203c-1.275,0.924-2.313,1.957-3.116,3.101c-0.802,1.143-1.333,2.361-1.592,3.657
			s-0.171,2.592,0.266,3.889c0.304,0.904,0.751,1.693,1.34,2.368c0.588,0.674,1.257,1.242,2.006,1.703
			c0.749,0.462,1.55,0.816,2.404,1.066c0.854,0.25,1.701,0.384,2.542,0.403l0.202,8.038c-1.79,0.082-3.533-0.095-5.228-0.531
			c-1.696-0.436-3.266-1.12-4.711-2.052C24.019,304.66,22.737,303.497,21.619,302.103z M35.966,335.482l13.583-6.734
			c1.37-0.68,2.297-1.521,2.781-2.523c0.483-1.004,0.485-1.99,0.005-2.959c-0.318-0.641-0.861-1.241-1.629-1.802
			c-0.769-0.561-1.721-1.037-2.859-1.433l-9.213,4.568l1.611,3.249l-6.473,3.209l-6.56-13.231l6.473-3.209l1.696,3.42l23.812-11.806
			l-1.696-3.42l6.473-3.209l4.949,9.982l-14.552,7.214c1.267,0.419,2.39,1.013,3.368,1.779s1.768,1.755,2.369,2.966
			c1.321,2.665,1.508,5.111,0.562,7.338s-3.002,4.125-6.167,5.694l-8.764,4.345l1.611,3.249l-6.473,3.209L35.966,335.482z
			 M51.39,361.752l-7.754-12.288l6.11-3.855l1.986,3.147l10.882-6.867l-1.986-3.147l6.11-3.855l5.92,9.383l-16.992,10.722
			l1.833,2.906L51.39,361.752z M69.989,382.452c-1.391-0.262-2.775-0.779-4.152-1.555s-2.635-1.898-3.773-3.371
			c-1.158-1.497-1.921-3.108-2.289-4.835c-0.368-1.726-0.381-3.445-0.038-5.157c0.342-1.713,1.019-3.366,2.029-4.962
			c1.011-1.596,2.322-3.018,3.936-4.265c1.599-1.236,3.285-2.123,5.059-2.66c1.773-0.537,3.526-0.741,5.259-0.613
			c1.732,0.128,3.372,0.604,4.92,1.428c1.548,0.824,2.868,2,3.96,3.527c0.873,1.015,1.534,2.142,1.982,3.383s0.699,2.557,0.75,3.944
			l2.904,3.756l-6.278,4.854l-4.028-5.209c0.332-1.122,0.432-2.164,0.299-3.126c-0.134-0.963-0.578-1.875-1.334-2.738
			c-0.509-0.773-1.133-1.351-1.873-1.733c-0.741-0.383-1.529-0.598-2.365-0.645c-0.836-0.047-1.691,0.076-2.564,0.369
			c-0.874,0.293-1.741,0.773-2.603,1.439c-0.765,0.592-1.391,1.276-1.877,2.056c-0.487,0.778-0.81,1.575-0.967,2.392
			c-0.158,0.815-0.145,1.63,0.039,2.442c0.184,0.812,0.521,1.593,1.01,2.341c0.512,0.548,1.064,0.981,1.654,1.299
			c0.59,0.317,1.201,0.534,1.834,0.647c0.633,0.114,1.265,0.143,1.899,0.085c0.633-0.057,1.196-0.155,1.688-0.295l2.428,6.416
			c-1,0.432-2.154,0.735-3.461,0.912S71.379,382.713,69.989,382.452z M84.432,401.844l1.049-1.039
			c-0.667-0.124-1.259-0.253-1.777-0.389c-0.519-0.137-0.999-0.31-1.442-0.52s-0.867-0.463-1.27-0.757
			c-0.403-0.295-0.812-0.651-1.226-1.069c-1.042-1.051-1.814-2.148-2.319-3.295c-0.504-1.146-0.762-2.279-0.771-3.4
			c-0.01-1.121,0.211-2.208,0.665-3.262c0.453-1.054,1.123-2.02,2.009-2.898c0.899-0.891,1.883-1.559,2.953-2.002
			c1.069-0.444,2.167-0.642,3.292-0.593c1.125,0.05,2.263,0.35,3.415,0.899s2.27,1.372,3.356,2.469
			c0.795,0.802,1.473,1.58,2.034,2.334c0.562,0.753,1.053,1.48,1.476,2.182l0.6-0.594c0.487-0.482,0.824-0.985,1.012-1.507
			c0.188-0.522,0.246-1.05,0.175-1.584s-0.267-1.068-0.586-1.603c-0.319-0.535-0.731-1.057-1.234-1.564
			c-1.053-1.062-2.095-1.883-3.126-2.462c-1.032-0.579-2.135-1.024-3.311-1.337l2.021-5.228c2.016,0.286,3.879,0.83,5.59,1.632
			c1.71,0.803,3.265,1.909,4.665,3.321c1.086,1.096,1.957,2.243,2.612,3.441c0.655,1.198,1.01,2.431,1.065,3.697
			c0.055,1.267-0.217,2.571-0.816,3.915c-0.599,1.344-1.598,2.709-2.996,4.095l-7.061,6.996l2.334,2.356l-5.132,5.085
			L84.432,401.844z M113.868,433.15c-1.591,0.893-3.198,1.407-4.82,1.545c-1.622,0.138-3.226-0.067-4.813-0.612
			c-1.587-0.547-3.074-1.354-4.46-2.421c-1.713-1.32-3.099-2.799-4.158-4.436c-1.058-1.636-1.817-3.33-2.275-5.08l5.935-2.817
			c0.397,1.282,0.97,2.494,1.717,3.636c0.747,1.142,1.744,2.192,2.991,3.153c0.681,0.524,1.372,0.924,2.074,1.198
			s1.417,0.376,2.145,0.305c0.728-0.071,1.469-0.35,2.223-0.833c0.754-0.484,1.523-1.234,2.306-2.251l0.081-0.104
			c-1.049-0.098-2.001-0.321-2.857-0.67c-0.856-0.349-1.649-0.805-2.38-1.368c-1.512-1.164-2.685-2.522-3.517-4.074
			c-0.833-1.551-1.324-3.188-1.472-4.911c-0.148-1.723,0.05-3.473,0.596-5.249c0.545-1.777,1.44-3.473,2.685-5.088
			c1.169-1.518,2.52-2.757,4.053-3.718c1.533-0.96,3.135-1.601,4.808-1.921c1.672-0.32,3.357-0.292,5.055,0.084
			c1.698,0.376,3.283,1.12,4.756,2.232c0.883,0.703,1.625,1.441,2.225,2.214c0.599,0.772,1.098,1.578,1.496,2.417l0.354-0.46
			l5.727,4.412l-15.979,20.741C116.958,430.898,115.459,432.256,113.868,433.15z M155.807,430.194
			c-0.304,1.831-0.948,3.608-1.933,5.333c-0.985,1.726-2.184,3.191-3.597,4.398c-1.414,1.207-2.945,2.094-4.596,2.659
			c-1.651,0.565-3.365,0.775-5.142,0.631s-3.521-0.705-5.234-1.684c-1.727-0.985-3.104-2.207-4.13-3.664
			c-1.027-1.457-1.715-3.034-2.065-4.731c-0.349-1.697-0.363-3.462-0.041-5.292c0.321-1.83,0.979-3.616,1.973-5.355
			c0.985-1.726,2.192-3.182,3.622-4.369c1.429-1.188,2.97-2.059,4.624-2.612c1.653-0.554,3.365-0.761,5.135-0.62
			c1.77,0.141,3.49,0.688,5.162,1.642c1.671,0.955,3.021,2.161,4.047,3.617c1.027,1.457,1.722,3.039,2.085,4.744
			C156.081,426.595,156.111,428.364,155.807,430.194z M166.798,397.714c-10.42-5.583-20.19-12.218-29.175-19.76
			c-1.08,2.219-1.983,4.332-2.667,6.287l-4.776,13.658l-8.603-20.92c-0.168-0.41-3.091-7.638-5.623-20.801
			c-5.023-6.047-9.63-12.449-13.791-19.159l-2.988,6.136v-11.124c-14.333-24.977-22.53-53.925-22.53-84.787
			c0-77.871,52.177-143.552,123.475-164.001c1.394-3.957,3.024-7.751,4.89-11.32l2.07-3.96l-1.789,0.437l-4.017-10.387l-7.426,1.814
			l1.287,11.053l-14.663,3.581l-2.264-9.268l3.364-0.822l-1.831-36.412l19.995-4.884l15.097,33.172l3.11-0.76l2.264,9.268
			l-8.118,1.983l2.685,5.215c1.285,2.499,2.549,4.853,3.798,7.104c9.324-1.578,18.9-2.412,28.672-2.412
			c70.936,0,131.75,43.295,157.48,104.897c3.496-1.907,5.711-3.17,5.791-3.216l8.23-4.707v9.481c0,9.343-2.355,17.153-5.756,23.624
			c3.164,12.989,4.854,26.556,4.854,40.519c0,94.22-76.379,170.601-170.6,170.601c-28.577,0-55.507-7.037-79.168-19.457
			L166.798,397.714z M407.931,358.085c-0.124,0.552-0.363,1.052-0.719,1.501c-0.376,0.474-0.82,0.836-1.335,1.088
			c-0.514,0.253-1.055,0.396-1.622,0.434c-0.568,0.037-1.143-0.037-1.724-0.225c-0.581-0.187-1.126-0.481-1.636-0.886
			s-0.922-0.868-1.235-1.392c-0.314-0.522-0.519-1.065-0.611-1.626c-0.094-0.562-0.076-1.121,0.052-1.679
			c0.129-0.558,0.381-1.074,0.756-1.548c0.356-0.448,0.788-0.796,1.298-1.042c0.509-0.245,1.047-0.387,1.615-0.424
			c0.567-0.037,1.145,0.035,1.73,0.215c0.586,0.181,1.134,0.474,1.644,0.877c0.51,0.404,0.919,0.871,1.229,1.4
			c0.309,0.53,0.51,1.075,0.604,1.637C408.07,356.977,408.054,357.534,407.931,358.085z M253.901,464.069l-7.072,14.33l-7.073-14.33
			l-15.813-2.299l11.443-11.153l-2.701-15.75l14.145,7.437l14.145-7.437l-2.701,15.75l11.442,11.153L253.901,464.069z
			 M412.843,400.931l-4.886-5.322l1.828-1.678l-15.549-16.938l12.134,29.236l-4.939,4.533l-27.697-13.874l15.013,16.355l1.986-1.823
			l4.886,5.322l-10.019,9.196l-4.886-5.322l2.479-2.274l-17.242-18.783l-2.479,2.274l-4.903-5.342l10.968-10.067l27.363,14.038
			l-12.213-27.945l11.126-10.213l4.903,5.341l-2.479,2.275l17.242,18.783l2.443-2.242l4.886,5.322L412.843,400.931z M427.124,385.06
			l-5.66-4.489l2.312-2.916l-10.082-7.995l-2.312,2.916l-5.66-4.489l6.893-8.692l15.743,12.484l2.135-2.692l5.66,4.489
			L427.124,385.06z M451.116,351.411l-13.302-8.367c-1.295-0.814-2.505-1.144-3.631-0.987c-1.127,0.156-2.012,0.746-2.655,1.769
			c-0.44,0.7-0.714,1.515-0.82,2.443c-0.106,0.93,0.097,2.025,0.611,3.288l8.905,5.602l2.134-3.393l6.115,3.847l-8.181,13.006
			l-6.115-3.847l1.931-3.07l-10.892-6.851l-1.905,3.029l-6.116-3.847l5.996-9.532l2.031,1.277c-0.208-1.353-0.19-2.709,0.052-4.068
			c0.243-1.36,0.741-2.64,1.495-3.838c1.583-2.518,3.581-3.967,5.991-4.349s5.11,0.367,8.101,2.249l8.28,5.208l1.868-2.969
			l6.115,3.848L451.116,351.411z M466.029,323.232c-0.216,1.385-0.615,2.695-1.199,3.932c-0.38,0.807-0.78,1.51-1.2,2.112
			c-0.42,0.602-0.85,1.12-1.288,1.556c-0.438,0.435-0.885,0.795-1.341,1.081c-0.456,0.287-0.924,0.527-1.405,0.723l-1.842,3.905
			l-6.63-3.127l2.881-6.106l0.143,0.067c0.469,0.203,0.931,0.264,1.388,0.18c0.458-0.083,0.898-0.267,1.323-0.55
			c0.426-0.283,0.816-0.647,1.173-1.096c0.357-0.447,0.668-0.951,0.933-1.512c0.61-1.295,0.868-2.325,0.772-3.092
			c-0.095-0.766-0.437-1.287-1.025-1.565c-0.46-0.217-0.922-0.259-1.384-0.125c-0.461,0.135-0.961,0.523-1.497,1.167l-2.933,3.682
			c-1.784,2.341-3.637,3.868-5.557,4.58c-1.921,0.713-3.897,0.588-5.933-0.372c-1.192-0.562-2.159-1.325-2.899-2.29
			s-1.252-2.042-1.536-3.231c-0.285-1.189-0.345-2.453-0.18-3.791c0.164-1.338,0.559-2.669,1.184-3.992
			c0.428-0.906,0.867-1.684,1.318-2.333c0.452-0.647,0.905-1.208,1.361-1.679c0.455-0.472,0.914-0.857,1.377-1.158
			c0.462-0.3,0.915-0.548,1.357-0.744l1.771-3.755l6.63,3.128l-2.627,5.566c-0.381-0.18-0.799-0.24-1.254-0.183
			c-0.455,0.059-0.916,0.241-1.382,0.549s-0.926,0.737-1.38,1.288s-0.868,1.222-1.241,2.013c-0.143,0.302-0.268,0.639-0.375,1.01
			c-0.106,0.372-0.158,0.739-0.154,1.102s0.083,0.698,0.238,1.009c0.154,0.311,0.423,0.556,0.805,0.736
			c0.19,0.09,0.385,0.15,0.584,0.183c0.198,0.032,0.411,0.014,0.638-0.055s0.468-0.197,0.722-0.386
			c0.254-0.188,0.516-0.464,0.785-0.83l2.796-3.64c1.01-1.317,1.987-2.36,2.933-3.128s1.879-1.304,2.799-1.607
			c0.922-0.305,1.834-0.405,2.738-0.305c0.905,0.102,1.811,0.366,2.717,0.794c1.415,0.667,2.514,1.551,3.297,2.65
			c0.784,1.1,1.301,2.302,1.55,3.606C466.228,320.503,466.245,321.848,466.029,323.232z M468.222,298.401l0.804-2.397l6.85,2.296
			l-4.346,12.962l-6.85-2.296l1.214-3.62l-25.2-8.448l-1.213,3.619l-6.851-2.297l3.542-10.563l22.425,7.519l1.327-3.959
			l-2.028-2.492l-6.851-2.297l4.065-12.125l6.85,2.297l-1.41,4.208l4.111,6.234l7.443-2.461l1.305-3.891l7.525,2.522l-2.132,6.356
			l-13.647,3.879l-1.184,3.529L468.222,298.401z"/>
		
			<rect x="310.031" y="36.935" transform="matrix(0.9414 0.3373 -0.3373 0.9414 35.2603 -102.7186)" width="6.338" height="26.333"/>
	</g>
</g>
</svg>
