<?xml version="1.0" encoding="utf-8"?>
<!-- Generator: Adobe Illustrator 16.0.4, SVG Export Plug-In . SVG Version: 6.00 Build 0)  -->
<!DOCTYPE svg PUBLIC "-//W3C//DTD SVG 1.1//EN" "http://www.w3.org/Graphics/SVG/1.1/DTD/svg11.dtd">
<svg version="1.1" id="Layer_1" xmlns="http://www.w3.org/2000/svg" xmlns:xlink="http://www.w3.org/1999/xlink" x="0px" y="0px"
	 width="612px" height="612px" viewBox="0 0 612 612" enable-background="new 0 0 612 612" xml:space="preserve">
<rect fill="#E9222D" width="612" height="612"/>
<g>
	<path fill="#FFFFFF" d="M214.326,469.304c-0.431-0.591-0.987-1.071-1.67-1.444c-0.653-0.392-1.345-0.622-2.072-0.692
		s-1.452,0.015-2.173,0.256c-0.72,0.242-1.408,0.643-2.064,1.2s-1.233,1.272-1.731,2.144c-0.475,0.832-0.783,1.667-0.926,2.508
		c-0.143,0.843-0.14,1.642,0.011,2.399c0.149,0.758,0.434,1.441,0.852,2.054c0.419,0.612,0.959,1.107,1.621,1.485
		c0.675,0.385,1.38,0.606,2.116,0.662c0.735,0.058,1.461-0.047,2.177-0.31s1.394-0.673,2.033-1.231c0.64-0.558,1.2-1.26,1.682-2.104
		c0.498-0.872,0.827-1.729,0.987-2.571c0.159-0.84,0.167-1.629,0.021-2.365C215.045,470.559,214.757,469.896,214.326,469.304z"/>
	<path fill="#FFFFFF" d="M189.206,452.192c-0.579-0.427-1.233-0.73-1.962-0.914c-0.729-0.183-1.461-0.211-2.197-0.083
		c-0.737,0.128-1.451,0.401-2.144,0.818c-0.692,0.418-1.32,0.992-1.884,1.725c-0.593,0.769-1.016,1.56-1.268,2.365
		c-0.253,0.809-0.35,1.583-0.29,2.324c0.058,0.74,0.266,1.437,0.623,2.09s0.849,1.223,1.477,1.704
		c0.812,0.627,1.723,0.965,2.729,1.016c1.007,0.049,1.989-0.149,2.945-0.6l3.772-4.824c0.229-1.112,0.183-2.171-0.137-3.173
		C190.553,453.638,189.997,452.822,189.206,452.192z"/>
	<path fill="#FFFFFF" d="M158.7,436.932c-0.308-0.149-0.627-0.241-0.956-0.275c-0.331-0.034-0.659,0.004-0.986,0.109
		c-0.327,0.108-0.634,0.305-0.922,0.589c-0.529,0.525-0.8,1.138-0.811,1.842c-0.011,0.702,0.334,1.405,1.036,2.115
		c0.732,0.737,1.53,1.279,2.394,1.621c0.862,0.341,1.695,0.537,2.498,0.587l2.279-2.257l-3.715-3.748
		C159.28,437.275,159.008,437.081,158.7,436.932z"/>
	<path fill="#FFFFFF" d="M365.231,389.533c16.247,9.521,39.287-16.413,39.287-16.413l5.181,7.806
		c31.491-37.455,13.03-54.993-1.613-61.693c3.383-4.773,7.529-18.054,7.99-22.321c9.648-4.672,15.751-7.741,19.98-10.922
		c9.17-6.865,22.931-18.247,22.931-39.104c0,0-28.33,16.202-43.806,20.7c-0.192-6.812-1.898-20.931-19.206-34.128
		c0,0-7.096-4.765-14.755-7.096c0,0,11.649,11.096,11.594,17.335c0,0-19.584-23.989-54.191-26.017
		c-31.979-26.082-46.754-31.473-67.057-70.909c-13.308,25.455-11.16,60.91-0.332,72.329c-21.648,3.723-50.311,13.446-72.55,46.653
		c-14.939,22.302-20.469,47.455-20.635,48.237c0.425-0.599,14.146-20.045,25.197-24.81c-18.875,18.173-28.644,43.601-28.644,83.23
		l6.285-12.902c6.146-12.635,19.455-26.414,33.188-30.883c-17.474,14.146-29.87,26.662-26.377,61.104
		c2.156,21.289,6.875,33.188,7.17,33.905l2.857,6.95c7.539-21.558,47.399-72.163,58.273-51.896
		c10.747,20.027-15.879,62.365-15.879,62.365s29.004,3.539,57.906-18.267c-0.665,4.995-11.143,16.303-11.143,16.303
		S328.146,435.495,365.231,389.533z M416.445,337.093c8.248,14.379-8.397,30.434-8.397,30.434s-26.438-31.894-40.301-23.138
		c-13.564,8.562-15.354,18.271-14.139,22.039c1.217,3.78,6.337,18.065,42.437-4.182c0,0,4.409,3.603,6.272,7.501
		c0,0-28.867,27.404-39.216,10.239c0,0-21.307-1.861-15.206-20.063c2.552-7.642,8.063-19.28,20.082-27.742
		c3.456-2.248,6.765-3.897,11.271-2.073c2.064,0.838,8.894-7.705,12.544-8.811C395.45,320.182,408.187,322.716,416.445,337.093z
		 M341.348,311.895c0,0-3.003-10.195,3.492-16.456l0.935,2.715C342.873,299.484,339.919,306.354,341.348,311.895z M337.954,306.507
		c0,7.702,3.877,13.948,8.661,13.948c0.372,0,0.734-0.051,1.094-0.122c-2.999,2.466-6.681,3.976-10.826,3.969
		c-11.181-0.009-19.714-7.778-19.705-18.958c0.018-11.188,9.097-20.238,20.275-20.22c0.286,0,0.572,0.009,0.856,0.028
		c2.459,2.576,4.844,5.104,7.118,7.553C341.207,293.639,337.954,299.454,337.954,306.507z M307.214,302.017
		c-0.018,14.866,12.011,26.929,26.875,26.949c12.35,0.018,22.765-8.294,25.943-19.632c3.917,4.886,6.903,10.286,7.695,12.617
		c-8.718,14.019-24.754,23.76-41.112,23.74c-26.378-0.036-47.73-21.354-47.694-47.619c0.027-19.612,11.973-36.422,29.005-43.666
		c6.764,6.672,14.072,13.972,21.168,21.215C316.652,277.981,307.234,288.893,307.214,302.017z M355.051,303.387
		c0.259,0.298,0.527,0.604,0.779,0.897c-0.11,1.214-0.313,2.417-0.597,3.598c0.027-0.454,0.043-0.911,0.043-1.375
		C355.276,305.432,355.193,304.392,355.051,303.387z M387.946,317.599c-3.87,1.949-6.795,4.5-8.395,3.698
		c1.53-1.834,0.407-2.387,3.181-6.451c0.435-0.635,1.965-1.732,4.118-3.055C386.534,314.162,386.969,316.312,387.946,317.599z
		 M388.912,316.027c0,0-1.536-1.594-0.845-4.743l1.689-0.845C389.757,310.439,387.914,314.855,388.912,316.027z M395.296,307.088
		c1.208-0.626,2.439-1.249,3.666-1.854c0.083,3.705-2.517,8.183-3.659,10.348c-0.321,0.002-0.632,0.033-0.946,0.057
		c0.486-0.879,0.881-1.897,1.132-3.016C395.955,310.553,395.843,308.576,395.296,307.088z M404.491,317.676
		c-1.843-0.7-3.539-1.217-4.948-1.559c2.147-3.4,3.814-10.966,4.293-13.279c1.816-0.877,3.687-1.779,5.567-2.692
		C408.686,310.174,406.021,315.417,404.491,317.676z M455.55,253.319c-5.328,21.41-23.114,31.63-38.321,37.73
		c-13.936,5.595-27.953,9.76-35.786,19.318c1.621-6.563,6.838-22.202,17.345-28.856C414.509,271.539,436.251,267.743,455.55,253.319
		z M394.611,253.899c0,0,3.862-5.447,3.033-10.064c0,0,11.354,8.506,10.728,26.082c-8.968,3.291-21.465,10.469-25.595,22.856
		c0.251-15.879-4.543-35.363-22.293-54.606c-4.082-4.414-8.138-8.423-12.146-12.091
		C375.792,230.057,394.611,253.899,394.611,253.899z M272.377,164.023c5.3,20.865,40.349,43.297,64.045,62.909
		c54.402,45.031,34.348,89.204,34.348,89.204c-6.562-14.885-50.729-64.732-77.442-88.333
		C261.686,199.849,272.377,164.023,272.377,164.023z M255.642,432.223c32.993-67.913-9.152-98.244-57.362-21.05
		c-6.921-30.486-6.479-63.544,33.686-89.507c-13.317-1.777-32.838,0-48.634,23.169c4.037-21.169,17.916-52.947,47.5-76.208
		c0,0-22.838,4.377-36.146,19.428c24.303-47.353,65.231-59.407,84.53-61.49c0.517,0.489,8.434,8,19.317,18.617
		c-18.691,8.847-31.621,27.851-31.657,49.896c-0.037,30.524,25.548,56.625,56.08,56.661c8.636,0.018,16.719-2.11,23.87-5.834
		c-24.092,30.221,13.372,39.197,13.372,39.197c0.156,0.184,0.313,0.358,0.461,0.533c-4.378,4.82-24.718,25.943-56.771,40.303
		c3.539-5.087,7.29-23.511,7.29-23.511S276.977,428.075,255.642,432.223z"/>
	<path fill="#FFFFFF" d="M387.204,327.612c0,0,2.159,5.756,0.009,7.119c-2.15,1.364-3.062-0.956-4.56-2.281
		c0,0,1.879,6.083,5.012,5.185c3.132-0.898,2.406-4.167,1.706-6.167C388.699,329.547,387.204,327.612,387.204,327.612z"/>
	<polygon fill="#FFFFFF" points="255.793,125.643 261.116,124.343 254.483,108.605 	"/>
	<path fill="#FFFFFF" d="M305.999,78.135c-125.846,0-227.864,102.019-227.864,227.864c0,125.846,102.019,227.866,227.864,227.866
		c125.848,0,227.866-102.021,227.866-227.866C533.865,180.154,431.847,78.135,305.999,78.135z M487.246,251.738l7.614-12.606
		l5.374,13.711l14.342,3.346l-11.379,9.349l1.249,14.675l-12.406-7.935L478.47,278l3.711-14.252l-9.636-11.137L487.246,251.738z
		 M437.393,134.591l10.046,7.278l-20.103,27.748l1.95,1.414l-4.416,6.096l-11.997-8.691l4.417-6.096l1.95,1.414l15.688-21.653
		l-1.951-1.413L437.393,134.591z M389.023,124.105l9.213,4.733l-6.048,16.121l11.244-13.451l6.963,3.578l-4.44,16.946l9.476-14.359
		l9.428,4.843l-3.44,6.696l-1.929-0.991l-12.055,16.216l-10.178-5.229l2.721-12.279l-8.397,9.362l-10.23-5.256l6.055-19.298
		l-1.82-0.936L389.023,124.105z M348.653,131.085l8.407-23.47c0.867-2.418,2.257-4.096,4.17-5.031
		c1.912-0.935,4.003-0.996,6.271-0.184l12.643,4.529c2.305,0.826,3.89,2.204,4.756,4.135c0.863,1.931,0.863,4.105-0.003,6.524
		l-8.408,23.47c-0.866,2.419-2.257,4.095-4.17,5.031c-1.913,0.936-4.003,0.996-6.271,0.184l-12.642-4.529
		c-2.307-0.826-3.895-2.194-4.766-4.106C347.768,135.727,347.772,133.542,348.653,131.085z M296.559,96.188l11.014,18.071
		l9.88-18.41l13.909-0.225l0.142,8.731l-3.372,0.054l0.394,24.266l3.372-0.055l0.143,9.712l-14.692-0.683l-0.361-22.279
		l-9.652,17.562l-10.458-17.236l0.361,22.279l-14.029,0.227l-0.142-8.791l3.371-0.054l-0.395-24.265l-3.371,0.054l-0.142-8.73
		L296.559,96.188z M222.229,110.336l5.932,11.98l-8.688,4.302l-2.058-4.156l-5.99,2.965l3.473,7.016l7.988-3.954l3.393,6.854
		l-7.986,3.955l3.9,7.879l5.99-2.966l-2.458-4.965l9.229-4.569l6.358,12.844l-27.788,14.215l-4.823-7.879l3.022-1.496l-10.768-21.75
		l-3.022,1.497l-3.874-7.826L222.229,110.336z M189.346,126.922l9.058,12.771l-6.975,4.947l-4.006-5.648l-3.242,2.299l14.04,19.795
		l2.652-1.881l5.087,7.171l-14.98,10.626l-5.087-7.171l2.652-1.881l-14.041-19.795l-3.241,2.299l4.007,5.648l-6.976,4.948
		l-9.058-12.771L189.346,126.922z M146.156,387.625c0.141-0.504,0.381-0.98,0.721-1.429s0.764-0.832,1.271-1.152
		s1.036-0.536,1.587-0.649c0.551-0.114,1.084-0.126,1.601-0.036s0.998,0.275,1.444,0.558c0.446,0.281,0.817,0.657,1.115,1.129
		c0.281,0.446,0.451,0.929,0.51,1.447c0.059,0.517,0.018,1.027-0.124,1.533c-0.141,0.504-0.38,0.984-0.715,1.44
		c-0.336,0.453-0.758,0.841-1.265,1.161c-0.506,0.32-1.037,0.532-1.592,0.641c-0.555,0.107-1.091,0.115-1.607,0.025
		s-0.996-0.272-1.438-0.548c-0.443-0.275-0.805-0.637-1.086-1.083c-0.298-0.472-0.478-0.969-0.54-1.492
		C145.976,388.646,146.016,388.131,146.156,387.625z M113.289,252.843l5.374-13.711l7.613,12.606l14.702,0.874l-9.636,11.137
		L135.055,278l-13.57-5.722l-12.407,7.935l1.249-14.675l-11.379-9.349L113.289,252.843z M98.059,356.559
		c-1.031-1.285-1.831-2.775-2.402-4.47c-0.481-1.431-0.728-2.873-0.737-4.323c-0.01-1.451,0.187-2.873,0.588-4.27
		c0.402-1.396,1-2.742,1.795-4.038c0.794-1.296,1.753-2.496,2.877-3.602s2.396-2.099,3.817-2.979
		c1.422-0.88,2.969-1.602,4.643-2.165c2.503-0.843,4.981-1.236,7.436-1.181c2.455,0.056,4.731,0.495,6.829,1.319
		c2.099,0.826,3.932,2.007,5.5,3.542c1.569,1.537,2.713,3.375,3.434,5.516c0.575,1.708,0.825,3.226,0.75,4.551
		c-0.075,1.324-0.568,2.919-1.478,4.789l1.571,4.668l-7.784,2.621l-2.168-6.44c0.967-1.192,1.602-2.186,1.906-2.984
		c0.304-0.798,0.445-1.597,0.425-2.395c-0.021-0.798-0.164-1.591-0.431-2.383c-0.394-1.167-1.046-2.153-1.958-2.96
		c-0.913-0.806-1.987-1.407-3.223-1.804c-1.236-0.396-2.581-0.581-4.034-0.556c-1.452,0.025-2.916,0.284-4.39,0.781
		c-1.489,0.502-2.821,1.177-3.996,2.03c-1.175,0.852-2.132,1.804-2.872,2.856c-0.739,1.053-1.229,2.177-1.467,3.372
		c-0.239,1.193-0.158,2.389,0.244,3.583c0.281,0.834,0.692,1.561,1.235,2.182c0.542,0.621,1.158,1.146,1.849,1.57
		c0.69,0.427,1.429,0.752,2.216,0.982c0.786,0.23,1.567,0.354,2.343,0.373l0.187,7.407c-1.65,0.075-3.256-0.087-4.818-0.49
		c-1.563-0.401-3.011-1.031-4.342-1.89C100.271,358.915,99.089,357.842,98.059,356.559z M111.281,387.321l12.52-6.207
		c1.263-0.626,2.116-1.402,2.562-2.325c0.445-0.926,0.447-1.834,0.005-2.728c-0.293-0.59-0.794-1.145-1.502-1.661
		s-1.586-0.956-2.635-1.319l-8.49,4.21l1.484,2.993l-5.966,2.958l-6.045-12.193l5.965-2.958l1.562,3.152l21.946-10.881l-1.562-3.152
		l5.965-2.957l4.562,9.199l-13.411,6.649c1.168,0.386,2.202,0.933,3.104,1.641c0.901,0.705,1.629,1.616,2.183,2.732
		c1.217,2.457,1.39,4.71,0.518,6.763c-0.872,2.052-2.767,3.801-5.684,5.248l-8.077,4.004l1.484,2.995l-5.966,2.957L111.281,387.321z
		 M125.496,411.531l-7.146-11.324l5.631-3.553l1.831,2.899l10.029-6.329l-1.831-2.899l5.631-3.554l5.456,8.647l-15.659,9.881
		l1.689,2.679L125.496,411.531z M142.638,430.608c-1.282-0.241-2.558-0.719-3.827-1.433c-1.269-0.715-2.428-1.75-3.477-3.107
		c-1.067-1.379-1.771-2.863-2.11-4.455c-0.339-1.591-0.351-3.175-0.034-4.754c0.315-1.578,0.938-3.102,1.869-4.572
		c0.932-1.471,2.141-2.78,3.627-3.931c1.474-1.14,3.028-1.957,4.663-2.452c1.634-0.495,3.25-0.682,4.847-0.565
		c1.596,0.119,3.107,0.559,4.534,1.316c1.427,0.76,2.644,1.843,3.65,3.251c0.804,0.936,1.413,1.975,1.827,3.117
		c0.413,1.146,0.644,2.356,0.69,3.637l2.677,3.461l-5.786,4.474l-3.712-4.801c0.306-1.033,0.397-1.995,0.275-2.881
		c-0.123-0.887-0.532-1.728-1.229-2.523c-0.469-0.713-1.045-1.245-1.727-1.599c-0.683-0.353-1.409-0.551-2.18-0.594
		s-1.559,0.07-2.363,0.341c-0.805,0.27-1.604,0.712-2.398,1.326c-0.705,0.546-1.282,1.177-1.73,1.896
		c-0.449,0.717-0.746,1.451-0.892,2.203c-0.146,0.753-0.134,1.503,0.036,2.252c0.169,0.749,0.479,1.467,0.931,2.156
		c0.473,0.506,0.98,0.905,1.524,1.197c0.544,0.293,1.107,0.493,1.69,0.598s1.166,0.131,1.75,0.077
		c0.584-0.052,1.103-0.143,1.557-0.271l2.237,5.913c-0.921,0.397-1.984,0.679-3.189,0.841
		C145.163,430.889,143.919,430.85,142.638,430.608z M155.948,448.48l0.967-0.957c-0.615-0.113-1.161-0.232-1.639-0.358
		s-0.92-0.284-1.328-0.479c-0.409-0.193-0.8-0.427-1.171-0.697c-0.372-0.271-0.748-0.601-1.13-0.986
		c-0.96-0.969-1.672-1.979-2.137-3.036c-0.465-1.056-0.702-2.101-0.711-3.135c-0.01-1.033,0.194-2.033,0.613-3.006
		c0.417-0.97,1.034-1.861,1.852-2.671c0.828-0.821,1.735-1.437,2.721-1.845c0.985-0.409,1.997-0.591,3.035-0.546
		c1.036,0.045,2.085,0.322,3.146,0.828c1.062,0.508,2.092,1.266,3.093,2.275c0.732,0.739,1.357,1.456,1.875,2.151
		c0.518,0.694,0.97,1.364,1.359,2.01l0.553-0.547c0.449-0.444,0.76-0.907,0.934-1.388c0.173-0.482,0.227-0.969,0.16-1.46
		c-0.065-0.493-0.245-0.984-0.539-1.478c-0.295-0.493-0.674-0.974-1.138-1.442c-0.971-0.979-1.931-1.735-2.881-2.268
		c-0.951-0.535-1.969-0.945-3.052-1.233l1.862-4.816c1.858,0.263,3.575,0.765,5.151,1.503c1.576,0.739,3.009,1.761,4.299,3.062
		c1.001,1.01,1.804,2.066,2.407,3.172c0.604,1.104,0.931,2.239,0.981,3.407c0.051,1.167-0.199,2.369-0.752,3.607
		c-0.552,1.238-1.472,2.497-2.761,3.774l-6.507,6.448l2.151,2.171l-4.729,4.688L155.948,448.48z M183.077,477.333
		c-1.467,0.823-2.947,1.297-4.442,1.424c-1.494,0.126-2.973-0.062-4.437-0.564c-1.463-0.504-2.832-1.248-4.11-2.23
		c-1.579-1.217-2.855-2.579-3.831-4.088s-1.675-3.069-2.097-4.682l5.47-2.598c0.366,1.183,0.894,2.299,1.582,3.352
		c0.688,1.051,1.607,2.02,2.757,2.905c0.627,0.484,1.264,0.852,1.911,1.105c0.647,0.252,1.306,0.346,1.977,0.28
		c0.671-0.066,1.354-0.322,2.049-0.769s1.404-1.138,2.126-2.073l0.074-0.098c-0.967-0.09-1.845-0.295-2.633-0.617
		c-0.789-0.32-1.521-0.741-2.193-1.26c-1.394-1.073-2.475-2.326-3.242-3.755c-0.768-1.43-1.22-2.938-1.355-4.527
		c-0.138-1.588,0.046-3.2,0.549-4.837c0.502-1.638,1.327-3.2,2.475-4.688c1.077-1.399,2.322-2.542,3.735-3.428
		c1.412-0.884,2.89-1.475,4.432-1.77c1.54-0.295,3.094-0.27,4.658,0.077c1.565,0.346,3.026,1.032,4.384,2.058
		c0.813,0.648,1.497,1.329,2.05,2.04c0.553,0.713,1.012,1.454,1.379,2.229l0.326-0.425l5.277,4.065l-14.727,19.117
		C185.925,475.258,184.544,476.509,183.077,477.333z M221.729,474.608c-0.279,1.688-0.873,3.326-1.781,4.916
		c-0.907,1.589-2.013,2.94-3.314,4.054c-1.303,1.112-2.715,1.93-4.235,2.449c-1.522,0.522-3.102,0.715-4.739,0.582
		c-1.637-0.134-3.245-0.65-4.823-1.552c-1.592-0.907-2.86-2.034-3.807-3.377c-0.947-1.343-1.581-2.796-1.903-4.359
		c-0.321-1.564-0.335-3.192-0.037-4.879c0.296-1.687,0.902-3.331,1.818-4.936c0.907-1.589,2.02-2.932,3.337-4.026
		s2.738-1.897,4.262-2.406c1.523-0.512,3.102-0.702,4.732-0.573c1.631,0.13,3.217,0.634,4.757,1.515
		c1.54,0.88,2.784,1.99,3.73,3.333s1.587,2.801,1.922,4.372C221.981,471.293,222.009,472.922,221.729,474.608z M231.858,444.676
		c-9.604-5.146-18.607-11.262-26.888-18.211c-0.995,2.045-1.828,3.992-2.458,5.794l-4.401,12.588l-7.929-19.28
		c-0.155-0.378-2.849-7.04-5.182-19.171c-4.63-5.572-8.876-11.473-12.71-17.658l-2.755,5.656v-10.253
		c-13.209-23.02-20.764-49.697-20.764-78.142c0-71.767,48.087-132.3,113.797-151.146c1.284-3.646,2.787-7.144,4.506-10.433
		l1.908-3.649l-1.648,0.403l-3.702-9.573l-6.845,1.672l1.187,10.187l-13.513,3.3l-2.087-8.541l3.1-0.758l-1.687-33.558l18.427-4.501
		l13.915,30.572l2.866-0.7l2.086,8.542l-7.481,1.827l2.474,4.806c1.185,2.303,2.35,4.472,3.501,6.547
		c8.593-1.455,17.419-2.223,26.424-2.223c65.375,0,121.423,39.901,145.137,96.675c3.222-1.758,5.264-2.921,5.337-2.964l7.586-4.337
		v8.738c0,8.61-2.171,15.809-5.305,21.772c2.916,11.971,4.473,24.474,4.473,37.342c0,86.836-70.392,157.229-157.228,157.229
		c-26.337,0-51.155-6.485-72.962-17.932L231.858,444.676z M454.091,408.152c-0.114,0.508-0.335,0.969-0.663,1.383
		c-0.346,0.438-0.756,0.771-1.229,1.003c-0.474,0.233-0.973,0.365-1.495,0.399c-0.524,0.034-1.054-0.034-1.589-0.207
		c-0.535-0.171-1.038-0.443-1.508-0.815c-0.47-0.373-0.85-0.801-1.139-1.283c-0.289-0.48-0.478-0.981-0.562-1.498
		c-0.087-0.519-0.07-1.033,0.047-1.548c0.119-0.513,0.352-0.99,0.697-1.426c0.328-0.414,0.726-0.734,1.196-0.961
		c0.469-0.226,0.965-0.356,1.488-0.391c0.522-0.034,1.055,0.032,1.595,0.198c0.54,0.167,1.045,0.438,1.515,0.808
		c0.47,0.373,0.847,0.803,1.132,1.291c0.285,0.489,0.471,0.991,0.557,1.508C454.219,407.13,454.204,407.644,454.091,408.152z
		 M312.134,505.828l-6.518,13.207l-6.519-13.207l-14.574-2.119l10.546-10.278l-2.489-14.515l13.036,6.853l13.035-6.853
		l-2.489,14.515l10.546,10.278L312.134,505.828z M458.617,447.64l-4.502-4.904l1.685-1.547l-14.33-15.611l11.183,26.944
		l-4.553,4.178l-25.526-12.785l13.836,15.073l1.831-1.681l4.503,4.904l-9.233,8.477l-4.503-4.905l2.284-2.097L415.4,446.375
		l-2.284,2.097l-4.519-4.923l10.107-9.279l25.219,12.938l-11.256-25.755l10.254-9.412l4.52,4.921l-2.284,2.098l15.891,17.311
		l2.252-2.066l4.502,4.905L458.617,447.64z M471.778,433.013l-5.217-4.138l2.132-2.688l-9.292-7.368l-2.131,2.688l-5.217-4.138
		l6.353-8.011l14.509,11.506l1.968-2.481l5.217,4.138L471.778,433.013z M493.89,402l-12.259-7.711
		c-1.193-0.751-2.309-1.053-3.346-0.909c-1.039,0.144-1.854,0.688-2.447,1.629c-0.406,0.646-0.658,1.396-0.756,2.252
		c-0.099,0.856,0.089,1.866,0.562,3.031l8.208,5.162l1.966-3.126l5.637,3.544l-7.54,11.986l-5.636-3.544l1.779-2.83l-10.038-6.314
		l-1.756,2.792l-5.637-3.544l5.526-8.786l1.872,1.177c-0.191-1.245-0.176-2.496,0.048-3.749s0.683-2.432,1.378-3.537
		c1.459-2.32,3.3-3.656,5.521-4.007c2.221-0.353,4.71,0.338,7.466,2.071l7.631,4.801l1.722-2.735l5.636,3.546L493.89,402z
		 M507.634,376.031c-0.198,1.276-0.566,2.484-1.104,3.623c-0.351,0.744-0.72,1.392-1.106,1.946s-0.783,1.033-1.188,1.435
		c-0.403,0.399-0.815,0.732-1.235,0.995c-0.42,0.265-0.852,0.486-1.295,0.666l-1.697,3.601l-6.11-2.882l2.655-5.629l0.131,0.062
		c0.433,0.188,0.857,0.243,1.279,0.166s0.828-0.247,1.22-0.508s0.752-0.596,1.08-1.01c0.33-0.412,0.616-0.876,0.86-1.394
		c0.562-1.193,0.8-2.142,0.712-2.849c-0.088-0.706-0.402-1.187-0.945-1.442c-0.424-0.199-0.85-0.239-1.275-0.115
		c-0.425,0.124-0.886,0.482-1.38,1.075l-2.702,3.393c-1.645,2.158-3.353,3.566-5.121,4.222c-1.771,0.656-3.593,0.541-5.468-0.343
		c-1.1-0.519-1.99-1.222-2.673-2.111c-0.682-0.889-1.153-1.881-1.415-2.977c-0.263-1.097-0.318-2.262-0.166-3.494
		c0.151-1.233,0.515-2.461,1.091-3.68c0.395-0.835,0.8-1.552,1.215-2.15c0.417-0.597,0.835-1.113,1.255-1.547
		c0.419-0.436,0.843-0.79,1.27-1.067c0.425-0.277,0.843-0.506,1.251-0.686l1.631-3.462l6.11,2.884l-2.421,5.13
		c-0.351-0.165-0.736-0.221-1.155-0.169c-0.42,0.055-0.845,0.224-1.273,0.506c-0.43,0.284-0.854,0.681-1.272,1.188
		c-0.418,0.507-0.8,1.125-1.144,1.854c-0.131,0.279-0.246,0.589-0.346,0.931c-0.098,0.344-0.146,0.683-0.142,1.016
		c0.003,0.335,0.076,0.645,0.219,0.931s0.391,0.511,0.742,0.679c0.176,0.082,0.354,0.139,0.538,0.167
		c0.183,0.03,0.379,0.013,0.588-0.051c0.209-0.062,0.431-0.182,0.665-0.354s0.475-0.428,0.724-0.765l2.576-3.355
		c0.931-1.213,1.832-2.175,2.703-2.882s1.731-1.202,2.579-1.481c0.85-0.28,1.69-0.374,2.524-0.28
		c0.834,0.093,1.668,0.336,2.504,0.73c1.304,0.615,2.316,1.429,3.038,2.442c0.723,1.014,1.199,2.122,1.429,3.325
		C507.817,373.517,507.833,374.755,507.634,376.031z M509.655,353.146l0.741-2.209l6.312,2.115l-4.005,11.947l-6.312-2.117
		l1.118-3.335l-23.225-7.787l-1.118,3.335l-6.313-2.116l3.265-9.735l20.667,6.929l1.223-3.648l-1.869-2.297l-6.313-2.117
		l3.747-11.175l6.312,2.117l-1.3,3.879l3.789,5.746l6.86-2.269l1.202-3.585l6.936,2.323l-1.965,5.859l-12.577,3.575l-1.091,3.252
		L509.655,353.146z"/>
	
		<rect x="363.864" y="112.175" transform="matrix(0.9414 0.3374 -0.3374 0.9414 63.4402 -116.4521)" fill="#FFFFFF" width="5.841" height="24.268"/>
</g>
</svg>
