<?xml version="1.0" encoding="utf-8"?>
<!-- Generator: Adobe Illustrator 16.0.4, SVG Export Plug-In . SVG Version: 6.00 Build 0)  -->
<!DOCTYPE svg PUBLIC "-//W3C//DTD SVG 1.1//EN" "http://www.w3.org/Graphics/SVG/1.1/DTD/svg11.dtd">
<svg version="1.1" xmlns="http://www.w3.org/2000/svg" xmlns:xlink="http://www.w3.org/1999/xlink" x="0px" y="0px" width="800px"
	 height="800px" viewBox="0 0 800 800" enable-background="new 0 0 800 800" xml:space="preserve">
<g id="Layer_1">
	<rect fill="#EF4423" width="800" height="800"/>
</g>
<g id="Layer_3">
	<g>
		<g>
			<path fill="#FFFFFF" d="M39.317,584.369v-77.01h38.562c17.32,0,26.787,11.662,26.787,25.633c0,13.852-9.467,25.514-26.787,25.514
				H59.175v25.863H39.317z M84.461,532.992c0-5.311-4.272-8.316-9.583-8.316H59.175v16.512h15.704
				C80.189,541.188,84.461,538.186,84.461,532.992z"/>
			<path fill="#FFFFFF" d="M113.542,553.195v-45.836h20.203v45.143c0,9.121,5.543,15.703,16.282,15.703
				c10.622,0,16.164-6.582,16.164-15.703v-45.143h20.088v45.719c0,19.166-11.544,32.676-36.252,32.676
				C125.318,585.754,113.542,572.129,113.542,553.195z"/>
			<path fill="#FFFFFF" d="M252.536,584.369l-32.56-44.562v44.562h-19.858v-77.01h20.435l31.174,42.373v-42.373H271.7v77.01H252.536
				z"/>
			<path fill="#FFFFFF" d="M281.614,545.922c0-23.783,18.011-39.834,41.678-39.834c18.589,0,28.634,10.508,33.6,20.549
				l-17.088,8.197c-2.542-6.115-9.124-11.197-16.512-11.197c-12.584,0-21.474,9.586-21.474,22.285
				c0,12.584,8.889,22.283,21.474,22.283c7.388,0,13.969-5.078,16.512-11.201l17.088,8.084c-4.966,9.811-15.011,20.666-33.6,20.666
				C299.625,585.754,281.614,569.59,281.614,545.922z"/>
			<path fill="#FFFFFF" d="M417.26,584.369v-30.943h-31.984v30.943h-19.858v-77.01h19.858v28.75h31.984v-28.75h19.857v77.01H417.26z
				"/>
			<path fill="#FFFFFF" d="M447.031,545.922c0-23.783,18.006-39.834,41.682-39.834c18.586,0,28.631,10.508,33.594,20.549
				l-17.086,8.197c-2.541-6.115-9.121-11.197-16.508-11.197c-12.588,0-21.479,9.586-21.479,22.285
				c0,12.584,8.891,22.283,21.479,22.283c7.387,0,13.967-5.078,16.508-11.201l17.086,8.084
				c-4.963,9.811-15.008,20.666-33.594,20.666C465.037,585.754,447.031,569.59,447.031,545.922z"/>
			<path fill="#FFFFFF" d="M582.213,584.369l-3.811-11.088h-30.363l-3.811,11.088h-22.514l28.98-77.01h25.055l28.979,77.01H582.213z
				 M563.279,526.988l-9.812,28.977h19.51L563.279,526.988z"/>
			<path fill="#FFFFFF" d="M653.32,584.369l-12.93-25.863h-10.164v25.863h-19.855v-77.01h38.561
				c17.088,0,26.785,11.314,26.785,25.633c0,13.391-8.08,20.551-15.355,23.092l15.703,28.285H653.32z M655.512,532.873
				c0-5.309-4.271-8.197-9.578-8.197h-15.707v16.512h15.707C651.24,541.188,655.512,538.299,655.512,532.873z"/>
			<path fill="#FFFFFF" d="M686.672,584.369v-77.01h32.33c24.238,0,41.682,14.547,41.682,38.447s-17.443,38.562-41.568,38.562
				H686.672z M740.361,545.807c0-11.891-7.16-21.131-21.246-21.131h-12.582v42.373h12.469
				C732.51,567.049,740.361,557.24,740.361,545.807z"/>
		</g>
		<g>
			<rect x="358.671" y="309.969" fill="#FFFFFF" width="75.442" height="14.197"/>
			<rect x="358.671" y="281.576" fill="#FFFFFF" width="75.442" height="14.197"/>
			<rect x="358.671" y="253.183" fill="#FFFFFF" width="75.442" height="14.196"/>
			<rect x="444.254" y="309.969" fill="#FFFFFF" width="14.197" height="14.197"/>
			<rect x="444.254" y="281.576" fill="#FFFFFF" width="14.197" height="14.197"/>
			<rect x="444.254" y="253.183" fill="#FFFFFF" width="14.197" height="14.196"/>
			<path fill="#FFFFFF" d="M486.033,214.246H340.012h-9.732h-10.278v20.011v135.745h20.011v-9.734V234.256h136.287v164.896
				c-0.055,4.886-1.725,29.253-29.205,29.253c-27.479,0-29.145-24.367-29.201-29.202v-10.273H271.7v20.007h10.278h117.438
				c3.331,17.072,15.78,38.938,47.678,38.938c38.502,0,48.674-31.838,48.674-48.672V234.256v-10.275v-9.735H486.033z"/>
		</g>
	</g>
</g>
</svg>
