<?xml version="1.0" encoding="utf-8"?>
<!-- Generator: Adobe Illustrator 16.0.4, SVG Export Plug-In . SVG Version: 6.00 Build 0)  -->
<!DOCTYPE svg PUBLIC "-//W3C//DTD SVG 1.1//EN" "http://www.w3.org/Graphics/SVG/1.1/DTD/svg11.dtd">
<svg version="1.1" id="Layer_1" xmlns="http://www.w3.org/2000/svg" xmlns:xlink="http://www.w3.org/1999/xlink" x="0px" y="0px"
	 width="737.064px" height="353.386px" viewBox="0 0 737.064 353.386" enable-background="new 0 0 737.064 353.386"
	 xml:space="preserve">
<path d="M627.94,70.754c0,0,3.251-7.069,3.437-19.117c0.198-12.045,1.994-14.42,5.769-16.792c0,0-7.781-2.861-14.629,7.368
	c0,0,4.8-12.783,15.901-7.545c0,0-4.881,1.85-4.471,9.72c0.438,8.095-1.943,17.039-2.334,19.938c0,0,5.347-13.066,13.991-17.916
	c-4.668,3.471-12.25,22.133-12.25,22.133c-0.785,1.849-26.374,64.477-57.776,66.803c0,0,29.003-5.851,56.944-67.751
	c0,0,2.463-5.066,7.557-15.566c0,0-4.157,4.092-6.994,10.838C630.265,69.599,627.94,70.754,627.94,70.754"/>
<path d="M299.798,92.842c106.744-23.782,202.98,81.574,284.79,47.206c23.374-9.809,22.492-24.944,22.313-27.031
	c0,0,1.9-2.839,1.76,1.845c-0.129,4.685-4.934,19.333-24.073,27.369C487.087,183.178,428.622,74.519,299.798,92.842"/>
<path d="M624.084,47.92c0,0-0.743-5.953-6.667-3.456c0,0,1.539-2.775,4.875-1.203C625.476,44.781,624.084,47.92,624.084,47.92"/>
<path d="M409.056,85.878c95.077-48.73,146.998-26.33,155.06-22.617c8.063,3.708,11.045,10.527,24.158,5.667
	c13.44-4.969,14.527-16.253,26.466-20.66c8.917-3.3,8.984,6.939,8.984,6.939s0.492-2.451-0.403-4.867
	c-0.894-2.417-3.296-5.928-12.636-2.469c-9.366,3.461-13.94,16.386-23.665,20.303c-11.173,4.492-16.759-3.428-25.488-7.441
	C552.812,56.715,505.949,27.673,409.056,85.878"/>
<path d="M606.719,79.307c0,0,6.119-2.057,9.546-12.871c2.48-7.897,7.554-9.318,7.554-9.318s-2.409-1-4.922,2.123
	c-2.244,2.792-3.882,3.337-5.195,6.218C612.377,68.327,613.699,72.882,606.719,79.307"/>
<path d="M611.522,77.902c0,0,2.766-1.752,5.454-9.539c2.214-6.403,3.241-4.869,3.241-4.869s-0.131,0.886,1.085,0.976
	c1.229,0.094,1.102,2.983,0.428,3.608c-0.69,0.619-0.805,2.037-4.45,2.101c0,0,0.272-1.014,2.002-1.294
	c1.717-0.273-0.554-1.724-1.496-0.817c-0.947,0.907-0.18,4.519-5.621,10.331C611.107,79.517,610.193,79.033,611.522,77.902"/>
<path d="M623.169,65.8c0,0,0.765,2.556-3.929,5.948C619.241,71.748,624.423,70.646,623.169,65.8"/>
<path d="M621.865,62.994c0,0,1.692,0.096,2.319,1.332C624.184,64.326,624.16,61.772,621.865,62.994"/>
<path d="M578.728,90.058c0,0-5.273-9.654-20.946-17.663C542.108,64.381,569.109,78.224,578.728,90.058"/>
<path d="M568.678,83.021c0,0-13.458-14.581-34.215-17.524C534.463,65.497,556.64,71.954,568.678,83.021"/>
<path d="M559.565,79.194c0,0-14.054-14.861-46.534-14.449C513.031,64.745,542.06,66.228,559.565,79.194"/>
<path d="M549.634,79.442c0,0-16.755-16.546-52.984-12.064C496.65,67.378,527.223,65.111,549.634,79.442"/>
<path d="M541.812,81.106c0,0-19.609-17.675-56.729-10.296C485.083,70.81,514.459,65.316,541.812,81.106"/>
<path d="M532.581,82.567c0,0-24.216-16.22-57.258-8.76C475.323,73.807,504.652,69.189,532.581,82.567"/>
<path d="M526.266,85.636c0,0-19.817-14.907-58.972-8.743C467.294,76.893,498.447,73.556,526.266,85.636"/>
<path d="M521.495,88.623c0,0-25.689-14.941-62.823-8.29C458.671,80.333,489.565,75.985,521.495,88.623"/>
<path d="M451.051,83.521c0,0,34.824-7.625,64.053,9.296C515.104,92.816,485.093,80.085,451.051,83.521"/>
<path d="M444.411,85.731c0,0,35.279-5.722,62.604,10.321C507.014,96.052,482.233,84.204,444.411,85.731"/>
<path d="M500.947,100.132c0,0-20.169-14.537-62.835-12.919C438.112,87.212,482.416,89.022,500.947,100.132"/>
<path d="M430.502,88.43c0,0,37.311-2.561,62.755,17.362C493.257,105.792,472.557,91.457,430.502,88.43"/>
<path d="M490.477,112.813c0,0-17.731-19.85-67.143-23.925C423.334,88.888,468.958,95.593,490.477,112.813"/>
<path d="M485.11,117.114c0,0-25.147-22.713-69.013-27.637C416.097,89.478,455.886,96.266,485.11,117.114"/>
<path d="M483.045,117.602c0,0-26.554-23.271-81.166-35.771C401.879,81.831,454.04,96.428,483.045,117.602"/>
<path d="M475.434,116.926c0,0-32.433-22.438-87.357-36.158C388.077,80.768,444.046,97.311,475.434,116.926"/>
<path d="M465.826,115.255c0,0-25.87-19.242-92.099-36.003C373.727,79.251,431.765,96.365,465.826,115.255"/>
<path d="M455.189,113.298c0,0-43.333-27.661-104.736-35.884C350.453,77.414,408.278,86.827,455.189,113.298"/>
<path d="M309.774,0.969c55.775,46.352,104.246,42.596,180.114,39.526c76.331-3.091,87.436,22.283,88.389,24.86
	c0.957,2.583,0.271,4.672,0.271,4.672l1.283,0.193c0,0,0.418-2.847-0.454-5.204c-0.871-2.373-22.244-35.039-84.341-30.406
	C442.527,38.527,377.029,54.566,308.438,0"/>
<path d="M468.457,49.729c0,0-12.614,0.952-19.919-0.868C448.538,48.861,453.844,52.321,468.457,49.729"/>
<path d="M483.847,44.336c0,0-26.045,4.307-46.86,0.751C436.987,45.087,455.458,50.719,483.847,44.336"/>
<path d="M491.583,49.308c0,0-32.611,6.004-64.953,1.57C426.63,50.877,453.419,57.645,491.583,49.308"/>
<path d="M485.037,46.223c0,0-40.806,6.39-67.483,1.682C417.553,47.904,442.072,54.974,485.037,46.223"/>
<path d="M478.891,34.206c0,0-48.116,6.051-77.702,0.208C401.189,34.414,424.164,42.195,478.891,34.206"/>
<path d="M463.854,32.939c0,0-42.034,5.396-85.34-4.922C378.514,28.017,421.694,40.689,463.854,32.939"/>
<path d="M252.066,90.131C210.52,54.112,146.551,36.15,72.289,61.57C-0.968,86.651-8.018,135.497,5.676,163.385
	c3.205,6.504,4.893,3.94,2.095-2.718C4.973,153.99-19.58,93.756,72.398,62.914c73.004-24.481,135.612-7.715,176.792,26.631
	L252.066,90.131z"/>
<path d="M312.948,265.323c6.119,23.914-3.318,49.817-35.23,63.22c-73.678,30.939-139.296-51.968-69.774-81.166
	c62.484-26.239,103.76,37.149,158.142,21.961c0,0,2.628,0.223,0.377,0.906c-51.245,15.573-102.625-45.066-159.328-21.253
	c-65.914,27.685-2.678,109.461,70.279,78.831c31.806-13.362,41.09-39.316,34.713-63.12L312.948,265.323z"/>
<path d="M49.605,72.02c0,0-16.682,10.067-12.835,19.243C38.629,95.704,33.127,84.792,49.605,72.02"/>
<path d="M3.598,125.218c0,0-3.885,19.096,5.472,22.48C13.603,149.332,1.846,145.994,3.598,125.218"/>
<path d="M59.726,67.673c0,0-18.095,7.278-15.741,16.946C45.11,89.309,41.42,77.648,59.726,67.673"/>
<path d="M134.49,51.056c0,0-19.416,1.703-19.994,11.63C114.23,67.501,114.074,55.285,134.49,51.056"/>
<path d="M145.495,51.604c0,0-19.447-1.416-21.595,8.285C122.859,64.603,124.665,52.51,145.495,51.604"/>
<path d="M239.6,340.355c0,0,48.675,15.724,73.423-31.826C313.023,308.529,288.51,346.352,239.6,340.355"/>
<path d="M209.708,341.46c0,0,36.321,18.654,77.972,1.162c44.826-18.824,46.127-58.538,46.127-58.538s2.072,41.691-46.649,62.144
	C243.059,364.758,209.708,341.46,209.708,341.46"/>
<path d="M207.025,342.615c0,0-2.549-1.973-0.918-3.294c1.63-1.324,3.342,0.391,3.342,0.391s-2.918-4.272-5.1-1.513
	C202.293,340.799,207.025,342.615,207.025,342.615"/>
<path d="M202.304,338.555c0,0-2.039-1.572-0.734-2.638c1.303-1.047,2.675,0.312,2.675,0.312s-2.33-3.406-4.077-1.202
	C198.513,337.113,202.304,338.555,202.304,338.555"/>
<path d="M198.433,334.903c0,0-1.623-1.264-0.591-2.119c1.051-0.838,2.148,0.257,2.148,0.257s-1.872-2.726-3.269-0.971
	C195.4,333.735,198.433,334.903,198.433,334.903"/>
<path d="M194.332,330.739c0,0-1.309-1.01-0.47-1.678c0.838-0.677,1.71,0.188,1.71,0.188s-1.487-2.184-2.606-0.769
	C191.909,329.812,194.332,330.739,194.332,330.739"/>
<g>
	<g>
		<path d="M114.043,226.983l0.09-0.063c2.228-1.587,3.797-4.15,4.663-7.618c5.025-20.908,10.05-41.737,15.076-62.492
			c1.238-5.096,0.373-8.432-2.571-9.917l-0.108-0.055l0.283-0.604l0.1,0.024c1.745,0.426,3.687,0.643,5.771,0.643
			c1.145,0,2.359-0.065,3.61-0.193c3.651-0.378,6.807-1.182,9.381-2.387l0.109-0.051l0.293,0.559l-0.085,0.064
			c-2.959,2.225-3.831,5.801-2.591,10.627c4.962,19.67,9.923,39.408,14.886,59.212c0.865,3.282,2.429,5.508,4.648,6.612l0.11,0.056
			l-0.29,0.596l-0.104-0.033c-2.321-0.75-4.623-1.13-6.84-1.13c-3.116,0-6.172,0.75-9.084,2.231l-0.111,0.057l-0.291-0.565
			l0.078-0.063c1.833-1.495,2.008-4.831,0.523-9.915l-2.024-6.708c-5.856,0.51-11.632,1.106-17.172,1.772l-2.067,6.789
			c-1.608,5.648-1.494,9.073,0.34,10.177l0.097,0.059l-0.284,0.601l-0.103-0.03c-1.667-0.502-3.391-0.757-5.124-0.757
			c-3.451,0-7.084,1.009-10.8,2.998l-0.11,0.059L114.043,226.983z M140.951,171.489c-2.008,8.263-4.016,16.537-6.023,24.824
			c3.849-0.445,7.874-0.861,11.971-1.236C144.917,187.201,142.933,179.337,140.951,171.489z"/>
		<path fill="#FFFFFF" d="M150.391,144.434c0.063,0.121,0.126,0.243,0.188,0.359c-3.015,2.268-3.895,5.863-2.637,10.759
			c4.962,19.669,9.923,39.407,14.886,59.211c0.88,3.339,2.449,5.566,4.714,6.694c-0.063,0.131-0.127,0.26-0.188,0.387
			c-2.347-0.758-4.64-1.136-6.879-1.136c-3.155-0.001-6.201,0.75-9.141,2.245c-0.062-0.122-0.126-0.243-0.188-0.364
			c1.883-1.536,2.072-4.886,0.564-10.047c-0.684-2.271-1.37-4.539-2.054-6.807c-5.787,0.503-11.572,1.095-17.358,1.792
			c-0.698,2.289-1.394,4.576-2.091,6.867c-1.634,5.738-1.502,9.179,0.395,10.32c-0.063,0.135-0.126,0.27-0.189,0.401
			c-1.685-0.507-3.405-0.762-5.16-0.762c-3.481,0-7.1,1.001-10.859,3.013c-0.062-0.115-0.126-0.23-0.188-0.347
			c2.263-1.611,3.833-4.168,4.711-7.689c5.026-20.909,10.051-41.738,15.076-62.493c1.256-5.171,0.377-8.538-2.637-10.058
			c0.062-0.134,0.127-0.266,0.189-0.401c1.777,0.434,3.711,0.646,5.801,0.646c1.16,0,2.367-0.065,3.623-0.194
			C144.611,146.455,147.752,145.669,150.391,144.434 M134.764,196.458c4.097-0.476,8.194-0.896,12.291-1.27
			c-2.035-8.088-4.072-16.16-6.106-24.219C138.887,179.453,136.826,187.948,134.764,196.458 M150.502,144.105l-0.217,0.102
			c-2.561,1.2-5.704,2-9.341,2.376c-1.247,0.127-2.457,0.192-3.597,0.192c-2.075,0-4.007-0.215-5.742-0.639l-0.201-0.049
			l-0.086,0.188l-0.103,0.218l-0.085,0.182l-0.103,0.22l0.216,0.109c2.886,1.455,3.729,4.744,2.506,9.775
			c-5,20.65-10.072,41.676-15.076,62.494c-0.857,3.437-2.41,5.976-4.613,7.544l-0.179,0.128l0.104,0.194l0.105,0.192l0.084,0.154
			l0.118,0.22l0.22-0.117c3.698-1.979,7.312-2.983,10.741-2.983c1.721,0,3.433,0.253,5.087,0.751l0.206,0.062l0.092-0.193
			l0.19-0.403l0.095-0.203l-0.193-0.116c-1.779-1.071-1.875-4.448-0.284-10.038l0.754-2.478l1.289-4.229
			c5.481-0.658,11.194-1.248,16.985-1.754l0.682,2.26l1.313,4.353c1.469,5.029,1.307,8.321-0.483,9.781l-0.156,0.127l0.092,0.181
			l0.086,0.166l0.102,0.197l0.114,0.223l0.223-0.113c2.894-1.472,5.931-2.219,9.027-2.218c2.205,0,4.493,0.378,6.802,1.124
			l0.207,0.066l0.095-0.195l0.081-0.166l0.108-0.222l0.107-0.223l-0.221-0.109c-2.186-1.089-3.728-3.287-4.583-6.534
			c-5.043-20.125-10.051-40.047-14.886-59.209c-1.226-4.774-0.37-8.306,2.545-10.498l0.17-0.128l-0.1-0.188l-0.188-0.357
			L150.502,144.105L150.502,144.105z M135.091,196.168c1.954-8.065,3.908-16.118,5.862-24.16c1.929,7.639,3.859,15.291,5.788,22.957
			C142.757,195.332,138.841,195.736,135.091,196.168L135.091,196.168z"/>
	</g>
</g>
<g>
	<g>
		<path d="M199.842,222.697c-0.602-1.919-2.531-2.892-5.734-2.892l-0.177,0.001c-6.465,0.076-12.868,0.247-19.031,0.506
			c-2.6,0.108-5.122,0.663-7.496,1.647l-0.106,0.044l-0.294-0.571l0.098-0.061c1.964-1.205,2.959-3.503,2.959-6.832v-64.062
			c0-3.328-0.993-5.52-2.951-6.516l-0.11-0.056l0.29-0.596l0.105,0.035c2.448,0.812,4.891,1.223,7.259,1.223
			c2.937,0,5.854-0.632,8.669-1.88l0.109-0.048l0.29,0.578l-0.088,0.062c-1.83,1.281-2.758,3.56-2.758,6.774v58.901
			c5.321-0.171,10.727-0.276,16.071-0.313c3.35-0.023,5.982-0.986,7.822-2.863l0.064-0.065l0.589,0.297l-0.083,0.119
			c-3.736,5.347-5.377,10.841-4.879,16.332l0.008,0.087l-0.584,0.292L199.842,222.697z"/>
		<path fill="#FFFFFF" d="M183.375,142.802c0.063,0.125,0.127,0.25,0.188,0.374c-1.875,1.312-2.811,3.61-2.811,6.877
			c0,19.677,0,39.353,0,59.03c5.399-0.175,10.798-0.28,16.197-0.317c3.39-0.023,6.027-0.979,7.911-2.9
			c0.127,0.064,0.251,0.129,0.378,0.191c-3.77,5.395-5.403,10.883-4.901,16.415c-0.127,0.062-0.251,0.124-0.377,0.188
			c-0.617-1.969-2.568-2.979-5.853-2.979c-0.059,0-0.119,0-0.179,0.001c-6.345,0.075-12.69,0.239-19.035,0.506
			c-2.638,0.11-5.151,0.667-7.539,1.657c-0.063-0.121-0.125-0.242-0.188-0.366c2.012-1.234,3.019-3.545,3.019-6.938
			c0-21.354,0-42.708,0-64.062c0-3.39-1.007-5.604-3.019-6.627c0.063-0.128,0.125-0.255,0.188-0.387
			c2.47,0.819,4.904,1.229,7.299,1.229C177.62,144.692,180.526,144.063,183.375,142.802 M183.492,142.477l-0.218,0.097
			c-2.8,1.24-5.7,1.869-8.619,1.869c-2.355,0-4.785-0.409-7.22-1.217l-0.209-0.069l-0.095,0.199l-0.167,0.343l-0.108,0.221
			l0.199,0.153c1.913,0.973,2.882,3.128,2.882,6.405v64.062c0,3.282-0.976,5.545-2.9,6.726l-0.196,0.12l0.104,0.206l0.19,0.368
			l0.105,0.203l0.212-0.088c2.361-0.979,4.868-1.529,7.453-1.638c6.162-0.259,12.563-0.43,19.027-0.506l0.176-0.001
			c3.142,0,5.031,0.943,5.614,2.805l0.089,0.283l0.264-0.136c0.124-0.063,0.247-0.125,0.372-0.187l0.156-0.075l-0.016-0.172
			c-0.496-5.461,1.138-10.928,4.857-16.249l0.167-0.239l-0.262-0.129l-0.266-0.134l-0.109-0.056l-0.164-0.083l-0.128,0.131
			c-1.816,1.852-4.418,2.803-7.734,2.825c-5.302,0.036-10.666,0.141-15.945,0.31v-58.772c0-3.171,0.91-5.416,2.705-6.672
			l0.176-0.123l-0.095-0.192l-0.116-0.229l-0.073-0.146L183.492,142.477L183.492,142.477z"/>
	</g>
</g>
<g>
	<g>
		<path d="M221.125,221.316c-2.654-1.172-5.394-1.766-8.143-1.766c-2.541,0-5.158,0.507-7.781,1.508l-0.106,0.04l-0.291-0.58
			l0.097-0.061c1.964-1.213,2.96-3.451,2.96-6.652v-64.062c0-3.331-0.995-5.584-2.956-6.696l-0.103-0.058l0.288-0.578l0.1,0.028
			c1.841,0.515,4.115,0.899,6.761,1.142c1.324,0.109,2.885,0.163,4.771,0.163c0.75,0,1.542-0.008,2.375-0.025
			c3.268,0.083,5.394,0.151,6.385,0.184l0.593,0.019c6.888,0.233,12.371,2.703,16.298,7.343c3.521,4.082,5.306,9.087,5.306,14.877
			c0,5.896-1.784,10.894-5.304,14.851c-3.692,4.213-8.611,6.349-14.62,6.349c-0.304,0-0.61-0.005-0.92-0.016
			c-2.72-0.094-5.438-0.173-8.159-0.24v26.876c0,3.215,0.928,5.491,2.759,6.768l0.089,0.062l-0.29,0.575L221.125,221.316z
			 M218.677,175.944c2.723,0.066,5.447,0.146,8.17,0.241c0.171,0.006,0.341,0.009,0.508,0.009c2.973,0,5.336-0.964,7.024-2.865
			c1.792-2.021,2.702-4.485,2.702-7.323c0-2.844-0.815-5.324-2.424-7.372c-1.981-2.315-4.612-3.546-7.818-3.655
			c-2.72-0.094-5.441-0.174-8.162-0.241V175.944z"/>
		<path fill="#FFFFFF" d="M205.157,142.559c1.884,0.527,4.146,0.904,6.783,1.146c1.339,0.111,2.934,0.163,4.782,0.163
			c0.751,0,1.543-0.008,2.377-0.025c4.272,0.108,6.596,0.193,6.973,0.202c6.908,0.233,12.312,2.699,16.206,7.299
			c3.519,4.08,5.276,9.025,5.276,14.797c0,5.903-1.758,10.816-5.272,14.768c-3.706,4.229-8.549,6.307-14.527,6.307
			c-0.303,0-0.607-0.005-0.916-0.016c-2.763-0.095-5.525-0.176-8.288-0.243c0,9.002,0,18.005,0,27.004
			c0,3.275,0.937,5.562,2.812,6.87c-0.063,0.126-0.127,0.247-0.188,0.371c-2.68-1.184-5.412-1.776-8.193-1.776
			c-2.565,0-5.174,0.505-7.826,1.516c-0.062-0.127-0.127-0.251-0.19-0.377c2.012-1.243,3.019-3.493,3.019-6.759
			c0-21.354,0-42.708,0-64.062c0-3.393-1.007-5.664-3.019-6.805C205.03,142.809,205.094,142.685,205.157,142.559 M227.355,176.319
			c3.02,0,5.393-0.964,7.117-2.907c1.82-2.052,2.733-4.515,2.733-7.406c0-2.884-0.818-5.371-2.451-7.449
			c-2.009-2.349-4.648-3.592-7.912-3.703c-2.763-0.096-5.528-0.176-8.291-0.244c0,7.154,0,14.306,0,21.456
			c2.763,0.067,5.528,0.148,8.291,0.244C227.016,176.316,227.187,176.319,227.355,176.319 M205.025,142.263l-0.092,0.185l-0.08,0.16
			l-0.11,0.221l-0.103,0.211l0.204,0.116c1.919,1.088,2.893,3.305,2.893,6.588v64.062c0,3.154-0.976,5.357-2.9,6.546l-0.194,0.12
			l0.102,0.204l0.08,0.158l0.109,0.218l0.101,0.204l0.212-0.081c2.609-0.994,5.212-1.499,7.737-1.499
			c2.732,0,5.455,0.591,8.092,1.755l0.219,0.097l0.106-0.214l0.098-0.193l0.09-0.177l0.097-0.193l-0.177-0.124
			c-1.795-1.251-2.706-3.494-2.706-6.665v-26.748c2.663,0.066,5.363,0.146,8.029,0.237c0.312,0.011,0.619,0.016,0.925,0.016
			c6.047,0,10.998-2.15,14.715-6.392c3.539-3.98,5.334-9.005,5.334-14.933c0-5.821-1.795-10.854-5.337-14.96
			c-3.95-4.667-9.464-7.152-16.387-7.386l-0.595-0.019c-0.991-0.032-3.117-0.101-6.38-0.184c-0.844,0.017-1.635,0.025-2.384,0.025
			c-1.882,0-3.44-0.053-4.762-0.162c-2.636-0.242-4.903-0.625-6.736-1.138L205.025,142.263L205.025,142.263z M218.802,175.822
			v-20.955c2.729,0.067,5.43,0.147,8.032,0.237c3.17,0.107,5.771,1.324,7.731,3.615c1.584,2.017,2.391,4.471,2.391,7.286
			c0,2.807-0.898,5.243-2.67,7.24c-1.663,1.873-3.994,2.823-6.93,2.823c-0.166,0-0.333-0.003-0.503-0.009
			C224.199,175.968,221.492,175.888,218.802,175.822L218.802,175.822z"/>
	</g>
</g>
<g>
	<g>
		<path d="M288.529,226.078c-3.15-1.624-6.414-2.447-9.701-2.447c-2.039,0-4.133,0.317-6.226,0.942l-0.102,0.03l-0.286-0.594
			l0.099-0.058c1.802-1.062,2.716-3.222,2.716-6.423v-40.384c-4.592-0.415-9.367-0.813-14.197-1.186v40.364
			c0,3.208,0.929,5.528,2.761,6.897l0.084,0.063l-0.293,0.567l-0.109-0.054c-2.998-1.481-6.101-2.232-9.223-2.232
			c-2.192,0-4.447,0.37-6.702,1.101l-0.104,0.033l-0.288-0.591l0.104-0.059c1.961-1.1,2.955-3.281,2.955-6.484v-64.272
			c0-3.208-0.998-5.521-2.965-6.875l-0.091-0.062l0.294-0.571l0.108,0.048c3.234,1.453,6.445,2.189,9.542,2.189
			c2.151,0,4.299-0.355,6.386-1.056l0.104-0.035l0.285,0.595l-0.098,0.058c-1.825,1.082-2.75,3.255-2.75,6.458v12.883
			c4.785,0.369,9.56,0.768,14.197,1.185v-12.86c0-3.208-0.918-5.542-2.729-6.937l-0.083-0.064l0.294-0.56l0.109,0.052
			c3.391,1.608,6.754,2.423,9.997,2.423c1.996,0,3.991-0.309,5.931-0.917l0.104-0.033l0.286,0.601l-0.103,0.058
			c-1.841,1.039-2.774,3.189-2.774,6.394v64.272c0,3.212,0.938,5.557,2.789,6.969l0.085,0.065l-0.297,0.56L288.529,226.078z"/>
		<path fill="#FFFFFF" d="M247.312,143.948c3.263,1.466,6.461,2.2,9.594,2.2c2.173,0,4.315-0.354,6.425-1.062
			c0.063,0.132,0.127,0.263,0.188,0.392c-1.875,1.111-2.811,3.298-2.811,6.566c0,4.333,0,8.666,0,12.999
			c4.815,0.371,9.631,0.772,14.447,1.206c0-4.333,0-8.665,0-12.997c0-3.269-0.926-5.61-2.778-7.036
			c0.062-0.118,0.127-0.239,0.19-0.36c3.421,1.623,6.772,2.436,10.05,2.436c2.017,0,4.006-0.307,5.969-0.923
			c0.062,0.132,0.124,0.267,0.188,0.398c-1.894,1.068-2.838,3.237-2.838,6.503c0,21.421,0,42.847,0,64.272
			c0,3.267,0.944,5.623,2.838,7.068c-0.064,0.118-0.126,0.239-0.188,0.357c-3.181-1.64-6.434-2.461-9.758-2.461
			c-2.06,0-4.147,0.315-6.261,0.947c-0.063-0.131-0.127-0.263-0.19-0.394c1.852-1.09,2.778-3.266,2.778-6.53
			c0-13.501,0-27.001,0-40.498c-4.815-0.436-9.631-0.836-14.447-1.208c0,13.501,0,27.001,0,40.499c0,3.265,0.937,5.597,2.811,6.998
			c-0.061,0.121-0.125,0.243-0.188,0.364c-3.027-1.496-6.121-2.244-9.278-2.245c-2.215,0-4.461,0.369-6.741,1.106
			c-0.062-0.129-0.125-0.261-0.188-0.388c2.012-1.129,3.019-3.325,3.019-6.594c0-21.423,0-42.847,0-64.272
			c0-3.264-1.007-5.594-3.019-6.978C247.187,144.194,247.25,144.069,247.312,143.948 M247.198,143.623l-0.108,0.21l-0.083,0.163
			l-0.105,0.205l-0.102,0.196l0.182,0.125c1.931,1.328,2.911,3.606,2.911,6.771v64.272c0,3.154-0.973,5.3-2.891,6.376l-0.208,0.116
			l0.105,0.213l0.135,0.275l0.053,0.11l0.095,0.195l0.207-0.066c2.243-0.727,4.485-1.095,6.664-1.095
			c3.104,0.001,6.188,0.747,9.167,2.22l0.22,0.108l0.113-0.218l0.047-0.089l0.143-0.278l0.094-0.188l-0.167-0.125
			c-1.799-1.345-2.711-3.632-2.711-6.798v-40.229c4.744,0.367,9.433,0.759,13.947,1.166v40.27c0,3.153-0.893,5.278-2.655,6.314
			l-0.197,0.116l0.099,0.207l0.114,0.237l0.076,0.157l0.092,0.192l0.205-0.062c2.08-0.621,4.163-0.937,6.189-0.937
			c3.267,0,6.511,0.819,9.643,2.434l0.22,0.113l0.116-0.219l0.068-0.13l0.119-0.225l0.103-0.188l-0.17-0.131
			c-1.818-1.387-2.74-3.698-2.74-6.869v-64.272c0-3.156,0.912-5.271,2.711-6.285l0.206-0.116L289,147.655
			c-0.042-0.085-0.083-0.171-0.123-0.258l-0.064-0.137l-0.093-0.197l-0.208,0.065c-1.928,0.605-3.911,0.912-5.894,0.912
			c-3.224,0-6.569-0.811-9.943-2.412l-0.218-0.103l-0.111,0.214l-0.148,0.281l-0.041,0.078l-0.098,0.186l0.167,0.129
			c1.778,1.369,2.68,3.67,2.68,6.837v12.724c-4.557-0.409-9.247-0.8-13.947-1.164v-12.767c0-3.157,0.904-5.293,2.688-6.351
			l0.196-0.116l-0.097-0.206l-0.107-0.224l-0.082-0.169l-0.095-0.2l-0.21,0.071c-2.073,0.696-4.208,1.049-6.346,1.049
			c-3.08,0-6.273-0.733-9.491-2.178L247.198,143.623L247.198,143.623z"/>
	</g>
</g>
<g>
	<g>
		<path d="M491.103,249.256c-3.31-1.747-6.748-2.632-10.218-2.632c-1.872,0-3.792,0.257-5.709,0.766l-0.101,0.026l-0.287-0.605
			l0.111-0.055c1.957-0.979,2.949-3.103,2.949-6.31v-64.271c0-3.203-0.999-5.575-2.969-7.051l-0.087-0.065l0.298-0.555l0.109,0.056
			c3.521,1.789,7.013,2.695,10.379,2.695c1.864,0,3.73-0.278,5.546-0.828l0.104-0.031l0.286,0.6l-0.103,0.058
			c-1.823,1.023-2.747,3.163-2.747,6.36v64.271c0,3.219,0.93,5.575,2.763,7.004l0.083,0.064l-0.298,0.56L491.103,249.256z"/>
		<path fill="#FFFFFF" d="M475.144,168.671c3.555,1.806,7.034,2.709,10.436,2.709c1.885,0,3.746-0.277,5.582-0.833
			c0.063,0.135,0.125,0.267,0.189,0.398c-1.874,1.052-2.811,3.205-2.811,6.469c0,21.425,0,42.848,0,64.271
			c0,3.269,0.937,5.642,2.811,7.103c-0.064,0.121-0.126,0.239-0.189,0.357c-3.344-1.765-6.771-2.646-10.276-2.646
			c-1.892-0.001-3.805,0.256-5.741,0.77c-0.063-0.135-0.124-0.27-0.188-0.401c2.012-1.007,3.019-3.153,3.019-6.421
			c0-21.422,0-42.848,0-64.271c0-3.266-1.007-5.644-3.019-7.151C475.02,168.908,475.081,168.79,475.144,168.671 M475.04,168.338
			l-0.116,0.215l-0.073,0.138l-0.113,0.213l-0.105,0.19l0.175,0.13c1.937,1.45,2.918,3.789,2.918,6.951v64.271
			c0,3.155-0.969,5.241-2.881,6.197l-0.221,0.111l0.108,0.222c0.041,0.084,0.08,0.168,0.119,0.253l0.067,0.146l0.089,0.188
			l0.202-0.054c1.906-0.505,3.816-0.762,5.677-0.761c3.449,0,6.868,0.881,10.16,2.617l0.219,0.116l0.117-0.219l0.112-0.21
			l0.078-0.148l0.099-0.186l-0.166-0.129c-1.801-1.404-2.714-3.728-2.714-6.905v-64.271c0-3.149,0.902-5.252,2.683-6.251
			l0.207-0.116l-0.104-0.212c-0.054-0.109-0.105-0.22-0.158-0.332l-0.029-0.062l-0.093-0.195l-0.206,0.062
			c-1.804,0.546-3.658,0.822-5.51,0.822c-3.346,0-6.818-0.902-10.322-2.682L475.04,168.338L475.04,168.338z"/>
	</g>
</g>
<g>
	<g>
		<path d="M551.043,254.581c-3.216-1.439-6.411-2.17-9.497-2.17c-2.165,0-4.328,0.359-6.43,1.068l-0.104,0.035l-0.287-0.592
			l0.098-0.06c1.796-1.083,2.707-3.195,2.707-6.277V198.14c-4.675,9.905-9.35,19.781-14.024,29.624l-0.117,0.247l-0.11-0.25
			c-4.691-10.668-9.379-21.364-14.07-32.083v48.59c0,3.088,0.929,5.302,2.759,6.581l0.09,0.062l-0.297,0.567l-0.109-0.056
			c-3.229-1.654-6.576-2.493-9.952-2.493c-1.957,0-3.969,0.282-5.979,0.837l-0.1,0.028l-0.29-0.604l0.117-0.054
			c1.954-0.886,2.945-3.021,2.945-6.346v-64.46c0-3.079-0.998-5.375-2.968-6.823l-0.087-0.064l0.296-0.56l0.108,0.053
			c2.64,1.3,6.304,2.195,10.891,2.66c1.818,0.235,3.496,0.354,4.99,0.354c2.272,0,4.188-0.274,5.695-0.815l0.167-0.06v0.628
			l-0.063,0.036c-1.687,0.944-2.604,3.101-2.725,6.409c2.887,6.557,5.782,13.156,8.679,19.744c2.89-6.083,5.781-12.177,8.67-18.284
			c-0.131-3.265-1.034-5.579-2.698-6.82l-0.05-0.038v-0.639l0.18,0.087c2.514,1.219,6.112,2.004,10.695,2.336
			c1.269,0.091,2.482,0.137,3.606,0.137c2.926,0,5.374-0.311,7.277-0.923l0.163-0.052v0.616l-0.057,0.037
			c-1.727,1.122-2.602,3.314-2.602,6.515v64.462c0,3.212,0.876,5.453,2.604,6.659l0.054,0.037v0.636L551.043,254.581z"/>
		<path fill="#FFFFFF" d="M495.686,171.05c2.64,1.3,6.283,2.201,10.934,2.672c1.834,0.237,3.501,0.354,5.003,0.354
			c2.304,0,4.216-0.276,5.737-0.822c0,0.124,0,0.253,0,0.377c-1.733,0.971-2.664,3.137-2.788,6.513
			c2.934,6.694,5.866,13.379,8.8,20.05c2.929-6.165,5.859-12.341,8.787-18.531c-0.121-3.386-1.038-5.707-2.736-6.974
			c0-0.124,0-0.249,0-0.377c2.515,1.219,6.092,2.012,10.741,2.349c1.281,0.092,2.487,0.138,3.615,0.138
			c2.968,0,5.406-0.315,7.315-0.929c0,0.124,0,0.249,0,0.377c-1.772,1.152-2.658,3.355-2.658,6.62c0,21.486,0,42.972,0,64.462
			c0,3.267,0.886,5.524,2.658,6.762c0,0.124,0,0.248,0,0.377c-3.246-1.453-6.43-2.181-9.548-2.181c-2.188,0-4.345,0.358-6.47,1.075
			c-0.063-0.132-0.125-0.259-0.189-0.391c1.843-1.111,2.768-3.245,2.768-6.385c0-16.335,0-32.668,0-49.003
			c-4.754,10.074-9.509,20.118-14.263,30.128c-4.771-10.849-9.538-21.728-14.31-32.63c0,16.394,0,32.788,0,49.188
			c0,3.143,0.937,5.373,2.812,6.684c-0.062,0.121-0.124,0.239-0.188,0.36c-3.263-1.672-6.598-2.507-10.009-2.507
			c-1.979,0-3.982,0.281-6.012,0.842c-0.063-0.13-0.124-0.266-0.188-0.396c2.01-0.911,3.019-3.064,3.019-6.46
			c0-21.485,0-42.972,0-64.46c0-3.141-1.009-5.446-3.019-6.924C495.562,171.29,495.623,171.168,495.686,171.05 M495.58,170.719
			l-0.114,0.213l-0.095,0.182l-0.093,0.176l-0.103,0.191l0.175,0.128c1.936,1.423,2.917,3.686,2.917,6.723v64.46
			c0,3.271-0.966,5.368-2.872,6.232l-0.234,0.106l0.113,0.23l0.092,0.194l0.096,0.201l0.091,0.187l0.2-0.055
			c1.999-0.553,3.999-0.833,5.945-0.833c3.355,0,6.685,0.834,9.895,2.479l0.22,0.112l0.115-0.218
			c0.065-0.122,0.127-0.241,0.19-0.363l0.1-0.194l-0.179-0.125c-1.796-1.254-2.706-3.434-2.706-6.479v-47.993
			c4.611,10.537,9.22,21.05,13.831,31.536l0.22,0.501l0.234-0.494c4.577-9.638,9.214-19.43,13.787-29.12v47.888
			c0,3.035-0.891,5.111-2.646,6.171l-0.196,0.118l0.101,0.205l0.188,0.39l0.097,0.199l0.209-0.07
			c2.089-0.705,4.238-1.062,6.39-1.062c3.068,0,6.246,0.727,9.445,2.159l0.353,0.157v-0.386v-0.377v-0.131l-0.106-0.074
			c-1.693-1.182-2.552-3.388-2.552-6.557v-64.462c0-3.156,0.856-5.312,2.545-6.411l0.113-0.074v-0.136v-0.377v-0.343l-0.326,0.105
			c-1.892,0.608-4.326,0.917-7.239,0.917c-1.121,0-2.331-0.046-3.598-0.137c-4.567-0.331-8.15-1.112-10.649-2.324l-0.359-0.174
			v0.399v0.377v0.125l0.101,0.075c1.621,1.21,2.508,3.471,2.634,6.722c-2.841,6.007-5.685,11.999-8.526,17.981
			c-2.853-6.486-5.704-12.987-8.557-19.496c0.128-3.229,1.022-5.331,2.658-6.247l0.128-0.072v-0.146v-0.377v-0.355l-0.334,0.12
			c-1.493,0.536-3.396,0.808-5.653,0.808c-1.489,0-3.161-0.119-4.971-0.352c-4.579-0.464-8.229-1.354-10.855-2.648L495.58,170.719
			L495.58,170.719z"/>
	</g>
</g>
<g>
	<g>
		<path d="M571.393,255.568c-2.85-1.285-5.799-1.937-8.767-1.937c-2.34,0-4.748,0.404-7.16,1.203l-0.103,0.033l-0.29-0.589
			l0.104-0.059c1.961-1.116,2.955-3.307,2.955-6.51v-64.062c0-3.324-0.996-5.626-2.959-6.841l-0.1-0.062l0.293-0.565l0.1,0.033
			c1.895,0.625,4.169,1.103,6.762,1.423c1.772,0.207,3.991,0.312,6.596,0.312l0.545-0.002c3.426,0.132,5.598,0.199,6.521,0.228
			l0.458,0.015c6.936,0.206,12.419,2.543,16.295,6.944c3.521,3.924,5.308,8.839,5.308,14.608c0,5.915-1.784,11.003-5.304,15.122
			c-3.763,4.467-8.745,6.731-14.808,6.731c-0.242,0-0.486-0.004-0.732-0.011c-2.72-0.08-5.439-0.172-8.158-0.278v26.876
			c0,3.217,0.928,5.504,2.757,6.797l0.089,0.063l-0.294,0.572L571.393,255.568z M568.949,210.168
			c2.722,0.105,5.443,0.197,8.166,0.277c0.139,0.004,0.276,0.006,0.413,0.006c3.009,0,5.405-1.001,7.12-2.975
			c1.793-2.063,2.702-4.554,2.702-7.4c0-2.842-0.815-5.3-2.423-7.305c-1.971-2.249-4.604-3.439-7.82-3.531
			c-2.72-0.08-5.439-0.172-8.158-0.278V210.168z"/>
		<path fill="#FFFFFF" d="M555.427,176.333c1.883,0.621,4.144,1.103,6.785,1.429c1.761,0.206,3.967,0.313,6.611,0.313
			c0.181,0,0.362-0.001,0.546-0.002c4.271,0.164,6.596,0.229,6.974,0.242c6.907,0.205,12.311,2.479,16.206,6.902
			c3.518,3.919,5.276,8.747,5.276,14.525c0,5.896-1.759,10.927-5.273,15.041c-3.742,4.441-8.648,6.688-14.713,6.688
			c-0.241,0-0.484-0.004-0.729-0.011c-2.763-0.081-5.525-0.175-8.287-0.283c0,9,0,18.003,0,27.006c0,3.27,0.937,5.575,2.81,6.899
			c-0.064,0.124-0.125,0.25-0.188,0.371c-2.88-1.299-5.82-1.947-8.818-1.948c-2.364,0-4.764,0.403-7.199,1.21
			c-0.064-0.128-0.124-0.26-0.188-0.387c2.01-1.144,3.019-3.353,3.019-6.618c0-21.354,0-42.709,0-64.062
			c0-3.393-1.009-5.704-3.019-6.947C555.303,176.579,555.363,176.454,555.427,176.333 M577.528,210.577
			c3.068,0,5.471-1.011,7.215-3.018c1.823-2.099,2.732-4.592,2.732-7.482c0-2.884-0.815-5.344-2.45-7.383
			c-2.011-2.295-4.646-3.484-7.914-3.578c-2.763-0.081-5.525-0.175-8.287-0.283c0,7.149,0,14.304,0,21.456
			c2.762,0.107,5.524,0.201,8.287,0.282C577.25,210.575,577.39,210.577,577.528,210.577 M555.305,176.029l-0.099,0.186
			c-0.034,0.063-0.066,0.128-0.099,0.192l-0.09,0.176l-0.109,0.207l0.198,0.123c1.925,1.191,2.9,3.457,2.9,6.735v64.062
			c0,3.155-0.973,5.309-2.893,6.4l-0.207,0.118l0.108,0.213c0.032,0.063,0.063,0.129,0.095,0.194l0.093,0.191l0.098,0.192
			l0.204-0.067c2.399-0.794,4.795-1.197,7.121-1.197c2.95,0.001,5.883,0.648,8.716,1.926l0.215,0.098l0.109-0.209l0.101-0.197
			l0.088-0.175l0.101-0.193l-0.178-0.126c-1.794-1.269-2.704-3.521-2.704-6.695v-26.746c2.604,0.102,5.304,0.193,8.03,0.273
			c0.246,0.007,0.491,0.011,0.735,0.011c6.102,0,11.116-2.28,14.904-6.776c3.538-4.142,5.332-9.257,5.332-15.202
			c0-5.801-1.797-10.744-5.341-14.692c-3.898-4.428-9.411-6.778-16.384-6.985l-0.456-0.015c-0.922-0.028-3.095-0.096-6.516-0.228
			l-0.556,0.002c-2.6,0-4.813-0.105-6.582-0.312c-2.583-0.319-4.85-0.796-6.736-1.418L555.305,176.029L555.305,176.029z
			 M569.074,210.048v-20.956c2.604,0.102,5.303,0.193,8.03,0.273c3.18,0.091,5.782,1.267,7.732,3.493
			c1.583,1.974,2.389,4.405,2.389,7.218c0,2.816-0.898,5.278-2.671,7.318c-1.691,1.945-4.055,2.932-7.026,2.932
			c-0.136,0-0.272-0.002-0.41-0.006C574.417,210.242,571.711,210.15,569.074,210.048L569.074,210.048z"/>
	</g>
</g>
<g>
	<g>
		<path d="M618.139,255.984c-1.545,0-3.733-0.328-6.505-0.974c-2.99-0.7-5.164-1.04-6.645-1.04l-0.107,0.001
			c-1.97,0.02-3.525,0.587-4.623,1.688l-0.122,0.122l-0.302-0.601l0.046-0.062c3.36-4.608,4.75-10.104,4.128-16.332l-0.014-0.138
			l0.604-0.003l0.028,0.085c0.493,1.472,2.025,2.786,4.555,3.908c2.384,1.062,4.884,1.601,7.429,1.601
			c0.178,0,0.356-0.003,0.535-0.008c7.056-0.215,10.634-3.925,10.634-11.026c0-3.864-2.268-7.497-6.932-11.107
			c-4.392-3.098-8.837-6.349-13.207-9.659c-4.668-4.34-7.03-9.485-7.03-15.302c0-6.892,2.362-12.333,7.021-16.175
			c3.144-2.562,6.719-3.922,10.626-4.041c0.174-0.005,0.348-0.008,0.521-0.008c1.836,0,3.705,0.315,5.555,0.935
			c1.96,0.519,3.634,0.782,4.967,0.782c0.582,0,1.108-0.051,1.563-0.15c0.983-0.174,1.912-0.66,2.765-1.444l0.062-0.056l0.596,0.271
			l-0.097,0.123c-3.479,4.43-5.115,9.815-4.865,16.009l0.005,0.123l-0.98,0.048l-0.024-0.098c-0.501-1.968-1.657-3.556-3.536-4.854
			c-1.379-0.949-2.846-1.432-4.359-1.432c-0.517,0-1.049,0.057-1.582,0.167c-4.63,0.899-6.88,3.818-6.88,8.925
			c0,2.734,2.33,5.938,6.926,9.521c7.946,5.908,11.72,8.92,13.021,10.393c4.647,4.9,7.005,10.562,7.005,16.825
			c0,6.305-1.88,11.711-5.589,16.068c-3.734,4.391-8.741,6.715-14.882,6.91L618.139,255.984z"/>
		<path fill="#FFFFFF" d="M618.78,177.039c1.837,0,3.675,0.311,5.515,0.928c2,0.529,3.669,0.789,5.007,0.789
			c0.596,0,1.125-0.052,1.59-0.153c1.004-0.178,1.948-0.67,2.823-1.475c0.124,0.057,0.253,0.11,0.377,0.169
			c-3.51,4.47-5.145,9.821-4.892,16.091c-0.253,0.014-0.501,0.027-0.754,0.037c-0.506-1.988-1.698-3.621-3.586-4.926
			c-1.406-0.969-2.884-1.454-4.431-1.454c-0.527,0-1.063,0.057-1.607,0.17c-4.655,0.904-6.979,3.889-6.979,9.047
			c0,2.76,2.324,5.994,6.974,9.619c7.287,5.418,11.624,8.814,13.005,10.377c4.649,4.902,6.974,10.456,6.974,16.742
			c0,6.28-1.852,11.631-5.559,15.987c-3.706,4.356-8.635,6.671-14.791,6.866c-0.099,0.003-0.2,0.005-0.306,0.005
			c-1.5,0-3.658-0.313-6.477-0.971c-2.943-0.688-5.169-1.043-6.673-1.043c-0.037,0-0.073,0.001-0.108,0.001
			c-2.013,0.02-3.582,0.593-4.711,1.726c-0.064-0.126-0.124-0.253-0.188-0.379c3.396-4.655,4.778-10.141,4.151-16.418
			c0.124,0,0.253-0.003,0.377-0.003c0.502,1.499,2.042,2.838,4.622,3.982c2.41,1.073,4.902,1.611,7.479,1.611
			c0.18,0,0.358-0.003,0.539-0.008c7.17-0.219,10.755-3.996,10.755-11.151c0-3.896-2.328-7.605-6.98-11.206
			c-4.404-3.107-8.809-6.328-13.208-9.66c-4.655-4.329-6.98-9.42-6.98-15.202c0-6.906,2.325-12.244,6.975-16.078
			c3.14-2.56,6.657-3.895,10.551-4.013C618.434,177.042,618.607,177.039,618.78,177.039 M618.78,176.789
			c-0.175,0-0.351,0.003-0.525,0.008c-3.936,0.12-7.536,1.488-10.701,4.069c-4.689,3.866-7.066,9.341-7.066,16.271
			c0,5.853,2.375,11.028,7.061,15.385c4.391,3.328,8.837,6.579,13.233,9.682c4.623,3.578,6.875,7.18,6.875,11.002
			c0,7.021-3.537,10.688-10.513,10.901c-0.178,0.005-0.354,0.008-0.531,0.008c-2.527,0-5.01-0.535-7.378-1.59
			c-2.496-1.107-4.006-2.396-4.486-3.833l-0.058-0.171h-0.18l-0.191,0.001l-0.186,0.002h-0.276l0.027,0.274
			c0.619,6.197-0.762,11.663-4.104,16.246l-0.091,0.124l0.07,0.138l0.093,0.186l0.096,0.193l0.157,0.306l0.242-0.243
			c1.074-1.078,2.601-1.634,4.536-1.652l0.106-0.001c1.471,0,3.635,0.339,6.616,1.036c2.78,0.648,4.979,0.978,6.533,0.978
			c0.107,0,0.212-0.002,0.313-0.005c6.177-0.196,11.215-2.536,14.974-6.954c3.728-4.381,5.618-9.814,5.618-16.149
			c0-6.296-2.369-11.987-7.042-16.914c-1.302-1.474-5.081-4.49-13.037-10.405c-4.56-3.555-6.873-6.725-6.873-9.419
			c0-5.036,2.217-7.916,6.777-8.802c0.527-0.109,1.052-0.165,1.56-0.165c1.488,0,2.931,0.475,4.289,1.41
			c1.853,1.28,2.992,2.845,3.485,4.781l0.05,0.196l0.202-0.008c0.239-0.01,0.475-0.022,0.714-0.035l0.246-0.014l0.034-0.248
			c-0.249-6.163,1.379-11.521,4.838-15.927l0.194-0.246l-0.284-0.134c-0.074-0.035-0.149-0.068-0.225-0.102l-0.155-0.069
			l-0.15-0.069l-0.122,0.112c-0.836,0.768-1.743,1.244-2.698,1.413c-0.456,0.1-0.973,0.149-1.546,0.149
			c-1.322,0-2.985-0.263-4.943-0.78C622.511,177.106,620.629,176.789,618.78,176.789L618.78,176.789z"/>
	</g>
</g>
<g>
	<g>
		<path d="M662.325,252.602c-7.019,0-12.451-4.357-16.147-12.952c-2.884-6.792-4.347-15.002-4.347-24.405
			c0-9.511,1.462-18.005,4.346-25.244c3.992-9.793,10.181-15.233,18.394-16.17c0.757-0.087,1.505-0.131,2.226-0.131
			c6.873,0,12.195,4.023,15.816,11.959c3.01,6.692,4.535,14.713,4.535,23.839c0,14.579-2.926,25.952-8.696,33.805
			c-4.164,5.505-8.888,8.593-14.042,9.18C663.703,252.562,663.001,252.602,662.325,252.602z M665.389,186.658
			c-0.323,0-0.653,0.02-0.992,0.059c-4.197,0.478-7.266,4.263-9.119,11.249c-1.245,4.608-1.877,9.919-1.877,15.783
			c0,17.203,3.375,25.926,10.032,25.927h0.001c0.305,0,0.615-0.018,0.935-0.054c7.294-0.841,10.993-10.208,10.993-27.844
			C675.362,195.11,672.006,186.658,665.389,186.658z"/>
		<path fill="#FFFFFF" d="M666.795,173.824c6.827,0,12.063,3.912,15.703,11.886c3.015,6.705,4.523,14.623,4.523,23.787
			c0,14.572-2.89,25.862-8.672,33.73c-4.15,5.487-8.8,8.543-13.955,9.13c-0.705,0.08-1.396,0.12-2.07,0.12
			c-7.02,0-12.362-4.343-16.032-12.877c-2.892-6.808-4.337-14.936-4.337-24.355c0-9.542,1.445-17.938,4.337-25.198
			c4.022-9.866,10.117-15.159,18.292-16.092C665.338,173.868,666.077,173.824,666.795,173.824 M663.433,239.8
			c0.31,0,0.626-0.019,0.949-0.055c7.401-0.853,11.104-10.252,11.104-27.968c0-16.902-3.367-25.245-10.098-25.245
			c-0.327,0-0.663,0.02-1.007,0.06c-4.267,0.485-7.343,4.245-9.226,11.341c-1.254,4.641-1.881,9.912-1.881,15.815
			C653.276,231.049,656.66,239.8,663.433,239.8 M666.796,173.574L666.796,173.574c-0.727,0-1.479,0.044-2.24,0.132
			c-8.262,0.943-14.484,6.409-18.495,16.246c-2.891,7.257-4.355,15.766-4.355,25.293c0,9.42,1.466,17.647,4.356,24.453
			c3.719,8.646,9.189,13.029,16.263,13.029c0.681,0,1.388-0.041,2.099-0.122c5.189-0.591,9.941-3.695,14.126-9.228
			c5.789-7.876,8.723-19.274,8.723-33.881c0-9.144-1.529-17.182-4.545-23.89C679.083,177.622,673.722,173.574,666.796,173.574
			L666.796,173.574z M663.433,239.55c-6.574,0-9.907-8.681-9.907-25.802c0-5.854,0.63-11.152,1.872-15.75
			c1.84-6.934,4.872-10.687,9.013-11.158c0.333-0.038,0.662-0.058,0.979-0.058c6.534,0,9.848,8.41,9.848,24.995
			c0,17.562-3.662,26.888-10.883,27.72C664.042,239.533,663.732,239.55,663.433,239.55L663.433,239.55z"/>
	</g>
</g>
<g>
	<g>
		<path d="M690.767,248.2l0.084-0.065c1.971-1.562,2.971-3.987,2.971-7.21v-64.271c0-3.187-0.991-5.256-2.945-6.15l-0.116-0.053
			l0.286-0.61l0.097,0.021c1.055,0.224,2.271,0.337,3.613,0.337c2.039,0,4.422-0.261,7.081-0.775
			c4.684-0.78,8.344-2.042,10.884-3.751l0.194-0.131v0.667l-0.04,0.037c-1.574,1.456-2.496,3.913-2.739,7.303
			c4.098,8.434,8.441,17.343,12.903,26.427v-29.434c0-3.186-0.93-5.2-2.763-5.987l-0.075-0.032v-0.604l0.144,0.021
			c1.018,0.152,2.046,0.229,3.056,0.229c4.414,0,8.811-1.47,13.066-4.371l0.109-0.075l0.31,0.525l-0.076,0.069
			c-1.96,1.777-2.954,4.305-2.954,7.513v64.272c0,3.204,0.979,5.171,2.911,5.848l0.128,0.045l-0.281,0.64l-0.092-0.012
			c-0.854-0.109-1.723-0.165-2.583-0.165c-4.401,0-8.959,1.45-13.546,4.31l-0.191,0.119v-0.658l0.041-0.037
			c1.856-1.67,2.797-4.279,2.797-7.755l0.007-7.352c-6.021-12.22-12.217-24.961-18.408-37.824v49.677c0,3.212,0.922,5.268,2.74,6.11
			l0.113,0.053l-0.283,0.62l-0.097-0.021c-1.318-0.275-2.668-0.415-4.012-0.415c-3.847,0-7.858,1.146-11.923,3.408l-0.11,0.062
			L690.767,248.2z"/>
		<path fill="#FFFFFF" d="M736.538,159.897c0.064,0.108,0.124,0.216,0.188,0.323c-1.999,1.813-2.995,4.34-2.995,7.605
			c0,21.424,0,42.849,0,64.272c0,3.268,0.996,5.266,2.995,5.966c-0.064,0.146-0.124,0.287-0.188,0.431
			c-0.862-0.11-1.729-0.166-2.599-0.166c-4.449,0-8.987,1.445-13.612,4.328c0-0.129,0-0.253,0-0.377
			c1.892-1.702,2.838-4.326,2.838-7.848c0.004-2.449,0.004-4.902,0.007-7.352c-6.219-12.651-12.439-25.448-18.658-38.372
			c0,16.742,0,33.483,0,50.225c0,3.269,0.937,5.354,2.812,6.224c-0.064,0.138-0.124,0.279-0.188,0.417
			c-1.334-0.278-2.679-0.418-4.037-0.418c-3.892,0-7.885,1.144-11.983,3.424c-0.064-0.118-0.124-0.232-0.188-0.348
			c2.011-1.593,3.019-4.039,3.019-7.308c0-21.421,0-42.847,0-64.271c0-3.265-1.008-5.344-3.019-6.264
			c0.064-0.135,0.124-0.272,0.188-0.407c1.061,0.225,2.273,0.34,3.64,0.34c2.029,0,4.397-0.254,7.104-0.778
			c4.771-0.794,8.416-2.078,10.93-3.77c0,0.127,0,0.253,0,0.377c-1.606,1.485-2.532,3.945-2.779,7.386
			c4.383,9.06,8.771,18.052,13.153,26.974c0-9.99,0-19.979,0-29.972c0-3.266-0.946-5.29-2.838-6.102c0-0.129,0-0.253,0-0.377
			c1.029,0.153,2.054,0.23,3.074,0.23C727.864,164.29,732.243,162.824,736.538,159.897 M736.616,159.542l-0.219,0.149
			c-4.235,2.886-8.607,4.349-12.996,4.349c-1.004,0-2.025-0.076-3.037-0.227l-0.287-0.043v0.29v0.377v0.165l0.151,0.065
			c1.808,0.777,2.687,2.698,2.687,5.873v28.896c-4.367-8.894-8.62-17.618-12.649-25.946c0.249-3.323,1.155-5.73,2.695-7.154
			l0.08-0.074v-0.109v-0.377v-0.47l-0.39,0.262c-2.524,1.699-6.168,2.955-10.831,3.731c-2.658,0.514-5.032,0.774-7.063,0.774
			c-1.334,0-2.541-0.112-3.588-0.334l-0.192-0.041l-0.085,0.177l-0.097,0.208l-0.092,0.199l-0.109,0.229l0.231,0.106
			c1.933,0.884,2.872,2.858,2.872,6.036v64.271c0,3.183-0.983,5.575-2.924,7.111l-0.167,0.133l0.104,0.186l0.112,0.207l0.074,0.139
			l0.121,0.221l0.22-0.122c4.046-2.251,8.037-3.393,11.862-3.393c1.335,0,2.676,0.139,3.986,0.413l0.193,0.04l0.084-0.179
			l0.096-0.214l0.093-0.203l0.106-0.228l-0.228-0.105c-1.771-0.82-2.668-2.838-2.668-5.997v-49.129
			c6.104,12.678,12.21,25.232,18.158,37.334l-0.003,3.086l-0.004,4.208c0,3.438-0.927,6.017-2.755,7.662l-0.083,0.074v0.111v0.377
			v0.45l0.382-0.238c4.567-2.847,9.103-4.29,13.48-4.29c0.855,0,1.719,0.056,2.567,0.164l0.184,0.023l0.076-0.169l0.106-0.243
			l0.082-0.188l0.109-0.248l-0.255-0.09c-1.877-0.657-2.828-2.585-2.828-5.729v-64.272c0-3.215,0.953-5.643,2.913-7.42l0.152-0.138
			l-0.106-0.176l-0.094-0.162l-0.094-0.161L736.616,159.542L736.616,159.542z"/>
	</g>
</g>
<g>
	<g>
		<path d="M179.02,133.407c-1.295-0.399-2.633-0.601-3.976-0.601c-1.267,0-2.576,0.18-3.89,0.535l-0.062,0.017l-0.293-0.235
			l0.175-0.087c0.882-0.44,1.312-1.243,1.312-2.452v-21.526h-4.625c-1.574,0-2.669,0.333-3.256,0.989l-0.057,0.063l-0.4-0.149
			l0.065-0.125c1.033-1.995,1.034-3.947,0.001-5.801l-0.071-0.127l0.405-0.151l0.057,0.064c0.596,0.668,1.694,1.008,3.262,1.008
			h14.846c1.635,0,2.765-0.339,3.359-1.008l0.077-0.087l0.267,0.205l-0.048,0.093c-0.967,1.856-0.967,3.81,0.001,5.807l0.06,0.123
			l-0.398,0.151l-0.057-0.071c-0.523-0.653-1.619-0.984-3.258-0.984h-4.629v21.526c0,1.192,0.444,2.017,1.319,2.452l0.127,0.063
			l-0.225,0.336L179.02,133.407z"/>
		<path fill="#FFFFFF" d="M185.966,103.902l0.091,0.07c-0.99,1.9-0.99,3.877,0,5.919l-0.186,0.07
			c-0.556-0.694-1.678-1.031-3.355-1.031h-4.754v21.651c0,1.249,0.465,2.105,1.388,2.564l-0.094,0.141
			c-1.313-0.404-2.65-0.606-4.012-0.606c-1.285,0-2.592,0.179-3.922,0.539l-0.091-0.073c0.92-0.459,1.381-1.315,1.381-2.564v-21.651
			h-4.75c-1.611,0-2.729,0.336-3.35,1.031l-0.188-0.07c1.058-2.042,1.058-4.02,0-5.919l0.188-0.07
			c0.621,0.697,1.738,1.05,3.355,1.05h14.846C184.191,104.952,185.347,104.599,185.966,103.902 M185.934,103.562l-0.155,0.174
			c-0.569,0.641-1.668,0.966-3.266,0.966h-14.846c-1.531,0-2.597-0.325-3.169-0.966l-0.114-0.127l-0.16,0.06l-0.188,0.07
			l-0.272,0.102l0.142,0.254c1.01,1.815,1.009,3.727-0.004,5.683l-0.129,0.25l0.264,0.099l0.188,0.07l0.16,0.06l0.114-0.127
			c0.562-0.628,1.626-0.947,3.163-0.947h4.5v21.401c0,1.158-0.406,1.923-1.243,2.34l-0.349,0.174l0.305,0.244l0.091,0.073
			l0.099,0.08l0.123-0.033c1.304-0.352,2.601-0.53,3.857-0.53c1.331,0,2.656,0.2,3.938,0.595l0.178,0.055l0.104-0.154l0.094-0.141
			l0.159-0.236l-0.255-0.126c-0.841-0.418-1.25-1.184-1.25-2.34v-21.401h4.504c1.599,0,2.662,0.315,3.16,0.937l0.114,0.142
			l0.17-0.064l0.186-0.07l0.256-0.097l-0.119-0.246c-0.951-1.96-0.952-3.876-0.003-5.695l0.097-0.186l-0.166-0.128l-0.091-0.07
			L185.934,103.562L185.934,103.562z"/>
	</g>
	<g>
		<path d="M207.524,133.407c-1.26-0.387-2.559-0.583-3.861-0.583c-1.303,0-2.649,0.196-3.999,0.584l-0.084,0.024l-0.239-0.331
			l0.131-0.066c0.875-0.439,1.3-1.218,1.3-2.382v-14.773h-6.92v14.773c0,1.161,0.441,1.939,1.348,2.381l0.127,0.062l-0.22,0.338
			l-0.09-0.027c-1.259-0.387-2.559-0.583-3.863-0.583c-1.305,0-2.652,0.196-4.004,0.584l-0.089,0.025l-0.22-0.338l0.13-0.061
			c0.927-0.436,1.397-1.236,1.397-2.38v-23.675c0-1.161-0.457-1.94-1.397-2.384l-0.129-0.061l0.219-0.34l0.089,0.026
			c1.352,0.388,2.699,0.584,4.004,0.584c1.304,0,2.604-0.196,3.863-0.584l0.09-0.028l0.219,0.34l-0.126,0.062
			c-0.907,0.443-1.348,1.224-1.348,2.385v4.669h6.92v-4.669c0-1.164-0.425-1.944-1.3-2.385l-0.13-0.066l0.238-0.333l0.085,0.024
			c1.35,0.388,2.696,0.584,3.999,0.584c1.302,0,2.602-0.196,3.861-0.584l0.091-0.028l0.215,0.34l-0.125,0.062
			c-0.896,0.441-1.332,1.221-1.332,2.385v23.675c0,1.163,0.436,1.942,1.332,2.381l0.125,0.062l-0.216,0.339L207.524,133.407z"/>
		<path fill="#FFFFFF" d="M207.561,104.338l0.09,0.142c-0.937,0.461-1.402,1.29-1.402,2.497v23.675c0,1.2,0.465,2.035,1.402,2.494
			l-0.09,0.141c-1.277-0.393-2.577-0.589-3.898-0.589c-1.322,0-2.666,0.196-4.034,0.589l-0.102-0.141
			c0.914-0.459,1.369-1.291,1.369-2.494v-14.898h-7.17v14.898c0,1.203,0.476,2.035,1.418,2.494l-0.091,0.141
			c-1.277-0.393-2.577-0.589-3.899-0.589s-2.669,0.196-4.039,0.589l-0.091-0.141c0.977-0.459,1.469-1.294,1.469-2.494v-23.675
			c0-1.208-0.492-2.036-1.469-2.497l0.091-0.142c1.37,0.393,2.716,0.589,4.039,0.589s2.623-0.197,3.899-0.589l0.091,0.142
			c-0.943,0.461-1.418,1.29-1.418,2.497v4.794h7.17v-4.794c0-1.208-0.455-2.036-1.369-2.497l0.102-0.142
			c1.368,0.393,2.712,0.589,4.034,0.589C204.984,104.928,206.284,104.731,207.561,104.338 M207.67,104.043l-0.183,0.056
			c-1.248,0.383-2.535,0.578-3.825,0.578c-1.292,0-2.625-0.195-3.965-0.58l-0.169-0.049l-0.103,0.144l-0.102,0.142l-0.169,0.237
			l0.26,0.131c0.829,0.418,1.231,1.162,1.231,2.274v4.544h-6.67v-4.544c0-1.109,0.418-1.852,1.278-2.272l0.252-0.124l-0.152-0.236
			l-0.091-0.142l-0.103-0.16l-0.182,0.056c-1.247,0.383-2.534,0.578-3.826,0.578c-1.293,0-2.629-0.195-3.97-0.58l-0.179-0.051
			l-0.101,0.156l-0.091,0.142l-0.154,0.24l0.258,0.122c0.892,0.421,1.326,1.164,1.326,2.271v23.675c0,1.107-0.434,1.848-1.326,2.268
			l-0.259,0.122l0.156,0.241l0.091,0.141l0.101,0.155l0.178-0.051c1.341-0.384,2.676-0.579,3.97-0.579
			c1.292,0,2.579,0.194,3.826,0.578l0.18,0.056l0.103-0.158l0.091-0.141l0.154-0.237l-0.254-0.124
			c-0.86-0.419-1.278-1.161-1.278-2.269v-14.648h6.67v14.648c0,1.111-0.403,1.854-1.231,2.271l-0.262,0.131l0.172,0.238l0.102,0.141
			l0.103,0.142l0.168-0.048c1.339-0.384,2.673-0.579,3.965-0.579c1.29,0,2.577,0.194,3.825,0.578l0.182,0.056l0.102-0.16l0.09-0.141
			l0.151-0.236l-0.251-0.124c-0.849-0.416-1.262-1.158-1.262-2.269v-23.675c0-1.111,0.413-1.854,1.262-2.273l0.25-0.123
			l-0.148-0.235l-0.09-0.142L207.67,104.043L207.67,104.043z"/>
	</g>
	<g>
		<path d="M228.27,133.967c-0.411-0.659-1.443-0.993-3.068-0.993h-12.227c-0.927,0-1.985,0.146-3.145,0.434l-0.085,0.021
			l-0.227-0.339l0.139-0.059c0.938-0.396,1.393-1.173,1.393-2.378v-23.589c0-1.207-0.456-1.985-1.393-2.381l-0.139-0.059
			l0.229-0.342l0.087,0.025c1.106,0.316,2.132,0.477,3.049,0.477h9.797c1.622,0,2.654-0.334,3.069-0.993l0.073-0.115l0.365,0.275
			l-0.022,0.082c-0.549,1.979-0.117,3.9,1.283,5.713l0.104,0.134l-0.418,0.156l-0.056-0.051c-0.717-0.645-1.915-0.972-3.562-0.972
			h-6.981v3.813h4.831c1.64,0,2.773-0.339,3.37-1.007l0.076-0.084l0.272,0.199l-0.049,0.095c-0.951,1.854-0.951,3.802,0.001,5.787
			l0.058,0.121l-0.397,0.157l-0.058-0.07c-0.533-0.643-1.634-0.969-3.273-0.969h-4.831v11.691h9.504c1.646,0,2.877-0.326,3.659-0.97
			l0.075-0.062l0.272,0.201l-0.078,0.101c-0.973,1.263-1.466,2.753-1.466,4.428c0,0.506,0.059,0.948,0.179,1.35l0.033,0.111
			l-0.389,0.148L228.27,133.967z"/>
		<path fill="#FFFFFF" d="M225.855,103.857l0.188,0.142c-0.562,2.028-0.127,3.969,1.304,5.822l-0.188,0.07
			c-0.745-0.67-1.964-1.004-3.646-1.004h-7.106v4.063h4.956c1.688,0,2.836-0.347,3.463-1.048l0.094,0.069
			c-0.974,1.9-0.974,3.867,0,5.898l-0.188,0.075c-0.56-0.675-1.682-1.014-3.369-1.014h-4.956v11.941h9.629
			c1.685,0,2.928-0.331,3.739-0.998l0.091,0.067c-0.997,1.294-1.492,2.796-1.492,4.504c0,0.512,0.06,0.971,0.184,1.385l-0.184,0.07
			c-0.435-0.697-1.496-1.051-3.174-1.051h-12.227c-0.934,0-1.996,0.145-3.175,0.438l-0.094-0.141
			c0.981-0.414,1.469-1.243,1.469-2.494v-23.589c0-1.249-0.488-2.082-1.469-2.497l0.094-0.141c1.119,0.32,2.147,0.482,3.083,0.482
			h9.797C224.359,104.909,225.417,104.554,225.855,103.857 M225.789,103.494l-0.145,0.23c-0.391,0.621-1.388,0.935-2.963,0.935
			h-9.797c-0.905,0-1.92-0.159-3.015-0.472l-0.175-0.05l-0.101,0.151l-0.094,0.141l-0.169,0.251l0.279,0.118
			c0.886,0.374,1.316,1.115,1.316,2.266v23.589c0,1.149-0.431,1.89-1.316,2.263l-0.279,0.118l0.169,0.252l0.094,0.141l0.098,0.146
			l0.17-0.042c1.15-0.286,2.198-0.431,3.115-0.431h12.227c1.579,0,2.575,0.314,2.962,0.934l0.109,0.175l0.192-0.074l0.184-0.07
			l0.217-0.083l-0.067-0.223c-0.117-0.39-0.173-0.819-0.173-1.313c0-1.647,0.484-3.111,1.44-4.352l0.155-0.202l-0.205-0.151
			l-0.091-0.067l-0.157-0.116l-0.15,0.124c-0.759,0.625-1.963,0.941-3.58,0.941h-9.379V117.18h4.706c1.6,0,2.668,0.311,3.177,0.924
			l0.116,0.14l0.169-0.067l0.188-0.075l0.249-0.099l-0.116-0.242c-0.934-1.949-0.935-3.858-0.003-5.676l0.097-0.19l-0.172-0.126
			l-0.094-0.069l-0.183-0.134l-0.151,0.169c-0.572,0.64-1.674,0.965-3.277,0.965h-4.706v-3.563h6.856
			c1.615,0,2.785,0.316,3.479,0.94l0.112,0.101l0.142-0.053l0.188-0.07l0.318-0.119l-0.208-0.269
			c-1.375-1.779-1.798-3.665-1.261-5.603l0.046-0.164l-0.136-0.103l-0.188-0.142L225.789,103.494L225.789,103.494z"/>
	</g>
</g>
<g>
	<g>
		<path d="M578.465,292.287c-4.802,0-8.416-1.832-10.742-5.446c-1.723-2.703-2.597-6.012-2.597-9.834
			c0-3.714,0.901-6.967,2.679-9.667c2.378-3.504,5.992-5.279,10.742-5.279c2.805,0,5.265,0.574,7.312,1.706
			c1.483,0.888,2.52,1.337,3.084,1.337c0.208,0,0.444-0.021,0.707-0.058l0.143-0.02v0.229l-0.08,0.09
			c-2.264,0.883-3.839,2.257-4.683,4.086l-0.033,0.072h-0.388l0.022-0.145c0.152-0.982-0.435-1.823-1.743-2.5
			c-1.345-0.7-2.803-1.055-4.333-1.055c-2.939,0-5.177,1.43-6.651,4.249c-1.005,2.026-1.515,4.367-1.515,6.954
			c0,2.663,0.511,5.058,1.517,7.118c1.366,2.933,3.576,4.418,6.568,4.418c1.532,0,3.019-0.352,4.416-1.045
			c1.377-0.683,1.946-1.494,1.742-2.48l-0.031-0.15h0.396l0.033,0.073c0.844,1.871,2.419,3.247,4.681,4.089l0.081,0.03v0.235
			l-0.146,0.031c-0.208-0.036-0.416-0.055-0.622-0.055c-0.564,0-1.861,0.503-3.856,1.496
			C583.145,291.775,580.889,292.287,578.465,292.287z"/>
		<path fill="#FFFFFF" d="M578.547,262.185c2.793,0,5.212,0.562,7.252,1.69c1.504,0.9,2.551,1.353,3.145,1.353
			c0.213,0,0.455-0.021,0.725-0.059v0.059c-2.309,0.899-3.891,2.283-4.751,4.149h-0.162c0.162-1.044-0.441-1.924-1.809-2.631
			c-1.372-0.714-2.833-1.068-4.391-1.068c-3.005,0-5.258,1.439-6.762,4.316c-1.021,2.058-1.529,4.394-1.529,7.012
			c0,2.692,0.509,5.084,1.529,7.173c1.395,2.992,3.622,4.488,6.681,4.488c1.558,0,3.046-0.351,4.472-1.058
			c1.421-0.705,2.024-1.577,1.809-2.618h0.162c0.86,1.907,2.442,3.295,4.751,4.154v0.057c-0.216-0.037-0.431-0.057-0.644-0.057
			c-0.594,0-1.896,0.506-3.912,1.509c-2.015,1.004-4.228,1.507-6.647,1.507c-4.78,0-8.325-1.797-10.637-5.389
			c-1.718-2.694-2.577-5.949-2.577-9.767c0-3.706,0.887-6.907,2.658-9.599C570.275,263.923,573.82,262.185,578.547,262.185
			 M578.547,261.935c-4.794,0-8.442,1.794-10.845,5.332c-1.793,2.725-2.701,6-2.701,9.739c0,3.847,0.88,7.178,2.616,9.901
			c2.351,3.652,6,5.504,10.848,5.504c2.443,0,4.718-0.516,6.759-1.533c1.978-0.983,3.256-1.482,3.801-1.482
			c0.194,0,0.396,0.018,0.602,0.053l0.292,0.051v-0.297v-0.057v-0.174l-0.163-0.061c-2.229-0.83-3.78-2.184-4.61-4.022l-0.066-0.147
			h-0.161h-0.162h-0.308l0.062,0.301c0.191,0.923-0.356,1.689-1.675,2.344c-1.38,0.685-2.848,1.031-4.36,1.031
			c-2.98,0-5.092-1.421-6.454-4.344c-1-2.047-1.506-4.423-1.506-7.067c0-2.567,0.506-4.89,1.503-6.9
			c1.469-2.81,3.608-4.178,6.538-4.178c1.511,0,2.948,0.35,4.275,1.04c1.273,0.659,1.822,1.435,1.677,2.371l-0.045,0.288h0.292
			h0.162h0.16l0.067-0.146c0.828-1.798,2.381-3.151,4.614-4.021l0.159-0.062v-0.171v-0.059v-0.288l-0.285,0.04
			c-0.264,0.038-0.495,0.057-0.689,0.057c-0.542,0-1.557-0.443-3.016-1.317C583.854,262.514,581.374,261.935,578.547,261.935
			L578.547,261.935z"/>
	</g>
	<g>
		<path d="M601.195,292.287c-4.697,0-8.259-1.852-10.585-5.503c-1.725-2.74-2.6-6.029-2.6-9.777c0-3.681,0.902-6.915,2.683-9.613
			c2.32-3.539,5.854-5.333,10.502-5.333c4.643,0,8.176,1.813,10.502,5.39c1.726,2.703,2.601,5.936,2.601,9.61
			c0,3.752-0.875,7.023-2.6,9.724C609.426,290.435,605.892,292.287,601.195,292.287z M601.195,265.727
			c-2.527,0-4.556,1.189-6.029,3.536c-1.327,2.144-2,4.786-2,7.854c0,3.104,0.673,5.784,2.001,7.963
			c1.473,2.348,3.501,3.539,6.028,3.539c2.472,0,4.474-1.191,5.949-3.54c1.325-2.14,1.998-4.799,1.998-7.904
			c0-3.108-0.673-5.771-1.999-7.913C605.668,266.917,603.667,265.727,601.195,265.727z"/>
		<path fill="#FFFFFF" d="M601.195,262.185c4.623,0,8.086,1.779,10.397,5.333c1.722,2.696,2.58,5.874,2.58,9.542
			c0,3.742-0.858,6.961-2.58,9.656c-2.258,3.629-5.721,5.445-10.397,5.445s-8.168-1.816-10.479-5.445
			c-1.72-2.731-2.58-5.971-2.58-9.71c0-3.669,0.887-6.854,2.662-9.545C593.105,263.943,596.573,262.185,601.195,262.185
			 M601.195,288.745c2.526,0,4.548-1.199,6.055-3.599c1.345-2.17,2.018-4.828,2.018-7.971c0-3.145-0.673-5.807-2.018-7.979
			c-1.507-2.396-3.528-3.595-6.055-3.595c-2.585,0-4.63,1.198-6.135,3.595c-1.345,2.172-2.02,4.814-2.02,7.921
			c0,3.146,0.675,5.821,2.02,8.028C596.565,287.545,598.61,288.745,601.195,288.745 M601.195,261.935
			c-4.692,0-8.261,1.813-10.606,5.39c-1.794,2.719-2.703,5.977-2.703,9.682c0,3.771,0.881,7.083,2.618,9.843
			c2.352,3.691,5.948,5.562,10.691,5.562s8.313-1.872,10.609-5.563c1.737-2.718,2.618-6.013,2.618-9.788
			c0-3.699-0.881-6.954-2.619-9.677C609.451,263.767,605.882,261.935,601.195,261.935L601.195,261.935z M601.195,288.495
			c-2.481,0-4.474-1.171-5.923-3.481c-1.314-2.157-1.981-4.814-1.981-7.896c0-3.044,0.667-5.665,1.982-7.789
			c1.448-2.307,3.44-3.477,5.922-3.477c2.426,0,4.392,1.17,5.843,3.478c1.313,2.121,1.979,4.761,1.979,7.846
			c0,3.081-0.666,5.719-1.98,7.839C605.587,287.324,603.622,288.495,601.195,288.495L601.195,288.495z"/>
	</g>
	<g>
		<path d="M622.7,292.019c-1.141-0.296-2.275-0.446-3.375-0.446c-1.099,0-2.191,0.15-3.249,0.445l-0.083,0.023l-0.226-0.307
			l0.146-0.062c0.747-0.318,1.11-0.906,1.11-1.795v-25.203c0-0.851-0.363-1.42-1.11-1.738l-0.146-0.062l0.227-0.308l0.083,0.024
			c1.004,0.288,2.564,0.434,4.64,0.434c2.066-0.035,3.629-0.181,4.643-0.435l0.081-0.021l0.224,0.304l-0.143,0.062
			c-0.726,0.319-1.078,0.833-1.078,1.572c0,0.574,0.211,1.251,0.628,2.015l3.99,7.38l3.93-7.392
			c0.423-0.761,0.637-1.437,0.637-2.011c0-0.734-0.339-1.246-1.036-1.565l-0.14-0.063l0.222-0.302l0.081,0.021
			c1.009,0.254,2.572,0.399,4.646,0.435c2.125,0,3.686-0.146,4.635-0.434l0.085-0.025l0.228,0.311l-0.147,0.061
			c-0.775,0.318-1.152,0.887-1.152,1.738v25.203c0,0.89,0.377,1.477,1.152,1.795l0.147,0.061l-0.227,0.309l-0.083-0.023
			c-1.06-0.295-2.146-0.445-3.231-0.445c-1.086,0-2.199,0.15-3.311,0.446l-0.082,0.021l-0.224-0.303l0.141-0.064
			c0.704-0.318,1.046-0.906,1.046-1.796v-20.331l-7.276,13.688l-7.406-13.696v20.339c0,0.89,0.355,1.477,1.087,1.796l0.075,0.032
			v0.354L622.7,292.019z"/>
		<path fill="#FFFFFF" d="M642.071,262.71l0.081,0.11c-0.823,0.338-1.229,0.955-1.229,1.854v25.203c0,0.937,0.406,1.572,1.229,1.91
			l-0.081,0.11c-1.074-0.3-2.163-0.449-3.265-0.449s-2.216,0.149-3.343,0.449l-0.081-0.11c0.745-0.338,1.119-0.974,1.119-1.91
			v-20.833l-7.402,13.926l-7.53-13.926v20.833c0,0.937,0.387,1.572,1.162,1.91v0.11c-1.156-0.3-2.291-0.449-3.406-0.449
			s-2.209,0.149-3.282,0.449l-0.081-0.11c0.792-0.338,1.187-0.974,1.187-1.91v-25.203c0-0.898-0.395-1.516-1.187-1.854l0.081-0.11
			c1.021,0.293,2.577,0.438,4.674,0.438c2.096-0.035,3.651-0.183,4.673-0.438l0.081,0.11c-0.769,0.338-1.152,0.9-1.152,1.687
			c0,0.595,0.213,1.286,0.644,2.074l4.101,7.585l4.039-7.598c0.436-0.783,0.651-1.473,0.651-2.069c0-0.782-0.371-1.341-1.109-1.679
			l0.081-0.11c1.018,0.256,2.577,0.403,4.674,0.438C639.542,263.149,641.103,263.003,642.071,262.71 M642.167,262.42l-0.169,0.051
			c-0.938,0.284-2.485,0.428-4.601,0.428c-2.06-0.034-3.613-0.18-4.613-0.431l-0.162-0.041l-0.1,0.135l-0.081,0.11l-0.182,0.248
			l0.278,0.128c0.648,0.297,0.964,0.771,0.964,1.451c0,0.553-0.209,1.208-0.62,1.948l-3.822,7.189l-3.879-7.175
			c-0.407-0.745-0.613-1.402-0.613-1.955c0-0.685,0.328-1.161,1.003-1.458l0.285-0.125l-0.185-0.252l-0.081-0.11l-0.099-0.135
			l-0.163,0.041c-1.004,0.251-2.558,0.396-4.616,0.431c-2.06,0-3.609-0.145-4.601-0.429l-0.168-0.048l-0.103,0.14l-0.081,0.11
			l-0.188,0.255l0.291,0.123c0.695,0.298,1.034,0.828,1.034,1.624v25.203c0,0.834-0.339,1.383-1.034,1.681l-0.291,0.123l0.188,0.255
			l0.081,0.11l0.102,0.139l0.167-0.046c1.046-0.293,2.128-0.44,3.215-0.44c1.089,0,2.214,0.148,3.344,0.441l0.312,0.081v-0.323
			v-0.11v-0.164l-0.15-0.065c-0.681-0.297-1.012-0.847-1.012-1.681v-19.845l7.061,13.057l0.222,0.41l0.219-0.412l6.932-13.04v19.83
			c0,0.835-0.318,1.386-0.973,1.683l-0.28,0.127l0.183,0.249l0.081,0.11l0.101,0.137l0.165-0.044c1.101-0.292,2.203-0.44,3.278-0.44
			c1.074,0,2.149,0.147,3.197,0.44l0.167,0.046l0.102-0.139l0.081-0.11l0.189-0.258l-0.296-0.122
			c-0.723-0.297-1.074-0.846-1.074-1.679v-25.203c0-0.795,0.352-1.325,1.074-1.622l0.296-0.122l-0.189-0.258l-0.081-0.11
			L642.167,262.42L642.167,262.42z"/>
	</g>
	<g>
		<path d="M650.579,292.018c-1.06-0.295-2.153-0.445-3.251-0.445s-2.232,0.15-3.373,0.446l-0.082,0.021l-0.225-0.306l0.146-0.062
			c0.747-0.32,1.11-0.927,1.11-1.854V264.79c0-0.927-0.363-1.533-1.11-1.854l-0.146-0.062l0.225-0.305l0.082,0.021
			c0.84,0.215,1.885,0.339,3.193,0.381c0.828,0,2.025-0.039,3.657-0.118c1.528-0.075,2.63-0.115,3.186-0.115
			c3.395,0,6.103,0.717,8.049,2.129c1.959,1.42,2.952,3.354,2.952,5.745c0,2.158-0.841,4.06-2.5,5.65
			c-1.648,1.583-3.966,2.614-6.888,3.065c-0.807,0.113-2.834,0.171-6.029,0.173v10.319c0,0.929,0.355,1.535,1.087,1.854l0.075,0.032
			v0.357L650.579,292.018z M652.834,275.715c2.112,0,3.783-0.472,4.965-1.402c1.173-0.929,1.768-2.134,1.768-3.58
			c0-2.938-2.228-4.367-6.809-4.367h-3.184v9.35H652.834z"/>
		<path fill="#FFFFFF" d="M643.923,262.71c0.86,0.22,1.935,0.344,3.221,0.385c0.86,0,2.082-0.041,3.667-0.118
			c1.582-0.078,2.645-0.115,3.18-0.115c3.383,0,6.041,0.701,7.976,2.105c1.935,1.402,2.9,3.285,2.9,5.644
			c0,2.136-0.823,3.989-2.462,5.561c-1.642,1.576-3.915,2.583-6.82,3.032c-0.809,0.113-2.854,0.171-6.135,0.171v10.444
			c0,0.974,0.387,1.631,1.162,1.969v0.11c-1.075-0.3-2.17-0.449-3.284-0.449s-2.249,0.149-3.404,0.449l-0.081-0.11
			c0.788-0.338,1.187-0.995,1.187-1.969V264.79c0-0.974-0.398-1.631-1.187-1.969L643.923,262.71 M649.45,275.84h3.385
			c2.154,0,3.831-0.476,5.042-1.429c1.208-0.957,1.815-2.183,1.815-3.679c0-2.996-2.311-4.492-6.934-4.492h-3.309V275.84
			 M643.822,262.426l-0.1,0.136l-0.081,0.11l-0.187,0.254l0.289,0.124c0.696,0.299,1.035,0.868,1.035,1.739v25.029
			c0,0.871-0.339,1.44-1.035,1.739l-0.289,0.124l0.187,0.254l0.081,0.11l0.1,0.136l0.164-0.042c1.13-0.293,2.255-0.441,3.342-0.441
			s2.169,0.147,3.217,0.44l0.317,0.088v-0.329v-0.11v-0.164l-0.15-0.065c-0.681-0.297-1.012-0.865-1.012-1.739v-10.194
			c3.129-0.003,5.12-0.062,5.92-0.173c2.951-0.457,5.291-1.499,6.958-3.1c1.685-1.615,2.539-3.547,2.539-5.741
			c0-2.435-1.011-4.401-3.004-5.846c-1.968-1.429-4.7-2.153-8.122-2.153c-0.558,0-1.661,0.04-3.192,0.115
			c-1.629,0.08-2.824,0.118-3.654,0.118c-1.292-0.041-2.327-0.165-3.159-0.377L643.822,262.426L643.822,262.426z M649.7,266.491
			h3.059c4.497,0,6.684,1.388,6.684,4.242c0,1.426-0.562,2.565-1.721,3.482c-1.158,0.912-2.803,1.375-4.887,1.375H649.7V266.491
			L649.7,266.491z"/>
	</g>
	<g>
		<path d="M681.732,291.735l0.144-0.062c0.634-0.273,0.797-0.867,0.496-1.815l-2.317-6.436h-10.513l-2.167,6.438
			c-0.354,0.914-0.19,1.507,0.497,1.814l0.141,0.063l-0.222,0.305l-0.083-0.023c-1.058-0.295-2.198-0.445-3.391-0.445
			c-1.194,0-2.473,0.15-3.8,0.447l-0.08,0.018l-0.229-0.312l0.16-0.056c0.926-0.323,1.578-0.961,1.94-1.896l8.863-25.04
			c0.298-0.901,0.107-1.491-0.581-1.799l-0.142-0.063l0.225-0.306l0.083,0.024c1.004,0.288,2.375,0.434,4.076,0.434
			c1.702,0,3.073-0.146,4.077-0.434l0.083-0.024l0.222,0.302l-0.136,0.065c-0.642,0.31-0.806,0.903-0.503,1.817l8.865,25.026
			c0.307,0.934,0.932,1.569,1.857,1.893l0.16,0.056l-0.229,0.312l-0.08-0.018c-1.327-0.297-2.6-0.447-3.78-0.447
			c-1.178,0-2.298,0.15-3.328,0.445l-0.083,0.024L681.732,291.735z M678.929,280.128l-4.107-11.615l-4.005,11.615H678.929z"/>
		<path fill="#FFFFFF" d="M678.944,262.71l0.081,0.11c-0.702,0.338-0.891,0.995-0.567,1.969l8.865,25.029
			c0.32,0.974,0.967,1.631,1.935,1.969l-0.081,0.11c-1.343-0.3-2.612-0.449-3.808-0.449c-1.194,0-2.315,0.149-3.362,0.449
			l-0.081-0.11c0.697-0.301,0.886-0.957,0.565-1.969l-2.349-6.522h-10.69l-2.195,6.522c-0.377,0.974-0.189,1.631,0.564,1.969
			l-0.08,0.11c-1.073-0.3-2.215-0.449-3.424-0.449s-2.484,0.149-3.827,0.449l-0.081-0.11c0.968-0.338,1.639-0.995,2.016-1.969
			l8.865-25.043c0.319-0.968,0.107-1.617-0.648-1.955l0.081-0.11c1.021,0.293,2.392,0.438,4.11,0.438
			C676.552,263.149,677.922,263.003,678.944,262.71 M670.641,280.253h8.465l-4.286-12.119L670.641,280.253 M679.042,262.422
			l-0.168,0.048c-0.991,0.284-2.352,0.429-4.042,0.429c-1.689,0-3.05-0.145-4.041-0.429l-0.168-0.048l-0.103,0.14l-0.081,0.11
			l-0.184,0.25l0.283,0.127c0.395,0.177,0.878,0.54,0.513,1.648l-8.863,25.038c-0.351,0.904-0.961,1.501-1.862,1.815l-0.319,0.111
			l0.2,0.273l0.081,0.11l0.097,0.131l0.159-0.035c1.318-0.295,2.587-0.443,3.772-0.443c1.181,0,2.311,0.147,3.356,0.44l0.168,0.046
			l0.102-0.141l0.08-0.11l0.181-0.249l-0.28-0.126c-0.393-0.176-0.864-0.538-0.434-1.65l2.142-6.362h10.335l2.289,6.357
			c0.366,1.157-0.069,1.499-0.429,1.654l-0.289,0.124l0.187,0.254l0.081,0.11l0.103,0.14l0.167-0.048
			c1.02-0.292,2.128-0.439,3.294-0.439c1.172,0,2.435,0.148,3.753,0.443l0.159,0.035l0.097-0.131l0.081-0.11l0.2-0.273l-0.319-0.111
			c-0.899-0.313-1.481-0.906-1.779-1.811l-8.867-25.034c-0.371-1.119,0.073-1.484,0.44-1.66l0.271-0.131l-0.179-0.243l-0.081-0.11
			L679.042,262.422L679.042,262.422z M670.992,280.003l3.831-11.111l3.93,11.111H670.992L670.992,280.003z"/>
	</g>
	<g>
		<path d="M711.174,292.018c-1.06-0.295-2.153-0.445-3.251-0.445c-1.1,0-2.234,0.15-3.373,0.446l-0.156,0.04v-0.352l0.073-0.034
			c0.711-0.322,1.057-0.935,1.057-1.871v-2.94l-10.101-17.005v19.962c0,0.929,0.355,1.535,1.087,1.854l0.075,0.032v0.354
			l-0.156-0.04c-1.141-0.296-2.275-0.446-3.374-0.446c-1.098,0-2.19,0.15-3.25,0.445l-0.083,0.023l-0.226-0.307l0.146-0.062
			c0.747-0.32,1.11-0.927,1.11-1.854V264.79c0-0.927-0.363-1.533-1.11-1.854l-0.146-0.062l0.226-0.307l0.083,0.023
			c1.057,0.287,2.618,0.434,4.641,0.434c2.021,0,3.583-0.146,4.64-0.434l0.083-0.023l0.225,0.306l-0.144,0.062
			c-0.725,0.318-1.077,0.852-1.077,1.629c0,0.613,0.219,1.27,0.65,1.95l6.701,11.558v-13.286c0-0.926-0.346-1.531-1.057-1.851
			l-0.073-0.033v-0.353l0.156,0.04c1.139,0.296,2.273,0.446,3.373,0.446c1.098,0,2.191-0.15,3.251-0.445l0.158-0.045v0.243
			l-0.07,0.091c-0.719,0.353-1.068,0.978-1.068,1.91v25.029c0,0.931,0.349,1.537,1.064,1.854l0.074,0.033v0.356L711.174,292.018z"/>
		<path fill="#FFFFFF" d="M711.208,262.71v0.057c-0.762,0.374-1.139,1.049-1.139,2.022v25.029c0,0.974,0.377,1.631,1.139,1.969v0.11
			c-1.074-0.3-2.17-0.449-3.284-0.449c-1.115,0-2.25,0.149-3.404,0.449v-0.11c0.751-0.341,1.13-1.001,1.13-1.985v-2.94
			l-10.351-17.46v20.417c0,0.974,0.387,1.631,1.162,1.969v0.11c-1.155-0.3-2.29-0.449-3.405-0.449c-1.114,0-2.209,0.149-3.283,0.449
			l-0.081-0.11c0.788-0.338,1.187-0.995,1.187-1.969V264.79c0-0.974-0.398-1.631-1.187-1.969l0.081-0.11
			c1.075,0.293,2.631,0.438,4.674,0.438c2.041,0,3.598-0.146,4.673-0.438l0.081,0.11c-0.77,0.338-1.152,0.917-1.152,1.743
			c0,0.637,0.222,1.311,0.67,2.018l6.932,11.955v-13.751c0-0.97-0.379-1.627-1.13-1.965v-0.11c1.154,0.3,2.289,0.449,3.404,0.449
			C709.038,263.16,710.133,263.01,711.208,262.71 M711.458,262.381l-0.317,0.088c-1.048,0.293-2.13,0.44-3.217,0.44
			c-1.089,0-2.213-0.148-3.342-0.441l-0.312-0.081v0.323v0.11v0.162l0.147,0.065c0.661,0.298,0.982,0.866,0.982,1.737v12.821
			l-6.465-11.15c-0.425-0.669-0.637-1.303-0.637-1.893c0-0.723,0.328-1.218,1.003-1.515l0.286-0.125l-0.186-0.252l-0.081-0.11
			l-0.102-0.138l-0.165,0.045c-1.047,0.285-2.597,0.43-4.607,0.43c-2.012,0-3.562-0.145-4.608-0.43l-0.165-0.045l-0.102,0.138
			l-0.081,0.11l-0.187,0.254l0.289,0.124c0.696,0.299,1.035,0.868,1.035,1.739v25.029c0,0.871-0.339,1.44-1.035,1.739l-0.289,0.124
			l0.187,0.254l0.081,0.11l0.102,0.139l0.167-0.046c1.048-0.293,2.13-0.44,3.216-0.44c1.088,0,2.213,0.148,3.343,0.441l0.312,0.081
			v-0.323v-0.11v-0.164l-0.15-0.065c-0.681-0.297-1.012-0.865-1.012-1.739v-19.505l9.851,16.616v2.872
			c0,0.883-0.321,1.457-0.983,1.758l-0.146,0.066v0.161v0.11v0.323l0.312-0.081c1.129-0.293,2.253-0.441,3.342-0.441
			c1.087,0,2.169,0.147,3.217,0.44l0.317,0.088v-0.329v-0.11v-0.163l-0.148-0.065c-0.666-0.296-0.99-0.864-0.99-1.74V264.79
			c0-0.88,0.327-1.468,0.999-1.798l0.14-0.068v-0.156v-0.057V262.381L711.458,262.381z"/>
	</g>
	<g>
		<path d="M720.479,291.708l0.073-0.033c0.696-0.319,1.035-0.927,1.035-1.855v-10.723l-8.186-14.705
			c-0.362-0.646-0.973-1.122-1.866-1.453l-0.156-0.058l0.229-0.311l0.081,0.019c1.245,0.297,2.441,0.447,3.555,0.447
			c1.11,0,2.17-0.15,3.147-0.445l0.085-0.025l0.223,0.304l-0.137,0.064c-0.254,0.122-0.413,0.277-0.471,0.463
			c-0.066,0.213-0.009,0.482,0.172,0.8l5.729,10.314l5.803-10.291c0.173-0.311,0.226-0.575,0.155-0.788
			c-0.065-0.198-0.244-0.366-0.532-0.496l-0.141-0.064l0.225-0.306l0.085,0.025c0.976,0.295,2.033,0.445,3.144,0.445
			c1.113,0,2.31-0.15,3.556-0.447l0.081-0.019l0.227,0.311l-0.155,0.058c-0.893,0.331-1.504,0.807-1.867,1.454l-8.329,14.489
			l0.017,10.938c0,0.928,0.38,1.534,1.162,1.853l0.148,0.061l-0.227,0.31l-0.083-0.023c-1.06-0.295-2.153-0.445-3.251-0.445
			c-1.1,0-2.234,0.15-3.373,0.446l-0.156,0.04V291.708z"/>
		<path fill="#FFFFFF" d="M736.315,262.71l0.08,0.11c-0.912,0.338-1.556,0.837-1.934,1.51l-8.328,14.488v11
			c0,0.974,0.411,1.631,1.24,1.969l-0.081,0.11c-1.075-0.3-2.17-0.449-3.284-0.449c-1.115,0-2.25,0.149-3.404,0.449v-0.11
			c0.737-0.338,1.108-0.995,1.108-1.969v-10.723l-8.201-14.766c-0.377-0.673-1.021-1.172-1.933-1.51l0.081-0.11
			c1.261,0.3,2.456,0.449,3.584,0.449s2.189-0.149,3.184-0.449l0.081,0.11c-0.613,0.293-0.73,0.775-0.354,1.437l5.836,10.509
			l5.912-10.485c0.374-0.671,0.229-1.159-0.434-1.46l0.081-0.11c0.991,0.3,2.052,0.449,3.18,0.449S735.053,263.01,736.315,262.71
			 M729.454,262.42l-0.104,0.142l-0.081,0.11l-0.183,0.249l0.28,0.127c0.255,0.115,0.411,0.258,0.465,0.422
			c0.059,0.178,0.01,0.409-0.146,0.688l-5.691,10.096l-5.619-10.118c-0.165-0.289-0.219-0.524-0.163-0.702
			c0.048-0.151,0.184-0.282,0.405-0.388l0.272-0.13l-0.179-0.244l-0.081-0.11l-0.104-0.142l-0.169,0.051
			c-0.966,0.291-2.013,0.438-3.111,0.438c-1.104,0-2.29-0.148-3.526-0.442l-0.161-0.038l-0.098,0.133l-0.081,0.11l-0.196,0.268
			l0.311,0.115c0.865,0.32,1.454,0.777,1.802,1.397l8.169,14.708v10.658c0,0.875-0.314,1.444-0.963,1.741l-0.146,0.067v0.16v0.11
			v0.323l0.312-0.081c1.129-0.293,2.253-0.441,3.342-0.441c1.087,0,2.169,0.147,3.217,0.44l0.167,0.046l0.102-0.139l0.081-0.11
			l0.19-0.259l-0.297-0.121c-0.73-0.298-1.085-0.866-1.085-1.737v-10.934l8.295-14.43c0.35-0.623,0.939-1.08,1.804-1.4l0.309-0.114
			l-0.193-0.267l-0.08-0.11l-0.098-0.136l-0.162,0.039c-1.237,0.294-2.424,0.442-3.527,0.442c-1.099,0-2.144-0.147-3.107-0.438
			L729.454,262.42L729.454,262.42z"/>
	</g>
</g>
<g>
	<g>
		<path d="M135.793,279.208c-9.639,0-18.17-4.806-25.357-14.283c-5.884-7.738-9.959-17.115-12.113-27.869l-7.052-36.285
			c-3.369,0.979-7.323,1.76-11.754,2.32v40.393c0,4.105,1.122,6.971,3.334,8.516l0.053,0.037v0.469l-0.174-0.073
			c-2.696-1.138-6.014-1.715-9.862-1.715c-3.702,0-6.95,0.505-9.653,1.499l-0.074,0.027l-0.386-0.38l0.135-0.084
			c2.257-1.407,3.402-4.199,3.402-8.299V130.147c0-4.098-1.145-6.89-3.402-8.297l-0.134-0.083l0.385-0.383l0.075,0.028
			c2.7,0.996,5.948,1.501,9.653,1.501c3.848,0,7.167-0.505,9.867-1.501l0.168-0.062v0.463l-0.058,0.037
			c-2.21,1.408-3.33,4.199-3.33,8.297v59.104c4.207-0.708,7.836-1.64,10.791-2.769c12.638-4.7,19.045-15.394,19.045-31.783
			c0-10.262-3.324-19.335-9.878-26.967c-6.551-7.622-14.925-11.486-24.891-11.486c-5.834,0-11.172,1.733-15.864,5.152
			c-5.12,3.703-8.219,8.394-9.213,13.94c-0.139,1.12-0.068,2.118,0.21,2.96l0.034,0.103l-0.648,0.32l-0.052-0.122
			c-3.133-7.406-8.255-12.529-15.226-15.229l-0.179-0.069l0.352-0.351l0.951-0.037c2.102,0,4.391-1.367,6.802-4.062
			c9.319-10.208,20.515-15.383,33.277-15.383c13.479,0,24.822,5.165,33.712,15.35c8.884,10.176,13.389,22.24,13.389,35.857
			c0,17.605-5.944,30.969-17.666,39.72l7.744,42.6c4.568,25.396,13.237,38.272,25.766,38.272c3.834,0,7.218-1.293,10.056-3.843
			c2.835-2.547,4.273-5.771,4.273-9.586c0-2.972-1.043-5.695-3.102-8.096c-2.05-2.398-4.523-3.615-7.351-3.615
			c-2.117,0-3.977,0.748-5.528,2.223c-1.55,1.47-2.335,3.283-2.335,5.391c0,3.966,1.461,5.894,4.468,5.894
			c0.336,0,0.63-0.056,0.874-0.166v-1.425c0-2.359,1.132-3.556,3.365-3.556c2.089,0,3.148,1.128,3.148,3.354
			c0,3.508-2.07,5.286-6.154,5.286c-2.465,0-4.526-0.919-6.125-2.73c-1.592-1.809-2.4-3.973-2.4-6.431
			c0-2.892,1.064-5.416,3.163-7.504c2.097-2.097,4.629-3.16,7.528-3.16c3.758,0,6.981,1.501,9.582,4.461
			c2.596,2.951,3.913,6.347,3.913,10.092c0,5.041-1.977,9.239-5.875,12.478C145.583,277.568,140.98,279.208,135.793,279.208z"/>
		<path fill="#FFFFFF" d="M75.028,103.593c13.503,0,24.71,5.102,33.618,15.307c8.905,10.2,13.358,22.125,13.358,35.775
			c0,17.679-5.893,30.899-17.678,39.666l7.757,42.676c4.602,25.583,13.231,38.375,25.889,38.375c3.883,0,7.262-1.29,10.14-3.875
			c2.876-2.583,4.314-5.808,4.314-9.679c0-3.016-1.044-5.742-3.132-8.177c-2.085-2.44-4.57-3.659-7.445-3.659
			c-2.16,0-4.03,0.751-5.614,2.257c-1.583,1.502-2.375,3.332-2.375,5.481c0,4.014,1.531,6.019,4.593,6.019
			c0.399,0,0.731-0.075,0.999-0.213c0-0.436,0-0.931,0-1.503c0-2.288,1.08-3.431,3.24-3.431c2.015,0,3.023,1.075,3.023,3.229
			c0,3.437-2.009,5.161-6.029,5.161c-2.443,0-4.453-0.899-6.031-2.688c-1.581-1.795-2.369-3.907-2.369-6.348
			c0-2.863,1.041-5.341,3.126-7.415c2.083-2.083,4.563-3.124,7.439-3.124c3.737,0,6.9,1.473,9.488,4.418
			c2.586,2.94,3.881,6.277,3.881,10.01c0,5.026-1.944,9.153-5.831,12.382c-3.887,3.231-8.42,4.846-13.6,4.846
			c-9.643,0-18.062-4.745-25.257-14.233c-5.901-7.762-9.931-17.037-12.09-27.818l-7.078-36.419
			c-3.421,1.004-7.416,1.796-11.976,2.368v40.503c0,4.167,1.129,7.041,3.388,8.618v0.215c-2.729-1.151-6.034-1.725-9.911-1.725
			c-3.736,0-6.968,0.503-9.696,1.507l-0.216-0.213c2.309-1.439,3.461-4.238,3.461-8.405V130.147c0-4.167-1.152-6.964-3.461-8.403
			l0.216-0.215c2.729,1.007,5.96,1.509,9.696,1.509c3.876,0,7.182-0.502,9.911-1.509v0.215c-2.259,1.439-3.388,4.235-3.388,8.403
			v59.251c4.297-0.716,7.952-1.649,10.96-2.799c12.751-4.743,19.125-15.377,19.125-31.9c0-10.343-3.302-19.356-9.909-27.049
			c-6.605-7.685-14.933-11.53-24.985-11.53c-5.887,0-11.201,1.725-15.938,5.176c-5.17,3.74-8.258,8.412-9.262,14.019
			c-0.143,1.152-0.072,2.156,0.214,3.021l-0.432,0.213c-3.159-7.467-8.258-12.571-15.296-15.297l0.216-0.215
			c0.286,0,0.574,0,0.862,0c2.153,0,4.451-1.372,6.896-4.104C51.18,108.708,62.243,103.593,75.028,103.593 M75.028,103.343
			c-12.799,0-24.026,5.189-33.369,15.423c-2.389,2.669-4.646,4.022-6.711,4.022h-0.862h-0.104l-0.073,0.073l-0.216,0.215
			l-0.272,0.271l0.358,0.139c6.938,2.688,12.038,7.789,15.156,15.162l0.104,0.244l0.237-0.117l0.432-0.213l0.195-0.096l-0.068-0.207
			c-0.272-0.825-0.341-1.805-0.204-2.912c0.986-5.5,4.068-10.164,9.161-13.847c4.671-3.403,9.984-5.129,15.792-5.129
			c9.927,0,18.27,3.85,24.796,11.443c6.535,7.608,9.848,16.654,9.848,26.886c0,16.331-6.38,26.985-18.963,31.666
			c-2.915,1.113-6.486,2.034-10.623,2.737v-58.955c0-4.053,1.101-6.809,3.272-8.192l0.116-0.074v-0.137v-0.215v-0.359l-0.336,0.125
			c-2.687,0.991-5.992,1.494-9.824,1.494c-3.69,0-6.923-0.502-9.61-1.494l-0.149-0.056l-0.113,0.113l-0.216,0.215l-0.224,0.223
			l0.268,0.167c2.218,1.383,3.343,4.139,3.343,8.191V243.48c0,4.054-1.125,6.81-3.343,8.193l-0.269,0.168l0.226,0.222l0.216,0.213
			l0.113,0.111l0.149-0.055c2.689-0.989,5.923-1.491,9.61-1.491c3.831,0,7.132,0.573,9.813,1.705l0.347,0.146v-0.377v-0.215v-0.131
			l-0.107-0.074c-2.177-1.52-3.281-4.351-3.281-8.413v-40.282c4.336-0.554,8.214-1.317,11.533-2.272l7.025,36.15
			c2.158,10.773,6.241,20.168,12.137,27.922c7.211,9.51,15.776,14.332,25.457,14.332c5.217,0,9.846-1.649,13.76-4.903
			c3.929-3.264,5.921-7.494,5.921-12.574c0-3.776-1.327-7.199-3.943-10.175c-2.625-2.988-5.881-4.503-9.676-4.503
			c-2.933,0-5.495,1.076-7.616,3.197c-2.123,2.111-3.2,4.666-3.2,7.592c0,2.49,0.818,4.681,2.431,6.513
			c1.624,1.841,3.716,2.773,6.219,2.773c4.167,0,6.279-1.82,6.279-5.411c0-2.275-1.132-3.479-3.273-3.479
			c-2.315,0-3.49,1.238-3.49,3.681v1.342c-0.213,0.082-0.464,0.124-0.749,0.124c-2.922,0-4.343-1.887-4.343-5.769
			c0-2.071,0.772-3.854,2.296-5.3c1.527-1.452,3.358-2.188,5.442-2.188c2.79,0,5.23,1.201,7.255,3.571
			c2.039,2.377,3.072,5.073,3.072,8.015c0,3.777-1.424,6.971-4.231,9.493c-2.815,2.528-6.17,3.811-9.973,3.811
			c-12.459,0-21.087-12.842-25.643-38.169l-7.73-42.524c11.714-8.776,17.654-22.158,17.654-39.773
			c0-13.647-4.515-25.739-13.42-35.939C99.919,108.522,88.545,103.343,75.028,103.343L75.028,103.343z"/>
	</g>
</g>
<g>
	<g>
		<path d="M435.037,278.473c-9.294,0-17.37-3.304-24.003-9.818c-6.63-6.512-9.992-14.532-9.992-23.838
			c0-8.567,2.829-16.053,8.408-22.251c5.579-6.208,12.749-9.356,21.312-9.356c6.334,0,11.903,2.272,16.556,6.756
			c4.657,4.479,7.019,9.91,7.019,16.142c0,4.354-1.072,8.207-3.188,11.45c-2.492,3.631-5.908,5.471-10.157,5.471
			c-2.377,0-4.566-0.795-6.507-2.362c-1.945-1.576-2.931-3.651-2.931-6.169c0-3.305,1.303-4.98,3.871-4.98
			c2.318,0,3.494,1.177,3.494,3.498c0,2.021-1.016,3.19-3.019,3.478c0.168,2.488,1.832,3.698,5.083,3.698
			c3.291,0,5.948-1.551,7.899-4.608c1.593-2.578,2.401-5.633,2.401-9.078c0-5.656-2.115-10.458-6.287-14.273
			c-4.179-3.816-9.16-5.752-14.804-5.752c-7.252,0-13.39,2.713-18.241,8.062c-4.856,5.351-7.318,11.809-7.318,19.194
			c0,7.627,2.774,14.365,8.246,20.027c5.47,5.66,12.105,8.53,19.725,8.53c8.973,0,16.265-3.116,21.676-9.262
			c5.166-5.782,7.785-13.328,7.785-22.43c0-9.59-3.81-18.072-11.323-25.212c-7.072-5.572-14.087-11.091-21.042-16.548
			c-7.572-6.698-11.408-14.304-11.408-22.612c0-6.823,2.298-12.859,6.83-17.941c4.528-5.087,10.229-7.793,16.941-8.044
			c4.098,0,9.193,1.564,15.15,4.65c1.708,0.851,3.506,1.283,5.343,1.283c1.097,0,2.082-0.185,2.929-0.549l0.079-0.034l0.342,0.347
			l-0.106,0.087c-5.903,4.795-9.396,10.839-10.379,17.966l-0.015,0.108h-0.411l-0.006-0.119c-0.125-2.542-1.517-4.723-4.136-6.484
			c-2.634-1.769-5.272-2.667-7.842-2.667c-3.296,0-5.925,1.111-7.815,3.303c-1.895,2.199-2.854,4.987-2.854,8.287
			c0,4.776,3.555,10,10.566,15.528c10.884,8.647,17.532,14.348,19.76,16.942c7.063,8.293,10.645,18.206,10.645,29.463
			c0,11.138-3.58,20.616-10.64,28.172C455.355,274.455,446.057,278.473,435.037,278.473z"/>
		<path fill="#FFFFFF" d="M442.068,150.37c4.098,0,9.124,1.547,15.088,4.636c1.738,0.866,3.538,1.297,5.4,1.297
			c1.116,0,2.109-0.186,2.979-0.56l0.186,0.188c-5.957,4.838-9.431,10.849-10.424,18.046h-0.183
			c-0.128-2.594-1.522-4.787-4.191-6.581c-2.667-1.792-5.304-2.688-7.911-2.688c-3.349,0-5.986,1.116-7.91,3.346
			c-1.924,2.233-2.885,5.023-2.885,8.369c0,4.838,3.538,10.047,10.614,15.626c10.925,8.68,17.506,14.32,19.742,16.925
			c7.076,8.309,10.614,18.103,10.614,29.382c0,11.163-3.538,20.522-10.606,28.087c-7.324,7.934-16.502,11.904-27.544,11.904
			c-9.305,0-17.277-3.263-23.915-9.782s-9.955-14.434-9.955-23.749c0-8.569,2.789-15.961,8.376-22.167
			c5.583-6.213,12.654-9.315,21.219-9.315c6.328,0,11.819,2.24,16.469,6.721c4.655,4.478,6.98,9.829,6.98,16.052
			c0,4.354-1.058,8.147-3.167,11.382c-2.479,3.611-5.834,5.414-10.053,5.414c-2.359,0-4.502-0.778-6.429-2.335
			c-1.921-1.557-2.884-3.579-2.884-6.071c0-3.234,1.246-4.855,3.746-4.855c2.244,0,3.369,1.122,3.369,3.373
			c0,1.994-1.011,3.119-3.025,3.369c0.127,2.621,1.862,3.932,5.215,3.932c3.35,0,6.019-1.553,8.005-4.666
			c1.611-2.607,2.421-5.661,2.421-9.146c0-5.721-2.109-10.508-6.328-14.365c-4.219-3.854-9.181-5.785-14.888-5.785
			c-7.323,0-13.435,2.701-18.334,8.104c-4.901,5.4-7.351,11.826-7.351,19.278c0,7.695,2.76,14.4,8.281,20.114
			c5.519,5.711,12.122,8.568,19.814,8.568c9.054,0,16.311-3.104,21.77-9.304c5.207-5.828,7.816-13.335,7.816-22.513
			c0-9.67-3.788-18.105-11.362-25.303c-7.081-5.58-14.096-11.099-21.051-16.556c-7.573-6.699-11.36-14.202-11.36-22.513
			c0-6.82,2.265-12.774,6.799-17.858C429.744,153.284,435.364,150.62,442.068,150.37 M442.068,150.12h-0.005h-0.005
			c-6.748,0.252-12.478,2.972-17.029,8.086c-4.554,5.104-6.862,11.169-6.862,18.024c0,8.345,3.851,15.983,11.444,22.701
			c6.967,5.466,13.981,10.984,21.062,16.564c7.47,7.101,11.267,15.552,11.267,25.106c0,9.069-2.608,16.588-7.753,22.346
			c-5.387,6.119-12.648,9.221-21.583,9.221c-7.584,0-14.189-2.857-19.635-8.492c-5.448-5.639-8.211-12.347-8.211-19.94
			c0-7.354,2.451-13.783,7.286-19.11c4.827-5.322,10.933-8.021,18.148-8.021c5.612,0,10.564,1.925,14.719,5.72
			c4.146,3.79,6.247,8.562,6.247,14.181c0,3.422-0.802,6.455-2.384,9.014c-1.925,3.017-4.547,4.548-7.792,4.548
			c-3.121,0-4.743-1.135-4.949-3.467c1.997-0.325,3.01-1.53,3.01-3.584c0-2.37-1.252-3.623-3.619-3.623
			c-2.651,0-3.996,1.718-3.996,5.105c0,2.557,1.001,4.665,2.977,6.266c1.964,1.586,4.18,2.391,6.586,2.391
			c4.292,0,7.744-1.858,10.259-5.522c2.132-3.269,3.211-7.144,3.211-11.523c0-6.267-2.374-11.728-7.058-16.232
			c-4.675-4.505-10.274-6.79-16.642-6.79c-8.599,0-15.801,3.162-21.404,9.398c-5.601,6.221-8.44,13.735-8.44,22.334
			c0,9.34,3.375,17.391,10.03,23.928c6.656,6.538,14.762,9.854,24.09,9.854c11.057,0,20.386-4.032,27.728-11.984
			c7.082-7.579,10.673-17.086,10.673-28.257c0-11.288-3.591-21.228-10.674-29.544c-2.233-2.602-8.888-8.307-19.777-16.958
			c-6.98-5.504-10.52-10.695-10.52-15.431c0-3.269,0.95-6.03,2.824-8.206c1.865-2.163,4.463-3.259,7.721-3.259
			c2.544,0,5.159,0.89,7.771,2.646c2.585,1.737,3.958,3.886,4.081,6.386l0.012,0.238h0.238h0.183h0.218l0.03-0.216
			c0.979-7.094,4.455-13.112,10.333-17.887l0.214-0.173l-0.193-0.196l-0.186-0.188l-0.119-0.122l-0.157,0.068
			c-0.832,0.357-1.801,0.539-2.88,0.539c-1.817,0-3.597-0.427-5.289-1.271C451.296,151.689,446.181,150.12,442.068,150.12
			L442.068,150.12z"/>
	</g>
</g>
<g>
	<g>
		<path d="M346.189,255.471l0.059-0.037c1.95-1.204,2.939-3.599,2.939-7.116v-54.145c-2.572,0.367-5.15,0.553-7.665,0.553
			c-10.002,0-18.583-3.066-25.503-9.114c-7.415-6.296-11.174-14.436-11.174-24.191c0-6.678,2.352-12.475,6.99-17.229
			c4.634-4.763,10.371-7.178,17.049-7.178c4.949,0,9.343,1.788,13.061,5.315c3.72,3.53,5.606,7.83,5.606,12.783
			c0,3.344-0.942,6.42-2.802,9.144c-1.871,2.739-4.46,4.128-7.697,4.128c-1.875,0-3.617-0.661-5.178-1.963
			c-1.564-1.314-2.356-2.93-2.356-4.802c0-2.534,1.107-3.819,3.292-3.819c1.816,0,2.737,0.972,2.737,2.888
			c0,1.374-0.695,2.274-2.068,2.677c0.388,1.692,1.707,2.549,3.923,2.549c4.943,0,7.449-3.693,7.449-10.977
			c0-4.013-1.639-7.591-4.87-10.634c-3.233-3.046-6.91-4.591-10.928-4.591c-5.99,0-11.073,2.137-15.105,6.352
			c-4.032,4.216-6.077,9.392-6.077,15.385c0,7.947,3.293,14.58,9.787,19.717c6.008,4.775,13.162,7.196,21.264,7.196
			c3.433,0,6.886-0.365,10.265-1.085V115.62c0-3.642-0.987-6.037-2.934-7.118l-0.064-0.036v-0.628l0.171,0.067
			c2.452,0.967,5.242,1.458,8.292,1.458c3.301,0,6.156-0.49,8.487-1.457l0.078-0.033l0.35,0.355l-0.13,0.083
			c-2.06,1.33-3.104,3.788-3.104,7.308v67.261c8.52-4.534,14.569-10.904,17.981-18.937l-0.01-48.324c0-3.521-0.993-5.92-2.953-7.128
			l-0.1-0.061l0.297-0.568l0.105,0.044c2.327,0.966,5.116,1.457,8.291,1.457c3.301,0,6.155-0.49,8.486-1.457l0.173-0.072v0.438
			l-0.054,0.037c-1.909,1.326-2.878,3.785-2.878,7.31v91.72c0,3.527,0.968,5.987,2.878,7.311l0.054,0.037v0.44l-0.173-0.071
			c-2.319-0.954-5.175-1.438-8.486-1.438c-3.187,0-5.976,0.484-8.291,1.438l-0.106,0.044l-0.295-0.575l0.099-0.061
			c1.96-1.201,2.953-3.596,2.953-7.117v-26.563c-4.893,4.57-10.937,8.179-17.971,10.729v56.806c0,3.516,1.042,5.909,3.1,7.115
			l0.137,0.08l-0.349,0.361l-0.076-0.027c-2.327-0.833-5.184-1.256-8.493-1.256c-3.059,0-5.851,0.423-8.298,1.257l-0.166,0.057
			V255.471z"/>
		<path fill="#FFFFFF" d="M392.48,108.021v0.186c-1.955,1.357-2.932,3.827-2.932,7.413v91.72c0,3.582,0.977,6.059,2.932,7.413v0.188
			c-2.349-0.967-5.192-1.448-8.534-1.448c-3.212,0-5.994,0.481-8.339,1.448l-0.189-0.37c2.012-1.233,3.013-3.643,3.013-7.224
			v-26.853c-4.959,4.692-11.031,8.335-18.221,10.93v56.894c0,3.581,1.052,5.986,3.162,7.223l-0.183,0.189
			c-2.349-0.842-5.193-1.264-8.535-1.264c-3.086,0-5.869,0.422-8.338,1.264v-0.189c2.001-1.236,2.998-3.642,2.998-7.223v-54.289
			c-2.594,0.377-5.196,0.572-7.79,0.572c-10.017,0-18.493-3.029-25.421-9.083c-7.424-6.305-11.131-14.333-11.131-24.098
			c0-6.67,2.314-12.385,6.955-17.142c4.629-4.757,10.287-7.141,16.96-7.141c4.943,0,9.266,1.762,12.975,5.281
			c3.713,3.523,5.567,7.755,5.567,12.692c0,3.332-0.926,6.358-2.78,9.073c-1.856,2.718-4.386,4.074-7.594,4.074
			c-1.854,0-3.551-0.644-5.098-1.935c-1.54-1.294-2.312-2.863-2.312-4.706c0-2.467,1.058-3.694,3.167-3.694
			c1.742,0,2.612,0.923,2.612,2.763c0,1.355-0.699,2.217-2.09,2.588c0.368,1.836,1.728,2.763,4.07,2.763
			c5.051,0,7.574-3.7,7.574-11.102c0-4.067-1.635-7.642-4.91-10.725c-3.272-3.083-6.947-4.625-11.014-4.625
			c-6.059,0-11.118,2.128-15.196,6.391c-4.077,4.262-6.111,9.42-6.111,15.472c0,8.022,3.278,14.629,9.834,19.814
			c6.062,4.818,13.177,7.224,21.342,7.224c3.463,0,6.926-0.363,10.39-1.108V115.62c0-3.707-0.997-6.116-2.998-7.227v-0.371
			c2.47,0.974,5.252,1.466,8.338,1.466c3.342,0,6.186-0.492,8.535-1.466l0.183,0.186c-2.109,1.361-3.162,3.827-3.162,7.413v67.469
			c8.675-4.571,14.753-10.933,18.221-19.096V115.62c0-3.586-1.001-5.994-3.013-7.234l0.189-0.364
			c2.345,0.974,5.127,1.466,8.339,1.466C387.288,109.488,390.131,108.996,392.48,108.021 M392.73,107.647l-0.346,0.144
			c-2.315,0.96-5.154,1.447-8.438,1.447c-3.158,0-5.932-0.487-8.243-1.447l-0.212-0.088l-0.105,0.203l-0.189,0.364l-0.107,0.206
			l0.198,0.122c1.92,1.184,2.894,3.546,2.894,7.021v48.322c-3.38,7.925-9.341,14.225-17.721,18.731V115.62
			c0-3.474,1.025-5.897,3.047-7.203l0.258-0.167l-0.216-0.219l-0.183-0.186l-0.118-0.12l-0.155,0.064
			c-2.316,0.96-5.155,1.447-8.439,1.447c-3.035,0-5.809-0.487-8.247-1.449l-0.342-0.135v0.367v0.371v0.147l0.128,0.072
			c1.904,1.057,2.87,3.415,2.87,7.008v71.556c-3.338,0.704-6.749,1.061-10.14,1.061c-8.073,0-15.201-2.412-21.186-7.169
			c-6.463-5.112-9.74-11.712-9.74-19.619c0-5.96,2.033-11.107,6.042-15.299c4.008-4.189,9.06-6.313,15.015-6.313
			c3.985,0,7.633,1.533,10.842,4.558c3.206,3.018,4.831,6.565,4.831,10.542c0,7.302-2.396,10.852-7.324,10.852
			c-2.13,0-3.367-0.766-3.774-2.339c1.356-0.436,2.044-1.364,2.044-2.762c0-1.971-0.99-3.013-2.862-3.013
			c-2.268,0-3.417,1.327-3.417,3.944c0,1.911,0.808,3.559,2.401,4.897c1.584,1.323,3.354,1.993,5.259,1.993
			c3.28,0,5.905-1.407,7.8-4.183c1.874-2.745,2.823-5.845,2.823-9.214c0-4.988-1.899-9.319-5.645-12.873
			c-3.741-3.55-8.164-5.35-13.146-5.35c-6.713,0-12.48,2.428-17.139,7.216c-4.662,4.779-7.025,10.605-7.025,17.316
			c0,9.794,3.775,17.966,11.22,24.288c6.942,6.065,15.55,9.143,25.583,9.143c2.474,0,5.009-0.18,7.54-0.534v54.001
			c0,3.472-0.969,5.83-2.879,7.01l-0.119,0.073v0.14v0.189v0.35l0.331-0.113c2.434-0.829,5.212-1.25,8.258-1.25
			c3.295,0,6.138,0.42,8.451,1.249l0.151,0.055l0.112-0.116l0.183-0.189l0.221-0.229l-0.274-0.161
			c-2.016-1.182-3.038-3.539-3.038-7.007v-56.719c6.915-2.517,12.874-6.058,17.721-10.529v26.277c0,3.475-0.974,5.833-2.894,7.011
			l-0.197,0.121l0.105,0.206l0.189,0.37l0.105,0.205l0.213-0.088c2.3-0.949,5.073-1.43,8.243-1.43c3.296,0,6.135,0.48,8.439,1.43
			l0.345,0.142v-0.373v-0.188v-0.131l-0.107-0.074c-1.874-1.299-2.824-3.724-2.824-7.208v-91.72c0-3.481,0.95-5.907,2.824-7.207
			l0.107-0.075v-0.131v-0.186V107.647L392.73,107.647z"/>
	</g>
</g>
<text transform="matrix(1 0 0 1 201.709 298.6978)" font-family="'LHFBillhead1910'" font-size="51.7028">Est. 1842</text>
</svg>
