<?xml version="1.0" encoding="utf-8"?>
<!-- Generator: Adobe Illustrator 16.0.4, SVG Export Plug-In . SVG Version: 6.00 Build 0)  -->
<!DOCTYPE svg PUBLIC "-//W3C//DTD SVG 1.1//EN" "http://www.w3.org/Graphics/SVG/1.1/DTD/svg11.dtd">
<svg version="1.1" id="Layer_1" xmlns="http://www.w3.org/2000/svg" xmlns:xlink="http://www.w3.org/1999/xlink" x="0px" y="0px"
	 width="612px" height="612px" viewBox="0 0 612 612" enable-background="new 0 0 612 612" xml:space="preserve">
<rect fill="#EAEAE4" width="612" height="612"/>
<g>
	<path d="M483.415,233.593c0,0,2.223-4.831,2.35-13.066c0.136-8.232,1.363-9.856,3.942-11.477c0,0-5.317-1.956-9.999,5.036
		c0,0,3.281-8.737,10.869-5.157c0,0-3.337,1.264-3.056,6.644c0.299,5.533-1.329,11.646-1.596,13.627c0,0,3.654-8.93,9.563-12.245
		c-3.192,2.372-8.373,15.127-8.373,15.127c-0.537,1.264-18.026,44.069-39.489,45.659c0,0,19.823-3.998,38.92-46.307
		c0,0,1.684-3.462,5.165-10.639c0,0-2.841,2.797-4.78,7.407C485.004,232.803,483.415,233.593,483.415,233.593"/>
	<path d="M259.138,248.689c72.958-16.254,138.732,55.755,194.647,32.265c15.977-6.704,15.374-17.049,15.251-18.476
		c0,0,1.299-1.939,1.202,1.261c-0.087,3.202-3.371,13.214-16.453,18.706C387.146,310.433,347.186,236.167,259.138,248.689"/>
	<path d="M480.781,217.987c0,0-0.509-4.069-4.558-2.363c0,0,1.053-1.896,3.332-0.822
		C481.732,215.84,480.781,217.987,480.781,217.987"/>
	<path d="M333.813,243.93c64.982-33.307,100.469-17.996,105.979-15.458c5.511,2.534,7.549,7.195,16.512,3.873
		c9.186-3.396,9.93-11.109,18.088-14.121c6.096-2.256,6.142,4.743,6.142,4.743s0.337-1.675-0.276-3.327
		c-0.61-1.652-2.252-4.052-8.635-1.688c-6.402,2.366-9.529,11.2-16.175,13.877c-7.637,3.07-11.455-2.343-17.421-5.086
		C432.067,223.997,400.037,204.148,333.813,243.93"/>
	<path d="M468.912,239.439c0,0,4.182-1.406,6.524-8.797c1.694-5.398,5.162-6.369,5.162-6.369s-1.646-0.684-3.364,1.451
		c-1.533,1.908-2.652,2.281-3.551,4.25C472.778,231.934,473.682,235.047,468.912,239.439"/>
	<path d="M472.193,238.478c0,0,1.891-1.197,3.729-6.519c1.513-4.376,2.216-3.328,2.216-3.328s-0.09,0.606,0.741,0.667
		c0.841,0.064,0.753,2.039,0.292,2.466c-0.472,0.422-0.55,1.392-3.042,1.436c0,0,0.187-0.693,1.368-0.884
		c1.175-0.187-0.378-1.178-1.022-0.558c-0.647,0.621-0.122,3.089-3.841,7.061C471.91,239.583,471.286,239.251,472.193,238.478"/>
	<path d="M480.154,230.207c0,0,0.523,1.747-2.685,4.066C477.47,234.272,481.011,233.519,480.154,230.207"/>
	<path d="M479.264,228.289c0,0,1.155,0.065,1.584,0.911C480.848,229.199,480.831,227.454,479.264,228.289"/>
	<path d="M449.78,246.787c0,0-3.604-6.599-14.316-12.072C424.751,229.237,443.206,238.699,449.78,246.787"/>
	<path d="M442.911,241.977c0,0-9.197-9.965-23.385-11.978C419.526,230,434.684,234.413,442.911,241.977"/>
	<path d="M436.683,239.362c0,0-9.605-10.158-31.805-9.876C404.878,229.486,424.719,230.499,436.683,239.362"/>
	<path d="M429.896,239.531c0,0-11.451-11.309-36.214-8.245C393.682,231.286,414.577,229.736,429.896,239.531"/>
	<path d="M424.549,240.668c0,0-13.402-12.081-38.772-7.038C385.776,233.631,405.854,229.876,424.549,240.668"/>
	<path d="M418.239,241.667c0,0-16.551-11.085-39.135-5.987C379.104,235.679,399.151,232.523,418.239,241.667"/>
	<path d="M413.923,243.764c0,0-13.545-10.188-40.306-5.976C373.617,237.789,394.909,235.508,413.923,243.764"/>
	<path d="M410.663,245.806c0,0-17.56-10.212-42.938-5.666C367.725,240.14,388.839,237.168,410.663,245.806"/>
	<path d="M362.516,242.318c0,0,23.802-5.211,43.778,6.354C406.294,248.671,385.783,239.97,362.516,242.318"/>
	<path d="M357.977,243.831c0,0,24.112-3.912,42.788,7.053C400.765,250.883,383.828,242.786,357.977,243.831"/>
	<path d="M396.618,253.672c0,0-13.785-9.936-42.945-8.83C353.673,244.842,383.952,246.079,396.618,253.672"/>
	<path d="M348.471,245.674c0,0,25.501-1.751,42.892,11.867C391.362,257.542,377.214,247.743,348.471,245.674"/>
	<path d="M389.463,262.339c0,0-12.12-13.567-45.891-16.353C343.572,245.987,374.755,250.569,389.463,262.339"/>
	<path d="M385.795,265.279c0,0-17.188-15.523-47.169-18.889C338.626,246.39,365.82,251.03,385.795,265.279"/>
	<path d="M384.383,265.613c0,0-18.148-15.906-55.475-24.449C328.908,241.164,364.558,251.14,384.383,265.613"/>
	<path d="M379.181,265.151c0,0-22.167-15.337-59.707-24.714C319.474,240.437,357.728,251.744,379.181,265.151"/>
	<path d="M372.613,264.008c0,0-17.681-13.151-62.947-24.607C309.666,239.401,349.334,251.098,372.613,264.008"/>
	<path d="M365.343,262.67c0,0-29.616-18.905-71.585-24.526C293.758,238.145,333.281,244.579,365.343,262.67"/>
	<path d="M265.955,185.896c38.122,31.681,71.25,29.113,123.104,27.016c52.171-2.113,59.761,15.229,60.412,16.991
		c0.654,1.765,0.185,3.193,0.185,3.193l0.877,0.132c0,0,0.286-1.946-0.311-3.557c-0.594-1.621-15.203-23.948-57.644-20.782
		c-35.89,2.677-80.656,13.64-127.537-23.656"/>
	<path d="M374.412,219.222c0,0-8.622,0.65-13.614-0.593C360.798,218.629,364.425,220.994,374.412,219.222"/>
	<path d="M384.931,215.537c0,0-17.801,2.944-32.027,0.514C352.903,216.05,365.527,219.899,384.931,215.537"/>
	<path d="M390.218,218.935c0,0-22.288,4.104-44.394,1.073C345.824,220.007,364.134,224.633,390.218,218.935"/>
	<path d="M385.744,216.826c0,0-27.89,4.367-46.123,1.149C339.621,217.975,356.378,222.808,385.744,216.826"/>
	<path d="M381.544,208.613c0,0-32.887,4.136-53.107,0.142C328.437,208.755,344.139,214.073,381.544,208.613"/>
	<path d="M371.267,207.748c0,0-28.73,3.688-58.328-3.365C312.938,204.383,342.451,213.044,371.267,207.748"/>
	<path d="M226.514,246.836c-28.396-24.618-72.117-36.895-122.875-19.521c-50.069,17.143-54.888,50.527-45.528,69.588
		c2.19,4.446,3.344,2.693,1.431-1.858c-1.913-4.562-18.693-45.731,44.171-66.811c49.897-16.732,92.688-5.273,120.833,18.202
		L226.514,246.836z"/>
	<path d="M268.125,366.575c4.183,16.346-2.268,34.05-24.079,43.21c-50.357,21.146-95.206-35.519-47.688-55.475
		c42.706-17.935,70.917,25.391,108.086,15.01c0,0,1.796,0.152,0.258,0.619c-35.024,10.644-70.143-30.802-108.897-14.526
		c-45.05,18.923-1.83,74.814,48.035,53.879c21.738-9.133,28.084-26.871,23.725-43.141L268.125,366.575z"/>
	<path d="M88.135,234.458c0,0-11.401,6.881-8.772,13.152C80.634,250.645,76.874,243.188,88.135,234.458"/>
	<path d="M56.69,270.818c0,0-2.655,13.051,3.74,15.364C63.529,287.299,55.493,285.018,56.69,270.818"/>
	<path d="M95.053,231.487c0,0-12.368,4.974-10.759,11.582C85.063,246.275,82.542,238.304,95.053,231.487"/>
	<path d="M146.152,220.129c0,0-13.27,1.164-13.665,7.949C132.306,231.37,132.199,223.02,146.152,220.129"/>
	<path d="M153.674,220.504c0,0-13.292-0.967-14.76,5.663C138.203,229.388,139.438,221.123,153.674,220.504"/>
	<path d="M217.993,417.858c0,0,33.269,10.748,50.183-21.752C268.176,396.106,251.422,421.958,217.993,417.858"/>
	<path d="M197.562,418.614c0,0,24.824,12.751,53.292,0.795c30.638-12.866,31.526-40.01,31.526-40.01s1.416,28.495-31.884,42.474
		C220.357,434.538,197.562,418.614,197.562,418.614"/>
	<path d="M195.729,419.404c0,0-1.743-1.35-0.629-2.252c1.115-0.905,2.285,0.267,2.285,0.267s-1.994-2.92-3.485-1.034
		C192.495,418.163,195.729,419.404,195.729,419.404"/>
	<path d="M192.502,416.629c0,0-1.393-1.075-0.502-1.803c0.891-0.716,1.829,0.214,1.829,0.214s-1.593-2.328-2.787-0.822
		C189.911,415.644,192.502,416.629,192.502,416.629"/>
	<path d="M189.856,414.133c0,0-1.11-0.863-0.404-1.448c0.719-0.573,1.468,0.175,1.468,0.175s-1.279-1.863-2.233-0.663
		C187.784,413.334,189.856,414.133,189.856,414.133"/>
	<path d="M187.054,411.287c0,0-0.895-0.691-0.321-1.147c0.572-0.463,1.169,0.129,1.169,0.129s-1.017-1.492-1.781-0.524
		C185.396,410.653,187.054,411.287,187.054,411.287"/>
	<g>
		<g>
			<path fill="#231F20" d="M132.308,340.694l0.109-0.061l-0.134,0.016l-0.157-0.291l0.089-0.063
				c1.515-1.078,2.582-2.822,3.172-5.184c3.434-14.29,6.869-28.526,10.303-42.71c0.842-3.463,0.258-5.728-1.736-6.733l-0.107-0.054
				l0.222-0.478l0.101,0.024c1.189,0.291,2.513,0.438,3.934,0.438c0.781,0,1.61-0.044,2.464-0.132
				c2.493-0.258,4.646-0.806,6.399-1.628l0.109-0.051l0.233,0.446l-0.085,0.064c-2.008,1.511-2.6,3.941-1.757,7.222
				c3.392,13.444,6.783,26.934,10.175,40.47c0.587,2.229,1.649,3.742,3.156,4.493l0.11,0.056l-0.23,0.474l-0.104-0.033
				c-1.583-0.512-3.153-0.771-4.665-0.771c-2.124,0-4.206,0.513-6.188,1.521l-0.11,0.057l-0.234-0.448l0.079-0.064
				c1.239-1.012,1.355-3.277,0.345-6.735l-1.374-4.554c-3.967,0.346-7.895,0.751-11.678,1.206l-1.405,4.615
				c-1.093,3.841-1.021,6.166,0.214,6.909l0.096,0.059l-0.217,0.462l-0.109-0.019c-1.135-0.342-2.31-0.516-3.49-0.516
				c-2.352,0-4.829,0.688-7.363,2.044l-0.109,0.059L132.308,340.694z M146.503,319.363c2.633-0.304,5.35-0.584,8.081-0.835
				c-1.338-5.315-2.677-10.622-4.015-15.921C149.214,308.185,147.859,313.77,146.503,319.363z"/>
			<path fill="#FFFFFF" d="M157.021,283.951c0.042,0.083,0.086,0.166,0.129,0.246c-2.061,1.551-2.662,4.008-1.803,7.354
				c3.392,13.443,6.783,26.933,10.175,40.469c0.601,2.282,1.674,3.804,3.222,4.575c-0.043,0.09-0.087,0.178-0.129,0.265
				c-1.605-0.519-3.173-0.777-4.704-0.777c-2.155,0-4.237,0.513-6.245,1.535c-0.043-0.083-0.086-0.166-0.129-0.248
				c1.287-1.051,1.416-3.34,0.386-6.867c-0.467-1.553-0.936-3.103-1.403-4.652c-3.955,0.344-7.909,0.749-11.864,1.226
				c-0.477,1.563-0.952,3.127-1.429,4.693c-1.117,3.922-1.027,6.272,0.27,7.053c-0.043,0.093-0.086,0.185-0.129,0.274
				c-1.151-0.347-2.327-0.521-3.526-0.521c-2.379,0-4.854,0.684-7.422,2.059c-0.043-0.078-0.086-0.156-0.129-0.237
				c1.546-1.101,2.62-2.849,3.221-5.255c3.435-14.291,6.869-28.527,10.304-42.711c0.859-3.535,0.258-5.836-1.802-6.874
				c0.042-0.093,0.086-0.182,0.129-0.274c1.214,0.296,2.536,0.441,3.964,0.441c0.793,0,1.618-0.044,2.477-0.132
				C153.07,285.333,155.217,284.796,157.021,283.951 M146.34,319.508c2.8-0.324,5.601-0.612,8.401-0.868
				c-1.391-5.526-2.783-11.044-4.174-16.552C149.158,307.886,147.75,313.691,146.34,319.508 M157.133,283.622l-0.218,0.103
				c-1.741,0.816-3.88,1.361-6.36,1.618c-0.85,0.087-1.674,0.131-2.451,0.131c-1.412,0-2.725-0.146-3.905-0.434l-0.2-0.049
				l-0.086,0.188l-0.062,0.134l-0.066,0.141l-0.1,0.219l0.215,0.108c1.935,0.975,2.498,3.193,1.671,6.592
				c-3.444,14.224-6.911,28.594-10.304,42.712c-0.582,2.329-1.632,4.05-3.123,5.109l-0.179,0.128l0.103,0.193l0.107,0.197
				l0.119,0.216l0.242-0.072c2.516-1.347,4.974-2.029,7.304-2.029c1.168,0,2.331,0.172,3.454,0.51l0.206,0.062l0.092-0.195
				l0.13-0.275l0.094-0.204l-0.192-0.115c-1.182-0.711-1.235-2.989-0.158-6.771l0.103-0.336l1.278-4.197
				c3.725-0.446,7.589-0.846,11.492-1.188l0.482,1.599l0.862,2.859c0.994,3.403,0.892,5.625-0.305,6.602l-0.158,0.129l0.094,0.181
				l0.129,0.247l0.114,0.221l0.221-0.113c1.965-1,4.028-1.508,6.132-1.508c1.499,0,3.056,0.258,4.627,0.766l0.207,0.066l0.095-0.196
				l0.055-0.111l0.075-0.154l0.106-0.222l-0.22-0.109c-1.474-0.734-2.514-2.22-3.091-4.415
				c-3.392-13.533-6.783-27.023-10.175-40.467c-0.829-3.229-0.253-5.615,1.711-7.093l0.17-0.128l-0.1-0.188l-0.127-0.243
				L157.133,283.622L157.133,283.622z M146.667,319.219c1.302-5.372,2.603-10.735,3.905-16.092c1.285,5.089,2.57,10.186,3.855,15.29
				C151.806,318.659,149.199,318.928,146.667,319.219L146.667,319.219z"/>
		</g>
	</g>
	<g>
		<g>
			<path fill="#231F20" d="M190.781,337.454c-0.406-1.292-1.711-1.948-3.88-1.948l-0.121,0.001
				c-4.368,0.05-8.744,0.166-13.006,0.345c-1.774,0.075-3.493,0.453-5.11,1.123l-0.106,0.044l-0.234-0.457l0.098-0.06
				c1.33-0.815,2.004-2.374,2.004-4.635v-43.785c0-2.258-0.671-3.745-1.995-4.419l-0.11-0.056l0.23-0.473l0.105,0.035
				c1.669,0.554,3.334,0.834,4.949,0.834c2.001,0,3.989-0.431,5.91-1.281l0.11-0.048l0.23,0.459l-0.088,0.062
				c-1.24,0.866-1.869,2.413-1.869,4.597v40.216c3.596-0.116,7.277-0.188,10.944-0.213c2.279-0.016,4.068-0.67,5.319-1.945
				l0.064-0.064l0.469,0.236l-0.083,0.118c-2.547,3.646-3.667,7.393-3.328,11.137l0.008,0.087l-0.407,0.202L190.781,337.454z"/>
			<path fill="#FFFFFF" d="M179.565,282.836c0.042,0.085,0.086,0.17,0.129,0.256c-1.282,0.896-1.922,2.466-1.922,4.699
				c0,13.449,0,26.897,0,40.345c3.69-0.12,7.38-0.191,11.07-0.217c2.317-0.016,4.12-0.67,5.407-1.982
				c0.087,0.044,0.172,0.088,0.258,0.131c-2.577,3.688-3.692,7.438-3.35,11.22c-0.086,0.041-0.171,0.085-0.258,0.129
				c-0.422-1.346-1.754-2.036-4-2.036c-0.041,0-0.082,0.001-0.123,0.001c-4.336,0.05-8.673,0.163-13.01,0.345
				c-1.803,0.076-3.521,0.456-5.152,1.133c-0.043-0.083-0.086-0.165-0.129-0.251c1.375-0.843,2.063-2.422,2.063-4.741
				c0-14.595,0-29.19,0-43.785c0-2.317-0.688-3.83-2.063-4.53c0.043-0.087,0.086-0.175,0.129-0.265
				c1.688,0.56,3.352,0.841,4.989,0.841C175.631,284.128,177.618,283.698,179.565,282.836 M179.684,282.511l-0.219,0.097
				c-1.905,0.843-3.876,1.271-5.859,1.271c-1.602,0-3.253-0.279-4.91-0.828l-0.209-0.069l-0.095,0.199l-0.127,0.262l-0.109,0.222
				l0.22,0.112c1.278,0.651,1.927,2.101,1.927,4.308v43.785c0,2.214-0.654,3.737-1.944,4.528l-0.195,0.119l0.103,0.205l0.105,0.205
				l0.025,0.05l0.106,0.204l0.212-0.089c1.603-0.664,3.308-1.039,5.067-1.113c4.26-0.179,8.635-0.295,13.002-0.345l0.12-0.001
				c2.108,0,3.374,0.626,3.761,1.861l0.088,0.281l0.263-0.134l0.059-0.029c0.065-0.033,0.129-0.065,0.194-0.097l0.157-0.075
				l-0.016-0.173c-0.337-3.715,0.775-7.434,3.306-11.054l0.166-0.237l-0.259-0.13l-0.152-0.077l-0.105-0.053l-0.163-0.083
				l-0.128,0.131c-1.226,1.25-2.986,1.892-5.23,1.907c-3.625,0.025-7.263,0.095-10.819,0.209v-40.087
				c0-2.141,0.611-3.653,1.815-4.494l0.177-0.124l-0.097-0.193l-0.057-0.112l-0.072-0.143L179.684,282.511L179.684,282.511z"/>
		</g>
	</g>
	<g>
		<g>
			<path fill="#231F20" d="M205.35,336.534c-1.809-0.799-3.676-1.203-5.549-1.203c-1.731,0-3.517,0.346-5.305,1.028l-0.107,0.04
				l-0.187-0.375l0.054-0.146c1.33-0.821,2.004-2.34,2.004-4.513V287.58c0-2.26-0.673-3.789-2-4.542l-0.103-0.059l0.228-0.457
				l0.1,0.028c1.257,0.351,2.81,0.613,4.614,0.779c0.899,0.074,2.004,0.111,3.283,0.111c0.504,0,1.037-0.005,1.597-0.017
				c2.309,0.058,3.784,0.106,4.431,0.127l0.341,0.011c4.718,0.159,8.476,1.852,11.169,5.033c2.412,2.796,3.635,6.227,3.635,10.194
				c0,4.041-1.223,7.465-3.635,10.176c-2.53,2.888-5.9,4.352-10.016,4.352c-0.21,0-0.422-0.003-0.636-0.011
				c-1.846-0.063-3.689-0.117-5.535-0.162v18.329c0,2.183,0.628,3.729,1.868,4.593l0.089,0.062l-0.231,0.455L205.35,336.534z
				 M203.732,305.45c1.849,0.045,3.698,0.1,5.545,0.163c0.117,0.004,0.233,0.006,0.347,0.006c2.02,0,3.625-0.654,4.77-1.945
				c1.218-1.372,1.836-3.047,1.836-4.979c0-1.936-0.554-3.624-1.647-5.015c-1.345-1.571-3.134-2.408-5.314-2.482
				c-1.845-0.063-3.691-0.118-5.537-0.163V305.45z"/>
			<path fill="#FFFFFF" d="M194.451,282.67c1.288,0.359,2.834,0.617,4.637,0.783c0.922,0.076,2.02,0.111,3.294,0.111
				c0.506,0,1.039-0.005,1.6-0.017c2.92,0.073,4.508,0.131,4.766,0.138c4.723,0.159,8.415,1.845,11.077,4.988
				c2.404,2.788,3.605,6.169,3.605,10.113c0,4.035-1.201,7.393-3.604,10.093c-2.532,2.89-5.84,4.31-9.923,4.31
				c-0.209,0-0.419-0.003-0.632-0.011c-1.889-0.064-3.775-0.119-5.664-0.165c0,6.152,0,12.306,0,18.457
				c0,2.238,0.641,3.802,1.922,4.695c-0.043,0.085-0.086,0.168-0.129,0.253c-1.832-0.809-3.698-1.214-5.6-1.214
				c-1.754,0-3.537,0.345-5.35,1.036c-0.042-0.087-0.086-0.172-0.129-0.258c1.375-0.85,2.063-2.388,2.063-4.619
				c0-14.595,0-29.19,0-43.786c0-2.318-0.688-3.87-2.063-4.651C194.365,282.841,194.409,282.755,194.451,282.67 M209.625,305.744
				c2.063,0,3.685-0.659,4.863-1.987c1.245-1.402,1.867-3.086,1.867-5.062c0-1.972-0.558-3.671-1.674-5.092
				c-1.373-1.604-3.177-2.454-5.408-2.53c-1.888-0.064-3.777-0.12-5.666-0.166c0,4.889,0,9.777,0,14.664
				c1.889,0.046,3.778,0.102,5.666,0.166C209.392,305.742,209.509,305.744,209.625,305.744 M194.319,282.374l-0.092,0.186
				l-0.063,0.126l-0.066,0.132l-0.104,0.211l0.205,0.117c1.285,0.73,1.937,2.222,1.937,4.434v43.786
				c0,2.127-0.654,3.609-1.945,4.406l-0.194,0.12l0.102,0.204l0.044,0.087l0.083,0.168l0.1,0.207l0.214-0.082
				c1.774-0.677,3.544-1.02,5.261-1.02c1.855,0,3.706,0.401,5.499,1.192l0.217,0.096l0.107-0.211l0.064-0.126l0.065-0.127
				l0.098-0.194l-0.178-0.124c-1.204-0.84-1.815-2.351-1.815-4.49v-18.201c1.802,0.045,3.603,0.098,5.406,0.159
				c0.215,0.008,0.428,0.011,0.64,0.011c4.154,0,7.556-1.479,10.111-4.395c2.432-2.734,3.666-6.186,3.666-10.258
				c0-3.998-1.233-7.456-3.666-10.276c-2.716-3.207-6.504-4.915-11.258-5.075l-0.34-0.011c-0.646-0.021-2.122-0.069-4.427-0.127
				c-0.57,0.011-1.102,0.017-1.606,0.017c-1.275,0-2.377-0.037-3.273-0.11c-1.795-0.166-3.34-0.426-4.59-0.775L194.319,282.374
				L194.319,282.374z M203.857,305.328v-14.164c1.803,0.044,3.606,0.098,5.408,0.16c2.144,0.073,3.902,0.895,5.227,2.443
				c1.068,1.36,1.614,3.021,1.614,4.929c0,1.9-0.607,3.547-1.804,4.896c-1.12,1.263-2.693,1.903-4.676,1.903
				c-0.113,0-0.227-0.002-0.343-0.006C207.475,305.426,205.666,305.373,203.857,305.328L203.857,305.328z"/>
		</g>
	</g>
	<g>
		<g>
			<path fill="#231F20" d="M251.417,339.787c-2.146-1.106-4.37-1.667-6.61-1.667c-1.39,0-2.819,0.216-4.246,0.643l-0.102,0.03
				l-0.224-0.47l0.098-0.058c1.219-0.718,1.837-2.183,1.837-4.355v-27.565c-3.208-0.29-6.417-0.557-9.625-0.804v27.544
				c0,2.179,0.63,3.755,1.872,4.683l0.084,0.063l-0.19,0.369l-0.153,0.029c-2.044-1.01-4.16-1.521-6.288-1.521
				c-1.494,0-3.031,0.253-4.567,0.75l-0.103,0.033l-0.228-0.469l0.103-0.058c1.326-0.744,1.999-2.224,1.999-4.397v-43.928
				c0-2.178-0.676-3.748-2.008-4.666l-0.09-0.062l0.233-0.455l0.108,0.048c2.205,0.991,4.394,1.493,6.506,1.493
				c1.465,0,2.929-0.242,4.351-0.719l0.104-0.035l0.227,0.469l-0.099,0.059c-1.235,0.732-1.861,2.206-1.861,4.381v8.769
				c3.208,0.247,6.417,0.515,9.625,0.803v-8.748c0-2.179-0.623-3.764-1.85-4.708l-0.083-0.064l0.232-0.447l0.109,0.052
				c2.312,1.097,4.606,1.653,6.816,1.653c1.359,0,2.719-0.21,4.041-0.625l0.103-0.032l0.228,0.474l-0.103,0.058
				c-1.244,0.702-1.875,2.161-1.875,4.335v43.928c0,2.184,0.636,3.775,1.889,4.731l0.085,0.065l-0.239,0.445L251.417,339.787z"/>
			<path fill="#FFFFFF" d="M223.265,283.62c2.23,1.001,4.417,1.503,6.558,1.503c1.485,0,2.949-0.242,4.391-0.725
				c0.043,0.09,0.087,0.18,0.129,0.267c-1.281,0.76-1.922,2.255-1.922,4.488c0,2.962,0,5.923,0,8.885
				c3.292,0.253,6.583,0.527,9.875,0.824c0-2.962,0-5.923,0-8.885c0-2.233-0.634-3.834-1.898-4.808
				c0.042-0.081,0.086-0.164,0.129-0.247c2.339,1.109,4.629,1.666,6.87,1.666c1.378,0,2.737-0.21,4.078-0.631
				c0.044,0.09,0.085,0.182,0.129,0.271c-1.294,0.73-1.938,2.213-1.938,4.444c0,14.642,0,29.285,0,43.928
				c0,2.234,0.645,3.844,1.938,4.831c-0.044,0.081-0.085,0.164-0.129,0.244c-2.173-1.12-4.396-1.681-6.667-1.681
				c-1.408-0.001-2.835,0.215-4.281,0.647c-0.043-0.09-0.087-0.18-0.129-0.27c1.265-0.744,1.898-2.231,1.898-4.463
				c0-9.228,0-18.455,0-27.679c-3.292-0.298-6.583-0.571-9.875-0.825c0,9.227,0,18.455,0,27.679c0,2.232,0.641,3.825,1.922,4.783
				c-0.042,0.083-0.086,0.166-0.129,0.249c-2.069-1.021-4.184-1.534-6.343-1.534c-1.514,0-3.048,0.252-4.605,0.756
				c-0.043-0.088-0.087-0.178-0.129-0.265c1.374-0.771,2.062-2.273,2.062-4.507c0-14.642,0-29.285,0-43.928
				c0-2.231-0.688-3.822-2.062-4.769C223.178,283.788,223.222,283.703,223.265,283.62 M223.151,283.295l-0.109,0.21l-0.13,0.253
				l-0.099,0.195l0.18,0.124c1.296,0.893,1.954,2.428,1.954,4.562v43.928c0,2.125-0.651,3.568-1.935,4.289l-0.205,0.115l0.102,0.211
				l0.123,0.254l0.096,0.194l0.212-0.054c1.524-0.494,3.047-0.744,4.528-0.744c2.109,0,4.206,0.508,6.232,1.509l0.22,0.108
				l0.113-0.218l0.043-0.083l0.087-0.168l0.095-0.188l-0.168-0.126c-1.209-0.904-1.822-2.445-1.822-4.583v-27.409
				c3.217,0.249,6.369,0.513,9.375,0.784v27.451c0,2.125-0.597,3.555-1.775,4.247l-0.196,0.115l0.096,0.206l0.087,0.183l0.043,0.089
				l0.092,0.193l0.205-0.062c1.415-0.423,2.832-0.637,4.209-0.637c2.22,0,4.424,0.556,6.552,1.653l0.217,0.111l0.117-0.214
				l0.071-0.134l0.059-0.111l0.102-0.188l-0.17-0.13c-1.221-0.932-1.84-2.489-1.84-4.632v-43.928c0-2.126,0.609-3.548,1.812-4.227
				l0.205-0.116l-0.104-0.212l-0.062-0.132l-0.066-0.14l-0.095-0.193l-0.205,0.064c-1.31,0.412-2.657,0.62-4.003,0.62
				c-2.192,0-4.467-0.552-6.763-1.642l-0.218-0.104l-0.111,0.215l-0.066,0.126l-0.063,0.12l-0.096,0.186l0.166,0.127
				c1.195,0.92,1.801,2.471,1.801,4.609v8.611c-3.094-0.278-6.246-0.541-9.375-0.782v-8.653c0-2.127,0.605-3.565,1.799-4.273
				l0.198-0.117l-0.1-0.207l-0.045-0.092l-0.083-0.173l-0.095-0.199l-0.21,0.07c-1.409,0.472-2.859,0.712-4.311,0.712
				c-2.095,0-4.266-0.499-6.455-1.481L223.151,283.295L223.151,283.295z"/>
		</g>
	</g>
	<g>
		<g>
			<path fill="#231F20" d="M389.872,355.63c-2.257-1.19-4.6-1.794-6.965-1.794c-1.276,0-2.586,0.176-3.893,0.522l-0.102,0.026
				l-0.227-0.479l0.111-0.055c1.323-0.663,1.994-2.103,1.994-4.278v-43.927c0-2.176-0.678-3.787-2.014-4.787l-0.086-0.065
				l0.206-0.385l0.141-0.003c2.402,1.22,4.783,1.838,7.078,1.838c1.27,0,2.541-0.189,3.777-0.563l0.104-0.031l0.226,0.474
				l-0.103,0.058c-1.232,0.692-1.857,2.143-1.857,4.312v43.928c0,2.187,0.63,3.786,1.873,4.756l0.082,0.064l-0.236,0.447
				L389.872,355.63z"/>
			<path fill="#FFFFFF" d="M378.982,300.517c2.431,1.234,4.81,1.852,7.135,1.852c1.288,0,2.559-0.189,3.813-0.568
				c0.043,0.092,0.085,0.182,0.129,0.271c-1.28,0.719-1.921,2.189-1.921,4.421c0,14.643,0,29.285,0,43.928
				c0,2.234,0.641,3.855,1.921,4.854c-0.044,0.083-0.086,0.163-0.129,0.244c-2.285-1.206-4.628-1.809-7.023-1.809
				c-1.293,0-2.601,0.175-3.925,0.526c-0.043-0.093-0.085-0.185-0.129-0.274c1.375-0.688,2.063-2.155,2.063-4.39
				c0-14.641,0-29.284,0-43.927c0-2.231-0.688-3.857-2.063-4.887C378.897,300.678,378.939,300.598,378.982,300.517 M378.877,300.183
				l-0.115,0.217l-0.031,0.06l-0.097,0.181l-0.103,0.19l0.173,0.129c1.303,0.975,1.963,2.552,1.963,4.687v43.927
				c0,2.125-0.647,3.526-1.926,4.166l-0.221,0.111l0.108,0.222c0.036,0.074,0.071,0.15,0.106,0.227l0.088,0.19l0.224-0.011
				c1.296-0.344,2.596-0.518,3.86-0.518c2.345,0,4.668,0.599,6.907,1.779l0.221,0.117l0.116-0.221l0.068-0.129l0.061-0.115
				l0.099-0.186l-0.166-0.129c-1.21-0.944-1.824-2.512-1.824-4.657v-43.928c0-2.121,0.604-3.535,1.793-4.203l0.206-0.116
				l-0.104-0.212l-0.123-0.259l-0.092-0.196l-0.211,0.054c-1.225,0.37-2.483,0.558-3.741,0.558c-2.274,0-4.637-0.614-7.021-1.825
				L378.877,300.183L378.877,300.183z"/>
		</g>
	</g>
	<g>
		<g>
			<path fill="#231F20" d="M430.842,359.27c-2.193-0.981-4.372-1.479-6.475-1.479c-1.477,0-2.95,0.245-4.382,0.729l-0.104,0.035
				l-0.227-0.469l0.098-0.06c1.214-0.732,1.83-2.164,1.83-4.256v-32.935c-3.17,6.717-6.341,13.413-9.51,20.088l-0.117,0.247
				l-0.11-0.25c-3.181-7.234-6.36-14.487-9.541-21.756v33.021c0,2.098,0.629,3.601,1.869,4.467l0.091,0.063l-0.238,0.453
				l-0.109-0.057c-2.201-1.128-4.483-1.699-6.784-1.699c-1.334,0-2.705,0.191-4.075,0.57l-0.1,0.028l-0.23-0.481l0.116-0.053
				c1.32-0.597,1.989-2.044,1.989-4.3v-44.058c0-2.091-0.677-3.649-2.012-4.631l-0.087-0.064l0.237-0.446l0.108,0.053
				c1.797,0.886,4.297,1.497,7.43,1.814c1.242,0.161,2.388,0.242,3.407,0.242c1.548,0,2.854-0.187,3.879-0.555l0.167-0.06v0.509
				l-0.064,0.036c-1.14,0.638-1.759,2.1-1.842,4.347c1.959,4.438,3.925,8.922,5.894,13.398c1.963-4.132,3.927-8.27,5.889-12.418
				c-0.093-2.2-0.705-3.772-1.832-4.612l-0.05-0.038v-0.52l0.18,0.087c1.71,0.829,4.165,1.365,7.296,1.592
				c0.867,0.062,1.696,0.094,2.464,0.094c1.994,0,3.662-0.212,4.959-0.629l0.163-0.052v0.497l-0.057,0.037
				c-1.168,0.76-1.76,2.247-1.76,4.42v44.058c0,2.183,0.593,3.702,1.763,4.519l0.054,0.037v0.516L430.842,359.27z"/>
			<path fill="#FFFFFF" d="M393.023,302.143c1.803,0.889,4.294,1.504,7.473,1.826c1.253,0.162,2.393,0.242,3.42,0.242
				c1.574,0,2.881-0.189,3.921-0.562c0,0.085,0,0.173,0,0.258c-1.186,0.663-1.821,2.145-1.906,4.451
				c2.006,4.576,4.009,9.145,6.015,13.704c2.001-4.214,4.005-8.435,6.006-12.665c-0.083-2.314-0.71-3.901-1.87-4.766
				c0-0.086,0-0.171,0-0.258c1.718,0.833,4.164,1.374,7.342,1.604c0.876,0.063,1.701,0.094,2.473,0.094
				c2.027,0,3.693-0.215,4.997-0.635c0,0.085,0,0.171,0,0.258c-1.211,0.788-1.816,2.293-1.816,4.525c0,14.685,0,29.37,0,44.058
				c0,2.233,0.605,3.776,1.816,4.621c0,0.086,0,0.171,0,0.258c-2.219-0.993-4.395-1.49-6.525-1.49c-1.496,0-2.97,0.245-4.422,0.735
				c-0.044-0.09-0.085-0.178-0.129-0.268c1.26-0.76,1.891-2.218,1.891-4.363c0-11.164,0-22.328,0-33.492
				c-3.249,6.886-6.499,13.75-9.748,20.592c-3.261-7.415-6.52-14.851-9.78-22.303c0,11.205,0,22.411,0,33.618
				c0,2.148,0.641,3.674,1.923,4.569c-0.044,0.083-0.085,0.163-0.129,0.246c-2.229-1.143-4.51-1.713-6.841-1.713
				c-1.352,0-2.722,0.191-4.108,0.575c-0.044-0.09-0.086-0.182-0.129-0.271c1.374-0.622,2.062-2.093,2.062-4.414
				c0-14.686,0-29.37,0-44.058c0-2.146-0.688-3.721-2.062-4.732C392.938,302.306,392.979,302.224,393.023,302.143 M392.918,301.812
				l-0.114,0.211l-0.082,0.156l-0.048,0.09l-0.102,0.191l0.174,0.127c1.302,0.957,1.961,2.481,1.961,4.531v44.058
				c0,2.202-0.645,3.61-1.916,4.187l-0.232,0.105l0.11,0.229l0.051,0.106l0.079,0.167l0.091,0.187l0.2-0.055
				c1.359-0.376,2.72-0.566,4.042-0.566c2.281,0,4.544,0.566,6.727,1.686l0.22,0.112l0.115-0.218l0.065-0.125l0.063-0.121
				l0.104-0.195l-0.181-0.127c-1.205-0.842-1.816-2.31-1.816-4.364v-32.423c3.101,7.086,6.2,14.156,9.302,21.208l0.22,0.501
				l0.234-0.494c3.091-6.508,6.182-13.036,9.272-19.584v32.377c0,2.045-0.596,3.441-1.77,4.149l-0.196,0.118l0.101,0.205
				l0.063,0.132l0.065,0.136l0.097,0.197l0.208-0.069c1.419-0.479,2.879-0.723,4.342-0.723c2.085,0,4.246,0.494,6.423,1.469
				l0.353,0.157v-0.386v-0.258v-0.131l-0.107-0.074c-1.134-0.791-1.709-2.277-1.709-4.416v-44.058c0-2.128,0.573-3.58,1.703-4.315
				l0.113-0.074v-0.136v-0.258v-0.343l-0.326,0.105c-1.284,0.414-2.939,0.623-4.921,0.623c-0.765,0-1.591-0.031-2.455-0.094
				c-3.114-0.226-5.554-0.757-7.25-1.58l-0.359-0.174v0.399v0.258v0.125l0.101,0.075c1.085,0.809,1.68,2.328,1.768,4.514
				c-1.914,4.047-3.831,8.084-5.745,12.115c-1.925-4.375-3.847-8.759-5.771-13.15c0.089-2.167,0.687-3.575,1.776-4.185l0.128-0.072
				v-0.146v-0.258v-0.355l-0.335,0.12c-1.012,0.364-2.302,0.548-3.836,0.548c-1.015,0-2.154-0.081-3.388-0.24
				c-3.125-0.317-5.61-0.923-7.395-1.802L392.918,301.812L392.918,301.812z"/>
		</g>
	</g>
	<g>
		<g>
			<path fill="#231F20" d="M444.75,359.944c-1.942-0.876-3.953-1.32-5.976-1.32c-1.595,0-3.237,0.276-4.881,0.821l-0.103,0.033
				l-0.229-0.468l0.103-0.058c1.326-0.754,1.999-2.239,1.999-4.415v-43.785c0-2.259-0.674-3.82-2.003-4.641l-0.099-0.061
				l0.231-0.449l0.101,0.033c1.294,0.426,2.847,0.753,4.614,0.971c1.202,0.141,2.707,0.212,4.471,0.212l0.404-0.001
				c2.45,0.095,3.962,0.142,4.54,0.159l0.231,0.007c4.752,0.142,8.509,1.743,11.166,4.761c2.413,2.688,3.638,6.057,3.638,10.01
				c0,4.053-1.223,7.539-3.635,10.361c-2.579,3.062-5.995,4.615-10.153,4.615c-0.165,0-0.331-0.002-0.499-0.007
				c-1.845-0.055-3.69-0.117-5.535-0.189v18.327c0,2.187,0.628,3.738,1.867,4.614l0.089,0.063l-0.234,0.454L444.75,359.944z
				 M443.136,328.841c1.848,0.072,3.695,0.135,5.543,0.188l0.279,0.004c2.046,0,3.674-0.68,4.838-2.02
				c1.22-1.403,1.838-3.097,1.838-5.032c0-1.933-0.554-3.604-1.646-4.968c-1.339-1.527-3.129-2.335-5.316-2.398
				c-1.845-0.055-3.69-0.117-5.535-0.188V328.841z"/>
			<path fill="#FFFFFF" d="M433.854,305.753c1.287,0.424,2.832,0.753,4.638,0.976c1.196,0.14,2.693,0.213,4.487,0.213
				c0.133,0,0.268,0,0.404-0.001c2.92,0.113,4.509,0.157,4.767,0.166c4.721,0.141,8.414,1.695,11.076,4.719
				c2.404,2.678,3.606,5.978,3.606,9.927c0,4.03-1.202,7.469-3.604,10.28c-2.558,3.037-5.912,4.571-10.059,4.571
				c-0.164,0-0.329-0.002-0.495-0.007c-1.888-0.056-3.776-0.12-5.664-0.194c0,6.151,0,12.305,0,18.457
				c0,2.236,0.64,3.812,1.92,4.717c-0.044,0.085-0.085,0.17-0.129,0.253c-1.968-0.887-3.978-1.331-6.027-1.331
				c-1.615,0-3.256,0.275-4.92,0.827c-0.044-0.088-0.086-0.178-0.129-0.265c1.375-0.781,2.062-2.292,2.062-4.523
				c0-14.595,0-29.19,0-43.785c0-2.319-0.688-3.898-2.062-4.748C433.769,305.922,433.811,305.836,433.854,305.753 M448.958,329.158
				c2.099,0,3.74-0.691,4.933-2.062c1.246-1.435,1.868-3.139,1.868-5.114c0-1.972-0.558-3.652-1.674-5.046
				c-1.375-1.568-3.176-2.381-5.41-2.445c-1.888-0.056-3.776-0.12-5.664-0.193c0,4.887,0,9.775,0,14.664
				c1.888,0.074,3.776,0.139,5.664,0.193C448.771,329.157,448.865,329.158,448.958,329.158 M433.732,305.45l-0.099,0.186
				l-0.078,0.151l-0.052,0.103l-0.106,0.206l0.196,0.122c1.29,0.796,1.944,2.322,1.944,4.535v43.785
				c0,2.127-0.651,3.576-1.936,4.306l-0.206,0.117l0.105,0.211l0.057,0.117l0.072,0.148l0.097,0.194l0.206-0.068
				c1.631-0.54,3.259-0.814,4.841-0.814c2.005,0,3.998,0.44,5.925,1.309l0.214,0.097l0.109-0.207l0.076-0.148l0.054-0.106
				l0.101-0.193l-0.178-0.126c-1.204-0.852-1.814-2.369-1.814-4.513v-18.197c1.802,0.07,3.604,0.131,5.406,0.185
				c0.169,0.005,0.336,0.007,0.503,0.007c4.196,0,7.646-1.567,10.25-4.66c2.431-2.845,3.663-6.357,3.663-10.441
				c0-3.985-1.235-7.381-3.671-10.094c-2.679-3.043-6.466-4.659-11.254-4.802l-0.231-0.007c-0.578-0.018-2.09-0.064-4.533-0.159
				l-0.414,0.001c-1.76,0-3.26-0.071-4.458-0.211c-1.758-0.216-3.302-0.542-4.589-0.965L433.732,305.45L433.732,305.45z
				 M443.261,328.721v-14.164c1.802,0.069,3.604,0.13,5.406,0.184c2.183,0.062,3.893,0.835,5.229,2.36
				c1.067,1.332,1.612,2.978,1.612,4.881c0,1.904-0.608,3.57-1.807,4.95c-1.141,1.312-2.736,1.977-4.744,1.977
				c-0.091,0-0.183-0.001-0.276-0.004C446.875,328.852,445.067,328.791,443.261,328.721L443.261,328.721z"/>
		</g>
	</g>
	<g>
		<g>
			<path fill="#231F20" d="M476.716,360.232c-1.059,0-2.558-0.225-4.454-0.667c-2.042-0.478-3.527-0.709-4.54-0.709
				c-1.401,0.015-2.455,0.398-3.197,1.143l-0.121,0.121l-0.243-0.478l0.046-0.062c2.291-3.142,3.237-6.889,2.813-11.136
				l-0.014-0.138l0.485-0.003l0.028,0.085c0.334,0.995,1.374,1.886,3.093,2.648c1.624,0.724,3.324,1.091,5.056,1.091
				c0.123,0,0.246-0.002,0.37-0.006c4.797-0.146,7.229-2.669,7.229-7.497c0-2.627-1.545-5.1-4.723-7.561
				c-2.978-2.1-6.016-4.322-9.026-6.602c-3.202-2.977-4.821-6.503-4.821-10.489c0-4.724,1.619-8.453,4.812-11.086
				c2.155-1.757,4.607-2.689,7.288-2.771c0.117-0.003,0.234-0.005,0.352-0.005c1.259,0,2.543,0.215,3.814,0.641
				c1.336,0.353,2.478,0.533,3.386,0.533c0.394,0,0.749-0.034,1.057-0.102c0.666-0.118,1.294-0.447,1.871-0.978l0.062-0.057
				l0.478,0.216l-0.098,0.125c-2.372,3.02-3.488,6.692-3.317,10.916l0.005,0.123l-0.741,0.036l-0.025-0.098
				c-0.34-1.337-1.125-2.414-2.4-3.295c-0.935-0.645-1.93-0.972-2.956-0.972c-0.351,0-0.712,0.038-1.074,0.113
				c-3.145,0.61-4.672,2.593-4.672,6.061c0,1.856,1.588,4.036,4.72,6.477c5.433,4.039,8.013,6.1,8.905,7.108
				c3.183,3.355,4.798,7.234,4.798,11.525c0,4.317-1.288,8.021-3.83,11.008c-2.56,3.01-5.992,4.604-10.2,4.737L476.716,360.232z"/>
			<path fill="#FFFFFF" d="M477.149,306.236c1.257,0,2.516,0.213,3.774,0.634c1.369,0.362,2.511,0.54,3.426,0.54
				c0.405,0,0.767-0.035,1.083-0.104c0.687-0.122,1.331-0.458,1.93-1.008c0.085,0.039,0.173,0.076,0.258,0.115
				c-2.399,3.055-3.517,6.712-3.344,10.998c-0.173,0.009-0.343,0.019-0.516,0.025c-0.346-1.358-1.16-2.476-2.45-3.366
				c-0.961-0.663-1.971-0.994-3.027-0.994c-0.361,0-0.728,0.039-1.1,0.116c-3.183,0.617-4.771,2.657-4.771,6.183
				c0,1.887,1.589,4.098,4.768,6.575c4.98,3.703,7.944,6.024,8.889,7.093c3.178,3.351,4.767,7.146,4.767,11.442
				c0,4.292-1.267,7.949-3.8,10.927s-5.901,4.56-10.109,4.693c-0.067,0.002-0.138,0.003-0.21,0.003c-1.024,0-2.5-0.214-4.426-0.664
				c-2.017-0.471-3.539-0.712-4.568-0.712c-0.022,0-0.044,0-0.066,0c-1.375,0.015-2.448,0.406-3.22,1.18
				c-0.044-0.085-0.085-0.173-0.129-0.258c2.321-3.183,3.266-6.932,2.837-11.222c0.085,0,0.173-0.003,0.258-0.003
				c0.344,1.025,1.396,1.939,3.16,2.723c1.646,0.733,3.347,1.102,5.106,1.102c0.125,0,0.249-0.002,0.374-0.006
				c4.9-0.149,7.351-2.731,7.351-7.622c0-2.662-1.592-5.197-4.771-7.659c-3.01-2.123-6.02-4.325-9.027-6.603
				c-3.183-2.959-4.771-6.438-4.771-10.39c0-4.721,1.589-8.369,4.767-10.989c2.146-1.75,4.551-2.662,7.213-2.743
				C476.918,306.238,477.033,306.236,477.149,306.236 M477.149,305.986c-0.118,0-0.237,0.002-0.355,0.005
				c-2.709,0.083-5.187,1.024-7.363,2.799c-3.224,2.658-4.858,6.42-4.858,11.183c0,4.022,1.632,7.58,4.852,10.573
				c3.031,2.296,6.07,4.52,9.053,6.623c3.137,2.429,4.666,4.87,4.666,7.455c0,4.748-2.392,7.229-7.108,7.372
				c-0.122,0.004-0.244,0.006-0.366,0.006c-1.714,0-3.397-0.363-5.005-1.08c-1.686-0.748-2.703-1.614-3.024-2.573l-0.058-0.171
				h-0.18l-0.133,0.002l-0.125,0.001h-0.276l0.027,0.274c0.422,4.217-0.518,7.934-2.79,11.05l-0.091,0.125l0.071,0.138l0.062,0.124
				l0.067,0.134l0.157,0.304l0.241-0.242c0.719-0.721,1.743-1.093,3.046-1.106h0.063c0.989,0,2.508,0.237,4.512,0.705
				c1.906,0.445,3.414,0.671,4.482,0.671c0.075,0,0.147-0.001,0.218-0.003c4.245-0.135,7.708-1.744,10.292-4.781
				c2.561-3.01,3.859-6.741,3.859-11.089c0-4.324-1.627-8.231-4.835-11.614c-0.893-1.01-3.479-3.075-8.921-7.121
				c-3.096-2.413-4.667-4.559-4.667-6.375c0-3.398,1.494-5.341,4.569-5.938c0.356-0.074,0.71-0.111,1.052-0.111
				c1.001,0,1.972,0.319,2.886,0.95c1.248,0.862,2.018,1.916,2.35,3.222l0.05,0.196l0.202-0.008l0.38-0.019l0.139-0.007l0.247-0.013
				l-0.01-0.247c-0.169-4.193,0.938-7.838,3.29-10.833l0.196-0.25l-0.288-0.132l-0.133-0.06l-0.125-0.056l-0.151-0.069l-0.122,0.112
				c-0.56,0.515-1.167,0.833-1.805,0.946c-0.308,0.067-0.654,0.101-1.039,0.101c-0.897,0-2.028-0.179-3.362-0.531
				C479.719,306.204,478.422,305.986,477.149,305.986L477.149,305.986z"/>
		</g>
	</g>
	<g>
		<g>
			<path fill="#231F20" d="M506.917,357.921c-4.814,0-8.54-2.986-11.073-8.876c-1.973-4.648-2.974-10.266-2.974-16.696
				c0-6.504,1-12.313,2.973-17.269c2.734-6.707,6.975-10.433,12.604-11.076c0.52-0.06,1.033-0.09,1.527-0.09
				c4.714,0,8.362,2.757,10.845,8.196c2.061,4.581,3.104,10.068,3.104,16.31c0,9.972-2.003,17.753-5.952,23.128
				c-2.854,3.772-6.091,5.889-9.625,6.29C507.861,357.894,507.381,357.921,506.917,357.921z M509.012,312.85
				c-0.22,0-0.444,0.014-0.675,0.04c-2.851,0.324-4.936,2.9-6.198,7.659c-0.851,3.147-1.281,6.772-1.281,10.777
				c0,11.731,2.293,17.681,6.816,17.681l0,0c0.207,0,0.418-0.012,0.635-0.036c4.963-0.572,7.479-6.962,7.479-18.991
				C515.788,318.613,513.508,312.85,509.012,312.85z"/>
			<path fill="#FFFFFF" d="M509.974,304.04c4.666,0,8.243,2.673,10.731,8.123c2.061,4.583,3.093,9.994,3.093,16.258
				c0,9.96-1.977,17.677-5.928,23.054c-2.837,3.751-6.015,5.84-9.538,6.24c-0.482,0.055-0.954,0.082-1.415,0.082
				c-4.797,0-8.45-2.969-10.958-8.801c-1.976-4.653-2.964-10.208-2.964-16.646c0-6.521,0.988-12.26,2.964-17.223
				c2.749-6.743,6.915-10.36,12.502-10.998C508.977,304.069,509.481,304.04,509.974,304.04 M507.674,349.132
				c0.211,0,0.428-0.012,0.648-0.037c5.06-0.583,7.591-7.008,7.591-19.115c0-11.552-2.302-17.255-6.901-17.255
				c-0.225,0-0.454,0.014-0.689,0.041c-2.915,0.331-5.018,2.901-6.305,7.751c-0.856,3.171-1.285,6.775-1.285,10.81
				C500.732,343.152,503.045,349.132,507.674,349.132 M509.975,303.79L509.975,303.79c-0.5,0-1.019,0.03-1.542,0.09
				c-5.678,0.648-9.953,4.4-12.705,11.151c-1.979,4.973-2.982,10.798-2.982,17.317c0,6.447,1.004,12.081,2.983,16.744
				c2.556,5.941,6.319,8.953,11.188,8.953c0.469,0,0.954-0.028,1.443-0.084c3.568-0.405,6.835-2.537,9.709-6.338
				c3.968-5.398,5.979-13.205,5.979-23.204c0-6.259-1.048-11.764-3.114-16.36C518.428,306.571,514.741,303.79,509.975,303.79
				L509.975,303.79z M507.674,348.882c-4.44,0-6.691-5.906-6.691-17.556c0-3.993,0.43-7.608,1.276-10.744
				c1.249-4.705,3.298-7.251,6.092-7.568c0.225-0.025,0.447-0.039,0.661-0.039c4.413,0,6.651,5.722,6.651,17.005
				c0,11.956-2.479,18.304-7.369,18.867C508.084,348.87,507.875,348.882,507.674,348.882L507.674,348.882z"/>
		</g>
	</g>
	<g>
		<g>
			<path fill="#231F20" d="M526.307,354.863l0.082-0.065c1.338-1.062,2.017-2.709,2.017-4.897v-43.928c0-2.16-0.67-3.562-1.99-4.167
				l-0.114-0.052l0.225-0.482l0.097,0.021c0.718,0.152,1.545,0.229,2.459,0.229c1.392,0,3.019-0.178,4.835-0.529
				c3.197-0.534,5.693-1.394,7.424-2.558l0.194-0.131v0.547l-0.04,0.037c-1.069,0.988-1.695,2.659-1.859,4.965
				c2.905,5.967,5.823,11.95,8.74,17.889v-19.947c0-2.161-0.627-3.525-1.863-4.056l-0.076-0.032v-0.485l0.144,0.021
				c0.694,0.104,1.396,0.156,2.085,0.156c3.007,0,6.003-1.002,8.905-2.98l0.109-0.074l0.25,0.422l-0.076,0.069
				c-1.331,1.208-2.006,2.925-2.006,5.104v43.928c0,2.171,0.66,3.504,1.963,3.96l0.128,0.045l-0.222,0.504l-0.092-0.012
				c-0.583-0.075-1.176-0.112-1.764-0.112c-2.998,0-6.105,0.988-9.233,2.938l-0.191,0.119v-0.539l0.041-0.037
				c1.26-1.134,1.898-2.907,1.898-5.271l0.005-5.024c-4.04-8.188-8.25-16.843-12.504-25.679v33.78c0,2.178,0.623,3.571,1.851,4.14
				l0.112,0.052l-0.223,0.489l-0.097-0.021c-0.898-0.188-1.817-0.282-2.733-0.282c-2.623,0-5.357,0.781-8.13,2.324l-0.11,0.062
				L526.307,354.863z"/>
			<path fill="#FFFFFF" d="M557.64,294.521c0.044,0.073,0.085,0.147,0.129,0.221c-1.365,1.239-2.047,2.966-2.047,5.197
				c0,14.643,0,29.287,0,43.928c0,2.233,0.682,3.6,2.047,4.078c-0.044,0.1-0.085,0.196-0.129,0.295
				c-0.591-0.076-1.184-0.113-1.778-0.113c-3.04,0-6.141,0.987-9.301,2.957c0-0.087,0-0.173,0-0.258
				c1.292-1.163,1.939-2.957,1.939-5.363c0.002-1.674,0.002-3.351,0.005-5.024c-4.252-8.647-8.503-17.394-12.754-26.227
				c0,11.442,0,22.885,0,34.328c0,2.233,0.641,3.659,1.923,4.253c-0.043,0.095-0.085,0.191-0.129,0.285
				c-0.911-0.19-1.831-0.285-2.759-0.285c-2.66-0.001-5.39,0.781-8.19,2.34c-0.044-0.081-0.086-0.159-0.129-0.237
				c1.374-1.09,2.063-2.761,2.063-4.995c0-14.641,0-29.284,0-43.928c0-2.23-0.689-3.651-2.063-4.28
				c0.043-0.093,0.085-0.187,0.129-0.278c0.725,0.153,1.553,0.232,2.485,0.232c1.388,0,3.007-0.174,4.858-0.532
				c3.261-0.544,5.752-1.421,7.47-2.577c0,0.088,0,0.173,0,0.258c-1.099,1.016-1.731,2.697-1.899,5.048
				c2.996,6.192,5.994,12.338,8.99,18.436c0-6.828,0-13.655,0-20.485c0-2.231-0.647-3.616-1.939-4.171c0-0.088,0-0.173,0-0.258
				c0.704,0.105,1.405,0.158,2.104,0.158C551.713,297.522,554.705,296.521,557.64,294.521 M557.718,294.165l-0.219,0.149
				c-2.881,1.963-5.854,2.958-8.835,2.958c-0.683,0-1.378-0.052-2.066-0.155l-0.287-0.043v0.29v0.258v0.165l0.151,0.065
				c1.203,0.517,1.788,1.806,1.788,3.941v19.409c-2.862-5.83-5.715-11.682-8.486-17.408c0.17-2.239,0.78-3.859,1.815-4.816
				l0.08-0.074v-0.109v-0.258v-0.47l-0.39,0.262c-1.715,1.154-4.194,2.008-7.371,2.538c-1.815,0.351-3.434,0.528-4.817,0.528
				c-0.905,0-1.725-0.076-2.434-0.227l-0.192-0.041l-0.085,0.177l-0.088,0.189l-0.042,0.092l-0.105,0.228l0.228,0.105
				c1.291,0.59,1.918,1.916,1.918,4.053V349.9c0,2.148-0.662,3.763-1.969,4.799l-0.166,0.132l0.103,0.185l0.092,0.17l0.036,0.066
				l0.12,0.223l0.221-0.123c2.754-1.532,5.469-2.31,8.069-2.309c0.907,0,1.818,0.094,2.708,0.28l0.193,0.04l0.084-0.179l0.084-0.187
				l0.046-0.102l0.103-0.227l-0.225-0.104c-1.18-0.547-1.778-1.901-1.778-4.026v-33.232c4.164,8.646,8.284,17.115,12.254,25.188
				l-0.003,2.952l-0.002,2.015c0,2.326-0.625,4.068-1.856,5.178l-0.083,0.074v0.111v0.258v0.45l0.382-0.238
				c3.108-1.938,6.193-2.919,9.169-2.919c0.582,0,1.169,0.037,1.746,0.111l0.185,0.023l0.076-0.17l0.072-0.166l0.057-0.13
				l0.109-0.247l-0.255-0.09c-1.247-0.437-1.88-1.729-1.88-3.842v-43.928c0-2.172,0.643-3.812,1.965-5.012l0.152-0.138l-0.106-0.176
				l-0.062-0.107l-0.067-0.114L557.718,294.165L557.718,294.165z"/>
		</g>
	</g>
	<g>
		<g>
			<path fill="#231F20" d="M176.577,276.453c-0.882-0.272-1.793-0.41-2.708-0.41c-0.862,0-1.752,0.123-2.647,0.364l-0.062,0.017
				l-0.201-0.162l0.112-0.137c0.588-0.293,0.874-0.831,0.874-1.641v-14.673h-3.121c-1.065,0-1.804,0.223-2.196,0.663l-0.057,0.064
				l-0.341-0.129l0.065-0.125c0.699-1.351,0.7-2.672,0.001-3.928l-0.07-0.126l0.345-0.131l0.057,0.064
				c0.397,0.449,1.137,0.677,2.199,0.677h10.146c1.105,0,1.868-0.228,2.267-0.677l0.078-0.088l0.175,0.136l0.014,0.141
				c-0.656,1.257-0.655,2.581,0.001,3.934l0.06,0.123l-0.339,0.13l-0.057-0.071c-0.35-0.437-1.088-0.658-2.196-0.658h-3.124v14.673
				c0,0.811,0.288,1.347,0.88,1.641l0.127,0.063l-0.195,0.292L176.577,276.453z"/>
			<path fill="#FFFFFF" d="M181.336,256.248l0.062,0.049c-0.678,1.299-0.678,2.65,0,4.046l-0.127,0.049
				c-0.38-0.475-1.146-0.705-2.294-0.705h-3.249v14.798c0,0.854,0.317,1.439,0.949,1.753l-0.064,0.097
				c-0.898-0.276-1.812-0.415-2.744-0.415c-0.877,0-1.77,0.123-2.68,0.368l-0.062-0.05c0.628-0.313,0.943-0.898,0.943-1.753v-14.798
				h-3.246c-1.102,0-1.866,0.23-2.289,0.705l-0.129-0.049c0.723-1.396,0.723-2.747,0-4.046l0.129-0.049
				c0.423,0.478,1.188,0.719,2.293,0.719h10.146C180.122,256.966,180.912,256.725,181.336,256.248 M181.305,255.906l-0.156,0.175
				c-0.374,0.421-1.105,0.635-2.173,0.635h-10.146c-1.024,0-1.733-0.213-2.106-0.634l-0.114-0.129l-0.161,0.061l-0.129,0.049
				l-0.271,0.103l0.141,0.253c0.686,1.233,0.685,2.479-0.004,3.81l-0.129,0.249l0.263,0.1l0.129,0.049l0.161,0.061l0.114-0.128
				c0.368-0.413,1.075-0.622,2.103-0.622h2.996v14.548c0,0.759-0.263,1.259-0.805,1.529l-0.348,0.173l0.302,0.245l0.062,0.05
				l0.099,0.08l0.123-0.033c0.884-0.238,1.764-0.359,2.615-0.359c0.902,0,1.8,0.136,2.67,0.404l0.178,0.055l0.104-0.155l0.064-0.097
				l0.158-0.236l-0.254-0.126c-0.545-0.271-0.811-0.771-0.811-1.529v-14.548h2.999c1.068,0,1.774,0.206,2.099,0.611l0.114,0.143
				l0.171-0.065l0.127-0.049l0.254-0.098l-0.119-0.245c-0.639-1.315-0.64-2.601-0.003-3.821l0.096-0.185l-0.164-0.128l-0.062-0.049
				L181.305,255.906L181.305,255.906z"/>
		</g>
		<g>
			<path fill="#231F20" d="M187.51,276.453c-0.857-0.264-1.742-0.397-2.629-0.397c-0.888,0-1.805,0.134-2.726,0.398l-0.089,0.025
				l-0.19-0.294l0.129-0.061c0.628-0.294,0.933-0.815,0.933-1.591V258.35c0-0.775-0.305-1.296-0.933-1.593l-0.129-0.061l0.19-0.294
				l0.089,0.025c0.921,0.264,1.838,0.397,2.726,0.397c0.887,0,1.772-0.134,2.629-0.397l0.091-0.028l0.188,0.295l-0.125,0.062
				c-0.605,0.296-0.899,0.817-0.899,1.594v3.152h4.65v-3.152c0-0.778-0.284-1.3-0.867-1.595l-0.13-0.065l0.206-0.287l0.085,0.024
				c0.919,0.264,1.835,0.397,2.722,0.397c0.886,0,1.771-0.134,2.627-0.397l0.09-0.028l0.19,0.294l-0.126,0.062
				c-0.598,0.294-0.888,0.815-0.888,1.594v16.183c0,0.779,0.291,1.299,0.888,1.592l0.126,0.062l-0.19,0.294l-0.09-0.028
				c-0.857-0.264-1.741-0.397-2.627-0.397c-0.887,0-1.803,0.134-2.722,0.398l-0.085,0.024l-0.206-0.287l0.131-0.066
				c0.583-0.293,0.867-0.813,0.867-1.592v-10.059h-4.65v10.059c0,0.777,0.294,1.298,0.898,1.592l0.126,0.061l-0.188,0.295
				L187.51,276.453z"/>
			<path fill="#FFFFFF" d="M196.095,256.547l0.062,0.097c-0.641,0.315-0.958,0.882-0.958,1.706v16.183
				c0,0.819,0.317,1.391,0.958,1.704l-0.062,0.097c-0.873-0.269-1.761-0.403-2.664-0.403s-1.822,0.134-2.757,0.403l-0.069-0.097
				c0.624-0.313,0.936-0.882,0.936-1.704v-10.184h-4.9v10.184c0,0.822,0.324,1.391,0.969,1.704l-0.062,0.097
				c-0.873-0.269-1.762-0.403-2.666-0.403c-0.904,0-1.824,0.134-2.76,0.403l-0.062-0.097c0.668-0.313,1.005-0.885,1.005-1.704
				V258.35c0-0.824-0.337-1.391-1.005-1.706l0.062-0.097c0.936,0.268,1.856,0.402,2.76,0.402c0.904,0,1.792-0.134,2.666-0.402
				l0.062,0.097c-0.645,0.315-0.969,0.882-0.969,1.706v3.277h4.9v-3.277c0-0.824-0.312-1.391-0.936-1.706l0.069-0.097
				c0.935,0.268,1.854,0.402,2.757,0.402S195.222,256.815,196.095,256.547 M187.656,256.252l-0.182,0.056
				c-0.845,0.259-1.717,0.391-2.592,0.391c-0.876,0-1.782-0.132-2.691-0.392l-0.178-0.051l-0.101,0.156l-0.062,0.097l-0.155,0.24
				l0.258,0.122c0.58,0.274,0.862,0.758,0.862,1.48v16.183c0,0.723-0.282,1.206-0.861,1.478l-0.259,0.122l0.155,0.24l0.062,0.097
				l0.101,0.156l0.178-0.051c0.909-0.261,1.815-0.393,2.691-0.393c0.875,0,1.747,0.132,2.592,0.392l0.182,0.056l0.103-0.161
				l0.062-0.097l0.15-0.236l-0.252-0.123c-0.557-0.271-0.828-0.755-0.828-1.479v-9.934h4.4v9.934c0,0.727-0.261,1.211-0.798,1.481
				l-0.261,0.131l0.17,0.238l0.069,0.097l0.103,0.144l0.169-0.049c0.908-0.261,1.813-0.393,2.688-0.393
				c0.874,0,1.746,0.132,2.59,0.392l0.181,0.056l0.103-0.159l0.062-0.097l0.153-0.236l-0.253-0.124
				c-0.55-0.269-0.818-0.753-0.818-1.479V258.35c0-0.726,0.268-1.21,0.818-1.482l0.252-0.124l-0.152-0.236l-0.062-0.097
				l-0.103-0.159l-0.181,0.056c-0.845,0.259-1.717,0.391-2.591,0.391c-0.875,0-1.78-0.132-2.688-0.392l-0.169-0.049l-0.103,0.144
				l-0.069,0.097l-0.17,0.237l0.26,0.132c0.537,0.271,0.798,0.757,0.798,1.483v3.027h-4.4v-3.027c0-0.724,0.271-1.208,0.829-1.481
				l0.251-0.123l-0.15-0.236l-0.062-0.097L187.656,256.252L187.656,256.252z"/>
		</g>
		<g>
			<path fill="#231F20" d="M210.215,276.818c-0.273-0.438-0.967-0.66-2.063-0.66h-8.357c-0.632,0-1.352,0.1-2.139,0.296
				l-0.085,0.021l-0.197-0.295l0.139-0.059c0.625-0.264,0.928-0.784,0.928-1.589v-16.122c0-0.807-0.303-1.328-0.928-1.592
				l-0.139-0.059l0.199-0.298l0.087,0.025c0.754,0.216,1.452,0.325,2.073,0.325h6.696c1.094,0,1.789-0.222,2.063-0.66l0.072-0.115
				l0.306,0.229l-0.022,0.082c-0.371,1.34-0.079,2.642,0.87,3.87l0.104,0.135l-0.359,0.133l-0.056-0.051
				c-0.482-0.434-1.293-0.654-2.409-0.654h-4.731v2.527h3.263c1.108,0,1.873-0.227,2.274-0.674l0.075-0.083l0.179,0.127l0.015,0.142
				c-0.644,1.256-0.643,2.576,0.001,3.921l0.058,0.121l-0.338,0.133l-0.058-0.07c-0.356-0.43-1.099-0.648-2.207-0.648h-3.263v7.911
				h6.457c1.116,0,1.949-0.22,2.476-0.653l0.075-0.062l0.182,0.133l-0.016,0.147c-0.66,0.857-0.995,1.867-0.995,3.003
				c0,0.34,0.04,0.637,0.122,0.91l0.033,0.111l-0.331,0.127L210.215,276.818z"/>
			<path fill="#FFFFFF" d="M208.599,256.218l0.129,0.097c-0.384,1.386-0.087,2.713,0.892,3.979l-0.129,0.048
				c-0.509-0.458-1.343-0.687-2.492-0.687h-4.856v2.777h3.388c1.153,0,1.938-0.237,2.367-0.716l0.064,0.046
				c-0.665,1.299-0.665,2.644,0,4.032l-0.129,0.051c-0.382-0.461-1.149-0.693-2.303-0.693h-3.388v8.161h6.582
				c1.151,0,2.001-0.226,2.556-0.682l0.062,0.046c-0.682,0.885-1.021,1.912-1.021,3.079c0,0.351,0.042,0.663,0.127,0.946
				l-0.127,0.049c-0.297-0.477-1.022-0.719-2.169-0.719h-8.357c-0.638,0-1.363,0.099-2.169,0.3l-0.064-0.097
				c0.67-0.283,1.004-0.851,1.004-1.704v-16.122c0-0.854-0.334-1.424-1.004-1.707l0.064-0.097c0.765,0.219,1.467,0.33,2.107,0.33
				h6.696C207.576,256.937,208.3,256.695,208.599,256.218 M208.531,255.855l-0.145,0.23c-0.247,0.394-0.923,0.602-1.957,0.602
				h-6.696c-0.609,0-1.295-0.108-2.039-0.32l-0.176-0.05l-0.101,0.152l-0.064,0.097l-0.167,0.251l0.278,0.118
				c0.573,0.242,0.851,0.725,0.851,1.477v16.122c0,0.75-0.278,1.232-0.851,1.474l-0.278,0.118l0.167,0.251l0.064,0.097l0.098,0.146
				l0.171-0.042c0.777-0.194,1.486-0.292,2.108-0.292h8.357c1.035,0,1.712,0.208,1.957,0.601l0.109,0.175l0.193-0.074l0.127-0.049
				l0.216-0.083l-0.067-0.222c-0.078-0.261-0.116-0.547-0.116-0.875c0-1.108,0.326-2.092,0.969-2.927l0.156-0.203l-0.206-0.151
				l-0.062-0.046l-0.157-0.115l-0.15,0.124c-0.504,0.414-1.311,0.625-2.397,0.625h-6.332v-7.661h3.138
				c1.069,0,1.779,0.203,2.11,0.603l0.115,0.139l0.169-0.066l0.129-0.051l0.25-0.098l-0.116-0.242
				c-0.636-1.327-0.637-2.573-0.003-3.811l0.098-0.192l-0.176-0.125l-0.064-0.046l-0.182-0.13l-0.149,0.167
				c-0.376,0.42-1.11,0.633-2.181,0.633h-3.138v-2.277h4.606c1.084,0,1.866,0.209,2.325,0.623l0.113,0.101l0.142-0.053l0.129-0.048
				l0.319-0.118l-0.208-0.269c-0.936-1.212-1.213-2.441-0.849-3.76l0.046-0.165l-0.137-0.103l-0.129-0.097L208.531,255.855
				L208.531,255.855z"/>
		</g>
	</g>
	<g>
		<g>
			<path fill="#231F20" d="M449.601,385.045c-3.296,0-5.777-1.259-7.375-3.74c-1.182-1.854-1.781-4.122-1.781-6.743
				c0-2.547,0.618-4.777,1.837-6.629c1.635-2.406,4.115-3.626,7.375-3.626c1.925,0,3.613,0.394,5.019,1.171
				c1.008,0.604,1.709,0.908,2.088,0.908c0.14,0,0.3-0.014,0.479-0.038l0.142-0.02v0.229l-0.079,0.07
				c-1.539,0.601-2.609,1.533-3.18,2.773l-0.033,0.072h-0.336l0.022-0.145c0.102-0.662-0.281-1.207-1.172-1.667
				c-0.912-0.476-1.901-0.717-2.942-0.717c-1.994,0-3.512,0.97-4.512,2.883c-0.683,1.38-1.03,2.974-1.03,4.734
				c0,1.814,0.348,3.445,1.032,4.848c0.929,1.989,2.427,2.997,4.454,2.997c1.042,0,2.052-0.238,3-0.71
				c0.924-0.457,1.307-0.997,1.171-1.651l-0.031-0.15h0.345l0.033,0.073c0.571,1.269,1.64,2.202,3.177,2.773l0.081,0.03v0.235
				l-0.146,0.014c-0.14-0.024-0.28-0.037-0.419-0.037c-0.38,0-1.26,0.343-2.617,1.019
				C452.812,384.694,451.264,385.045,449.601,385.045z"/>
			<path fill="#FFFFFF" d="M449.656,364.432c1.909,0,3.562,0.384,4.958,1.155c1.027,0.615,1.743,0.924,2.148,0.924
				c0.145,0,0.311-0.014,0.495-0.039v0.039c-1.577,0.615-2.66,1.562-3.247,2.837h-0.11c0.11-0.714-0.302-1.314-1.237-1.798
				c-0.937-0.488-1.937-0.73-3-0.73c-2.055,0-3.595,0.983-4.622,2.95c-0.697,1.407-1.045,3.003-1.045,4.792
				c0,1.84,0.348,3.475,1.045,4.902c0.954,2.045,2.476,3.067,4.566,3.067c1.064,0,2.082-0.239,3.056-0.723
				c0.973-0.481,1.385-1.078,1.237-1.789h0.11c0.587,1.303,1.67,2.252,3.247,2.839v0.039c-0.147-0.025-0.295-0.039-0.44-0.039
				c-0.404,0-1.296,0.346-2.673,1.031c-1.377,0.687-2.891,1.03-4.544,1.03c-3.268,0-5.689-1.228-7.27-3.683
				c-1.175-1.842-1.762-4.066-1.762-6.676c0-2.533,0.605-4.721,1.816-6.561C444.003,365.62,446.425,364.432,449.656,364.432
				 M449.656,364.182c-3.304,0-5.819,1.237-7.478,3.679c-1.234,1.876-1.859,4.13-1.859,6.701c0,2.646,0.605,4.937,1.801,6.811
				c1.622,2.521,4.139,3.798,7.48,3.798c1.683,0,3.249-0.355,4.655-1.057c1.669-0.83,2.313-1.005,2.562-1.005
				c0.128,0,0.262,0.012,0.398,0.035l0.292,0.051v-0.297v-0.174l-0.163-0.1c-1.504-0.56-2.549-1.471-3.106-2.707l-0.066-0.147
				h-0.161h-0.11h-0.308l0.062,0.301c0.123,0.591-0.238,1.086-1.104,1.515c-0.931,0.462-1.922,0.696-2.944,0.696
				c-2.003,0-3.422-0.956-4.34-2.923c-0.679-1.39-1.021-3.002-1.021-4.797c0-1.741,0.343-3.316,1.019-4.681
				c0.987-1.891,2.427-2.812,4.398-2.812c1.021,0,1.991,0.236,2.885,0.702c0.837,0.433,1.198,0.936,1.105,1.538l-0.045,0.288h0.292
				h0.11h0.16l0.067-0.146c0.556-1.209,1.603-2.12,3.11-2.708l0.159-0.062v-0.171v-0.287h-0.284
				c-0.177,0.024-0.332,0.037-0.461,0.037c-0.245,0-0.794-0.154-2.02-0.889C453.312,364.581,451.603,364.182,449.656,364.182
				L449.656,364.182z"/>
		</g>
		<g>
			<path fill="#231F20" d="M465.136,385.045c-3.225,0-5.67-1.271-7.268-3.779c-1.184-1.878-1.783-4.133-1.783-6.704
				c0-2.523,0.619-4.742,1.84-6.593c1.595-2.43,4.021-3.662,7.211-3.662c3.188,0,5.613,1.246,7.211,3.702
				c1.185,1.854,1.784,4.07,1.784,6.59c0,2.57-0.6,4.813-1.783,6.667C470.788,383.772,468.361,385.045,465.136,385.045z
				 M465.136,366.892c-1.712,0-3.087,0.807-4.088,2.398c-0.902,1.459-1.36,3.259-1.36,5.348c0,2.114,0.458,3.938,1.361,5.422
				c0.999,1.592,2.375,2.399,4.087,2.399c1.676,0,3.032-0.808,4.032-2.4c0.902-1.457,1.36-3.269,1.36-5.382
				c0-2.115-0.458-3.928-1.361-5.388C468.167,367.698,466.811,366.892,465.136,366.892z"/>
			<path fill="#FFFFFF" d="M465.136,364.432c3.159,0,5.526,1.216,7.106,3.646c1.177,1.842,1.764,4.014,1.764,6.521
				c0,2.558-0.587,4.757-1.764,6.6c-1.543,2.48-3.91,3.722-7.106,3.722s-5.582-1.241-7.162-3.722
				c-1.177-1.867-1.764-4.081-1.764-6.637c0-2.508,0.605-4.684,1.819-6.524C459.606,365.634,461.977,364.432,465.136,364.432
				 M465.136,382.584c1.727,0,3.108-0.819,4.138-2.459c0.919-1.483,1.38-3.3,1.38-5.448s-0.461-3.968-1.38-5.453
				c-1.029-1.638-2.411-2.457-4.138-2.457c-1.767,0-3.164,0.819-4.193,2.457c-0.919,1.485-1.38,3.291-1.38,5.414
				c0,2.15,0.461,3.979,1.38,5.487C461.972,381.765,463.369,382.584,465.136,382.584 M465.136,364.182
				c-3.235,0-5.696,1.251-7.315,3.719c-1.234,1.871-1.86,4.113-1.86,6.661c0,2.595,0.606,4.872,1.802,6.77
				c1.623,2.548,4.104,3.839,7.374,3.839c3.271,0,5.733-1.292,7.318-3.84c1.195-1.871,1.802-4.137,1.802-6.731
				c0-2.544-0.606-4.783-1.803-6.656C470.83,365.446,468.368,364.182,465.136,364.182L465.136,364.182z M465.136,382.334
				c-1.69,0-2.992-0.766-3.981-2.342c-0.89-1.461-1.342-3.264-1.342-5.354c0-2.065,0.452-3.843,1.343-5.282
				c0.988-1.573,2.291-2.339,3.98-2.339c1.652,0,2.937,0.766,3.926,2.34c0.89,1.438,1.342,3.229,1.342,5.32
				c0,2.09-0.452,3.879-1.343,5.316C468.072,381.568,466.788,382.334,465.136,382.334L465.136,382.334z"/>
		</g>
		<g>
			<path fill="#231F20" d="M475.09,384.687l0.09-0.138c0.494-0.21,0.734-0.6,0.734-1.19v-17.226c0-0.564-0.24-0.941-0.734-1.151
				l-0.146-0.062l0.146-0.197l0.139-0.051c0.68,0.195,1.743,0.294,3.16,0.294c1.405-0.022,2.47-0.121,3.163-0.295l0.081-0.021
				l0.143,0.193l-0.088,0.138c-0.479,0.211-0.713,0.55-0.713,1.037c0,0.386,0.143,0.844,0.425,1.359l2.692,4.979l2.651-4.986
				c0.285-0.514,0.43-0.969,0.43-1.355c0-0.485-0.224-0.823-0.685-1.034l-0.141-0.063l0.142-0.191l0.137-0.055
				c0.691,0.174,1.756,0.272,3.166,0.295c1.45,0,2.512-0.099,3.155-0.294l0.084-0.025l0.148,0.2l-0.093,0.136
				c-0.514,0.211-0.764,0.587-0.764,1.151v17.226c0,0.59,0.25,0.979,0.764,1.19l0.147,0.061l-0.146,0.198l-0.139,0.053
				c-0.721-0.201-1.46-0.303-2.197-0.303c-0.738,0-1.497,0.103-2.253,0.304l-0.083,0.021l-0.141-0.193l0.084-0.14
				c0.465-0.21,0.691-0.601,0.691-1.191v-13.736l-4.933,9.28l-5.023-9.288v13.744c0,0.591,0.235,0.98,0.72,1.191l0.075,0.032v0.243
				l-0.156,0.036c-0.776-0.201-1.549-0.304-2.297-0.304c-0.747,0-1.49,0.102-2.21,0.303l-0.083,0.023L475.09,384.687z"/>
			<path fill="#FFFFFF" d="M493.073,364.791l0.056,0.075c-0.562,0.23-0.841,0.652-0.841,1.267v17.226
				c0,0.64,0.278,1.075,0.841,1.306l-0.056,0.076c-0.734-0.205-1.478-0.308-2.23-0.308s-1.515,0.103-2.285,0.308l-0.056-0.076
				c0.509-0.23,0.765-0.666,0.765-1.306V369.12l-5.059,9.518l-5.147-9.518v14.238c0,0.64,0.265,1.075,0.795,1.306v0.076
				c-0.79-0.205-1.566-0.308-2.328-0.308s-1.51,0.103-2.243,0.308l-0.056-0.076c0.542-0.23,0.811-0.666,0.811-1.306v-17.226
				c0-0.614-0.269-1.036-0.811-1.267l0.056-0.075c0.697,0.2,1.762,0.299,3.194,0.299c1.432-0.022,2.496-0.124,3.193-0.299
				l0.056,0.075c-0.525,0.23-0.788,0.615-0.788,1.151c0,0.408,0.146,0.88,0.44,1.419l2.803,5.184l2.761-5.192
				c0.297-0.534,0.444-1.007,0.444-1.414c0-0.534-0.253-0.917-0.758-1.147l0.056-0.075c0.695,0.175,1.762,0.276,3.194,0.299
				C491.347,365.09,492.412,364.991,493.073,364.791 M493.169,364.501l-0.168,0.051c-0.632,0.191-1.682,0.288-3.121,0.288
				c-1.396-0.021-2.452-0.12-3.134-0.291l-0.162-0.041l-0.1,0.135l-0.056,0.075l-0.184,0.248l0.281,0.128
				c0.417,0.19,0.611,0.482,0.611,0.92c0,0.365-0.139,0.8-0.413,1.293l-2.544,4.784l-2.581-4.773c-0.272-0.498-0.41-0.935-0.41-1.3
				c0-0.438,0.203-0.731,0.639-0.923l0.287-0.125l-0.187-0.252l-0.056-0.075l-0.1-0.135l-0.162,0.041
				c-0.684,0.171-1.739,0.27-3.137,0.291c-1.401,0-2.453-0.098-3.121-0.289l-0.167-0.048l-0.104,0.14l-0.056,0.075l-0.188,0.255
				l0.292,0.124c0.449,0.19,0.658,0.52,0.658,1.036v17.226c0,0.543-0.209,0.885-0.658,1.075l-0.29,0.124l0.186,0.254l0.056,0.076
				l0.103,0.14l0.167-0.046c0.708-0.198,1.44-0.299,2.176-0.299c0.737,0,1.499,0.101,2.266,0.3l0.312,0.081v-0.323v-0.076V384.5
				l-0.15-0.065c-0.439-0.19-0.645-0.533-0.645-1.076v-13.251l4.678,8.649l0.222,0.41l0.219-0.412l4.588-8.632v13.235
				c0,0.545-0.196,0.887-0.618,1.078l-0.28,0.127l0.182,0.248l0.056,0.076l0.102,0.138l0.165-0.044
				c0.746-0.198,1.493-0.299,2.221-0.299c0.727,0,1.454,0.101,2.163,0.299l0.167,0.046l0.103-0.14l0.056-0.076l0.188-0.258
				l-0.296-0.121c-0.468-0.191-0.686-0.533-0.686-1.074v-17.226c0-0.515,0.218-0.844,0.686-1.035l0.298-0.122l-0.191-0.258
				l-0.056-0.075L493.169,364.501L493.169,364.501z"/>
		</g>
		<g>
			<path fill="#231F20" d="M494.146,384.688l0.089-0.139c0.494-0.211,0.734-0.613,0.734-1.229v-17.107c0-0.617-0.24-1.02-0.734-1.23
				l-0.146-0.062l0.144-0.194l0.138-0.055c0.564,0.144,1.296,0.23,2.174,0.258c0.583,0,1.416-0.027,2.496-0.08
				c1.085-0.053,1.812-0.078,2.18-0.078c2.329,0,4.188,0.492,5.524,1.462c1.35,0.979,2.034,2.311,2.034,3.959
				c0,1.488-0.579,2.797-1.723,3.89c-1.131,1.089-2.722,1.797-4.729,2.106c-0.552,0.078-1.89,0.118-4.087,0.119v7.014
				c0,0.617,0.235,1.02,0.72,1.23l0.075,0.032v0.247l-0.158,0.031c-0.721-0.201-1.465-0.303-2.211-0.303
				c-0.747,0-1.52,0.103-2.296,0.304l-0.082,0.021L494.146,384.688z M500.431,373.64c1.436,0,2.569-0.319,3.368-0.95
				c0.792-0.627,1.193-1.439,1.193-2.416c0-1.981-1.51-2.944-4.614-2.944h-2.137v6.311H500.431z"/>
			<path fill="#FFFFFF" d="M494.34,364.791c0.587,0.149,1.322,0.234,2.201,0.262c0.588,0,1.424-0.027,2.506-0.08
				s1.808-0.078,2.174-0.078c2.312,0,4.129,0.479,5.451,1.438c1.321,0.958,1.982,2.246,1.982,3.857c0,1.46-0.562,2.727-1.684,3.8
				c-1.121,1.078-2.676,1.767-4.661,2.072c-0.553,0.079-1.95,0.118-4.193,0.118v7.139c0,0.665,0.266,1.114,0.795,1.345v0.076
				c-0.735-0.205-1.482-0.308-2.244-0.308s-1.537,0.103-2.327,0.308l-0.056-0.076c0.539-0.23,0.811-0.68,0.811-1.345v-17.107
				c0-0.666-0.271-1.115-0.811-1.346L494.34,364.791 M498.116,373.765h2.314c1.472,0,2.618-0.324,3.445-0.977
				c0.826-0.654,1.241-1.492,1.241-2.515c0-2.047-1.58-3.069-4.739-3.069h-2.262V373.765 M494.239,364.508l-0.101,0.135
				l-0.056,0.075l-0.188,0.254l0.291,0.124c0.45,0.192,0.659,0.547,0.659,1.116v17.107c0,0.561-0.216,0.926-0.659,1.115
				l-0.289,0.123l0.186,0.254l0.056,0.076l0.101,0.138l0.164-0.043c0.767-0.199,1.528-0.3,2.265-0.3
				c0.735,0,1.468,0.101,2.177,0.299l0.317,0.088v-0.329v-0.076V384.5l-0.15-0.065c-0.434-0.188-0.645-0.554-0.645-1.115v-6.889
				c2.13-0.003,3.433-0.043,3.979-0.121c2.035-0.312,3.648-1.032,4.799-2.139c1.168-1.117,1.761-2.457,1.761-3.98
				c0-1.69-0.702-3.057-2.086-4.06c-1.358-0.986-3.241-1.486-5.598-1.486c-0.383,0-1.118,0.026-2.186,0.078
				c-1.102,0.054-1.918,0.08-2.494,0.08c-0.861-0.027-1.583-0.112-2.14-0.254L494.239,364.508L494.239,364.508z M498.366,367.454
				h2.012c3.021,0,4.489,0.922,4.489,2.819c0,0.949-0.375,1.708-1.146,2.318c-0.776,0.612-1.883,0.923-3.29,0.923h-2.064V367.454
				L498.366,367.454z"/>
		</g>
		<g>
			<path fill="#231F20" d="M520.176,384.687l0.088-0.138c0.412-0.177,0.516-0.566,0.317-1.191l-1.574-4.372h-7.129l-1.473,4.374
				c-0.311,0.801,0.034,1.062,0.319,1.19l0.142,0.063l-0.143,0.194l-0.139,0.053c-0.72-0.201-1.495-0.303-2.307-0.303
				c-0.812,0-1.684,0.103-2.588,0.305l-0.08,0.018l-0.147-0.202l0.104-0.132c0.629-0.219,1.055-0.635,1.302-1.271l6.057-17.114
				c0.199-0.601,0.08-0.977-0.374-1.18l-0.141-0.063l0.142-0.195l0.139-0.051c0.681,0.195,1.614,0.294,2.775,0.294
				s2.095-0.099,2.775-0.294l0.083-0.024l0.142,0.191l-0.081,0.141c-0.417,0.201-0.522,0.592-0.322,1.194l6.059,17.104
				c0.206,0.627,0.624,1.053,1.244,1.269l0.159,0.056l-0.147,0.202l-0.136,0.059c-0.904-0.202-1.771-0.305-2.574-0.305
				c-0.802,0-1.563,0.102-2.265,0.303l-0.084,0.024L520.176,384.687z M518.209,376.656l-2.75-7.779l-2.682,7.779H518.209z"/>
			<path fill="#FFFFFF" d="M518.275,364.791l0.056,0.075c-0.479,0.23-0.608,0.68-0.388,1.346l6.06,17.107
				c0.219,0.665,0.66,1.114,1.321,1.345l-0.056,0.076c-0.917-0.205-1.785-0.308-2.602-0.308c-0.817,0-1.583,0.103-2.299,0.308
				l-0.055-0.076c0.477-0.205,0.605-0.654,0.387-1.345l-1.605-4.459h-7.307l-1.501,4.459c-0.258,0.665-0.129,1.114,0.387,1.345
				l-0.056,0.076c-0.733-0.205-1.514-0.308-2.34-0.308c-0.825,0-1.698,0.103-2.615,0.308l-0.056-0.076
				c0.661-0.23,1.119-0.68,1.377-1.345l6.059-17.117c0.219-0.661,0.074-1.105-0.441-1.336l0.055-0.075
				c0.698,0.2,1.636,0.299,2.81,0.299C516.641,365.09,517.577,364.991,518.275,364.791 M512.602,376.781h5.784l-2.929-8.283
				L512.602,376.781 M512.557,364.503l-0.103,0.141l-0.055,0.075l-0.182,0.25l0.282,0.126c0.262,0.117,0.533,0.34,0.306,1.029
				l-6.057,17.112c-0.23,0.593-0.632,0.985-1.224,1.191l-0.319,0.111l0.199,0.272l0.056,0.076l0.097,0.132l0.16-0.035
				c0.896-0.2,1.757-0.302,2.561-0.302c0.8,0,1.564,0.101,2.272,0.299l0.167,0.046l0.103-0.14l0.056-0.076l0.183-0.25l-0.283-0.126
				c-0.259-0.115-0.522-0.337-0.255-1.025l1.447-4.3h6.951l1.546,4.294c0.257,0.812-0.099,0.965-0.25,1.03l-0.286,0.123l0.182,0.252
				l0.055,0.076l0.103,0.144l0.17-0.049c0.689-0.197,1.439-0.298,2.229-0.298c0.795,0,1.651,0.102,2.547,0.302l0.16,0.035
				l0.097-0.132l0.056-0.076l0.199-0.272l-0.319-0.111c-0.59-0.205-0.971-0.594-1.166-1.187l-6.062-17.112
				c-0.23-0.697,0.019-0.921,0.261-1.037l0.272-0.131l-0.18-0.243l-0.056-0.075l-0.104-0.14l-0.167,0.048
				c-0.669,0.191-1.591,0.289-2.74,0.289s-2.071-0.098-2.74-0.289L512.557,364.503L512.557,364.503z M512.952,376.531l2.508-7.274
				l2.572,7.274H512.952L512.952,376.531z"/>
		</g>
		<g>
			<path fill="#231F20" d="M535.631,384.659l0.073-0.109c0.47-0.212,0.698-0.618,0.698-1.242v-2.011l-6.824-11.478v13.5
				c0,0.617,0.235,1.02,0.72,1.23l0.075,0.032v0.243l-0.156,0.036c-0.776-0.201-1.549-0.304-2.296-0.304s-1.49,0.102-2.211,0.303
				l-0.083,0.023l-0.144-0.196l0.089-0.139c0.494-0.211,0.734-0.613,0.734-1.229v-17.107c0-0.617-0.24-1.02-0.734-1.23l-0.146-0.062
				l0.145-0.196l0.139-0.052c0.717,0.195,1.779,0.294,3.16,0.294s2.444-0.099,3.161-0.294l0.083-0.023l0.144,0.195l-0.088,0.138
				c-0.479,0.211-0.713,0.563-0.713,1.077c0,0.41,0.147,0.852,0.438,1.312l4.507,7.771v-8.933c0-0.616-0.229-1.019-0.697-1.229
				l-0.074-0.033v-0.242l0.156-0.035c0.774,0.201,1.547,0.303,2.295,0.303c0.747,0,1.491-0.102,2.212-0.302l0.158-0.045v0.243
				l-0.07,0.073c-0.477,0.233-0.708,0.648-0.708,1.27v17.107c0,0.618,0.23,1.021,0.704,1.23l0.074,0.033v0.246l-0.158,0.031
				c-0.721-0.201-1.465-0.303-2.212-0.303c-0.748,0-1.521,0.103-2.295,0.304l-0.156,0.041V384.659z"/>
			<path fill="#FFFFFF" d="M540.327,364.791v0.039c-0.521,0.255-0.778,0.716-0.778,1.382v17.107c0,0.665,0.258,1.114,0.778,1.345
				v0.076c-0.734-0.205-1.483-0.308-2.245-0.308s-1.537,0.103-2.326,0.308v-0.076c0.514-0.232,0.771-0.685,0.771-1.356v-2.011
				l-7.074-11.933v13.955c0,0.665,0.265,1.114,0.795,1.345v0.076c-0.79-0.205-1.565-0.308-2.327-0.308s-1.51,0.103-2.244,0.308
				l-0.056-0.076c0.539-0.23,0.811-0.68,0.811-1.345v-17.107c0-0.666-0.271-1.115-0.811-1.346l0.056-0.075
				c0.734,0.2,1.799,0.299,3.193,0.299c1.396,0,2.46-0.099,3.194-0.299l0.056,0.075c-0.525,0.23-0.788,0.627-0.788,1.191
				c0,0.435,0.152,0.896,0.458,1.379l4.737,8.17v-9.397c0-0.663-0.258-1.112-0.771-1.343v-0.075
				c0.789,0.205,1.564,0.307,2.326,0.307S539.593,364.996,540.327,364.791 M535.506,364.468v0.323v0.075v0.162l0.147,0.066
				c0.42,0.188,0.624,0.553,0.624,1.114v8.468l-4.271-7.365c-0.283-0.448-0.424-0.867-0.424-1.254c0-0.466,0.203-0.771,0.639-0.963
				l0.287-0.125l-0.187-0.252l-0.056-0.075l-0.102-0.138l-0.165,0.045c-0.706,0.192-1.759,0.29-3.129,0.29
				c-1.369,0-2.422-0.098-3.128-0.29l-0.165-0.045l-0.102,0.138l-0.056,0.075l-0.188,0.254l0.29,0.124
				c0.45,0.192,0.659,0.547,0.659,1.116v17.107c0,0.561-0.216,0.926-0.659,1.115l-0.289,0.123l0.186,0.254l0.056,0.076l0.103,0.14
				l0.167-0.046c0.709-0.198,1.441-0.299,2.177-0.299c0.736,0,1.498,0.101,2.265,0.3l0.312,0.081v-0.323v-0.076V384.5l-0.15-0.065
				c-0.439-0.19-0.645-0.545-0.645-1.115v-13.043l6.574,11.089v1.942c0,0.569-0.204,0.938-0.625,1.129l-0.146,0.066v0.161v0.076
				v0.323l0.312-0.081c0.765-0.199,1.526-0.3,2.264-0.3c0.736,0,1.469,0.101,2.178,0.299l0.317,0.088v-0.329v-0.076v-0.163
				l-0.148-0.065c-0.43-0.19-0.63-0.545-0.63-1.116v-17.107c0-0.568,0.209-0.947,0.639-1.157l0.14-0.068v-0.156v-0.329l-0.317,0.049
				c-0.709,0.198-1.441,0.298-2.178,0.298c-0.737,0-1.499-0.101-2.264-0.299L535.506,364.468L535.506,364.468z"/>
		</g>
		<g>
			<path fill="#231F20" d="M546.625,384.66l0.073-0.109c0.46-0.211,0.684-0.613,0.684-1.231v-7.33l-5.589-10.03
				c-0.242-0.434-0.653-0.753-1.256-0.976l-0.156-0.058l0.147-0.2l0.137-0.057c0.849,0.202,1.663,0.304,2.421,0.304
				c0.756,0,1.476-0.102,2.14-0.302l0.084-0.025l0.143,0.192l-0.081,0.141c-0.164,0.079-0.266,0.178-0.302,0.295
				c-0.042,0.134-0.003,0.307,0.114,0.512l3.881,6.989l3.933-6.973c0.112-0.201,0.147-0.372,0.103-0.506
				c-0.041-0.125-0.156-0.231-0.343-0.315l-0.14-0.063l0.143-0.196l0.14-0.05c0.663,0.2,1.383,0.302,2.138,0.302
				c0.758,0,1.572-0.102,2.421-0.304l0.081-0.019l0.147,0.2l-0.101,0.133c-0.602,0.223-1.012,0.542-1.256,0.977l-5.693,9.903
				l0.017,7.456c0,0.616,0.252,1.019,0.77,1.229l0.148,0.061l-0.146,0.199l-0.139,0.053c-0.721-0.201-1.464-0.303-2.211-0.303
				c-0.748,0-1.521,0.103-2.295,0.304l-0.156,0.041V384.66z"/>
			<path fill="#FFFFFF" d="M557.487,364.791l0.056,0.075c-0.624,0.23-1.063,0.571-1.322,1.032l-5.692,9.902v7.519
				c0,0.665,0.281,1.114,0.848,1.345l-0.056,0.076c-0.734-0.205-1.482-0.308-2.244-0.308s-1.537,0.103-2.326,0.308v-0.076
				c0.504-0.23,0.757-0.68,0.757-1.345v-7.33l-5.604-10.091c-0.258-0.461-0.698-0.802-1.322-1.032l0.056-0.075
				c0.862,0.205,1.679,0.307,2.45,0.307s1.496-0.102,2.176-0.307l0.056,0.075c-0.419,0.201-0.5,0.53-0.242,0.981l3.988,7.183
				l4.042-7.167c0.256-0.458,0.156-0.792-0.297-0.997l0.055-0.075c0.678,0.205,1.403,0.307,2.174,0.307
				C555.809,365.098,556.625,364.996,557.487,364.791 M552.766,364.5l-0.104,0.144l-0.055,0.075l-0.181,0.249l0.279,0.126
				c0.153,0.069,0.246,0.15,0.276,0.241c0.041,0.124-0.028,0.289-0.095,0.406l-3.821,6.777l-3.771-6.792
				c-0.07-0.123-0.144-0.292-0.105-0.416c0.025-0.082,0.105-0.156,0.237-0.219l0.272-0.131l-0.18-0.243l-0.056-0.075l-0.104-0.142
				l-0.169,0.051c-0.652,0.196-1.36,0.296-2.104,0.296c-0.748,0-1.553-0.101-2.393-0.3l-0.16-0.038l-0.099,0.133l-0.056,0.075
				l-0.198,0.268l0.312,0.115c0.574,0.212,0.963,0.513,1.191,0.92l5.572,10.033v7.266c0,0.563-0.2,0.93-0.61,1.117l-0.146,0.067
				v0.16v0.076v0.323l0.312-0.081c0.765-0.199,1.526-0.3,2.264-0.3c0.735,0,1.468,0.101,2.177,0.299l0.167,0.046l0.103-0.14
				l0.056-0.076l0.188-0.259l-0.296-0.12c-0.473-0.192-0.692-0.546-0.692-1.113v-7.452l5.659-9.844
				c0.23-0.41,0.619-0.711,1.192-0.923l0.312-0.115l-0.198-0.268l-0.056-0.075l-0.099-0.133l-0.16,0.038
				c-0.84,0.199-1.645,0.3-2.393,0.3c-0.743,0-1.45-0.1-2.102-0.296L552.766,364.5L552.766,364.5z"/>
		</g>
	</g>
	<g>
		<g>
			<path fill="#231F20" d="M147.043,376.104c-6.602,0-12.443-3.289-17.362-9.776c-4.025-5.294-6.813-11.709-8.287-19.065
				l-4.812-24.757c-2.284,0.661-4.962,1.189-7.963,1.571v27.571c0,2.793,0.761,4.74,2.262,5.788l0.053,0.037v0.401l-0.174-0.073
				c-1.835-0.775-4.098-1.169-6.725-1.169c-2.527,0-4.743,0.344-6.584,1.021l-0.074,0.027l-0.317-0.312l0.135-0.084
				c1.53-0.953,2.306-2.851,2.306-5.639v-77.459c0-2.787-0.776-4.683-2.306-5.637l-0.134-0.083l0.315-0.315l0.075,0.028
				c1.84,0.679,4.055,1.023,6.584,1.023c2.626,0,4.891-0.344,6.73-1.023l0.168-0.062v0.395l-0.058,0.037
				c-1.498,0.954-2.258,2.851-2.258,5.638v40.349c2.854-0.484,5.317-1.117,7.321-1.883c8.621-3.208,12.992-10.504,12.992-21.686
				c0-7.004-2.269-13.197-6.743-18.405c-4.47-5.201-10.183-7.837-16.981-7.837c-3.978,0-7.618,1.182-10.82,3.513
				c-3.491,2.525-5.604,5.723-6.281,9.503c-0.094,0.758-0.046,1.435,0.142,2.004l0.034,0.103l-0.511,0.252l-0.052-0.122
				c-2.137-5.051-5.631-8.546-10.384-10.387l-0.179-0.069l0.283-0.283l0.678-0.037c1.426,0,2.98-0.93,4.62-2.763
				c6.377-6.985,14.039-10.526,22.773-10.526c9.225,0,16.987,3.534,23.072,10.505c6.079,6.962,9.161,15.216,9.161,24.533
				c0,12.037-4.061,21.175-12.071,27.164l5.289,29.092c3.119,17.336,9.031,26.126,17.572,26.126c2.61,0,4.914-0.88,6.847-2.615
				c1.929-1.734,2.907-3.929,2.907-6.523c0-2.021-0.71-3.874-2.11-5.508c-1.395-1.63-3.075-2.457-4.994-2.457
				c-1.436,0-2.698,0.508-3.751,1.509c-1.051,0.998-1.584,2.228-1.584,3.655c0,2.684,0.986,3.988,3.015,3.988
				c0.214,0,0.401-0.033,0.558-0.1v-0.947c0-1.639,0.787-2.47,2.339-2.47c1.455,0,2.192,0.784,2.192,2.331
				c0,2.424-1.429,3.653-4.246,3.653c-1.696,0-3.115-0.633-4.216-1.88c-1.095-1.245-1.65-2.732-1.65-4.422
				c0-1.986,0.731-3.721,2.173-5.157c1.441-1.44,3.182-2.171,5.173-2.171c2.58,0,4.793,1.03,6.578,3.062
				c1.781,2.024,2.685,4.354,2.685,6.924c0,3.457-1.356,6.337-4.03,8.559C153.753,374.981,150.599,376.104,147.043,376.104z"/>
			<path fill="#FFFFFF" d="M105.511,256.039c9.229,0,16.889,3.486,22.978,10.462c6.086,6.971,9.13,15.122,9.13,24.451
				c0,12.083-4.027,21.119-12.083,27.11l5.302,29.168c3.146,17.485,9.043,26.229,17.695,26.229c2.654,0,4.963-0.882,6.93-2.647
				c1.965-1.767,2.948-3.971,2.948-6.616c0-2.062-0.713-3.924-2.14-5.589c-1.425-1.667-3.124-2.501-5.089-2.501
				c-1.477,0-2.754,0.514-3.837,1.543c-1.082,1.027-1.623,2.277-1.623,3.746c0,2.743,1.046,4.113,3.14,4.113
				c0.273,0,0.5-0.051,0.683-0.146c0-0.297,0-0.635,0-1.026c0-1.563,0.738-2.345,2.214-2.345c1.377,0,2.067,0.734,2.067,2.206
				c0,2.349-1.374,3.528-4.121,3.528c-1.669,0-3.043-0.615-4.122-1.838c-1.08-1.228-1.619-2.671-1.619-4.339
				c0-1.957,0.711-3.649,2.137-5.068c1.423-1.423,3.118-2.135,5.085-2.135c2.554,0,4.716,1.007,6.484,3.02
				c1.768,2.01,2.653,4.29,2.653,6.842c0,3.436-1.329,6.256-3.985,8.463c-2.656,2.208-5.755,3.311-9.295,3.311
				c-6.59,0-12.345-3.242-17.263-9.727c-4.034-5.306-6.788-11.646-8.264-19.015l-4.837-24.891c-2.338,0.687-5.068,1.228-8.185,1.619
				v27.682c0,2.849,0.771,4.812,2.315,5.891v0.147c-1.865-0.788-4.125-1.179-6.774-1.179c-2.554,0-4.762,0.343-6.627,1.029
				l-0.147-0.146c1.578-0.983,2.365-2.896,2.365-5.745v-77.459c0-2.849-0.788-4.76-2.365-5.743l0.147-0.147
				c1.865,0.688,4.074,1.031,6.627,1.031c2.649,0,4.909-0.343,6.774-1.031v0.147c-1.544,0.983-2.315,2.895-2.315,5.743v40.497
				c2.937-0.49,5.435-1.128,7.491-1.913c8.715-3.243,13.072-10.51,13.072-21.803c0-7.069-2.257-13.229-6.773-18.486
				c-4.515-5.253-10.206-7.881-17.076-7.881c-4.024,0-7.656,1.18-10.894,3.537c-3.534,2.557-5.644,5.75-6.331,9.582
				c-0.098,0.788-0.049,1.474,0.146,2.065l-0.295,0.146c-2.159-5.103-5.644-8.592-10.455-10.455l0.147-0.147
				c0.195,0,0.393,0,0.589,0c1.472,0,3.042-0.937,4.713-2.805C89.212,259.534,96.773,256.039,105.511,256.039 M105.511,255.789
				c-8.771,0-16.464,3.555-22.865,10.566c-1.617,1.808-3.14,2.723-4.528,2.723h-0.589h-0.104l-0.073,0.073l-0.147,0.147
				l-0.271,0.271l0.358,0.138c4.721,1.829,8.191,5.301,10.314,10.319l0.104,0.244l0.238-0.117l0.295-0.146l0.195-0.096l-0.068-0.207
				c-0.183-0.552-0.228-1.21-0.136-1.956c0.669-3.734,2.766-6.905,6.229-9.41c3.181-2.316,6.796-3.49,10.747-3.49
				c6.76,0,12.442,2.622,16.887,7.794c4.454,5.185,6.712,11.35,6.712,18.323c0,11.125-4.343,18.381-12.91,21.569
				c-1.964,0.75-4.369,1.372-7.153,1.852v-40.201c0-2.741,0.74-4.603,2.2-5.532l0.116-0.074v-0.137v-0.147v-0.359l-0.336,0.125
				c-1.826,0.674-4.076,1.016-6.688,1.016c-2.514,0-4.715-0.342-6.541-1.016l-0.15-0.056l-0.113,0.113l-0.147,0.147l-0.223,0.223
				l0.267,0.167c1.491,0.929,2.248,2.79,2.248,5.531v77.459c0,2.742-0.756,4.604-2.248,5.533l-0.269,0.167l0.225,0.223l0.147,0.146
				l0.113,0.111l0.149-0.055c1.828-0.673,4.028-1.014,6.541-1.014c2.61,0,4.856,0.39,6.677,1.159l0.347,0.146v-0.377v-0.147v-0.13
				l-0.107-0.075c-1.465-1.023-2.208-2.937-2.208-5.686v-27.461c2.906-0.374,5.508-0.887,7.742-1.523l4.785,24.622
				c1.478,7.377,4.273,13.809,8.31,19.118c4.944,6.52,10.819,9.825,17.462,9.825c3.585,0,6.767-1.133,9.455-3.368
				c2.705-2.247,4.076-5.159,4.076-8.655c0-2.601-0.914-4.958-2.716-7.007c-1.81-2.06-4.055-3.104-6.672-3.104
				c-2.026,0-3.796,0.743-5.262,2.208c-1.466,1.46-2.21,3.225-2.21,5.245c0,1.721,0.565,3.236,1.681,4.504
				c1.126,1.276,2.576,1.923,4.31,1.923c2.9,0,4.371-1.271,4.371-3.778c0-1.606-0.801-2.456-2.317-2.456
				c-1.612,0-2.464,0.897-2.464,2.595v0.86c-0.125,0.041-0.27,0.062-0.433,0.062c-1.944,0-2.89-1.264-2.89-3.863
				c0-1.392,0.52-2.591,1.545-3.564c1.029-0.979,2.262-1.475,3.665-1.475c1.881,0,3.53,0.812,4.899,2.413
				c1.38,1.611,2.08,3.437,2.08,5.427c0,2.558-0.964,4.722-2.865,6.431c-1.91,1.714-4.185,2.583-6.763,2.583
				c-8.472,0-14.342-8.755-17.449-26.022l-5.275-29.017c8.002-6.015,12.059-15.17,12.059-27.217c0-9.348-3.093-17.63-9.192-24.616
				C122.568,259.337,114.774,255.789,105.511,255.789L105.511,255.789z"/>
		</g>
	</g>
	<g>
		<g>
			<path fill="#231F20" d="M351.57,375.603c-6.364,0-11.893-2.261-16.434-6.721c-4.54-4.46-6.842-9.951-6.842-16.321
				c0-5.863,1.937-10.989,5.757-15.234c3.822-4.252,8.732-6.408,14.596-6.408c4.34,0,8.156,1.558,11.344,4.629
				c3.191,3.069,4.81,6.79,4.81,11.061c0,2.983-0.735,5.623-2.186,7.848c-1.711,2.494-4.058,3.757-6.976,3.757
				c-1.635,0-3.14-0.546-4.473-1.623c-1.339-1.085-2.018-2.514-2.018-4.247c0-2.285,0.903-3.443,2.686-3.443
				c1.611,0,2.428,0.817,2.428,2.43c0,1.393-0.693,2.203-2.061,2.411c0.128,1.65,1.252,2.454,3.433,2.454
				c2.233,0,4.039-1.054,5.366-3.132c1.084-1.755,1.634-3.836,1.634-6.183c0-3.854-1.441-7.127-4.284-9.727
				c-2.848-2.602-6.242-3.921-10.092-3.921c-4.944,0-9.129,1.85-12.437,5.497c-3.313,3.65-4.993,8.055-4.993,13.093
				c0,5.201,1.893,9.797,5.625,13.661c3.73,3.86,8.257,5.817,13.453,5.817c6.121,0,11.095-2.125,14.785-6.315
				c3.524-3.945,5.312-9.094,5.312-15.305c0-6.545-2.6-12.333-7.727-17.203c-4.832-3.806-9.626-7.578-14.379-11.309
				c-5.187-4.587-7.813-9.795-7.813-15.486c0-4.673,1.574-8.807,4.679-12.287c3.103-3.486,7.008-5.34,11.607-5.512
				c2.809,0,6.297,1.071,10.375,3.183c1.161,0.579,2.385,0.873,3.634,0.873c0.744,0,1.412-0.125,1.985-0.373l0.079-0.034
				l0.283,0.288l-0.106,0.087c-4.026,3.27-6.408,7.393-7.08,12.254l-0.015,0.108h-0.353l-0.006-0.119
				c-0.085-1.725-1.031-3.205-2.81-4.399c-1.794-1.206-3.59-1.817-5.338-1.817c-2.241,0-4.027,0.755-5.312,2.244
				c-1.288,1.495-1.941,3.392-1.941,5.638c0,3.25,2.425,6.811,7.206,10.582c7.44,5.91,11.986,9.808,13.512,11.585
				c4.834,5.676,7.284,12.459,7.284,20.163c0,7.623-2.45,14.11-7.282,19.281C365.48,372.852,359.115,375.603,351.57,375.603z"/>
			<path fill="#FFFFFF" d="M356.376,288.008c2.801,0,6.236,1.058,10.312,3.169c1.188,0.592,2.418,0.887,3.691,0.887
				c0.762,0,1.441-0.127,2.035-0.383l0.127,0.129c-4.071,3.307-6.445,7.415-7.125,12.334h-0.124
				c-0.088-1.773-1.041-3.272-2.865-4.497c-1.823-1.226-3.624-1.838-5.407-1.838c-2.289,0-4.092,0.763-5.406,2.287
				c-1.315,1.526-1.972,3.434-1.972,5.72c0,3.306,2.418,6.867,7.254,10.68c7.468,5.932,11.966,9.787,13.494,11.567
				c4.836,5.679,7.254,12.373,7.254,20.082c0,7.63-2.418,14.026-7.249,19.196c-5.006,5.424-11.279,8.136-18.825,8.136
				c-6.36,0-11.809-2.229-16.346-6.685c-4.536-4.456-6.805-9.865-6.805-16.232c0-5.856,1.907-10.908,5.725-15.15
				c3.816-4.246,8.649-6.367,14.503-6.367c4.325,0,8.079,1.531,11.257,4.594c3.183,3.061,4.771,6.718,4.771,10.971
				c0,2.976-0.724,5.568-2.165,7.779c-1.694,2.469-3.988,3.7-6.871,3.7c-1.612,0-3.077-0.531-4.395-1.596
				c-1.312-1.063-1.971-2.445-1.971-4.149c0-2.211,0.852-3.318,2.561-3.318c1.533,0,2.303,0.767,2.303,2.305
				c0,1.363-0.69,2.133-2.067,2.303c0.087,1.792,1.273,2.688,3.564,2.688c2.289,0,4.112-1.062,5.472-3.189
				c1.101-1.782,1.653-3.868,1.653-6.25c0-3.91-1.441-7.182-4.325-9.818c-2.883-2.635-6.275-3.954-10.176-3.954
				c-5.004,0-9.182,1.847-12.529,5.538c-3.351,3.691-5.025,8.083-5.025,13.177c0,5.26,1.887,9.842,5.66,13.748
				c3.772,3.903,8.286,5.855,13.543,5.855c6.188,0,11.148-2.121,14.879-6.357c3.56-3.984,5.343-9.115,5.343-15.388
				c0-6.609-2.589-12.376-7.766-17.294c-4.841-3.813-9.635-7.586-14.388-11.316c-5.177-4.578-7.766-9.706-7.766-15.387
				c0-4.66,1.548-8.729,4.647-12.204C347.952,290,351.794,288.179,356.376,288.008 M356.376,287.758h-0.005h-0.005
				c-4.635,0.173-8.57,2.042-11.695,5.554c-3.126,3.504-4.711,7.666-4.711,12.37c0,5.728,2.642,10.968,7.85,15.575
				c4.765,3.739,9.559,7.512,14.399,11.325c5.083,4.831,7.67,10.589,7.67,17.098c0,6.179-1.776,11.3-5.279,15.221
				c-3.666,4.164-8.609,6.274-14.692,6.274c-5.161,0-9.657-1.944-13.363-5.779c-3.709-3.84-5.59-8.406-5.59-13.574
				c0-5.006,1.669-9.383,4.961-13.009c3.283-3.62,7.437-5.456,12.344-5.456c3.817,0,7.184,1.309,10.007,3.889
				c2.816,2.575,4.244,5.816,4.244,9.634c0,2.323-0.544,4.382-1.616,6.119c-1.319,2.064-3.04,3.07-5.259,3.07
				c-2.051,0-3.132-0.729-3.297-2.226c1.343-0.246,2.05-1.11,2.05-2.515c0-1.671-0.883-2.555-2.553-2.555
				c-1.282,0-2.811,0.619-2.811,3.568c0,1.772,0.694,3.234,2.063,4.344c1.356,1.096,2.888,1.651,4.552,1.651
				c2.962,0,5.343-1.281,7.077-3.809c1.467-2.25,2.209-4.913,2.209-7.921c0-4.306-1.631-8.058-4.849-11.151
				c-3.21-3.094-7.056-4.663-11.43-4.663c-5.9,0-10.842,2.17-14.688,6.45c-3.842,4.269-5.789,9.422-5.789,15.317
				c0,6.405,2.314,11.927,6.88,16.411c4.564,4.482,10.123,6.756,16.521,6.756c7.582,0,13.978-2.765,19.009-8.216
				c4.854-5.194,7.315-11.711,7.315-19.366c0-7.734-2.461-14.546-7.313-20.244c-1.531-1.784-6.083-5.687-13.529-11.601
				c-4.751-3.747-7.159-7.274-7.159-10.485c0-2.216,0.643-4.085,1.911-5.557c1.259-1.46,3.014-2.2,5.217-2.2
				c1.724,0,3.495,0.604,5.268,1.795c1.745,1.171,2.672,2.619,2.755,4.302l0.012,0.238h0.238h0.124h0.218l0.03-0.216
				c0.667-4.829,3.034-8.925,7.034-12.174l0.214-0.173l-0.193-0.196l-0.127-0.129l-0.12-0.122l-0.156,0.068
				c-0.559,0.24-1.21,0.362-1.937,0.362c-1.229,0-2.435-0.29-3.58-0.86C362.708,288.834,359.199,287.758,356.376,287.758
				L356.376,287.758z"/>
		</g>
	</g>
	<g>
		<g>
			<path fill="#231F20" d="M290.806,359.821l0.059-0.037c1.32-0.816,1.99-2.442,1.99-4.831v-36.961
				c-1.746,0.247-3.494,0.372-5.199,0.372c-6.846,0-12.719-2.099-17.456-6.239c-5.077-4.309-7.651-9.881-7.651-16.563
				c0-4.575,1.611-8.546,4.789-11.804c3.175-3.263,7.105-4.917,11.681-4.917c3.393,0,6.405,1.226,8.954,3.643
				c2.551,2.421,3.844,5.37,3.844,8.766c0,2.293-0.646,4.403-1.922,6.271c-1.286,1.884-3.066,2.839-5.293,2.839
				c-1.291,0-2.49-0.454-3.564-1.35c-1.078-0.907-1.624-2.021-1.624-3.314c0-1.757,0.77-2.648,2.289-2.648
				c1.268,0,1.91,0.678,1.91,2.014c0,0.946-0.473,1.57-1.405,1.856c0.271,1.126,1.134,1.675,2.634,1.675
				c3.399,0,5.052-2.441,5.052-7.463c0-2.732-1.115-5.168-3.315-7.238c-2.203-2.076-4.707-3.128-7.443-3.128
				c-4.084,0-7.548,1.457-10.295,4.33c-2.749,2.874-4.142,6.402-4.142,10.488c0,5.419,2.246,9.943,6.674,13.445
				c4.099,3.258,8.98,4.91,14.508,4.91c2.331,0,4.677-0.247,6.977-0.734v-48.943c0-2.473-0.667-4.099-1.984-4.83l-0.064-0.036
				v-0.511l0.171,0.067c1.67,0.659,3.572,0.993,5.653,0.993c2.251,0,4.198-0.334,5.785-0.992l0.078-0.033l0.29,0.297l-0.128,0.083
				c-1.396,0.901-2.103,2.57-2.103,4.961v45.905c5.785-3.094,9.894-7.43,12.214-12.892l-0.01-33.013c0-2.392-0.673-4.02-1.999-4.838
				l-0.099-0.061l0.234-0.454l0.106,0.044c1.585,0.658,3.486,0.992,5.651,0.992c2.251,0,4.197-0.334,5.785-0.992l0.173-0.072v0.379
				l-0.054,0.037c-1.294,0.899-1.95,2.569-1.95,4.964v62.689c0,2.396,0.656,4.067,1.95,4.964l0.054,0.037v0.381l-0.173-0.071
				c-1.58-0.65-3.526-0.98-5.785-0.98c-2.173,0-4.074,0.33-5.651,0.98l-0.107,0.044l-0.233-0.459l0.099-0.061
				c1.326-0.813,1.999-2.438,1.999-4.83v-18.065c-3.33,3.093-7.434,5.538-12.204,7.27v38.798c0,2.388,0.706,4.013,2.099,4.83
				l0.137,0.08l-0.29,0.301l-0.076-0.027c-1.584-0.568-3.533-0.856-5.791-0.856c-2.088,0-3.992,0.288-5.659,0.857l-0.166,0.057
				V359.821z"/>
			<path fill="#FFFFFF" d="M322.483,259.064v0.127c-1.336,0.928-2.004,2.616-2.004,5.066v62.689c0,2.447,0.668,4.141,2.004,5.066
				v0.129c-1.605-0.661-3.549-0.99-5.833-0.99c-2.194,0-4.097,0.329-5.699,0.99l-0.129-0.254c1.374-0.843,2.059-2.489,2.059-4.937
				v-18.354c-3.39,3.208-7.54,5.697-12.454,7.47v38.886c0,2.448,0.719,4.092,2.16,4.938l-0.124,0.129
				c-1.605-0.576-3.549-0.864-5.833-0.864c-2.109,0-4.012,0.288-5.699,0.864v-0.129c1.367-0.846,2.049-2.489,2.049-4.938v-37.105
				c-1.773,0.258-3.551,0.392-5.324,0.392c-6.846,0-12.64-2.07-17.374-6.208c-5.076-4.309-7.608-9.796-7.608-16.469
				c0-4.56,1.582-8.466,4.753-11.717c3.164-3.252,7.03-4.88,11.592-4.88c3.378,0,6.333,1.204,8.868,3.608
				c2.538,2.409,3.805,5.301,3.805,8.675c0,2.277-0.634,4.346-1.9,6.201c-1.269,1.858-2.998,2.784-5.19,2.784
				c-1.267,0-2.427-0.439-3.484-1.321c-1.052-0.885-1.579-1.958-1.579-3.218c0-1.686,0.723-2.523,2.164-2.523
				c1.19,0,1.785,0.631,1.785,1.889c0,0.926-0.477,1.515-1.428,1.769c0.251,1.255,1.182,1.888,2.781,1.888
				c3.452,0,5.177-2.528,5.177-7.588c0-2.779-1.116-5.223-3.354-7.329c-2.236-2.107-4.749-3.162-7.528-3.162
				c-4.141,0-7.6,1.455-10.386,4.368s-4.177,6.438-4.177,10.574c0,5.483,2.24,9.999,6.722,13.542
				c4.143,3.293,9.006,4.938,14.586,4.938c2.367,0,4.734-0.249,7.102-0.758v-49.044c0-2.533-0.682-4.18-2.049-4.939v-0.254
				c1.688,0.666,3.59,1.002,5.699,1.002c2.284,0,4.228-0.336,5.833-1.002l0.124,0.127c-1.441,0.931-2.16,2.616-2.16,5.066v46.113
				c5.93-3.125,10.084-7.472,12.454-13.051v-33.062c0-2.45-0.685-4.097-2.059-4.944l0.129-0.249
				c1.603,0.666,3.505,1.002,5.699,1.002C318.935,260.066,320.878,259.73,322.483,259.064 M322.733,258.689l-0.346,0.144
				c-1.572,0.652-3.503,0.983-5.737,0.983c-2.148,0-4.034-0.331-5.604-0.983l-0.212-0.088l-0.105,0.204l-0.129,0.249l-0.106,0.206
				l0.197,0.122c1.287,0.794,1.939,2.386,1.939,4.731v33.01c-2.288,5.356-6.308,9.621-11.954,12.686v-45.696
				c0-2.346,0.688-3.98,2.046-4.856l0.257-0.166l-0.214-0.219l-0.124-0.127l-0.118-0.121l-0.156,0.065
				c-1.572,0.652-3.502,0.983-5.737,0.983c-2.065,0-3.952-0.331-5.607-0.984l-0.342-0.135v0.368v0.254v0.147l0.128,0.072
				c1.274,0.708,1.92,2.296,1.92,4.721V313.1c-2.259,0.471-4.563,0.71-6.852,0.71c-5.499,0-10.354-1.643-14.43-4.883
				c-4.398-3.478-6.627-7.968-6.627-13.347c0-4.052,1.382-7.552,4.107-10.401c2.723-2.847,6.157-4.291,10.205-4.291
				c2.703,0,5.178,1.041,7.357,3.094c2.174,2.045,3.276,4.45,3.276,7.147c0,4.938-1.611,7.338-4.927,7.338
				c-1.381,0-2.196-0.481-2.483-1.468c0.904-0.318,1.379-0.984,1.379-1.938c0-1.399-0.704-2.139-2.035-2.139
				c-1.101,0-2.414,0.481-2.414,2.773c0,1.331,0.561,2.478,1.668,3.409c1.099,0.916,2.325,1.38,3.646,1.38
				c2.271,0,4.086-0.974,5.397-2.893c1.29-1.89,1.944-4.023,1.944-6.342c0-3.431-1.306-6.411-3.883-8.856
				c-2.572-2.44-5.614-3.677-9.04-3.677c-4.611,0-8.572,1.667-11.771,4.956c-3.201,3.282-4.824,7.282-4.824,11.891
				c0,6.72,2.589,12.325,7.697,16.66c4.757,4.158,10.658,6.268,17.536,6.268c1.665,0,3.37-0.119,5.074-0.354v36.817
				c0,2.343-0.649,3.933-1.93,4.725l-0.119,0.073v0.14v0.129v0.35l0.331-0.113c1.654-0.564,3.544-0.851,5.619-0.851
				c2.244,0,4.178,0.286,5.749,0.85l0.152,0.055l0.112-0.117l0.124-0.129l0.22-0.228l-0.273-0.161
				c-1.352-0.793-2.037-2.382-2.037-4.722v-38.711c4.651-1.699,8.669-4.076,11.954-7.071v17.78c0,2.345-0.652,3.935-1.939,4.724
				l-0.196,0.12l0.104,0.206l0.129,0.254l0.104,0.206l0.214-0.088c1.562-0.645,3.447-0.972,5.604-0.972
				c2.242,0,4.173,0.327,5.738,0.972l0.345,0.142v-0.373v-0.129v-0.131l-0.107-0.074c-1.259-0.872-1.896-2.508-1.896-4.861v-62.689
				c0-2.352,0.638-3.987,1.896-4.861l0.107-0.075v-0.131v-0.127V258.689L322.733,258.689z"/>
		</g>
	</g>
	<text transform="matrix(1 0 0 1 192.0957 389.3867)" fill="#231F20" font-family="'LHFBillhead1910'" font-size="35.3378">Est. 1842</text>
</g>
</svg>
