<?xml version="1.0" encoding="utf-8"?>
<!-- Generator: Adobe Illustrator 16.0.4, SVG Export Plug-In . SVG Version: 6.00 Build 0)  -->
<!DOCTYPE svg PUBLIC "-//W3C//DTD SVG 1.1//EN" "http://www.w3.org/Graphics/SVG/1.1/DTD/svg11.dtd">
<svg version="1.1" id="Layer_1" xmlns="http://www.w3.org/2000/svg" xmlns:xlink="http://www.w3.org/1999/xlink" x="0px" y="0px"
	 width="100px" height="100px" viewBox="0 0 100 100" enable-background="new 0 0 100 100" xml:space="preserve">
<g id="Layer_2" display="none">
</g>
<rect fill="#2B3743" width="100" height="100"/>
<g>
	<g>
		<path fill="#F8E9D6" d="M27.706,53.315l0.462,0.816c-0.191,0.524,0.106,0.929,0.9,1.214l-0.041,0.119
			c-0.057,0.151-0.187,0.192-0.384,0.122l-0.083,0.223c0.326,0.117,0.408,0.494,0.262,1.124c0.161,0.183,0.213,0.333,0.17,0.45
			l-0.122,0.333c-0.028,0.075-0.069,0.117-0.115,0.097c-0.087,0.735,0.032,1.172,0.369,1.288c0.044,0.337,0.021,0.639-0.067,0.876
			c-0.474,0.216-1.213,0.323-2.229,0.341c-1.926,0.389-3.456,1.28-4.601,2.689c-0.281,0.299-0.698,0.823-1.261,1.585l-0.037,0.113
			c0.478,0.071,0.777,0.1,0.896,0.083c0.046,0.017,0.061,0.062,0.031,0.133c0.1,0.035,0.165,0.021,0.191-0.051
			c1.619,0.587,2.753,1.643,3.391,3.155c0.557,0.27,0.998,2.054,1.317,5.359c-0.073,0.192-0.073,0.885,0.003,2.063
			c-0.04,0.565-0.118,1.01-0.234,1.326c-0.398,1.081-1.031,1.82-1.915,2.25l-0.228-0.083l0.126-0.334
			c-0.284-0.104-1.039,0.268-2.252,1.103l-0.15-0.061l-0.105-0.157c-0.036,0.087-0.318,0.248-0.844,0.458l-0.372-0.137l-0.779-0.163
			l0.079-0.222c-0.208-0.075-1.008-0.196-2.391-0.354l-0.039,0.112c0.442,0.161,0.649,0.281,0.624,0.351l0.191-0.057l0.221,0.085
			l-0.125,0.341l-0.595-0.218c-0.05-0.018-0.06-0.063-0.031-0.142L17.75,79.61c-0.633-0.234-0.963-0.474-0.989-0.751l0.123-0.344
			c-0.751-0.273-1.444-1.135-2.083-2.564c-0.688-1.657-0.857-2.968-0.511-3.913l0.189-0.049l0.37,0.132
			c0.484,0.712,0.77,1.238,0.853,1.593l0.071,0.029c0.082-0.22,0.18-0.326,0.274-0.291c-0.265,0.719,0.205,1.361,1.396,1.934
			c0.785,0.199,2.008,0,3.667-0.594c1.077-0.718,1.91-1.619,2.497-2.683l0.037-0.111l-0.738-0.273l-3.182-0.26
			c-0.151-0.059-0.334-0.085-0.559-0.085c-0.842-0.305-1.348-1.004-1.508-2.096c-0.09-0.031-0.178-0.614-0.276-1.771
			c-0.646-2.372-0.833-3.944-0.557-4.692l0.084-0.232c0.389-1.054,0.729-1.53,1.026-1.417l0.226,0.083
			c0.376-0.396,1.075-1.301,2.083-2.712c0.271,0.019,0.511-0.108,0.726-0.372l0.131-0.593l0.124-0.342
			c1.102-1.085,1.771-1.624,2.011-1.582l0.039-0.113l-0.219-0.077c-0.031,0.073-0.067,0.099-0.117,0.083l0.008-0.247
			c0.903-0.334,1.379-0.551,1.412-0.644l-0.229-0.076c0.502-0.435,1.351-0.769,2.55-0.994l0.046-0.12l-0.074-0.026
			c-0.062-0.025-0.354,0.005-0.868,0.072l0.041-0.106C25.909,53.167,26.537,53.144,27.706,53.315z"/>
		<path fill="#F8E9D6" d="M81.779,76.446c-0.669,1.18-0.433,0.665-0.631,0.819c0,0.168-0.034,0.292-0.109,0.377v0.062l0.063,0.108
			l0.266-0.108l0.048,0.108c-0.164,0.087-0.328,0.225-0.487,0.423v0.062c0.128-0.07,0.22-0.107,0.282-0.107v0.045
			c-0.292,0.364-0.83,0.546-1.624,0.546h-0.107c-0.637-0.147-1.191-0.47-1.676-0.969l-1.469-1.141
			c-0.832-0.706-1.252-1.683-1.252-2.923c-0.026,0-0.043-0.213-0.043-0.638v-0.329c0-1.084-0.122-2.265,0.595-3.419
			c0.354-0.963,1.41-1.472,2.582-2.745c0.863-0.895,1.892-2.033,2.712-2.335l0.526,0.359c0.51,0,0.463-0.18,0.463,0.188
			c0.113,0,0.287,0.272,0.527,0.815v0.155c-0.027,0.146-0.104,0.218-0.217,0.218v0.17c0.189,0,0.281,0.033,0.281,0.094
			c0,0.074-0.07,0.106-0.22,0.106v0.177c0.387,0.415,0.694,0.686,0.923,0.813c0,0.144,0.124,0.342,0.374,0.593
			c0.147,0.176,0.271,0.479,0.374,0.923c0.179,0,0.267,0.099,0.267,0.31v0.107c0,0.179-0.015,0.365-0.047,0.546
			c0.032,0.151,0.047,0.271,0.047,0.382l-0.047,0.371h-0.111v-0.047c0-0.332-0.07-0.697-0.219-1.078
			c-0.073,0.013-0.111,0.046-0.111,0.107l0.065,0.205c-0.045,0.068-0.065,0.131-0.065,0.174l0.065,0.107l-0.065,0.109l0.065,0.111
			l-0.065,0.264c0.043,0.251,0.065,0.46,0.065,0.642h-0.062l0.064,0.106v0.333c0,0.122-0.024,0.209-0.064,0.264l0.064,0.329v0.106
			c0,0.138,0.148-0.02,0,0.138l0.444,2.124c0.539,1.982,0.735,2.333,1.319,2.333c0.173,0-0.21,0.372-0.169,0.621
			c0.219,0.107,0.377,0.159,0.48,0.159v0.106h-0.217l-0.109-0.045v0.045l0.064,0.374l-0.174,0.112h-0.155
			c-0.511-0.051-2.052-1.528-3.094-2.442 M81.369,67.857l0.047,0.113c-1.21,1.32-2.146,2.726-2.812,4.219
			c-0.231,0.385-0.441,0.905-0.638,1.56c0,0.042,0.014,0.063,0.043,0.063c-0.074,0.341-0.113,0.83-0.113,1.453v0.221
			c0.117,0.467,0.173,0.74,0.173,0.812c0.294,0,0.781-0.38,1.459-1.143c0.935-1.268,1.545-2.822,1.841-4.652
			c0.103-1.524,0.178-2.354,0.219-2.482c-0.041-0.062-0.062-0.122-0.062-0.163H81.369L81.369,67.857z M81.148,67.426v0.106
			c0.198,0,0.344-0.072,0.439-0.221v-0.106h-0.062C81.348,67.353,81.221,67.426,81.148,67.426z"/>
		<g>
			<path fill="#F8E9D6" d="M36.829,78.938c0.571,0.291,0.379,0.26,0.854,0.62c0.261,0.202,0.245,0.153,0.777,0.702
				c0.302,0.165-0.624-1.768-0.624-1.708c0.386,0.154,0.785,1.835,0.857,1.906l0.155-0.127c0.104-0.302-0.021-0.17,0.511-0.696
				c0,0,0.35-0.276,0.595-0.6c0.244-0.322,1.604-4.173,2.094-5.171c1.103-2.148,1.931-3.564,2.482-4.25
				c0.312-0.71,0.864-1.387,1.657-2.029h0.109l-0.406,3.391c-0.303,1.688-0.453,2.761-0.453,3.231v0.061l-0.047,0.282
				c0.03,0,0.047,0.02,0.047,0.062h-0.047c0,1.262,0.302,2.261,0.906,3.001c0.916,0.791,1.729,1.188,2.438,1.188
				c0.257-0.125,0.387-0.222,0.387-0.283v-0.106l-0.104-0.174v-0.062c0.135,0,0.285-0.111,0.451-0.343h-0.17
				c-0.066,0-0.102,0.041-0.111,0.125c-0.073-0.044-0.131-0.062-0.17-0.062c-0.066-0.532-0.183-0.812-0.348-0.845h-0.215
				c-0.283,0.3-0.432,0.455-0.453,0.455h-0.124c-0.307-0.636-0.457-1.07-0.457-1.312v-0.457c0-0.186,0.1-0.282,0.301-0.282
				c0.146-1.248,0.331-2.305,0.562-3.169c-0.046,0-0.065-0.02-0.065-0.062c0.02,0,0.08-0.149,0.171-0.457
				c0-0.04-0.02-0.096-0.061-0.167l0.126-0.174v-0.107l-0.126-0.174c0.156-0.166,0.235-0.333,0.235-0.502
				c0.112,0.033,0.173,0.143,0.173,0.331l-0.066,0.406c0.046,0,0.066,0.014,0.066,0.044c-0.045,0-0.066,0.02-0.066,0.062v0.174
				l-0.045,0.685c0.029,0,0.045,0.02,0.045,0.052c0.066,0,0.156-0.266,0.281-0.798l-0.045-0.112c0.069,0,0.111-0.125,0.111-0.387
				v-0.282h0.104c0.074-0.145,0.171-0.642,0.281-1.486c-0.031-0.071-0.086-0.372-0.172-0.904c-0.551-1.271-0.946-1.911-1.186-1.922
				c-0.875-1.135-1.442-1.703-1.702-1.703c-0.469-0.344-0.924-0.518-1.36-0.518h-0.156c-0.479,0.201-0.744,0.297-0.796,0.297
				c-0.855,0.364-1.573,1.081-2.158,2.144h-0.108l-0.236-0.175l-0.342,0.062c-0.053,0-0.22-0.126-0.501-0.388h-0.062
				c-0.146,0-0.371,0.51-0.672,1.526h-0.125c0.041-0.323,0.1-0.607,0.171-0.856h-0.11v0.175c-0.259,0.291-0.409,0.535-0.452,0.73
				c-0.156,0.99-0.308,1.488-0.453,1.488c-0.105,0-0.333,0.885-0.688,2.654h-0.109l0.063-0.11v-0.282h-0.125
				c0,0.196-0.094,0.54-0.281,1.017h-0.11v-0.169h-0.108c-0.125,0.676-0.22,1.016-0.281,1.016v-0.109h-0.173
				c-0.042,0.511-0.098,0.984-0.172,1.422c0.042,0,0.063,0.021,0.063,0.063c-0.032,0-0.11,0.394-0.234,1.186v0.171h-0.11v-0.126
				h-0.109v0.456l-0.053,0.244c-0.055-0.056-0.073-0.18-0.157-0.18c-0.583,0-0.943-0.761-1.079-2.28v-0.641
				c0.146-0.157,0.22-0.303,0.22-0.44v-0.104l-0.064-0.33c0.041-0.054,0.064-0.142,0.064-0.264v-0.331l-0.064-0.109h0.064
				c0-0.181-0.023-0.39-0.064-0.64l0.064-0.266l-0.064-0.109l0.064-0.109l-0.064-0.11c0-0.041,0.02-0.102,0.064-0.172l-0.064-0.204
				c0-0.063,0.036-0.097,0.11-0.107c0.146,0.382,0.22,0.745,0.22,1.078v0.047h0.108l0.048-0.374c0-0.108-0.016-0.229-0.048-0.379
				c0.033-0.184,0.048-0.368,0.048-0.547V70.04c0-0.213-0.089-0.312-0.265-0.312c-0.105-0.441-0.229-0.746-0.376-0.923
				c-0.249-0.248-0.373-0.448-0.373-0.592c-0.23-0.126-0.538-0.397-0.923-0.815v-0.174c0.146,0,0.22-0.034,0.22-0.105
				c0-0.062-0.094-0.096-0.281-0.096v-0.168c0.113,0,0.188-0.074,0.218-0.222v-0.153c-0.24-0.543-0.125-0.543-0.24-0.543
				c0-0.37,0.143-1.392-0.369-1.392H32.97c-0.819,0.304-1.969,1.474-2.833,2.37c-1.17,1.271-1.93,2.379-2.281,3.346
				c-0.718,1.155-1.08,2.273-1.08,3.356v0.33c0,0.424,0.015,0.637,0.046,0.637c0,1.238,0.416,2.217,1.25,2.923l1.469,1.141
				c0.481,0.501,1.04,0.823,1.673,0.969h0.11c0.792,0,1.331-0.182,1.622-0.544v-0.046c-0.06,0-0.154,0.035-0.281,0.106v-0.061
				c0.159-0.2,0.32-0.337,0.486-0.425l-0.046-0.106l-0.266,0.106l-0.063-0.106v-0.063c0.073-0.085,0.11-0.209,0.11-0.377
				c0.197-0.154-0.039,0.36,0.63-0.817l-0.436-1.105c0,0,0.502-0.131,1.662,1.15C35.896,78.609,36.829,78.938,36.829,78.938z
				 M33.103,71.336c-0.294,1.831-0.907,3.385-1.843,4.654c-0.677,0.761-1.164,1.144-1.456,1.144c0-0.074-0.055-0.345-0.171-0.814
				v-0.221c0-0.622,0.035-1.111,0.11-1.452c-0.031,0-0.045-0.022-0.045-0.063c0.197-0.654,0.407-1.175,0.639-1.561
				c0.667-1.491,1.602-2.898,2.813-4.219l-0.046-0.112h0.156c0,0.041,0.021,0.099,0.062,0.162
				C33.28,68.983,33.206,69.813,33.103,71.336z M33.321,68.146c-0.095,0.146-0.241,0.22-0.438,0.22v-0.105
				c0.07,0,0.198-0.074,0.375-0.221h0.062V68.146z M37.393,73.753h-0.11c0-0.039-0.02-0.1-0.061-0.171l0.125-0.046h0.047V73.753z"/>
			<rect x="36.767" y="74.61" fill="#F8E9D6" width="0.125" height="0.502"/>
			<rect x="36.658" y="75.52" fill="#F8E9D6" width="0.108" height="0.282"/>
		</g>
		<path fill="#F8E9D6" d="M57.257,64.283l0.493,0.515l-0.076,0.129c0.558,0.253,0.887,0.376,1.003,0.376v0.058
			c-0.096,0.041-0.164,0.062-0.219,0.062c0.287,0.279,0.435,0.434,0.435,0.457l-0.142,0.517c0.213,0.071,0.328,0.151,0.347,0.25
			c-0.091,0.312-0.14,0.525-0.14,0.639l0.14-0.062h0.218c0.075,0,0.146,0.062,0.218,0.186c-0.186,0.064-0.281,0.126-0.281,0.189
			c0.139,0,0.208,0.042,0.208,0.123c0,0.106-0.19,0.166-0.567,0.188c0.281,0.188,0.545,0.467,0.785,0.83
			c0.154,0,0.275,0.13,0.357,0.388c0.377,0.282,0.661,0.793,0.856,1.533c0.305,0,0.495,0.871,0.563,2.61
			c-0.041,0.083-0.063,0.148-0.063,0.189c0,0.123,0.022,0.186,0.063,0.186c-0.041,0.428-0.063,0.745-0.063,0.953v1.986h-0.154
			v-0.126h-0.063l-0.076,0.31v0.326h0.076c0-0.175,0.047-0.26,0.142-0.26c0,0.04,0.027,0.062,0.076,0.062l-0.076,0.123v0.638h-0.142
			V77.16l-0.138,0.062c-0.043-0.178-0.088-0.265-0.145-0.265c0-0.041,0.024-0.102,0.064-0.188l-0.141-1.203h0.076
			c-0.048-0.073-0.076-0.157-0.076-0.265h-0.219c-0.03,0.689-0.076,1.032-0.141,1.032l0.078,0.125c0,0.094-0.027,0.178-0.078,0.249
			l0.078,0.128c-0.062,0.551-0.137,0.887-0.218,1.012l0.078,0.144c-0.324,1.652-0.586,2.478-0.8,2.478
			c-0.226,0-0.46,0.448-0.704,1.332c-0.353,0.614-0.682,1.104-0.997,1.47c-0.966,0.96-1.894,1.508-2.778,1.655v-0.062l-0.144,0.062
			h-0.576c-1.865-0.239-3.034-0.597-3.502-1.079c-1.23-0.855-1.844-1.554-1.844-2.107c0-0.137-0.024-0.24-0.077-0.312
			c0.146-0.782,0.358-1.354,0.64-1.718h0.078c0.095,0,0.14,0.062,0.14,0.185h0.142l0.218-0.123c0,0.104,0.215,0.294,0.641,0.564
			v0.204l-0.078,0.12h0.141l0.359-0.057c0.188,0.16,0.282,0.29,0.282,0.369c0,0.132-0.095,0.531-0.282,1.217
			c0,0.554,0.501,0.873,1.5,0.958c0.156,0,0.276,0.021,0.363,0.061c1.067-0.26,1.802-0.616,2.199-1.08
			c0.7-0.603,1.229-1.43,1.578-2.482c0.336-1.27,0.5-1.968,0.5-2.109h-0.078c-0.113,0.104-0.613,0.36-1.498,0.77v0.124
			c0.239,0,0.355,0.04,0.355,0.125l-0.281,0.197h-0.074l-0.502-0.137c0,0.094-0.046,0.137-0.141,0.137
			c-0.886,0-2.121-0.915-3.702-2.746c-0.96-0.884-1.438-1.778-1.438-2.672c-0.095,0-0.141-0.132-0.141-0.392
			c0.051,0,0.078-0.021,0.078-0.062c-0.085,0-0.178-0.359-0.281-1.075c0.249-0.334,0.39-0.803,0.422-1.406
			c0.188-0.376,0.475-0.801,0.859-1.271c0.083-0.537,0.676-1.323,1.78-2.359c1.2-0.923,1.986-1.396,2.363-1.405l-0.082-0.122
			c-0.7,0.222-1.621,0.794-2.778,1.719h-0.081v-0.062c1.503-1.225,2.771-1.966,3.799-2.237
			C56.451,64.432,56.88,64.306,57.257,64.283z M52.975,74.471v0.456c0,0.594,0.141,0.889,0.421,0.889h0.076
			c1.191,0,2.472-1.188,3.844-3.562c0.484-1.029,0.716-2.032,0.716-2.999v-0.375c0-0.106-0.02-0.191-0.076-0.265
			c0.057-0.087,0.076-0.146,0.076-0.188l-0.136-0.062c-0.812,0.272-1.838,1.013-3.077,2.233
			C53.586,71.919,52.975,73.211,52.975,74.471z M61.176,76.003v0.392l0.142-0.062c-0.055-0.072-0.079-0.185-0.079-0.33H61.176z"/>
		<path fill="#F8E9D6" d="M70.174,52.472h0.455c0.187,0.22,0.362,0.348,0.529,0.391c-0.248,0.769-0.515,2.155-0.796,4.153
			c-0.167,0.542-0.476,2.258-0.922,5.142c-0.354,1.605-0.594,2.633-0.721,3.078c0.336-0.321,1.035-0.554,2.113-0.685l0.122,0.076
			l0.142-0.076c0.572,0,1.188,0.306,1.846,0.92c0.497,0.249,1.005,1.074,1.515,2.471l-0.063,0.153
			c0.086,0.24,0.15,0.548,0.201,0.919l-0.264,3.3l0.062,0.157c-0.049,0.519-0.118,0.957-0.186,1.311l0.06,0.157l-0.327,2.079v0.296
			h-0.139v-0.222c0-0.212,0.017-0.425,0.058-0.625c-0.042-0.198-0.058-0.398-0.058-0.606h-0.188c0,0.104-0.032,0.154-0.078,0.154
			c0,0.055,0.023,0.08,0.078,0.08c-0.126,1.28-0.305,2.049-0.531,2.298c0,0.104-0.05,0.285-0.141,0.544
			c-0.753-0.156-1.13-0.358-1.13-0.619c0.022-0.515,0.069-0.769,0.145-0.769c0-0.062-0.108-0.189-0.329-0.374l0.062-0.156
			l-0.062-0.157c0.072-0.315,0.135-0.469,0.187-0.469l-0.063-0.156c0.492-1.77,0.739-3.976,0.739-6.61v-0.074
			c0-0.489-0.092-0.901-0.263-1.238c-0.584,0-1.429,0.515-2.518,1.551c0,0.102-0.268,0.407-0.799,0.919
			c-1.097,1.303-1.642,2.249-1.642,2.842c-0.041,0-0.064,0.028-0.064,0.079h0.064c1.178-1.77,2.275-3.076,3.297-3.92
			c0.377-0.26,0.595-0.392,0.66-0.392l0.074,0.159c-1.283,1.295-1.922,1.991-1.922,2.074c-0.835,0.98-1.247,1.596-1.247,1.845
			c-0.148,0-0.54,0.642-1.188,1.92c-0.221,0.421-0.754,1.882-1.599,4.392h-0.062c0-0.169-0.238-0.319-0.717-0.469v-0.221
			c-0.051,0-0.119,0.027-0.2,0.082c-0.2,0-0.617-0.336-1.248-1c-0.711-0.312-1.265-0.779-1.66-1.392v-0.155
			c0.313-0.543,0.775-1.929,1.393-4.158l0.918-4.157l0.127,0.084h0.08c0-0.271,0.041-0.501,0.122-0.692l-0.062-0.153
			c0.124-0.239,0.322-1.134,0.594-2.69c0.395-0.502,0.861-2.346,1.389-5.544h0.19l-0.062,0.387l0.126,0.534l-0.188,1.393h0.122
			c0.114-0.981,0.224-1.468,0.329-1.468h0.08l0.123,0.075c-0.137,0.755-0.269,1.265-0.391,1.546h0.06
			c0.171-0.27,0.475-1.372,0.924-3.31c0.126,0,0.215-0.179,0.265-0.531c0.148-0.104,0.275-0.158,0.39-0.158l0.146,0.081
			l-0.063,0.152v0.145c0.238-0.471,0.587-1.697,1.044-3.688l0.267-0.769h0.141v0.156h0.127
			C69.645,52.601,69.82,52.472,70.174,52.472z M65.084,76.018c0,0.091-0.085,0.321-0.254,0.686l0.127,0.08
			c0-0.18,0.064-0.408,0.201-0.691v-0.074H65.084z M66.614,73.858c0.113,0,0.198-0.252,0.245-0.764
			C66.767,73.095,66.688,73.353,66.614,73.858z"/>
	</g>
	<g>
		<path fill="#F6E8D5" d="M49.666,37.02c0.183-3.107,1.01-7.588,4.005-10.581c0.795-0.797,1.696-1.438,2.648-1.958
			c-1.656-5.421-6.653-9.405-6.653-9.405s-4.999,3.984-6.655,9.405c0.954,0.519,1.854,1.161,2.651,1.958
			C48.656,29.432,49.483,33.913,49.666,37.02z"/>
		<path fill="#F6E8D5" d="M52.004,38.387c2.31-2.092,6.146-4.807,10.488-4.807c1.114,0,2.194,0.179,3.225,0.48
			c2.808-5.037,2.068-11.584,2.068-11.584s-6.445-0.728-11.466,2.005c0.329,1.076,0.526,2.209,0.526,3.379
			C56.846,32.226,54.1,36.081,52.004,38.387z"/>
		<path fill="#F6E8D5" d="M47.326,38.387c-2.097-2.307-4.843-6.161-4.843-10.526c0-1.17,0.198-2.303,0.527-3.379
			c-5.021-2.732-11.467-2.005-11.467-2.005s-0.739,6.547,2.069,11.584c1.031-0.302,2.112-0.48,3.226-0.48
			C41.18,33.579,45.017,36.295,47.326,38.387z"/>
		<path fill="#F6E8D5" d="M65.717,34.06c-0.505,0.91-1.127,1.77-1.891,2.534c-4.605,4.604-13.994,4.174-13.994,4.174l-0.122-0.007
			c0,0,5.724,7.182,12.783,7.182s12.783-7.182,12.783-7.182S71.216,35.667,65.717,34.06z"/>
		<path fill="#F6E8D5" d="M35.506,36.594c-0.764-0.764-1.386-1.624-1.893-2.534c-5.499,1.607-9.558,6.701-9.558,6.701
			s5.724,7.181,12.784,7.181s12.783-7.181,12.783-7.181l-0.187,0.006C49.436,40.768,40.111,41.198,35.506,36.594z"/>
	</g>
</g>
</svg>
