<?xml version="1.0" encoding="utf-8"?>
<!-- Generator: Adobe Illustrator 16.0.4, SVG Export Plug-In . SVG Version: 6.00 Build 0)  -->
<!DOCTYPE svg PUBLIC "-//W3C//DTD SVG 1.1//EN" "http://www.w3.org/Graphics/SVG/1.1/DTD/svg11.dtd">
<svg version="1.1" id="Layer_1" xmlns="http://www.w3.org/2000/svg" xmlns:xlink="http://www.w3.org/1999/xlink" x="0px" y="0px"
	 width="209.062px" height="293.187px" viewBox="0 0 209.062 293.187" enable-background="new 0 0 209.062 293.187"
	 xml:space="preserve">
<g>
	<g>
		<g id="XMLID_5_">
			<g>
				<polygon fill="#38637C" points="206.437,71.35 206.437,129.45 206.377,129.5 164.887,100.44 164.827,100.4 206.377,71.3 
					206.437,71.34 				"/>
				<polygon fill="#176A95" points="206.377,71.3 164.827,100.4 104.917,58.45 104.917,0.25 				"/>
				<polygon fill="#679ABC" points="164.827,100.4 164.887,100.44 206.377,129.5 145.437,172.17 145.437,114.19 145.437,114.18 
					145.287,114.08 				"/>
				<polygon fill="#679ABC" points="145.437,114.18 145.437,114.19 145.437,172.17 145.287,172.28 145.287,114.08 				"/>
				<polygon fill="#437C93" points="145.287,114.08 145.287,172.28 131.066,162.391 117.377,152.87 117.377,94.37 				"/>
				<polygon fill="#064971" points="104.917,0.25 104.917,58.45 45.017,100.4 3.467,71.3 				"/>
				<polygon fill="#5992AF" points="65.347,114.18 93.397,94.37 93.397,152.87 65.137,172.69 64.997,114.08 65.057,113.99 				"/>
				<polygon fill="#679ABC" points="64.997,114.08 65.137,172.69 3.467,129.5 45.017,100.4 65.057,113.99 				"/>
				<polygon fill="#407FA5" points="45.017,100.4 3.467,129.5 3.397,129.45 3.397,71.34 3.467,71.3 				"/>
			</g>
			<g>
			</g>
		</g>
	</g>
	<text transform="matrix(1 0 0 1 1.249 241.6562)" font-family="'BrandonGrotesque-Bold'" font-size="58.2604">SPACES</text>
	<text transform="matrix(1 0 0 1 0 280.4619)" fill="#166A95" font-family="'BrandonGrotesque-Medium'" font-size="33.4846">REIMAGINED</text>
</g>
</svg>
