<?xml version="1.0" encoding="utf-8"?>
<!-- Generator: Adobe Illustrator 16.0.4, SVG Export Plug-In . SVG Version: 6.00 Build 0)  -->
<!DOCTYPE svg PUBLIC "-//W3C//DTD SVG 1.1//EN" "http://www.w3.org/Graphics/SVG/1.1/DTD/svg11.dtd">
<svg version="1.1" id="Layer_1" xmlns="http://www.w3.org/2000/svg" xmlns:xlink="http://www.w3.org/1999/xlink" x="0px" y="0px"
	 width="646.754px" height="357.009px" viewBox="0 0 646.754 357.009" enable-background="new 0 0 646.754 357.009"
	 xml:space="preserve">
<g>
	<path fill="none" d="M226.969,62.333c-8.852-8.984-19.515-13.479-31.997-13.479c-12.64,0-23.465,4.495-32.469,13.479
		c-4.426,4.574-7.746,9.458-9.957,14.66c-2.211,5.201-3.317,11.036-3.317,17.498c0,12.297,4.422,23.017,13.274,32.159
		c8.845,8.829,19.67,13.241,32.469,13.241c12.641,0,23.304-4.412,31.997-13.241c9.003-8.983,13.508-19.703,13.508-32.159
		C240.477,82.04,235.972,71.32,226.969,62.333z"/>
	<path fill="none" d="M172.251,336.098c12.61,0,23.251-4.412,31.921-13.241c8.983-8.983,13.479-19.702,13.479-32.158
		c0-12.452-4.495-23.172-13.479-32.158c-8.828-8.984-19.469-13.479-31.921-13.479c-12.614,0-23.413,4.494-32.396,13.479
		c-4.416,4.574-7.726,9.459-9.931,14.66c-2.208,5.201-3.311,11.036-3.311,17.498c0,12.297,4.413,23.017,13.241,32.158
		C148.68,331.686,159.479,336.098,172.251,336.098z"/>
	<path d="M261.388,156.578V32.379h-20.911v22.475c-12.311-17.657-28.881-26.488-49.713-26.488c-15.304,0-28.414,4.974-39.339,14.899
		V32.379h-24.841V3.442h-20.911v28.938H80.831v3.286c-8.65-4.693-18.359-7.047-29.131-7.047c-12.775,0-23.809,3.152-33.102,9.452
		C7.607,45.16,2.112,54.688,2.112,66.662c0,15.594,6.897,26.069,20.7,31.423c0.947,0.316,4.621,1.145,11.023,2.485
		c6.403,1.34,15.769,3.268,28.099,5.786c13.908,2.68,20.865,8.112,20.865,16.304c0,11.657-10.33,17.485-30.99,17.485
		c-8.359,0-14.904-1.023-19.633-3.073c-7.729-2.997-11.594-7.805-11.594-14.433H0c0,12.146,5.756,21.862,17.271,29.149
		c5.043,3.01,10.406,5.307,16.083,6.891c5.677,1.584,11.829,2.376,18.456,2.376c6.624,0,12.736-0.789,18.333-2.366
		c5.598-1.578,10.917-3.865,15.954-6.865c11.458-7.257,17.191-16.96,17.191-29.109c0-15.462-6.901-25.875-20.7-31.241
		c-0.792-0.317-4.386-1.145-10.789-2.485c-6.402-1.34-15.766-3.274-28.096-5.798c-14.069-2.684-21.103-8.205-21.103-16.568
		c0-6.152,3.469-10.809,10.41-13.964c5.205-2.366,11.436-3.551,18.689-3.551c7.254,0,13.403,1.185,18.452,3.548
		c6.938,3.155,10.41,7.806,10.41,13.958h20.818c0-4.826-0.936-9.262-2.775-13.322h7.068v144.688h0.031v154.807h20.911l0.086-22.268
		c12.614,17.664,29.168,26.492,49.664,26.492c17.815,0,32.634-6.699,44.462-20.103c11.822-12.928,17.736-28.3,17.736-46.115
		c0-17.657-5.997-33.109-17.987-46.354c-11.677-13.241-26.429-19.864-44.258-19.864c-20.673,0-37.241,8.824-49.703,26.475v-63.861
		h-0.03V53.291h15.722c-9.043,11.96-13.565,25.723-13.565,41.294c0,17.974,5.838,33.346,17.518,46.115
		c11.994,13.403,26.829,20.103,44.505,20.103c20.673,0,37.244-8.828,49.713-26.488v22.264H261.388z M129.925,273.201
		c2.205-5.201,5.515-10.086,9.931-14.66c8.983-8.984,19.782-13.479,32.396-13.479c12.452,0,23.093,4.494,31.921,13.479
		c8.983,8.986,13.479,19.706,13.479,32.158c0,12.456-4.495,23.175-13.479,32.158c-8.67,8.829-19.311,13.241-31.921,13.241
		c-12.772,0-23.571-4.412-32.396-13.241c-8.829-9.142-13.241-19.861-13.241-32.158C126.614,284.237,127.717,278.402,129.925,273.201
		z M226.969,126.65c-8.693,8.829-19.356,13.241-31.997,13.241c-12.798,0-23.624-4.412-32.469-13.241
		c-8.852-9.142-13.274-19.861-13.274-32.159c0-6.462,1.105-12.297,3.317-17.498c2.211-5.202,5.531-10.086,9.957-14.66
		c9.003-8.984,19.829-13.479,32.469-13.479c12.482,0,23.146,4.495,31.997,13.479c9.003,8.986,13.508,19.706,13.508,32.158
		C240.477,106.947,235.972,117.667,226.969,126.65z"/>
	<path d="M285.004,82c0-9.155,3.231-16.967,9.7-23.439c6.465-6.469,14.274-9.707,23.422-9.707c2.205,0,4.254,0.205,6.148,0.614
		c1.891,0.41,3.861,1.027,5.814,1.946V28.889c-1.16-0.381-2.501-0.523-3.92-0.523c-1.264,0-2.525,0-3.786,0
		c-15.3,0-27.759,6.046-37.38,18.132V32.379h-20.488v124.198h20.488V82z"/>
	<polygon points="404.854,28.938 380.012,28.938 380.012,0 359.102,0 359.102,28.938 334.26,28.938 334.26,51.553 359.102,51.553 
		359.102,194.535 380.012,194.535 380.012,51.551 404.854,51.551 	"/>
	<path d="M358.752,250.472c-12.311-17.656-28.881-26.488-49.713-26.488c-17.677,0-32.433,6.624-44.268,19.865
		c-11.838,13.089-17.756,28.538-17.756,46.353c0,17.975,5.838,33.347,17.518,46.116c11.994,13.402,26.829,20.103,44.505,20.103
		c20.674,0,37.244-8.829,49.713-26.488v22.264h20.911V227.998h-20.911V250.472z M345.244,322.268
		c-8.693,8.828-19.357,13.241-31.998,13.241c-12.798,0-23.624-4.413-32.469-13.241c-8.851-9.142-13.274-19.861-13.274-32.158
		c0-6.462,1.106-12.297,3.317-17.499c2.211-5.201,5.531-10.085,9.957-14.659c9.003-8.983,19.829-13.479,32.469-13.479
		c12.482,0,23.146,4.496,31.998,13.479c9.003,8.986,13.508,19.706,13.508,32.158C358.752,302.565,354.247,313.285,345.244,322.268z"
		/>
	<path d="M467.234,286.839c-0.793-0.317-4.387-1.146-10.789-2.485s-15.766-3.274-28.096-5.799
		c-14.069-2.684-21.103-8.205-21.103-16.567c0-6.152,3.469-10.809,10.409-13.964c5.205-2.366,11.436-3.552,18.689-3.552
		c7.255,0,13.403,1.186,18.453,3.549c6.938,3.154,10.408,7.805,10.408,13.957h20.82c0-11.826-5.521-21.351-16.562-28.574
		c-9.62-6.277-20.66-9.42-33.119-9.42c-12.775,0-23.809,3.152-33.102,9.452c-10.99,7.089-16.485,16.617-16.485,28.591
		c0,15.595,6.897,26.069,20.7,31.423c0.947,0.316,4.62,1.146,11.022,2.485c6.403,1.34,15.769,3.267,28.099,5.785
		c13.908,2.68,20.865,8.112,20.865,16.304c0,11.657-10.33,17.485-30.99,17.485c-8.359,0-14.904-1.023-19.634-3.072
		c-7.729-2.997-11.594-7.806-11.594-14.433h-20.581c0,12.146,5.756,21.861,17.271,29.148c5.043,3.01,10.406,5.307,16.083,6.891
		c5.676,1.585,11.828,2.377,18.455,2.377c6.624,0,12.736-0.789,18.334-2.366c5.598-1.578,10.918-3.865,15.953-6.865
		c11.459-7.257,17.191-16.96,17.191-29.108C487.934,302.618,481.033,292.206,467.234,286.839z"/>
	<rect x="498.654" y="227.998" width="20.488" height="124.198"/>
	<path d="M594.234,335.509c-12.775,0-23.58-4.413-32.412-13.241c-8.832-9.142-13.248-19.861-13.248-32.158
		c0-6.462,1.104-12.297,3.311-17.499c2.207-5.201,5.521-10.085,9.938-14.659c8.99-8.983,19.793-13.479,32.412-13.479
		c13.875,0,25.625,5.521,35.248,16.559l17.271-11.119c-6.152-8.178-13.883-14.541-23.186-19.096
		c-9.307-4.555-19.082-6.832-29.334-6.832c-18.297,0-33.895,6.465-46.795,19.393c-12.904,12.931-19.354,28.538-19.354,46.825
		c0,18.133,6.436,33.664,19.311,46.588c13.086,13.09,28.699,19.631,46.838,19.631c10.252,0,20.027-2.337,29.334-7.01
		c9.303-4.674,17.033-11.119,23.186-19.341l-17.271-11.118C619.859,329.991,608.109,335.509,594.234,335.509z"/>
</g>
<g>
	<path fill="#090808" d="M544.999,134.634c-0.246-0.212-0.531-0.401-0.778-0.613c-0.263,0.765-0.595,1.552-0.863,2.352
		c-0.41-0.064-0.824-0.093-1.242-0.123c0.649,1.223,1.521,2.376,1.793,3.752c0.351,1.56,0.549,3.207,0.506,4.812
		c-0.52,4.651-2.464,8.972-4.388,13.193c-0.64,1.161-1.022,2.503-2.042,3.396c-1.732,1.445-2.815,3.415-4.085,5.247
		c0.796-1.944,2.182-3.619,2.475-5.712c2.386-4.673,5.365-9.149,6.63-14.277c-1.586,4.729-3.903,9.205-6.567,13.444
		c-0.131,0.157-0.389,0.467-0.517,0.622c0.177-1.585,0.355-3.17,0.429-4.736c-0.25,0.24-0.498,0.483-0.713,0.728
		c0.541-1.877,0.156-3.9-0.542-5.692c0.35-2.224,1.769-4.105,2.941-5.988c0.273-0.412,0.247-0.908,0.317-1.354
		c-1.334,1.124-1.881,2.827-2.844,4.252c-0.705,1.36-1.768,2.771-1.533,4.42c0.376,2.513,0.603,5.072,0.238,7.612
		c-0.155,0.534-0.503,0.969-0.789,1.452c-0.409-0.521-1.204-0.82-1.119-1.579c-0.09-1.873,0.449-3.749,0.671-5.609
		c0.697-3.535,0.876-7.119,1.258-10.669c0.101-1.072,0.661-1.963,1.245-2.785c-0.351,0.225-0.777,0.475-0.846,0.919
		c-0.799,2.188-0.584,4.606-1.111,6.836c-0.114,4.085-1.469,8.008-1.374,12.088c0.435,0.348,0.755,0.751,1.154,1.13
		c-0.689,1.925-0.875,4.455-3.078,5.303c0.427-2.039,1.258-3.979,1.714-6.005c-0.693,1.747-1.226,3.555-1.754,5.366
		c-0.177,0.918-1.144,1.256-1.782,1.752c-0.292-0.152-0.591-0.266-0.886-0.384c0.22-3.857,0.447-7.748-0.032-11.606
		c-0.145-1.322-0.496-2.64-0.599-3.989c1.625-0.548,3.416-1.006,4.55-2.403c-1.394,1.043-2.935,1.92-4.651,2.144
		c-0.332-0.335-0.627-0.696-0.96-1.031c1.11,2.071,1.264,4.442,1.468,6.719c0.1,2.924,0.088,5.902-0.409,8.84
		c-0.248-1.546,0.07-3.109-0.042-4.635c-0.128-0.756-0.625-1.396-0.936-2.075c-0.634-1.324-1.006-2.75-1.45-4.156
		c-0.223-0.383,0.084-0.754,0.274-1.076c-0.966,0.127-1.447-0.614-1.448-1.493c-0.187,0.077-0.416,0.182-0.604,0.292
		c-0.491-1.13-1.367-2.004-2.253-2.845c0.065-0.198,0.234-0.594,0.298-0.792c-0.12,0.085-0.362,0.292-0.448,0.383
		c-0.885-0.595-1.689-1.281-2.66-1.785c0.292-0.306,0.588-0.609,0.879-0.915c-1.016,0.437-2.082,0.763-3.207,0.548
		c-0.03-0.457-0.065-0.921-0.13-1.388c-0.042,0.485-0.05,0.977-0.09,1.46c-0.589,0.187-1.219,0.371-1.772,0.562
		c-1.449-1.033-1.698-3.035-3.225-4.014c1.092,1.298,1.686,2.896,2.816,4.16c-1.757,0.917-2.926,2.555-4.207,4
		c-0.395,0.956-0.419,2.004-0.91,2.909c0.538-2.968,0.872-5.997,1.244-9.025c0.749-2.546,1.129-5.188,1.881-7.733
		c0.338-1.034,0.009-2.277-0.954-2.85c-2.549-1.626-3.851-4.495-4.822-7.243c-3.323,2.422-4.777,6.54-5.054,10.529
		c-0.419,6,0.502,11.964,1.073,17.906c0.134,0.935-0.185,1.865-0.055,2.798c0.265,2.567,0.175,5.146,0.33,7.728
		c-1.099-1.047-1.794-2.419-2.891-3.468c-0.447-1.613-0.606-3.286-0.729-4.953c-0.14-1.564-0.666-3.12-0.556-4.717
		c0.006-0.699,0.024-1.501-0.407-2.096c-1.889-2.47-3.453-5.242-5.874-7.234c-0.865-1.187-1.407-2.642-2.674-3.505
		c-1.517-2.622-3.375-5.052-4.25-7.96c-0.54,0.301-1.135,0.522-1.72,0.675c1.812,0.951,2.287,3.061,3.445,4.608
		c0.657,1.403,1.779,2.523,2.467,3.928c0.968,1.205,1.977,2.381,2.784,3.701c1.686,2.225,4.266,4.315,4.242,7.363
		c0.47,1.931,0.57,3.945,0.855,5.919c0.351,1.563,0.742,3.095,1.13,4.631c0.06,2.744,2.103,4.921,3.861,6.88
		c0.768,0.474,0.657,1.399,0.602,2.199c-0.815-0.83-1.581-1.968-2.883-1.963c-1.705,1.277-2.216,3.405-3.101,5.231
		c-1.164,2.726-2.168,5.548-3.367,8.267c-4.598,2.258-9.439,4.055-14.367,5.315c0.037,0.426,0.11,0.856,0.151,1.251
		c0.8-0.399,1.564-0.807,2.326-1.178c0.342,0.053,0.661,0.244,0.969,0.082c1.129-0.487,2.231-1.262,3.512-1.166
		c2.804-1.311,5.533-2.846,8.555-3.562c0.068,0.678,0.104,1.35,0.171,2.025c-0.174-1.78,0.868-3.3,1.339-4.941
		c0.902-2.172,1.669-4.366,2.405-6.599c0.339-0.824,0.594-1.766,1.281-2.358c1.188,0.924,2.117,2.156,2.938,3.408
		c0.53,1.311-0.334,2.997,0.839,4.02c0.028-0.414,0.09-1.244,0.086-1.668c0.127,0.757,0.182,1.538,0.414,2.271
		c-0.295-0.113-0.59-0.267-0.884-0.383c-0.41,1.48-0.014,2.979,0.691,4.284c0.44,0.559,0.059,1.199-0.069,1.776
		c0.184,0.167,0.556,0.471,0.741,0.64c-0.377,1.729-1.768,2.984-2.344,4.647c-0.587,1.275-0.427,2.703-0.703,4.024
		c-0.298,0.797-0.737,1.567-1.038,2.362c0.47-0.525,0.84-1.094,1.274-1.625c-0.702,2.66-2.52,4.862-3.316,7.475
		c-1.804,3.677-4.646,6.595-7.147,9.779c-1.307,1.406-2.536,2.998-4.349,3.8c0.463-0.032,0.924-0.063,1.384-0.096
		c0.146,0.41,0.299,0.78,0.442,1.192c0.786-1.631,2.106-2.895,3.233-4.295c0.841-0.641,1.144-1.679,1.944-2.325
		c0.911-0.663,1.175-1.883,2.083-2.545c1.275-1.414,2.211-3.124,3.232-4.719c0.245-0.452,0.883-0.49,1.101-0.983
		c0.825-1.9,1.513-3.826,2.175-5.793c0.115-0.75,0.957-0.972,1.201-1.633c0.543-1.211,0.883-2.49,1.487-3.656
		c0.124,0.336,0.213,0.661,0.363,1.037c-0.258,0.311-0.49,0.658-0.718,1.008c1.249,1.178,3.027,1.248,4.486,2.006
		c-1.007,0.155-2.005,0.035-2.951,0.272c-0.762,0.159-1.506,0.637-2.287,0.269c0.04,0.184,0.117,0.581,0.159,0.763
		c-1.159,1.358-2.233,3.049-1.86,4.929c0.178,2.202,2.186,3.92,4.298,4.323c-0.216,0.036-0.62,0.146-0.803,0.192
		c1.149,0.947,1.878,2.326,3.021,3.313c-0.343,0.823-0.897,1.468-1.61,1.987c1.438-0.228,2.638-0.951,3.557-2.103
		c0.197,0.068,0.671,0.176,0.873,0.242c0.252-0.276,0.533-0.512,0.789-0.79c0.043,0.184,0.096,0.508,0.145,0.656
		c-0.619,0.359-1.328,0.631-1.652,1.353c0.646-0.32,1.271-0.711,1.887-1.068c0.145,0.861,0.255,1.721,0.621,2.513
		c0.379-0.395,0.602-0.918,0.785-1.417c0.196,0.102,0.612,0.342,0.8,0.477c-0.565-0.862-1.154-1.796-0.607-2.832
		c-0.056-0.078-0.236-0.281-0.29-0.361c0.199,0.066,0.597,0.2,0.797,0.266c1.34-0.49,2.695-0.873,4.117-1
		c2.401-0.321,4.216-2.49,4.517-4.862c0.192-1.444-0.673-2.631-1.168-3.936c0.818,0.587,1.153,1.584,1.81,2.318
		c-0.182,2.04-0.814,4.045-0.959,6.091c-0.102,1.314-0.938,2.62-0.367,3.903c0.702,1.545,1.523,3.01,1.928,4.684
		c1.333,2.666,2.474,5.437,3.956,8.058c0.474,0.773,0.684,1.684,0.896,2.556c0.391-0.253,0.775-0.471,1.195-0.687
		c-2.862-4.551-5.033-9.486-6.647-14.577c0.526-2.232,0.64-4.529,0.854-6.773c-0.046-1.934,0.642-3.859,0.028-5.745
		c-0.259-1.269-0.854-2.376-1.147-3.617c0.235-0.626,0.894-1.014,1.195-1.598c-0.578,0.331-1.104,0.771-1.651,1.142
		c0.097-1.07,0.235-2.17,0.677-3.189c0.796-0.609,1.71-1.062,2.363-1.873c-0.862,0.356-1.625,0.973-2.43,1.408
		c0.393-0.71,0.843-1.339,1.199-2.055c-0.357,0.258-0.715,0.52-1.071,0.779c0.403-1.446,1.461-2.576,2.217-3.824
		c3.277-2.57,4.789-6.609,6.778-10.119c0.276,0.466,0.475,0.988,0.224,1.474c-0.987,2.931-2.297,5.702-3.446,8.536
		c-0.314,0.899-1.571,1.963-0.693,2.871c1.759,1.504,3.55,3.048,5.139,4.771c0.292,0.362,0.666,0.665,1.122,0.878
		c1.108,0.525,1.934,1.529,3.089,1.992c1.907,1.248,4.006,2.174,5.946,3.424c0.041-0.271,0.193-0.775,0.268-1.043
		c-4.519-1.797-8.644-4.549-12.188-7.875c-0.729-0.713-1.719-1.322-1.948-2.342c1.149-4.166,3.493-7.933,4.003-12.271
		c0.185-0.95-0.383-1.813-0.709-2.637c0.898-1.927,1.798-3.853,2.531-5.841c0.633-1.792,1.626-3.426,1.853-5.316
		c2.537-5.879,5.84-11.493,7.016-17.862c0.692-3.294,0.383-6.883-1.404-9.794C543.499,136.151,544.219,135.352,544.999,134.634
		L544.999,134.634z"/>
	<path fill="#FFFFFF" d="M505.082,129.197c-0.123,0.122-0.377,0.397-0.508,0.551c0.075,2.431-0.407,4.811-0.229,7.256
		c0.384,6.476,0.69,13.009,1.777,19.456c0.227-0.104,0.645-0.319,0.841-0.429c-0.144-0.651-0.474-1.231-0.84-1.816
		c0.359,0.408,0.755,0.789,1.116,1.158c0.125-0.786,0.208-1.544,0.401-2.32c0.809-2.923,0.805-6.006,1.778-8.871
		c0.427-2.037,0.984-4.017,1.375-6.059c0.201-1.053-0.775-1.769-1.489-2.336C507.183,134.12,505.954,131.685,505.082,129.197
		L505.082,129.197z"/>
	<path fill="#FFFFFF" d="M504.406,129.932c-1.455,0.998-2.284,2.692-2.888,4.312c-0.129,1.489,0.058,2.993-0.113,4.507
		c-0.245,6.69,1.604,13.222,2.428,19.803c0.261,2.109,0.78,4.156,1.154,6.247c-0.2-0.278-0.604-0.833-0.806-1.111
		c0.133,1.602,0.193,3.223,0.616,4.762c0.041-0.696,0.005-1.368-0.063-2.044c0.17,0.026,0.524,0.011,0.693,0.04
		c-0.07-1.553,0.031-3.081,0.234-4.592c0.22-0.737-0.648-1.012-1.066-1.465c0.396,0.132,0.765,0.26,1.159,0.429
		c0.115-0.963-0.33-1.701-1.086-2.239c0.348,0.229,0.664,0.454,0.974,0.713c0.046-0.517,0.088-1.003,0.093-1.493
		c-0.305-0.294-0.608-0.587-0.947-0.884c0.288,0.183,0.82,0.584,1.075,0.764c-1.046-6.966-1.379-13.997-1.812-21.039
		C503.879,134.408,504.437,132.181,504.406,129.932L504.406,129.932z"/>
	<path fill="#FFFFFF" d="M501.078,139.717c-0.08-1.486,0.41-3.057-0.018-4.559c-1.217,5.276-0.641,10.766-0.04,16.084
		c0.158,1.215,0.126,2.542,0.871,3.606c0.679,1.02,0.866,2.276,1.471,3.353C502.643,152.056,501.112,145.963,501.078,139.717
		L501.078,139.717z"/>
	<path fill="#090808" d="M532.829,148.706C532.597,148.844,532.597,148.844,532.829,148.706L532.829,148.706z"/>
	<path fill="#090808" d="M532.009,149.243C531.807,149.422,531.807,149.422,532.009,149.243L532.009,149.243z"/>
	<path fill="#FFFFFF" d="M503.195,159.927c-0.369-1.672-0.676-3.507-1.72-4.898c0.076,1.309,0.22,2.626,0.183,3.954
		c0.485,0.953,1.321,1.857,1.215,2.999c-0.441-0.771-0.688-1.653-1.203-2.4c-0.204,1.752,0.108,3.556,0.114,5.309
		c0.164,1.186-0.11,2.475,0.566,3.528c0.155-0.328,0.312-0.655,0.469-0.978c-0.065,0.41-0.162,0.816-0.264,1.22
		c0.417,0.486,0.75,1.027,1.198,1.521c-0.44-2.771-0.702-5.547-0.966-8.321c0.805,1.563,0.259,3.476,1.062,5.04
		C504.119,164.525,503.277,162.288,503.195,159.927L503.195,159.927z"/>
	<path fill="#FFFFFF" d="M534.523,160.892c-0.441,0.141-0.734,0.449-0.839,0.887c-0.37,1.237-0.745,2.51-1.053,3.793
		C534.567,164.859,534.368,162.549,534.523,160.892L534.523,160.892z"/>
	<path fill="#FFFFFF" d="M506.657,156.862c-0.506-0.117-0.607,0.743-0.378,1.062C506.752,158.034,506.854,157.172,506.657,156.862
		L506.657,156.862z"/>
	<path fill="#FFFFFF" d="M538.254,161.688c-1.675,1.281-2.655,3.299-3.645,5.107c0.733-0.412,1.379-0.941,2.138-1.312
		C537.095,164.172,537.777,162.947,538.254,161.688L538.254,161.688z"/>
	<path fill="#FFFFFF" d="M536.765,165.803c-0.69,0.381-1.409,0.721-1.951,1.269c-1.393,1.957-2.071,4.267-3.237,6.327
		c-0.488,0.873-0.849,1.831-1.17,2.763c0.823-0.326,2.039-0.03,2.438-1.018C534.336,172.117,535.572,168.944,536.765,165.803
		L536.765,165.803z"/>
	<path fill="#FFFFFF" d="M533.852,166.954c-0.839,1.099-1.62,2.272-2.104,3.562c-0.055-0.534-0.084-1.028-0.174-1.57
		c-0.313,1.108-0.093,2.372-0.833,3.306c-0.771,1.106-0.991,2.51-1.236,3.838c0.503-0.306,0.571-0.962,0.858-1.442
		C531.668,172.151,532.941,169.618,533.852,166.954L533.852,166.954z"/>
	<path fill="#FFFFFF" d="M530.728,169.865c-0.724,0.588-1.44,1.142-2.014,1.892c0.165,0.729,0.544,1.453,0.419,2.238
		c-0.624,0.852-1.322,1.725-1.049,2.889c1.364-0.874,1.517-2.534,1.536-3.965C530.056,171.935,530.688,171.018,530.728,169.865
		L530.728,169.865z"/>
	<path fill="#FFFFFF" d="M528.542,171.518C528.308,171.659,528.308,171.659,528.542,171.518L528.542,171.518z"/>
	<path fill="#090808" d="M499.506,171.126C499.267,171.299,499.267,171.299,499.506,171.126L499.506,171.126z"/>
	<path fill="#FFFFFF" d="M527.555,176.238c-0.476-0.111-0.884,0.7-0.806,1.102C527.257,177.456,527.73,176.686,527.555,176.238
		L527.555,176.238z"/>
	<path fill="#FFFFFF" d="M523.294,175.671c-0.572-0.579-0.621,0.853-0.273,1.08C523.538,176.799,523.492,175.986,523.294,175.671
		L523.294,175.671z"/>
	<path fill="#FFFFFF" d="M531.082,178.756c-0.712,0.309-1.755,0.25-2.061,1.077c-0.719,1.676-1.571,3.296-2.254,4.976
		c0.079,0.154,0.315,0.436,0.395,0.589c0.223-0.948,0.452-1.961,1.261-2.643C529.611,181.68,530.333,180.181,531.082,178.756
		L531.082,178.756z"/>
	<path fill="#FFFFFF" d="M528.124,179.52c-0.593,0.428-1.125,0.91-1.626,1.424c-0.042-0.18-0.119-0.578-0.161-0.761
		c-0.23,0.351-0.468,0.735-0.701,1.118c0.186-0.076,0.59-0.188,0.813-0.258c-0.061,0.586-0.152,1.17-0.172,1.76
		C527.37,182.064,527.727,180.716,528.124,179.52L528.124,179.52z"/>
	<path fill="#FFFFFF" d="M502.928,184.354c-0.091-0.748,0.201-1.721-0.646-2.135c0.159,1.216,0.03,2.705,1.047,3.6
		C503.235,185.314,503.063,184.833,502.928,184.354L502.928,184.354z"/>
	<path fill="#FFFFFF" d="M524.323,188.979c-0.458-0.209-0.654-0.066-0.623,0.396C524.157,189.587,524.353,189.477,524.323,188.979
		L524.323,188.979z"/>
	<path fill="#090808" d="M524.814,190.532C524.579,190.704,524.579,190.704,524.814,190.532L524.814,190.532z"/>
	<path fill="#090808" d="M476.655,192.036c0.515-0.162,1.684-0.68,0.751-1.211c-1.627,0.305-3.323,1.057-4.997,0.336
		c0.72,0.568,0.759,1.414,0.425,2.203C473.972,192.594,475.282,192.067,476.655,192.036L476.655,192.036z"/>
	<path fill="#090808" d="M504.787,197.512c-0.512,0.133-0.511,0.342-0.068,0.658C505.194,198.031,505.227,197.829,504.787,197.512
		L504.787,197.512z"/>
	<path fill="#FFFFFF" d="M508.118,209.991C507.212,209.289,507.871,211.109,508.118,209.991L508.118,209.991z"/>
	<path fill="#090808" d="M509.657,213.356C508.71,212.678,509.444,214.477,509.657,213.356L509.657,213.356z"/>
</g>
</svg>
