<?xml version="1.0" encoding="utf-8"?>
<!-- Generator: Adobe Illustrator 16.0.4, SVG Export Plug-In . SVG Version: 6.00 Build 0)  -->
<!DOCTYPE svg PUBLIC "-//W3C//DTD SVG 1.1//EN" "http://www.w3.org/Graphics/SVG/1.1/DTD/svg11.dtd">
<svg version="1.1" id="Layer_1" xmlns="http://www.w3.org/2000/svg" xmlns:xlink="http://www.w3.org/1999/xlink" x="0px" y="0px"
	 width="612px" height="612px" viewBox="0 0 612 612" enable-background="new 0 0 612 612" xml:space="preserve">
<rect fill="#4A494A" width="612" height="612"/>
<g>
	<g>
		<path fill="none" d="M117.017,221.876c0,0,0,0.006,0,0.011h0.091L117.017,221.876z"/>
		<polygon fill="none" points="151.183,288.194 151.183,288.278 151.266,288.194 		"/>
		<polygon fill="#D1DDE8" points="172.494,337.932 172.572,337.457 171.776,336.184 171.842,335.984 171.842,335.799 
			171.681,334.938 171.272,334.729 171.058,334.621 171.117,334.41 171.189,333.873 171.543,333.447 171.836,332.776 
			171.902,332.776 171.902,332.112 171.962,331.998 171.962,331.502 171.902,331.441 171.902,331.149 171.662,331.149 
			171.543,330.963 171.309,330.718 170.711,330.514 170.214,330.263 170.208,330.221 170.411,329.67 88.413,329.67 88.635,330.257 
			88.874,330.682 88.922,330.825 88.958,330.975 89,331.059 89.018,331.46 89.21,331.46 89.257,331.65 89.257,332.603 
			89.365,332.711 89.551,333.339 89.551,333.615 89.676,333.873 89.814,334.01 89.91,334.16 90.125,334.387 90.305,334.477 
			90.538,334.895 90.646,335.117 91.544,335.674 91.724,335.764 91.855,335.895 92.706,335.895 92.789,335.854 92.885,335.836 
			93.118,335.717 93.292,335.717 93.688,335.152 93.976,334.811 94.286,334.686 94.933,333.74 95.011,333.436 95.022,333.195 
			95.25,332.734 95.531,332.597 95.585,332.597 95.646,332.656 95.812,332.656 96.382,332.771 96.776,332.865 96.776,333.017 
			97.136,333.017 97.369,333.136 97.369,333.184 97.974,333.44 98.333,333.74 98.369,333.74 98.489,333.854 98.704,333.854 
			98.961,334.1 100.069,334.1 100.345,334.279 100.465,334.219 100.536,334.219 100.668,334.314 100.973,334.457 101.093,334.578 
			101.152,334.578 101.56,334.984 101.613,335.016 101.697,335.117 101.925,335.355 102.051,335.355 102.403,335.482 
			102.464,335.549 102.529,335.566 102.835,335.799 102.996,335.967 103.451,336.184 103.529,336.268 103.769,336.344 
			103.895,336.451 103.931,336.518 103.728,337.529 103.667,337.648 103.098,338.115 102.553,338.463 102.416,338.744 
			102.356,338.805 102.224,339.068 102.224,339.152 102.104,339.35 101.985,339.426 101.523,339.883 101.278,340.385 
			101.278,340.84 101.355,341.277 101.572,341.637 101.745,341.834 102.051,342.426 102.164,343.156 102.164,343.355 
			102.128,343.475 102.062,343.857 102.009,344.061 101.871,344.396 101.333,344.941 100.985,344.941 100.985,345.186 
			100.649,345.748 100.272,346.281 100.272,346.383 100.165,346.6 100.016,346.754 99.806,347.658 99.752,347.934 99.62,348.33 
			99.62,348.479 99.513,348.699 99.446,349.312 99.339,349.713 99.267,349.791 99.267,349.922 99.153,350.148 98.698,350.664 
			98.501,350.916 98.375,351.006 97.956,351.473 97.782,351.646 97.782,351.711 97.669,351.83 97.669,351.994 97.573,352.328 
			97.226,353.09 97.136,353.424 97.076,353.783 97.076,354.418 97.022,354.748 97.016,355.23 97.076,355.578 97.076,356.105 
			97.189,356.105 97.189,356.248 97.321,356.873 97.375,357.213 97.488,357.482 97.488,357.609 97.549,357.668 97.549,357.729 
			97.746,357.932 98.147,358.566 98.53,358.9 99.165,359.178 99.339,359.303 99.698,359.668 100.146,360.465 100.206,360.541 
			100.213,360.609 100.32,360.717 100.524,361.164 101.248,361.836 101.572,362.092 102.697,362.854 103.009,362.613 
			103.158,362.691 103.284,362.822 103.397,362.822 103.47,362.863 103.487,362.973 103.47,363.428 103.529,363.488 
			103.529,363.547 103.715,363.738 103.774,363.857 104.523,364.426 104.774,364.559 105.176,364.559 105.355,364.5 105.415,364.5 
			105.427,364.686 105.762,365.027 106.104,365.199 106.451,365.602 106.673,365.941 107.02,366.301 107.182,366.301 
			107.517,366.355 107.774,366.361 107.93,366.338 107.852,366.654 107.499,367.002 107.499,367.857 107.679,367.857 
			107.833,368.174 108.091,368.762 108.091,369.061 108.379,369.061 108.558,369.24 109.396,369.469 109.887,369.48 
			110.091,369.371 110.552,369.043 110.839,368.762 111.055,368.48 111.246,368.301 111.851,368.791 112.072,368.9 112.061,369.156 
			112.216,369.559 112.306,369.736 112.809,370.246 113.054,370.002 113.275,370.061 113.342,370.127 113.694,370.307 
			113.856,370.229 113.886,370.312 114.389,370.82 114.855,371.217 114.952,371.217 114.999,371.264 115.359,371.443 
			115.532,371.623 115.592,371.652 115.712,371.838 115.73,372.139 115.538,372.725 115.652,373.18 115.964,373.496 
			116.604,373.658 116.682,373.586 117.035,373.646 117.035,373.795 117.383,373.795 117.502,373.916 117.526,373.916 
			117.592,374.084 117.688,374.238 117.688,374.426 117.802,374.484 117.802,374.545 118.256,374.771 118.525,374.861 
			119.256,375.035 119.525,375.125 119.669,375.227 119.699,375.287 119.585,375.725 119.579,376.98 119.825,377.232 
			119.944,377.471 119.992,377.514 119.992,377.615 120.363,377.896 120.64,378.281 120.592,378.328 120.363,378.262 
			120.262,378.16 119.873,378.16 119.753,378.281 119.459,378.281 119.459,379.639 119.579,380.219 119.579,380.357 
			119.879,380.812 119.938,380.812 120.022,380.986 120.136,381.381 120.34,382.01 120.436,382.01 120.525,382.154 120.525,382.201 
			120.759,382.598 121.321,383.244 121.357,383.512 121.477,383.512 121.477,383.693 121.687,383.693 121.86,384.039 
			122.027,384.607 122.069,384.896 122.147,384.979 122.189,385.098 122.022,386.111 121.938,386.32 121.627,386.434 
			121.064,386.434 120.83,386.555 120.699,386.555 120.418,386.834 120.304,387.08 120.034,387.295 119.819,387.512 
			119.711,387.936 119.699,388.152 119.639,388.301 119.639,388.871 120.118,389.57 120.304,389.764 120.501,390.17 120.747,390.17 
			121.094,390.104 121.178,390.104 121.111,390.396 121.004,390.504 121.004,390.852 121.124,391.434 121.124,391.582 
			121.268,391.953 121.472,392.371 121.794,392.912 121.854,393.217 122.178,393.744 122.53,394.365 122.597,394.365 
			122.603,394.42 123.075,394.738 123.075,394.965 123.291,394.965 123.393,395.133 123.429,395.324 123.429,395.432 
			123.381,395.689 123.195,396.156 123.195,396.713 123.31,396.826 123.315,396.947 123.602,397.244 123.698,397.244 
			124.01,397.467 124.877,397.857 125.171,398.055 125.859,398.748 126.464,398.959 126.787,398.789 126.907,398.67 127.086,398.58 
			127.434,397.641 127.326,397.186 127.068,396.928 126.739,396.658 126.255,396.432 126.074,396.342 126.691,396.342 
			126.984,396.49 127.003,396.473 127.104,396.738 127.104,396.846 127.326,397.18 128.11,397.736 128.11,397.783 128.17,397.852 
			128.17,397.91 128.229,397.971 128.229,398.078 128.272,398.162 128.29,398.467 128.409,399.221 128.589,399.221 128.649,399.311 
			129.062,399.521 129.385,399.521 129.666,399.449 130.038,399.244 130.109,399.221 130.2,399.221 131.36,398.635 130.379,398.301 
			130.182,398.102 129.853,397.826 129.564,397.533 129.535,397.443 129.492,397.162 129.421,397.09 129.379,396.881 
			129.529,396.205 129.631,396 129.679,395.863 129.941,395.504 130.032,395.504 130.151,395.383 130.283,395.312 130.511,395.08 
			130.576,394.875 130.727,394.785 131.211,394.307 131.528,393.547 131.624,393.342 131.624,393.188 131.75,392.893 
			132.007,392.547 132.223,392.324 132.331,392.324 132.546,392.002 132.875,391.666 132.959,391.666 133.241,391.312 
			133.63,391.199 133.923,390.906 134.049,390.877 134.288,390.77 135.252,390.77 135.432,390.828 135.491,390.828 135.785,390.889 
			135.851,390.889 136.145,391.025 137.048,391.33 137.521,391.605 137.629,391.605 137.814,391.666 137.994,391.846 
			138.162,391.846 138.419,391.965 138.509,391.965 138.778,392.055 139.191,392.289 139.323,392.463 139.479,392.631 
			139.736,392.826 139.88,392.973 140.113,393.092 140.305,393.281 140.364,393.281 140.425,393.342 140.484,393.342 
			140.658,393.521 140.777,393.521 140.838,393.588 140.897,393.588 140.957,393.643 141.419,393.643 141.742,393.588 
			141.976,393.707 142.035,393.707 142.269,393.826 142.328,393.826 143.124,394.162 143.37,394.246 143.514,394.246 
			143.896,394.461 144.376,394.82 144.459,394.869 144.459,394.971 144.92,395.443 144.986,395.443 145.286,395.678 
			145.795,395.904 146.147,396.023 146.489,396.096 146.986,396.104 147.465,395.982 147.848,395.982 148.555,395.631 
			148.716,395.139 148.979,394.598 148.979,394.27 149.111,393.881 149.171,393.82 149.435,392.947 149.452,392.648 
			149.284,392.133 149.188,392.133 149.062,391.605 149.004,391.547 148.776,390.895 148.674,390.678 148.345,390.35 
			148.051,390.199 147.974,390.121 147.974,390.037 147.668,389.422 147.507,389.254 147.249,389.049 147.207,389.014 
			147.225,388.979 147.136,388.596 146.968,388.242 146.968,388.182 147.045,388.027 147.094,387.883 147.261,387.715 
			147.261,387.555 147.303,387.338 147.459,387.068 147.578,386.828 147.716,386.416 147.788,386.068 147.794,385.727 
			147.854,385.607 147.854,385.512 147.914,385.369 147.914,384.961 148.01,384.799 148.327,384.428 148.416,384.363 
			149.009,384.146 149.261,383.996 149.362,383.99 149.477,384.016 149.847,384.309 149.896,384.465 150.135,384.711 
			150.572,384.711 150.775,384.607 151.134,384.332 151.374,384.033 151.577,383.83 151.661,383.648 151.738,383.572 
			152.122,383.572 152.122,383.297 152.374,383.166 152.727,382.967 153.434,382.787 154.248,382.787 154.397,382.717 
			155.522,382.543 155.708,382.471 155.912,382.428 156.025,382.428 156.109,382.387 156.57,382.25 157.199,382.189 
			157.312,382.189 157.312,382.25 157.857,382.25 158.181,382.088 158.265,381.92 158.48,382.027 158.684,381.609 158.815,381.477 
			158.815,381.047 158.898,380.52 158.815,380.434 158.815,379.963 158.642,379.963 158.588,379.781 158.36,379.549 
			158.043,379.412 157.929,379.299 157.528,378.705 157.259,378.502 157.097,378.34 156.87,378.184 156.678,377.896 
			156.678,377.531 156.295,376.611 156.205,376.383 156.205,376.221 156.146,375.879 156.146,375.496 156.271,375.227 
			156.409,375.035 156.643,374.801 156.798,374.725 156.798,374.479 156.953,374.186 157.043,374.096 157.295,373.994 
			157.504,373.887 157.642,373.676 158.24,373.365 158.462,373.137 158.863,372.539 158.977,372.293 159.168,372.293 
			159.168,371.898 159.258,371.223 159.318,371.133 159.605,370.838 159.342,370.301 158.875,370.174 159.049,369.863 
			159.049,369.139 158.773,368.996 158.677,368.791 158.642,368.611 158.677,368.486 158.804,368.234 159.253,367.785 
			159.366,367.295 159.168,366.889 159.168,366.828 159.007,366.51 159.12,366.176 159.33,365.9 159.504,365.607 159.761,365.35 
			159.761,364.756 159.408,363.738 159.294,363.23 159.408,362.846 159.408,362.816 160.234,362.398 160.426,361.715 
			160.323,361.297 160.12,361.021 160.043,360.865 160.019,360.727 160.456,360.262 161.222,360.088 161.653,359.65 
			161.653,359.547 161.862,359.398 162.012,359.1 162.012,358.422 161.898,358.309 161.713,358.047 161.407,357.891 
			160.862,357.508 160.516,357.148 160.354,356.867 160.354,356.656 160.372,356.566 160.432,356.482 160.946,356.465 
			160.946,356.16 161.103,355.945 161.3,355.482 161.3,355.256 161.126,354.896 161.3,354.646 161.407,354.969 161.82,355.178 
			162.097,355.082 162.258,355.082 162.712,354.623 162.809,354.424 162.88,354.496 163.257,354.623 163.946,354.424 
			164.179,354.064 164.293,353.482 164.203,353.389 164.203,353.113 164.341,352.609 164.443,352.514 164.443,352.426 
			164.7,352.072 164.736,352.029 165.191,351.85 165.562,351.85 165.562,351.467 165.897,351.035 166.028,350.783 166.101,350.711 
			166.341,350.336 166.454,350.018 166.454,349.713 166.502,349.432 166.747,349.154 166.747,348.779 166.55,348.371 
			166.395,348.258 166.412,348.211 166.472,348.174 166.897,348.115 167.495,347.779 167.885,347.406 168.232,347.258 
			168.586,347.023 168.704,346.66 168.704,346.324 168.627,346.168 168.543,345.678 168.765,345.186 168.765,344.977 
			168.729,344.779 168.908,344.408 168.944,344.408 169.004,344.35 169.208,344.35 169.417,343.93 169.417,343.623 169.34,343.475 
			169.412,343.061 169.417,342.744 169.466,342.553 169.471,342.457 169.974,341.666 170.591,341.521 171.111,341.324 
			171.507,341.129 171.782,341.115 171.782,340.768 171.884,340.602 172.021,340.457 172.069,339.762 172.351,339.289 
			172.446,339.193 172.555,338.865 172.494,338.236 		"/>
		<polygon fill="#5097D1" points="170.423,329.635 170.423,329.43 170.256,328.975 170.304,328.593 170.304,328.107 
			169.926,327.628 169.849,327.593 169.818,327.533 169.471,327.179 169.232,327.096 169.118,327.042 169.118,326.922 
			168.95,326.407 168.704,326.407 168.704,326.042 168.375,325.713 168.352,325.568 168.352,325.396 168.405,325 168.405,324.875 
			168.783,324.672 169.657,323.785 170.04,323.246 170.142,322.82 169.759,321.731 169.466,321.582 169.226,321.24 169.178,320.828 
			169.16,320.743 169.268,320.582 169.417,320.433 169.417,320.27 169.363,319.72 169.543,319.223 169.657,319.104 170.429,319.104 
			170.489,318.924 170.572,318.792 171.088,319.001 171.016,316.068 171.01,315.015 170.956,314.452 170.956,313.794 
			170.896,312.65 170.896,311.428 76.614,311.428 76.709,311.992 76.919,312.41 76.997,312.529 76.997,312.631 77.272,312.919 
			77.452,313.003 78.08,313.158 78.607,313.249 78.859,313.83 79.194,314.368 79.386,314.571 79.421,314.896 79.421,315.2 
			79.464,315.285 79.481,315.685 79.648,315.685 79.661,315.924 79.841,315.924 80.296,316.396 80.313,316.494 80.876,316.805 
			81.02,316.947 81.367,317.218 81.703,317.289 81.846,317.427 82.307,317.685 82.325,317.786 82.505,317.786 82.505,317.906 
			82.564,317.906 82.564,317.966 82.679,317.966 82.679,318.033 83.079,318.433 83.097,318.624 83.492,318.624 83.624,318.751 
			83.744,318.918 83.744,319.162 84.079,319.162 84.498,319.391 84.558,319.45 84.815,319.582 85.061,319.78 85.282,320.008 
			85.312,320.008 85.665,320.457 85.815,320.605 86.294,320.9 86.354,320.941 86.354,321.091 86.688,321.433 86.749,321.463 
			87,321.851 87.558,322.582 87.736,322.582 87.887,322.642 88.03,322.814 88.084,323.121 88.132,323.317 88.132,323.503 
			88.198,323.898 88.246,324.809 88.306,324.868 88.306,324.964 88.425,325.264 88.425,326 88.623,326.568 88.7,326.742 
			89.018,327.191 89.018,327.39 89.096,327.467 89.138,327.729 89.138,327.916 88.761,328.4 88.604,328.562 88.604,328.712 
			88.306,328.958 88.306,329.388 88.413,329.67 170.411,329.67 		"/>
		<path fill="#D1DDE8" d="M170.896,311.213l-0.06-0.503v-1.018l-0.06-0.938v-0.982l-0.06-0.935v-0.509l-0.06-0.754v-0.497
			l-0.061-1.18l-0.06-3.442l-0.054-0.874v-1.562l-0.061-0.503v-0.006l-8.488,2.341l6.92-6.819l-0.809-0.795h-12.122v-1.055
			l-0.527-0.263l0.354-1.76c-0.354,0-0.354-0.61-0.354-0.61c-0.264-0.18-0.7,0.083-0.7,0.083l-0.97,0.97h-2.544v-1.323l-4.832,4.753
			l6.921,6.819l-9.363-2.58l-2.448,9.399l-2.442-9.399l-9.363,2.58l6.921-6.819l-6.921-6.812l9.363,2.579l1.274-4.908h-3.693v-1.754
			h2.987v-4.748h1.317v0.443h0.264v1.144h0.293h1.203v-0.264h1.581v-1.406h1.4v-2.563H78.248l-0.197,0.168l-0.365,0.209l-0.12,0.06
			l-0.604,0.437l-0.652-0.06H74.92v0.15l-0.868,0.186l-0.024,0.023h-0.406v0.18l-0.414,0.209l-0.239,0.083l-0.06,0.061l-0.174,0.06
			l-0.3,0.299l-0.071,0.06l-0.407,0.683l-0.113,0.27l-0.6,0.479l-0.064,0.198l-0.108,0.113v0.61l0.132,0.264l0.167,0.174
			l0.323,0.107l0.323,0.503v0.161l0.103,0.103l0.018,0.084l-0.107,0.64l-0.306,0.659v0.054l-0.06,0.06v0.923l0.06,0.06v0.107
			l0.12,0.246l0.036,0.144l-0.061,0.461l-0.042,0.042h-0.18l-0.06,0.06h-0.473l-0.473,0.479l-0.413,0.251l-0.181,0.174h-0.173v0.336
			l-0.167,0.257l-0.126,0.299l-0.096,0.091l-0.066,0.431l-0.371,0.862l5.615,1.55l2.437-9.398l2.448,9.398l9.363-2.579l-6.921,6.812
			l6.921,6.819l-9.363-2.586l-2.448,9.405l-2.437-9.405l-4.897,1.353l0.019,0.037l0.054,0.148l0.096,0.21v0.365h0.233l0.24,0.239
			l0.041,0.078l0.018,0.167l0.055,0.054l-0.042,0.09l-0.132,0.132l-0.215,0.336l-0.204,0.215l-0.167,0.51v0.551l0.191,0.526
			l0.041,0.173v0.174l0.072,0.066l0.149,0.305l0.192,0.097l0.323,0.269l0.425,0.312l0.358,0.222l0.12,0.06l0.18,0.3l0.078,0.162
			v0.083l-0.06,0.149v0.27l-0.072,0.3l0.023,0.096l-0.012,0.204l-0.113,0.718l-0.006,0.521h0.233l0.179,0.233v0.306h0.234
			l0.119,0.12l0.258,0.202l0.096,0.098l0.365,0.257l0.233,0.294v0.137l0.426,0.215l0.203,0.155l0.222,0.121l0.095,0.119l0.222,0.456
			l0.18,0.095l0.264,0.504l0.341,0.346l0.239,0.175l0.988,0.443l0.054,0.06l0.061,0.34h94.281V311.213z M121.298,299.851
			l-9.363-2.58l-2.442,9.399l-2.442-9.399l-9.363,2.58l6.921-6.819l-6.921-6.812l9.363,2.579l2.442-9.398l2.442,9.398l9.363-2.579
			l-6.915,6.812L121.298,299.851z"/>
		<path fill="#CF3335" d="M123.782,213.806h-0.264l-0.27,5.795l-5.352-1.228c0,0,0.79,0.701,0,2.018c0,0-0.862,1.204-0.881,1.485
			l0.091,0.011h-0.091l0.438,0.527l0.443-0.263c0,0,1.054-0.264-0.443,3.161v0.61h1.76v0.791h-0.88l-0.263,0.527l0.7,2.287
			c0,0,0.089,0.263,0.526,0.263h5.011v0.527h1.581v5.448h5.005v9.483h5.704v8.956h-0.874v1.406l-1.316,0.617v0.275v2.448h-6.938
			l-0.88,0.527v5.178h9.572v8.256h9.482v1.831v2.563h-1.4v1.406h-1.581v0.264h-1.203h-0.293v-1.144h-0.264v-0.443h-1.317v4.748
			h-2.987v1.754h3.693l-1.274,4.908l-9.363-2.579l6.921,6.812l-6.921,6.819l9.363-2.58l2.442,9.399l2.448-9.399l9.363,2.58
			l-6.921-6.819l4.832-4.753v-0.084h0.083l0.791-0.784v0.784h-0.791l-0.083,0.084v1.323h2.544l0.97-0.97c0,0,0.437-0.263,0.7-0.083
			c0,0,0,0.61,0.354,0.61l-0.354,1.76l0.527,0.263v1.055h12.122l0.809,0.795l-6.92,6.819l8.488-2.341l-0.06-2.91v-1.975
			l-0.029-0.306l-0.006-0.209l-0.024-0.323v-0.114v-1.568l-0.061-0.803v-0.796v-1.119l-0.06-1.06v-2.826l-0.06-2.454v-1.029
			l-0.061-1.449l-0.054-0.994l-0.006-1.479l-0.054-0.623v-0.731v-0.065l-0.06-1.305v-1.557l-0.006-0.048l-0.024-0.228l-0.029-0.227
			v-1.102v-0.347l-0.061-0.749v-1.197l-0.06-0.455v-0.449l-0.12-3.538v-1.401l-0.12-1.891v-1.359l-0.054-0.562v-1.76V256.4
			l-0.06-0.503v-1.497l-0.06-0.934v-0.557l-0.061-1.425v-1.676l-0.06-0.563v-1.539l-0.06-0.562v-2.299l-0.06-0.06v-2.095
			l-0.061-0.06v-1.791l-0.036-0.083l-0.018-2.167l-0.132-0.395l-0.167-0.671l-0.407-0.168l-0.359-0.359l-0.341-0.562l-0.019-0.282
			l-0.06-0.06v-0.473h-0.061v-0.12h-0.059v-0.066h-0.18l-0.317-0.466l-0.114-0.234l-0.228-0.963l-0.048-0.162v-0.072l0.061-0.06
			v-0.12l0.06-0.06v-0.676h-0.06v-0.061h-0.061v-0.12h-0.06v-0.059h-0.18l-0.174-0.736v-0.234l-0.06-0.06v-0.12l-0.107-0.107
			l-0.132-0.437v-0.102l-0.234-0.634v-0.084l-0.041-0.083l-0.019-0.461h-0.12v-0.359h-0.119l-0.042-0.083l-0.019-0.156l-0.101-0.204
			l-0.019-0.287l-0.054-0.061v-0.646l-0.042-0.084l-0.018-0.167l-0.061-0.06v-0.06l-0.072-0.072l-0.089-0.18l-0.019-0.341h-0.287
			l-0.532-0.539h-0.061l-0.006-0.065l-0.233-0.234l-0.24-0.293l-0.102-0.209l-0.316-0.491v-0.096l-0.114-0.113l-0.281-0.557
			l-0.713-1.149l-0.19-0.491l-0.108-0.138l-0.479-1.316l-0.049-0.048l-0.137-0.569l-0.12-0.641v-0.868l0.035-0.054l0.078-0.485
			l0.013-0.144h0.113v-0.395l0.114-0.06v-0.144l0.167-0.484l0.061-0.24l0.012-0.694l0.054-0.281l0.006-1.275l0.054-0.485
			l0.006-0.539l-0.113-0.814h-3.274l-0.736,0.06h-5.335l-0.334,0.06h-1.677l-0.347,0.06h-0.725h-0.359l-0.174,0.06h-1.622
			l-0.803,0.06h-3.143l-1.239,0.06h-0.107v3.694h-5.795v0.173h-0.617h-0.7l-1.317-0.874v-1.581h-0.964v0.874h-0.263l-0.707-1.58
			h-0.438v-0.587h-0.442v0.587h-1.58l1.143,1.407c0,0,0.175,0.173,0,0.353l-1.406,0.791l-0.174-0.18h-0.79v0.353
			c0,0-0.438,0.173-0.438-0.353h-1.144v-2.958h-1.425l-0.724-0.023l0.132,0.084V213.806z M143.908,288.799l-1.323-5.082h0.252
			v-0.353h0.174v-0.527h0.616v0.88h1.497v1.054l-0.18,0.437h2.897v0.264h0.18l0.174-0.353h0.616v1.586h2.712L143.908,288.799z
			 M121.321,220.038h0.084h0.18l0.173-0.347h0.701v0.438h0.443v-0.174h0.173v1.407h-1.49l-0.09-0.263h0.437h0.264v-0.264h0.18
			v-0.353h-1.054V220.038z M124.219,222.588v-0.88h1.671l-0.091,1.317h0.617v-0.173h2.634v1.228h-0.09v0.79h-1.144l-2.018,1.317
			v0.442h-3.95v-1.58h-0.791v-1.497h-1.58v-1.227h0.874v0.437h0.706v-0.348h-0.089v-0.616h-0.791l0.174-0.174h0.88h0.617v0.263
			h0.174v0.174h0.699v-0.354h1.323v0.88H124.219z"/>
		<polygon fill="#D1DDE8" points="152.057,287.41 151.266,288.194 152.057,288.194 		"/>
		<polygon fill="#D1DDE8" points="148.812,285.118 148.195,285.118 148.021,285.471 147.842,285.471 147.842,285.207 
			144.944,285.207 145.124,284.771 145.124,283.717 143.627,283.717 143.627,282.837 143.011,282.837 143.011,283.364 
			142.837,283.364 142.837,283.717 142.585,283.717 143.908,288.799 151.523,286.704 148.812,286.704 		"/>
		<polygon fill="#5097D1" points="145.645,272.912 136.162,272.912 136.162,264.656 126.59,264.656 126.59,259.478 127.47,258.95 
			134.408,258.95 134.408,256.502 79.266,256.502 79.319,256.58 79.638,256.903 79.787,257.101 79.954,257.382 80.151,257.657 
			80.589,258.567 81.104,258.777 81.631,258.717 81.732,258.717 81.899,258.896 82.008,259.154 82.025,259.322 82.146,259.441 
			82.301,259.687 82.433,260.094 82.679,260.345 82.78,260.597 82.798,261.441 82.918,262.141 82.918,262.279 82.978,262.62 
			82.864,263.177 82.857,263.596 82.647,264.171 82.57,264.464 82.564,264.68 82.679,265.207 82.409,266.272 82.14,266.38 
			82.032,266.494 81.672,266.613 81.379,266.62 81.379,266.864 81.199,266.955 81.199,267.092 81.14,267.152 81.14,267.224 
			80.906,267.613 80.709,267.715 80.421,268.002 80.296,268.218 80.218,268.487 80.092,268.691 79.613,269.182 79.332,269.409 
			79.128,269.613 79.021,270.044 79.009,270.133 78.865,270.451 79.021,270.606 79.05,270.672 79.068,270.899 79.128,270.96 
			79.128,271.217 79.068,271.361 79.068,271.45 79.038,271.546 78.895,271.779 78.751,272.061 78.554,272.768 78.445,273.103 
			78.518,273.246 78.595,273.647 78.595,273.917 78.5,274.055 78.374,274.635 78.248,274.743 145.645,274.743 		"/>
		<polygon fill="#D1DDE8" points="131.067,213.716 131.774,215.296 132.037,215.296 132.037,214.422 133.001,214.422 
			133.001,216.003 134.318,216.876 135.019,216.876 135.636,216.876 135.636,216.703 141.431,216.703 141.431,213.009 
			140.353,213.009 138.635,213.075 138.252,213.129 137.742,213.129 137.245,213.189 134.875,213.189 134.073,213.129 
			130.63,213.129 130.63,213.716 		"/>
		<path fill="#D1DDE8" d="M134.408,256.227l1.316-0.617v-1.406h0.874v-8.956h-5.704v-9.483h-5.005v-5.448h-1.581v-0.527h-5.011
			c-0.438,0-0.526-0.263-0.526-0.263l-0.7-2.287l0.263-0.527h0.88v-0.791h-1.76v-0.61c1.497-3.425,0.443-3.161,0.443-3.161
			l-0.443,0.263l-0.438-0.527h-2.897v1.665l0.174,1.934l-0.526,0.09c0,0-0.527-0.443-1.58-0.354v1.58c0,0-1.228,0-1.407,0.174
			c0,0-1.491-0.263-1.58-0.61v0.083h-0.438v-1.137c0,0-0.616,0.174-0.707-0.09c0,0-0.347-0.263-0.526-0.09v0.79h-0.7v-0.874
			l-0.88-0.264v-0.969h-0.438v-0.611c0,0-0.264,0.174-0.354,0.611h-0.526v-6.148c0,0,0.264-0.084,0.526-1.138h-0.526v-0.443h0.88
			v-1.581h0.264v1.054l1.143-0.79l0.527,0.173l0.264,0.443l0.083-0.264h0.971l0.173-0.88l0.181,0.88h0.7v-0.701h0.526l1.58,0.611
			v0.617h0.175l0.09-0.263c0,0,0.526,0.089,0.526,0.173l-0.09,0.09l-0.437,0.09l-0.881,0.527c0.09,0,0.264,0,0.443,0
			c0.7,0.083,1.754,0.263,1.754,0.263l0.09,0.611h0.7l0.97,3.25l-0.179,1.234l1.933,0.251c0.019-0.281,0.881-1.485,0.881-1.485
			c0.79-1.316,0-2.018,0-2.018l5.352,1.228l0.27-5.795h0.264v-0.616l-0.132-0.084l-1.065-0.036h-5.119l-0.119-0.061h-8.412h-1.137
			l-0.473-0.06h-0.839l-1.376-0.06h-0.642l-0.06,0.06l-1.018-0.06h-0.473l-0.497,0.06h-7.346l-0.12-0.06h-4.011l-0.257,0.521
			l-0.251,0.252v0.557l0.101,0.203l0.216,0.299l0.593,0.545l0.473,0.281l0.468,0.149l0.125,0.114l0.3,0.06l0.072,0.108l0.023,0.072
			v0.323l0.174,0.353l1.054,0.449l0.137,0.072v0.21h0.282l0.137,0.209l0.294,0.149h0.096l0.019,0.083l0.119,0.18v0.341h0.233
			l0.222,0.227l0.018,0.192h0.21l0.215,0.438l0.048,0.042l0.103,0.198l0.018,0.544l-0.233,0.569v0.467l0.156,0.401l0.018,0.239
			l0.12,0.18v0.107l0.479,0.533l0.107,0.162l0.006,0.072l0.138,0.275l0.474,0.413l0.257,0.144l0.228,0.233l0.587,0.072l0.107,0.029
			l0.3,0.3l0.299,0.078l0.569,0.371l0.389,0.168l0.419,0.144h0.066l0.27,0.12l0.425,0.269l0.036,0.036v0.06l0.06,0.06l0.071,0.239
			l0.09,0.461l0.233,0.12l0.061,0.06l0.257,0.132h0.323l0.06,0.12h0.024l0.007,0.341l-0.061,0.06v0.281l-0.132,0.462l0.072,0.413
			v0.449l0.089,0.491l0.174,0.173l0.091,0.144v0.072l0.06,0.059v0.473h0.06v0.12h0.149l0.03,0.09v0.066l-0.18,0.299v0.198
			l-0.27,0.413l-0.228,0.862l0.21,0.425l0.168,0.173l-0.054,0.383l-0.007,0.293l-0.036,0.222l-0.257,0.526v0.048l-0.12,0.12v0.24
			l-0.06,0.06v0.431l-0.107,0.222l-0.126,0.125v0.072h-0.06v0.604l0.042,0.084l0.065,0.449l-0.27,0.12h-0.144l-0.072,0.072
			l-0.365,0.149l-0.473,0.359l-0.383,0.132v0.102l-0.078,0.037l-0.102,0.102l-0.354,0.119l-1.012,1.018v0.132l-0.119,0.239v0.21
			l-0.054,0.179v0.317l0.113,0.299l-0.06,0.012v0.288l-0.198,0.149l-0.041,0.042h-0.234v0.695l-0.137,0.581l-0.097,0.096l0.06,1.005
			v0.33l0.043,0.084l0.018,0.335l-0.061,0.12v0.019l-0.263,0.113l-0.342,0.102h-0.09l-0.49,0.209l-0.198,0.126l-0.395,0.138v0.191
			l-0.09,0.138l-0.09,0.096l-0.138,0.071l-0.264,0.275l-0.119,0.24l-0.12,0.12l-0.06,0.12l-0.126,0.125l-0.204,0.066l-0.329,0.066
			h-0.197l-0.76-0.222l-0.306-0.125l-0.18,0.09l-0.341,0.012l-0.12,0.12l-0.222,0.179l-0.239,0.006l-0.084,0.042l-0.168,0.018
			l-0.06,0.06h-0.347v0.246l-0.138,0.09l-0.09,0.46l-0.197,0.174l-0.275,0.168l-0.581,0.568l-0.114,0.024l-0.251-0.084l-0.461,0.228
			l-0.761,0.108l-0.604,0.107l-0.473-0.047l-0.114-0.066l-0.772-0.054l-0.454-0.006l-0.204-0.048l-0.454-0.012l-0.18,0.06h-0.162
			l-0.168,0.173l-0.18,0.06l-0.448,0.365h-0.049l-0.173,0.12h-0.335v0.155l-0.275,0.06l-0.114,0.114l-0.306-0.072l-0.096-0.018
			l-0.275-0.125l-0.119-0.084l-0.15-0.149h-0.449l-0.113,0.12h-0.054l-0.354,0.179l-0.37,0.06h-0.192l-0.174,0.12h-0.107
			l-0.114,0.12l-0.131,0.072l-0.15,0.156l-0.132,0.257v0.09l-0.06,0.18v0.485l-0.228,0.383h-0.186v0.395l-0.036,0.18l-0.077,0.7
			l-0.06,0.197v0.737l-0.042,0.149l-0.246,0.264l-0.12,0.24l-0.083,0.083l-0.192,0.641l-0.215,0.389l-0.174,0.258v0.586l0.12,0.114
			l0.084,0.155l0.263,0.204l0.09,0.12h55.143V256.227z"/>
		<path fill="#D1DDE8" d="M126.942,216.087c0,0.526,0.438,0.353,0.438,0.353v-0.353h0.79l0.174,0.18l1.406-0.791
			c0.175-0.179,0-0.353,0-0.353l-1.143-1.407h1.58v-0.587h-4.389v2.958H126.942z"/>
		<polygon fill="#D1DDE8" points="122.722,221.708 122.722,222.062 122.022,222.062 122.022,221.887 121.849,221.887 
			121.849,221.625 121.231,221.625 120.352,221.625 120.178,221.798 120.969,221.798 120.969,222.414 121.058,222.414 
			121.058,222.762 120.352,222.762 120.352,222.325 119.478,222.325 119.478,223.552 121.058,223.552 121.058,225.049 
			121.849,225.049 121.849,226.629 125.799,226.629 125.799,226.187 127.816,224.869 128.96,224.869 128.96,224.079 129.05,224.079 
			129.05,222.852 126.416,222.852 126.416,223.025 125.799,223.025 125.89,221.708 124.219,221.708 124.219,222.588 
			124.045,222.588 124.045,221.708 		"/>
		<polygon fill="#D1DDE8" points="122.375,220.834 122.195,220.834 122.195,221.098 121.932,221.098 121.495,221.098 
			121.585,221.361 123.075,221.361 123.075,219.954 122.902,219.954 122.902,220.128 122.459,220.128 122.459,219.69 
			121.758,219.69 121.585,220.038 121.405,220.038 121.321,220.038 121.321,220.481 122.375,220.481 		"/>
		<polygon fill="#CF3335" points="111.935,288.799 109.492,279.4 107.05,288.799 97.687,286.22 104.607,293.031 97.687,299.851 
			107.05,297.271 109.492,306.67 111.935,297.271 121.298,299.851 114.383,293.031 121.298,286.22 		"/>
		<path fill="#CF3335" d="M115.084,221.625l0.179-1.234l-0.97-3.25h-0.7l-0.09-0.611c0,0-1.054-0.18-1.754-0.263
			c-0.18,0-0.354,0-0.443,0l0.881-0.527l0.437-0.09l0.09-0.09c0-0.084-0.526-0.173-0.526-0.173l-0.09,0.263h-0.175v-0.617
			l-1.58-0.611h-0.526v0.701h-0.7l-0.181-0.88l-0.173,0.88h-0.971l-0.083,0.264l-0.264-0.443l-0.527-0.173l-1.143,0.79v-1.054
			h-0.264v1.581h-0.88v0.443h0.526c-0.263,1.054-0.526,1.138-0.526,1.138v6.148h0.526c0.09-0.438,0.354-0.611,0.354-0.611v0.611
			h0.438v0.969l0.88,0.264v0.874h0.7v-0.79c0.18-0.173,0.526,0.09,0.526,0.09c0.091,0.264,0.707,0.09,0.707,0.09v1.137h0.438v-0.083
			c0.089,0.347,1.58,0.61,1.58,0.61c0.18-0.174,1.407-0.174,1.407-0.174v-1.58c1.053-0.09,1.58,0.354,1.58,0.354l0.526-0.09
			l-0.174-1.934v-1.665h2.897c0-0.005,0-0.011,0-0.011L115.084,221.625z"/>
		<polygon fill="#CF3335" points="77.051,306.67 79.499,297.265 88.862,299.851 81.941,293.031 88.862,286.22 79.499,288.799 
			77.051,279.4 74.614,288.799 68.999,287.249 68.981,287.291 68.921,287.41 68.76,287.429 68.76,288.309 68.819,288.488 
			68.777,288.572 68.586,288.572 68.586,288.812 68.406,289.171 68.406,289.326 72.166,293.031 68.706,296.444 68.76,296.553 
			68.76,296.612 69.232,297.576 69.232,297.695 69.274,297.779 69.292,298.007 69.514,298.223 69.717,298.617 74.614,297.265 		"/>
		<polygon fill="#D1DDE8" points="68.406,289.326 68.406,289.607 68.424,289.625 68.353,289.967 68.346,290.47 68.395,290.607 
			68.269,290.745 68.179,291.093 68.167,291.302 68.232,291.613 68.28,292.002 68.238,292.17 68.227,293.619 68.316,293.619 
			68.346,293.709 68.346,293.918 68.424,294.073 68.525,294.72 68.699,295.324 68.699,295.517 68.592,295.947 68.586,296.265 
			68.651,296.337 68.706,296.444 72.166,293.031 		"/>
	</g>
	<g>
		<path fill="#FFFFFF" d="M204.121,250.835c1.352,1.501,2.477,2.702,5.104,4.128c3.528,1.877,7.131,2.553,10.209,2.553
			c5.255,0,9.758-2.478,9.758-6.155c0-4.204-5.329-4.879-9.233-5.404c-2.927-0.375-5.854-0.751-8.706-1.351
			c-3.229-0.676-14.263-3.003-14.263-14.412c0-13.662,12.16-17.715,21.317-17.715c12.236,0,18.841,5.93,23.42,10.058l-9.758,6.981
			c-1.652-1.652-3.152-3.078-5.255-4.279c-1.876-1.051-5.254-2.327-8.632-2.327c-5.254,0-7.882,3.003-7.882,5.555
			c0,4.053,4.504,4.654,6.756,4.954c5.63,0.676,13.211,2.102,16.214,3.153c6.079,2.252,9.156,6.98,9.156,12.986
			c0,3.828-1.425,8.032-4.202,11.259c-4.805,5.555-12.46,7.131-19.892,7.131c-14.938,0-20.867-6.906-24.17-10.734L204.121,250.835z"
			/>
		<path fill="#FFFFFF" d="M245.551,213.679h40.834v10.509h-13.735v42.56h-13.287v-42.56h-13.812V213.679z"/>
		<path fill="#FFFFFF" d="M312.88,213.754l19.517,52.994h-14.111l-2.627-8.482h-19.517l-2.627,8.482h-14.112l19.667-52.994H312.88z
			 M305.75,226.365c-0.676,2.702-1.427,5.479-2.178,8.182c-1.126,3.979-3.152,10.209-4.354,14.187h13.438L305.75,226.365z"/>
		<path fill="#FFFFFF" d="M326.99,213.679h40.833v10.509h-13.735v42.56h-13.286v-42.56H326.99V213.679z"/>
		<path fill="#FFFFFF" d="M373.75,213.754h39.184v10.283h-25.972v9.608h24.245v10.059h-24.245v12.61h28.299v10.434H373.75V213.754z"
			/>
		<path fill="#FFFFFF" d="M222.887,333.464c-16.813,0-26.347-12.91-26.347-28.222c0-14.338,9.083-27.925,26.122-27.925
			c3.152,0,6.455,0.451,9.683,1.577c16.213,5.629,17.264,23.269,17.264,26.872c0,9.157-4.203,17.414-10.058,22.144
			C234.371,332.188,228.366,333.464,222.887,333.464z M232.045,292.255c-2.252-2.402-5.705-3.902-9.309-3.902
			c-8.031,0-13.136,7.056-13.136,16.663c0,12.611,7.057,17.265,13.286,17.265c6.306,0,13.061-4.504,13.437-15.613
			C236.548,301.113,235.047,295.482,232.045,292.255z"/>
		<path fill="#FFFFFF" d="M298.547,278.97v10.208h-27.474v11.109h25.296v10.283h-25.296v21.393h-13.212V278.97H298.547z"/>
		<path fill="#FFFFFF" d="M244.505,385.094c-1.951,3.076-3.827,6.08-8.032,9.006c-2.252,1.576-7.431,4.656-14.786,4.656
			c-14.037,0-25.372-10.209-25.372-28.15c0-15.686,10.659-28.072,25.672-28.072c6.08,0,11.484,2.102,15.463,5.254
			c3.678,2.928,5.404,5.854,6.905,8.48l-10.508,5.256c-0.751-1.725-1.651-3.527-3.979-5.479c-2.552-2.027-5.104-2.627-7.281-2.627
			c-8.558,0-13.062,7.957-13.062,16.812c0,11.635,5.931,17.416,13.062,17.416c6.906,0,9.683-4.805,11.484-7.883L244.505,385.094z"/>
		<path fill="#FFFFFF" d="M296.145,344.186v52.994h-13.287v-22.594h-19.365v22.594H250.13v-52.994h13.362v19.139h19.365v-19.139
			H296.145z"/>
		<path fill="#FFFFFF" d="M320.915,344.186v52.994h-13.21v-52.994H320.915z"/>
		<path fill="#FFFFFF" d="M377.664,385.094c-1.952,3.076-3.828,6.08-8.032,9.006c-2.252,1.576-7.431,4.656-14.787,4.656
			c-14.037,0-25.371-10.209-25.371-28.15c0-15.686,10.658-28.072,25.671-28.072c6.08,0,11.485,2.102,15.464,5.254
			c3.678,2.928,5.403,5.854,6.904,8.48l-10.508,5.256c-0.75-1.725-1.651-3.527-3.978-5.479c-2.554-2.027-5.104-2.627-7.282-2.627
			c-8.557,0-13.061,7.957-13.061,16.812c0,11.635,5.931,17.416,13.061,17.416c6.906,0,9.684-4.805,11.484-7.883L377.664,385.094z"/>
		<path fill="#FFFFFF" d="M411.505,344.186l19.517,52.994h-14.112l-2.627-8.482h-19.517l-2.627,8.482h-14.111l19.666-52.994H411.505
			z M404.374,356.795c-0.676,2.701-1.426,5.479-2.177,8.182c-1.126,3.979-3.153,10.209-4.354,14.188h13.436L404.374,356.795z"/>
		<path fill="#FFFFFF" d="M472.228,392.225c-2.177,2.025-6.681,6.154-15.613,6.154c-14.787,0-23.869-12.008-23.869-27.623
			c0-17.039,11.033-28.373,26.121-28.373c14.036,0,20.868,9.008,23.345,12.234l-10.059,6.082c-1.876-2.854-4.953-7.508-12.31-7.508
			c-10.06,0-13.887,8.332-13.887,17.189c0,6.006,1.651,10.885,4.203,13.512c2.026,2.176,5.63,3.828,9.684,3.828
			c2.401,0,5.104-0.602,7.28-2.027c3.453-2.252,3.904-5.104,4.278-7.881h-11.859v-10.059h23.044v29.426h-10.358V392.225z"/>
		<path fill="#FFFFFF" d="M517.111,398.68c-16.813,0-26.348-12.91-26.348-28.223c0-14.338,9.083-27.924,26.122-27.924
			c3.152,0,6.455,0.449,9.683,1.576c16.213,5.629,17.265,23.27,17.265,26.873c0,9.156-4.204,17.414-10.059,22.143
			C528.596,397.402,522.591,398.68,517.111,398.68z M526.269,357.471c-2.252-2.402-5.705-3.904-9.309-3.904
			c-8.031,0-13.136,7.057-13.136,16.664c0,12.611,7.057,17.266,13.287,17.266c6.305,0,13.061-4.506,13.436-15.613
			C530.771,366.328,529.271,360.699,526.269,357.471z"/>
	</g>
</g>
</svg>
