<?xml version="1.0" encoding="utf-8"?>
<!-- Generator: Adobe Illustrator 16.0.4, SVG Export Plug-In . SVG Version: 6.00 Build 0)  -->
<!DOCTYPE svg PUBLIC "-//W3C//DTD SVG 1.1//EN" "http://www.w3.org/Graphics/SVG/1.1/DTD/svg11.dtd">
<svg version="1.1" xmlns="http://www.w3.org/2000/svg" xmlns:xlink="http://www.w3.org/1999/xlink" x="0px" y="0px"
	 width="366.525px" height="392.186px" viewBox="0 0 366.525 392.186" enable-background="new 0 0 366.525 392.186"
	 xml:space="preserve">
<g id="Layer_2">
</g>
<g id="Layer_1">
	<g>
		<g>
			<g>
				<path d="M86.214,33.701c3.9-4.761,8.067-8.878,12.511-12.345c4.436-3.463,9.043-6.826,13.808-10.072
					c6.282-4.113,13.486-7.201,21.61-9.263c8.122-2.054,16.296-2.543,24.532-1.461c3.248,0.436,6.441,1.3,9.585,2.598
					c3.138,1.302,5.955,3.087,8.447,5.362c2.489,2.276,4.55,5.199,6.175,8.774c1.624,3.574,2.544,7.854,2.763,12.835
					c0.215,5.198-0.761,10.616-2.927,16.246c-2.167,5.636-5.255,11.212-9.259,16.735c-4.012,5.521-8.829,10.777-14.461,15.76
					c-5.635,4.984-11.811,9.422-18.521,13.321c-1.735,1.087-3.469,2.112-5.2,3.087c-1.735,0.975-4.061,2.168-6.983,3.576
					c-2.926,1.41-6.611,3.035-11.048,4.874c-4.443,1.841-10.129,4.062-17.06,6.661c-6.937,2.818-13.162,5.362-18.684,7.635
					c-5.525,2.276-10.129,4.28-13.811,6.012h3.9c8.01,0,16.028,1.519,24.044,4.549c12.999,5.635,22.744,8.448,29.245,8.448
					c5.631,0,10.179-1.406,13.647-4.225c0.646-0.432,1.298-0.918,1.948-1.462c0.648-0.538,1.3-0.92,1.95-1.137
					c1.299-0.431,2.38-0.325,3.249,0.326c0.863,0.649,1.081,1.734,0.65,3.249c-0.221,0.437-0.487,0.923-0.814,1.462
					c-0.323,0.542-0.599,1.029-0.812,1.463c-4.116,5.418-8.396,10.072-12.836,13.971c-4.44,3.9-9.151,7.262-14.132,10.072
					c-10.399,5.849-21.341,8.774-32.818,8.774c-6.285,0-11.697-0.866-16.248-2.6c-4.547-1.73-8.016-3.355-10.396-4.874
					c-4.337-2.599-8.773-4.76-13.324-6.499c-4.547-1.73-9.098-2.598-13.647-2.598c-3.685,0-7.26,0.649-10.722,1.95
					c-2.381,1.086-4.55,2.598-6.498,4.548c-1.95,1.951-3.788,4.118-5.524,6.499c-1.299,1.737-2.707,2.598-4.223,2.598
					c-1.082,0-2.163-0.538-3.251-1.625C0,165.41-0.27,164,0.27,162.699c0.545-1.297,1.031-2.273,1.463-2.922
					c7.798-12.779,23.177-25.127,46.139-37.043c3.465-1.732,6.825-3.357,10.073-4.874c3.251-1.514,6.499-3.033,9.748-4.549
					c6.93-3.463,13.811-6.876,20.634-10.236c6.821-3.357,13.593-7.091,20.31-11.21c4.547-2.599,9.204-6.172,13.973-10.722
					c4.76-4.55,9.311-9.101,13.644-13.648c5.632-5.849,9.693-11.804,12.188-17.87c2.487-6.062,3.299-11.587,2.436-16.571
					c-0.437-3.463-2.167-6.712-5.198-9.749c-3.037-3.031-7.365-4.549-12.996-4.549c-3.25,0-6.556,0.488-9.912,1.463
					c-3.36,0.974-6.661,2.329-9.909,4.062c-3.248,1.737-6.231,3.792-8.938,6.173c-2.71,2.386-4.927,4.985-6.661,7.799
					c-2.385,3.686-3.847,7.26-4.387,10.722c-0.542,3.468,1.026,5.742,4.712,6.824c2.601,0.867,5.251,0.812,7.963-0.164
					c2.704-0.975,5.467-2.437,8.285-4.387c2.381-1.511,3.949-2.057,4.711-1.623c0.758,0.435,1.026,1.355,0.812,2.762
					c-0.217,1.411-0.761,3.142-1.623,5.2c-0.868,2.062-1.737,3.847-2.601,5.359c-2.167,3.686-5.579,7.748-10.235,12.187
					c-4.661,4.441-10.672,7.852-18.032,10.233c-5.637,1.737-10.399,1.087-14.3-1.949c-3.898-3.031-5.197-8.336-3.898-15.922
					c0.865-4.98,2.813-10.448,5.849-16.408C77.549,45.131,81.446,39.339,86.214,33.701z"/>
			</g>
		</g>
		<g>
			<g>
				<path d="M212.34,152.101c0-5.844-2.262-9.707-4.994-13.384c-3.957,4.524-9.803,8.201-20.076,8.201
					c-14.98,0-26.95-4.714-26.95-17.625c0-8.009,3.769-13.381,14.796-15.83c-5.279-4.808-8.294-9.614-8.294-16.305
					c0-12.911,10.651-18.189,21.677-18.189c13.193,0,18.848,5.185,18.848,12.534c0,6.502-4.808,11.687-15.176,15.267
					c2.075,1.415,4.526,3.016,7.354,4.806c4.994,3.205,10.083,6.411,14.323,10.462c1.039-4.806,1.508-9.427,1.601-13.76h-7.444
					v-1.884h16.399v1.884h-6.598c-0.094,5.372-0.565,10.65-1.789,15.927c4.523,4.994,8.197,9.896,8.197,19.13
					c0,13.477-11.211,26.199-23.465,26.199c-8.199,0-12.912-3.581-12.912-9.518c0-4.712,3.301-7.916,7.822-7.916
					c4.808,0,7.539,2.354,7.539,6.785c0,0.942-0.188,2.074-0.564,3.394h-3.297c-0.943,2.826-0.377,4.995,3.389,4.995
					C209.137,167.274,212.34,160.017,212.34,152.101z M205.74,136.738c-3.107-3.298-6.5-6.032-12.155-9.8
					c-6.88-4.523-12.722-8.198-17.149-12.063c-0.945,1.978-1.413,5.276-1.413,11.779c0,13.384,5.276,17.813,14.89,17.813
					C197.638,144.466,202.538,140.979,205.74,136.738z M190.476,105.638c5.845-3.11,5.938-7.35,5.938-13.569
					c0-7.541-2.829-11.121-8.199-11.121c-3.959,0-8.672,1.979-8.672,9.613C179.543,96.404,181.899,99.701,190.476,105.638z"/>
			</g>
		</g>
		<g>
			<g>
				<path d="M284.316,50.092c3.684-0.864,7.904-1.301,12.674-1.301c3.463,0,6.928,0.437,10.395,1.301
					c3.463,0.868,6.877,1.787,10.234,2.761c3.357,0.973,6.77,1.844,10.24,2.598c3.459,0.762,7.033,1.139,10.723,1.139
					c3.246,0,6.062-0.595,8.445-1.788c2.381-1.187,4.436-2.542,6.178-4.062c1.729-1.513,3.299-2.868,4.709-4.061
					c1.406-1.188,2.762-1.789,4.059-1.789c1.082,0,2.115,0.438,3.09,1.302c0.975,0.866,1.463,1.948,1.463,3.246
					c0,0.871-0.326,1.628-0.977,2.276c-3.684,4.119-7.471,8.074-11.369,11.861c-3.9,3.792-7.693,7.747-11.375,11.859
					c-6.283,6.937-12.24,13.924-17.873,20.958c-5.633,7.043-11.26,14.248-16.895,21.609c-9.748,12.997-19.389,25.78-28.922,38.341
					c-9.531,12.566-18.629,25.67-27.291,39.318c-0.438,0.65-1.248,1.949-2.436,3.898c-1.195,1.949-2.494,3.957-3.904,6.014
					c-1.408,2.059-2.758,3.895-4.059,5.523c-1.299,1.623-2.273,2.436-2.926,2.436h-0.648c-6.283-1.514-13.434-2.273-21.445-2.273
					c-4.768,0-9.424,0.324-13.974,0.973c-1.087,0.219-2.223,0.434-3.412,0.652c-1.191,0.213-2.327,0.322-3.411,0.322
					c-2.162,0-3.248-0.861-3.248-2.598c0-0.648,0.324-1.303,0.975-1.949L318.107,85.834c-4.547,2.167-9.42,3.248-14.619,3.248
					c-4.336,0-8.285-0.592-11.861-1.787c-3.574-1.188-7.039-2.437-10.396-3.736c-3.361-1.298-6.775-2.543-10.236-3.738
					c-3.469-1.188-7.15-1.786-11.049-1.786c-4.768,0-8.502,0.868-11.211,2.598c-2.709,1.738-4.928,3.577-6.66,5.527
					c-1.738,1.947-3.195,3.792-4.385,5.523c-1.193,1.735-2.439,2.599-3.736,2.599c-2.6,0-3.9-1.514-3.9-4.549
					c0-2.813,2.111-6.663,6.336-11.535s9.148-9.693,14.785-14.46c5.627-4.761,11.154-8.823,16.57-12.183
					c5.414-3.357,9.426-5.037,12.023-5.037c1.08,0,2.111,0.275,3.086,0.812c0.975,0.544,1.463,1.355,1.463,2.437V50.092z"/>
			</g>
		</g>
	</g>
	<g>
		<g>
			<path d="M222.248,248.247c0.04-0.622,0.064-0.932,0.104-1.553c0.206-3.181-0.297-4.446-2.698-4.593
				c-0.436-0.025-0.656-0.041-1.096-0.067c-0.242,4.081-0.363,6.12-0.604,10.201c0.351,0.021,0.524,0.03,0.875,0.054
				C221.264,252.436,222.072,250.962,222.248,248.247z"/>
		</g>
		<g>
			<path d="M235.131,257.326c2.43,0.204,3.646,0.312,6.076,0.538c-0.847-3.572-1.276-5.357-2.152-8.926
				C237.471,252.29,236.685,253.966,235.131,257.326z"/>
		</g>
		<g>
			<path d="M111.701,253.447c-0.602-6.773-1.106-10.135-5.215-9.745c-4.141,0.393-4.06,3.925-3.377,10.693
				c0.097,0.951,0.145,1.431,0.24,2.382c0.627,6.204,1.382,9.719,5.263,9.353c3.716-0.353,3.896-3.589,3.306-10.232
				C111.831,254.919,111.788,254.425,111.701,253.447z"/>
		</g>
		<g>
			<path d="M218.689,252.912c-0.312-0.019-0.465-0.028-0.773-0.047c-0.266,4.438-0.401,6.659-0.667,11.099
				c0.626,0.037,0.938,0.057,1.562,0.095c2.56,0.158,3.423-1.713,3.627-4.758c0.045-0.701,0.066-1.054,0.114-1.756
				C222.732,254.831,221.968,253.11,218.689,252.912z"/>
		</g>
		<g>
			<polygon points="89.229,303.455 89.229,285.195 60.813,288.91 			"/>
		</g>
		<g>
			<polygon points="56.452,260.849 15.788,261.679 34.416,283.438 15.788,305.194 87.489,305.194 59.074,290.646 			"/>
		</g>
		<g>
			<polygon points="260.427,284.63 260.427,303.455 288.843,288.91 			"/>
		</g>
		<g>
			<path d="M264.757,246.263c-0.448-0.058-0.679-0.085-1.125-0.14c-0.498,4.058-0.74,6.089-1.235,10.146
				c0.429,0.053,0.641,0.077,1.072,0.131c2.488,0.309,3.943-0.877,4.4-4.43c0.051-0.381,0.074-0.57,0.124-0.953
				C268.468,247.331,267.146,246.558,264.757,246.263z"/>
		</g>
		<g>
			<path d="M288.843,286.303c1.359-9.561,2.722-19.119,4.081-28.68c1.029-7.239,2.06-14.479,3.091-21.719
				c-80.241-11.421-161.698-11.421-241.941,0c2.392,16.798,4.783,33.6,7.173,50.398c68.942-9.813,138.838-10.662,207.945-2.551
				C275.749,284.521,282.3,285.371,288.843,286.303z M94.528,267.941c-0.281-0.401-0.44-0.622-0.969-0.56
				c-1.127,0.13-2.827,1.365-6.463,1.823c-7.008,0.882-11.818-2.164-12.936-10.018c-1.131-7.95,3.045-12.852,10.05-13.733
				c3.554-0.447,5.316,0.387,6.512,0.247c0.547-0.062,0.657-0.31,0.847-0.767c0.15-0.017,0.226-0.028,0.376-0.045
				c0.438,2.85,0.658,4.275,1.095,7.125c-0.244,0.027-0.368,0.039-0.612,0.067c-2.329-3.84-4.72-6.396-7.656-6.028
				c-3.448,0.432-4.889,3.707-3.987,10.517c0.138,1.037,0.207,1.556,0.345,2.595c0.801,6.052,3.072,9.735,6.679,9.285
				c2.68-0.336,4.495-3.36,5.874-7.86c0.241-0.028,0.362-0.041,0.604-0.068c0.242,2.951,0.363,4.424,0.607,7.376
				C94.747,267.914,94.674,267.925,94.528,267.941z M108.547,266.837c-7.39,0.702-11.399-3.132-12.203-10.388
				c-0.839-7.587,2.713-12.746,10.353-13.468c7.366-0.695,11.451,3.401,12.043,10.911
				C119.322,261.268,116.201,266.109,108.547,266.837z M137.883,247.984c-1.913-4.686-3.813-5.985-8.202-5.71
				c-0.383,0.024-0.58,0.036-0.964,0.062c0.275,4.305,0.413,6.457,0.689,10.762c0.607-0.038,0.913-0.059,1.521-0.096
				c2.194-0.137,3.549-1.905,3.943-4.585c0.205-0.013,0.307-0.021,0.511-0.032c0.217,3.923,0.327,5.886,0.543,9.809
				c-0.229,0.014-0.343,0.016-0.57,0.029c-0.926-3.304-2.183-4.496-4.375-4.36c-0.607,0.038-0.91,0.058-1.518,0.096
				c0.259,4.039,0.389,6.058,0.647,10.1c1.649-0.106,2.474-0.153,4.123-0.249c0.017,0.292,0.028,0.431,0.045,0.724
				c-5.024,0.292-7.536,0.459-12.555,0.841c-0.022-0.292-0.034-0.43-0.057-0.723c0.784-0.059,1.178-0.091,1.963-0.148
				c-0.636-8.686-0.954-13.027-1.59-21.709c-0.809,0.059-1.214,0.092-2.022,0.153c-0.022-0.291-0.033-0.44-0.056-0.732
				c7.132-0.544,10.702-0.772,17.842-1.139c0.279,2.749,0.417,4.129,0.693,6.879C138.252,247.967,138.127,247.972,137.883,247.984z
				 M158.023,247.224c-1.781-4.736-3.647-6.092-8.039-5.94c-0.384,0.014-0.577,0.024-0.962,0.037
				c0.156,4.31,0.233,6.468,0.389,10.777c0.608-0.022,0.911-0.033,1.52-0.054c2.197-0.074,3.602-1.808,4.072-4.476
				c0.203-0.005,0.305-0.012,0.508-0.017c0.107,3.928,0.162,5.894,0.27,9.821c-0.228,0.006-0.341,0.01-0.567,0.017
				c-0.834-3.329-2.058-4.561-4.252-4.486c-0.607,0.02-0.91,0.032-1.518,0.053c0.146,4.047,0.218,6.07,0.364,10.117
				c1.65-0.06,2.476-0.087,4.127-0.137c0.009,0.293,0.014,0.433,0.023,0.726c-5.027,0.152-7.542,0.251-12.567,0.491
				c-0.014-0.292-0.021-0.431-0.035-0.722c0.785-0.038,1.176-0.059,1.961-0.093c-0.394-8.701-0.589-13.049-0.982-21.746
				c-0.81,0.036-1.214,0.056-2.022,0.094c-0.015-0.291-0.021-0.441-0.034-0.732c7.141-0.345,10.711-0.472,17.855-0.64
				c0.202,2.757,0.304,4.135,0.503,6.893C158.391,247.211,158.269,247.216,158.023,247.224z M179.336,263.353
				c-7.305-0.042-10.955-0.017-18.259,0.131c-0.006-0.293-0.01-0.435-0.016-0.726c0.786-0.017,1.178-0.023,1.964-0.037
				c-0.15-8.709-0.223-13.061-0.374-21.766c-0.811,0.014-1.218,0.02-2.027,0.037c-0.006-0.292-0.008-0.438-0.014-0.73
				c7.146-0.145,10.718-0.172,17.864-0.14c0.126,2.629,0.188,3.944,0.309,6.573c-0.242-0.001-0.365-0.005-0.61-0.006
				c-1.854-4.354-3.476-5.854-7.629-5.827c-0.48,0.004-0.723,0.007-1.202,0.01c0.033,4.101,0.051,6.148,0.084,10.249
				c0.46-0.003,0.69-0.003,1.15-0.007c2.199-0.015,3.616-1.837,4.191-4.358c0.204,0,0.308,0,0.511,0
				c0,3.928,0.002,5.888,0.002,9.817c-0.229,0-0.343,0-0.57,0c-0.808-3.317-2.1-4.608-4.466-4.592
				c-0.324,0.001-0.485,0.004-0.811,0.006c0.035,4.26,0.052,6.39,0.085,10.65c0.506-0.003,0.759-0.006,1.265-0.01
				c4.229-0.026,7.167-2.896,8.194-6.51c0.269,0.002,0.401,0.002,0.669,0.003C179.521,259.014,179.457,260.46,179.336,263.353z
				 M200.091,263.781c-7.301-0.256-10.952-0.343-18.254-0.412c0.002-0.291,0.002-0.429,0.007-0.721
				c0.783,0.006,1.182,0.01,1.964,0.02c0.107-8.709,0.162-13.063,0.264-21.769c-0.809-0.011-1.215-0.012-2.023-0.021
				c0.002-0.292,0.005-0.438,0.009-0.73c7.146,0.066,10.715,0.141,17.858,0.382c0.05,2.632,0.074,3.948,0.121,6.58
				c-0.244-0.008-0.37-0.016-0.614-0.023c-1.728-4.407-3.31-5.954-7.462-6.049c-0.479-0.012-0.714-0.017-1.195-0.026
				c-0.086,4.099-0.131,6.149-0.219,10.25c0.46,0.009,0.688,0.017,1.148,0.025c2.199,0.05,3.67-1.729,4.32-4.233
				c0.206,0.007,0.309,0.007,0.513,0.013c-0.114,3.927-0.173,5.89-0.289,9.817c-0.229-0.006-0.345-0.013-0.574-0.019
				c-0.71-3.341-1.963-4.668-4.328-4.722c-0.322-0.007-0.486-0.011-0.809-0.017c-0.093,4.26-0.136,6.386-0.226,10.647
				c0.505,0.011,0.757,0.015,1.265,0.027c4.228,0.097,7.246-2.682,8.38-6.262c0.268,0.01,0.398,0.01,0.667,0.02
				C200.401,259.449,200.3,260.893,200.091,263.781z M218.341,264.659c-3.905-0.238-5.863-0.342-9.771-0.525
				c0.012-0.253,0.019-0.378,0.028-0.629c0.866,0.039,1.303,0.058,2.166,0.101c0.446-8.777,0.674-13.161,1.11-21.936
				c-0.89-0.045-1.343-0.066-2.232-0.107c0.012-0.252,0.017-0.381,0.028-0.634c4.107,0.194,6.162,0.304,10.264,0.557
				c6.038,0.369,9.434,1.969,9.127,6.071c-0.234,3.178-2.387,4.706-5.974,5.033c0,0.026-0.005,0.04-0.007,0.066
				c4.221,0.813,6.583,2.77,6.317,6.243C229.008,264.026,224.585,265.041,218.341,264.659z M251.584,267.482
				c-4.329-0.471-6.498-0.694-10.832-1.098c0.023-0.25,0.03-0.378,0.054-0.629c0.942,0.088,1.414,0.132,2.356,0.224
				c-0.693-2.948-1.047-4.415-1.758-7.361c-2.655-0.246-3.981-0.364-6.639-0.587c-1.271,2.77-1.9,4.156-3.15,6.934
				c0.996,0.08,1.492,0.119,2.488,0.202c-0.021,0.252-0.033,0.376-0.055,0.627c-2.03-0.168-3.046-0.254-5.077-0.408
				c0.02-0.252,0.028-0.371,0.048-0.624c0.624,0.049,0.935,0.074,1.559,0.121c4.106-8.826,6.211-13.226,10.527-21.989
				c1.122,0.102,1.688,0.151,2.813,0.257c2.596,9.405,3.834,14.112,6.209,23.537c0.612,0.064,0.916,0.1,1.525,0.166
				C251.627,267.104,251.613,267.232,251.584,267.482z M265.623,263.36c0.123-0.961,0.183-1.442,0.306-2.403
				c0.297-2.336-0.014-3.616-1.829-3.842c-0.714-0.09-1.065-0.136-1.779-0.222c-0.541,4.412-0.816,6.619-1.357,11.031
				c0.861,0.105,1.291,0.16,2.154,0.269c-0.033,0.25-0.05,0.378-0.083,0.628c-4.299-0.539-6.446-0.793-10.752-1.266
				c0.028-0.251,0.04-0.376,0.068-0.626c0.861,0.095,1.298,0.143,2.159,0.24c0.984-8.731,1.479-13.1,2.463-21.83
				c-0.888-0.1-1.331-0.144-2.219-0.242c0.028-0.251,0.041-0.378,0.066-0.628c4.133,0.453,6.197,0.694,10.323,1.207
				c7.139,0.888,10.446,2.108,9.779,6.906c-0.558,4.01-2.875,4.89-6.477,4.72c-0.005,0.041-0.01,0.06-0.012,0.1
				c3.568,0.935,4.619,2.492,4.095,6.307c-0.098,0.696-0.147,1.045-0.242,1.742c-0.297,2.138-0.306,2.908,0.619,3.037
				c0.598,0.083,1.13-0.111,1.922-2.614c0.223,0.058,0.337,0.086,0.558,0.145c-1.032,3.674-2.081,4.496-5.153,4.077
				C266.073,269.53,265.027,268,265.623,263.36z"/>
		</g>
		<g>
			<polygon points="334.737,261.679 293.32,261.679 291.45,290.646 263.034,305.194 334.737,305.194 316.11,283.438 			"/>
		</g>
	</g>
	<g>
		<path d="M78.966,347.243c-0.357,0.341-0.8,0.674-1.327,1.001l-2.843-2.977l-2.176,2.075l3.697,3.871
			c-0.34,0.501-0.684,0.917-1.032,1.249c-0.378,0.361-0.825,0.699-1.342,1.016l-6.303-6.6l11.015-10.51l6.215,6.508
			c-0.186,0.255-0.366,0.486-0.54,0.691c-0.175,0.206-0.349,0.392-0.522,0.558c-0.337,0.321-0.78,0.666-1.329,1.031l-3.608-3.778
			l-1.685,1.607l2.842,2.977C79.667,346.484,79.313,346.912,78.966,347.243z"/>
		<path d="M89.225,354.401c0.314,0.562,0.58,1.088,0.795,1.58c0.216,0.491,0.349,0.979,0.397,1.462
			c0.049,0.484-0.008,0.974-0.169,1.468c-0.161,0.496-0.459,1.014-0.892,1.553c-0.469,0.583-0.994,1.025-1.574,1.328
			c-0.581,0.303-1.206,0.462-1.874,0.475c-0.668,0.016-1.365-0.121-2.092-0.408s-1.467-0.734-2.22-1.34
			c-0.687-0.554-1.248-1.098-1.685-1.631c-0.437-0.532-0.867-1.161-1.29-1.882c0.354-0.35,0.761-0.697,1.221-1.043
			s0.949-0.681,1.467-1.007c0.664,1.261,1.373,2.194,2.125,2.802c0.564,0.454,1.073,0.725,1.525,0.808
			c0.452,0.084,0.846-0.083,1.183-0.501c0.142-0.176,0.23-0.354,0.266-0.534c0.035-0.181,0.032-0.359-0.007-0.536
			c-0.04-0.178-0.105-0.353-0.195-0.524c-0.09-0.172-0.185-0.343-0.284-0.515l-0.651-1.096c-0.284-0.464-0.509-0.927-0.676-1.389
			c-0.167-0.461-0.259-0.919-0.274-1.376s0.054-0.913,0.21-1.368c0.155-0.455,0.423-0.918,0.803-1.391
			c0.469-0.583,0.984-1.021,1.546-1.311s1.149-0.447,1.761-0.472c0.611-0.023,1.236,0.091,1.874,0.341
			c0.637,0.252,1.272,0.632,1.903,1.14c0.564,0.456,1.065,0.948,1.502,1.482c0.437,0.534,0.87,1.146,1.3,1.837
			c-0.328,0.317-0.72,0.64-1.176,0.97c-0.457,0.33-0.924,0.61-1.402,0.842c-0.191-0.353-0.427-0.751-0.708-1.196
			c-0.282-0.444-0.71-0.898-1.285-1.362c-0.177-0.143-0.359-0.262-0.546-0.358s-0.373-0.16-0.558-0.191
			c-0.185-0.03-0.367-0.015-0.546,0.05c-0.18,0.063-0.344,0.189-0.495,0.377c-0.256,0.318-0.342,0.64-0.255,0.963
			c0.086,0.324,0.229,0.656,0.428,0.999L89.225,354.401z"/>
		<path d="M99.958,358.819l-3.032-1.866c0.208-0.585,0.445-1.095,0.71-1.528c0.243-0.396,0.581-0.827,1.014-1.29l9.276,5.71
			c-0.114,0.295-0.229,0.564-0.344,0.809c-0.116,0.243-0.236,0.468-0.362,0.672c-0.243,0.397-0.583,0.844-1.019,1.339l-3.032-1.866
			l-6.191,10.116c-0.708-0.286-1.273-0.56-1.697-0.82c-0.448-0.276-0.953-0.662-1.516-1.158L99.958,358.819z"/>
		<path d="M105.896,375.808c-0.32-0.087-0.608-0.175-0.864-0.263c-0.257-0.089-0.501-0.187-0.732-0.295s-0.492-0.249-0.779-0.423
			c-0.288-0.172-0.604-0.378-0.948-0.617l10.667-11.718c0.353,0.117,0.679,0.231,0.981,0.341c0.301,0.109,0.6,0.233,0.896,0.371
			c0.244,0.114,0.506,0.252,0.783,0.413c0.278,0.16,0.595,0.347,0.95,0.56l-2.082,15.745c-0.787-0.227-1.458-0.469-2.011-0.728
			c-0.258-0.12-0.509-0.253-0.755-0.398s-0.505-0.313-0.777-0.503l0.5-3.016c-0.408-0.065-0.788-0.149-1.14-0.251
			c-0.352-0.103-0.689-0.229-1.011-0.378c-0.296-0.139-0.588-0.302-0.877-0.491c-0.288-0.188-0.579-0.406-0.872-0.651
			L105.896,375.808z M113.289,366.911l-3.576,4.34c0.189,0.167,0.372,0.313,0.547,0.442c0.176,0.129,0.366,0.241,0.572,0.337
			c0.219,0.103,0.442,0.187,0.669,0.254c0.227,0.066,0.472,0.122,0.733,0.166L113.289,366.911z"/>
		<path d="M131.708,381.046c-0.283,0.89-0.68,1.57-1.188,2.045c-0.509,0.474-1.101,0.787-1.775,0.939
			c-0.675,0.152-1.425,0.169-2.251,0.049c-0.826-0.119-1.699-0.327-2.617-0.626c-0.729-0.236-1.375-0.477-1.939-0.719
			c-0.563-0.243-1.169-0.513-1.819-0.813l4.606-14.442c0.539,0.087,1.121,0.201,1.746,0.344c0.625,0.145,1.342,0.348,2.153,0.61
			c0.77,0.25,1.469,0.548,2.096,0.892c0.628,0.346,1.143,0.751,1.546,1.215c0.403,0.466,0.669,0.998,0.798,1.598
			s0.072,1.282-0.173,2.051c-0.202,0.632-0.527,1.162-0.977,1.588s-0.935,0.71-1.457,0.854c0.272,0.221,0.521,0.477,0.75,0.767
			c0.229,0.289,0.407,0.615,0.538,0.978c0.13,0.361,0.199,0.766,0.205,1.214C131.957,380.034,131.876,380.521,131.708,381.046z
			 M125.556,376.998l-1.083,3.395c0.09,0.044,0.205,0.092,0.345,0.145c0.14,0.054,0.324,0.116,0.554,0.191
			c0.257,0.083,0.525,0.141,0.806,0.172c0.28,0.032,0.549,0.02,0.806-0.038c0.256-0.059,0.484-0.179,0.684-0.358
			c0.199-0.181,0.353-0.438,0.46-0.775c0.207-0.646,0.136-1.164-0.21-1.551c-0.346-0.388-0.856-0.689-1.531-0.91L125.556,376.998z
			 M126.47,374.131l0.567,0.185c0.58,0.188,1.07,0.217,1.47,0.087c0.399-0.131,0.691-0.485,0.876-1.064
			c0.09-0.282,0.107-0.537,0.053-0.763c-0.055-0.226-0.153-0.421-0.294-0.586c-0.142-0.165-0.314-0.302-0.517-0.412
			c-0.203-0.111-0.406-0.199-0.608-0.265c-0.081-0.027-0.179-0.059-0.294-0.096s-0.215-0.062-0.3-0.075L126.47,374.131z"/>
		<path d="M139.369,371.896c0.386,0.027,0.734,0.061,1.045,0.099c0.311,0.04,0.584,0.085,0.819,0.137
			c0.25,0.055,0.527,0.131,0.834,0.227c0.306,0.097,0.633,0.212,0.981,0.347l-2.482,11.616l4.803,1.055
			c-0.005,0.36-0.024,0.671-0.058,0.933c-0.034,0.26-0.073,0.493-0.117,0.701c-0.051,0.235-0.113,0.479-0.189,0.729
			c-0.075,0.251-0.187,0.549-0.332,0.894l-8.483-1.864L139.369,371.896z"/>
		<path d="M152.044,389.947c-0.519-0.078-1.134-0.234-1.845-0.47l2.146-14.997c0.387,0.001,0.737,0.01,1.05,0.027
			c0.312,0.019,0.588,0.045,0.827,0.081c0.252,0.037,0.534,0.095,0.846,0.169c0.312,0.076,0.646,0.169,1.003,0.279l-2.147,14.998
			C153.163,390.049,152.537,390.021,152.044,389.947z"/>
		<path d="M166.838,382.118c0.574,0.289,1.089,0.578,1.543,0.864c0.455,0.286,0.838,0.617,1.15,0.99
			c0.312,0.375,0.541,0.812,0.688,1.314c0.146,0.502,0.192,1.099,0.139,1.79c-0.059,0.748-0.241,1.411-0.549,1.989
			c-0.308,0.577-0.732,1.061-1.275,1.448c-0.541,0.388-1.192,0.667-1.952,0.837c-0.76,0.172-1.62,0.217-2.581,0.136
			c-0.876-0.072-1.645-0.209-2.304-0.405c-0.661-0.198-1.368-0.478-2.122-0.838c0.094-0.489,0.234-1.007,0.419-1.553
			c0.184-0.546,0.397-1.099,0.641-1.661c1.256,0.674,2.364,1.05,3.325,1.13c0.721,0.061,1.291-0.001,1.711-0.187
			c0.419-0.185,0.649-0.546,0.691-1.081c0.018-0.226-0.01-0.424-0.082-0.594c-0.072-0.169-0.175-0.315-0.308-0.44
			c-0.132-0.125-0.284-0.234-0.454-0.326c-0.171-0.093-0.346-0.181-0.523-0.268l-1.152-0.543c-0.494-0.226-0.94-0.483-1.338-0.772
			c-0.396-0.289-0.73-0.618-1.001-0.988c-0.27-0.371-0.469-0.789-0.596-1.255c-0.128-0.465-0.168-1-0.121-1.607
			c0.058-0.747,0.236-1.4,0.536-1.958c0.299-0.557,0.693-1.018,1.184-1.382c0.49-0.363,1.069-0.62,1.734-0.771
			c0.666-0.148,1.402-0.191,2.207-0.124c0.721,0.061,1.411,0.189,2.071,0.387c0.66,0.196,1.361,0.462,2.104,0.793
			c-0.092,0.447-0.233,0.937-0.424,1.467c-0.19,0.531-0.417,1.027-0.68,1.488c-0.356-0.187-0.774-0.384-1.256-0.595
			s-1.09-0.348-1.824-0.409c-0.226-0.019-0.443-0.016-0.651,0.01c-0.208,0.024-0.397,0.077-0.566,0.154
			c-0.17,0.079-0.311,0.194-0.422,0.349s-0.177,0.352-0.194,0.591c-0.032,0.409,0.078,0.724,0.332,0.944
			c0.253,0.22,0.558,0.415,0.914,0.587L166.838,382.118z"/>
		<path d="M186.106,391.68c-0.523,0.034-1.156,0.011-1.901-0.067l-0.443-6.189l-3.753,0.245l0.444,6.189
			c-0.741,0.176-1.358,0.28-1.854,0.312c-0.522,0.034-1.156,0.012-1.9-0.066l-1.084-15.134c0.377-0.081,0.72-0.146,1.029-0.195
			c0.309-0.049,0.583-0.081,0.824-0.097c0.254-0.017,0.542-0.021,0.861-0.014c0.32,0.008,0.666,0.027,1.038,0.06l0.402,5.617
			l3.753-0.245l-0.402-5.617c0.377-0.081,0.717-0.146,1.019-0.194c0.302-0.048,0.58-0.081,0.835-0.098
			c0.254-0.017,0.541-0.021,0.861-0.013c0.32,0.007,0.666,0.027,1.037,0.06l1.086,15.134
			C187.218,391.543,186.601,391.646,186.106,391.68z"/>
		<path d="M201.112,381.282c0.088,0.487,0.125,1.043,0.107,1.664l-4.037,0.707l0.539,2.971l5.25-0.92
			c0.232,0.564,0.391,1.083,0.477,1.558c0.094,0.516,0.131,1.078,0.111,1.686l-8.951,1.568l-2.729-15.043l8.828-1.546
			c0.109,0.297,0.203,0.577,0.279,0.836c0.076,0.261,0.137,0.51,0.18,0.747c0.082,0.459,0.127,1.02,0.133,1.681l-5.125,0.897
			l0.416,2.302l4.037-0.707C200.864,380.274,201.026,380.807,201.112,381.282z"/>
		<path d="M209.427,371.548c2.576-0.719,4.715-0.619,6.418,0.297c1.703,0.917,2.916,2.65,3.645,5.2
			c0.738,2.592,0.596,4.683-0.422,6.27c-1.02,1.586-2.865,2.753-5.535,3.498c-0.682,0.19-1.348,0.343-2,0.458
			c-0.65,0.115-1.295,0.218-1.932,0.307l-4.16-14.608c0.197-0.084,0.447-0.187,0.75-0.309c0.305-0.121,0.637-0.247,0.996-0.377
			s0.732-0.26,1.115-0.389C208.683,371.766,209.06,371.65,209.427,371.548z M212.392,383.663c0.1-0.013,0.211-0.036,0.334-0.07
			c0.121-0.034,0.252-0.07,0.389-0.108c0.531-0.148,1.014-0.353,1.447-0.613c0.432-0.261,0.773-0.603,1.02-1.025
			c0.248-0.422,0.391-0.94,0.43-1.555c0.037-0.614-0.068-1.359-0.316-2.232c-0.244-0.859-0.551-1.546-0.918-2.062
			c-0.367-0.516-0.766-0.894-1.195-1.135c-0.43-0.24-0.889-0.371-1.379-0.388c-0.49-0.018-0.98,0.041-1.473,0.178
			c-0.271,0.076-0.469,0.135-0.59,0.176s-0.201,0.067-0.242,0.079L212.392,383.663z"/>
		<path d="M234.63,379.45l-0.492-0.454l1.338-6.093c0.221-1.069,0.35-1.944,0.385-2.624c0.037-0.68-0.047-1.239-0.25-1.677
			c-0.186-0.399-0.477-0.651-0.877-0.758c-0.4-0.105-0.857-0.04-1.371,0.195c-0.488,0.224-0.904,0.52-1.248,0.888
			s-0.637,0.726-0.881,1.071c-0.416-0.355-0.807-0.73-1.176-1.124s-0.68-0.828-0.934-1.306c0.324-0.445,0.76-0.902,1.307-1.37
			c0.545-0.469,1.217-0.886,2.014-1.252c0.656-0.299,1.299-0.501,1.93-0.603c0.631-0.101,1.225-0.088,1.781,0.039
			c0.559,0.127,1.062,0.376,1.516,0.746c0.451,0.37,0.83,0.884,1.135,1.54c0.215,0.464,0.359,0.929,0.436,1.394
			c0.074,0.465,0.109,0.926,0.102,1.381c-0.006,0.456-0.045,0.904-0.115,1.341c-0.07,0.438-0.143,0.862-0.217,1.271l-0.383,2.049
			l3.373-1.546c0.367,0.488,0.643,0.933,0.828,1.331c0.209,0.451,0.379,0.973,0.516,1.566L234.63,379.45z"/>
		<path d="M246.159,357.783c0.811-0.486,1.609-0.75,2.395-0.79c0.783-0.04,1.537,0.099,2.26,0.418c0.721,0.32,1.4,0.804,2.039,1.447
			c0.637,0.645,1.219,1.404,1.748,2.279c0.529,0.874,0.92,1.741,1.174,2.599c0.254,0.858,0.355,1.677,0.297,2.456
			c-0.059,0.778-0.295,1.505-0.713,2.179c-0.42,0.675-1.035,1.255-1.846,1.742c-0.812,0.487-1.609,0.755-2.391,0.801
			c-0.781,0.047-1.527-0.09-2.24-0.407c-0.711-0.317-1.385-0.79-2.021-1.42c-0.635-0.627-1.217-1.379-1.746-2.255
			c-0.529-0.874-0.924-1.746-1.186-2.616c-0.262-0.869-0.367-1.697-0.312-2.483c0.053-0.785,0.285-1.517,0.693-2.192
			C244.718,358.863,245.333,358.278,246.159,357.783z M247.786,360.558c-0.484,0.292-0.688,0.803-0.609,1.534
			c0.078,0.73,0.463,1.668,1.152,2.81c0.684,1.131,1.336,1.898,1.953,2.306c0.617,0.408,1.162,0.47,1.635,0.187
			c0.461-0.277,0.652-0.78,0.572-1.511c-0.078-0.73-0.459-1.662-1.143-2.792c-0.689-1.143-1.342-1.919-1.953-2.33
			S248.245,360.282,247.786,360.558z"/>
		<path d="M258.851,356.318c-0.213-0.066-0.445-0.156-0.693-0.269c-0.25-0.112-0.498-0.234-0.744-0.366
			c-0.248-0.132-0.484-0.275-0.713-0.431c-0.23-0.154-0.436-0.313-0.617-0.479l3.258-5.915l0.719-0.559l6.613,8.458l2.141-1.667
			c0.441,0.357,0.816,0.732,1.123,1.125c0.322,0.414,0.605,0.878,0.846,1.392l-7.154,5.575c-0.441-0.357-0.824-0.744-1.148-1.157
			c-0.307-0.393-0.58-0.845-0.82-1.359l2.172-1.694l-3.727-4.766L258.851,356.318z"/>
		<path d="M271.474,337.762c0.512,0.332,0.922,0.654,1.234,0.966c0.35,0.352,0.691,0.782,1.023,1.294l-3.162,3.161l1.535,1.598
			c0.07-0.11,0.145-0.205,0.225-0.285s0.176-0.175,0.285-0.285c0.49-0.489,1.01-0.867,1.561-1.137
			c0.551-0.269,1.105-0.411,1.666-0.43c0.562-0.019,1.123,0.094,1.684,0.337c0.562,0.242,1.105,0.624,1.627,1.146
			c0.621,0.624,1.064,1.275,1.326,1.958c0.262,0.682,0.355,1.381,0.283,2.097c-0.074,0.715-0.311,1.434-0.709,2.152
			c-0.398,0.72-0.943,1.425-1.633,2.113c-0.131,0.13-0.303,0.282-0.518,0.457c-0.215,0.174-0.461,0.364-0.736,0.568
			s-0.578,0.406-0.908,0.605c-0.33,0.2-0.664,0.378-1.004,0.537c-0.182-0.2-0.352-0.427-0.514-0.677
			c-0.16-0.251-0.309-0.505-0.443-0.761c-0.137-0.256-0.26-0.504-0.371-0.745c-0.109-0.24-0.201-0.466-0.271-0.677
			c0.531-0.249,0.992-0.495,1.389-0.739c0.395-0.244,0.742-0.517,1.041-0.815c0.361-0.359,0.625-0.704,0.795-1.034
			s0.266-0.633,0.291-0.907c0.023-0.275-0.014-0.528-0.115-0.759c-0.1-0.23-0.24-0.437-0.42-0.617
			c-0.383-0.382-0.824-0.554-1.324-0.516c-0.502,0.038-1.047,0.353-1.637,0.941c-0.24,0.239-0.469,0.524-0.689,0.854
			c-0.219,0.329-0.408,0.713-0.568,1.153l-0.645,0.133l-5.77-6.223L271.474,337.762z"/>
	</g>
	<g>
		<g>
			<path d="M258.203,318.249h-44.77c-0.414,0-0.75-0.336-0.75-0.75s0.336-0.75,0.75-0.75h44.77c0.414,0,0.75,0.336,0.75,0.75
				S258.617,318.249,258.203,318.249z"/>
		</g>
		<g>
			<path d="M243.531,334.001h-30.098c-0.414,0-0.75-0.336-0.75-0.75s0.336-0.75,0.75-0.75h30.098c0.414,0,0.75,0.336,0.75,0.75
				S243.945,334.001,243.531,334.001z"/>
		</g>
	</g>
	<g>
		<g>
			<path d="M134.194,318.249H89.426c-0.414,0-0.75-0.336-0.75-0.75s0.336-0.75,0.75-0.75h44.769c0.414,0,0.75,0.336,0.75,0.75
				S134.608,318.249,134.194,318.249z"/>
		</g>
		<g>
			<path d="M134.194,334.001H104.1c-0.414,0-0.75-0.336-0.75-0.75s0.336-0.75,0.75-0.75h30.095c0.414,0,0.75,0.336,0.75,0.75
				S134.608,334.001,134.194,334.001z"/>
		</g>
	</g>
	<g>
		<g>
			<g>
				<g>
					<path d="M174.471,357.01c-18.294,0-33.178-14.883-33.178-33.177c0-18.295,14.883-33.179,33.178-33.179
						c18.294,0,33.178,14.884,33.178,33.179C207.648,342.127,192.765,357.01,174.471,357.01z M174.471,291.654
						c-17.743,0-32.178,14.436-32.178,32.179c0,17.742,14.435,32.177,32.178,32.177c17.743,0,32.178-14.435,32.178-32.177
						C206.648,306.09,192.214,291.654,174.471,291.654z"/>
				</g>
			</g>
			<g>
				<g>
					<path d="M174.471,354.76c-17.054,0-30.928-13.874-30.928-30.927c0-17.054,13.874-30.929,30.928-30.929
						s30.928,13.875,30.928,30.929C205.398,340.886,191.524,354.76,174.471,354.76z M174.471,293.404
						c-16.778,0-30.428,13.65-30.428,30.429c0,16.777,13.65,30.427,30.428,30.427c16.778,0,30.428-13.649,30.428-30.427
						C204.898,307.055,191.249,293.404,174.471,293.404z"/>
				</g>
			</g>
		</g>
	</g>
	<g>
		<g>
			<path d="M178.141,315.415c1.475-1.524,3.227-2.751,5.215-3.583c0.807-0.337,1.909-0.279,1.3-1.239
				c-0.289-0.453-1.181-0.809-1.667-1.014c-5.455-2.296-12.785-0.533-18.213,4.812c-5.719,5.648-7.458,13.514-4.374,18.986
				c0.967,1.719,1.9,2.525,3.871,1.739c0.83-0.329,1.622-0.757,2.4-1.332c0.542-0.399,1.042-0.83,1.506-1.281
				c1.957-1.905,3.3-4.277,4.097-6.778C173.535,321.792,175.432,318.168,178.141,315.415z M189.651,317.706
				c-0.23-1.083-0.592-2.766-1.811-3.129c-0.924-0.274-2.197,0.233-3.037,0.589c-1.493,0.633-2.813,1.581-4.019,2.787
				c-2.156,2.195-3.838,5.313-4.947,8.845c-0.941,2.981-2.552,5.882-4.994,8.267c-0.578,0.567-1.208,1.104-1.876,1.607
				c-0.522,0.392-1.749,0.73-2.007,1.343c-0.451,1.05,1.749,0.979,2.52,1.058c4.961,0.539,10.645-1.482,14.925-5.812
				C188.974,328.653,190.743,322.655,189.651,317.706z"/>
		</g>
	</g>
</g>
</svg>
