<?xml version="1.0" encoding="utf-8"?>
<!-- Generator: Adobe Illustrator 16.0.4, SVG Export Plug-In . SVG Version: 6.00 Build 0)  -->
<!DOCTYPE svg PUBLIC "-//W3C//DTD SVG 1.1//EN" "http://www.w3.org/Graphics/SVG/1.1/DTD/svg11.dtd">
<svg version="1.1" id="Layer_1" xmlns="http://www.w3.org/2000/svg" xmlns:xlink="http://www.w3.org/1999/xlink" x="0px" y="0px"
	 width="612px" height="612px" viewBox="0 0 612 612" enable-background="new 0 0 612 612" xml:space="preserve">
<rect fill="#EEEEEE" width="612" height="612"/>
<g>
	<g>
		<path fill="#323232" d="M249.272,244.732c-3.496-15.125-15.232-25.041-26.221-22.16c-5.759,1.513-10.171,6.249-12.559,12.589
			l-0.672,0.158c-7.777,2.037-12.075,12.371-9.604,23.066c2.479,10.703,10.79,17.721,18.563,15.686
			c0.562-0.148,1.105-0.339,1.626-0.571c4.61,3.657,10.04,5.201,15.303,3.828C246.693,274.445,252.768,259.854,249.272,244.732z
			 M217.279,268c-5.396,1.417-11.169-3.452-12.888-10.88c-1.72-7.428,1.263-14.601,6.672-16.018
			c5.394-1.416,11.163,3.458,12.882,10.887C225.665,259.417,222.68,266.59,217.279,268z"/>
		<path fill="#323232" d="M438.066,318.138V137.705l-0.026-0.808v-0.341c0-2.117-0.457-3.931-1.283-5.384
			c-2.263-5.815-7.186-11.265-12.901-13.679L312.528,70.455c-2.096-0.887-4.087-1.272-5.88-1.214
			c-2.099-0.344-4.547-0.014-7.166,1.091l-111.331,47.037c-5.796,2.448-10.779,8.022-12.989,13.931
			c-0.785,1.434-1.222,3.2-1.222,5.257v181.259l-0.021,0.443v29.719c0,0.355,0.081,0.658,0.231,0.9
			c0.366,0.923,1.148,1.782,2.059,2.162l17.896,7.562c0.38,0.154,0.732,0.218,1.048,0.188c0.309,0.027,0.672-0.033,1.051-0.188
			l16.072-6.79l72.994,30.833v12.069c0,0.373,0.081,0.669,0.229,0.907c0.369,0.924,1.155,1.783,2.062,2.172l17.898,7.553
			c0.38,0.161,0.732,0.225,1.048,0.191c0.319,0.03,0.672-0.03,1.052-0.191l17.898-7.553c0.927-0.402,1.729-1.296,2.089-2.25
			c0.12-0.23,0.188-0.514,0.188-1.007l0.007-12.331l71.628-30.25l16.435,6.941c0.376,0.162,0.732,0.222,1.041,0.188
			c0.322,0.03,0.665-0.026,1.048-0.188l17.905-7.562c0.934-0.396,1.732-1.296,2.089-2.242c0.12-0.229,0.194-0.511,0.194-1.008
			L438.066,318.138z M297.823,358.226c0,3.953-2.71,6.146-7.64,4.074l-90.769-38.359c-5.461-2.32-9.847-8.738-9.847-13.869v-2.465
			c1.626-0.854,2.841-2.519,2.841-4.998v-28.567c0-2.479-1.212-4.137-2.841-4.997v-66.7c1.626-0.856,2.841-2.524,2.841-4.995
			v-28.572c0-2.477-1.212-4.144-2.841-5.004h-0.003v-4.419c0-3.951,2.713-6.152,7.64-4.072l90.769,38.363
			c5.468,2.307,9.85,8.728,9.85,13.865V358.226z"/>
		<path fill="#323232" d="M272.346,245.47c-4.353,1.138-7.119,5.999-7.153,11.728c-5.729,4.748-9.738,12.035-9.738,19.202v26.931
			c0,9.463,14.212,9.463,14.205,0v-26.931c0-1.599,0.752-3.607,2.008-5.434c2.129,1.458,4.547,2.028,6.897,1.417
			c5.4-1.424,8.389-8.597,6.669-16.025C283.515,248.928,277.745,244.052,272.346,245.47z"/>
	</g>
	<g>
		<text transform="matrix(1 0 0 1 158.4121 496.748)" fill="#323232" font-family="'AvenirNext-Bold'" font-size="94.9434">VAULT</text>
		<text transform="matrix(1 0 0 1 180.0586 524.1797)" fill="#323232" font-family="'AvenirNext-Regular'" font-size="23.7452">PASSWORD DATABASE</text>
	</g>
</g>
</svg>
