<?xml version="1.0" encoding="utf-8"?>
<!-- Generator: Adobe Illustrator 21.1.0, SVG Export Plug-In . SVG Version: 6.00 Build 0)  -->
<svg version="1.1" id="Layer_1" xmlns="http://www.w3.org/2000/svg" xmlns:xlink="http://www.w3.org/1999/xlink" x="0px" y="0px"
	 viewBox="0 0 800 800" style="enable-background:new 0 0 800 800;" xml:space="preserve">
<style type="text/css">
	.st0{fill:#3B3B3B;}
	.st1{fill:#FFFFFF;}
</style>
<rect class="st0" width="800" height="800"/>
<g>
	<path class="st1" d="M621.3,509.2c-23-43.9-47.5-88-72.8-131.1c-1.3-2.3-4.4-3.9-7.3-3.9h-0.3c-1.3-0.1-2.6-0.1-3.9-0.2l6.2-22.5
		c0.1-0.5,0.3-1,0.4-1.5c-8.6-2.5-16.9-4.7-25.6-6.8c0.7-2.8,1.3-5.5,2-8.3l-6.8-0.9l4-101.2c-3.6-0.8-7.1-1.4-10.6-2l5.8-36.8
		l-2.4-0.4l-7.2,36.5c-2.4-0.4-4.9-0.8-7.3-1.1l4.6-36.8l-2.7-0.4l-5.8,36.7c-3.5-0.5-7-1-10.7-1.5l-27,99.1l-0.5-0.1l1.3-12.6
		c-10-1.1-19.7-1.8-29.7-2.3c0.6-11.2,1.1-22.1,1.7-33c-1.9-0.3-3.3-0.5-5-0.8c1.3-30.9,2.6-61.6,3.9-92.8
		c-4.9-0.2-9.5-0.3-14.4-0.4c0-1.7,0.1-3,0.1-4.3c0.2-11.7,0.4-23.4,0.7-35.2l-10.5-10.9c0,0,0.4-22.2,0.4-31.8l-3.8-0.4l-0.6,32.5
		c-2.5,0.2-4.3,0.3-6.4,0.5c-0.1-11.7-0.2-23.3-0.3-34.8l-4.2,0.3c0,0,0.4,24.4,0.6,35.4c-3.7,0.5-6.9,1-10.5,1.6
		c0.4,14.8,0.9,29.4,1.3,44.4c-4.3,0.1-8.3,0.3-12.7,0.5c1.5,31.4,3,62.5,4.6,93.7c-2.4,0.1-4.3,0.2-6.6,0.4
		c0.6,9.3,1.1,18.3,1.7,27.7c-9.3,0.6-18.1,1.3-27.1,2.3c0.4,3.9,0.8,7.4,1.2,10.9c-2.2,0.2-1.3,0.1-3.4,0.4
		c-0.2-1.5-6.1-33.2-8-48.4L299,239.8l4,23.5l-3,0.2l-4.3-26.2L278,278.6c4.5,21.9,9.9,43.1,14.5,65.2l-8.2,1.3
		c-2.8-12.6-5.5-24.7-8.3-36.8l-4.7-2.4l-3.6-11.9c-10.3,2.4-19.9,4.9-29.9,7.8c5.6,19.4,14.6,50.3,21.1,72.7
		c-0.8,0-1.5,0.1-2.3,0.1l-0.2,0.1c-2.1,0.5-3.9,1.9-4.9,3.6c-25.2,43-49.7,87.1-72.7,130.9c-1.5,2.7-0.6,6.4,1.9,8.3
		C255.8,574,328,634.8,395.3,698.1c1.2,1.2,3,1.8,4.8,1.8c0.6,0,1.2-0.1,1.7-0.2l0.2-0.1c0.8-0.2,1.5-0.5,2.8-1.6
		C472,634.8,544.2,574,619.4,517.4C621.8,515.5,622.7,511.9,621.3,509.2z M507.8,373c1.2-5,2.8-12.2,3.6-15.8
		c4.8,1.1,9.4,2.2,14.4,3.5l-0.5,7.5l9.1,2.8l-0.6,2.9C525,373.6,516.3,373.3,507.8,373z M381.8,384.9l3.6,0l-2.1,2.9
		c-23.9,32.5-47.4,65.8-69.8,99l-1.9,2.8l-1.3-3.2c-12.7-32.1-26.1-64.5-39.6-96.3l-1-2.4l2.6-0.1
		C308.6,386,345.4,385.1,381.8,384.9z M390.6,355.1c7.9-0.1,15.9,0,24.3,0.2c0,0.8-0.4,10.2-0.6,15.8c-4.8,0-9.6,0-14.3,0
		c-3.1,0-6.1,0-9.2,0C390.7,365.8,390.6,356,390.6,355.1z M325.2,495.3c23.5-34.6,48.2-69.2,73.3-103l1.4-1.9l1.4,1.9
		c25.1,33.8,49.8,68.5,73.3,103l2,2.9l-3.5-0.1c-48.6-1.2-97.9-1.2-146.5,0l-3.5,0.1L325.2,495.3z M416.8,387.8l-2.1-2.9l3.6,0
		c36.3,0.2,73.2,1.1,109.5,2.7l2.6,0.1l-1,2.4c-13.5,31.8-26.8,64.2-39.6,96.3l-1.3,3.2l-1.9-2.8
		C464.1,453.5,440.7,420.2,416.8,387.8z M490,372.5c-11.2-0.3-22-0.6-32.5-0.8c1-8.2,2.9-23.1,3.5-28.4c11.4,1.4,22.5,3.2,33.5,5.3
		C493.5,353.6,491.4,365,490,372.5z M485.5,233.1l24.8,4.1l-0.4,11.3l-15.2,9.8l-11-17.1L485.5,233.1z M509.7,253.6l-1,26.5
		L497,261.8L509.7,253.6z M482.2,246.6l9,13.9l-15.4,9.9L482.2,246.6z M475.5,275.6l18-11.6l15,23.3l0.6,0.9l-0.6,0.4l-19.3,12.4
		l-14.5-22.5L475.5,275.6z M508.2,293.8l-1.3,35.1l-15.6-24.2L508.2,293.8z M473.2,284l12.5,19.4L464,317.3L473.2,284z M462.4,323.3
		l25.5-16.4l16.8,26.1l-43.4-5.8L462.4,323.3z M511.6,341.8c-0.3,1.2-0.5,2.4-0.8,3.6c10.2,1.9,17.5,5.5,27.3,7.9l-2.8,13.9l-6-2
		l0.4-9.3c-9.1-2.5-13.8-3.5-23-5.5c-1.2,5.7-3.5,15.8-5,22.5c-1.8-0.1-3.7-0.1-5.5-0.2c1.8-8.9,4.3-21.9,5.6-28.4
		c-15.3-3.1-30.6-5.5-46.3-7.3c-0.8,7.2-2.9,25-4,34.6c-5.2-0.1-10.3-0.2-15.4-0.2c-5.4-0.1-10.8-0.1-16.2-0.2
		c0.4-8.8,1-25.5,1.3-30.7c5.6,0.3,10.9,0.6,16.4,1c0.3-3.6,0.5-6.9,0.8-10.6C452.4,332,495.3,339.2,511.6,341.8z M406.7,247.4
		c1.6-1.6,6.4,1.6,5.8-3c-1.8-0.2-3.7-0.3-5.8-0.5c0.3-17.9,0.5-35.7,0.8-53.7c3,0.1,5.8,0.1,9.2,0.2c-0.9,30.8-1.7,61.6-2.6,92.7
		c2.3,0.2,3.9,0.3,5.8,0.5c-0.4,11-0.8,21.9-1.3,33.1c9.9,0.4,19.6,1,29.4,1.9c-0.2,2.5-0.4,4.7-0.7,7.1c-4.7-0.4-9.3-0.8-14.2-1.1
		c-0.2,3.6-0.5,7-0.7,10.6c-5.6-0.4-10.8-0.6-16.5-0.8c-0.2,5-0.3,9.8-0.5,14.8c-1.4,0-2.4,0-3.8,0.1c0.3-9.8,0.5-19.3,0.8-29
		c-2.4-0.1-4.4-0.1-6.7-0.1C406,295.6,406.3,271.4,406.7,247.4z M397.8,142.2l5.9,6.3c-0.4,30.4-0.6,60.8-0.8,91.2
		c0,1.3,0,2.6,0,4.3c-1.9,0-3.4,0-5.1,0V142.2z M402.6,247c-0.2,24.2-0.4,48.4-0.6,72.9c-1.5,0-2.8,0-4.2,0c0-24.4,0-48.5,0-72.9
		C399.4,246.9,400.9,246.9,402.6,247z M409,323.9c-0.2,8.4-0.4,16.6-0.5,25.1c-6-0.1-11.9-0.1-18-0.1c-0.1-8.4-0.2-16.6-0.4-25.1
		C396.3,323.8,402.4,323.8,409,323.9z M394.3,319.8c-1.5,0-5,0.1-5,0.1s-1.7-42.6-2.1-63.3c-0.1-4.7-0.2-9.4-0.3-14.4
		c2.3,0,4.4-0.1,6.8-0.1C393.9,267.9,394.1,293.7,394.3,319.8z M393.1,140.7c0.2,32.8,0.4,65.3,0.7,98c-2.1,0-4.2,0-6.3,0.1
		c-0.5-32.3-1.1-64.5-1.6-96.8C388.5,141.6,390.5,141.2,393.1,140.7z M381.6,187.5c0.5,19.8,1,39.4,1.4,59.2
		c-2.1,0.1-4.5,0.1-7.2,0.2c-0.7-19.6-1.4-39.2-2.2-59.2C376.6,187.6,379.1,187.5,381.6,187.5z M376.7,281.1
		c-0.4-10.3-0.8-20.5-1.1-31c2.9-0.1,5.1-0.2,7.6-0.2c0.4,18.4,0.8,34.7,1.3,52.8l-13.1,0.3c-0.3-6.8-0.7-13.8-1-21.2
		C372.3,281.5,374.3,281.4,376.7,281.1z M383.6,308.6c0.3,13.2,0.8,46.5,1.2,62.6c-2.7,0-5.3,0-8,0.1c-0.6-13.8-1.2-27.5-1.8-41.3
		c-1.4,0-2.4-0.1-3.9-0.1c0.7,13.9,1.4,27.7,2.1,41.5c-1.1,0-2.3,0-3.4,0c-0.3-5.1-0.6-10.1-0.9-15.2c-0.5-8.2-1.1-18.4-1.5-26.5h-3
		c0.9,14.1,1.8,28.3,2.7,41.7c-5.5,0.1-10.9,0.1-16.4,0.2c-1.7-16.7-4.4-44.4-6-60.3C346.1,311.1,383.6,308.6,383.6,308.6z
		 M339.5,323.4c1.3,11.5,3.7,34.6,5.2,48.2c-8.3,0.2-16.6,0.4-25,0.6c-2.1-13-5.5-33.5-7.4-45.1
		C321.3,325.7,330.2,324.4,339.5,323.4z M331.2,318.3c-1.8,0.2-9.2,1.2-11.5,1.5l-3.1,0.5c-0.5,0.1-0.9,0.1-1.4,0.2l-4.3-21.8
		l3.6-0.6l10.1-22.2C326.1,286.3,331.2,317.9,331.2,318.3z M294.1,250.2l2.9,17.6l10-1.5l-3.1-16l16.1,20.2l-8.1,24.5l-5.8,1.1
		l-21-18L294.1,250.2z M284.6,283.7l20.5,16.1l1.1-0.2l4.3,21.7c-2,0.3-4,0.7-6.1,1.1c1.2,6.8,2.2,12.8,3.5,19.9l-10,1.1
		L284.6,283.7z M307.9,345c0.8,4.5,0.8,4.4,1.5,8.7l-21.7,5.2c-0.7-3.2-1.4-6.5-2.2-10L307.9,345z M246.1,306
		c4.8-1.3,9.5-2.6,14.6-3.9c0.3,0.6,0.7,1.3,0.9,2.1c5.6,22.6,11.3,45.3,16.9,67.9c0.1,0.2,0.1,0.5,0.2,0.7c1-0.3,2-0.5,3.1-0.7
		c-5.2-21.4-10.4-42.9-15.5-64.3c0.3-0.2,0.6-0.4,1-0.6c1,1.5,2.5,2.8,2.9,4.4c3.9,15.7,7.5,31.5,11.3,47.3c0.4,1.5,0.7,3,1.1,4.8
		c9.2-2.6,18.2-4.9,27.6-6.9c0.4,2.3,1.8,10.3,2.7,15.6c-15.9,0.5-31.8,1.1-47.7,1.8C259.5,354.1,250.6,322.3,246.1,306z
		 M197.9,504.3l1.5-2.9c18-33.5,36.8-67.1,56.1-100.1l1.8-3.1l1.4,3.3c13.4,31.4,26.7,63.4,39.3,95l1,2.4l-2.6,0.1
		c-31.6,1.1-63.7,2.8-95.3,5.1L197.9,504.3z M372.9,658.5c-52.3-47.7-107.6-94.1-164.5-137.9l-3.8-2.9l4.7-0.3
		c31.4-2.1,63.2-3.7,94.6-4.8l1.1,0l0.5,1c24.4,47,48,95.1,70.2,142.9l3.8,8.1L372.9,658.5z M401.6,672.8l-1.6,3.6l-1.6-3.6
		c-23.8-53-49.3-106.2-75.9-158.3l-1.3-2.5l2.8-0.1c50.4-1.3,101.5-1.3,151.9,0l2.9,0.1l-1.3,2.5C451,566.6,425.4,619.9,401.6,672.8
		z M591.6,520.5c-56.9,43.8-112.2,90.2-164.5,137.9l-6.6,6l3.8-8.1c22.2-47.8,45.8-95.9,70.2-142.9l0.5-1l1.1,0
		c31.4,1.1,63.2,2.7,94.6,4.8l4.7,0.3L591.6,520.5z M598.9,504.1c-31.6-2.2-63.6-3.9-95.3-5.1L501,499l1-2.4
		c12.7-31.7,25.9-63.6,39.3-95l1.4-3.3l1.8,3.1c19.3,33,38.1,66.6,56.1,100.1l1.5,2.9L598.9,504.1z"/>
</g>
</svg>
