<?xml version="1.0" encoding="utf-8"?>
<!-- Generator: Adobe Illustrator 16.0.4, SVG Export Plug-In . SVG Version: 6.00 Build 0)  -->
<!DOCTYPE svg PUBLIC "-//W3C//DTD SVG 1.1//EN" "http://www.w3.org/Graphics/SVG/1.1/DTD/svg11.dtd">
<svg version="1.1" id="Layer_1" xmlns="http://www.w3.org/2000/svg" xmlns:xlink="http://www.w3.org/1999/xlink" x="0px" y="0px"
	 width="612px" height="612px" viewBox="0 0 612 612" enable-background="new 0 0 612 612" xml:space="preserve">
<rect fill="#DA2D3F" width="612" height="612"/>
<g>
	<text transform="matrix(1 0 0 1 254.1484 265.0972)" fill="#FFFFFF" font-family="'MavenProBold'" font-size="59.0773">Weirich</text>
	<text transform="matrix(1 0 0 1 254.1484 324.418)" fill="#FFFFFF" font-family="'MavenProBold'" font-size="59.0773">Institute of</text>
	<text transform="matrix(1 0 0 1 254.1484 383.7402)" fill="#FFFFFF" font-family="'MavenProBold'" font-size="59.0773">Software</text>
	<g>
		<g id="XMLID_3_">
			<g>
				<path fill="#FFFFFF" d="M226.165,295.123c3.13,5.42,3.13,14.291,0,19.7l-34.41,59.601c-3.13,5.43-10.81,9.859-17.06,9.859
					h-68.83c-6.26,0-13.94-4.43-17.07-9.859l-34.41-59.601c-3.12-5.409-3.12-14.28,0-19.7l34.41-59.61
					c3.13-5.41,10.81-9.85,17.07-9.85h68.83c6.25,0,13.93,4.44,17.06,9.85L226.165,295.123z M200.935,277.993
					c0.59-1.58-0.31-2.87-2-2.87h-13.54c-1.69,0-3.56,1.29-4.16,2.87l-13.92,37.04c-0.59,1.58-1.57,4.171-2.16,5.75l-5.17,13.721
					c-0.59,1.59-1.56,4.17-2.16,5.76l-0.39,1.06c-0.6,1.58,0.3,2.87,1.99,2.87h1.13c1.69,0,4.46,0,6.14,0h2.89c1.69,0,3.85,0,4.81,0
					s2.02-0.729,2.36-1.64c0.33-0.9,1.09-2.93,1.69-4.51L200.935,277.993z M159.765,306.473c0.6-1.58,0.6-4.17,0-5.75l-8.56-22.73
					c-0.6-1.58-2.47-2.87-4.16-2.87h-13.55c-1.69,0-3.56,1.29-4.15,2.87l-13.93,37.07c-0.6,1.58-1.57,1.58-2.17,0l-12.7-33.8
					c-0.59-1.59-1.35-3.62-1.7-4.51c-0.33-0.9-1.39-1.63-2.35-1.63s-3.12,0-4.81,0h-2.81c-1.68,0-4.45,0-6.14,0h-1.12
					c-1.69,0-2.59,1.29-2,2.87l0.4,1.05c0.59,1.58,1.56,4.17,2.15,5.75l21.18,56.53c0.59,1.58,2.45,2.87,4.14,2.87h13.68
					c1.69,0,3.56-1.29,4.15-2.87l13.88-37.07c0.6-1.58,1.57-1.58,2.16,0l8.53,22.76c0.6,1.58,1.57,1.58,2.16,0L159.765,306.473z"/>
			</g>
			<g>
				<path fill="none" stroke="#000000" stroke-width="0" stroke-linecap="round" stroke-linejoin="round" d="M54.385,314.822
					l34.41,59.601c3.13,5.43,10.81,9.859,17.07,9.859h68.83c6.25,0,13.93-4.43,17.06-9.859l34.41-59.601
					c3.13-5.409,3.13-14.28,0-19.7l-34.41-59.61c-3.13-5.41-10.81-9.85-17.06-9.85h-68.83c-6.26,0-13.94,4.44-17.07,9.85
					l-34.41,59.61C51.265,300.542,51.265,309.413,54.385,314.822z"/>
				<path fill="none" stroke="#FFFFFF" stroke-width="0" stroke-linecap="round" stroke-linejoin="round" d="M159.425,344.192h1.13
					c1.69,0,4.46,0,6.14,0h2.89c1.69,0,3.85,0,4.81,0s2.02-0.729,2.36-1.64c0.33-0.9,1.09-2.93,1.69-4.51l22.49-60.05
					c0.59-1.58-0.31-2.87-2-2.87h-13.54c-1.69,0-3.56,1.29-4.16,2.87l-13.92,37.04c-0.59,1.58-1.57,4.171-2.16,5.75l-5.17,13.721
					c-0.59,1.59-1.56,4.17-2.16,5.76l-0.39,1.06C156.835,342.902,157.735,344.192,159.425,344.192z"/>
				<path fill="none" stroke="#FFFFFF" stroke-width="0" stroke-linecap="round" stroke-linejoin="round" d="M79.615,277.993
					l0.4,1.05c0.59,1.58,1.56,4.17,2.15,5.75l21.18,56.53c0.59,1.58,2.45,2.87,4.14,2.87h13.68c1.69,0,3.56-1.29,4.15-2.87
					l13.88-37.07c0.6-1.58,1.57-1.58,2.16,0l8.53,22.76c0.6,1.58,1.57,1.58,2.16,0l7.72-20.54c0.6-1.58,0.6-4.17,0-5.75l-8.56-22.73
					c-0.6-1.58-2.47-2.87-4.16-2.87h-13.55c-1.69,0-3.56,1.29-4.15,2.87l-13.93,37.07c-0.6,1.58-1.57,1.58-2.17,0l-12.7-33.8
					c-0.59-1.59-1.35-3.62-1.7-4.51c-0.33-0.9-1.39-1.63-2.35-1.63s-3.12,0-4.81,0h-2.81c-1.68,0-4.45,0-6.14,0h-1.12
					C79.925,275.123,79.025,276.413,79.615,277.993z"/>
			</g>
		</g>
	</g>
</g>
</svg>
