<?xml version="1.0" encoding="utf-8"?>
<!-- Generator: Adobe Illustrator 21.1.0, SVG Export Plug-In . SVG Version: 6.00 Build 0)  -->
<svg version="1.1" id="Layer_1" xmlns="http://www.w3.org/2000/svg" xmlns:xlink="http://www.w3.org/1999/xlink" x="0px" y="0px"
	 viewBox="0 0 612 612" style="enable-background:new 0 0 612 612;" xml:space="preserve">
<style type="text/css">
	.st0{fill:#DA2D3F;}
	.st1{fill:#FFFFFF;}
	.st2{fill:#333533;}
</style>
<rect class="st0" width="612" height="612"/>
<g>
	<g>
		<path class="st1" d="M484.5,364.4c-0.8-4.3-1.1-5.8-1.4-6.7l0.3-0.5l-2-4.5c-0.1-0.2-0.5-1.1-1-2.3l-1.4-3.1l-0.1-0.1l-0.1-0.1
			l-1.2-2.5c-0.6-1.3-1.1-2.7-1.5-4c3.5-2.8,5.9-6.6,6.7-10.8c0.9-4.8-0.1-9.7-3-13.7c-0.2-0.3-0.5-0.6-0.7-0.9
			c4.3-7.6,2.7-17.5-4.1-23c-0.5-0.4-1-1-1.6-1.7c1.3-1.3,2.4-2.7,3.2-4.4c1.6-3.3,2-4.1,2-6.1v-0.4l0-0.4
			c-1.1-12-4.1-14.6-5.2-15.6c-0.6-0.6-1-0.9-1.3-1.1l-0.7-0.7l-0.4-0.4c-1.1-1.1-2.3-2.2-2.9-3c-2.4-3.2-4.3-6-4.3-6l-4.1-6.2
			L459,245l-3.4-5.1c-0.1-0.1-4.3-6.5-7.7-11.9c-2.5-4.1-5-8.4-7.4-12.7l-0.4-0.7c-0.7-1.3-1.4-2.5-2.2-3.8
			c-0.8-1.4-1.6-2.9-2.4-4.3l-1-1.9l0-0.1l0-0.1c-2-3.6-2.5-4.4-2.6-4.7c-0.2-0.4-0.8-1.4-1.5-2.6l-1.5-2.5
			c-0.1-0.2-1.6-2.6-4.1-6.3c-4.7-6.6-10-12.8-16.3-18.9l-0.2-0.2l-1-0.9c-0.9-0.9-1.9-1.9-3-2.9c-0.9-0.9-1.9-1.7-2.9-2.6l-0.2-0.1
			c-1.2-1.1-2.3-2.1-3.3-3c-4-3.9-8.1-7.1-9.3-8.1l0.3-1.4l-0.9-2.5l-0.7-2.1c-1.7-4.9-5.9-7.3-7.1-8c-5.9-3.1-6.4-3.3-7.9-3.4
			c-0.2,0-0.3-0.1-0.5-0.1c-0.2-0.2-0.5-0.4-0.7-0.7c-0.1-4.4-2.9-6.9-4.3-7.9l-0.2-0.1c-0.4-0.3-1.2-0.9-2.1-1.5
			c-0.8-0.5-1.8-1.1-2.7-1.7l-0.4-0.3c-0.9-0.5-1.7-1-2.5-1.6l-0.6-0.4l-1.4-0.9l0,0l-0.1,0l-0.4-0.3l-2.6-1.7l-0.2-0.2l-0.2-0.1
			l-1.7-1c-6.2-3.6-13-5.7-20.1-6.5c-0.6-0.1-1.1-0.1-1.7-0.2l-0.1,0c-0.5-0.1-1-0.1-1.5-0.1c-1.8,0-4,0.4-6.3,0.8
			c-1,0.2-2.4,0.4-3,0.5c-2.8-0.1-5.7-0.2-8.5-0.2c-0.8,0-1.5,0-2.3,0c-0.4,0-0.9,0-1.3,0l-0.6,0c-0.7,0-1.4,0-2.1,0
			c-1,0-1.5,0-1.7-0.1l-1.2-0.6l-1.4-0.7l-1.6-0.2c-1.5-0.2-3.4-0.4-4.1-0.5l-0.9-0.1l-5.8-0.6c-0.1,0-0.3,0-3.5-0.2
			c-4.1-0.2-7.4-0.4-10.6-0.4c-6.2,0-10.9,0.6-11.1,0.6c-2.3,0.3-4.2,0.5-5,0.6c-0.3,0-0.8,0-1.2,0l-1,0l-0.9,0.2l-1.1,0.3
			c-2.8,0.7-5.8,1.5-8.9,2.4c-0.4,0.1-0.8,0.2-1.3,0.3l-0.5,0.1c-2.2,0.6-4.7,1.3-7.5,2.4c-4.2,1.7-7.1,3.1-7.2,3.1
			c-2.7,1.2-5.4,2.5-6,2.8c-1.6,0.8-6.4,3.6-6.6,3.7l-2.3,1.4l-1,2c-0.3,0.4-1.6,2.4-4.3,4.5c-4.7,3.6-6.2,7.4-6.7,9.7
			c-0.6,0.4-1.2,0.9-1.7,1.4c-1,1.1-4,3-6.2,4.4c-2.1,1.3-4.2,2.7-6,4.1c-15.1,12-20,28.3-21.8,34.5c-0.1,0.4-0.3,0.9-0.4,1.2
			c-1.1,2.1-2,4.1-2.8,5.8l0,0l0,0.1l0,0.1c-0.1,0.1-0.2,0.3-0.3,0.4c-2.1,3-3.9,5.7-4.3,8.8c-0.1,0.5-0.1,0.9-0.2,1.3
			c-1.4,2.2-2.1,4-2.4,5.8c-0.2,0.2-0.5,0.5-0.8,0.8c-3,3.1-4.5,7.5-4.2,11.8l0.1,0.8l0.1,0.8c-0.9,2.5-1.7,5.3-2.3,8.5
			c-0.4,2.2-0.9,4.6-1.4,6.9l-0.1,0.7l-0.1,0.3c-0.7,3.3-1.4,6.7-2,10.1c-0.8,4.3-1.3,8.7-1.7,12.2l-0.1,1.1
			c-0.2,1.2-0.4,2.8-0.4,3.5c-0.1,0.6-0.5,3.7-0.8,6.6c0,0.1-0.8,6.5-2.3,11.6c-2.3,8.2,1.4,16.5,9.1,20.3
			c-0.8,3.6-1.4,7.1-1.6,10.5c0,0.8-0.1,1.5-0.1,2.3l0,0.2c0,0.5,0,1-0.1,1.5c-0.5,6.1,0.2,10.5,0.2,11c0.9,5.8,1,6.1,1.1,6.6h0
			c0.1,0.2,0.2,0.6,0.3,0.9c-0.1,0.5-0.2,0.9-0.3,1.3c-0.2,0.8-0.8,3.3-1.4,5.1l-0.5,1.8l0.3,1.9l0.1,1l0,0.1v0.8l0,0.2l0,0.1l0,0.1
			c0,0.2,0,0.7,0,1c-0.2,1.7-1,4.2-4.3,8.6c-0.3,0.4-0.8,1-1.4,1.6l-0.1,0.1c-0.5,0.6-1.1,1.3-1.7,2c-5.1,6.3-5.1,13.5-2.3,18.9
			c0,0-0.1,0.1-0.1,0.2c-1.5,1.7-3.2,3.8-4.9,6.1c-5.6,7.7-4.4,17.7,2.9,23.9c1.3,1.1,3.3,2.8,6,4.2c1.4,0.7,2.9,1.3,4.5,1.5
			c0,0.1,0.1,0.2,0.1,0.3l0.6,2.3l1.7,1.7l7.4,7.5c1.2,1.8,2.7,3,4.2,3.9c-0.1,5.4,2,9.1,4,11.5l0.9,1.1l1.5,1.7l0.5,0.2
			c0,1.9,0.3,4.1,1.5,6.6l1.1,2.2c0.9,2,1.6,3.8,1.8,4.4c0.1,0.2,0.1,0.4,0.2,0.6c-0.4,3.1-0.1,5.7,0.1,6.6
			c1.3,9,8.8,15.5,17.8,15.5c0.9,0,1.7-0.1,2.6-0.2c0.4,0.7,0.7,1.1,0.8,1.2c1.8,2.5,2.7,3.7,3.2,4.4c0.2,0.2,0.4,0.6,1,1.3l0.4,0.6
			c1.9,2.7,4.2,4.3,5.1,5c3,2.2,6.6,3.4,10.3,3.4c3.7,0,7.3-1.2,10.5-3.4c1,1.7,2.5,3.7,4.6,5.1c2.8,2.2,6.3,3.4,10,3.4
			c3.7,0,7.6-1.2,10.6-3.3l1-0.7l0.8-1l1.7-2.2l1.2-1.5l1.3-1.6l0.5-2c0.1-0.3,0.1-0.5,0.2-0.8c0.5-0.3,0.9-0.5,1.4-0.7
			c2.4-0.7,5.2-1.5,7.5-1.8c1-0.1,1.8-0.3,2.5-0.5l0.3,0l0.4,0h0.5c4.4,0,7.9,0,10.8-3.1c1-1,1.8-1.9,2.5-2.6c0,0,0.1,0,0.1,0
			c2.1,0.7,4.2,1.1,6.3,1.1c5.8,0,11.1-2.8,14.6-7.7c0.2-0.2,0.3-0.4,0.4-0.6c0.8-0.8,1.7-1.7,2.6-2.6l0.1-0.1
			c0.7-0.7,1.4-1.4,2.1-2.1l0.7-0.8l1.2-1.2l0.2-0.2c1.9-1.9,3.8-3.8,5.7-5.9l1.1-1.2l0.7-0.7c2.4-2.5,3.5-3.8,3.6-4
			c0.4-0.5,1.3-1.1,1.9-1.5c2-0.5,5-1.5,6.4-1.9c0.8-0.3,2.6-1,4.5-2.4c0.6-0.5,1.3-1,2-1.4c0.9-0.5,1.9-1,2.8-1.5l1.1-0.5l0.1,0
			l0.1,0l0.3-0.2c1-0.5,2-1.1,2.4-1.3c0.2-0.1,2.6-1.4,5.2-2.9c0.4-0.2,1.9-1.1,4.2-2.8l0.4,0c0.6,0,3.3,0.2,6.1,0.4l2.4,0.2l2.2-1
			l2.3-1.1c0.8-0.4,1.4-0.7,1.7-0.8c3.4-0.2,5.8-1.3,6.6-1.7c1.4-0.7,3.1-1.3,5.1-2.1c2.1-0.8,4.4-1.6,6.7-2.7
			c7.7-3.5,10.4-7.7,12.8-11.4c1.3-2,2.5-3.8,4.8-6.3c5-5.1,8.9-10.5,9-10.7c0.4-0.5,1.9-1.4,2.6-1.5c1.7-0.2,6.3-1.5,10.2-7.4
			c0.3-0.4,0.5-0.8,0.8-1.2l0.2-0.3c0.3-0.5,0.7-1,1-1.5l1.9,2.1l0.8,0c0.6,1.5,1.2,2.9,1.6,3.7c2,4.4,7.4,8.9,14.6,8.9
			c0.2,0,0.3,0,0.5,0c0.1,0,0.2,0.1,0.2,0.1c1.3,0.7,2.7,1.4,4.2,1.8c0,0,0,0,0,0c3.1,2.8,7.3,4.3,11.6,4.3c0.8,0,1.6,0,2.3-0.1
			c8.6-1.1,14.7-7.4,15.8-16.4c0.8-6.2,0.9-12.4,0.9-12.7l0.1-3.1c0-0.7,0-1.4,0-2l0.9-0.5l1.1-1.9l1-1.6
			C484.2,370.9,485.1,367.5,484.5,364.4z"/>
	</g>
</g>
<g>
	<g>
		<path class="st2" d="M475.6,366.2c-0.6-2.9-1-5.4-1.1-5.4c0,0-0.2-0.4-0.4-0.9c0,0,0,0-0.4-0.6c-2.3-3.8-2.3-3.8-2.3-3.8
			c1,0.7,1.8,1.1,1.7,0.9c-0.1-0.2-1.2-2.7-2.4-5.4c0,0,0,0-1.2-2.5c-1.6-3.4-2.7-6.9-3.1-10.4c-0.1-0.8-0.3-1.4-0.4-1.9
			c0-0.1,0-0.2-0.1-0.2c0-0.1,0-0.1,0-0.1c0-0.1,1.1-0.6,2.6-1c0,0,0,0,1.2-0.8c2.2-1.4,3.7-3.6,4.2-6c0.4-2.3-0.1-4.7-1.5-6.8
			c-0.7-1-1.5-1.9-2.2-2.6c0,0,0,0,0,0c0,0-0.6-2.5-1.1-3.3c-0.5-0.9-0.1-2.2,0.9-3c0,0,0,0,0.7-0.9c2.8-3.9,2.2-9.4-1.4-12.3
			c-2.6-2.1-4.5-5.1-6.6-8.5c-0.9-1.5-0.9-1.5-0.9-1.5c-1-1.7-0.9-3.1,0.3-3.1c0,0,0,0,1.2-0.1c2.3-0.3,4.2-1.7,5.2-3.7
			c1.1-2.2,1.1-2.2,1.1-2.2c-0.3-3-1.4-9-2.2-9.7c-0.7-0.7-1.4-1.2-1.4-1.2c0,0-0.4-0.4-0.9-0.8c0,0,0,0-0.4-0.4
			c-1.5-1.4-2.9-2.7-3.9-4.1c-2.7-3.5-4.6-6.5-4.6-6.5c-1.7-2.5-3.5-5.3-4.1-6.2c-0.6-0.9-2.5-3.7-4.1-6.2c0,0-4.4-6.6-7.8-12.2
			c-2.8-4.4-5.4-9.1-8-13.7c-0.7-1.3-1.4-2.6-2.2-3.8c-0.8-1.5-1.7-3-2.5-4.5c-1-1.9-1-1.9-1-1.9c-1.2-2.2-2.4-4.2-2.5-4.5
			c-0.1-0.3-1.5-2.6-3-5.2c0,0-1.3-2.2-3.7-5.6c-4.4-6.2-9.4-11.9-15.2-17.6c-0.4-0.4-0.8-0.8-1.2-1.2c-0.8-0.8-1.8-1.8-2.7-2.6
			c-0.9-0.8-1.8-1.6-2.7-2.4c-1.4-1.2-2.6-2.3-3.8-3.5c-4.3-4.2-8.8-7.6-8.8-7.6c-2.4-1.8-3.9-5.3-3.3-7.8c0,0,0,0-0.7-2.1
			c-0.7-1.9-2.8-3-2.8-3c-2.7-1.4-4.9-2.5-4.9-2.5c0,0-2.5-0.4-3.2-0.7c-0.8-0.3-3-2.3-5-4.5c0,0-0.2-0.2-1.3-0.8
			c-1.4-0.7,1.5-3.3-0.1-4.3c-0.2-0.1-0.3-0.2-0.5-0.4c-0.4-0.3-0.9-0.7-1.5-1c-1-0.6-2-1.3-3-1.9c-0.8-0.5-1.7-1-2.5-1.6
			c-0.7-0.5-0.7-0.5-0.7-0.5c-0.8-0.5-1.5-1-1.5-1s-1.4-0.9-3.1-2c0,0,0,0-1.7-1c-5.1-2.9-10.7-4.7-16.5-5.4
			c-0.6-0.1-1.3-0.1-1.9-0.2c-1.8-0.2-8,1.3-9.9,1.2c-3.5-0.2-7-0.2-10.5-0.2c-0.6,0-1.2,0-1.8,0c-0.8,0-1.5,0-2.3,0
			c-2.2,0-4.1-0.2-5.6-0.9c-1.5-0.7-1.5-0.7-1.5-0.7c-1.4-0.2-3.2-0.4-3.9-0.4c-0.7-0.1-3.7-0.4-6.7-0.6c0,0-0.3,0-3.2-0.2
			c-3.9-0.2-7.1-0.3-10-0.3c-5.6,0-10,0.6-10,0.6c-3,0.4-5.4,0.7-5.5,0.7c0,0-0.8,0-1.6,0.1c0,0,0,0-1.1,0.3
			c-2.8,0.7-5.7,1.5-8.7,2.3c-0.6,0.2-1.2,0.3-1.8,0.5c-2.1,0.6-4.2,1.1-6.4,2c-4,1.7-6.9,3-6.9,3c-2.7,1.2-5.4,2.5-6.1,2.8
			c-0.6,0.3-3.2,1.8-5.8,3.3c0,0-2,3.6-6.7,7.2c-3.2,2.5-3.4,4.7-3.4,4.7c-0.3,3-1,5.8-1.6,6.3c0,0,0,0-0.5,0.5
			c-1.2,1.3-0.6-2.7-1.9-1.4c-3,3.1-9.6,6.5-13.1,9.3c-15.7,12.4-18.4,30.3-19.6,32.5c-1.1,1.9-1.9,3.9-2.8,5.7
			c-0.3,0.7-0.3,0.7-0.3,0.7c-0.3,0.7-3.4,4.4-3.6,6.2c-0.2,1.7-0.6,3.4-0.6,3.5c-0.1,0.1-1.8,2.6-2,3.8c-0.1,1.2-0.5,2.7-0.6,2.9
			c-0.1,0.2-0.4,0.6-0.7,0.9c0,0,0,0-0.2,0.2c-0.5,0.4-1,0.9-1.6,1.5c-1.3,1.3-1.9,3.2-1.8,5c0.1,0.8,0.1,0.8,0.1,0.8
			c0.3,0.8,0.5,1.7,0.4,1.9c0,0,0,0-0.1,0.2c-1.1,3-2.1,6-2.8,9.4c-0.5,2.5-1,5.2-1.6,7.8c-0.7,3.3-1.4,6.7-2,10.1
			c-0.7,4-1.2,7.9-1.6,11.8c-0.1,1.1-0.1,1.1-0.1,1.1c-0.2,1.3-0.4,2.8-0.4,3.5c-0.1,0.7-0.5,3.7-0.8,6.6c0,0-0.9,7.1-2.5,12.9
			c-1.2,4.1,0.7,8,4.7,9.8c1.2,0.5,1.2,0.5,1.2,0.5c1.3,0.2,4-3.8,3.6-0.8c0,0,1.6,3.6,0.5,7.5c-1.2,4.2-1.9,8-2.1,11.8
			c0,0.7-0.1,1.4-0.1,2c0,0.8,0,1.5-0.1,2.2c-0.4,5.2,0.2,8.8,0.2,8.8c0.5,2.9,0.9,5.5,0.9,5.7c0,0.2,2.8-0.1,3.2,1.5
			c0,0-2.8,3.6-2.9,4.5c-0.2,1.3-1.6,6.3-1.6,6.3c0.1,0.9,0.2,1.7,0.2,1.7c0,0,0,0.4,0,0.9c0,0,0,0,0,0.4c0,0.9,0.1,1.7,0,2.3
			c-0.5,4.1-2.4,8.2-6,13.1c-0.5,0.7-1.1,1.4-1.8,2.2c-0.5,0.6-1,1.2-1.5,1.8c-3.4,4.2-2.3,8.7,0.1,11.1c0.5,0.5,0.5,0.5,0.5,0.5
			c0.6,0.4,1.1,1,1,1.3c0,0,0,0-0.1,0.3c-0.8,1.9-2.1,3.7-4.1,6.1c-1.3,1.6-2.9,3.4-4.4,5.5c-2.8,3.9-2.3,8.6,1.4,11.7
			c1.1,0.9,2.5,2.1,4.3,3c1.1,0.6,2.3,0.9,3.6,0.9c1.2,0,1.2,0,1.2,0c1.4-0.4,2.6-0.3,2.6-0.1c0,0.2,0.1,0.6,0.2,1
			c0.1,0.4,0.8,3,1.5,5.9l8.2,8.3c1.2,2.7,5.9,2.7,6,3.3c0,0,0,0,0.1,0.5c0.2,1.2,0.3,2.3,0,3.6c-0.6,3.1,0,5.7,1.7,7.7
			c0.9,1.1,0.9,1.1,0.9,1.1c2.3,0.9,4.2,2,4.3,2.4c0,0,0,0,0.1,0.4c0.5,2.5-1.1,4.7,0.3,7.6c1.2,2.4,1.2,2.4,1.2,2.4
			c1.1,2.7,2,4.9,2.1,5c0,0.1,0.5,1.5,1.1,3.2c0,0,0,0-0.2,0.8c-0.5,2-0.3,3.9-0.1,5.1c0.7,4.5,4.4,7.7,8.9,7.7
			c0.9,0,1.9-0.1,2.8-0.4c0.6-0.2,0.6-0.2,0.6-0.2c0.4-0.2,2.3-0.8,2.8-1.1c0.5-0.3,1.4,0.4,2,1.6c0,0,0,0,0.5,1
			c1.5,3.1,2.1,3.9,2.1,3.9c1.7,2.4,3.2,4.4,3.2,4.5c0,0,0.4,0.6,0.9,1.3c0,0,0,0,0.4,0.6c1,1.5,2.3,2.4,3,2.8
			c1.5,1.1,3.3,1.7,5.1,1.7c2,0,4-0.7,5.7-2.1c1.9-1.5,1.9-1.5,1.9-1.5c0.7-1.7,1.4-3.1,1.4-3.1c0,0,0,0,0,0c1.8,1,3.4,1.9,4.6,2.9
			c1.6,1.3,3.3,2.8,4.2,4.4c1.6,2.6,2.4,2.8,2.4,2.8c3.1,2.8,7.7,1.8,10.1,0.1c0,0,0,0,1.7-2.2c1.2-1.5,1.2-1.5,1.2-1.5
			c0.5-1.9,1.1-3.8,1.5-4.1c0,0,0,0,0.3-0.3c1.9-1.8,3.9-3,6.1-3.6c2.7-0.8,5.8-1.6,8.6-2.1c0.8-0.1,1.5-0.3,2.1-0.4
			c0.4-0.1,0.4-0.1,0.4-0.1c0.4-0.1,1.3-0.1,2,0c0,0,0,0,0.5,0c4,0,4.2-0.2,4.2-0.2c2-2.2,3.8-4,3.9-4c0,0,0.3-0.1,0.5-0.2
			c0.2-0.1,2.6-1.1,3.4-1.5c0.9-0.4,2.1-0.3,2.8,0.1c0,0,0,0,0.7,0.3c1.4,0.6,2.7,0.9,4.1,0.9c2.9,0,5.4-1.4,7.2-3.9
			c0.5-0.6,0.8-1.2,1.2-1.5c1-1,2-2,2.9-3c0.7-0.7,1.4-1.4,2.1-2.1c0.7-0.7,1.3-1.3,2-2c1.9-1.9,3.8-3.8,5.7-5.9
			c0.6-0.6,1.2-1.3,1.8-1.9c2.3-2.4,3.3-3.6,3.3-3.6c1.9-2.3,5.3-4.2,6-4.3c0.7-0.1,3.7-1,6.5-1.9c0,0,0.9-0.3,1.7-0.9
			c1-0.8,2.1-1.5,3.2-2.1c1-0.6,2-1.1,3.1-1.6c1.1-0.6,1.1-0.6,1.1-0.6c1.3-0.7,2.5-1.3,2.7-1.4c0.2-0.1,2.5-1.4,5.1-2.8
			c0,0,2.4-1.3,5.8-4.4c0.2-0.2,0.2-0.2,0.2-0.2c0.2-0.2,1.1-0.1,1.9,0.2c0,0,0,0,0.4,0.1c1,0.3,1,0.3,1,0.3c0.8,0,3.7,0.2,6.4,0.4
			c0,0,0,0,2.3-1.1c1.7-0.8,3.5-1.6,5.1-1.7c1.6,0,2.8-0.6,3.3-0.8c1.8-0.9,3.8-1.6,5.9-2.4c2-0.8,4.1-1.5,6.1-2.5
			c8.6-3.9,7.3-7.9,14.9-15.7c4.6-4.7,8.2-9.7,8.2-9.7c1.7-2.4,5.6-4.7,8.5-5.2c0,0,1.9-0.3,3.9-3.4c0.4-0.6,0.7-1.1,1.1-1.6
			c1.1-1.7,2.4-3.5,3.4-5.7c1-2,1-2,1-2c1-2.2,2.8-3.2,4.2-2.2c0,0,0,0,0.8,1.1c0.6,0.9,0.6,0.9,0.6,0.9c0.7,0.7,1.3,1.3,1.3,1.3
			c0.1,0.1,1.4,1.4,1.9,1.9c0.5,0.5,1,1,1.2,1.2c0.2,0.2-0.1-2-0.6-4.7c0,0,0,0,2.3,2.4c0.8,0.8,0.8,0.8,0.8,0.8
			c0.9,1,1.6,2.6,1.7,3.6c0.1,1,1.1,4.1,2.4,6.8c0,0,1.7,3.6,6.4,3.6c0.3,0,0.5,0,0.8,0c0.9-0.1,0.9-0.1,0.9-0.1
			c0.9-0.3,4.2,2,5.6,2.4c1.3,0.4,2.7,0.9,3,1.3c0,0,0,0,0.3,0.3c2.1,2.2,4.9,2.4,6,2.4c0.4,0,0.8,0,1.1-0.1c2.6-0.3,7.2-1.9,8-8.5
			c0.7-5.8,0.8-11.7,0.8-11.7c0-3,0.1-5.9,0.1-6.6c0-0.6,0-2.3,0-2.7c0-0.4,1.5-1.7,3.3-2.8c0,0,0,0,1-1.6
			C475.9,367.3,475.6,366.2,475.6,366.2z M467.5,365.8c-0.3,0.5-0.3,0.5-0.3,0.5c-0.7,0.1-2.2,0.2-3.2,0.2c-1.1,0-1.9,0.9-1.9,2
			c0,1.1,0,4.6,0,5.6c0,1,0,2.3,0,2.9c0,0.6-0.1,3.6-0.1,6.6c0,0-0.1,5.5-0.8,10.8c-0.2,1.5-0.4,1.5-1.2,1.6c-0.2,0-0.2,0-0.2,0
			c-0.2,0-1.2-1-1.5-1.5c-0.3-0.4-1-1.2-1.5-1.8c-0.5-0.6-1.5-0.9-2.2-0.6c-0.7,0.3-1.4,0.2-1.5,0c-0.1-0.2-0.2-0.6-0.3-1
			c-0.1-0.4-0.5-0.9-0.9-1.2c-0.4-0.3-1.3-1-1.5-1.2c-0.2-0.2-1.2-0.9-2.1-1.7c-1-0.7-2.2-0.5-2.9,0.5c-0.6,1-1.5,2.1-1.7,2.2
			c-0.2,0-0.4,0-0.4,0.1c0,0-0.7-0.3-0.7-0.6c0-0.3-0.1-1.5-0.2-2.5c-0.1-1.1,0-2.4,0.1-2.9c0.1-0.5-0.1-1.3-0.5-1.7
			c-0.4-0.4-1.8-2-3.1-3.5c0,0,0,0-1.2-1.3c-2.3-2.4-2.3-2.4-2.3-2.4c0.5,2.8,0.7,4.9,0.5,4.7c-0.2-0.2-1.6-1.6-2.1-2.1
			c-0.5-0.5-1-1-1.1-1.1c-0.1-0.1-0.5-0.5-0.9-0.9c0,0,0,0-0.2-0.3c-2-2.8-2.9-3.4-2.9-3.4c-0.9-0.6-1.7-1.1-2.4-1.6
			c2.5-6.8,1.7-14.1,0-21.3c-2.1-8.9-4.9-17.2-6.2-26.3c-2.4-17.4-14.3-30.9-31.1-36c-4.2-1.3-6,5.3-1.8,6.5
			c14.6,4.4,24.6,16.4,26.3,31.6c0.8,7.6,3.1,14.7,5.2,22c1.8,6.2,3.5,13.1,1.8,19.4c0,0,0,0-0.1,0c-1.1-0.8-2.5-0.4-3,0.8
			c-0.5,1.3-1.2,3-1.6,3.8c0,0,0,0-0.3,0.8c-1.1,2.6-2.2,5.3-3.5,7.9c-0.8,1.6-1.9,3.2-2.9,4.7c-0.4,0.6-0.8,1.2-1.2,1.8
			c-0.4,0.6-0.8,0.7-1.2,0.7c-0.1,0-0.2,0-0.4,0c-0.1,0-0.1,0-0.1,0c-0.1,0-1-0.7-2-1.5c-1-0.8-2.3-0.5-3,0.6
			c-0.6,1.1-2.5,4-4.2,6.5c0,0-3.9,5.7-8.9,10.9c-6.9,7.1-4.7,10.5-12.5,14c-1.8,0.8-3.8,1.6-5.7,2.3c-2.2,0.8-2.2,0.8-2.2,0.8
			c-2.3,1-4.3,1.8-4.3,1.8c0,0-0.1,0-0.1,0.1c0,0-2.4,0.5-5.3,1.2c0,0-0.6,0.1-3,1.3c-0.6,0.3-0.6,0.3-0.6,0.3
			c-0.8-0.1-1.5-0.2-1.7-0.3c-0.2,0-0.5-0.1-0.8-0.1c-0.3,0-0.7,0-0.8,0c0,0,0,0,0,0c-0.2-0.1-0.2-0.1-0.2-0.1
			c-0.4-0.2-1.3-1.1-2-2.2c-0.7-1-2-1.2-2.9-0.4c-0.9,0.8-2.7,2.3-3.9,3.3c0,0,0,0-1,0.9c-2.7,2.4-4.3,3.3-4.3,3.3
			c-2.6,1.4-4.9,2.7-5.1,2.8c-0.2,0.1-1.3,0.7-2.5,1.3c0,0,0,0-1.1,0.5c-1.2,0.6-2.3,1.2-3.4,1.8c-1.5,0.8-2.9,1.8-4.2,2.8
			c-0.8,0.6-0.8,0.6-0.8,0.6c-0.7,0.1-1.3,0.3-1.4,0.3s-0.5,0-1,0.1c0,0,0,0-0.4,0.1c-0.9,0.2-1.3,0.3-1.5,0.3c-0.1,0-0.1,0-0.1,0
			c-0.1,0-1-0.5-1.9-1.1c-0.9-0.6-2.1-0.3-2.7,0.6c-0.6,0.9-2.5,3.5-4.4,5.9c0,0-1.5,2-4.2,4.8c-0.6,0.6-1.2,1.3-1.8,1.9
			c-1.8,1.9-3.7,3.8-5.5,5.7c-0.7,0.7-1.3,1.3-2,2c-0.7,0.7-1.3,1.3-2,2c-1,1-2.1,2.1-3.1,3.1c-0.7,0.7-1.3,1.5-1.9,2.4
			c-0.4,0.5-0.6,0.5-0.7,0.5c-0.2,0-0.5-0.1-0.8-0.2c-0.5-0.2-0.5-0.2-0.5-0.2c-0.1-0.1-0.6-1.3-1.1-2.7c-0.5-1.4-1.9-1.8-3-0.9
			c-1.2,0.9-4.9,3.3-6,3.7c-3.8,1.2-5.1,3.5-7,4.5c-2.1,1.1-6.9,1-7.4,1c-3.3,0.5-6.7,1.5-9.6,2.3c-3.4,1-6.6,2.8-9.4,5.5
			c-0.8,0.7-0.8,0.7-0.8,0.7c-0.8,0.8-1.8,1.8-2.2,2.2c-0.4,0.4-0.6,1.1-0.6,1.7c0.1,0.5,0.2,1.3,0.2,1.6c0,0,0,0-0.3,0.4
			c-0.2,0.3-0.5,0.5-0.8,0.5c-0.2,0-0.4-0.2-0.5-0.3c-1.6-2.7-3.9-4.7-6-6.5c-1.8-1.5-3.8-2.6-5.8-3.7c-0.3-0.2-0.7-0.4-1-0.6
			c-0.7-0.4-1.3-0.7-2-1.1c-1.2-0.7-1.2-0.7-1.2-0.7c-1.3-0.8-4.2-2.6-6.5-4s-3.6-0.5-3,2.1c0.6,2.6,1.3,5.8,1.6,7.1
			c0,0,0,0,0.4,1.2c0.1,0.5,0.1,0.5,0.1,0.5c0,0.2-0.1,0.4-0.2,0.6c0,0,0,0-0.3,0.3c-0.3,0.2-0.6,0.4-0.8,0.4
			c-0.1,0-0.3-0.1-0.5-0.2c-0.4-0.3-0.8-0.6-1.1-1c-0.5-0.6-0.5-0.6-0.5-0.6c-0.5-0.7-0.9-1.3-1-1.3c0,0-1.5-2-3.2-4.5
			c0,0-0.1-0.2-1.4-2.7c-1.4-2.9-2-4-2-4c-1.4-2.6-3.6-6.8-4.9-9.2c-1.3-2.4-2.9-2.3-3.7,0.4c-0.7,2.7-1.4,4.9-1.4,5.1
			c0,0,0,0,0,0.1c-0.3,1.2-0.3,1.2-0.3,1.2c-0.7,0.3-1.3,0.5-1.4,0.5c-0.1,0-0.4,0.1-0.7,0.2c0,0,0,0-0.3,0.1
			c-0.2,0.1-0.4,0.2-0.5,0.2c-0.7,0.2-1.3-0.2-1.4-0.8c-0.1-0.3-0.2-1.3,0-2c0.8-3.1,0.7-3.2,0.7-3.2c-1-2.8-1.8-5.2-1.8-5.3
			c0-0.1-1-2.4-2.1-5.1c0,0-0.2-0.6-1.6-3.3c-0.9-1.9,0.8-3.4,0.4-5.5c-0.2-0.8-0.3-1.6-0.5-2.4c-0.1-0.5-0.1-0.5-0.1-0.5
			c-0.1-0.7-0.3-2.2-0.5-3.2c-0.1-1-1.1-1.8-2.2-1.7c-1,0.1-2.1,0.2-2.4,0.2c0,0,0,0-0.2,0c-0.3,0-0.5,0-0.7,0c-0.3,0-0.3,0-0.3,0
			c-0.1,0-0.2-0.2-0.3-0.3c0,0,0,0,0.2-0.9c0.4-2.3,0.4-4.4-0.1-6.6c-0.3-1.2-0.5-2.6-1.2-3.8c-2.3-4.2-13.1-8.4-13.1-8.4
			c-0.8-2.9,0.5-8.4,0.4-8.8c-0.1-0.4-2.7-1.2-2.9-2.5c-0.2-1.2-0.4-3.8-0.5-5.8c-0.1-1.9-1.5-2.6-3.1-1.5c-1.6,1.1-4.1,2.9-4.6,3.4
			c-0.4,0.4-0.9,0.9-0.9,0.9c-0.1,0.1-0.4,0.5-0.7,0.8c0,0,0,0-0.2,0.1c-0.3,0.1-0.6,0.2-0.8,0.2c0,0,0,0,0,0c0,0-0.9-0.6-1.9-1.3
			c0,0,0,0-0.9-0.7c-0.3-0.3-0.3-0.3-0.3-0.3c-0.1-0.1-0.1-0.3,0-0.4c0,0,0,0,0.2-0.3c1.3-1.8,2.8-3.6,4-5c2.5-2.9,4.2-5.4,5.3-8
			c0.3-0.7,0.3-0.7,0.3-0.7c0.4-0.8,0.7-1.5,0.7-1.5c0-0.1,0.6-1.3,0.8-1.7c0.2-0.5,0.9-2.1,1.7-3.8c0.7-1.6-0.2-2.9-1.9-2.8
			c-1.8,0.1-3.2,0.2-3.2,0.2s0,0,0,0s-0.6-0.1-0.8-0.2c-0.2-0.1-0.3-0.3-0.3-0.5c0,0,0,0,0.2-0.3c0.5-0.6,0.9-1.1,1.4-1.7
			c0.7-0.9,1.5-1.7,2.1-2.6c4.5-6.1,6.9-11.2,7.6-16.8c0.1-1.2,0.1-2.4,0.1-3.6c0-0.4,0-0.8,0-1.2c0-0.2,0-0.6-0.1-0.9
			c0-0.3-0.1-0.6-0.1-0.8c0.4-2.5,4.4-8.8,4.4-8.8c-0.6-2.5-3.3-5.1-3.3-5.3s-0.5-2.7-0.9-5.7c0,0-0.3-1.9,0.1-6.2
			c0.1-0.9,0.1-1.7,0.1-2.6c0-0.6,0-1.2,0.1-1.8c0.2-3.2,0.8-6.5,1.8-10.1c1.6-5.7-1.4-5.7-1-12.8c0.1-1,0.1-1,0.1-1
			c0-1.1-0.1-4.4-0.2-7.4l-0.2-6.6c-0.1-3-1.2-3.2-2.4-0.5l-2.6,6c-1.2,2.7-2.3,5.1-2.4,5.4c0,0,0,0-0.1,0.2
			c-0.1,0.2-0.2,0.2-0.3,0.2c-0.1,0-0.3,0-0.5-0.1c-0.2-0.1-0.2-0.1-0.2-0.1c-0.1-0.1-0.2-0.2-0.2-0.2c0,0,0,0,0-0.1
			c1.8-6.4,2.8-14.1,2.8-14.1c0.4-3,0.7-5.9,0.8-6.6c0.1-0.7,0.3-2.3,0.4-3.6c0,0,0,0,0.1-1.2c0.5-3.7,0.9-7.6,1.6-11.3
			c0.2-1.1,0.4-2.3,0.7-3.4c0.7,0.7,1.5,2.5,2.6,6c2.8,9.3,10.5,17.5,15.1,21.8c-1.3,2.6-3.1,7.3-4.2,14c-1.5,9.6,3.8,32.8,5,37.7
			c-10.6,18.9-20.2,37.2-10.8,37.2c0,0-1.2-1.4,0-4.3c0.5-1.3,7.5,7.6,7.3,5.8c-0.5-5.8-3.3-12.4-2-18.8c0.7-3.2,3.5,11.5,4.4,8.5
			c0.6-2-0.1-13.6,0.5-15.5c3.1-9.2,5.9-10.8,7-12.5c2.4-3.8,5.3-12.6,7.5-16c0.5-0.8,3.5-0.8,4-1.6c0.9-1.4-1.9-6.5-1-8
			c1-1.7,3.1-0.7,4.1-2.6c5.8-11.9-0.6-14.7-1-11.7c-0.2,1.6-3.6,9.5-8.1,18.2c-1.8,3.5-3.9,7.2-6,11.1c-1-0.8-7.9-7.1-5.2-28.5
			c0,0,3.6-15.7,8.7-17.1c5.1-1.5,14.9-5.8,19.5-8.6c0,0,0,0,0,0c-0.1,1.3,0.2,2.3,0.2,2.7c-0.3,12.5,8.2,7.8,8.2,7.8
			s-4-4.1-4.4-5.6c-0.4-1.4,1-5.6,6.1-12.6c-0.9-7.5,6.5-20.8,12.1-21.9c1.3-0.1,8-8.2,6.5-9.9c-1.5-1.7-10.1,4.8-9.4,2.2
			c0.7-2.6,3.4-8.1,8.5-12c5.1-3.9,8.5-0.7,8.5-0.7l3.9,4.7c17.9,39.6,49,15.3,49,15.3c-34.5,16.9-48.1-18.9-48.1-18.9l-3.2-3.3
			c-0.4-0.3-5.7-1.3-8.7-1.1c-3,0.3-12.8,2.6-13.7,7.8c0.4,18.1-8,29.7-11.9,34.3c-3.3,3.9-2.4,6.1-3,6.8c0,0-11,9-24.1,10.8
			c-3.9,0.5-5.9,1.1-6.8,1.7c0,0-0.1-0.1-0.1-0.1c-6.4-5.8-10-14.6-11.9-19.1c-1.8-4.5,0.2-9.7-3.3-12l0,0c0.2-1,0.4-2.1,0.6-3.1
			c0,0,0,0,0,0c7.5-15.4,16.4-18.2,16.4-18.2s6.1-6-1.5-2.3c-5.4,2.7-8.8,4.8-10.4,4.8c0.1-0.5,0-1-0.2-1.2
			c-0.3-0.2-0.5-0.5-0.5-0.5c0,0,0,0,0,0c1-0.9,2.1-1.9,2.5-3.2c0.1-0.3,0.3-0.7,0.5-1c0.5-0.8,0.5-0.8,0.5-0.8
			c0.3-1.1,0.6-2,0.6-2.1s0-0.5,0-0.6s0.1-0.5,0.3-0.9c0.2-0.3,1.2-2.1,2.2-3.9c0,0,0,0-0.4-2.3c0-0.1,0-0.1,0-0.1
			c0.1-0.1,0.1-0.3,0.2-0.4c0.1-0.1,0.3-0.1,0.5-0.2c0.4-0.2,0.9-0.7,1.2-1.2c0.2-0.5,0.9-1.8,1.4-2.9c0,0,0,0,0.5-1
			c0.8-1.7,2.2-3.3,2.5-5.1c1.6-11.7,18.9-35.6,20.6-33.8c-2.5,3.2-12.5,24.2-9.9,23.7c1.5-0.3,20.7-29.4,22-30.8
			c0.6-0.7,4.3-1.2,4.9-1.8c0.7-0.6,0.9-1.7,0.4-2.5c-0.5-0.8-0.9-1.5-1-1.7c0,0,0,0,0-0.1c-0.3-1.2,0.4-2.1,1-2.5
			c4.4-3.4,5.2-6.3,5.2-6.3c2.6-1.5,5.2-3,5.8-3.3c0.6-0.3,3.4-1.6,6.1-2.8c0,0,2.7-1.2,6.6-2.8c1.7-0.7,3.6-1.2,5.4-1.7
			c0.6-0.2,1.3-0.3,1.9-0.5c2.9-0.8,5.8-1.6,8.5-2.3c0.2-0.1,0.5-0.1,0.8-0.1c0.3,0,0.7,0,1.1-0.1c4.3-0.8,8.9-1.2,14.1-1.2
			c2.8,0,5.9,0.1,9.6,0.3c2.8,0.2,2.9,0.2,2.9,0.2c3,0.3,6,0.6,6.7,0.6c0.7,0.1,1.7,0.2,2.2,0.2c0,0,0,0,0.3,0.1
			c3.1,1.6,6.4,1.8,9.2,1.8c0.8,0,1.6,0,2.5,0c0.6,0,1.1,0,1.7,0c3.3,0,6.7,0,10.1,0.2c1.7,0.1,7.7-1.5,9.4-1.3
			c0.7,0.1,1.3,0.2,2,0.2c4.8,0.5,9.3,2,13.4,4.3c1.5,0.8,1.5,0.8,1.5,0.8c1.6,1,3.3,1.1,3.9,0.2c0.6-0.9,0.6-0.9,0,0
			c-0.6,0.9-0.4,2.1,0.5,2.7c0,0,0,0,0.8,0.5c0.9,0.5,1.7,1.1,2.6,1.6c1,0.6,2,1.2,2.9,1.8c0.3,0.2,0.6,0.4,0.9,0.6
			c0.4,0.3,0.8,0.6,1.2,0.9c1.7,1.1,3.3,2,4.8,2.8c1,0.5,1.4,0.8,1.5,1.3c0.5,2-2.2,4.6-1.4,5c2.3,1.2,4.9,1.9,7.9,2.3
			c0.1,0,0.3,0,0.5,0c0.2,0,0.2,0,0.2,0c0.3,0,0.5,0.1,0.5,0.1c0,0,0,0,0,0.1c0.1,0.3-0.1,1.2-0.6,1.6c-0.1,0.1-0.1,0.1-0.1,0.1
			c-0.1,0.1-1.3,0.9-2.8,1.8c-1.5,1-1.4,2.5,0.1,3.4c1.5,0.9,4.7,3,7.2,4.7c0,0,5.9,4,10.9,9c1.3,1.3,2.7,2.5,4.2,3.8
			c0.8,0.7,1.7,1.5,2.6,2.3c0.9,0.8,1.7,1.6,2.5,2.5c0.4,0.4,0.8,0.8,1.2,1.2c5.5,5.4,10.2,10.8,14.3,16.5c2.2,3.1,3.3,5,3.3,5
			c1.5,2.6,2.9,4.9,3,5.2c0.2,0.3,1.2,2.2,2.4,4.3c0,0,0,0,1,1.9c0.8,1.5,1.7,3.1,2.5,4.6c0.7,1.3,1.4,2.5,2.2,3.8
			c2.6,4.6,5.3,9.4,8.1,13.9c3.5,5.7,8,12.4,8,12.4c1.6,2.5,3.5,5.3,4.1,6.2c0.6,0.9,2.5,3.7,4.1,6.2c0,0,2.1,3.2,4.9,6.9
			c1.4,1.9,3.2,3.5,4.8,5.1c0.4,0.4,0.8,0.7,1.2,1.1c0.1,0.1,0.2,0.2,0.3,0.3c0.1,0.1,0.1,0.1,0.1,0.1c0.1,0.1,0.2,0.4,0.2,0.7
			s0.1,0.7,0.2,0.9c0.1,0.2,0.4,0.8,0.4,0.9c0,0.1,0,0.3,0,0.3c0,0.1-1.3,0.1-2.8,0.1c0,0,0,0-1.1-0.5c-1.2-0.6-1.2-0.6-1.2-0.6
			c-1.7-0.7-5.3-2.1-8-3.1c-2.7-1-3.8,0.3-2.4,2.9l0.8,1.5c1.4,2.6,3.7,6.9,5.1,9.6c0,0,1.7,3.1,4,6.9c2.5,4.1,4.8,7.7,8.4,10.6
			c0.3,0.2,0.4,0.9,0,1.4c-0.2,0.3-0.7,0.5-1.1,0.5c-0.2,0-0.2,0-0.2,0c-0.1,0-2.3-1.1-5-2.5l-0.9-0.5c-2.7-1.3-3.8-0.2-2.4,2.4
			l0.5,0.9c1.3,2.7,3.4,6.7,4.7,9c0,0,0,0,2.1,1.9c0.1,0.1,0.1,0.1,0.1,0.1c0.1,0.3,0.6,2.2,1.2,4.2c0,0,0,0,1.3,1.3
			c0.5,0.5,1,1,1.4,1.6c0.1,0.2,0.3,0.4,0.2,0.7c0,0.3-0.3,0.6-0.7,0.8c-0.3,0.2-0.6,0.3-0.8,0.3c-0.1,0-0.1,0-0.1,0
			c-0.2-0.1-1-0.8-1.7-1.5c-0.8-0.7-2-0.7-2.7,0c-0.7,0.7-1.6,1.5-1.7,1.6c-0.1,0.1-0.5,0.5-1,0.9c-0.5,0.4-0.7,1.4-0.5,2.2
			c0.2,0.8,0.6,3,1,4.8c0,0,0,0,0.3,1.7c0,0.2,0.1,0.4,0.2,0.7c0.1,0.3,0.2,0.6,0.2,0.9c0.5,4.4,1.8,8.7,3.8,12.9
			c1.1,2.4,1.1,2.4,1.1,2.4c1.2,2.6,2.2,5,2.3,5.3c0.1,0.2-0.5,0.1-1.4-0.4c0,0,0,0,2.6,4.2c0.1,0.1,0.1,0.1,0.1,0.1
			c0.1,0.2,0.2,0.4,0.2,0.4c0,0,0.2,0.6,0.5,1.3C467.8,365.2,467.8,365.2,467.5,365.8z"/>
		<path class="st2" d="M260.3,246.3c8.6,2.9,6.6,13.7,12.3,16.9c3.5,1.9,3.6-4.6,3.5-5.1c-1.3-6.3-9.2-13.3-17.7-16.6
			c-1-0.4-4,0.2-4.9-0.1c-1.9-0.6-1.7-5.5-3.5-5.4c-1.5,0.1-2.1,4.4-3.5,4.9C238.6,244,259.8,246.1,260.3,246.3z"/>
		<path class="st2" d="M222.3,271.9c0.6,0.1,1.8-1.8,2.6-1.8l1.9,2.5c0,0,18.5-4.1,20.6-4.3c1-0.1,10.6,0,10.5-0.2
			c-0.4-1.1-3.7-2.7-2.2-4.6l4.6,2.1c1.3-0.6,5.7,0.4,6.7,0c1.1-0.5-4.8-13.1-11.5-13.6c-3.2-0.2-0.7,0.8-3.9,0.8
			c-3,0-6.2-2-7.1-2.1c-0.2,6.6-6.6,8.5-7.1,8.9c-3.1,2.5-10.3-0.5-13.7,2.3C218.2,266.2,215.6,271.3,222.3,271.9z"/>
		<path class="st2" d="M227.6,309.2c10.5-2.2,16.5-3.9,23.2-5.9c0.4-0.1,1.8-0.5,1.8-0.5c3.4-0.8,3.6-2.4,5.4,0.6
			c0,0,4.2-1.2,4.4-1.7c0.4-0.9,3.3-2.6,3.5-0.9c0.1,0.5,3.5,0,3.5,0l8-3.8c0,0,5.2-2,2.2-3.1c-0.2-0.1,5.4-1.6,4.9-1.8
			c-4.7-1.5-4.7-2.5-9.6-4.5c-1-0.4-2.3,2.5-4.6,0.3c-0.4-0.4-3.9-3.2-3.9-3.2c-2.7-2.2-5.5-2.5-6.2-0.8c-0.7,1.7-3.3,2.5-6.6,1.4
			c0,0-5.7-1.9-8.3-1.8c-1.2,0-1.3,0.1-1.3,0.1c-2.6,2.4-6.5,4.6-8.8,4.9s-5.8,2.1-9.1,3.3c0,0-5.7,0.5-9.2,4.7
			c-3.3,4-2.9,11.9-2.9,11.9C215,309.5,226.1,309.5,227.6,309.2z"/>
		<path class="st2" d="M379.2,291.8c-3-0.4-10.6-0.3-13.6-5.4c-0.3-0.5-3.9,7-4.5,6.9c-0.6-0.1-1.5-7.9-2-8
			c-0.7-0.1-2.4,1.2-3.2,1.1c-0.9-0.1-0.6,4-1.5,3.9c-0.8-0.1-1.7-2.4-2.5-2.6c-6-0.8-11.8-1.2-16.2-0.5c-10,1.7-17.4,11.2-28.1,9.3
			c-0.3-0.1-0.6-0.1-0.9,0c-2.1-3.8-3.6-7.9-4.9-12.1c-2.8-8.8-11.9-11.5-19.5-14.6c-1.9-0.8-18-2-9.1,3.1
			c6.7,3.9,19.5,5.2,22.3,13.7c2.3,6.9,3,12.9,8.3,18.5c1,1.1,4.7,3.6,9.2,6.3c0.9,0.5-1.3,5.9-0.4,6.4c0.9,0.5,4.9-2.8,5.7-3.4
			c1.3-0.9,1.9,1,2.8,1.5c0.8,0.4-3.2,8-2.5,8.4c0,0,7.1-4.6,8-4.2c5.3,2.3,8.8,1.2,8.1-1.8c0,0-1.1-5.5-3.8-6.9
			c-1-0.5-5.6,4.2-6.7,3.8c-0.8-0.3,0-5.7-0.8-6c-2.6-0.8-3.1,0.7-5.2-0.5c-2.6-1.5-4.7-3.3-6.6-5.3c7.4-0.5,13.5-4.4,20.5-7.7
			c3.9-1.9,12.5-4,17.4-2.1c2.4,0.9,0.9,5.9,3.5,6.3c1.3,0.2,3.5-4.9,4.7-4.7c1.2,0.2,1.1,9.9,1.6,8.8c2.9-5.5,15-6.1,18-5.7
			C381.7,298.9,383.5,292.4,379.2,291.8z"/>
		<path class="st2" d="M423.2,257C419.1,259.7,421.7,258,423.2,257c-22.8,14.6-45.7-17.7-54.3-33.3c-7.5-13.5-4.6-20.5-5.8-35.9
			c-0.2-3.1-14.6-24.2-14.5-14.6c0.1,9,1.3,18,3.6,26.7c0.8,2.9,1.6,5.8,2.6,8.6l-29-23.3c0,0-5.3-2.4-7.3-3.2c-2-0.8-8.6-2-8.6-2
			s-10.3-5.6-24.5-3c-14.2,2.6-12.2,3.2-7.2,2.6c5.4-0.5,5.4-0.4,7.8-0.5c18.4-1.2,24,3.8,24,3.8s3.6,1,5.6,10.6
			c2,9.6-1.5,26.9-1.5,26.9c5.5-6.1,3.7-28.7,3.7-28.7l1.7-1.4l7.6,0.7l30,23.3c4,9.9,9.4,19.2,15.8,27.8
			c10.4,13.9-9.3,20.7-16.2,25.8c-8.7,6.5-8,22.4,1.1,8.7c1.7-2.6,9.7-0.6,9.7-0.6c-0.7-3.1-2.5-4.8,0-8.2c1.1-1.5,4.5,6.2,6.3,4.3
			c1-1-0.8-6.2,0-8.5c1.8-5.2,5.9-9.1,7-11.6c14.1,15.2,29,37.4,35.7,57.2c1.5,2.5,3.4,3,5.8,1.4c3.4-3-3.1-12.7-4.4-15.3
			c-5.8-11.3-12.9-21.5-20.3-31.7c5.8,1.9,12.2,3,18.3,2.6C428.2,265.2,427.6,254.2,423.2,257z"/>
		<path class="st2" d="M423.2,257C423.2,257,423.2,257,423.2,257C424.6,256.1,424.1,256.5,423.2,257z"/>
		<path class="st2" d="M212.2,192.8c7-2.7,8.4-6.3,14.1-11.1c5.6-4.6,0.7,3.1,5.4,1.3c4.8-2,9.5-4.3,14.1-6.7
			c8.1-4.3,16.8-17.6,24.9-21.8c-0.4,14,28.2-1.8,33.9-2c8.3-0.2,16.7-4.7,24.8-2.3c2.9,0.9,8.9,9.4,11.4,5.5c1.9-2.9-2-7.4-3.9-9.2
			c3.6,0.8,6.7,2.9,8.2,6.4c1.2,2.8,4.9,7.9,7.9,9.4c0,0-1.8-8.1-1.9-11c-0.2-6.3-1-5.7-6.5-9c1.6,1,4.2,2.6,0,0
			c-9-5.5-23.4-3.8-33.3-2c-13.9,2.5-21.4,7.6-34.2,11.8c-2-13.8-25.9,13.7-32.8,17.4c4.4-6.3-2.6-6.8-6.8-3.9
			c-6.8,4.7-14.8,13-21.6,17.6c-6.8,4.6-12.5,8.1-20.2,11c-1.2,0.4-17.5,5.4-8,5.1C198.1,199.1,208.7,194.2,212.2,192.8z"/>
		<path class="st2" d="M343.8,141.7C343.7,141.7,343.7,141.7,343.8,141.7L343.8,141.7z"/>
		<path class="st2" d="M343.8,141.7c0.1,0.1,0.3,0.2,0.8,0.5c0,0,0,0,0,0C344.2,142,343.9,141.8,343.8,141.7z"/>
		<path class="st2" d="M324.6,335.3C338.8,344.4,321,333,324.6,335.3L324.6,335.3z"/>
		<path class="st2" d="M324.6,335.3c-8.3-5.3,5,21.1,5.3,23.5c1.5,14.6-1.6,40.1-16.4,48c0.3-16.1-15.9,14-18.2,15.9
			c-1-5-2.5-9.8-4.4-10.1c0,0-4.5,4.2-7,9.2c-5.8,11.7-22,4.7-25.2,18.6c-5.9-5.9-12.2-11.6-13.9-11.8c0,0-2.7,5.2-4,11.4
			c-3.9-1.3-29.1-14.4-29.1-14.4c-1.4,0.7-1.9,4.8-1.5,7.6c-6.2-2.6-10.8-5.8-14.2-10c-0.8-1-1.2-6-1.9-7.2c-1-1.6-1.2,4.8-3-1.4
			c-1.2-4.1-4.2-4.7-4.9-9.5c-0.2-1.4,6.2-11.4,4.9-10.8c-5.4,2.3-4-6-3.6-9.9c0.9-10.1,3.4-20.1,6.9-29.6c3.9-10.6-1-16.3-5.8-3.6
			c-2.4,6.3-8.6,20.2-10.1,27.1c-1.7,7.8,1.6,8.8,1.9,16.7c0.3,6.9,2,15.1,4.4,21.5c3.2,8.6,8.3,14.6,16.1,19.5
			c2.3,1.4,24.7,10.6,17.6,0c8.8,4.1,26.4,20.1,29.4,3.2c7.7,6.9,13.3,17.2,17.4,2.7c2-7.1,17.8-3.9,23.8-15.9
			c0.9,7.6,5.6,6.4,11.1,1.2c3.8-3.8,6.8-8.1,9-12.9c4.8,1.6,10.3-3.2,13-6.3C336.4,391.9,347.5,349.9,324.6,335.3z"/>
		<path class="st2" d="M191.3,240.6C191.3,240.6,191.3,240.6,191.3,240.6C191.3,240.6,191.3,240.6,191.3,240.6z"/>
		<path class="st2" d="M218.7,210c0,0-29.1,0.6-31.1,11.2c0,0,26.6-12.7,31.4-7.7c1.8,1.9-0.7,6.3-0.7,6.3l-0.7,8.4
			c0,0-6.9-1.6-9.3,1.4l9.3,4c0,0-15.8-3.7-26.1,10.4c0,0-0.2-2.9-0.1-3.3c-0.4,0.6-6.2,7.9-2.2,21.1l4.2-1.5c0,0-3.2-12,22.8-17.1
			C216.1,243.2,228,215.9,218.7,210z"/>
		<path class="st2" d="M171.9,249.4c0,0-1.7-11.9,3.5-14.8c5.3-2.9,2.9-5.3,2.9-5.3l-1.1-2.2c0,0-11.1,5.7-9.2,18.2
			c1.9,12.4,6.9,17.7,6.9,17.7s8.1,5.8,6,0.5C180.8,263.5,175.2,262.6,171.9,249.4z"/>
		<path class="st2" d="M187.6,265.1c17.2,1,21-13.6,21-13.6C201.2,260.9,187.6,265.1,187.6,265.1z"/>
		<path class="st2" d="M311.1,202.3l-2.7-1.2l-9.1,1.5l-5.3,0.8c0,0-3.3-1.1-6-0.8c-2.7,0.3-11.8,5.1-11.8,5.1s-8.1,8.9-7.4,10.1
			c0.7,1.1,3-1.5,2-0.5c-1,1,4.8-4.6,4.8-4.6l5-4.7l8.5-3.2c0,0,8.8,2.1,8.1,2.9c-0.7,0.8-5.8,0.4-5.8,0.4s-9.7,1.9-11.5,3.1
			s-4.1,4.5-4.1,4.5l-8.2,6.2l-0.8-3.6c0,0-2.2-4.3-2.1-5.6c0.1-1.3,1.6-3.8,4.3-7.8c2.7-4,8.2-5.4,8.2-5.4s-0.5-4.6-1.7-5.4
			c-1.2-0.7-7.3,1.4-7.3,1.4l-1.5-0.2c0,0-4.1-0.7-4.5,0.3c-0.3,1,1.6,2.7,1.6,2.7c-4.9,3.1-6.8,14.7-6.8,14.7s3.1,4.1,2.6,5.3
			c-0.5,1.2-1.4,1.7-1.4,1.7c-13.5-26,18.1-36.7,18.1-36.7c-25.2,5.4-27.3,19.3-24.5,29.1c9.8,30.5,32.9,21,32.9,21
			c-11.9,2.4-19.2-4.1-19.2-4.1l-2.9-3l0.2-1.3l4.5,3c0,0,24-13.4,32.7-7.5c3,2-1.1,2.3-1.1,2.3l-1.5,2.7l1.6,1.7
			C317.6,221,311.1,202.3,311.1,202.3z"/>
		<path class="st2" d="M194.9,208.6c1.1,1.2,5.7-8.8,74.2-26.4l-40.7,5.7C228.5,187.8,193.9,207.4,194.9,208.6z"/>
		<path class="st2" d="M259.1,187.8c-11.8,3.5-22.5,6.3-31,9.4c-15.4,5.5-24.1,10.3-24.1,10.3c22.2-2.8,20.1,8.1,20.1,8.1
			c1.9-6.6,21.6-6.5,21.6-6.5C245.2,197,259.1,187.8,259.1,187.8z M243.7,207.3c0,0-17.5,0.7-18.9,4.5c0,0-1.8-7.2-12.6-5.9
			c0,0,33.1-13.3,40.8-15.4C253.1,190.5,243.3,201.6,243.7,207.3z"/>
		<path class="st2" d="M264.6,315.9c-2.3-1.2-6.8,1-11.3,1.9c-4.5,0.9-9.2,1.1-16.2,2.9c-7,1.8-12.9,3.5-13.4,4.8
			c-0.5,1.3,4.3,2,5.9,2.3c1.6,0.2,2.9,5.9,4.5,6.2c1.6,0.3,2.3-7.8,3.6-8.9c1.4-1.1,3.4,3.8,4.7,3.7c1.3-0.1,1.8-1,1.8-3.1
			c0-2,6.2-0.9,6.2-0.9s5.6,9.9,6.1,5c0.4-5,3.4-8.8,3.6-8.8c0.2,0,3.9,8.4,5.7,4.5c1.8-3.8,0.9-5.4,2-5.8c1.1-0.4,2.7,2.2,4.3,1.5
			c1.6-0.7,0.9-6.6,0-6.8C271.1,314.2,266.9,317.2,264.6,315.9z"/>
	</g>
</g>
</svg>
