<?xml version="1.0" encoding="utf-8"?>
<!-- Generator: Adobe Illustrator 16.0.4, SVG Export Plug-In . SVG Version: 6.00 Build 0)  -->
<!DOCTYPE svg PUBLIC "-//W3C//DTD SVG 1.1//EN" "http://www.w3.org/Graphics/SVG/1.1/DTD/svg11.dtd">
<svg version="1.1" id="Layer_1" xmlns="http://www.w3.org/2000/svg" xmlns:xlink="http://www.w3.org/1999/xlink" x="0px" y="0px"
	 width="311.147px" height="311.148px" viewBox="0 0 311.147 311.148" enable-background="new 0 0 311.147 311.148"
	 xml:space="preserve">
<path fill="#020202" d="M164.309,155.574L309.201,10.682c2.596-2.596,2.596-6.058-0.001-8.654c-2.597-2.597-6.059-2.597-8.654-0.001
	L155.653,146.919L10.682,1.948C8.086-0.649,4.624-0.649,2.028,1.947c-2.597,2.597-2.597,6.06,0,8.656l144.971,144.971L1.947,300.625
	c-2.596,2.597-2.596,6.059,0,8.655c2.597,2.596,6.491,2.163,8.655,0l145.051-145.051L300.624,309.2c2.598,2.598,6.06,2.597,8.656,0
	c2.596-2.596,2.163-6.491-0.001-8.655L164.309,155.574z"/>
</svg>
