<?xml version="1.0" encoding="utf-8"?>
<!-- Generator: Adobe Illustrator 22.1.0, SVG Export Plug-In . SVG Version: 6.00 Build 0)  -->
<svg version="1.1"
	 id="svg2" inkscape:version="0.48.4 r9939" sodipodi:docname="instagram-logo-black-png.svg" xmlns:cc="http://creativecommons.org/ns#" xmlns:dc="http://purl.org/dc/elements/1.1/" xmlns:inkscape="http://www.inkscape.org/namespaces/inkscape" xmlns:rdf="http://www.w3.org/1999/02/22-rdf-syntax-ns#" xmlns:sodipodi="http://sodipodi.sourceforge.net/DTD/sodipodi-0.dtd" xmlns:svg="http://www.w3.org/2000/svg"
	 xmlns="http://www.w3.org/2000/svg" xmlns:xlink="http://www.w3.org/1999/xlink" x="0px" y="0px" viewBox="0 0 97.2 97.3"
	 style="enable-background:new 0 0 97.2 97.3;" xml:space="preserve">
<style type="text/css">
	.st0{fill:#FFFFFF;}
</style>
<title  id="title2997">Instagram icon</title>
<sodipodi:namedview  bordercolor="#666666" borderopacity="1" gridtolerance="10" guidetolerance="10" id="namedview16" inkscape:current-layer="svg2" inkscape:cx="75.986979" inkscape:cy="46.746849" inkscape:pageopacity="0" inkscape:pageshadow="2" inkscape:showpageshadow="false" inkscape:window-height="844" inkscape:window-maximized="1" inkscape:window-width="1600" inkscape:window-x="-4" inkscape:window-y="-4" inkscape:zoom="1" objecttolerance="10" pagecolor="#ffffff" showgrid="false">
	</sodipodi:namedview>
<g id="g6" transform="matrix(0.01880253,0,0,-0.01877464,-8.09169,88.053468)">
	<path id="path10" inkscape:connector-curvature="0" class="st0" d="M1417.8,4054.9l-3.7-635l-60-3.7c-33.8-2.5-68.8,2.5-78.8,11.3
		c-15,12.5-17.5,112.5-17.5,625c0,693.7,12.5,627.5-112.5,588.7l-68.7-22.5l-6.3-598.7l-6.3-600l-66.2-3.7c-38.7-2.5-75,2.5-85,11.3
		c-15,12.5-17.5,102.5-17.5,543.7c0,487.5-1.2,530-21.2,530c-11.2,0-75-55-142.5-122.5c-107.5-108.8-128.7-138.8-183.7-253.7
		c-105-215-106.3-220-111.2-713.7l-6.3-435H1269c461.2,0,838.7,5,838.7,10c0,16.3,148.7,133.8,238.7,187.5
		c108.8,66.2,235,118.7,368.7,153.7c163.8,42.5,425,41.3,593.7-3.7c200-53.7,396.2-155,545-281.2l77.5-66.2h832.5h833.7l-5,441.2
		c-5,411.2-7.5,446.2-33.8,533.7c-52.5,177.5-116.2,280-268.7,432.5c-152.5,151.2-253.8,215-432.5,270l-93.7,28.8l-1496.2,3.7
		l-1497.4,3.7l-2.5-635l-3.7-635l-60-3.7c-33.7-2.5-68.7,2.5-78.7,11.3c-15,12.5-17.5,113.7-17.5,637.5v623.7H1514h-93.7
		L1417.8,4054.9z M5007.6,4207.4c21.3-11.3,48.8-41.2,62.5-68.8c22.5-45,25-73.7,25-346.2c0-430,13.8-416.2-411.2-416.2
		c-322.5,0-361.2,8.7-402.4,90c-23.8,46.2-25,68.7-21.3,361.2l3.7,313.7l46.3,42.5l47.5,42.5h306.2
		C4915.1,4226.1,4977.6,4222.4,5007.6,4207.4z"/>
	<path id="path12" inkscape:connector-curvature="0" class="st0" d="M2864,3092.4c-440-61.2-797.5-413.7-868.7-857.5
		c-21.3-128.7-10-337.5,25-458.7c48.8-171.2,115-278.7,262.5-424.9c146.2-147.5,241.2-208.8,390-256.3
		c585-185,1184.9,140,1336.2,725c33.8,130,36.3,375,6.3,493.7c-55,213.7-122.5,330-288.7,493.7c-161.3,161.2-300,233.7-516.2,276.2
		C3123.9,3099.9,2951.4,3104.9,2864,3092.4z M3139,2782.4c97.5-20,292.5-112.5,349.9-166.2c101.3-93.8,183.7-228.8,226.3-372.5
		c31.2-102.5,27.5-272.5-6.3-380c-94.9-301.3-382.5-516.2-688.7-516.2c-112.5,0-198.8,22.5-325,82.5
		c-243.7,114.9-403.7,371.2-403.7,646.2c-1.2,336.2,242.5,632.5,580,705C2976.4,2804.9,3032.7,2804.9,3139,2782.4z"/>
	<path id="path14" inkscape:connector-curvature="0" class="st0" d="M435.3,1592.5l3.7-1260l28.7-93.7c55-178.8,118.8-280,270-432.5
		c155-153.8,258.7-217.5,440-269.9l98.7-28.8h1731.2h1731.2l98.7,28.8c198.8,57.5,337.5,143.7,486.3,302.5
		c103.7,110,188.7,257.5,236.2,412.5l28.8,93.7l3.7,1253.7l3.7,1252.4h-770c-670,0-768.7-2.5-768.7-18.7c0-10,20-50,45-87.5
		c236.2-371.2,260-847.5,62.5-1242.5c-202.5-402.5-575-661.2-1028.7-713.7c-365-42.5-787.5,115-1050,392.5
		c-105,110-163.7,197.5-241.2,361.2c-91.2,188.8-117.5,311.2-117.5,533.7c0,146.3,5,202.5,27.5,292.5
		c32.5,131.3,92.5,273.7,156.2,373.7c25,40,46.2,80,46.2,90c0,16.2-97.5,18.7-762.5,18.7H431.6L435.3,1592.5z"/>
</g>
</svg>
