<?xml version="1.0" encoding="utf-8"?>
<!-- Generator: Adobe Illustrator 16.0.4, SVG Export Plug-In . SVG Version: 6.00 Build 0)  -->
<!DOCTYPE svg PUBLIC "-//W3C//DTD SVG 1.1//EN" "http://www.w3.org/Graphics/SVG/1.1/DTD/svg11.dtd">
<svg version="1.1" id="Layer_1" xmlns="http://www.w3.org/2000/svg" xmlns:xlink="http://www.w3.org/1999/xlink" x="0px" y="0px"
	 width="374.186px" height="398px" viewBox="0 0 374.186 398" enable-background="new 0 0 374.186 398" xml:space="preserve">
<path fill="#FFFFFF" d="M373.286,0c-0.358,0.17-0.721,0.364-1.083,0.579c-10.393,5.583-58.855,31.894-69.476,42.687l-0.381-20.35
	l-1.719,2.07c-13.335,16.059-36.158,41.323-42.036,42.469c-1.477-4.384-9.368-28.713-5.559-36.865l0.041-0.088l-1.805-0.862
	l-0.045,0.096c-1.402,2.935-34.718,71.669-76.785,71.674c-0.002,0-0.003,0-0.005,0c-0.964,0-1.938-0.037-2.902-0.11
	c-3.008-5.705-31.423-60.15-28.465-75.085l-1.935-0.495c-0.045,0.142-4.549,14.343-12.023,30.563
	c-9.85,21.375-20.359,36.538-30.393,43.851C75.661,116.943,67.29,152.3,74.472,173.969c-5.981-6.978-16.25-17.689-24.64-19.963
	l-1.008-0.273l-0.229,1.019c-0.052,0.231-5.19,23.403-4.169,50.151c1.328,34.8,12.449,60.197,32.19,73.589
	c-2.382,1.53-7.535,5.214-13.364,11.608c-9.338,9.804-17.037,22.923-19.838,34.364c-1.075,3.176-2.057,6.533-2.911,10.092
	c-3.616,15.045-9.768,25.162-16.13,32.156c-3.817,3.737-7.76,7.002-11.299,9.681c-2.564,1.712-4.892,3.021-6.777,4.079
	c-3.079,1.729-5.054,2.847-5.67,4.238L0,385.058l0.373,0.558l-0.021,0.105l0.301,0.313c0.884,1.314,7.058,10.304,11.137,11.569
	l0.38,0.396l0.45-0.262c2.469-0.155,9.293-5.856,16.794-15.007c4.924-5.692,10.256-13.148,14.98-22.615
	c4.487-8.584,8.16-18.068,9.911-27.831c0.01-0.059,0.023-0.112,0.034-0.171c0.333-1.447,0.645-2.926,0.939-4.428
	c3.369-14.116,9.693-23.678,15.578-29.891c3.342-3.134,7.438-6.306,12.52-9.531c1.824,3.576,8.764,15.717,24.352,27.999
	c16.713,13.169,46.939,28.867,96.02,28.867c8.369,0,17.146-0.456,26.086-1.355l3.667-0.369l-3.351-1.535
	c-0.062-0.029-6.389-2.957-12.664-8.307c-5.44-4.638-11.913-12.063-12.688-21.562c5.458,1.844,25.828,8.199,47.201,8.199
	c11.72,0,21.974-1.891,30.478-5.619l1.542-0.676l-1.331-1.031c-0.13-0.101-12.547-9.81-12.965-18.217
	c7.208-0.545,51.139-4.507,61.081-20.664l0.617-1.003l-17.977-7.367c7.839-4.206,36.805-20.952,46.763-43.61l0.72-1.637
	l-1.771,0.244c-0.027,0.004-2.807,0.379-7.492,0.379c-12.524,0-37.069-2.586-61.994-19.728c7.156-5.079,44.138-32.913,53.861-71.892
	l0.442-1.776l-1.734,0.586c-0.059,0.02-5.954,1.987-12.811,1.987c-4.449,0-8.293-0.81-11.451-2.41
	c6.1-4.925,32.95-27.816,35.545-51.106l0.199-1.794l-23.02,11.066c4.287-12.548,25.871-73.704,42.484-83.614l1-0.536L373.286,0z
	 M269.66,152.709c-4.311,0.194-8.424,0.266-12.136,0.266c-8.602,0-15.03-0.381-16.757-0.495
	c-6.506,6.494-13.059,12.821-19.588,18.869c-35.027,32.445-78.403,63.225-105.141,81.209c17.558,1.625,115.057,9.622,165.271-7.8
	l0.656,1.889c-25.215,8.748-62.19,11.145-95.114,11.145c-37.591,0-69.882-3.119-73.435-3.476
	c-13.385,8.951-21.999,14.306-22.25,14.462l-1.053-1.701c0.135-0.083,2.683-1.667,7.07-4.492l21.139-114.26l1.967,0.364
	L99.495,261.092c21.814-14.138,77.373-51.424,120.325-91.21c3.012-2.79,6.027-5.639,9.042-8.535l16.111-94.092l1.971,0.338
	l-15.649,91.4c45.606-44.218,90.319-98.861,109.298-129.271l1.697,1.059c-17.655,28.289-57.487,77.461-99.635,119.807
	c10.196,0.546,53.084,2.05,73.26-9.755l1.01,1.727C307.073,148.323,291.17,151.738,269.66,152.709z"/>
</svg>
