<?xml version="1.0" encoding="utf-8"?>
<!-- Generator: Adobe Illustrator 24.2.1, SVG Export Plug-In . SVG Version: 6.00 Build 0)  -->
<svg version="1.1" id="Layer_1" xmlns="http://www.w3.org/2000/svg" xmlns:xlink="http://www.w3.org/1999/xlink" x="0px" y="0px"
	 viewBox="0 0 50.3 31.9" style="enable-background:new 0 0 50.3 31.9;" xml:space="preserve">
<style type="text/css">
	.st0{fill:#010101;}
</style>
<g>
	<path class="st0" d="M13.9,2.1c-0.5,1.5,0.4,3.2,1.9,3.7c1.6,0.5,3.3-0.4,3.7-1.9c0.5-1.6-0.4-3.3-2-3.7C16-0.4,14.4,0.6,13.9,2.1z
		"/>
	<path class="st0" d="M43.7,18.6c-1,0-1.9,0.2-2.8,0.6l-1.2-2.1c0,0,0-0.1,0-0.1c0.7,0,1.3-0.5,1.5-1.2c0.3-0.9-0.2-1.8-1.1-2.1
		l-3-1.2l-4.2-7.1c-0.1-0.2-0.4-0.3-0.6-0.3H29c-0.4,0-0.7,0.3-0.7,0.7s0.3,0.7,0.7,0.7h2.8l3.1,5.2l-4-1.5c-1.3-0.6-2.4,0-3,0.4
		c-0.3,0.2-6,3.5-6,3.5c-0.1,0.1-0.3,0.2-0.6,0.2c-0.1,0-0.2-0.1-0.3-0.1l-2.8-2.2c-0.2-0.1-0.2-0.4-0.1-0.6
		c0.1-0.2,0.4-0.2,0.6-0.1l2.6,2.1l6.4-5.8l0,0c0,0,0.1-0.1,0.1-0.2c0.1-0.1,0.1-0.2,0.1-0.2C28,7,28,6.9,28,6.8c0-0.1,0-0.2,0-0.3
		c0-0.1,0-0.2,0-0.3S28,6.1,28,6c0-0.1-0.1-0.2-0.1-0.2c0-0.1,0-0.1-0.1-0.2c0,0,0,0-0.1-0.1c0,0,0,0,0-0.1c0,0-0.1-0.1-0.2-0.1
		c-0.1-0.1-0.2-0.1-0.2-0.1c-0.1,0-0.2-0.1-0.3-0.1c-0.1,0-0.2,0-0.3,0c-0.1,0-0.2,0-0.3,0c-0.1,0-0.2,0-0.3,0.1
		c-0.1,0-0.2,0.1-0.2,0.1c-0.1,0-0.1,0-0.2,0.1l-5.2,4.1c-0.5-1-1-2-1.4-2.3c-0.5-0.6-1.7-1.2-3.1-0.7c-1.3,0.5-1.6,1.7-1.6,1.7
		c-0.4,1,0.4,2.5,0.4,2.5l4.1,7.8c0.3,0.6,0.8,0.9,1.4,1.1c0.9,0.3,1.8-0.1,2.6-0.7l7.3-5l3.5,1.2c-1,0.7-1.6,1.8-1.6,3.1
		c0,0,0,0.1,0,0.1L19.1,21L12.8,9.4c-0.2-0.4-0.7-0.5-1.1-0.3c-0.4,0.2-0.5,0.7-0.3,1.1l1.3,2.3l-1.8,3.7c-0.9-0.3-1.8-0.5-2.8-0.5
		c-4.5,0-8.1,3.6-8.1,8.1c0,4.5,3.6,8.1,8.1,8.1c4.5,0,8.1-3.6,8.1-8.1c0-0.3,0-0.5,0-0.8l16.4-3.2c0.6,1.4,1.9,2.4,3.5,2.4
		c0.7,0,1.4-0.2,2-0.6c-0.7,1.1-1.1,2.3-1.1,3.7c0,3.7,3,6.7,6.7,6.7s6.7-3,6.7-6.7C50.3,21.6,47.3,18.6,43.7,18.6z M11.5,18.3
		c1.3,0.8,2.3,2.1,2.8,3.6l-4.9,1L11.5,18.3z M8.1,30.2c-3.6,0-6.5-2.9-6.5-6.5c0-3.6,2.9-6.5,6.5-6.5c0.7,0,1.5,0.1,2.1,0.4
		l-2.7,5.8c-0.1,0.2-0.1,0.5,0.1,0.7c0.1,0.2,0.3,0.3,0.6,0.3c0,0,0.1,0,0.1,0l6.3-1.2c0,0.2,0,0.3,0,0.5
		C14.5,27.3,11.6,30.2,8.1,30.2z M15.8,21.6c-0.6-2-1.9-3.7-3.7-4.8l1.3-2.8l3.9,7.3L15.8,21.6z M36.1,20.6c-1.2,0-2.2-1-2.2-2.2
		s1-2.2,2.2-2.2s2.2,1,2.2,2.2S37.3,20.6,36.1,20.6z M43.7,30.3c-2.8,0-5-2.3-5-5c0-1.6,0.8-3,1.9-3.9l2.5,4.3
		c0.1,0.2,0.4,0.3,0.6,0.3c0.1,0,0.2,0,0.4-0.1c0.3-0.2,0.4-0.6,0.2-1l-2.6-4.3c0.6-0.2,1.2-0.4,1.9-0.4c2.8,0,5,2.3,5,5
		C48.7,28,46.4,30.3,43.7,30.3z"/>
</g>
</svg>
