<?xml version="1.0" encoding="utf-8"?>
<!-- Generator: Adobe Illustrator 16.0.4, SVG Export Plug-In . SVG Version: 6.00 Build 0)  -->
<!DOCTYPE svg PUBLIC "-//W3C//DTD SVG 1.1//EN" "http://www.w3.org/Graphics/SVG/1.1/DTD/svg11.dtd">
<svg version="1.1" id="Layer_1" xmlns="http://www.w3.org/2000/svg" xmlns:xlink="http://www.w3.org/1999/xlink" x="0px" y="0px"
	 width="266.2px" height="32.96px" viewBox="0 0 266.2 32.96" enable-background="new 0 0 266.2 32.96" xml:space="preserve">
<g>
	<path fill="#6D6E71" d="M28.252,24.951c-1.144,1.805-2.244,3.564-4.708,5.28c-1.32,0.925-4.357,2.729-8.669,2.729
		C6.645,32.96,0,26.976,0,16.458C0,7.261,6.249,0,15.05,0c3.564,0,6.733,1.231,9.065,3.08c2.156,1.716,3.168,3.433,4.049,4.973
		l-6.161,3.08c-0.44-1.012-0.968-2.068-2.332-3.212c-1.496-1.188-2.993-1.54-4.269-1.54c-5.017,0-7.657,4.664-7.657,9.857
		c0,6.82,3.477,10.209,7.657,10.209c4.048,0,5.677-2.816,6.733-4.621L28.252,24.951z"/>
	<path fill="#6D6E71" d="M58.523,0.968v31.068h-7.789V18.79H39.381v13.246h-7.833V0.968h7.833v11.222h11.354V0.968H58.523z"/>
	<path fill="#6D6E71" d="M66.351,0.968h13.994c3.256,0.044,7.305,0.088,10.166,3.168c1.452,1.629,2.464,4.093,2.464,6.909
		c0,6.249-4.269,7.789-6.381,8.581l7.173,12.41h-8.581l-6.161-11.09h-4.884v11.09h-7.79V0.968z M74.141,6.776v8.405h6.425
		c1.1-0.044,4.665-0.132,4.665-4.269c0-3.961-2.86-4.093-4.489-4.137H74.141z"/>
	<path fill="#6D6E71" d="M107.096,0.968v31.068h-7.745V0.968H107.096z"/>
	<path fill="#6D6E71" d="M118.314,22.707c0.792,0.88,1.452,1.584,2.992,2.42c2.068,1.101,4.181,1.496,5.985,1.496
		c3.08,0,5.721-1.452,5.721-3.608c0-2.464-3.125-2.86-5.413-3.168c-1.716-0.221-3.433-0.44-5.104-0.792
		c-1.893-0.396-8.361-1.761-8.361-8.449c0-8.01,7.129-10.386,12.498-10.386c7.173,0,11.045,3.477,13.729,5.896l-5.721,4.093
		c-0.968-0.968-1.848-1.805-3.08-2.509c-1.101-0.615-3.081-1.364-5.061-1.364c-3.081,0-4.621,1.761-4.621,3.257
		c0,2.376,2.641,2.729,3.961,2.904c3.3,0.396,7.745,1.232,9.505,1.849c3.564,1.32,5.369,4.093,5.369,7.613
		c0,2.244-0.836,4.708-2.465,6.601c-2.816,3.257-7.305,4.181-11.661,4.181c-8.758,0-12.234-4.049-14.17-6.293L118.314,22.707z"/>
	<path d="M147.089,0.968h12.498c5.104,0,9.638,0,12.366,3.916c1.188,1.761,1.76,4.269,1.76,6.382c0,1.716-0.352,3.388-1.057,4.84
		c-2.684,5.545-8.404,5.677-12.629,5.766h-5.149v10.165h-7.789V0.968z M154.878,6.688v9.417h4.665c2.904,0,6.425-0.088,6.425-4.885
		c0-4.532-3.917-4.532-6.161-4.532H154.878z"/>
	<path d="M177.404,0.968h22.972v6.028h-15.227v5.633h14.214v5.897h-14.214v7.393h16.591v6.117h-24.336V0.968z"/>
	<path d="M222.419,0.968l11.441,31.068h-8.273l-1.54-4.973h-11.441l-1.54,4.973h-8.273l11.529-31.068H222.419z M218.238,8.36
		c-0.396,1.585-0.836,3.213-1.276,4.797c-0.66,2.333-1.849,5.985-2.553,8.317h7.878L218.238,8.36z"/>
	<path d="M236.979,0.968h7.394v12.674L255.99,0.968h9.33l-11.002,11.529L266.2,32.036h-8.758l-8.317-14.082l-4.752,4.973v9.109
		h-7.394V0.968z"/>
</g>
</svg>
