<?xml version="1.0" encoding="utf-8"?>
<!-- Generator: Adobe Illustrator 16.0.0, SVG Export Plug-In . SVG Version: 6.00 Build 0)  -->
<!DOCTYPE svg PUBLIC "-//W3C//DTD SVG 1.1//EN" "http://www.w3.org/Graphics/SVG/1.1/DTD/svg11.dtd">
<svg version="1.1" xmlns="http://www.w3.org/2000/svg" xmlns:xlink="http://www.w3.org/1999/xlink" x="0px" y="0px"
	 width="85.914px" height="85.914px" viewBox="0 0 85.914 85.914" enable-background="new 0 0 85.914 85.914" xml:space="preserve">
<g id="Layer_2" display="none">
	
		<image display="inline" overflow="visible" width="482" height="376" xlink:href="Screen Shot 2014-04-11 at 9.58.28 PM.png"  transform="matrix(0.243 0 0 0.243 -27.6792 -21.7075)">
	</image>
</g>
<g id="Layer_1">
	<g>
		<path d="M64.602,33.725c-0.432-0.41-0.992-0.696-1.684-0.856c-0.691-0.161-1.52-0.241-2.482-0.241
			c-0.381,0-0.727,0.011-1.037,0.03c-0.311,0.021-0.545,0.04-0.707,0.061v10.224c0.402,0.08,0.822,0.141,1.266,0.181
			c0.438,0.04,0.83,0.061,1.17,0.061c1.484,0,2.643-0.437,3.475-1.308c0.83-0.873,1.248-2.191,1.248-3.955
			c0-1.023-0.102-1.874-0.301-2.556C65.348,34.682,65.031,34.137,64.602,33.725z"/>
		<path d="M42.957,0L0,42.957l42.957,42.957l42.957-42.957L42.957,0z M34.467,53.707h-0.451c-0.141-0.16-0.3-0.305-0.48-0.436
			c-0.18-0.13-0.461-0.195-0.842-0.195c-0.301,0-0.627,0.055-0.979,0.164c-0.35,0.111-0.751,0.236-1.201,0.377
			c-0.452,0.141-0.958,0.266-1.52,0.375c-0.562,0.111-1.184,0.166-1.864,0.166c-1.263,0-2.491-0.23-3.685-0.691
			c-1.192-0.461-2.32-1.213-3.383-2.256c-0.982-0.981-1.804-2.145-2.466-3.488c-0.661-1.342-0.991-2.896-0.991-4.66
			c0-1.504,0.27-2.938,0.811-4.301s1.293-2.565,2.256-3.608c0.963-1.042,2.095-1.869,3.398-2.481
			c1.303-0.611,2.727-0.916,4.27-0.916c0.621,0,1.173,0.059,1.654,0.18c0.48,0.12,0.912,0.256,1.293,0.406s0.731,0.285,1.053,0.406
			c0.32,0.12,0.631,0.18,0.932,0.18c0.401,0,0.688-0.064,0.857-0.195c0.17-0.13,0.326-0.275,0.466-0.436h0.452v6.014h-0.331
			c-0.181-0.762-0.411-1.513-0.692-2.255c-0.28-0.741-0.672-1.399-1.172-1.97c-0.502-0.572-1.139-1.033-1.91-1.383
			c-0.771-0.352-1.729-0.526-2.871-0.526c-1.064,0-1.976,0.165-2.736,0.495c-0.764,0.331-1.404,0.772-1.926,1.324
			c-0.521,0.551-0.938,1.192-1.248,1.924c-0.311,0.732-0.546,1.504-0.707,2.315c-0.16,0.812-0.266,1.635-0.314,2.466
			c-0.051,0.832-0.076,1.619-0.076,2.361c0,2.104,0.17,3.849,0.512,5.232c0.34,1.383,0.816,2.477,1.428,3.277
			c0.611,0.803,1.349,1.363,2.211,1.684c0.861,0.321,1.814,0.481,2.857,0.481c1.342,0,2.425-0.19,3.247-0.571
			c0.821-0.381,1.483-0.877,1.984-1.488s0.882-1.303,1.144-2.075c0.26-0.771,0.49-1.538,0.691-2.3h0.33V53.707z M43.182,66.332
			h-0.45v-46.75h0.45V66.332z M66.781,42.1c-0.762,0.481-1.648,0.852-2.66,1.113c-1.014,0.26-2.072,0.391-3.174,0.391
			c-0.281,0-0.641-0.025-1.082-0.075s-0.832-0.104-1.174-0.165v9.923h3.34v0.421h-9.686v-0.421h3.338V32.718h-3.338v-0.421h5.656
			c0.279,0,0.559-0.005,0.842-0.016c0.279-0.01,0.561-0.024,0.84-0.045c0.281,0,0.557-0.005,0.828-0.016
			c0.27-0.01,0.547-0.015,0.828-0.015c1.141,0,2.197,0.136,3.17,0.406s1.814,0.657,2.527,1.157c0.713,0.502,1.268,1.104,1.668,1.805
			c0.402,0.702,0.604,1.484,0.604,2.346c0,0.902-0.232,1.705-0.693,2.406S67.543,41.619,66.781,42.1z"/>
	</g>
</g>
</svg>
