<?xml version="1.0" encoding="utf-8"?>
<!-- Generator: Adobe Illustrator 16.0.0, SVG Export Plug-In . SVG Version: 6.00 Build 0)  -->
<!DOCTYPE svg PUBLIC "-//W3C//DTD SVG 1.1//EN" "http://www.w3.org/Graphics/SVG/1.1/DTD/svg11.dtd">
<svg version="1.1" xmlns="http://www.w3.org/2000/svg" xmlns:xlink="http://www.w3.org/1999/xlink" x="0px" y="0px"
	 width="84.049px" height="79.861px" viewBox="0 0 84.049 79.861" enable-background="new 0 0 84.049 79.861" xml:space="preserve">
<g id="Layer_2" display="none">
	
		<image display="inline" overflow="visible" width="482" height="376" xlink:href="Screen Shot 2014-04-11 at 9.58.28 PM.png"  transform="matrix(0.243 0 0 0.243 -28.4409 -9.7871)">
	</image>
</g>
<g id="Layer_1">
	<g>
		<g>
			<g>
				<path d="M55.422,20.609c-0.264-0.251-0.605-0.426-1.029-0.523c-0.422-0.099-0.928-0.147-1.516-0.147
					c-0.234,0-0.445,0.007-0.635,0.019c-0.189,0.013-0.332,0.024-0.432,0.037v6.247c0.246,0.05,0.502,0.086,0.773,0.111
					c0.268,0.024,0.508,0.036,0.715,0.036c0.906,0,1.615-0.267,2.123-0.799c0.508-0.533,0.762-1.339,0.762-2.417
					c0-0.625-0.061-1.145-0.184-1.562S55.684,20.861,55.422,20.609z"/>
			</g>
			<g>
				<path d="M42.195,0l-26.25,26.25l26.25,26.251l26.25-26.251L42.195,0z M37.007,32.82h-0.275
					c-0.086-0.098-0.184-0.186-0.294-0.266c-0.109-0.08-0.281-0.12-0.514-0.12c-0.185,0-0.384,0.034-0.599,0.101
					c-0.213,0.068-0.459,0.145-0.733,0.23c-0.276,0.086-0.586,0.162-0.929,0.229c-0.344,0.067-0.724,0.101-1.14,0.101
					c-0.771,0-1.522-0.141-2.251-0.422c-0.729-0.282-1.418-0.741-2.067-1.379c-0.601-0.6-1.103-1.311-1.507-2.132
					c-0.404-0.819-0.606-1.77-0.606-2.848c0-0.919,0.165-1.795,0.496-2.628c0.33-0.833,0.79-1.567,1.378-2.205
					c0.589-0.637,1.28-1.143,2.077-1.517c0.796-0.373,1.666-0.56,2.609-0.56c0.379,0,0.717,0.036,1.011,0.109
					c0.293,0.074,0.558,0.157,0.79,0.249s0.447,0.174,0.644,0.248c0.195,0.073,0.385,0.109,0.569,0.109
					c0.245,0,0.42-0.039,0.523-0.119c0.104-0.079,0.199-0.168,0.285-0.266h0.276v3.675h-0.203c-0.11-0.466-0.251-0.925-0.423-1.378
					c-0.171-0.453-0.41-0.855-0.716-1.204c-0.307-0.35-0.696-0.631-1.167-0.845c-0.472-0.215-1.057-0.322-1.755-0.322
					c-0.65,0-1.207,0.102-1.672,0.303c-0.467,0.202-0.858,0.473-1.177,0.81c-0.319,0.337-0.573,0.729-0.763,1.176
					c-0.19,0.447-0.334,0.919-0.433,1.415c-0.098,0.495-0.162,0.999-0.192,1.507s-0.046,0.989-0.046,1.442
					c0,1.286,0.104,2.353,0.312,3.197c0.208,0.846,0.499,1.514,0.872,2.003c0.374,0.491,0.824,0.833,1.352,1.029
					c0.526,0.196,1.108,0.294,1.746,0.294c0.82,0,1.481-0.116,1.984-0.349c0.502-0.233,0.906-0.536,1.213-0.91
					c0.306-0.373,0.538-0.796,0.698-1.268c0.159-0.472,0.3-0.94,0.423-1.405h0.201V32.82z M42.333,40.535h-0.275V11.966h0.275
					V40.535z M56.754,25.727c-0.465,0.294-1.008,0.521-1.625,0.68c-0.619,0.159-1.268,0.239-1.939,0.239
					c-0.172,0-0.393-0.016-0.662-0.046s-0.508-0.064-0.717-0.102v6.064h2.041v0.257h-5.92v-0.257h2.041V19.994h-2.041v-0.257h3.457
					c0.172,0,0.342-0.003,0.514-0.01c0.172-0.006,0.344-0.015,0.514-0.027c0.172,0,0.34-0.003,0.506-0.01
					c0.166-0.006,0.334-0.009,0.506-0.009c0.697,0,1.344,0.083,1.938,0.248c0.596,0.165,1.109,0.401,1.545,0.707
					c0.436,0.307,0.775,0.675,1.02,1.103c0.246,0.43,0.369,0.907,0.369,1.434c0,0.552-0.143,1.042-0.424,1.471
					S57.219,25.433,56.754,25.727z"/>
			</g>
		</g>
		<g>
			<path d="M10.78,62.449c-0.088-0.265-0.194-0.542-0.318-0.834c-0.125-0.292-0.284-0.561-0.48-0.805
				c-0.196-0.243-0.44-0.443-0.732-0.6c-0.292-0.156-0.654-0.234-1.086-0.234c-0.584,0-1.044,0.108-1.38,0.324
				s-0.59,0.517-0.762,0.9c-0.172,0.384-0.282,0.842-0.33,1.374c-0.048,0.532-0.072,1.114-0.072,1.746
				c0,0.832,0.048,1.52,0.144,2.063c0.096,0.544,0.246,0.977,0.45,1.296c0.204,0.32,0.468,0.544,0.792,0.672
				c0.324,0.129,0.71,0.192,1.158,0.192c0.36,0,0.686-0.072,0.978-0.216c0.292-0.145,0.55-0.334,0.774-0.57
				c0.224-0.235,0.412-0.506,0.564-0.81c0.152-0.305,0.264-0.62,0.336-0.948h0.192v2.544h-0.192
				c-0.041-0.096-0.088-0.162-0.144-0.198c-0.056-0.036-0.14-0.054-0.252-0.054c-0.096,0-0.22,0.022-0.372,0.066
				c-0.152,0.044-0.326,0.092-0.522,0.144c-0.196,0.052-0.41,0.1-0.642,0.144s-0.476,0.066-0.732,0.066
				c-0.584,0-1.148-0.114-1.692-0.342c-0.544-0.229-1.022-0.54-1.434-0.937c-0.412-0.396-0.742-0.861-0.99-1.397
				s-0.372-1.116-0.372-1.74c0-0.68,0.138-1.296,0.414-1.848c0.276-0.553,0.63-1.024,1.062-1.416
				c0.432-0.393,0.914-0.694,1.446-0.906c0.532-0.212,1.054-0.318,1.566-0.318c0.256,0,0.494,0.024,0.714,0.072
				s0.424,0.098,0.612,0.15c0.188,0.052,0.358,0.102,0.51,0.149s0.28,0.072,0.384,0.072c0.112,0,0.196-0.014,0.252-0.042
				c0.056-0.028,0.096-0.098,0.12-0.21h0.192v2.448H10.78z"/>
			<path d="M16.084,60v0.168H14.98v3.936h3.468v-3.936h-1.104V60h3.948v0.168h-1.104v8.208h1.104v0.168h-3.948v-0.168h1.104v-4.104
				H14.98v4.104h1.104v0.168h-3.948v-0.168h1.104v-8.208h-1.104V60H16.084z"/>
			<path d="M22.132,60.168V60h1.812c0.336,0,0.668-0.006,0.996-0.018c0.328-0.013,0.66-0.019,0.996-0.019
				c0.312,0,0.642,0.032,0.99,0.096c0.348,0.064,0.666,0.175,0.954,0.33c0.288,0.156,0.526,0.366,0.714,0.63
				c0.188,0.265,0.282,0.597,0.282,0.996c0,0.32-0.072,0.595-0.216,0.822c-0.144,0.229-0.33,0.414-0.558,0.558
				c-0.228,0.145-0.482,0.255-0.762,0.33c-0.28,0.076-0.556,0.126-0.828,0.15v0.06c0.392,0.072,0.742,0.145,1.05,0.217
				c0.308,0.071,0.574,0.18,0.798,0.323c0.224,0.145,0.402,0.345,0.534,0.601c0.132,0.256,0.214,0.6,0.246,1.032
				c0.04,0.504,0.072,0.907,0.096,1.212c0.024,0.304,0.058,0.54,0.102,0.708s0.104,0.279,0.18,0.336
				c0.076,0.056,0.186,0.084,0.33,0.084c0.16,0,0.292-0.046,0.396-0.139c0.104-0.092,0.196-0.178,0.276-0.258l0.12,0.108
				c-0.08,0.08-0.158,0.154-0.234,0.222c-0.076,0.068-0.164,0.126-0.264,0.174c-0.1,0.048-0.222,0.086-0.366,0.114
				s-0.324,0.042-0.54,0.042c-0.44,0-0.784-0.07-1.032-0.21c-0.248-0.14-0.432-0.313-0.552-0.522
				c-0.12-0.207-0.194-0.434-0.222-0.678c-0.028-0.244-0.046-0.474-0.054-0.689c-0.016-0.328-0.038-0.646-0.066-0.954
				c-0.028-0.309-0.094-0.582-0.198-0.822s-0.26-0.432-0.468-0.576c-0.208-0.144-0.5-0.216-0.876-0.216h-0.792v4.332h1.104v0.168
				h-3.948v-0.168h1.104v-8.208H22.132z M25.468,63.876c0.36,0,0.644-0.048,0.852-0.144c0.208-0.097,0.364-0.227,0.468-0.391
				c0.104-0.164,0.17-0.35,0.198-0.558s0.042-0.42,0.042-0.637c0-0.352-0.024-0.653-0.072-0.905c-0.048-0.252-0.128-0.46-0.24-0.624
				s-0.266-0.286-0.462-0.366c-0.196-0.08-0.446-0.12-0.75-0.12c-0.088,0-0.176,0.004-0.264,0.012
				c-0.088,0.009-0.176,0.017-0.264,0.024v3.708H25.468z"/>
			<path d="M34.792,60v0.168h-1.104v8.208h1.104v0.168h-3.948v-0.168h1.104v-8.208h-1.104V60H34.792z"/>
			<path d="M36.196,65.88c0.016,0.096,0.044,0.222,0.084,0.378s0.098,0.324,0.174,0.504c0.076,0.181,0.172,0.364,0.288,0.552
				c0.116,0.188,0.258,0.362,0.426,0.522c0.184,0.185,0.362,0.324,0.534,0.42s0.336,0.166,0.492,0.21
				c0.156,0.044,0.304,0.068,0.444,0.072s0.27,0.006,0.39,0.006c0.424,0,0.772-0.066,1.044-0.198s0.486-0.294,0.642-0.485
				c0.156-0.192,0.266-0.395,0.33-0.606c0.064-0.212,0.096-0.397,0.096-0.558c0-0.296-0.07-0.54-0.21-0.732
				s-0.326-0.352-0.558-0.479s-0.496-0.236-0.792-0.324s-0.6-0.178-0.912-0.271c-0.312-0.092-0.616-0.199-0.912-0.323
				c-0.296-0.124-0.56-0.284-0.792-0.48c-0.232-0.196-0.418-0.438-0.558-0.726c-0.14-0.288-0.21-0.648-0.21-1.08
				c0-0.32,0.072-0.628,0.216-0.925c0.144-0.295,0.344-0.558,0.6-0.785c0.256-0.229,0.562-0.412,0.918-0.553
				c0.356-0.14,0.742-0.21,1.158-0.21c0.264,0,0.496,0.024,0.696,0.072c0.2,0.048,0.376,0.098,0.528,0.15
				c0.152,0.052,0.286,0.102,0.402,0.149c0.116,0.048,0.222,0.072,0.318,0.072c0.112,0,0.186-0.018,0.222-0.054
				c0.036-0.036,0.074-0.103,0.114-0.198h0.192v2.28h-0.156c-0.096-0.28-0.198-0.557-0.306-0.828
				c-0.108-0.272-0.246-0.519-0.414-0.738s-0.38-0.397-0.636-0.534c-0.256-0.136-0.58-0.204-0.972-0.204
				c-0.32,0-0.602,0.044-0.846,0.133c-0.244,0.088-0.45,0.203-0.618,0.348c-0.168,0.144-0.296,0.304-0.384,0.479
				c-0.088,0.177-0.132,0.356-0.132,0.54c0,0.28,0.074,0.513,0.222,0.696c0.148,0.185,0.342,0.342,0.582,0.474
				c0.24,0.133,0.514,0.246,0.822,0.343c0.308,0.096,0.624,0.195,0.948,0.3c0.324,0.104,0.64,0.218,0.948,0.342
				s0.582,0.282,0.822,0.474c0.24,0.192,0.434,0.425,0.582,0.696c0.148,0.272,0.222,0.608,0.222,1.008
				c0,0.393-0.08,0.765-0.24,1.116c-0.16,0.353-0.386,0.66-0.678,0.924c-0.292,0.265-0.64,0.475-1.044,0.63
				c-0.404,0.156-0.854,0.234-1.35,0.234c-0.248,0-0.494-0.024-0.738-0.072c-0.244-0.048-0.472-0.098-0.684-0.149
				s-0.4-0.103-0.564-0.15s-0.286-0.072-0.366-0.072c-0.112,0-0.192,0.019-0.24,0.055s-0.092,0.109-0.132,0.222h-0.192V65.88H36.196
				z"/>
			<path d="M50.728,68.376v0.168h-3.948v-0.168h1.104v-8.208h-1.104V60h1.104c0.407,0,0.815-0.006,1.224-0.018
				c0.408-0.013,0.816-0.019,1.225-0.019c0.359,0,0.748,0.03,1.164,0.09c0.416,0.061,0.799,0.172,1.151,0.336
				s0.646,0.393,0.882,0.685s0.354,0.67,0.354,1.134c0,0.312-0.076,0.605-0.228,0.882c-0.152,0.276-0.385,0.516-0.697,0.72
				c-0.312,0.204-0.703,0.366-1.176,0.486c-0.472,0.12-1.027,0.18-1.668,0.18h-0.492v3.9H50.728z M49.996,64.308
				c0.68,0,1.172-0.153,1.476-0.462c0.304-0.308,0.456-0.83,0.456-1.565c0-0.696-0.133-1.229-0.396-1.597
				c-0.264-0.367-0.744-0.552-1.439-0.552c-0.088,0-0.172,0.004-0.252,0.012c-0.08,0.009-0.152,0.017-0.217,0.024v4.14H49.996z"/>
			<path d="M61.768,60v2.052h-0.156c-0.04-0.136-0.107-0.31-0.204-0.521c-0.096-0.212-0.229-0.418-0.401-0.618
				s-0.395-0.374-0.666-0.522c-0.272-0.147-0.604-0.222-0.996-0.222h-1.908v3.708h0.672c0.296,0,0.546-0.042,0.75-0.126
				s0.374-0.204,0.51-0.36c0.137-0.155,0.248-0.344,0.336-0.563s0.16-0.466,0.217-0.738h0.156v3.732H59.92
				c-0.057-0.232-0.123-0.456-0.198-0.673c-0.076-0.216-0.179-0.405-0.306-0.569c-0.129-0.164-0.287-0.294-0.475-0.391
				c-0.188-0.096-0.422-0.144-0.702-0.144h-0.804v4.332h1.968c0.368,0,0.7-0.062,0.996-0.186s0.558-0.299,0.786-0.522
				s0.418-0.486,0.57-0.786c0.151-0.3,0.268-0.622,0.348-0.966h0.156v2.628h-7.668v-0.168h1.104v-8.208h-1.104V60H61.768z"/>
			<path d="M63.52,68.376l3.576-8.712h0.324l3.779,8.712h1.032v0.168h-4.032v-0.168h1.116l-1.392-3.216h-2.881l-1.332,3.216h1.068
				v0.168h-2.268v-0.168H63.52z M65.104,64.993h2.76l-1.416-3.276L65.104,64.993z"/>
			<path d="M76.371,60v0.168h-1.104v3.84h0.096l3.672-3.84h-1.212V60h2.4v0.168h-0.96l-2.676,2.808l4.151,5.4h0.744v0.168h-4.008
				v-0.168h1.08l-3.192-4.2h-0.096v4.2h1.104v0.168h-3.947v-0.168h1.104v-8.208h-1.104V60H76.371z"/>
		</g>
		<g>
			<path d="M0,79.571h1.11V72.73H0v-0.14h1.86c0.093,0,0.187-0.001,0.28-0.005c0.093-0.003,0.187-0.008,0.28-0.015
				c0.093,0,0.187-0.002,0.28-0.005c0.093-0.004,0.187-0.006,0.28-0.006c0.2,0,0.378,0.004,0.535,0.011s0.303,0.019,0.44,0.034
				c0.137,0.018,0.267,0.04,0.39,0.07c0.123,0.03,0.255,0.068,0.395,0.115c0.407,0.134,0.758,0.312,1.055,0.535
				c0.296,0.224,0.54,0.481,0.73,0.774c0.19,0.294,0.33,0.614,0.42,0.96c0.09,0.347,0.135,0.71,0.135,1.091
				c0,0.439-0.053,0.835-0.16,1.185c-0.107,0.35-0.253,0.66-0.44,0.93c-0.187,0.271-0.405,0.504-0.655,0.7
				c-0.25,0.197-0.519,0.355-0.805,0.476c-0.16,0.073-0.312,0.13-0.455,0.17c-0.144,0.04-0.29,0.069-0.44,0.09
				c-0.15,0.02-0.315,0.033-0.495,0.04c-0.18,0.006-0.387,0.01-0.62,0.01c-0.1,0-0.207-0.002-0.32-0.005
				c-0.114-0.004-0.227-0.009-0.34-0.016c-0.113-0.006-0.225-0.012-0.335-0.015S1.8,79.71,1.7,79.71H0V79.571z M2.11,79.571
				c0.113,0.013,0.245,0.023,0.395,0.029C2.655,79.607,2.82,79.611,3,79.611c0.227,0,0.452-0.012,0.675-0.035
				c0.223-0.023,0.437-0.073,0.64-0.15c0.203-0.076,0.393-0.187,0.57-0.33c0.176-0.143,0.335-0.331,0.475-0.564
				c0.213-0.36,0.361-0.729,0.445-1.105c0.083-0.376,0.125-0.788,0.125-1.234c0-0.527-0.05-1.006-0.15-1.436s-0.265-0.797-0.495-1.1
				c-0.23-0.304-0.535-0.539-0.915-0.705c-0.38-0.167-0.85-0.25-1.41-0.25c-0.167,0-0.318,0.003-0.455,0.01
				c-0.137,0.007-0.269,0.014-0.395,0.02V79.571z"/>
			<path d="M8.15,79.571h1.11V72.73H8.15v-0.14h5.72v1.73h-0.11c-0.087-0.261-0.18-0.488-0.28-0.686c-0.1-0.196-0.22-0.363-0.36-0.5
				s-0.307-0.238-0.5-0.305s-0.427-0.101-0.7-0.101h-1.66v3.091h0.65c0.22,0,0.407-0.021,0.56-0.061s0.285-0.115,0.395-0.225
				c0.11-0.11,0.203-0.26,0.28-0.45s0.152-0.435,0.225-0.735h0.11v3.11h-0.11c-0.047-0.193-0.095-0.38-0.145-0.56
				c-0.05-0.181-0.12-0.341-0.21-0.48s-0.21-0.252-0.36-0.335c-0.15-0.083-0.345-0.125-0.585-0.125h-0.81v3.61h1.89
				c0.367,0,0.672-0.079,0.915-0.235c0.244-0.156,0.442-0.344,0.595-0.56c0.153-0.217,0.267-0.442,0.34-0.676s0.12-0.426,0.14-0.58
				h0.11v2.19h-6.1V79.571z"/>
			<path d="M15.64,77.56h0.11c0.073,0.36,0.168,0.664,0.285,0.91c0.117,0.247,0.245,0.45,0.385,0.61
				c0.14,0.16,0.287,0.283,0.44,0.37c0.153,0.087,0.308,0.149,0.465,0.189s0.307,0.063,0.45,0.07c0.144,0.007,0.278,0.01,0.405,0.01
				c0.353,0,0.643-0.053,0.87-0.16c0.227-0.106,0.406-0.241,0.54-0.404c0.133-0.164,0.227-0.34,0.28-0.53s0.08-0.365,0.08-0.525
				c0-0.233-0.043-0.433-0.13-0.6c-0.087-0.167-0.197-0.309-0.33-0.425c-0.133-0.117-0.278-0.212-0.435-0.285
				s-0.305-0.13-0.445-0.17l-1.15-0.351c-0.54-0.166-0.948-0.386-1.225-0.659c-0.277-0.273-0.415-0.641-0.415-1.101
				c0-0.3,0.053-0.578,0.16-0.835c0.107-0.257,0.257-0.479,0.45-0.665s0.425-0.333,0.695-0.439s0.565-0.16,0.885-0.16
				c0.233,0,0.428,0.02,0.585,0.06c0.156,0.04,0.292,0.085,0.405,0.135c0.113,0.051,0.215,0.096,0.305,0.136s0.182,0.06,0.275,0.06
				c0.086,0,0.145-0.012,0.175-0.035c0.03-0.023,0.071-0.081,0.125-0.175h0.14v1.811H19.9c-0.04-0.24-0.108-0.472-0.205-0.695
				c-0.097-0.224-0.222-0.42-0.375-0.59c-0.154-0.17-0.338-0.307-0.555-0.41s-0.468-0.155-0.755-0.155
				c-0.16,0-0.337,0.021-0.53,0.065c-0.193,0.043-0.373,0.118-0.54,0.225c-0.167,0.106-0.305,0.247-0.415,0.42
				c-0.11,0.174-0.165,0.394-0.165,0.66c0,0.214,0.043,0.396,0.13,0.545c0.086,0.15,0.198,0.276,0.335,0.38s0.29,0.19,0.46,0.26
				c0.17,0.07,0.341,0.132,0.515,0.186l1.21,0.38c0.126,0.04,0.287,0.094,0.48,0.16s0.381,0.167,0.565,0.3
				c0.183,0.134,0.34,0.311,0.47,0.53c0.13,0.22,0.195,0.5,0.195,0.84c0,0.313-0.059,0.611-0.175,0.895
				c-0.117,0.284-0.285,0.534-0.505,0.75c-0.22,0.217-0.487,0.391-0.8,0.521c-0.313,0.13-0.667,0.195-1.06,0.195
				c-0.14,0-0.264-0.002-0.37-0.006c-0.106-0.003-0.207-0.012-0.3-0.024c-0.094-0.014-0.187-0.028-0.28-0.045
				s-0.197-0.042-0.31-0.075c-0.133-0.04-0.276-0.087-0.43-0.14c-0.153-0.054-0.287-0.08-0.4-0.08c-0.1,0-0.168,0.02-0.205,0.06
				s-0.068,0.094-0.095,0.16h-0.15V77.56z"/>
			<path d="M21.89,79.571H23V72.73h-1.11v-0.14h3.22v0.14H24v6.841h1.11v0.14h-3.22V79.571z"/>
			<path d="M33.18,77.161h-0.8v2.27h-0.12c-0.073-0.073-0.133-0.123-0.18-0.149c-0.047-0.027-0.12-0.04-0.22-0.04
				c-0.12,0-0.242,0.031-0.365,0.095c-0.124,0.063-0.267,0.135-0.43,0.215c-0.164,0.08-0.355,0.152-0.575,0.215
				c-0.22,0.063-0.486,0.096-0.8,0.096c-0.474,0-0.894-0.079-1.26-0.235c-0.367-0.156-0.72-0.405-1.06-0.745
				c-0.333-0.333-0.61-0.727-0.83-1.18c-0.22-0.453-0.33-0.964-0.33-1.53c0-0.38,0.043-0.722,0.13-1.025
				c0.086-0.303,0.192-0.567,0.315-0.795c0.124-0.227,0.25-0.416,0.38-0.569c0.13-0.153,0.238-0.273,0.325-0.36
				c0.3-0.3,0.644-0.543,1.03-0.729c0.386-0.188,0.826-0.28,1.32-0.28c0.253,0,0.461,0.02,0.625,0.06
				c0.163,0.04,0.305,0.085,0.425,0.135c0.12,0.051,0.229,0.096,0.325,0.136s0.205,0.06,0.325,0.06c0.133,0,0.228-0.019,0.285-0.055
				c0.057-0.037,0.112-0.089,0.165-0.155h0.15v2H31.9c-0.027-0.173-0.079-0.376-0.155-0.61c-0.077-0.232-0.197-0.456-0.36-0.67
				c-0.163-0.213-0.38-0.393-0.65-0.54c-0.27-0.146-0.615-0.22-1.035-0.22c-0.5,0-0.901,0.105-1.205,0.315
				c-0.304,0.21-0.54,0.486-0.71,0.83c-0.17,0.343-0.284,0.731-0.34,1.165c-0.057,0.433-0.085,0.869-0.085,1.31
				c0,0.3,0.013,0.6,0.04,0.9c0.026,0.3,0.072,0.583,0.135,0.85c0.063,0.267,0.151,0.514,0.265,0.74s0.26,0.42,0.44,0.58
				c0.2,0.18,0.407,0.305,0.62,0.375c0.213,0.069,0.49,0.104,0.83,0.104c0.207,0,0.413-0.035,0.62-0.104
				c0.207-0.07,0.392-0.175,0.555-0.315c0.164-0.14,0.297-0.318,0.4-0.535c0.103-0.216,0.155-0.472,0.155-0.765v-0.84h-1.29V77.02
				h3.05V77.161z"/>
			<path d="M33.61,79.571h1.11V72.73h-1.11v-0.14h2.14l3.38,5.45h0.02V72.73h-1.11v-0.14h2.37v0.14H39.3v7.12h-0.2l-4.21-6.71h-0.02
				v6.431h1.11v0.14h-2.37V79.571z"/>
			<path d="M48.77,78.17c0.193-0.326,0.324-0.65,0.395-0.97c0.07-0.32,0.105-0.641,0.105-0.96c0-0.32-0.016-0.575-0.045-0.766
				c-0.03-0.189-0.082-0.335-0.155-0.435s-0.172-0.165-0.295-0.195C48.65,74.816,48.496,74.8,48.31,74.8v-0.14h1.899v0.14
				c-0.173,0-0.312,0.023-0.42,0.07c-0.106,0.047-0.188,0.12-0.244,0.22c-0.057,0.101-0.094,0.229-0.11,0.385
				c-0.017,0.157-0.025,0.346-0.025,0.565c0,0.273-0.013,0.517-0.04,0.729c-0.026,0.214-0.062,0.409-0.109,0.585
				c-0.047,0.177-0.107,0.344-0.18,0.5c-0.074,0.157-0.154,0.312-0.24,0.466c0.173,0.319,0.326,0.571,0.459,0.755
				c0.134,0.184,0.287,0.274,0.461,0.274c0.106,0,0.191-0.029,0.255-0.09c0.063-0.06,0.111-0.137,0.145-0.229
				c0.034-0.094,0.057-0.195,0.07-0.306c0.013-0.109,0.021-0.218,0.021-0.324h0.14c0,0.279-0.037,0.512-0.11,0.694
				c-0.073,0.184-0.165,0.332-0.275,0.445c-0.109,0.113-0.234,0.193-0.375,0.24c-0.14,0.046-0.273,0.069-0.399,0.069
				c-0.14,0-0.261-0.015-0.36-0.045c-0.1-0.029-0.188-0.076-0.265-0.14s-0.148-0.142-0.215-0.235c-0.067-0.093-0.14-0.203-0.22-0.33
				c-0.08,0.08-0.181,0.164-0.301,0.25c-0.119,0.087-0.255,0.167-0.404,0.24c-0.15,0.073-0.315,0.135-0.496,0.186
				c-0.18,0.05-0.373,0.074-0.579,0.074c-0.421,0-0.773-0.081-1.06-0.245c-0.287-0.163-0.52-0.359-0.695-0.59
				c-0.178-0.229-0.303-0.473-0.375-0.729c-0.074-0.257-0.11-0.476-0.11-0.655c0-0.347,0.062-0.65,0.185-0.91
				s0.28-0.488,0.471-0.685c0.189-0.196,0.398-0.368,0.625-0.516c0.227-0.146,0.446-0.279,0.66-0.399
				c-0.074-0.146-0.146-0.318-0.221-0.516c-0.073-0.196-0.109-0.435-0.109-0.715c0-0.227,0.039-0.428,0.119-0.604
				s0.184-0.328,0.311-0.455s0.271-0.224,0.436-0.29c0.162-0.066,0.328-0.1,0.494-0.1c0.254,0,0.469,0.079,0.646,0.239
				s0.265,0.41,0.265,0.75c0,0.2-0.031,0.375-0.095,0.525c-0.063,0.149-0.144,0.281-0.24,0.395c-0.097,0.114-0.205,0.21-0.325,0.29
				c-0.119,0.08-0.233,0.15-0.34,0.21L48.77,78.17z M46.149,75.23c-0.347,0.181-0.624,0.389-0.83,0.625
				c-0.206,0.237-0.31,0.549-0.31,0.936c0,0.3,0.053,0.615,0.16,0.945c0.105,0.33,0.246,0.631,0.42,0.904
				c0.173,0.273,0.367,0.499,0.584,0.676c0.217,0.176,0.436,0.265,0.656,0.265c0.239,0,0.465-0.059,0.674-0.175
				c0.211-0.117,0.408-0.262,0.596-0.436L46.149,75.23z M46.51,73.39c0,0.174,0.048,0.38,0.145,0.62s0.205,0.48,0.325,0.72
				c0.113-0.066,0.226-0.136,0.335-0.21c0.109-0.073,0.207-0.159,0.29-0.26c0.083-0.1,0.151-0.217,0.205-0.35
				c0.054-0.134,0.08-0.29,0.08-0.47c0-0.227-0.056-0.427-0.165-0.601c-0.11-0.173-0.299-0.26-0.565-0.26
				c-0.173,0-0.325,0.076-0.454,0.229C46.574,72.964,46.51,73.157,46.51,73.39z"/>
			<path d="M60.67,79.71h-0.15c-0.047-0.054-0.1-0.102-0.16-0.145c-0.061-0.044-0.153-0.065-0.279-0.065
				c-0.101,0-0.209,0.019-0.326,0.055c-0.116,0.037-0.25,0.079-0.399,0.125c-0.149,0.047-0.318,0.089-0.505,0.125
				c-0.188,0.037-0.394,0.056-0.62,0.056c-0.42,0-0.829-0.077-1.226-0.23s-0.771-0.403-1.125-0.75
				c-0.326-0.326-0.6-0.713-0.819-1.16c-0.22-0.446-0.33-0.963-0.33-1.55c0-0.5,0.09-0.977,0.271-1.43
				c0.18-0.453,0.43-0.854,0.75-1.2c0.319-0.347,0.695-0.622,1.129-0.825s0.907-0.305,1.42-0.305c0.207,0,0.391,0.02,0.551,0.06
				s0.303,0.085,0.43,0.135c0.127,0.051,0.244,0.096,0.35,0.136c0.107,0.04,0.211,0.06,0.311,0.06c0.133,0,0.229-0.021,0.285-0.064
				c0.057-0.044,0.107-0.092,0.154-0.146h0.15v2H60.42c-0.061-0.253-0.137-0.503-0.23-0.75c-0.094-0.246-0.224-0.465-0.391-0.655
				c-0.166-0.189-0.378-0.343-0.635-0.46c-0.256-0.116-0.574-0.175-0.955-0.175c-0.354,0-0.656,0.055-0.91,0.165
				c-0.253,0.11-0.467,0.257-0.639,0.44c-0.174,0.184-0.312,0.396-0.416,0.64s-0.182,0.5-0.234,0.771
				c-0.054,0.27-0.089,0.543-0.105,0.819c-0.017,0.277-0.025,0.539-0.025,0.785c0,0.7,0.057,1.28,0.17,1.74s0.271,0.823,0.476,1.09
				c0.203,0.267,0.448,0.453,0.735,0.56c0.286,0.107,0.604,0.16,0.949,0.16c0.447,0,0.807-0.063,1.08-0.189
				c0.273-0.127,0.494-0.292,0.66-0.495c0.167-0.203,0.293-0.434,0.381-0.69c0.086-0.256,0.162-0.512,0.229-0.765h0.11V79.71z"/>
			<path d="M61.859,76.14c0-0.533,0.105-1.026,0.314-1.479c0.211-0.453,0.48-0.847,0.811-1.181c0.33-0.333,0.701-0.595,1.115-0.784
				c0.413-0.19,0.826-0.285,1.24-0.285c0.439,0,0.867,0.095,1.284,0.285c0.417,0.189,0.788,0.451,1.115,0.784
				c0.327,0.334,0.589,0.728,0.785,1.181s0.295,0.946,0.295,1.479c0,0.467-0.091,0.924-0.271,1.37
				c-0.18,0.447-0.426,0.844-0.74,1.19c-0.312,0.347-0.682,0.627-1.104,0.84s-0.878,0.32-1.364,0.32c-0.5,0-0.964-0.104-1.391-0.311
				c-0.427-0.206-0.795-0.481-1.105-0.825c-0.31-0.343-0.551-0.739-0.725-1.189S61.859,76.621,61.859,76.14z M63.01,76.14
				c0,0.601,0.039,1.124,0.119,1.57s0.213,0.82,0.4,1.12c0.187,0.3,0.426,0.523,0.72,0.67s0.657,0.22,1.091,0.22
				c0.426,0,0.787-0.073,1.084-0.22s0.539-0.37,0.726-0.67s0.319-0.674,0.399-1.12s0.121-0.97,0.121-1.57
				c0-0.46-0.031-0.904-0.091-1.335c-0.06-0.43-0.175-0.813-0.345-1.149c-0.17-0.337-0.406-0.605-0.71-0.806
				c-0.304-0.199-0.698-0.3-1.185-0.3c-0.487,0-0.883,0.101-1.186,0.3c-0.304,0.2-0.54,0.469-0.71,0.806
				c-0.17,0.336-0.285,0.72-0.345,1.149C63.039,75.236,63.01,75.68,63.01,76.14z"/>
			<path d="M69.799,79.571h1.11V72.73h-1.11v-0.14h1.86c0.093,0,0.187-0.001,0.28-0.005c0.093-0.003,0.186-0.008,0.279-0.015
				c0.094,0,0.188-0.002,0.28-0.005c0.093-0.004,0.187-0.006,0.28-0.006c0.199,0,0.378,0.004,0.535,0.011
				c0.156,0.007,0.303,0.019,0.439,0.034c0.137,0.018,0.267,0.04,0.391,0.07c0.123,0.03,0.254,0.068,0.395,0.115
				c0.406,0.134,0.758,0.312,1.055,0.535s0.54,0.481,0.73,0.774c0.189,0.294,0.33,0.614,0.42,0.96
				c0.09,0.347,0.135,0.71,0.135,1.091c0,0.439-0.053,0.835-0.16,1.185c-0.106,0.35-0.253,0.66-0.439,0.93
				c-0.188,0.271-0.405,0.504-0.655,0.7c-0.25,0.197-0.519,0.355-0.806,0.476c-0.159,0.073-0.311,0.13-0.454,0.17
				s-0.29,0.069-0.44,0.09c-0.15,0.02-0.314,0.033-0.494,0.04c-0.181,0.006-0.387,0.01-0.621,0.01c-0.1,0-0.206-0.002-0.319-0.005
				c-0.114-0.004-0.228-0.009-0.341-0.016c-0.113-0.006-0.225-0.012-0.334-0.015c-0.11-0.003-0.215-0.005-0.315-0.005h-1.7V79.571z
				 M71.909,79.571c0.113,0.013,0.245,0.023,0.396,0.029c0.149,0.007,0.314,0.011,0.494,0.011c0.227,0,0.451-0.012,0.676-0.035
				c0.223-0.023,0.436-0.073,0.64-0.15c0.203-0.076,0.394-0.187,0.569-0.33c0.177-0.143,0.336-0.331,0.476-0.564
				c0.213-0.36,0.361-0.729,0.444-1.105c0.084-0.376,0.125-0.788,0.125-1.234c0-0.527-0.049-1.006-0.149-1.436
				s-0.265-0.797-0.495-1.1c-0.23-0.304-0.535-0.539-0.915-0.705c-0.38-0.167-0.851-0.25-1.41-0.25c-0.167,0-0.318,0.003-0.454,0.01
				c-0.137,0.007-0.27,0.014-0.396,0.02V79.571z"/>
			<path d="M77.949,79.571h1.109V72.73h-1.109v-0.14h5.719v1.73h-0.109c-0.086-0.261-0.18-0.488-0.279-0.686
				c-0.101-0.196-0.221-0.363-0.36-0.5s-0.307-0.238-0.5-0.305s-0.427-0.101-0.7-0.101h-1.66v3.091h0.65
				c0.22,0,0.406-0.021,0.561-0.061c0.152-0.04,0.284-0.115,0.395-0.225c0.109-0.11,0.203-0.26,0.279-0.45
				c0.077-0.19,0.152-0.435,0.226-0.735h0.11v3.11h-0.11c-0.047-0.193-0.095-0.38-0.146-0.56c-0.049-0.181-0.119-0.341-0.209-0.48
				s-0.211-0.252-0.36-0.335c-0.15-0.083-0.345-0.125-0.585-0.125h-0.811v3.61h1.891c0.366,0,0.672-0.079,0.914-0.235
				c0.244-0.156,0.442-0.344,0.596-0.56c0.153-0.217,0.266-0.442,0.34-0.676s0.119-0.426,0.141-0.58h0.109v2.19h-6.1V79.571z"/>
		</g>
	</g>
</g>
</svg>
