<?xml version="1.0" encoding="utf-8"?>
<!-- Generator: Adobe Illustrator 16.0.4, SVG Export Plug-In . SVG Version: 6.00 Build 0)  -->
<!DOCTYPE svg PUBLIC "-//W3C//DTD SVG 1.1//EN" "http://www.w3.org/Graphics/SVG/1.1/DTD/svg11.dtd">
<svg version="1.1" id="Layer_1" xmlns="http://www.w3.org/2000/svg" xmlns:xlink="http://www.w3.org/1999/xlink" x="0px" y="0px"
	 width="184.531px" height="210.728px" viewBox="0 0 184.531 210.728" enable-background="new 0 0 184.531 210.728"
	 xml:space="preserve">
<g>
	<g>
		<path fill="#FFFFFF" d="M68.907,71.874c0-2.2-1.559-3.1-3.464-2l-13.072,7.549c-1.905,1.1-3.464,3.8-3.464,6v44.3
			c0,2.2,1.559,4.9,3.464,6l13.072,7.55c1.905,1.1,3.464,0.2,3.464-2v-19.63c0-2.2,1.8-4,4-4h15.44c2.2,0,4,1.8,4,4v59.47
			c0,2.2,1.559,3.1,3.464,2l13.072-7.55c1.905-1.1,3.464-3.8,3.464-6v-47.92c0-2.2,1.8-4,4-4h38.81c2.2,0,4-1.8,4-4v-18.37
			c0-2.2,0-5.8,0-8v-15.09c0-2.2-1.559-4.899-3.465-5.999l-13.07-7.542c-1.906-1.1-5.023-2.899-6.929-4L95.812,29.614
			c-1.905-1.101-3.464-0.201-3.464,2v60.03c0,2.2-1.8,4-4,4h-15.44c-2.2,0-4-1.8-4-4V71.874z M112.348,66.253
			c0-2.2,1.559-3.1,3.464-2l19.882,11.48c1.905,1.1,3.464,3.8,3.464,6v9.91c0,2.2-1.8,4-4,4h-18.81c-2.2,0-4-1.8-4-4V66.253z"/>
	</g>
	<g>
		<path fill="#FFFFFF" d="M95.73,0.825c-1.905-1.1-5.022-1.1-6.928,0L3.464,50.094c-1.905,1.1-3.464,3.8-3.464,6v98.54
			c0,2.2,1.559,4.9,3.464,6l85.339,49.269c1.905,1.1,5.022,1.1,6.928,0l85.337-49.269c1.905-1.1,3.464-3.8,3.464-6v-98.54
			c0-2.2-1.559-4.9-3.464-6L95.73,0.825z M164.531,143.087c0,2.2-1.559,4.9-3.464,6L95.73,186.809c-1.905,1.1-5.022,1.1-6.928,0
			l-65.339-37.722c-1.905-1.1-3.464-3.8-3.464-6V67.641c0-2.2,1.559-4.9,3.464-6l65.339-37.723c1.905-1.1,5.022-1.1,6.928,0
			l65.337,37.723c1.905,1.1,3.464,3.8,3.464,6V143.087z"/>
	</g>
</g>
</svg>
