<?xml version="1.0" encoding="utf-8"?>
<!-- Generator: Adobe Illustrator 16.0.4, SVG Export Plug-In . SVG Version: 6.00 Build 0)  -->
<!DOCTYPE svg PUBLIC "-//W3C//DTD SVG 1.1//EN" "http://www.w3.org/Graphics/SVG/1.1/DTD/svg11.dtd">
<svg version="1.1" id="ball_1_" xmlns="http://www.w3.org/2000/svg" xmlns:xlink="http://www.w3.org/1999/xlink" x="0px" y="0px"
	 width="184.312px" height="184.312px" viewBox="0 0 184.312 184.312" enable-background="new 0 0 184.312 184.312"
	 xml:space="preserve">
<g id="ball">
	<g>
		<path fill="#2B2B2B" d="M92.156,0C41.341,0,0,41.341,0,92.156s41.341,92.156,92.156,92.156c50.814,0,92.156-41.341,92.156-92.156
			S142.97,0,92.156,0z M153.086,42.498c10.963,13.395,17.602,30.455,17.775,49.034c-2.596-0.549-28.619-5.827-54.812-2.534
			c-0.552-1.348-1.116-2.702-1.695-4.062c-1.635-3.838-3.391-7.652-5.223-11.401C138.236,61.652,151.427,44.743,153.086,42.498z
			 M92.156,13.561c20.001,0,38.279,7.502,52.18,19.835c-1.416,2.017-13.265,17.943-41.255,28.434
			C90.182,38.131,75.885,18.662,73.71,15.749C79.629,14.322,85.805,13.561,92.156,13.561z M58.69,21.04
			c2.075,2.846,16.141,22.338,29.184,45.523c-36.82,9.778-69.25,9.637-72.771,9.59C20.208,51.728,36.668,31.427,58.69,21.04z
			 M13.44,92.275c0-0.804,0.016-1.605,0.04-2.405c3.444,0.071,41.589,0.562,80.899-11.202c2.253,4.41,4.405,8.887,6.382,13.358
			c-1.042,0.293-2.076,0.605-3.103,0.937c-40.596,13.122-62.199,48.892-63.982,51.943C21.104,130.952,13.44,112.493,13.44,92.275z
			 M92.156,170.991c-18.197,0-34.97-6.209-48.316-16.617c1.417-2.896,17.354-33.685,61.752-49.156
			c0.173-0.06,0.346-0.116,0.519-0.175c11.052,28.718,15.622,52.786,16.793,59.692C113.453,168.761,103.06,170.991,92.156,170.991z
			 M136.137,157.529c-0.808-4.789-4.997-27.832-15.293-56.124c24.667-3.948,46.338,2.516,49.031,3.365
			C166.367,126.673,153.795,145.588,136.137,157.529z"/>
	</g>
</g>
</svg>
