<?xml version="1.0" encoding="utf-8"?>
<!-- Generator: Adobe Illustrator 22.1.0, SVG Export Plug-In . SVG Version: 6.00 Build 0)  -->
<svg version="1.1" id="ball_1_" xmlns="http://www.w3.org/2000/svg" xmlns:xlink="http://www.w3.org/1999/xlink" x="0px" y="0px"
	 viewBox="0 0 184.3 184.3" style="enable-background:new 0 0 184.3 184.3;" xml:space="preserve">
<style type="text/css">
	.st0{fill:#FFFFFF;}
</style>
<g id="ball">
	<g>
		<path class="st0" d="M92.2,0C41.3,0,0,41.3,0,92.2s41.3,92.2,92.2,92.2c50.8,0,92.2-41.3,92.2-92.2S143,0,92.2,0z M153.1,42.5
			c11,13.4,17.6,30.5,17.8,49c-2.6-0.5-28.6-5.8-54.8-2.5c-0.6-1.3-1.1-2.7-1.7-4.1c-1.6-3.8-3.4-7.7-5.2-11.4
			C138.2,61.7,151.4,44.7,153.1,42.5z M92.2,13.6c20,0,38.3,7.5,52.2,19.8c-1.4,2-13.3,17.9-41.3,28.4
			C90.2,38.1,75.9,18.7,73.7,15.7C79.6,14.3,85.8,13.6,92.2,13.6z M58.7,21c2.1,2.8,16.1,22.3,29.2,45.5
			c-36.8,9.8-69.2,9.6-72.8,9.6C20.2,51.7,36.7,31.4,58.7,21z M13.4,92.3c0-0.8,0-1.6,0-2.4c3.4,0.1,41.6,0.6,80.9-11.2
			c2.3,4.4,4.4,8.9,6.4,13.4c-1,0.3-2.1,0.6-3.1,0.9c-40.6,13.1-62.2,48.9-64,51.9C21.1,131,13.4,112.5,13.4,92.3z M92.2,171
			c-18.2,0-35-6.2-48.3-16.6c1.4-2.9,17.4-33.7,61.8-49.2c0.2-0.1,0.3-0.1,0.5-0.2c11.1,28.7,15.6,52.8,16.8,59.7
			C113.5,168.8,103.1,171,92.2,171z M136.1,157.5c-0.8-4.8-5-27.8-15.3-56.1c24.7-3.9,46.3,2.5,49,3.4
			C166.4,126.7,153.8,145.6,136.1,157.5z"/>
	</g>
</g>
</svg>
