<?xml version="1.0" encoding="utf-8"?>
<!-- Generator: Adobe Illustrator 22.1.0, SVG Export Plug-In . SVG Version: 6.00 Build 0)  -->
<svg version="1.1" xmlns="http://www.w3.org/2000/svg" xmlns:xlink="http://www.w3.org/1999/xlink" x="0px" y="0px"
	 viewBox="0 0 248.9 248.9" style="enable-background:new 0 0 248.9 248.9;" xml:space="preserve">
<style type="text/css">
	.st0{display:none;}
	.st1{display:inline;}
	.st2{fill:#FFFFFF;}
	.st3{display:inline;fill:#CE1313;}
	.st4{fill:#CE1313;}
</style>
<g id="Layer_1" class="st0">
	<g class="st1">
		<path class="st2" d="M131.8,218.6c1.7-0.1,3.3-0.3,5-0.5C135.1,218.3,133.5,218.5,131.8,218.6z"/>
		<path class="st2" d="M146.9,190.2c-11.7-15-19.4-33.3-21.8-53.1C127.5,156.9,135.3,175.2,146.9,190.2z"/>
		<path class="st2" d="M165.9,209.3c-9,4.5-18.8,7.5-29.1,8.8C147.1,216.7,156.9,213.7,165.9,209.3
			C165.8,209.3,165.9,209.3,165.9,209.3z"/>
		<path d="M196.4,22.9C176,8.5,151.2,0,124.4,0C55.8,0,0,55.8,0,124.4s55.8,124.4,124.4,124.4c26.8,0,51.6-8.5,71.9-22.9
			c31.8-22.6,52.5-59.7,52.5-101.5C248.9,82.6,228.1,45.5,196.4,22.9z M124.6,130.8c0.1,1.1,0.1,2.1,0.2,3.2
			c0.1,1.1,0.2,2.1,0.3,3.2c2.3,19.8,10.1,38.1,21.8,53.1c1.2,1.6,2.5,3.1,3.8,4.7c4.6,5.3,9.7,10.1,15.2,14.3h-0.1
			c-9,4.4-18.8,7.5-29.1,8.8c-1.6,0.2-3.3,0.4-5,0.5c-0.6,0-1.2,0.1-1.8,0.1c-0.9,0-1.8,0.1-2.8,0.1c-0.9,0-1.8,0-2.8,0
			c-52.1,0-94.4-42.4-94.4-94.4S72.4,30,124.4,30c14.9,0,28.9,3.5,41.5,9.6c-25.2,19.7-41.5,50.4-41.5,84.8
			C124.4,126.6,124.5,128.7,124.6,130.8z"/>
	</g>
	<path class="st3" d="M124.4,30c52.1,0,94.4,42.3,94.4,94.4s-42.3,94.4-94.4,94.4S30,176.5,30,124.4S72.3,30,124.4,30 M124.4,0
		C55.7,0,0,55.7,0,124.4s55.7,124.4,124.4,124.4s124.4-55.7,124.4-124.4S193.1,0,124.4,0L124.4,0z"/>
	<circle class="st3" cx="351.5" cy="124.4" r="102.6"/>
</g>
<g id="New" class="st0">
	<circle class="st3" cx="124.4" cy="124.4" r="124.4"/>
</g>
<g id="Full">
	<path class="st4" d="M124.4,30c52.1,0,94.4,42.3,94.4,94.4s-42.3,94.4-94.4,94.4S30,176.5,30,124.4S72.3,30,124.4,30 M124.4,0
		C55.7,0,0,55.7,0,124.4s55.7,124.4,124.4,124.4s124.4-55.7,124.4-124.4S193.1,0,124.4,0L124.4,0z"/>
</g>
<g id="Quarter" class="st0">
	<path class="st3" d="M124.4,0C55.7,0,0,55.7,0,124.4s55.7,124.4,124.4,124.4s124.4-55.7,124.4-124.4S193.1,0,124.4,0z M30,124.4
		c0-52,42.3-94.4,94.4-94.4v188.8C72.3,218.8,30,176.4,30,124.4z"/>
</g>
<g id="Gibbous" class="st0">
	<path class="st3" d="M199.8,25.5C178.9,9.5,152.8,0,124.4,0C55.7,0,0,55.7,0,124.4s55.7,124.4,124.4,124.4
		c28.3,0,54.4-9.5,75.3-25.4c29.8-22.7,49.1-58.6,49.1-99C248.8,84.1,229.6,48.2,199.8,25.5z M124.4,218.8
		c-52.1,0-94.4-42.4-94.4-94.4S72.3,30,124.4,30c15.6,0,30.4,3.8,43.4,10.6c-26.3,18.6-43.4,49.2-43.4,83.8
		c0,34.6,17.1,65.2,43.4,83.8C154.8,215,140,218.8,124.4,218.8z"/>
</g>
<g id="Crescent" class="st0">
	<path class="st3" d="M199.1,24.9C178.3,9.3,152.4,0,124.4,0C55.7,0,0,55.7,0,124.4s55.7,124.4,124.4,124.4
		c27.9,0,53.7-9.2,74.5-24.8c30.3-22.7,49.9-58.9,49.9-99.6C248.8,83.7,229.3,47.6,199.1,24.9z M124.4,218.8
		c-52.1,0-94.4-42.4-94.4-94.4S72.3,30,124.4,30c2.9,0,5.7,0.1,8.5,0.4c-36.2,15.8-61.5,52-61.5,94.1c0,42,25.2,78.1,61.3,94
		C130,218.7,127.2,218.8,124.4,218.8z"/>
</g>
</svg>
