<?xml version="1.0" encoding="utf-8"?>
<!-- Generator: Adobe Illustrator 24.2.1, SVG Export Plug-In . SVG Version: 6.00 Build 0)  -->
<svg version="1.1" id="Layer_1" xmlns="http://www.w3.org/2000/svg" xmlns:xlink="http://www.w3.org/1999/xlink" x="0px" y="0px"
	 viewBox="0 0 1000 267.5" style="enable-background:new 0 0 1000 267.5;" xml:space="preserve">
<style type="text/css">
	.st0{fill:#FFD400;}
</style>
<path class="st0" d="M260.9,266.1c0-0.8-0.2-1.3-0.5-1.1s-0.9-0.5-1.4-1.6s-1.2-2-1.7-2c-0.7,0-0.8-0.2-0.3-0.8
	c0.5-0.6,0.5-0.8-0.1-1s-0.5-0.5,0.1-1.2c0.6-0.8,0.7-1.1,0.1-1.2c-0.4-0.1-0.7-0.5-0.7-0.8s0.2-0.4,0.5-0.2s0.4,0,0.2-0.5
	s0-0.9,0.3-0.9c0.5,0,0.5-0.3,0-1.1c-0.5-0.9-0.4-1.1,0.3-1.1s0.7-0.1,0.2-0.7c-0.7-0.8-2.1-0.1-1.9,0.9c0,0.3-0.2,0.6-0.6,0.7
	c-0.4,0.2-0.5-0.2-0.3-1c0.2-0.7,0.1-1.1-0.2-0.9c-0.3,0.2-1,0.1-1.6-0.1c-0.9-0.3-0.6-0.5,1.2-0.8c1.5-0.3,2.3-0.7,2.3-1.2
	c0-0.4,0.5-0.8,1.1-0.8s1.4-0.5,1.8-1.1c0.7-1.1,3.6-2.5,4.5-2.3c0.3,0.1,1.9-0.2,3.6-0.7c1.7-0.4,4.7-1,6.6-1.2s3.6-0.6,3.8-0.9
	s0.9-0.5,1.5-0.5c0.7,0,2.7-0.7,4.5-1.6c1.8-0.9,3.7-1.6,4.2-1.6s1.1-0.3,1.3-0.6c0.2-0.3,0.1-0.6-0.3-0.6c-0.8,0-0.5-2.5,0.3-2.5
	c0.3,0,1.6-0.4,3-0.7s3-0.5,3.8-0.4c0.7,0.2,2.1,0.1,3.1-0.2s3.1-0.8,4.8-1.1c4.6-0.9,7.1-1.7,7.1-2.2s-28.3-0.2-35.3,0.5
	c-3.7,0.3-5.1,0.2-6.6-0.4c-1.1-0.5-2.1-0.9-2.2-0.9c-0.2,0-1-0.4-1.9-0.7c-0.9-0.4-2-0.5-2.5-0.3s-7.8,0.4-16.3,0.5
	s-16.6,0.4-17.9,0.7s-5.5,0.8-9.1,1.2s-7.1,0.9-7.7,1.2s-2.3,0.4-3.8,0.3c-1.5-0.1-2.8,0-3,0.2c-0.2,0.3-0.5,0.3-0.8,0.2
	c-0.3-0.2-0.5-0.1-0.5,0.3c0,0.3-0.2,0.5-0.4,0.5c-0.9-0.2-5.7,0.8-5.7,1.2c0,0.5-4.2,1.4-5.7,1.2c-0.6-0.1-1.5,0.4-2.1,1
	s-1.5,1.1-2,1.2c-0.5,0-2.4,0.1-4.3,0.2c-1.8,0.1-4.3,0.4-5.5,0.8c-1.2,0.4-3.1,0.8-4.3,0.9c-1.1,0.2-2,0.5-1.8,0.8
	c0.5,0.8-0.7,1-10.3,1.8c-0.5,0-0.9,0.3-0.8,0.6c0.1,0.3-0.4,0.7-1,0.8c-0.6,0.2-1.7,0.8-2.5,1.3c-1,0.7-3.1,1-7.5,1.3
	c-3.3,0.2-6.6,0.3-7.3,0.3s-2,0.3-3,0.8s-1.8,0.7-2,0.4c-0.5-0.7-2.4-1.4-2-0.7s-0.1,0.7-1.6-0.1c-3-1.6-17-0.4-18.5,1.6
	c-0.5,0.6-0.5,1-0.1,1.2c0.3,0.1,0.6,0.4,0.6,0.7s-0.3,0.4-0.8,0.2c-0.4-0.2-0.9,0-1.1,0.3c-0.5,0.9,2.8,0.7,4.6-0.2
	c0.8-0.4,2.6-0.9,4-1.2c1.4-0.2,2.9-0.5,3.5-0.6c0.5-0.1,1,0.1,1,0.5c0,0.5,0.7,0.7,2.3,0.5c1.8-0.1,2.1-0.1,1.4,0.4
	c-0.5,0.3-0.9,0.8-0.7,1c0.3,0.5-2.8,1.1-8.7,1.5c-3.4,0.3-4.5,0.2-4.8-0.4c-0.3-0.6-0.5-0.6-0.5-0.1c0,1-3.3,0.9-4.5-0.2
	c-0.6-0.5-1-0.7-1-0.4s-1.8,0.4-4.6,0.1c-2.5-0.2-6.4-0.5-8.7-0.7s-5-0.6-6-0.9c-1-0.4-2.4-0.5-3.2-0.4s-1.5,0-1.7-0.3
	s-0.1-0.4,0.4-0.1c0.4,0.3,0.6,0.2,0.4-0.1c-0.4-0.7-3-1.3-6.2-1.4c-1.8-0.1-2.2-0.3-2.3-1.3c-0.1-1.1,0.3-1.2,3.6-1.6
	c2-0.2,4.3-0.4,5-0.3l1.4,0.1l-1.5-0.8c-2.5-1.4-5-2-9.9-2.3c-2.6-0.2-6.3-0.7-8.3-1.2c-4.5-1.1-20.3-1.2-21-0.1
	c-0.2,0.4-0.7,0.5-1.1,0.3c-0.9-0.6-11.1-0.8-10.7-0.2c0.3,0.5,0.2,0.5-7,0.8c-5.1,0.2-7.2,0.3-14.9,1.3c-3.5,0.4-5.5,0.2-7.5-0.9
	c-0.8-0.5-0.7-0.7,1.4-2c1.6-1,3.6-1.6,6.6-2c5.1-0.6,10-1.5,13.5-2.2c2.1-0.5,2.5-0.8,2.3-1.6c-0.2-0.6-0.6-0.9-1-0.7
	s-0.8,0-0.8-0.3s0.4-0.6,1-0.6c0.8,0,0.8-0.1,0.1-0.5c-0.5-0.3-0.6-0.5-0.2-0.5s0.5-0.4,0.4-0.8c-0.2-0.6,0.3-1.1,1.8-1.8l2.1-0.9
	l-5.4-0.3c-3-0.2-6.9-0.3-8.7-0.3h-3.3c0,0,0.5-0.6,1.1-1.3s1.1-1.1,1.1-0.9s0.6,0,1.2-0.4c0.7-0.4,3.1-1.1,5.3-1.4
	c2.3-0.3,5.1-1,6.3-1.4c1.2-0.4,3.1-0.8,4.2-0.8c3.1,0,10.8-2,8.6-2.2c-0.3,0-1-0.2-1.6-0.3s-1.4-0.3-1.8-0.4
	c-1.3-0.3-1.3-0.8-0.2-1.2c0.6-0.2,1.8-1,2.6-1.7s2-1.3,2.7-1.3s1.5-0.3,1.9-0.8c0.5-0.6,0.1-0.8-2.6-1.1c-1.8-0.2-3.9-0.5-4.8-0.6
	c-2.2-0.3-10.8-0.3-11.4,0.1c-0.8,0.5-7.1,0.7-7.1,0.3c0-0.2,0.4-0.8,0.8-1.1c0.5-0.4,0.8-0.9,0.8-1.3s-0.2-0.4-0.4-0.2
	s-0.7,0.1-1.1-0.3c-0.4-0.3-0.7-0.4-0.7-0.1c0,0.3-0.4,0.5-0.8,0.5c-1.3,0-1-0.6,0.9-1.4c2-0.9,1.8-1.3-1.5-2
	c-3-0.7-3.6-1.7-1.4-2.6c2.2-0.9,12.7-2.1,18.7-2.1c2.8,0,5.8-0.2,6.6-0.4l1.5-0.4l-1.6-1.3c-0.9-0.7-2-1.3-2.5-1.3
	c-1.3,0-1.7-0.9-1-2.2c0.7-1.4,5.5-3.9,7.5-3.9c0.8,0,1.3-0.2,1.1-0.6c-0.2-0.3-0.8-0.6-1.4-0.6c-0.9,0-2-1.4-1.8-2.3
	c0.2-1-8.6,0.1-9.3,1.2c-0.6,0.8-14.7,2.9-16,2.4l-1.3-0.5l1.3-0.7c0.7-0.4,5.3-1.4,10.2-2.2c9-1.5,11.1-2.6,5.3-2.6
	c-1.8,0-3.5-0.3-4-0.8c-0.8-0.6-1.8-0.6-6.3-0.1c-8.2,1-13,1.7-14.1,2c-0.7,0.2-1,0.1-0.8-0.6c0.2-1,1.9-2.1,4.6-3.1
	c2.3-0.8,0.9-1.5-2.1-1.1c-1.3,0.2-3.4,0.6-4.8,0.8L6.2,184l2.1-2c1.1-1.1,2.1-2.1,2.1-2.2s-1.5-0.4-3.4-0.6
	c-4.5-0.5-6.8-1.8-6.8-3.6c0-1,3.6-2.2,6.9-2.5c1.4-0.1,4.5-0.6,6.9-1.1s6.2-1,8.3-1.1s5.4-0.5,7.2-0.8c11.3-2,13.9-2.5,14.3-2.8
	c0.3-0.2-0.6-0.6-1.9-0.9c-1.4-0.3-2.5-0.9-2.5-1.3c0-0.9,5.6-2.9,10.6-3.8c2.5-0.4,4.3-1.1,4.9-1.7c0.5-0.6,2.4-1.3,4.2-1.7
	c4.1-0.8,4-1.6-0.5-3.3c-1-0.4-1.6-0.9-1.5-1.3c0.3-0.8,2.9-2,4.2-2c0.6,0,0.9-0.2,0.7-0.6c-0.2-0.3-2.2-0.6-4.4-0.6
	c-3.7,0-5.2-0.6-3.4-1.3c1.6-0.6-6.4-0.3-10.4,0.5c-5,0.9-7.7,0.5-7.7-1.1c0-0.8,1.4-1.8,5.4-3.8c3.7-1.9,5.2-2.9,4.7-3.2
	c-1-0.6,0-1.2,3.7-2.5c5.2-1.7,9.4-4.6,8.8-6.2c-0.4-1.1,1.7-1.6,10.1-2.8c4.2-0.6,8.4-1.5,9.3-1.9c0.9-0.5,2.9-1,4.4-1.2
	c4.1-0.5,12-2.5,13.2-3.3c0.6-0.4,1.8-0.8,2.8-0.8c0.9,0,2.2-0.3,2.8-0.5c0.9-0.4,0.7-0.5-1.1-0.6c-4.7-0.2-7.2-0.6-7.8-1.5
	c-0.4-0.6-1.1-0.7-1.9-0.5c-1.1,0.3-1.1,0.3-0.3-0.3c0.5-0.3,1.4-0.5,1.9-0.5c0.5,0.1,1.3-0.1,1.7-0.3c0.4-0.3,1.3-0.2,2.1,0.3
	c1.1,0.6,1.6,0.6,2.4,0.1c0.7-0.4,1.2-0.5,1.4-0.1c0.2,0.3,1.7,0.5,3.5,0.6c1.7,0,3.8,0.4,4.5,0.8c1.7,0.9,2.2,1,2.2,0.3
	c0-0.3-0.4-0.6-0.9-0.6s-0.7-0.2-0.6-0.5c0.2-0.3-0.2-0.6-0.9-0.8c-0.6-0.2-1-0.6-0.9-1c0.2-0.7,2.7-1.2,10.4-1.8
	c6.9-0.6,8.8-0.9,8.8-1.4c0-0.3-0.4-0.5-0.8-0.5c-0.5,0-0.8-0.5-0.8-1.1c0-0.8,0.4-1.1,1.4-1.1c1.6,0,1.9-0.9,0.4-1.2
	c-0.5-0.1-3.3-0.1-6.2,0c-8.4,0.5-11.7,0.3-13.5-0.6c-0.9-0.5-1.8-0.8-2-0.7c-0.2,0.1-0.3-0.5-0.1-1.3c0.3-1.9-0.5-2.2-6.2-2.3
	c-3.4-0.1-3.7-0.2-2.5-0.8c1.9-1,9.1-2.4,13.3-2.7c2.2-0.1,4.2-0.6,5-1.1c1.6-1.1,2.5-1.1,3.6-0.1c0.5,0.5,1.8,0.8,3.1,0.8
	c4.1,0,19.4-1.6,21.4-2.2c1.9-0.6,2-0.7,1.6-2.5c-0.3-1.1-0.2-2.1,0.1-2.5c0.4-0.4,0.4-0.8-0.1-1.3c-1.3-1.6,0.4-1.9,8.4-1.7
	c6.3,0.2,8.2,0.1,9.5-0.6s7.4-1.6,11.5-1.8c0.6,0,2.3-0.3,3.9-0.5l2.8-0.5l-2.5-0.4c-1.4-0.2-5.5-0.3-9.1-0.1s-8.9,0.2-11.6,0.2
	c-2.7,0-8.1,0.3-11.9,0.8c-7.5,1-15.3,1.7-18.6,1.6c-1.2,0-2.3,0.2-2.5,0.5s-1.1,0.5-2.1,0.6c-0.9,0-1.7,0.3-1.7,0.5
	c0,0.3-0.6,0.3-1.2,0.1c-1-0.3-1.1-0.2-0.4,0.2c0.7,0.5,0.7,0.6-0.1,0.6c-0.5,0-1,0.3-1,0.6c0,0.4-0.5,0.3-1.4-0.3
	c-1.5-1-2.2-1.1-1.7-0.4c0.2,0.3-0.2,0.6-0.8,0.8c-0.6,0.2-1.1,0-1.1-0.4s-0.9-0.6-2.1-0.6c-1.3,0-2,0.2-1.9,0.7s-0.5,0.6-1.9,0.4
	c-2.3-0.3-4.6-1.6-4.6-2.6c0-0.4-0.2-0.4-0.5,0.2c-0.4,0.6-0.5,0.5-0.5-0.7c0-2,0.9-3.7,2-3.7c0.5,0,0.7-0.2,0.5-0.6
	s0.1-0.6,0.7-0.6c1.8-0.1,3-0.4,4.2-1.2c1.1-0.7,3.7-0.4,3.7,0.4c0,0.2-0.3,0.1-0.7,0c-0.4-0.2-1.1,0.1-1.5,0.7
	c-0.7,0.8-0.7,0.9,0,0.5c0.6-0.4,0.7-0.2,0.4,0.5c-0.2,0.6-0.1,1.2,0.3,1.5c1.1,0.7,1.9,0.5,1-0.1c-0.6-0.4-0.3-0.5,1.3-0.3
	c1.2,0.2,2.6,0,3.1-0.3c0.8-0.5,1.2-0.5,1.8,0c0.7,0.5,0.9,0.5,1.2-0.3c0.2-0.5,0.4-1.2,0.3-1.4c0-0.2,0.3-0.4,0.7-0.4
	c0.4,0,0.9-0.3,1-0.6s0.9-0.7,1.8-0.8c0.9-0.1,1.9-0.6,2.2-1s0.8-0.7,1.1-0.4c0.2,0.2,0.3,0,0.1-0.6c-0.4-1.2,0.6-1.3,1.1-0.1
	c0.3,0.8,0.4,0.7,1.4-0.1c1-0.9,1-0.9,1,0.1c0,0.9,0.1,0.9,0.5,0.2c0.8-1.2,0.7-1.5-0.8-1.9c-0.9-0.2-1.3-0.7-1.3-1.5
	c0.1-1.3,2-2.3,4.2-2.1c2.1,0.1,3.9-0.6,3.9-1.5c0-0.6,0.5-0.8,2.1-0.7c2.2,0.2,6-0.5,7.3-1.2c0.7-0.4,0.6-0.5-0.3-0.5
	c-0.6,0-2.3-0.2-3.9-0.3c-4.7-0.4-10.9-0.4-13.2,0c-1.5,0.3-2,0.3-1.8-0.2c0.2-0.4,0.1-0.5-0.4-0.3s-1.2-0.3-1.8-1.2
	c-0.7-1.1-0.8-1.6-0.3-1.7c0.4-0.1,0.3-0.5-0.3-1c-0.9-0.7-0.8-0.8,0.7-0.5c0.9,0.2,1.3,0.1,1,0c-1.4-0.7-0.6-1.3,1.5-1.3
	c1.4,0,2.2,0.3,2.2,0.7c0,0.5,0.1,0.5,0.5-0.1c0.3-0.5,0.6-0.5,0.8-0.2c0.4,0.6,1.1,0.6,2.8-0.2c0.6-0.3,1.9-0.5,2.9-0.5
	c2.3,0,3-1.4,0.8-1.4c-0.9,0-1.7-0.4-1.9-0.8c-0.2-0.6,0-0.8,0.7-0.8c0.6,0,1.3-0.3,1.5-0.7c0.6-1,2.9-2.2,3.5-1.8
	c0.3,0.2,0.6,0.1,0.8-0.3c0.2-0.3,1-0.6,1.9-0.6c0.8,0,2.9-0.4,4.5-0.9c2.6-0.8,2.8-1,1.8-1.4c-0.7-0.3-5.3-0.4-10.2-0.4
	c-5,0-9.3-0.1-9.7-0.4c-0.4-0.3-0.9-0.2-1.1,0.2c-0.4,0.7-17.6,1.3-18,0.6c-0.1-0.2-0.7-0.3-1.1-0.1c-0.6,0.2-0.7,0.5-0.2,0.7
	c0.3,0.2-0.1,0.4-1.1,0.4c-0.9,0-1.7-0.2-1.7-0.5s-0.4-0.2-0.8,0.2c-0.5,0.4-1,0.5-1.2,0.3s0.2-0.9,1-1.4l1.4-1l-1.4,0.3
	c-1.2,0.2-1.2,0.2-0.3-0.3c1.6-0.8,4.2-0.7,5.7,0.2c1.5,0.8,3.4,0.6,3.4-0.5c0-0.5,1.1-0.7,3.6-0.7c2.3,0,3.6,0.2,3.6,0.6
	c0,0.3,0.3,0.2,0.7-0.3c0.5-0.7,2-1,5.4-1.3c2.6-0.2,6.3-0.7,8.2-1.1c1.9-0.4,4.3-0.8,5.2-0.8c1,0,3-0.4,4.5-0.8
	c2.6-0.7,2.3-0.7-4.7-0.5c-4.1,0.2-7.8,0.3-8.3,0.3s-6.2,0.6-12.7,1.3s-13.6,1.4-15.8,1.5c-2.2,0.1-3.8,0.4-3.7,0.6
	s-0.8,0.4-2.1,0.4S93,54.6,90.3,55c-4.7,0.8-15.7,1.5-14.2,1c0.4-0.1,0.6-0.5,0.4-0.8s0.4-0.5,1.2-0.5c0.9,0,2.4-0.5,3.5-1.1
	s2.4-1.3,3-1.6c2-0.9,34.6-6.3,42.2-7c2.3-0.2,8.9-0.9,14.6-1.5c5.8-0.6,13.4-1.3,16.9-1.6s7.6-0.9,9.1-1.3c1.9-0.6,2.8-0.6,3-0.2
	c0.3,0.6,6.2,0.4,13.2-0.4c1.1-0.1,4.4-0.4,7.5-0.6c5.4-0.3,13.7-1.5,18.4-2.5c1.3-0.3,2.6-0.4,2.9-0.2c0.3,0.2,4.1-0.2,8.5-0.9
	c6.5-1,8.3-1.1,9.3-0.5s2.4,0.5,7.3-0.5c8.2-1.6,18.9-3.7,24.2-4.8c2.4-0.5,6-1.2,7.8-1.6c1.9-0.4,4.2-0.8,5.2-0.8s2.9-0.4,4.3-0.8
	c2.3-0.7,7-1.6,19.6-3.4c6.5-0.9,7.8-1.2,14.4-2.4c3-0.6,8-1.5,11-2s6.3-1,7.2-1.2c6.4-1.1,7.7-1,9,0.1c0.7,0.6,1.3,1.4,1.3,1.8
	s0.2,0.6,0.4,0.6h1.7c1.1,0.1,1.2,0.2,0.7,1.1c-0.7,1.3-0.1,1.9,0.9,1.1c1.1-0.9,0.9-0.1-0.4,1.4c-0.7,0.8-2.1,1.5-3.3,1.7
	c-1.9,0.3-2.1,0.5-1.5,1.2c0.9,1.1,0.1,1.1,35.5-3.1c2.4-0.3,6.8-0.7,9.7-0.8s8.1-0.5,11.6-0.8s8.1-0.7,10.2-0.8
	c2.1-0.1,4.8-0.5,6-0.8s6-0.6,10.6-0.6s8.7-0.1,9.1-0.3c1-0.3,13.9-1,17-0.9c1.4,0.1,2.9,0.4,3.3,0.9c1,0.9,3.7,1,16,0.6
	c5.7-0.2,10.9-0.7,12.6-1.2c2.2-0.6,5.9-0.8,15.7-0.7c7.1,0,18.8-0.1,26.1-0.3c14.8-0.5,14-0.5,29.3,0.2c9.9,0.4,15.6,0.4,24.3,0.1
	c1.5-0.1,2.3-0.2,1.8-0.4c-0.5-0.1-1-0.5-1-0.8c0-0.4,1.5-0.5,4.6-0.3c2.5,0.2,10,0.6,16.7,0.9s15.3,0.8,19,1.1
	c15.2,1.3,21.1,1.7,29,2.2c19.8,1.3,30.2,1.8,41.1,2c5,0.1,11.2,0.4,13.8,0.6s6.4,0.4,8.6,0.3c2.1,0,6.3,0.2,9.4,0.5
	s12.9,0.7,21.9,0.8c9,0.1,17.4,0.5,18.8,0.8c1.3,0.3,4.4,0.7,6.8,0.8c2.4,0.2,5.1,0.4,6.1,0.6c3.3,0.5,8.4,0.9,15.8,1.1
	c6.6,0.2,12.9,0.7,22.4,1.7c1.5,0.2,3.6,0.4,4.7,0.5c1.1,0.1,3.8,0.3,6.1,0.5s6.1,0.5,8.6,0.7c2.4,0.2,4.5,0.4,4.7,0.5
	s1.7,0.3,3.4,0.5s3.5,0.5,3.9,0.6c0.4,0.2,3,0.4,5.7,0.5c7.4,0.2,7.4,0.2,7.4,1.1c0,0.5,0.3,0.8,0.6,0.8s0.4-0.3,0.2-0.6
	c-0.3-0.4-0.1-0.5,0.6-0.3c0.5,0.2,1.5,0.4,2.2,0.4c0.8,0,1.2,0.4,1.3,1.1c0.1,1.3-0.2,1.4-1.3,0.3c-1.2-1.2-2.4-1.1-2.1,0.1
	c0.2,0.6,0.1,0.7-0.2,0.3s-1.9-0.5-4.9-0.2c-5.2,0.4-9.1,0.3-16.3-0.5c-2.9-0.3-6.6-0.7-8.3-0.9s-3.3-0.4-3.7-0.5s-0.8,0.2-1,0.6
	c-0.2,0.6-0.8,0.7-2,0.5c-2-0.4-3.2-0.6-8.5-1.1c-2.1-0.2-4-0.5-4.2-0.6c-0.4-0.2-7.8-0.3-17.9-0.1c-6.4,0.1-10.9-0.2-14.3-1
	c-1.9-0.5-15.2-0.6-15.2-0.2c0,0.2,1.7,0.6,3.7,0.8s4.2,0.5,4.8,0.6c4.3,0.8,15.7,1.8,24.8,2.1c2.1,0.1,4.1,0.3,4.4,0.5
	c0.5,0.3,17.4,1.7,18.3,1.4c0.2-0.1,2.3,0.1,4.5,0.3c3.5,0.3,12.5,1,14.8,1.1c0.8,0,0.9,0.7,0.2,1.2c-0.5,0.3-4.7,0.4-8.5,0.2
	c-1.2-0.1-2.3-0.5-2.5-0.9c-0.3-0.5-1.3-0.6-3.7-0.4c-1.8,0.2-3.4,0.5-3.6,0.6c-0.2,0.1-0.7-0.2-1.2-0.6c-0.5-0.5-1-0.6-1.1-0.4
	c-0.3,0.5-11.5,0.3-14.7-0.3c-1.1-0.2-2.9-0.4-4.2-0.5c-1.2-0.1-2.8-0.4-3.5-0.8c-1-0.5-1.2-0.5-1.2,0.1c0,0.4-0.7,0.8-1.8,0.9
	c-4.4,0.4-10.5,0.3-15.3-0.1c-3.5-0.3-5-0.3-4.4,0.1c2.2,1.5-1.9,2.2-8.3,1.5c-5.6-0.6-6.6-0.7-9.1-0.3c-1.3,0.2-3,0.2-3.9-0.1
	c-2.4-0.6-14.7-1.8-20.1-1.8c-2.6,0-6.3-0.2-8.3-0.4s-5.9-0.5-8.8-0.7s-9.7-0.6-15.2-1.1s-13.6-1-18.1-1.2c-7.3-0.3-8.2-0.3-8.5,0.5
	s-1.3,0.9-6.5,0.9c-3.4,0-7.3,0.2-8.6,0.4l-2.5,0.4l4.1,0.6c2.3,0.3,5,0.6,6.1,0.6s5.4,0.4,9.7,0.8c4.3,0.5,12.3,1.1,17.9,1.5
	c5.6,0.3,10.8,0.7,11.4,0.9c0.7,0.1,6.3,0.5,12.4,0.8c11.1,0.5,18.8,1,24.7,1.4c1.7,0.1,7.4,0.5,12.7,0.8s10.1,0.7,10.5,0.8
	s1.3,0.4,1.9,0.7c0.6,0.2,2.1,0.5,3.2,0.6c1.2,0.1,2.4,0.5,2.8,1c0.5,0.7,1.9,0.9,7,1c3.5,0.1,6.6,0.3,6.9,0.5
	c0.3,0.2,2.4,0.5,4.7,0.7c10.9,0.9,21.8,1.5,26.8,1.7c3,0.1,9.5,0.6,14.4,1.1s11.1,1,13.8,1.1c18.9,0.7,34,1.6,42,2.4
	c2.7,0.3,7.5,0.7,10.6,0.9s5.8,0.6,6,0.8c0.2,0.3-0.5,0.5-1.5,0.5s-2.5,0.1-3.4,0.2c-0.9,0.1-1.7-0.1-1.8-0.3s-1.2-0.1-2.3,0.2
	s-3.6,0.4-5.7,0.2c-2-0.2-12.6-0.5-23.5-0.6s-24-0.4-29-0.6c-8.9-0.3-11.5-0.1-5.6,0.5c1.6,0.2,3.1,0.4,3.2,0.6
	c0.4,0.4-1.6,1.4-3.3,1.6c-2,0.3-2.6,1-0.9,1c0.7,0,4.6,0.3,8.5,0.6s11.7,0.7,17.3,0.8c9.1,0.3,10.1,0.4,10.1,1.3
	c0,1.2,2.2,1.5,15.6,2c5.4,0.2,9.9,0.6,10.1,0.8c0.2,0.3,1.4,0.5,2.7,0.5c4.5,0,3.3,1.5-2.3,2.8c-1.6,0.4-3.7,0.6-4.7,0.5
	c-6.7-0.4-5,0.7,2.6,1.6c3,0.4,7.3,0.8,9.4,0.9c2.1,0.1,6,0.5,8.6,0.8s7.8,0.7,11.6,0.9c4.7,0.2,7.1,0.6,7.5,1.1
	c0.3,0.4,2.3,0.9,4.4,1.1c2.1,0.2,4.1,0.7,4.4,1s2.4,0.8,4.6,1c2.2,0.2,4.6,0.7,5.3,1.2c0.8,0.5,3.2,0.9,6.5,1.1
	c7.1,0.3,12.7,1,13,1.5s-4.5,1.3-5.3,0.8c-0.3-0.2-0.6-0.1-0.6,0.2c0,0.3,0.9,0.7,1.9,0.9c2.1,0.4,2.5,1.1,1,1.7
	c-1.8,0.7,0.7,1.8,6.4,2.8c4.8,0.8,7.8,1.9,5.6,1.9c-2.1,0,1.1,1,4.4,1.4c2,0.2,3.9,0.6,4.2,0.9s2.2,0.8,4.1,1.1
	c5.3,0.9,5.3,1.5-0.2,2c-2,0.2-3.9,0.6-4.5,1.1c-0.8,0.7-1.7,0.8-5.2,0.5c-7.1-0.7-8.5-0.5-9.6,0.9c-0.5,0.7-0.8,1.4-0.7,1.6
	s1.9,0.6,4,0.8c2,0.2,4,0.6,4.3,0.8c0.3,0.2,1.7,0.6,3.2,0.8c4,0.6,3.1,1.4-1.4,1.4c-2.2,0-4.2,0.2-4.5,0.4
	c-0.2,0.2-2.5,0.4-5.1,0.4c-3.3,0-4.8,0.2-5,0.7s0.4,0.7,1.9,0.7c1.2,0,3,0.2,4,0.5c1.1,0.3,4,0.7,6.6,0.9c2.6,0.2,5,0.6,5.3,0.9
	s0.8,0.4,0.9,0.2s0.9-0.1,1.6,0.1c1,0.4,0.4,0.5-2.6,0.8c-3.5,0.3-7.5,1.1-9.7,1.9c-1.3,0.5,0.7,1.1,7,1.9c3.1,0.4,5.7,0.9,5.7,1.1
	s1.6,0.2,3.6,0.1c2.9-0.2,3.6-0.1,3.6,0.6c0,1-1.7,2.6-2.8,2.6c-0.6,0-0.6-0.1,0-0.5c0.7-0.5,0.7-0.5-0.2-0.5
	c-0.5,0-1.1,0.4-1.3,0.8c-0.3,0.7-1.3,0.8-6.7,0.6c-6.9-0.3-8.5,0.1-7.3,1.6c2.1,2.5,10.7,5.3,16.7,5.3c3.6,0,5.5,0.7,5.5,2
	c0,0.6-0.9,0.8-4.3,0.8c-2.4,0-5.3-0.3-6.5-0.6c-1.2-0.3-6.9-0.7-12.7-0.8c-10.2-0.2-10.5-0.2-10.6,0.9c-0.1,1.1,0.6,1.8,1.8,2
	c0.3,0,2.7,0.5,5.3,1c8.5,1.6,16.1,2.6,23.9,3.1c7.2,0.5,9.6,1.1,8.9,2.3c-0.2,0.3-0.5,0.4-0.8,0.2s-0.5,0-0.4,0.4s-0.3,0.7-0.8,0.7
	s-0.8,0.1-0.7,0.4c0.1,0.2-0.6,0.6-1.6,0.8c-2.2,0.4-2.8,1.4-1.6,3c0.6,0.9,0.7,1.4,0.2,1.9c-0.7,0.9-0.2,1.4,1.1,1.4
	c0.6,0,1,0.1,1,0.2s0.2,0.7,0.4,1.2c0.3,0.9,0,0.9-4.6,0.6c-2.7-0.2-5.9-0.5-7-0.7c-1.6-0.3-2.1-0.2-2.1,0.5c0,0.5-0.4,1.1-0.9,1.4
	c-1.3,0.7-0.5,3.9,1.1,4.5c1.1,0.5,1.1,0.5,0.1,0.6c-1.1,0.1-1.1,0.1,0,0.5c1.1,0.5-0.4,0.7-6.1,0.8c-2.4,0.1-4.1,0.8-4.1,1.7
	c0,0.5-0.6,0.8-1.5,0.8c-0.8,0-2.1,0.2-2.8,0.3c-1.2,0.3-1.2,0.4-0.3,1.1c0.5,0.4,1.7,0.8,2.5,0.8s3.1,0.9,5.2,1.9
	c2,1.1,4.4,1.9,5.4,1.9c3.3,0,8.6,0.7,8.3,1.1c-0.1,0.2,0.2,0.4,0.7,0.3c0.5,0,1,0.4,1.1,0.9c0.3,1.2-3,3.3-4.7,3
	c-0.7-0.1-1.3,0.1-1.4,0.4c-0.3,0.8-6.7,1-9.3,0.3c-1.1-0.3-6.7-0.6-12.6-0.7c-9.8-0.1-12.7,0.1-9.1,0.9c0.8,0.2,2.6,0.6,4,0.9
	c1.4,0.3,3.5,0.6,4.8,0.6s2.3,0.3,2.3,0.6s0.4,0.6,0.9,0.6s1.4,0.3,2,0.6c1.1,0.6,1.1,0.6-0.2,1.3c-2.3,1.1-1.6,2.2,2.2,3.4
	c2,0.6,3.7,1.5,3.8,1.9s0.5,0.9,0.7,1.1c0.8,0.6-0.2,2.3-1.1,1.9c-0.5-0.2-0.7-0.2-0.5,0s-0.3,1-1.1,1.7c-1,1-2,1.4-3.8,1.5
	c-1.3,0.1-2.3,0.3-2.1,0.5c0.1,0.2-2.2,0.2-5.1,0.1c-4.2-0.2-5.5-0.1-6.2,0.6c-1,0.9-6.5,1.3-9.3,0.7c-1.1-0.3-1.9-0.2-2.1,0.2
	c-0.2,0.3-1,0.6-1.7,0.6c-1.7,0-3,0.5-3,1.2c0,0.3,0.4,0.5,0.8,0.5s1,0.4,1.3,0.8c0.3,0.5,2.4,1.2,5.7,1.9
	c6.4,1.2,11.1,3.1,10.6,4.3c-0.2,0.4-0.7,0.7-1.1,0.5c-0.4-0.2-0.6-0.1-0.5,0.2c0.2,0.3-0.3,1.3-1.1,2.2c-1.1,1.3-1.7,1.6-2.6,1.4
	c-0.6-0.2-1-0.1-0.8,0.2s-0.6,0.5-1.6,0.6c-1.1,0-3.7,0.5-5.8,1l-3.9,0.9l1.2,1.3c0.7,0.7,1.5,1.3,1.7,1.3c0.3,0,1.4,0.4,2.4,0.9
	c1.8,0.9,1.9,1,1.1,2.2c-0.5,0.8-0.6,1.4-0.3,1.6c0.3,0.2,0.4,0.6,0.2,0.9c-0.2,0.4-0.5,0.3-0.8-0.2s-0.6-0.6-0.9-0.2
	c-0.2,0.3-1.2,0.9-2.1,1.4l-1.7,0.8l1.7,0.2c1.9,0.2,2.9,1.6,1.5,2.1c-0.5,0.2-1,0.2-1.1,0c-0.2-0.2-1.1,0.2-2.1,0.7
	c-1,0.6-2.8,1.2-3.9,1.4c-1.2,0.2-2.4,0.7-2.8,1.1c-1,1-1.3,0.9-6.5-0.4c-4.6-1.2-5.9-1.1-7.8,0.7c-1.1,1-1.5,1-4.4,0.5
	c-3.8-0.7-10.9-0.8-10.5-0.1c0.2,0.3,2.1,0.8,4.3,1.1c5.6,1,6.3,1.2,5.4,1.7c-1.6,1,5.6,3.3,12.6,4.1c1.9,0.2,3.6,0.6,3.7,0.8
	s-0.3,1.1-0.9,1.9c-1.1,1.4-1.1,1.5-0.3,2.5c0.5,0.5,0.9,1.1,0.9,1.3c0,0.7-9.3-0.3-12.4-1.3c-4.4-1.4-13.4-2.5-14.2-1.7
	c-0.4,0.4-0.4,0.8,0,1.3c0.6,0.7,1.5,1,8.8,3c2.3,0.6,3.5,1.2,3.5,1.8c0,0.7-0.7,0.8-4.1,0.5c-2.6-0.2-4.2-0.2-4.4,0.2
	c-0.2,0.3,0,0.6,0.3,0.6c0.4,0,0.5,0.1,0.4,0.3c-0.4,0.4-8.2-1.3-9-1.9c-0.6-0.5-8.7-1.7-10.4-1.6c-0.5,0-1,0.4-1,0.8
	s-0.1,1-0.3,1.4c-0.3,0.7,6.5,2.1,18.1,3.8c1.7,0.3,4.1,0.8,5.2,1.3c1.1,0.5,2.8,0.8,3.7,0.8c2.5,0,6.1,1.1,5.5,1.7
	c-0.3,0.3-3.6,0.6-7.5,0.6c-3.8,0.1-6.9,0.2-6.9,0.3c0.1,0.1,1.3,0.6,2.8,1.2c2.6,1,2.7,1.1,1.5,1.7c-0.9,0.5-1.9,0.5-4,0.1
	c-3.4-0.7-3.8-0.7-3.8-0.1c0,0.3,0.7,0.7,1.6,0.9c3,0.7,2.4,1.4-1.3,1.4c-2.1,0-4.2,0.4-5.3,0.9c-1,0.5-2.2,0.7-3,0.5
	c-1.6-0.5-27.5-0.7-27.2-0.2c0.6,1-6.6,1-12.8,0c-12.5-2.1-23.2-3.3-30-3.4c-3.8,0-9.5-0.4-12.7-0.8c-3.2-0.4-8.9-1-12.6-1.3
	c-3.8-0.3-7-0.7-7.2-0.8s-2.2-0.4-4.5-0.6s-5-0.5-6.1-0.6c-2.2-0.3-12.3-0.8-19.6-1.1c-5.3-0.2-13.3-0.7-18.8-1.2
	c-1.8-0.2-8.9-0.4-15.7-0.5s-14.9-0.4-17.9-0.7c-3-0.2-11.4-0.4-18.7-0.4c-10.9,0-13.2,0.2-13.7,0.9c-0.4,0.7-0.6,0.7-1,0
	c-0.3-0.5-1-0.7-2.1-0.4c-0.9,0.2-1.9,0.1-2.2-0.3c-0.3-0.3-1.4-0.7-2.4-0.7c-1-0.1-2.3-0.3-2.9-0.4c-3.3-1-6.8-1.3-8.1-0.7
	c-1.1,0.5-3.9-0.1-3.5-0.7c0.1-0.2-2.5-0.5-5.9-0.6c-9.1-0.2-10.1-0.3-11.1-1.2c-0.8-0.7-0.9-0.7-0.8,0.3c0.1,0.7-0.1,1-0.6,0.9
	s-1.4-0.2-2.1-0.2s-1.2-0.2-1.2-0.4s-0.4-0.6-0.9-0.8c-0.6-0.2-0.8-0.1-0.6,0.5s0.1,0.7-0.4,0.4c-0.4-0.2-3-0.5-5.9-0.6
	c-6.1-0.2-5.2-0.2-33.7-0.1c-12,0-23.3-0.1-25.2-0.3s-3.8-0.2-4.3,0c-0.9,0.4-19,1.1-24.5,1c-4.3-0.1-9.2,2.5-6.5,3.4
	c0.4,0.1,0.1,0.5-0.7,1c-0.8,0.4-1.5,0.9-1.7,1.2c-0.6,0.9-5.3,1.4-6.6,0.7c-0.8-0.4-3.1-0.6-6.6-0.5c-2.9,0.1-12.5,0.3-21.2,0.5
	c-8.8,0.2-16.5,0.4-17.3,0.6c-0.7,0.2-3.9,0.4-7,0.4s-6.1,0.4-6.7,0.7c-1.1,0.6-6.2,1.6-7.1,1.4c-1.1-0.3-3-0.2-4.8,0.2
	c-1.1,0.2-2.4,0.4-3,0.3c-0.6-0.1-1.6-0.1-2.2-0.2c-0.6-0.1-3.5,0.2-6.3,0.6c-2.9,0.4-6.3,0.6-7.6,0.6c-1.3,0-2.7,0.2-3,0.5
	c-0.4,0.3-1.5,0.7-2.4,0.9c-1.5,0.3-1.8,0.2-1.8-0.6s-0.5-0.9-4-0.5c-2.2,0.2-8,0.4-12.8,0.5c-4.9,0.1-10.2,0.4-11.8,0.8
	c-1.6,0.4-3.1,0.6-3.2,0.6s0,0.4,0.4,0.8c0.4,0.5,1.5,0.8,2.6,0.8c1,0,1.9,0.1,1.9,0.2s0.2,0.6,0.3,1.1c0.5,1.2-1.1,1.1-2.3-0.1
	c-0.7-0.7-1-0.8-1.2-0.3c-0.1,0.4-0.5,0.5-0.7,0.4c-0.3-0.2-0.5-0.1-0.5,0.1s-0.6,0.5-1.2,0.5c-0.7,0-4.5,0.3-8.4,0.7
	s-11.9,0.7-17.7,0.8c-5.8,0.1-11.1,0.4-11.9,0.5c-2.6,0.6-16.7,1.9-24.3,2.2c-14,0.7-24.7,2.7-26.9,5.1c-0.7,0.7-1.9,1.3-2.8,1.4
	c-7.1,0.2-17.1,1-21.4,1.6c-1.8,0.3-5,0.6-7.1,0.8s-5,0.6-6.6,0.9s-2.9,0.5-3,0.5S260.9,266.8,260.9,266.1L260.9,266.1z M260.9,261
	c0-0.6-0.2-0.6-1.1-0.2c-0.6,0.3-1,0.9-0.8,1.4c0.2,0.6,0.5,0.7,1.1,0.2C260.5,262.1,260.9,261.5,260.9,261z M353.9,252.8
	c2.2-0.8,2.1-0.8-2.5-0.5c-10.5,0.6-13.8,0.9-13.8,1.3C337.6,254.3,351.6,253.7,353.9,252.8z M97.5,246.2c0-0.1-0.4-0.2-0.8-0.2
	c-0.5,0-0.8,0.2-0.8,0.5s0.4,0.4,0.8,0.2S97.5,246.3,97.5,246.2z M137.5,244.3c0.2-0.3-0.3-0.6-1-0.6c-0.8,0-1.5,0.2-1.7,0.6
	c-0.2,0.3,0.3,0.6,1,0.6C136.5,244.8,137.3,244.6,137.5,244.3z M111.3,241.5c0-0.6-0.7-0.6-1.9-0.2c-1.4,0.5-1,1.2,0.5,0.9
	C110.6,242.1,111.3,241.7,111.3,241.5z M423.6,241.4c1.9-0.5,2.1-0.7,1.2-0.9c-1.5-0.3-19,0.4-28.5,1.2c-2.6,0.2,17.2,0.8,21.3,0.6
	C419.6,242.1,422.3,241.7,423.6,241.4L423.6,241.4z M442.8,239.7c0.6-0.1-0.5-0.2-2.5-0.2c-4.7,0.1-6.6,0.6-3.6,1
	c1.2,0.2,2.8,0.1,3.6-0.1C441.1,240.1,442.2,239.8,442.8,239.7z M90.5,239.8c1.1,0,1.1-0.1-0.1-0.6c-1.5-0.6-2.8-0.3-2.8,0.6
	c0,0.3,0.4,0.5,0.9,0.3C88.9,240,89.8,239.8,90.5,239.8z M451.1,239.2c0.1-0.1-0.8-0.3-2.2-0.4c-1.3-0.1-2.6,0.2-2.8,0.5
	c-0.3,0.4,0.4,0.5,2.2,0.4C449.7,239.6,450.9,239.4,451.1,239.2z M882.8,232.7c0.2-0.3-0.7-0.5-2.3-0.5c-2.4,0.1-2.5,0.1-1,0.5
	C881.9,233.3,882.4,233.3,882.8,232.7z M31.9,224.6c-0.4-0.2-0.9-0.1-1.1,0c-0.2,0.2,0.1,0.3,0.7,0.3
	C32.2,224.9,32.3,224.8,31.9,224.6z M38.4,223.9c1.1-0.4,1.2-0.4,0.3-0.5c-0.6,0-1.6,0.2-2.2,0.5C35,224.5,36.5,224.5,38.4,223.9z
	 M45.8,224.1c0.5-0.2,0.9-0.8,0.9-1.3c0-0.8-0.3-0.9-2.3-0.7c-2.5,0.3-4.2,1.3-2.2,1.3c0.7,0,1.3,0.2,1.5,0.6
	C44,224.5,44.6,224.5,45.8,224.1L45.8,224.1z M942.7,214.5c0-0.3-0.4-0.5-1-0.5c-0.8,0-0.8,0.1-0.1,0.5
	C942.6,215.1,942.7,215.1,942.7,214.5z M59.5,192c-0.4-0.2-0.9-0.1-1.1,0c-0.2,0.2,0.1,0.3,0.7,0.3C59.8,192.3,59.9,192.2,59.5,192z
	 M54.9,190.4c0-0.9-1.5-1-3.6-0.2c-2.2,0.8-1.7,1.4,1.1,1.2C54.1,191.2,54.9,190.9,54.9,190.4z M65.2,190.8
	c-0.6-0.9-2.5-1.1-2.5-0.3c0,0.5,0.6,0.8,1.4,0.8S65.4,191.1,65.2,190.8z M61,190.2c0.6-0.4,0.3-0.5-1.2-0.5c-1.1,0-2.1,0.2-2.1,0.5
	C57.7,190.9,59.9,190.9,61,190.2z M981.3,125.6c0-0.3-0.2-0.6-0.6-0.6c-0.3,0-0.6,0.2-0.6,0.6s0.2,0.6,0.6,0.6
	C981.1,126.1,981.3,125.9,981.3,125.6z M985.3,115.3c-0.4-0.2-1-0.2-1.4,0s-0.1,0.3,0.7,0.3S985.7,115.4,985.3,115.3z M977.1,108.6
	c-0.7-0.1-1.8-0.1-2.5,0s-0.1,0.2,1.2,0.2C977.2,108.9,977.7,108.8,977.1,108.6z M951.5,104.2c0-0.2-2-0.7-4.6-1.1
	c-2.5-0.4-5.2-0.8-5.9-1c-0.8-0.2-1.2-0.2-1,0.2c0.2,0.3,2.5,0.9,5.2,1.2s5.1,0.8,5.4,0.9c0.3,0.1,0.6,0.2,0.7,0.2
	C951.5,104.6,951.5,104.4,951.5,104.2L951.5,104.2z M146.3,99.1c1-0.4,0.9-0.5-0.4-0.5c-0.8,0-1.6,0.2-1.8,0.5
	C143.7,99.7,144.8,99.7,146.3,99.1z M947.7,95.8c0-0.3-2.5-0.8-5.5-1.1c-6.9-0.8-8.1-0.8-7.4-0.1c0.3,0.3,3.3,0.8,6.6,1
	s6.1,0.5,6.2,0.6C947.6,96.3,947.7,96.1,947.7,95.8L947.7,95.8z M115.3,89.2c0.2-0.3-0.1-0.5-0.5-0.5s-0.8,0.2-0.8,0.5
	s0.2,0.5,0.5,0.5S115.2,89.5,115.3,89.2z M189.2,88.2c-0.4-0.2-0.9-0.1-1.1,0c-0.2,0.2,0.1,0.3,0.7,0.3
	C189.5,88.5,189.6,88.4,189.2,88.2L189.2,88.2z M103.5,87.5c0-0.3-0.4-0.5-1-0.5c-0.8,0-0.8,0.1-0.1,0.5
	C103.5,88.2,103.5,88.2,103.5,87.5z M105.7,86.6c0-0.1-0.2-0.2-0.6-0.2c-0.3,0-0.6,0.3-0.6,0.6s0.2,0.4,0.6,0.2
	C105.5,87,105.7,86.8,105.7,86.6z M137.2,82.8c0.8-0.2,3.1-0.6,5.2-0.8c2.1-0.3,4.7-0.7,5.8-1s1.9-0.6,1.9-0.5c0,0.2,3.8-1,5.7-1.8
	c2.8-1.2,3-2.1,0.4-2.1c-1.3,0-1.9-0.2-1.9-0.8c0-0.8,2.5-1.2,6.6-0.9c1.8,0.1,6.9-0.8,8.1-1.5c0.9-0.5-1.9-1.1-5.5-1.1
	c-2.4,0-4.4,0.3-6.9,1.3c-1.9,0.8-4,1.4-4.7,1.4c-0.9,0-1,0.1-0.3,0.5c0.4,0.3,1,0.4,1.2,0.2c0.2-0.1,0.4,0,0.4,0.2
	c0,0.5-1.2,0.8-5.4,1.6c-1,0.2-2,0.7-2.1,1.1c-0.2,0.6-0.5,0.6-1.2,0.1c-0.7-0.6-0.8-0.6-0.5,0.2c0.2,0.6,0,0.8-0.9,0.8
	c-0.7-0.1-2,0.1-3,0.4c-1.3,0.3-2.1,0.3-2.6-0.2c-0.4-0.4-0.8-0.4-0.8-0.1c0,0.6-4.2,2.4-5.7,2.4c-0.5,0-0.9,0.3-0.9,0.8
	c0,0.6,0.7,0.7,2.9,0.6C134.5,83.2,136.4,83,137.2,82.8z M159.9,62.8c-0.4-0.1-1,0-1.3,0.3c-0.4,0.4-0.2,0.5,0.7,0.2
	C160.1,63.1,160.3,62.9,159.9,62.8z M826.8,60.6c0-0.2-0.8-0.5-1.7-0.5c-1-0.1-1.5,0.1-1.3,0.4C824.1,61.1,826.8,61.2,826.8,60.6z
	 M161.5,57.1h1.4l-1.3-0.5c-1.5-0.6-4-0.1-4,0.7c0,0.3,0.6,0.4,1.2,0.2C159.6,57.3,160.7,57.1,161.5,57.1L161.5,57.1z M822.3,57.2
	c0-0.3-0.4-0.5-0.8-0.5c-0.5,0-0.8,0.2-0.8,0.5s0.4,0.5,0.8,0.5C822,57.7,822.3,57.5,822.3,57.2z M824.7,57.3
	c-0.4-0.2-0.9-0.1-1.1,0c-0.2,0.2,0.1,0.3,0.7,0.3C825,57.6,825.1,57.5,824.7,57.3L824.7,57.3z M171,56.2c-0.4-0.2-0.9-0.1-1.1,0
	c-0.2,0.2,0.1,0.3,0.7,0.3C171.3,56.5,171.4,56.4,171,56.2L171,56.2z M109,55.5c0-0.3-0.2-0.6-0.6-0.6c-0.3,0-0.6,0.2-0.6,0.6
	c0,0.3,0.2,0.6,0.6,0.6C108.8,56,109,55.8,109,55.5z M123.4,54c0-0.6-1-0.1-1.3,0.7s-0.2,0.8,0.5,0.2C123,54.5,123.4,54.1,123.4,54z
	 M128.9,54.1c0-0.5-0.1-0.8-0.2-0.8s-0.4,0.4-0.5,0.8c-0.2,0.5-0.1,0.8,0.2,0.8S128.9,54.5,128.9,54.1z M851.7,35.2
	c-0.4-0.2-0.9-0.1-1.1,0c-0.2,0.2,0.1,0.3,0.7,0.3C852,35.5,852.1,35.4,851.7,35.2L851.7,35.2z M343.4,24c0.2-0.3,0.1-0.7-0.2-0.8
	c-0.3-0.2-0.6,0.1-0.8,0.5C342,24.6,342.9,24.9,343.4,24z M81.3,261c-0.3-0.4-0.4-0.7-0.1-0.7s0-0.3-0.6-0.6
	c-1.5-0.8-0.2-1.6,2.7-1.5c1.5,0,1.8,0.2,1.1,0.4c-1.1,0.3-1.8,1.7-1,1.7c1.6,0,2.8-0.8,2.5-1.6c-0.2-0.8-0.2-0.8,0.5,0.1
	c0.9,1.1,5.1,1.4,5.5,0.3c0.2-0.5,0.4-0.5,1.1,0c1.1,0.9,1.7,3,0.8,2.7c-0.4-0.1-0.6-0.6-0.5-1c0.1-0.5-0.1-0.5-0.8,0.2
	c-0.8,0.7-2,0.9-5.9,0.8C83.7,261.7,81.7,261.4,81.3,261z M73.8,259.8c-0.7-0.5-0.4-1.7,0.5-1.7c0.6,0,1.2,1.6,0.7,1.9
	C74.7,260.1,74.2,260,73.8,259.8L73.8,259.8z M85.4,255.3c-0.6-1-0.5-1.1,0.6-1.2c0.7,0,1.6-0.1,2.1-0.2c1.5-0.2,1.7,0.3,0.8,1.4
	C87.6,256.7,86.3,256.7,85.4,255.3z M419.9,251.2c0-0.1,0.2-0.4,0.6-0.6s0.6-0.1,0.6,0.2s-0.2,0.6-0.6,0.6S419.9,251.3,419.9,251.2z
	 M426.3,250.8c0.4-0.4,0.8-0.5,1-0.4c0.2,0.2-0.1,0.5-0.7,0.7C425.9,251.4,425.8,251.4,426.3,250.8z M130,249.3
	c0-0.3,0.4-0.8,0.9-1.2c0.7-0.5,1-0.6,1.5,0c0.5,0.5,0.5,0.8-0.2,1.2C131.2,249.9,130,249.9,130,249.3z M753.3,244.3
	c0-0.3,0.4-0.6,0.8-0.6s0.9,0.2,1.1,0.6s-0.2,0.6-0.8,0.6C753.8,244.8,753.3,244.6,753.3,244.3z M743.9,243.7c0-0.6,1.5-0.7,1.9-0.1
	c0.1,0.2-0.2,0.5-0.8,0.5C744.4,244.2,743.9,244,743.9,243.7L743.9,243.7z M196.4,242.8c-0.5-1.3,0.3-1.5,2.2-0.5
	c1,0.5,1.6,0.9,1.3,1C197.5,243.6,196.7,243.5,196.4,242.8z M673.8,241.5c0-0.3,0.1-0.6,0.2-0.6s0.4,0.2,0.6,0.6s0.1,0.6-0.2,0.6
	S673.8,241.8,673.8,241.5z M665.9,241c-0.2-0.4-0.3-0.8-0.1-1c0.5-0.5,1,0.2,0.8,1C666.3,241.6,666.2,241.6,665.9,241z M667.9,241.2
	c-1.1-0.5-0.8-1.2,0.4-0.9c0.6,0.2,1.1,0.5,1.1,0.8C669.4,241.6,669,241.6,667.9,241.2L667.9,241.2z M932.6,238.4
	c-0.6-0.6-0.4-1.3,0.5-1.3c0.5,0,0.8,0.4,0.8,0.8C933.9,238.8,933.2,239,932.6,238.4z M247.4,235c-0.1-0.2,0.2-0.5,0.8-0.5
	s0.9,0.2,0.8,0.4C248.6,235.6,247.8,235.6,247.4,235z M252.4,234.1c0.2-0.5,0.7-0.8,1.2-0.9c0.5,0,2-0.2,3.4-0.3
	c1.8-0.2,2.3-0.1,1.7,0.3c-0.7,0.5-0.7,0.6,0,0.6c0.4,0,0.6,0.2,0.4,0.4s-1.8,0.4-3.7,0.5C252.6,234.8,252.1,234.7,252.4,234.1
	L252.4,234.1z M27.1,232.7c-0.4-0.7,0.6-1.3,1.4-0.9c0.6,0.4,0.2,1.4-0.6,1.4C27.6,233.2,27.3,233,27.1,232.7z M32.3,218.4
	c0-0.3,0.2-0.7,0.5-0.9s0.4,0,0.2,0.5C32.7,219,32.3,219.2,32.3,218.4z M36.4,218.1c0-0.4,0.2-0.7,0.5-0.5s0.3,0.5,0.2,0.8
	C36.5,219.1,36.4,219,36.4,218.1z M998.5,146c-0.5-0.3-0.6-0.5-0.3-0.5s0.9,0.2,1.4,0.5s0.6,0.5,0.3,0.5S998.9,146.3,998.5,146z
	 M91.4,105c0-0.2,0.5-0.4,1.1-0.4s1.1,0.2,1.1,0.5s-0.5,0.5-1.1,0.4C91.9,105.5,91.4,105.3,91.4,105z M114.5,96.9l-1.3-1l3.3-0.4
	c1.8-0.2,4.6-0.5,6.2-0.5s2.9-0.2,2.9-0.4c0-0.4,3.3,0.4,3.8,1c0.2,0.2-0.4,0.2-1.4,0c-1-0.2-2.3,0-3.3,0.5
	c-0.9,0.5-2.9,0.9-4.5,0.9s-2.9,0.3-2.9,0.5C117.3,98.3,115.8,98,114.5,96.9L114.5,96.9z M107.5,97.1c0.2-0.2,0.7-0.2,1.1,0
	s0.3,0.3-0.3,0.3S107.4,97.3,107.5,97.1z M97.5,89.5c0-0.6,0.1-0.9,0.3-0.7c0.2,0.2,0.2,0.7,0,1.1C97.7,90.2,97.5,90.1,97.5,89.5z
	 M112.6,84.8c0.2-0.2-0.2-0.9-0.8-1.4c-1.1-1-1.1-1,2.3-2.6c4-1.9,4.4-2,4.4-0.5c0,0.7-0.4,1.1-1,1.1c-0.8,0-0.8,0.1-0.2,0.5
	c0.4,0.3,1.2,0.4,1.8,0.3c0.6-0.1,1,0.1,1,0.4s-0.8,0.5-1.8,0.5c-1-0.1-2.3-0.1-2.9,0c-0.9,0.1-1,0.2-0.3,0.6
	c0.7,0.5,0.7,0.5-0.1,0.5c-0.5,0-1,0.3-1,0.6s-0.4,0.6-0.9,0.6S112.4,85.1,112.6,84.8z M119.6,80.4c-0.6-0.3-0.5-0.6,0.1-1.1
	c0.9-0.7,1.6-0.1,1,0.9C120.5,80.5,120,80.6,119.6,80.4z M100.5,57.1c-0.2-0.3,0-0.6,0.5-0.6s1,0.2,1.2,0.6c0.2,0.3,0,0.6-0.5,0.6
	S100.7,57.4,100.5,57.1z M111.8,54.6c0.8-1,1.1-1.1,1.1-0.3c0,0.3-0.4,0.6-0.9,0.8C111.3,55.4,111.2,55.4,111.8,54.6z M892.1,45.7
	c0.6-0.6,4.2-1.2,4.9-0.7c0.4,0.3,0.5,0.5,0.2,0.5C894.2,45.9,891.8,46,892.1,45.7L892.1,45.7z M888.7,45.1c-0.5-0.3-0.1-0.5,1-0.5
	c0.9,0,1.7,0.2,1.7,0.5C891.3,45.7,889.6,45.6,888.7,45.1z M874.5,44.4c-2.4-0.5-8.1-0.9-18.8-1.2c-3.7-0.1-7.2-0.5-7.9-0.8
	c-0.7-0.4-3.2-0.6-6.2-0.5c-2.7,0.1-5,0.1-5,0c0-0.2,3.2-1.8,3.6-1.8c0.2,0,0.2,0.2,0,0.6c-0.2,0.3,0.4,0.6,1.3,0.6s1.7-0.2,1.7-0.6
	c0-0.3,0.3-0.6,0.6-0.6s0.4,0.3,0.2,0.7c-0.3,0.5-0.2,0.5,0.4,0.1c0.4-0.3,1.3-0.5,1.9-0.5c0.6,0,2.4,0.1,4,0.1s2.8,0.3,2.7,0.5
	s1.3,0.4,3.1,0.3c1.9,0,3.8,0.2,4.4,0.4c0.6,0.3,1,0.3,1-0.1c0-0.3,0.3-0.4,0.7-0.2s2.8,0.5,5.4,0.6c2.6,0.1,4.7,0.2,4.7,0.2
	s1.2,0.1,2.8,0.2c1.5,0.1,2.8,0.2,2.9,0.3c0.1,0.1,0.7,0.3,1.7,0.5c0.4,0.1-2.2,1.7-2.6,1.6C876.8,44.9,875.7,44.6,874.5,44.4
	L874.5,44.4z M852.2,41.6c0-0.3-0.5-0.5-1.1-0.5s-1.2,0.2-1.4,0.5s0.3,0.5,1.1,0.5C851.5,42.1,852.2,41.9,852.2,41.6z M881.7,40
	c-0.2-0.3-0.6-0.4-0.9-0.2c-0.3,0.2-0.5,0.1-0.5-0.2c0-1.1,0.9-1.1,1.6,0c0.4,0.6,0.6,1.1,0.4,1.1S881.9,40.3,881.7,40z M869.9,37.8
	c-0.6-0.6-1.2-0.9-1.3-0.8c-0.1,0.1-1.5,0.3-2.9,0.4c-2.6,0.2-5.7-1-4.9-1.8c0.6-0.6,4.5-0.5,5.3,0.2c0.9,0.7,2.4,0.7,3.1,0
	c0.6-0.6,3.4-0.5,3.8,0.2c0.5,0.9-0.3,2.8-1.1,2.8C871.3,38.9,870.4,38.4,869.9,37.8L869.9,37.8z M875.6,38.3
	c-0.2-0.4-0.2-0.5,0.2-0.3c0.3,0.2,0.8,0.1,0.9-0.2c0.5-0.8,1.2-0.7,1.2,0.3C877.9,39,876.1,39.2,875.6,38.3L875.6,38.3z
	 M230.1,34.2c0.2-0.2,0.7-0.2,1.1,0c0.4,0.2,0.3,0.3-0.3,0.3C230.2,34.5,229.9,34.3,230.1,34.2z M341.5,18.5c0-0.3,0.1-0.6,0.2-0.6
	s0.4,0.2,0.6,0.6c0.2,0.3,0.1,0.6-0.2,0.6S341.5,18.8,341.5,18.5z M354.3,18.5c-0.9-0.7-0.7-1.6,0.3-1.3c0.6,0.2,1-0.1,1.1-0.6
	s0.1-1.2,0.2-1.7s0.5-0.9,1.1-0.9s1.2-0.1,1.4-0.2c0.2-0.1,1.2-0.3,2.1-0.6c2-0.5,3.1-1.4,2.7-2c-0.2-0.3,0.2-0.5,0.8-0.5
	s1.2,0.3,1.4,0.7c0.2,0.5,0.4,0.5,0.7,0.1c0.8-1.1,2.5-1.4,3.4-0.7c0.7,0.6,0.8,0.6,0.4-0.1c-0.4-0.6-0.2-0.7,0.5-0.4
	c0.5,0.2,1.3,0.4,1.7,0.4s0.9,0.5,1.1,1c0.2,0.7,0.7,1,1.3,0.8c1.4-0.4,1.3-1.7-0.2-1.5c-1.1,0.2-1.1,0.2,0-0.3
	c0.6-0.3,1.9-0.5,3-0.6c1,0,3.4-0.3,5.2-0.6c4.8-0.8,16.9-2.1,22.4-2.5c2.6-0.2,5.8-0.4,7.2-0.5c2.9-0.3,8.6-0.7,16-1.1
	C431,5.3,435,5,437,4.8c4.7-0.4,12.2-0.4,13.2-0.1c0.5,0.2,1.9,0.5,3.2,0.7c1.3,0.2,2.3,0.6,2.3,0.8c0,0.2-0.6,1-1.4,1.8
	c-1.1,1.1-1.9,1.4-4.1,1.3c-1.7,0-2.7,0.2-2.6,0.5s2.1,0.6,4.4,0.6c3.7,0,6.1,0.8,5.3,1.5c-0.4,0.4-7.7,0.7-7.7,0.4
	c0-0.2-1.7-0.2-3.7-0.1c-2.1,0.1-5.2-0.1-6.9-0.3c-1.7-0.3-3.3-0.4-3.4-0.2c-0.1,0.1-1.3,0.3-2.6,0.4s-3.1,0.3-3.9,0.5
	c-0.9,0.3-1.8,0.2-2.2-0.2c-0.4-0.3-3.1-0.6-6-0.7c-3.6-0.1-5.2-0.3-5-0.7c0.2-0.3-0.1-0.3-0.6,0.2c-0.6,0.5-1.6,0.6-3.2,0.4
	c-1.5-0.2-2.1-0.2-1.9,0.2c0.4,0.6,0.3,0.6-4.7,0.8c-2,0.1-4.1,0.3-4.8,0.5s-1.2,0.2-1.2,0s-0.6-0.5-1.4-0.5s-1.4,0.2-1.4,0.4
	s-0.4,0.4-0.9,0.4s-0.7-0.2-0.6-0.5c0.4-0.6-5.3,0.3-5.7,0.9c-0.8,1.1-11.1,2.3-11.1,1.2c0-0.3-0.3-0.6-0.6-0.6s-0.4,0.2-0.3,0.5
	c0.5,0.8-0.8,1.3-1.6,0.6c-0.6-0.5-0.8-0.4-1,0.1s-1.1,0.7-2.5,0.6c-1.2-0.1-2.3,0.1-2.3,0.4c0,0.9-2.8,0.3-3.4-0.7
	c-0.3-0.5-0.8-0.8-1.1-0.7s-0.4,0.5-0.3,0.8c0.2,0.3-0.1,0.6-0.5,0.8c-0.4,0.2-1,0.1-1.1-0.2c-0.2-0.3-0.9-0.2-1.8,0.3
	C360.3,18,355,19,354.3,18.5L354.3,18.5z M346.4,16c0-1,0.3-1.1,0.8-0.3c0.2,0.3,0.1,0.7-0.2,0.9C346.7,16.7,346.4,16.5,346.4,16
	L346.4,16z M348.5,15.1c0.3-0.3,0.9-0.5,1.3-0.3c0.4,0.1,0.2,0.4-0.6,0.6C348.3,15.6,348.1,15.5,348.5,15.1L348.5,15.1z M538.7,13.7
	c-0.7-0.1-1.2-0.4-1.2-0.7c0-0.7,2.4-0.3,2.6,0.4c0.1,0.4,0.1,0.6,0,0.6C540,13.9,539.4,13.8,538.7,13.7L538.7,13.7z M527.3,12.4
	c1.5-0.7,2.4-0.7,1.4,0c-0.5,0.3-1.2,0.5-1.7,0.5C526.4,12.9,526.5,12.7,527.3,12.4z M530.6,12.5c-0.2-0.3,0.2-0.4,0.8-0.2
	c1.3,0.3,1.5,0.7,0.3,0.7C531.3,13,530.8,12.7,530.6,12.5z M459.5,11.2c-0.9-0.9-0.5-0.9,6.3-1c4,0,7.8-0.2,8.5-0.3s1.4,0,1.5,0.2
	c0.2,0.3,1,0.4,2,0.3c2.5-0.2,2.5,0.6,0,0.9c-1.2,0.1-2,0-1.9-0.2c0.5-0.7-0.4-0.5-1.3,0.4s-3.3,1.1-3.8,0.3c-0.2-0.4-0.7-0.4-1.4,0
	c-1.2,0.7-2.4,0.2-1.8-0.7c0.2-0.4,0.1-0.4-0.4-0.1c-0.4,0.3-2.1,0.6-3.8,0.8C461.1,12.1,460.3,11.9,459.5,11.2L459.5,11.2z
	 M503.8,11.9c0-0.3,0.1-0.6,0.2-0.6s0.4,0.2,0.6,0.6c0.2,0.3,0.1,0.6-0.2,0.6C504.1,12.4,503.8,12.2,503.8,11.9z M481.7,10.7
	c-0.5-0.3-0.6-0.5-0.2-0.5s0.8,0.2,1,0.5C483,11.4,482.8,11.4,481.7,10.7z M697.3,10.7c0.3-0.5-1.8-1-2.2-0.6c-0.6,0.6-3,0.7-3,0.1
	c0-0.4-1.6-0.4-4.3-0.2c-3.3,0.3-4.7,0.1-6.2-0.6c-1.1-0.5-1.5-0.8-1-0.6c0.5,0.1,1,0,1.1-0.2c0.1-0.3,0.5-0.6,1-0.7
	c0.5-0.1,1-0.4,1.2-0.7c0.2-0.3,0.4,0,0.4,0.7c0,1.1,0.1,1.2,1.5,0.4c1.4-0.7,1.6-0.7,2.3,0.2s0.7,0.9,0.4,0c-0.3-0.7,0-1,1-1
	c0.7,0,1.6,0.4,1.9,1c0.3,0.5,0.6,0.7,0.6,0.3c0-0.7,1.7-1,1.7-0.3c0,0.2,1.9,0.4,4.2,0.4s4.3,0.2,4.4,0.4c0.2,0.2,0.8,0.4,1.5,0.4
	c0.9,0,1,0.1,0.5,0.7C703.6,11,696.9,11.4,697.3,10.7L697.3,10.7z M706.4,10.7c0-0.3,0.2-0.5,0.4-0.5S708,10,709,9.9
	c2.2-0.3,3,0.7,0.9,1C707.8,11.3,706.4,11.2,706.4,10.7L706.4,10.7z M666.7,8.8c0-0.3-0.9-0.6-2.1-0.6c-1.1,0-2.3,0.2-2.5,0.6
	c-0.3,0.4-0.4,0.4-0.4,0c0-0.7-3.3-0.9-3.3-0.2c0,0.3-0.2,0.4-0.5,0.2c-0.5-0.3-5.4-0.8-10.5-1.1c-1.7-0.1-3-0.2-3-0.3
	c0-0.4-7.3-0.4-7.7,0c-0.8,0.7-6.3,1.1-6.3,0.5c0-0.3-0.4-0.5-0.8-0.5s-0.8,0.2-0.8,0.5c0,0.3-3.9,0.4-10.4,0.3
	c-5.7-0.1-11-0.3-11.7-0.3s-2.2-0.2-3.2-0.5c-1.1-0.3-1.8-0.3-1.8,0c0,0.5-1.9,0.4-2.5-0.1c-0.2-0.2-2.7-0.2-5.6-0.1
	c-3.5,0.1-5.6,0-6.1-0.5c-0.6-0.5-0.8-0.5-0.8,0.1c0,0.5-0.2,0.5-0.4,0.2s-3.4-0.6-7.9-0.6c-4.1,0-16.5-0.2-27.6-0.4
	c-11.1-0.2-25.3-0.3-31.6-0.4c-6.3,0-11.5-0.2-11.5-0.4s-1.4-0.3-3-0.3s-3,0.2-3,0.4s-0.3,0.4-0.6,0.4s-0.4-0.2-0.2-0.6
	c0.2-0.3,0-0.6-0.5-0.6s-0.9-0.2-0.9-0.6c0-0.3-0.3-0.6-0.6-0.6s-0.4,0.2-0.2,0.6c0.2,0.3-0.4,0.5-1.5,0.5c-1.4,0-1.6-0.1-1-0.5
	s0.6-0.5,0.1-0.5c-0.6,0-0.5-0.2,0.1-0.8c0.5-0.5,1.3-0.8,2-0.8c0.6,0,1.1-0.3,1.1-0.6s0.5-0.4,1.2-0.2c0.8,0.3,1,0.2,0.8-0.2
	c-0.2-0.3-0.2-0.6-0.1-0.6s0.5,0.5,0.7,1.1l0.4,1.1l1.5-1.1c1-0.8,1.6-0.9,1.8-0.5c0.3,0.4,0.5,0.4,0.8-0.1C507,0.1,510.8,0,526.8,0
	c10.9,0,24.2,0.2,29.7,0.4s14.5,0.5,20.2,0.7c20.3,0.6,25.5,0.9,26,1.1c1,0.6,5.5,1.2,6.1,0.8c0.4-0.3,0.9-0.2,1.1,0.2
	c0.3,0.5,0.6,0.5,1-0.2c0.3-0.5,0.5-0.6,0.6-0.3c0,0.3,3.4,0.5,9.3,0.5c9.2-0.1,25,0.8,25,1.4c0,0.2,1.9,0.3,4.3,0.2
	c4-0.1,13.3,0.7,15,1.2c0.6,0.2,0.6,0.4,0.1,1.1c-0.6,0.7-0.5,0.8,0.1,0.6c0.4-0.1,1.5-0.4,2.3-0.6c0.9-0.2,1.4-0.6,1.2-1
	s0-0.3,0.3,0.2c0.5,0.7,1.2,0.8,3.7,0.4c1.7-0.2,3.5-0.2,4,0.1c0.5,0.3,1.7,0.6,2.5,0.6c1.4,0.1,1.4,0.1,0.2,0.3
	c-1,0.2-1.2,0.4-0.6,0.7c0.9,0.5,0.1,0.6-7.6,0.7C668.5,9.3,666.7,9.1,666.7,8.8z M506.2,3.8c-0.2-0.5-0.5-0.7-0.8-0.5
	c-0.8,0.5-0.6,1.3,0.3,1.3C506.2,4.7,506.4,4.3,506.2,3.8z M474,5.7c0.6-1.1,0.5-1.2-0.2-0.9C473,5.2,472.9,5,473.5,4l0.7-1.2
	l0.5,1.2c0.6,1.4,1.8,1.6,2.2,0.4c0.2-0.5,0.1-0.8-0.1-0.8s-0.4-0.4-0.4-0.8c0-0.7,0.5-0.8,2.7-0.5c1.8,0.2,2.7,0.2,2.7-0.3
	c0-0.3,0.9-0.6,2-0.6c1.3,0,1.8,0.2,1.6,0.6c-0.3,0.4,0,0.4,0.8,0c1-0.5,1.1-0.5,0.8,0.2c-0.2,0.5-0.5,0.8-0.8,0.8s-0.5,0.2-0.5,0.6
	c0,1.2,1,0.5,1.7-1.1c0.8-1.9,0.8-1.9,2.2-1.1c0.7,0.4,0.9,1,0.7,2c-0.1,0.8-0.1,1.4,0.2,1.3c0.3-0.1,0.6,0.1,0.8,0.4
	c0.2,0.3-1.1,0.6-3.2,0.6c-3.2,0.1-3.5,0-4.1-1.2c-0.6-1.3-2.6-1.9-2.6-0.7c0,0.3,0.2,0.4,0.5,0.2s0.4,0,0.2,0.5s-0.7,0.7-1.2,0.5
	c-0.6-0.2-0.7-0.1-0.5,0.3c0.4,0.7-1.4,1.2-3.5,1c-0.8-0.1-1.8,0.1-2.4,0.3C473.4,6.9,473.4,6.8,474,5.7L474,5.7z M489.1,3.7
	c0.2-0.3-0.1-0.5-0.5-0.5s-0.7,0.2-0.5,0.5s0.4,0.5,0.5,0.5L489.1,3.7z M466.6,5.8c-0.2-0.3,0.2-0.6,0.8-0.8c0.7-0.2,1-0.6,0.8-1.2
	C467.9,3.4,468,3,468.3,3c0.8,0,0.6,1.8-0.2,2.6C467.3,6.5,467,6.5,466.6,5.8L466.6,5.8z M469.9,4.3c0.2-0.4,0.4-0.7,0.4-0.7
	c0.1,0,0.3,0.3,0.4,0.7c0.2,0.4,0,0.7-0.4,0.7S469.8,4.7,469.9,4.3z M472.1,2.8c0.6-0.4,1.6-0.8,2.3-0.8c1.3,0,2.2,0.8,1.3,1.3
	c-0.3,0.2-0.6,0-0.7-0.3c-0.2-0.5-0.5-0.5-1.4,0C471.9,3.8,470.8,3.7,472.1,2.8L472.1,2.8z M464.7,2.7c0.2-0.2,0.7-0.2,1.1,0
	s0.3,0.3-0.3,0.3S464.6,2.9,464.7,2.7L464.7,2.7z M493.9,2.5C493.2,2,493.2,2,494,2c0.5,0,1,0.2,1,0.5C495,3.1,494.9,3.1,493.9,2.5z
	 M490.9,1.6c-0.3-0.7-0.1-0.7,0.8-0.3c1.3,0.7,1.4,1.1,0.3,1.1C491.6,2.5,491.1,2.1,490.9,1.6L490.9,1.6z"/>
</svg>
