<?xml version="1.0" encoding="utf-8"?>
<!-- Generator: Adobe Illustrator 16.0.4, SVG Export Plug-In . SVG Version: 6.00 Build 0)  -->
<!DOCTYPE svg PUBLIC "-//W3C//DTD SVG 1.1//EN" "http://www.w3.org/Graphics/SVG/1.1/DTD/svg11.dtd">
<svg version="1.1"
	 id="svg2" xmlns:rdf="http://www.w3.org/1999/02/22-rdf-syntax-ns#" xmlns:cc="http://creativecommons.org/ns#" xmlns:dc="http://purl.org/dc/elements/1.1/" xmlns:inkscape="http://www.inkscape.org/namespaces/inkscape" xmlns:sodipodi="http://sodipodi.sourceforge.net/DTD/sodipodi-0.dtd" xmlns:svg="http://www.w3.org/2000/svg" inkscape:version="0.48.4 r9939" sodipodi:docname="instagram-logo-black-png.svg"
	 xmlns="http://www.w3.org/2000/svg" xmlns:xlink="http://www.w3.org/1999/xlink" x="0px" y="0px" width="97.162px"
	 height="97.299px" viewBox="1.59 1.385 97.162 97.299" enable-background="new 1.59 1.385 97.162 97.299" xml:space="preserve">
<title  id="title2997">Instagram icon</title>
<sodipodi:namedview  id="namedview16" pagecolor="#ffffff" bordercolor="#666666" borderopacity="1" objecttolerance="10" gridtolerance="10" guidetolerance="10" showgrid="false" inkscape:zoom="1" inkscape:cx="75.986979" inkscape:cy="46.746849" inkscape:current-layer="svg2" inkscape:window-maximized="1" inkscape:window-y="-4" inkscape:window-x="-4" inkscape:window-height="844" inkscape:window-width="1600" inkscape:pageshadow="2" inkscape:showpageshadow="false" inkscape:pageopacity="0">
	</sodipodi:namedview>
<g id="g6" transform="matrix(0.01880253,0,0,-0.01877464,-8.09169,88.053468)">
	<path id="path10" inkscape:connector-curvature="0" fill="#2B2B2B" d="M1502.363,3981.162l-3.74-634.986l-59.986-3.744
		c-33.759-2.496-68.764,2.496-78.762,11.26c-14.983,12.484-17.503,112.48-17.503,624.975c0,693.736,12.518,627.496-112.494,588.746
		l-68.738-22.496l-6.258-598.732l-6.259-600.008l-66.245-3.744c-38.744-2.496-74.996,2.496-84.994,11.26
		c-14.983,12.484-17.502,102.494-17.502,543.729c0,487.502-1.247,529.996-21.242,529.996c-11.244,0-74.996-55.004-142.488-122.492
		c-107.509-108.762-128.75-138.773-183.751-253.75c-104.99-215-106.263-219.994-111.248-713.736l-6.259-434.992h838.724
		c461.248,0,838.748,4.992,838.748,9.986c0,16.254,148.747,133.754,238.727,187.51c108.755,66.24,235.013,118.748,368.749,153.729
		c163.756,42.521,424.997,41.273,593.739-3.746c200.008-53.73,396.223-155.002,544.969-281.238l77.49-66.24h832.49h833.736
		l-4.984,441.234c-4.986,411.248-7.48,446.254-33.76,533.742c-52.508,177.496-116.234,279.99-268.719,432.496
		c-152.486,151.23-253.762,215-432.527,269.979l-93.746,28.764l-1496.188,3.744l-1497.485,3.746l-2.493-634.988l-3.739-634.986
		l-60.013-3.744c-33.733-2.496-68.738,2.496-78.736,11.26c-15.01,12.484-17.502,113.729-17.502,637.484V4614.9h-93.746h-93.745
		L1502.363,3981.162z M5092.268,4133.668c21.295-11.262,48.768-41.248,62.531-68.762c22.488-44.992,24.982-73.73,24.982-346.232
		c0-430,13.762-416.242-411.234-416.242c-322.473,0-361.219,8.738-402.455,90.012c-23.787,46.24-25.033,68.736-21.295,361.236
		l3.74,313.748l46.275,42.496l47.521,42.496h306.217C4999.82,4152.42,5062.248,4148.674,5092.268,4133.668z"/>
	<path id="path12" inkscape:connector-curvature="0" fill="#2B2B2B" d="M2948.588,3018.695
		c-439.98-61.246-797.485-413.744-868.717-857.502c-21.268-128.734-9.998-337.492,24.981-458.736
		c48.769-171.23,115.014-278.744,262.514-424.955c146.227-147.512,241.219-208.783,389.965-256.273
		c584.987-185.014,1184.958,139.971,1336.196,724.971c33.76,129.984,36.252,374.996,6.285,493.744
		c-55,213.752-122.518,330.002-288.715,493.742c-161.264,161.244-299.986,233.75-516.25,276.246
		C3208.582,3026.186,3036.074,3031.18,2948.588,3018.695z M3223.592,2708.693c97.484-20,292.506-112.506,349.947-166.236
		c101.277-93.756,183.752-228.758,226.287-372.498c31.215-102.494,27.475-272.502-6.283-380.016
		c-94.939-301.264-382.461-516.186-688.704-516.186c-112.495,0-198.762,22.469-324.993,82.494
		c-243.738,114.951-403.755,371.223-403.755,646.195c-1.246,336.244,242.518,632.49,580.001,704.998
		C3061.082,2731.189,3117.329,2731.189,3223.592,2708.693z"/>
	<path id="path14" inkscape:connector-curvature="0" fill="#2B2B2B" d="M519.905,1518.742l3.74-1259.986l28.746-93.729
		c55.001-178.771,118.753-280.043,269.992-432.549c155.005-153.754,258.748-217.471,440.007-269.953l98.73-28.764h1731.227h1731.201
		l98.73,28.764c198.762,57.477,337.535,143.715,486.281,302.463c103.717,110.01,188.738,257.521,236.207,412.521l28.773,93.73
		l3.74,1253.744l3.738,1252.445h-770.01c-669.982,0-768.713-2.496-768.713-18.725c0-10.014,19.996-50.012,45.029-87.514
		c236.207-371.25,259.994-847.49,62.479-1242.484c-202.5-402.484-574.988-661.254-1028.706-713.736
		c-365.01-42.496-787.488,115.004-1050.001,392.498c-104.989,110.01-163.729,197.496-241.245,361.236
		c-91.227,188.76-117.48,311.252-117.48,533.742c0,146.264,4.986,202.516,27.5,292.5c32.486,131.258,92.499,273.75,156.251,373.746
		c24.981,40,46.25,79.998,46.25,90.012c0,16.229-97.511,18.725-762.48,18.725H516.141L519.905,1518.742z"/>
</g>
</svg>
