<?xml version="1.0" encoding="utf-8"?>
<!-- Generator: Adobe Illustrator 16.0.4, SVG Export Plug-In . SVG Version: 6.00 Build 0)  -->
<!DOCTYPE svg PUBLIC "-//W3C//DTD SVG 1.1//EN" "http://www.w3.org/Graphics/SVG/1.1/DTD/svg11.dtd">
<svg version="1.1" id="Layer_1" xmlns="http://www.w3.org/2000/svg" xmlns:xlink="http://www.w3.org/1999/xlink" x="0px" y="0px"
	 width="435.132px" height="249.696px" viewBox="0 0 435.132 249.696" enable-background="new 0 0 435.132 249.696"
	 xml:space="preserve">
<g>
	<path fill="#010101" d="M6.12,12.24H428.4c3.672,0,6.12-2.448,6.12-6.12c0-3.672-2.448-6.12-6.12-6.12H6.12C2.448,0,0,2.448,0,6.12
		C0,9.792,3.06,12.24,6.12,12.24z"/>
	<path fill="#010101" d="M429.012,118.728H6.732c-3.672,0-6.12,2.448-6.12,6.119c0,3.673,2.448,6.121,6.12,6.121h422.28
		c3.673,0,6.12-2.448,6.12-6.121C435.132,121.176,432.072,118.728,429.012,118.728z"/>
	<path fill="#010101" d="M429.012,237.456H6.732c-3.672,0-6.12,2.448-6.12,6.12s2.448,6.12,6.12,6.12h422.28
		c3.673,0,6.12-2.448,6.12-6.12S432.072,237.456,429.012,237.456z"/>
</g>
</svg>
