<?xml version="1.0" encoding="utf-8"?>
<!-- Generator: Adobe Illustrator 16.0.4, SVG Export Plug-In . SVG Version: 6.00 Build 0)  -->
<!DOCTYPE svg PUBLIC "-//W3C//DTD SVG 1.1//EN" "http://www.w3.org/Graphics/SVG/1.1/DTD/svg11.dtd">
<svg version="1.1" id="Layer_1" xmlns:sketch="http://www.bohemiancoding.com/sketch/ns"
	 xmlns="http://www.w3.org/2000/svg" xmlns:xlink="http://www.w3.org/1999/xlink" x="0px" y="0px" width="700px" height="568.866px"
	 viewBox="37.002 104.001 700 568.866" enable-background="new 37.002 104.001 700 568.866" xml:space="preserve">
<title>Artboard 1</title>
<desc>Created with Sketch.</desc>
<g id="Page-1" sketch:type="MSPage">
	<g id="Artboard-1" sketch:type="MSArtboardGroup">
		<g id="twitter-2" sketch:type="MSLayerGroup">
			<g id="Group">
				<g id="icomoon-ignore">
				</g>
				<path id="Shape" sketch:type="MSShapeGroup" fill="#2B2B2B" d="M654.513,193.945c29.67-17.761,52.42-45.899,63.149-79.459
					c-27.751,16.466-58.472,28.421-91.195,34.871c-26.188-27.906-63.518-45.356-104.823-45.356
					c-79.301,0-143.601,64.295-143.601,143.617c0,11.239,1.265,22.195,3.724,32.725c-119.359-5.999-225.19-63.162-296.023-150.051
					c-12.364,21.199-19.439,45.866-19.439,72.212c0,49.818,25.351,93.782,63.885,119.53c-23.531-0.752-45.684-7.217-65.051-17.975
					c-0.014,0.596-0.014,1.208-0.014,1.816c0,69.57,49.505,127.598,115.209,140.817c-12.051,3.268-24.737,5.032-37.838,5.032
					c-9.263,0-18.263-0.896-27.028-2.585c18.288,57.051,71.318,98.586,134.151,99.734c-49.151,38.521-111.06,61.487-178.356,61.487
					c-11.581,0-23.019-0.684-34.26-2.02c63.572,40.767,139.052,64.525,220.147,64.525c264.168,0,408.608-218.827,408.608-408.607
					c0-6.226-0.127-12.433-0.396-18.598c28.047-20.207,52.399-45.512,71.641-74.316c-25.734,11.433-53.428,19.149-82.487,22.602
					L654.513,193.945z"/>
			</g>
		</g>
	</g>
</g>
</svg>
