<?xml version="1.0" encoding="utf-8"?>
<!-- Generator: Adobe Illustrator 22.1.0, SVG Export Plug-In . SVG Version: 6.00 Build 0)  -->
<svg version="1.1" id="Layer_1" xmlns:sketch="http://www.bohemiancoding.com/sketch/ns"
	 xmlns="http://www.w3.org/2000/svg" xmlns:xlink="http://www.w3.org/1999/xlink" x="0px" y="0px" viewBox="0 0 700 568.9"
	 style="enable-background:new 0 0 700 568.9;" xml:space="preserve">
<style type="text/css">
	.st0{fill:#FFFFFF;}
</style>
<title>Artboard 1</title>
<desc>Created with Sketch.</desc>
<g id="Page-1" sketch:type="MSPage">
	<g id="Artboard-1" sketch:type="MSArtboardGroup">
		<g id="twitter-2" sketch:type="MSLayerGroup">
			<g id="Group">
				<g id="icomoon-ignore">
				</g>
				<path id="Shape" sketch:type="MSShapeGroup" class="st0" d="M617.5,89.9c29.7-17.8,52.4-45.9,63.1-79.5
					c-27.8,16.5-58.5,28.4-91.2,34.9C563.3,17.4,525.9,0,484.6,0C405.3,0,341,64.3,341,143.6c0,11.2,1.3,22.2,3.7,32.7
					c-119.4-6-225.2-63.2-296-150.1C36.4,47.5,29.3,72.2,29.3,98.5c0,49.8,25.4,93.8,63.9,119.5c-23.5-0.8-45.7-7.2-65.1-18
					c0,0.6,0,1.2,0,1.8c0,69.6,49.5,127.6,115.2,140.8c-12.1,3.3-24.7,5-37.8,5c-9.3,0-18.3-0.9-27-2.6
					c18.3,57.1,71.3,98.6,134.2,99.7c-49.2,38.5-111.1,61.5-178.4,61.5c-11.6,0-23-0.7-34.3-2c63.6,40.8,139.1,64.5,220.1,64.5
					c264.2,0,408.6-218.8,408.6-408.6c0-6.2-0.1-12.4-0.4-18.6c28-20.2,52.4-45.5,71.6-74.3C674.3,78.8,646.6,86.5,617.5,89.9
					L617.5,89.9z"/>
			</g>
		</g>
	</g>
</g>
</svg>
