<?xml version="1.0" encoding="utf-8"?>
<!-- Generator: Adobe Illustrator 16.0.4, SVG Export Plug-In . SVG Version: 6.00 Build 0)  -->
<!DOCTYPE svg PUBLIC "-//W3C//DTD SVG 1.1//EN" "http://www.w3.org/Graphics/SVG/1.1/DTD/svg11.dtd">
<svg version="1.1" id="Layer_1" xmlns="http://www.w3.org/2000/svg" xmlns:xlink="http://www.w3.org/1999/xlink" x="0px" y="0px"
	 width="612px" height="612px" viewBox="0 0 612 612" enable-background="new 0 0 612 612" xml:space="preserve">
<rect fill="#DDEBF1" width="612" height="612"/>
<g>
	<g id="XMLID_9_">
		<g>
			<path fill="#1C5986" d="M493.127,293.419l17.003,24.619l-19.953,22.293l10.347,28.064l-24.866,16.626l3.041,29.766l-28.234,9.92
				l-4.445,29.585l-29.819,2.587l-11.662,27.558l-29.521-4.912l-18.157,23.787l-27.363-12.104l-23.503,18.525l-23.49-18.525
				l-27.377,12.104l-18.146-23.787l-29.521,4.912l-11.673-27.558l-29.808-2.587l-4.433-29.585l-28.246-9.92l3.055-29.766
				l-24.892-16.626l10.36-28.064l-19.953-22.293l17.003-24.619l-13.791-26.557l22.592-19.617l-6.746-29.145l26.778-13.375
				l0.676-29.91l29.261-6.305l8.137-28.793l29.897,1.183l15.027-25.896l28.664,8.58l20.994-21.318l25.634,15.431l25.646-15.431
				l20.993,21.318l28.661-8.58l15.03,25.896l29.909-1.183l8.099,28.793l29.262,6.305l0.715,29.91l26.751,13.375l-6.745,29.145
				l22.605,19.617L493.127,293.419z M467.923,306.001c0-43.249-16.834-83.909-47.422-114.494
				c-30.585-30.587-71.246-47.434-114.506-47.434c-43.235,0-83.909,16.847-114.483,47.434
				c-30.6,30.585-47.433,71.248-47.433,114.494s16.833,83.923,47.433,114.496c30.574,30.586,71.248,47.42,114.483,47.42
				c43.261,0,83.922-16.834,114.506-47.42C451.089,389.924,467.923,349.247,467.923,306.001z"/>
			<path fill="#B5E1F9" d="M420.501,191.507c30.588,30.585,47.422,71.248,47.422,114.494s-16.834,83.923-47.422,114.496
				c-30.585,30.586-71.246,47.42-114.506,47.42c-43.235,0-83.909-16.834-114.483-47.42c-30.6-30.573-47.433-71.25-47.433-114.496
				s16.833-83.909,47.433-114.494c30.574-30.587,71.248-47.434,114.483-47.434C349.256,144.073,389.915,160.92,420.501,191.507z
				 M459.29,306.001c0-84.532-68.764-153.298-153.296-153.298c-84.52,0-153.284,68.765-153.284,153.298
				c0,84.52,68.765,153.285,153.284,153.285C390.526,459.287,459.29,390.521,459.29,306.001z"/>
			<path fill="#B5E1F9" d="M436.361,310.487c0.3,1.271,0.403,2.601,0.325,3.964l-0.638,11.427l-5.382-0.3l0.129-2.379l-18.99-1.065
				l-0.129,2.365l-5.396-0.297l0.625-11.428c0.09-1.352,0.336-2.65,0.767-3.887c0.416-1.233,0.988-2.363,1.676-3.404
				c0.7-1.054,1.534-1.977,2.47-2.82c0.961-0.833,1.988-1.534,3.119-2.105c1.144-0.561,2.351-0.975,3.652-1.249
				c1.288-0.274,2.614-0.363,3.978-0.287c1.379,0.079,2.704,0.325,3.951,0.729c1.251,0.414,2.406,0.963,3.473,1.663
				c1.079,0.677,2.041,1.496,2.899,2.419c0.858,0.948,1.599,1.962,2.171,3.093C435.646,308.029,436.1,309.226,436.361,310.487z
				 M431.304,314.191c0.054-1.063-0.142-2.092-0.584-3.055c-0.429-0.975-1.066-1.833-1.897-2.574
				c-0.806-0.728-1.795-1.338-2.925-1.806c-1.131-0.481-2.365-0.74-3.705-0.82c-1.328-0.08-2.574,0.052-3.758,0.39
				c-1.17,0.353-2.184,0.843-3.079,1.482c-0.887,0.65-1.599,1.43-2.146,2.341c-0.546,0.922-0.843,1.91-0.896,2.976l-0.145,2.483
				l18.993,1.066L431.304,314.191z"/>
			<path fill="#B5E1F9" d="M435.151,331.739l-3.434,10.78l-5.132-1.628l0.91-2.82l-4.499-0.025l-2.77,8.723l3.679,2.585l0.949-3.003
				l5.134,1.64l-3.418,10.775l-5.136-1.638l0.664-2.12l-20.811-15.131l2.392-7.514l25.685-0.182l0.651-2.068L435.151,331.739z
				 M415.901,343.776l1.818-5.745l-10.153-0.041L415.901,343.776z"/>
			<polygon fill="#B5E1F9" points="432.487,284.2 425.064,285.281 421.737,292.002 418.422,285.281 411,284.2 416.369,278.963 
				415.107,271.567 421.737,275.064 428.394,271.567 427.12,278.963 			"/>
			<path fill="#1C5986" d="M430.72,311.137c0.442,0.96,0.638,1.988,0.584,3.055l-0.142,2.483l-18.993-1.066l0.145-2.48
				c0.051-1.068,0.352-2.057,0.896-2.979c0.546-0.911,1.261-1.69,2.143-2.341c0.897-0.637,1.912-1.13,3.08-1.482
				c1.183-0.339,2.432-0.467,3.757-0.39c1.341,0.08,2.573,0.339,3.707,0.82c1.13,0.466,2.12,1.078,2.925,1.806
				C429.653,309.304,430.291,310.162,430.72,311.137z"/>
			<polygon fill="#B5E1F9" points="419.788,233.858 430.991,255.241 421.813,260.038 418.788,254.267 422.608,252.263 
				418.98,245.361 413.677,248.129 416.485,253.473 411.339,256.163 408.544,250.821 402.33,254.085 405.917,260.986 
				410.701,258.477 413.716,264.275 404.098,269.319 392.904,247.922 397.769,245.374 399.236,248.194 415.914,239.473 
				414.434,236.651 			"/>
			<path fill="#B5E1F9" d="M418.343,367.344c0.392,1.494,0.456,3.004,0.185,4.523c-0.26,1.508-0.844,2.964-1.715,4.328
				c-0.858,1.365-1.923,2.481-3.173,3.341c-1.233,0.87-2.598,1.441-4.094,1.729c-1.508,0.286-3.079,0.259-4.742-0.092
				c-1.664-0.338-3.341-1.054-5.032-2.118l-10.086-6.434l-1.442,2.273l-4.564-2.896l6.42-10.103l4.562,2.911l-1.455,2.301
				l10.426,6.654c0.948,0.601,1.819,1.015,2.627,1.224c0.792,0.206,1.534,0.244,2.211,0.13c0.65-0.13,1.247-0.39,1.793-0.792
				c0.533-0.416,0.989-0.936,1.391-1.562c0.415-0.647,0.716-1.297,0.884-1.935c0.183-0.636,0.194-1.287,0.039-1.924
				c-0.169-0.638-0.519-1.272-1.054-1.911c-0.56-0.636-1.338-1.273-2.363-1.923l-10.426-6.643l-1.69,2.665l-4.576-2.897l6.435-10.09
				l4.562,2.899l-1.271,2.014l9.775,6.228c1.766,1.13,3.184,2.395,4.236,3.783C417.252,364.406,417.968,365.85,418.343,367.344z"/>
			<polygon fill="#1C5986" points="417.722,338.033 415.901,343.776 407.568,337.99 			"/>
			<path fill="#1C5986" d="M305.995,152.703c84.531,0,153.297,68.765,153.297,153.298c0,84.52-68.764,153.285-153.297,153.285
				c-84.52,0-153.284-68.766-153.284-153.285C152.71,221.471,221.476,152.703,305.995,152.703z M436.687,314.451
				c0.078-1.365-0.025-2.689-0.325-3.964c-0.259-1.262-0.715-2.458-1.3-3.562c-0.57-1.129-1.312-2.143-2.171-3.093
				c-0.855-0.923-1.817-1.742-2.899-2.419c-1.064-0.7-2.222-1.246-3.471-1.663c-1.249-0.402-2.573-0.649-3.95-0.729
				c-1.366-0.077-2.689,0.016-3.979,0.287c-1.299,0.274-2.51,0.689-3.652,1.249c-1.132,0.571-2.158,1.273-3.119,2.105
				c-0.937,0.845-1.768,1.768-2.471,2.82c-0.688,1.041-1.26,2.171-1.676,3.407c-0.43,1.233-0.677,2.533-0.767,3.886l-0.624,11.426
				l5.396,0.297l0.129-2.363l18.991,1.063l-0.131,2.379l5.384,0.3L436.687,314.451z M431.718,342.516l3.434-10.776l-5.134-1.626
				l-0.65,2.068l-25.686,0.183l-2.392,7.513l20.811,15.132l-0.664,2.12l5.138,1.637l3.415-10.775l-5.133-1.64l-0.948,3.003
				l-3.679-2.585l2.768-8.723l4.499,0.025l-0.909,2.82L431.718,342.516z M425.064,285.281l7.423-1.078l-5.367-5.24l1.271-7.396
				l-6.656,3.497l-6.629-3.497l1.262,7.396l-5.37,5.24l7.424,1.078l3.315,6.721L425.064,285.281z M430.991,255.241l-11.203-21.383
				l-5.357,2.793l1.484,2.821l-16.678,8.722l-1.467-2.82l-4.865,2.548l11.192,21.397l9.62-5.044l-3.017-5.799l-4.784,2.511
				l-3.586-6.902l6.213-3.264l2.795,5.342l5.146-2.69l-2.809-5.342l5.304-2.77l3.626,6.904l-3.82,2.002l3.027,5.771L430.991,255.241
				z M418.527,371.868c0.272-1.521,0.207-3.029-0.185-4.524c-0.375-1.492-1.091-2.938-2.144-4.313
				c-1.053-1.391-2.469-2.651-4.236-3.784l-9.776-6.227l1.273-2.014l-4.564-2.898l-6.433,10.088l4.577,2.898l1.688-2.665
				l10.427,6.641c1.025,0.652,1.805,1.29,2.363,1.926c0.533,0.637,0.885,1.273,1.054,1.91c0.155,0.636,0.143,1.287-0.038,1.923
				c-0.17,0.638-0.468,1.287-0.885,1.938c-0.402,0.623-0.857,1.143-1.39,1.561c-0.546,0.402-1.146,0.662-1.795,0.792
				c-0.677,0.116-1.418,0.078-2.209-0.131c-0.808-0.208-1.678-0.623-2.628-1.223l-10.427-6.654l1.458-2.303l-4.564-2.91
				l-6.419,10.101l4.563,2.899l1.44-2.274l10.087,6.434c1.692,1.065,3.369,1.78,5.032,2.12c1.665,0.349,3.237,0.376,4.743,0.088
				c1.494-0.285,2.86-0.855,4.095-1.726c1.25-0.859,2.312-1.977,3.171-3.341C417.684,374.832,418.268,373.376,418.527,371.868z
				 M412.964,228.06l-3.004-3.341c-0.025-1.807-0.246-3.248-0.689-4.354c-0.454-1.106-1.234-2.274-2.339-3.485
				c-1.366-1.534-2.964-2.679-4.772-3.443c-1.793-0.768-3.664-1.17-5.602-1.209c-1.949-0.027-3.887,0.324-5.799,1.027
				c-1.937,0.715-3.691,1.793-5.304,3.263c-1.063,0.96-2.003,2.028-2.767,3.183c-0.77,1.159-1.367,2.354-1.82,3.614
				c-0.444,1.234-0.729,2.509-0.833,3.81c-0.118,1.313-0.066,2.6,0.155,3.861c0.233,1.262,0.623,2.482,1.169,3.665
				c0.569,1.196,1.313,2.288,2.236,3.315c1.093,1.195,2.289,2.17,3.575,2.897c1.287,0.729,2.613,1.249,3.977,1.548
				c1.354,0.272,2.717,0.352,4.084,0.194c1.365-0.157,2.666-0.52,3.926-1.079l-2.989-5.992c-0.612,0.22-1.262,0.363-1.951,0.415
				c-0.7,0.065-1.403,0.013-2.104-0.117s-1.364-0.377-2.028-0.715c-0.663-0.338-1.262-0.806-1.794-1.403
				c-0.768-0.845-1.287-1.808-1.561-2.846c-0.272-1.053-0.323-2.117-0.154-3.211c0.169-1.092,0.546-2.157,1.117-3.224
				c0.584-1.04,1.365-2.002,2.328-2.873c0.948-0.857,1.974-1.533,3.107-1.988c1.104-0.48,2.209-0.741,3.326-0.792
				c1.118-0.052,2.173,0.104,3.186,0.481c1.014,0.377,1.899,0.988,2.638,1.819c0.521,0.56,0.938,1.171,1.262,1.807
				c0.312,0.651,0.506,1.339,0.586,2.08c0.064,0.756-0.04,1.768-0.325,3.029l4.135,4.588L412.964,228.06z M406.97,399.049
				c0.131-0.858,0.091-1.717-0.102-2.574c-0.21-0.858-0.587-1.688-1.147-2.468l-4.703,1.312c0.285,0.441,0.454,0.858,0.519,1.271
				c0.079,0.417,0.054,0.808-0.025,1.198c-0.091,0.363-0.236,0.727-0.457,1.079c-0.208,0.325-0.466,0.638-0.767,0.896
				c-0.322,0.274-0.688,0.492-1.066,0.676c-0.376,0.184-0.78,0.324-1.195,0.482c-0.43,0.13-0.845,0.259-1.273,0.375
				c-0.441,0.117-0.871,0.248-1.273,0.393c1.079-1.367,1.846-2.873,2.326-4.551c0.482-1.65,0.678-3.328,0.561-5.045
				c-0.105-1.715-0.508-3.417-1.198-5.081c-0.699-1.676-1.688-3.225-2.976-4.64c-0.949-1.066-2.002-1.964-3.133-2.718
				c-1.13-0.741-2.312-1.34-3.547-1.781c-1.223-0.429-2.482-0.714-3.757-0.818c-1.287-0.117-2.535-0.053-3.784,0.154
				c-1.235,0.233-2.444,0.626-3.602,1.169c-1.182,0.559-2.261,1.287-3.276,2.196c-0.987,0.911-1.819,1.899-2.496,3.004
				c-0.676,1.091-1.166,2.249-1.521,3.457c-0.338,1.209-0.546,2.455-0.546,3.745c-0.023,1.285,0.117,2.547,0.43,3.819
				c0.324,1.263,0.793,2.497,1.418,3.693c0.621,1.221,1.429,2.354,2.391,3.405c1.263,1.405,2.679,2.535,4.225,3.407
				c1.561,0.857,3.186,1.429,4.85,1.729c1.676,0.285,3.341,0.298,5.004,0.025c1.677-0.274,3.25-0.845,4.72-1.716l3.289,3.707
				c0.131-0.236,0.247-0.431,0.361-0.586c0.118-0.143,0.235-0.286,0.341-0.39c0.116-0.117,0.233-0.222,0.363-0.325
				c0.116-0.104,0.259-0.232,0.413-0.364c0.377-0.322,0.899-0.597,1.561-0.805c0.677-0.222,1.404-0.43,2.185-0.663
				c0.767-0.233,1.535-0.494,2.312-0.805c0.78-0.299,1.457-0.703,2.03-1.236c0.7-0.622,1.272-1.351,1.713-2.143
				C406.567,400.726,406.84,399.907,406.97,399.049z M388.916,207.664l3.25-4.419l-10.467-7.683l-3.25,4.42l2.535,1.846
				l-11.478,15.625l-2.521-1.859l-3.249,4.433l10.465,7.682l3.249-4.433l-2.572-1.883l11.464-15.626L388.916,207.664z
				 M373.119,200.269l3.94-8.358l-24.985-11.751l-3.937,8.345l5.913,2.77l1.675-3.537l3.329,1.56l-8.331,17.691l-2.845-1.339
				l-2.344,4.966l11.765,5.524l2.326-4.953l-2.885-1.352l8.318-17.717l3.782,1.793l-1.663,3.561L373.119,200.269z M373.889,415.505
				c0.441-1.208,0.598-2.457,0.521-3.757c-0.092-1.298-0.495-2.586-1.171-3.86c-0.493-0.936-1.065-1.728-1.703-2.341
				c-0.663-0.623-1.354-1.105-2.067-1.456c-0.74-0.363-1.507-0.584-2.288-0.678c-0.806-0.104-1.585-0.077-2.379,0.027l-5.628,0.96
				c-0.467,0.081-0.961,0.172-1.443,0.288c-0.48,0.115-0.96,0.155-1.417,0.144c-0.467,0-0.884-0.091-1.273-0.287
				c-0.392-0.183-0.728-0.53-1.001-1.054c-0.209-0.416-0.325-0.818-0.325-1.208c0.013-0.403,0.116-0.77,0.287-1.107
				c0.17-0.336,0.444-0.649,0.754-0.959c0.336-0.287,0.741-0.56,1.169-0.794c0.494-0.26,0.986-0.429,1.521-0.519
				c0.521-0.079,1.04-0.092,1.535-0.015c0.479,0.065,0.936,0.223,1.353,0.456c0.413,0.246,0.765,0.546,1.036,0.924l0.808,1.519
				l6.278-3.354l-2.781-5.236l-1.741,0.936c-0.573-0.443-1.25-0.792-2.043-1.066c-0.805-0.259-1.663-0.414-2.612-0.441
				c-0.935-0.039-1.948,0.062-2.989,0.312c-1.053,0.233-2.093,0.651-3.17,1.222c-1.366,0.728-2.549,1.559-3.484,2.521
				c-0.963,0.961-1.677,2.001-2.158,3.119c-0.481,1.116-0.689,2.287-0.623,3.495c0.051,1.233,0.429,2.47,1.092,3.717
				c0.57,1.066,1.249,1.951,2.002,2.613c0.768,0.661,1.598,1.168,2.469,1.508c0.859,0.352,1.758,0.546,2.68,0.57
				c0.936,0.054,1.818-0.025,2.689-0.183l4.667-0.846c0.429-0.077,0.857-0.142,1.3-0.192c0.442-0.065,0.872-0.079,1.272-0.039
				c0.405,0.039,0.794,0.171,1.145,0.351c0.353,0.195,0.637,0.51,0.87,0.963c0.457,0.845,0.532,1.662,0.246,2.432
				c-0.272,0.779-0.946,1.44-1.988,1.988c-0.675,0.362-1.312,0.598-1.937,0.689c-0.584,0.09-1.143,0.063-1.65-0.067
				c-0.521-0.154-0.975-0.402-1.378-0.752c-0.389-0.351-0.729-0.779-1.014-1.312l-0.57-1.079l-6.279,3.365l2.783,5.227l1.779-0.96
				c0.716,0.584,1.521,1.038,2.393,1.326c0.857,0.299,1.795,0.466,2.756,0.491c0.976,0.041,1.963-0.078,2.99-0.336
				c1.014-0.245,2.029-0.638,3.027-1.169c1.431-0.77,2.626-1.676,3.588-2.718C372.731,417.833,373.435,416.715,373.889,415.505z
				 M369.402,259.776l0.468-6.2l-4.134-0.312c-0.274-0.016-6.785-0.482-16.286,1.326c-9.515,1.807-18.576,5.316-26.582,10.189
				l-8.657-9.762l-11.076,33.202l34.278-7.009l-7.553-8.541c8.033-4.587,15.871-6.85,21.514-7.916
				c7.992-1.521,13.531-1.167,13.583-1.156l4.109,0.273L369.402,259.776z M355.639,330.506c0-0.495-0.092-0.948-0.261-1.363
				l-9.047-22.775c0,0-0.937-9.438-1.795-13.052c-0.169-0.727-0.377-1.456-0.598-2.185l-84.182,15.521
				c0.323,13.391,6.692,25.297,16.521,33.016v36.763h46.197V363.17h6.786c9.425,0,17.069-7.645,17.069-17.08v-12.103h5.796
				C354.064,333.989,355.639,332.416,355.639,330.506z M345.771,183.604l0.923-5.435l-11.361-1.924l-0.923,5.407l2.548,0.456
				l-2.406,14.156l-9.045-21.695l-9.046-1.545l-0.925,5.435l2.43,0.415l-3.234,19.083l-2.472-0.415l-0.714,4.197l-0.871-9.309
				l-6.513,0.624l0.52,5.357l-7.761,0.728l-0.663-6.981l5.99-0.584l-0.546-5.771l-6.005,0.571l-0.559-5.968l7.747-0.728l0.417,4.276
				l6.486-0.611l-0.963-10.31l-24.047,2.275l0.584,6.033l3.158-0.312l1.781,18.744l-3.172,0.297l0.286,2.952l-1.312-3.536
				l-2.354,0.858l-2.302-3.367c-0.637-0.976-1.312-1.715-2.04-2.21c-0.74-0.494-1.481-0.78-2.237-0.885
				c0.613-0.611,1.119-1.248,1.547-1.884c0.43-0.651,0.729-1.327,0.912-2.027c0.206-0.703,0.26-1.47,0.206-2.264
				c-0.05-0.806-0.259-1.689-0.597-2.65c-0.377-1.055-0.975-1.988-1.742-2.82c-0.768-0.82-1.677-1.441-2.743-1.898
				c-1.054-0.441-2.236-0.689-3.548-0.702c-1.312-0.025-2.705,0.234-4.173,0.755l-15.105,5.459l1.884,5.187l2.95-1.065l6.591,18.199
				l-2.964,1.064l1.858,5.147l11.83-4.262l-1.871-5.147l-2.614,0.936l-2.248-6.202l2.431-0.884c0.755-0.286,1.469-0.429,2.08-0.467
				c0.624-0.014,1.196,0.078,1.715,0.311c0.533,0.235,1.002,0.586,1.457,1.092c0.441,0.509,0.858,1.132,1.263,1.899l3.587,6.368
				l7.748-2.808l0.013,0.312l24.049-2.287l-0.015-0.248l11.022,1.873l0.911-5.408l-2.521-0.429l2.379-13.935l9.165,21.462
				l6.565,1.116l4.158-24.489L345.771,183.604z M342.393,432.195l-2.769-15.663l-13.599,2.393l0.936,5.304l5.604-0.976
				c-0.207,1.455-0.754,2.68-1.625,3.654c-0.885,0.987-2.003,1.598-3.38,1.832c-1.065,0.208-2.12,0.143-3.133-0.13
				c-1.028-0.286-1.977-0.793-2.821-1.508c-0.857-0.74-1.559-1.588-2.104-2.587c-0.533-1.001-0.897-2.081-1.106-3.249
				c-0.221-1.195-0.221-2.393-0.038-3.575c0.183-1.209,0.546-2.274,1.093-3.236c0.52-0.949,1.207-1.757,2.053-2.405
				c0.834-0.663,1.796-1.079,2.887-1.273c1.092-0.194,1.978-0.221,2.641-0.054c0.662,0.171,1.271,0.405,1.871,0.729
				c0.611,0.313,1.285,0.886,2.039,1.706l5.983-1.068l-1.147-6.538l-4.341,0.754c-1.494-0.871-2.834-1.418-4.03-1.624
				c-1.195-0.208-2.562-0.184-4.069,0.088c-1.338,0.236-2.586,0.638-3.729,1.223c-1.143,0.572-2.184,1.273-3.132,2.134
				c-0.938,0.844-1.743,1.807-2.446,2.871c-0.7,1.079-1.233,2.225-1.663,3.458c-0.39,1.222-0.649,2.521-0.754,3.874
				c-0.115,1.353-0.052,2.717,0.195,4.093c0.392,2.248,1.168,4.251,2.288,6.02c1.13,1.768,2.549,3.247,4.226,4.431
				c0.701,0.482,1.428,0.886,2.223,1.198c0.805,0.324,1.597,0.571,2.417,0.754c0.792,0.182,1.612,0.285,2.43,0.322
				c0.846,0.028,1.652-0.014,2.459-0.141c1.625-0.274,2.873-0.69,3.769-1.261c0.896-0.571,1.663-1.249,2.302-2.057
				c0.651-0.791,1.249-1.96,1.795-3.507l0.895,5.03L342.393,432.195z M259.419,306.234l56.65-64.161
				c-13.259-9.127-35.216-8.995-49.982,2.588c-18.81,14.754-22.084,41.96-7.331,60.783
				C258.977,305.717,259.198,305.963,259.419,306.234z M310.337,413.205l0.56-5.367l-11.257-1.198l-0.571,5.383l2.52,0.273
				l-1.493,14.053l-10.205-20.72l-8.956-0.949l-0.571,5.383l2.405,0.246l-2.002,18.927l-2.431-0.262l-0.571,5.343l11.232,1.197
				l0.584-5.356l-2.482-0.272l1.442-13.806l10.334,20.476l6.485,0.687l2.572-24.281L310.337,413.205z M279.296,409.006l1.689-5.121
				l-12.113-4.003l-1.691,5.12l2.924,0.963l-5.952,18.081l-2.939-0.962l-1.703,5.109l12.141,4.002l1.691-5.121l-2.991-0.975
				l5.969-18.081L279.296,409.006z M265.567,405.444l2.756-4.639l-9.776-5.76l-2.743,4.665l2.196,1.274l-7.176,12.179l-0.715-23.085
				l-7.747-4.577l-2.756,4.654l2.094,1.235l-9.646,16.378l-2.132-1.249l-2.73,4.653l9.749,5.734l2.73-4.642l-2.146-1.272
				l7.047-11.959l0.896,22.917l5.628,3.302l12.389-21.02L265.567,405.444z M252.606,221.094l-3.107-4.523l-2.3,1.573l-3.263-4.771
				l3.47-2.379c1.521-1.04,2.691-2.171,3.511-3.366c0.804-1.196,1.327-2.417,1.545-3.652c0.208-1.263,0.143-2.51-0.208-3.757
				c-0.363-1.263-0.923-2.47-1.729-3.653c-0.663-0.961-1.521-1.742-2.574-2.326c-1.053-0.585-2.196-0.949-3.443-1.105
				c-1.261-0.156-2.561-0.052-3.899,0.285c-1.378,0.339-2.69,0.949-3.965,1.819l-11.582,7.918l3.119,4.551l2.6-1.77l10.933,15.964
				l-2.587,1.769l3.095,4.534L252.606,221.094z M237.723,387.975c0.416-1.028,0.624-2.095,0.611-3.224
				c-0.026-1.118-0.285-2.274-0.792-3.457c-0.494-1.197-1.287-2.354-2.354-3.457l-10.932-11.361l-3.899,3.756l2.146,2.211
				l-13.715,13.191l-2.132-2.222l-3.888,3.729l8.567,8.904l3.886-3.742l-1.897-1.965l4.679-4.497l1.742,1.82
				c0.559,0.582,0.975,1.157,1.248,1.689c0.272,0.546,0.403,1.106,0.416,1.663c0,0.561-0.131,1.145-0.403,1.742
				c-0.273,0.6-0.663,1.235-1.196,1.883l-4.276,5.772l5.981,6.228l4.171-4.043l-1.716-1.766l2.093-3.407
				c0.638-0.976,1.014-1.873,1.17-2.73c0.143-0.861,0.104-1.638-0.104-2.366c0.807,0.312,1.586,0.521,2.313,0.637
				c0.755,0.131,1.481,0.131,2.196,0.015c0.703-0.105,1.417-0.352,2.106-0.715c0.701-0.379,1.416-0.912,2.145-1.612
				C236.67,389.896,237.295,389,237.723,387.975z M225.803,246.374l8.386-9.372l-4.082-3.653l-1.872,2.08l-4.315-3.859l2.82-3.146
				c1.234-1.38,2.092-2.743,2.612-4.096c0.507-1.364,0.716-2.664,0.611-3.925c-0.08-1.262-0.442-2.47-1.081-3.603
				c-0.649-1.144-1.494-2.184-2.547-3.119c-0.871-0.792-1.898-1.338-3.042-1.662c-1.183-0.312-2.379-0.404-3.627-0.248
				c-1.246,0.156-2.495,0.56-3.73,1.209c-1.221,0.651-2.365,1.547-3.406,2.718l-9.358,10.438l4.122,3.68l2.08-2.354l14.441,12.908
				l-2.106,2.354l1.184,1.04l-1.716-0.887l-1.002,1.964l-25.79-4.342l-3.718,7.112l18.226,18.835l-1.053,2.002l4.861,2.534
				l5.329-10.191l-4.862-2.533l-1.482,2.833l-3.249-3.237l4.328-8.266l4.498,0.817l-1.393,2.68l4.849,2.548l4.912-9.409
				L225.803,246.374z M219.745,358.558l-3.847-6.878l-25.27,4.848l-1.093-1.938l-4.692,2.641l5.524,9.866l4.706-2.637l-1.547-2.744
				l4.406-0.925l4.472,7.994l-3.081,3.249l-1.469-2.571l-4.691,2.625l5.538,9.854l4.692-2.628l-1.065-1.884L219.745,358.558z
				 M211.712,344.218l-6.227-22.89l-5.733,1.56l0.832,3.029l-17.848,4.848l-0.818-3.016l-5.199,1.418l6.227,22.879l10.32-2.809
				l-1.703-6.175l-5.095,1.391l-2.028-7.395l6.668-1.808l1.561,5.72l5.513-1.496l-1.562-5.733l5.668-1.533l2.015,7.384l-4.082,1.117
				l1.678,6.176L211.712,344.218z M205.057,310.979l-0.454-12.752l-5.396,0.184l0.092,3.094l-18.993,0.662l-0.116-3.079
				l-5.382,0.182l0.819,23.812l10.957-0.375l-0.22-6.37l-3.99,0.142c-0.169,0-0.352-0.025-0.547-0.104
				c-0.168-0.063-0.338-0.168-0.507-0.287c-0.169-0.115-0.298-0.245-0.391-0.414c-0.117-0.17-0.17-0.325-0.17-0.495l-0.233-6.483
				l19.017-0.666l0.091,3.146L205.057,310.979z M193.995,284.332l7.422-1.079l-5.382-5.237l1.274-7.396l-6.643,3.496l-6.629-3.496
				l1.261,7.396l-5.367,5.237l7.421,1.079l3.316,6.721L193.995,284.332z"/>
			<path fill="#B5E1F9" d="M409.96,224.719l3.004,3.341l-5.029,4.523l-4.135-4.589c0.285-1.262,0.39-2.274,0.325-3.028
				c-0.08-0.741-0.274-1.432-0.586-2.08c-0.324-0.637-0.741-1.248-1.262-1.809c-0.738-0.831-1.624-1.442-2.638-1.819
				c-1.013-0.377-2.067-0.532-3.186-0.481c-1.117,0.053-2.222,0.312-3.326,0.792c-1.133,0.456-2.158,1.132-3.107,1.989
				c-0.963,0.871-1.744,1.832-2.328,2.874c-0.571,1.064-0.947,2.132-1.117,3.222c-0.169,1.094-0.118,2.158,0.154,3.211
				c0.273,1.04,0.793,2.004,1.561,2.847c0.532,0.599,1.131,1.066,1.794,1.402c0.664,0.339,1.327,0.587,2.028,0.716
				c0.701,0.131,1.404,0.183,2.104,0.118c0.689-0.053,1.339-0.195,1.952-0.416l2.988,5.991c-1.26,0.56-2.562,0.922-3.926,1.079
				c-1.366,0.155-2.73,0.08-4.084-0.194c-1.363-0.298-2.688-0.818-3.977-1.545c-1.286-0.729-2.482-1.704-3.575-2.9
				c-0.923-1.025-1.664-2.117-2.236-3.315c-0.546-1.182-0.936-2.404-1.169-3.664c-0.223-1.262-0.273-2.547-0.155-3.861
				c0.104-1.301,0.391-2.573,0.833-3.81c0.454-1.262,1.052-2.457,1.82-3.614c0.764-1.157,1.703-2.223,2.767-3.184
				c1.612-1.469,3.367-2.547,5.304-3.263c1.912-0.703,3.85-1.054,5.799-1.026c1.936,0.039,3.809,0.442,5.602,1.209
				c1.81,0.767,3.407,1.91,4.772,3.444c1.104,1.208,1.884,2.379,2.339,3.483C409.714,221.471,409.935,222.912,409.96,224.719z"/>
			<path fill="#B5E1F9" d="M406.868,396.475c0.192,0.857,0.232,1.715,0.102,2.573c-0.131,0.857-0.402,1.677-0.83,2.481
				c-0.444,0.792-1.016,1.521-1.717,2.146c-0.571,0.53-1.249,0.934-2.028,1.233c-0.78,0.312-1.546,0.571-2.312,0.806
				c-0.781,0.235-1.506,0.443-2.184,0.664c-0.663,0.207-1.184,0.48-1.559,0.805c-0.155,0.13-0.299,0.261-0.417,0.363
				c-0.129,0.105-0.246,0.208-0.361,0.324c-0.105,0.105-0.224,0.247-0.341,0.391c-0.115,0.156-0.231,0.352-0.361,0.585l-3.288-3.706
				c-1.47,0.87-3.044,1.441-4.721,1.715c-1.662,0.274-3.327,0.26-5.004-0.027c-1.664-0.298-3.288-0.868-4.848-1.726
				c-1.549-0.871-2.966-2.004-4.225-3.407c-0.963-1.054-1.77-2.184-2.394-3.406c-0.623-1.197-1.091-2.431-1.419-3.692
				c-0.311-1.272-0.453-2.534-0.428-3.821c0-1.287,0.208-2.533,0.546-3.744c0.353-1.209,0.843-2.366,1.521-3.456
				c0.676-1.106,1.507-2.094,2.496-3.004c1.014-0.91,2.095-1.64,3.277-2.197c1.156-0.546,2.363-0.937,3.601-1.168
				c1.247-0.208,2.495-0.274,3.782-0.155c1.274,0.104,2.535,0.39,3.758,0.818c1.235,0.442,2.418,1.04,3.548,1.78
				c1.131,0.755,2.184,1.651,3.133,2.718c1.286,1.418,2.274,2.963,2.977,4.639c0.688,1.665,1.092,3.369,1.197,5.082
				c0.117,1.715-0.08,3.394-0.56,5.045c-0.482,1.678-1.249,3.187-2.328,4.55c0.403-0.143,0.833-0.271,1.274-0.389
				c0.429-0.117,0.843-0.247,1.271-0.378c0.419-0.155,0.823-0.299,1.198-0.48c0.376-0.184,0.742-0.403,1.066-0.678
				c0.299-0.259,0.559-0.571,0.767-0.896c0.222-0.352,0.363-0.713,0.456-1.078c0.077-0.392,0.104-0.782,0.026-1.196
				c-0.065-0.416-0.234-0.833-0.521-1.273l4.705-1.313C406.281,394.786,406.658,395.616,406.868,396.475z M391.516,396.28
				c0.363-1.002,0.52-2.053,0.467-3.133c-0.064-1.08-0.324-2.172-0.806-3.25c-0.481-1.079-1.13-2.093-1.977-3.028
				c-0.856-0.935-1.792-1.701-2.833-2.274c-1.04-0.583-2.092-0.975-3.171-1.129c-1.079-0.171-2.133-0.118-3.158,0.142
				c-1.028,0.274-1.964,0.782-2.809,1.536c-0.844,0.753-1.443,1.638-1.82,2.625c-0.363,1.014-0.521,2.041-0.454,3.133
				c0.064,1.092,0.325,2.171,0.805,3.278c0.456,1.09,1.118,2.104,1.978,3.054c0.83,0.937,1.781,1.691,2.809,2.262
				c1.038,0.571,2.079,0.95,3.171,1.119c1.064,0.167,2.117,0.116,3.158-0.144c1.028-0.273,1.949-0.781,2.808-1.534
				C390.513,398.165,391.125,397.281,391.516,396.28z"/>
			<polygon fill="#B5E1F9" points="392.166,203.244 388.916,207.664 386.34,205.767 374.876,221.392 377.448,223.274 
				374.198,227.708 363.736,220.026 366.985,215.593 369.507,217.452 380.984,201.826 378.449,199.98 381.699,195.562 			"/>
			<path fill="#1C5986" d="M391.982,393.147c0.053,1.08-0.104,2.134-0.467,3.133c-0.391,1.001-1.002,1.885-1.833,2.651
				c-0.858,0.754-1.782,1.261-2.808,1.535c-1.041,0.259-2.094,0.311-3.161,0.142c-1.091-0.168-2.13-0.546-3.168-1.117
				c-1.028-0.572-1.979-1.326-2.81-2.263c-0.858-0.947-1.52-1.963-1.977-3.055c-0.482-1.106-0.739-2.186-0.805-3.277
				c-0.066-1.092,0.091-2.117,0.456-3.133c0.377-0.987,0.974-1.871,1.818-2.626c0.843-0.753,1.78-1.261,2.809-1.534
				c1.027-0.26,2.08-0.312,3.158-0.144c1.079,0.156,2.134,0.546,3.169,1.13c1.043,0.571,1.977,1.338,2.835,2.275
				c0.846,0.937,1.495,1.949,1.977,3.028C391.658,390.976,391.918,392.067,391.982,393.147z"/>
			<polygon fill="#B5E1F9" points="377.062,191.91 373.119,200.269 367.18,197.473 368.844,193.91 365.062,192.118 356.741,209.834 
				359.628,211.188 357.3,216.139 345.538,210.614 347.876,205.649 350.724,206.988 359.057,189.298 355.726,187.736 
				354.051,191.273 348.138,188.504 352.075,180.157 			"/>
			<path fill="#B5E1F9" d="M374.409,411.748c0.078,1.3-0.079,2.546-0.52,3.756c-0.455,1.21-1.158,2.328-2.105,3.381
				c-0.963,1.041-2.158,1.949-3.589,2.716c-0.999,0.533-2.015,0.925-3.027,1.171c-1.027,0.26-2.016,0.377-2.991,0.338
				c-0.959-0.025-1.896-0.193-2.754-0.494c-0.871-0.287-1.678-0.74-2.392-1.326l-1.781,0.962l-2.784-5.228l6.281-3.366l0.57,1.079
				c0.285,0.533,0.623,0.962,1.014,1.313c0.402,0.352,0.855,0.598,1.378,0.754c0.506,0.129,1.064,0.154,1.651,0.063
				c0.623-0.09,1.262-0.323,1.935-0.687c1.041-0.549,1.716-1.211,1.989-1.99c0.285-0.767,0.209-1.587-0.245-2.432
				c-0.235-0.455-0.52-0.768-0.871-0.961c-0.352-0.183-0.741-0.312-1.145-0.353c-0.401-0.038-0.832-0.025-1.274,0.039
				c-0.442,0.053-0.869,0.118-1.3,0.194l-4.664,0.846c-0.871,0.155-1.759,0.233-2.691,0.182c-0.922-0.026-1.817-0.223-2.679-0.571
				c-0.87-0.338-1.703-0.844-2.47-1.507c-0.753-0.664-1.43-1.545-2.002-2.612c-0.664-1.249-1.04-2.483-1.093-3.717
				c-0.063-1.21,0.145-2.382,0.624-3.497c0.481-1.119,1.196-2.157,2.158-3.119c0.937-0.96,2.118-1.795,3.483-2.52
				c1.079-0.57,2.12-0.989,3.171-1.221c1.041-0.247,2.055-0.353,2.989-0.314c0.951,0.028,1.807,0.185,2.614,0.444
				c0.792,0.274,1.467,0.622,2.041,1.066l1.741-0.937l2.78,5.237l-6.278,3.354l-0.805-1.521c-0.274-0.378-0.624-0.677-1.039-0.924
				c-0.416-0.234-0.87-0.389-1.351-0.455c-0.495-0.077-1.014-0.064-1.537,0.013c-0.532,0.092-1.026,0.262-1.52,0.521
				c-0.429,0.233-0.834,0.508-1.17,0.792c-0.312,0.315-0.583,0.624-0.754,0.96c-0.168,0.34-0.272,0.703-0.285,1.108
				c0,0.391,0.117,0.793,0.325,1.208c0.271,0.521,0.609,0.87,1,1.053c0.392,0.195,0.807,0.288,1.275,0.288
				c0.454,0.013,0.937-0.026,1.416-0.145c0.482-0.116,0.975-0.207,1.442-0.286l5.628-0.962c0.794-0.104,1.573-0.13,2.379-0.024
				c0.782,0.091,1.547,0.312,2.288,0.675c0.716,0.353,1.405,0.832,2.066,1.457c0.638,0.611,1.208,1.405,1.705,2.341
				C373.914,409.161,374.317,410.448,374.409,411.748z"/>
			<path fill="#B5E1F9" d="M369.87,253.577l-0.468,6.199l-0.337,4.096l-4.107-0.273c-0.052-0.014-5.59-0.364-13.584,1.156
				c-5.641,1.065-13.479,3.329-21.514,7.916l7.553,8.541l-34.278,7.007l11.075-33.2l8.658,9.762
				c8.008-4.874,17.067-8.384,26.582-10.19c9.504-1.808,16.015-1.338,16.286-1.328L369.87,253.577z"/>
			<path fill="#B5E1F9" d="M355.378,329.143c0.169,0.414,0.261,0.868,0.261,1.363c0,1.912-1.574,3.484-3.512,3.484h-5.796v12.104
				c0,9.435-7.645,17.079-17.069,17.079h-6.786v13.26h-46.197v-36.761c-9.829-7.72-16.198-19.629-16.521-33.017l84.182-15.521
				c0.221,0.729,0.429,1.457,0.598,2.186c0.858,3.613,1.795,13.051,1.795,13.051L355.378,329.143z"/>
			<polygon fill="#B5E1F9" points="346.694,178.169 345.771,183.604 343.354,183.187 339.195,207.676 332.629,206.56 
				323.465,185.099 321.085,199.032 323.607,199.462 322.696,204.87 311.675,202.997 311.546,201.737 312.259,197.54 
				314.729,197.954 317.969,178.871 315.536,178.456 316.458,173.021 325.504,174.568 334.552,196.264 336.958,182.107 
				334.41,181.652 335.333,176.247 			"/>
			<path fill="#B5E1F9" d="M339.624,416.532l2.769,15.663l-5.784,1.015l-0.896-5.031c-0.546,1.547-1.146,2.717-1.795,3.509
				c-0.638,0.805-1.403,1.484-2.301,2.054c-0.898,0.57-2.146,0.989-3.77,1.262c-0.807,0.129-1.612,0.169-2.458,0.143
				c-0.82-0.038-1.639-0.143-2.432-0.325c-0.82-0.182-1.611-0.429-2.417-0.754c-0.793-0.311-1.521-0.713-2.224-1.195
				c-1.678-1.184-3.096-2.666-4.225-4.433c-1.118-1.767-1.897-3.77-2.288-6.02c-0.246-1.378-0.312-2.74-0.194-4.092
				c0.105-1.354,0.361-2.651,0.754-3.873c0.429-1.236,0.961-2.381,1.664-3.458c0.701-1.066,1.508-2.028,2.443-2.874
				c0.948-0.856,1.987-1.559,3.132-2.132c1.146-0.584,2.394-0.988,3.732-1.222c1.505-0.274,2.871-0.298,4.067-0.09
				c1.195,0.207,2.533,0.753,4.031,1.625l4.342-0.754l1.143,6.538l-5.979,1.066c-0.755-0.82-1.433-1.39-2.042-1.705
				c-0.598-0.323-1.207-0.56-1.871-0.728c-0.663-0.17-1.546-0.142-2.638,0.051c-1.092,0.196-2.056,0.613-2.887,1.275
				c-0.846,0.648-1.536,1.457-2.054,2.404c-0.546,0.962-0.912,2.029-1.095,3.236c-0.182,1.184-0.182,2.38,0.041,3.577
				c0.207,1.167,0.569,2.247,1.104,3.247c0.546,1.001,1.249,1.846,2.104,2.587c0.846,0.715,1.795,1.222,2.82,1.509
				c1.016,0.272,2.068,0.337,3.133,0.129c1.379-0.232,2.496-0.843,3.382-1.833c0.87-0.975,1.417-2.196,1.624-3.653l-5.603,0.977
				l-0.938-5.304L339.624,416.532z"/>
			<path fill="#B5E1F9" d="M316.069,242.072l-56.65,64.162c-0.221-0.273-0.442-0.519-0.663-0.792
				c-14.754-18.821-11.479-46.028,7.331-60.784C280.854,233.077,302.809,232.946,316.069,242.072z"/>
			<polygon fill="#B5E1F9" points="311.675,202.997 311.688,203.244 287.641,205.531 287.626,205.221 287.419,203.022 
				287.132,200.072 290.304,199.773 288.523,181.028 285.364,181.342 284.779,175.311 308.826,173.034 309.791,183.344 
				303.303,183.953 302.888,179.677 295.14,180.404 295.699,186.373 301.705,185.8 302.251,191.572 296.258,192.155 
				296.921,199.137 304.682,198.409 304.162,193.053 310.672,192.429 311.546,201.737 			"/>
			<polygon fill="#B5E1F9" points="310.896,407.838 310.337,413.205 307.931,412.958 305.356,437.239 298.87,436.552 
				288.536,416.079 287.095,429.883 289.576,430.157 288.992,435.511 277.761,434.314 278.332,428.971 280.765,429.232 
				282.767,410.306 280.361,410.06 280.932,404.677 289.89,405.627 300.094,426.348 301.587,412.294 299.065,412.02 299.638,406.64 
							"/>
			<path fill="#B5E1F9" d="M287.419,203.022l0.207,2.197l-7.747,2.807l-3.587-6.367c-0.403-0.769-0.819-1.391-1.263-1.899
				c-0.455-0.507-0.922-0.856-1.456-1.092c-0.521-0.234-1.092-0.325-1.715-0.311c-0.61,0.039-1.326,0.182-2.08,0.466l-2.432,0.885
				l2.249,6.201l2.614-0.936l1.87,5.147l-11.829,4.263l-1.858-5.147l2.962-1.064l-6.589-18.2l-2.95,1.066l-1.886-5.188l15.105-5.459
				c1.469-0.52,2.859-0.781,4.174-0.754c1.312,0.013,2.495,0.261,3.547,0.702c1.066,0.456,1.978,1.079,2.743,1.897
				c0.768,0.834,1.365,1.768,1.743,2.821c0.338,0.962,0.546,1.844,0.597,2.65c0.052,0.792,0,1.56-0.208,2.263
				c-0.183,0.701-0.479,1.376-0.909,2.027c-0.43,0.638-0.938,1.272-1.547,1.884c0.753,0.105,1.494,0.392,2.236,0.886
				c0.729,0.494,1.402,1.234,2.041,2.209l2.301,3.367l2.353-0.857L287.419,203.022z M272.925,189.803
				c0.05-0.509-0.015-1.055-0.222-1.638c-0.402-1.105-1.117-1.819-2.133-2.159c-1.014-0.324-2.288-0.208-3.81,0.34l-3.743,1.364
				l2.481,6.903l3.759-1.352c0.713-0.26,1.338-0.56,1.858-0.896c0.531-0.34,0.923-0.729,1.248-1.144
				C272.665,190.777,272.847,190.31,272.925,189.803z"/>
			<polygon fill="#B5E1F9" points="280.982,403.885 279.296,409.006 276.319,408.016 270.351,426.1 273.342,427.074 271.65,432.195 
				259.51,428.193 261.213,423.084 264.15,424.046 270.104,405.965 267.178,405.002 268.869,399.882 			"/>
			<path fill="#1C5986" d="M272.703,188.166c0.208,0.585,0.273,1.132,0.221,1.638c-0.078,0.507-0.259,0.974-0.56,1.417
				c-0.325,0.416-0.717,0.807-1.248,1.145c-0.519,0.339-1.144,0.635-1.858,0.896l-3.759,1.351l-2.481-6.903l3.743-1.365
				c1.521-0.548,2.795-0.663,3.81-0.338C271.586,186.347,272.301,187.062,272.703,188.166z"/>
			<polygon fill="#B5E1F9" points="268.323,400.806 265.567,405.444 263.487,404.235 251.1,425.254 245.47,421.952 244.574,399.035 
				237.528,410.994 239.673,412.269 236.944,416.909 227.195,411.177 229.924,406.522 232.055,407.771 241.7,391.392 
				239.607,390.158 242.363,385.503 250.11,390.079 250.825,413.164 258.002,400.984 255.804,399.711 258.548,395.046 			"/>
			<path fill="#B5E1F9" d="M249.499,216.567l3.107,4.523l-10.386,7.11l-3.095-4.535l2.587-1.769l-10.933-15.963l-2.6,1.769
				l-3.119-4.551l11.582-7.917c1.274-0.871,2.587-1.482,3.965-1.82c1.339-0.338,2.639-0.442,3.899-0.286
				c1.248,0.156,2.392,0.52,3.443,1.106c1.053,0.583,1.912,1.364,2.574,2.325c0.806,1.183,1.365,2.394,1.729,3.654
				c0.353,1.248,0.416,2.496,0.208,3.756c-0.221,1.235-0.741,2.457-1.545,3.653c-0.819,1.196-1.989,2.328-3.511,3.367l-3.47,2.379
				l3.263,4.771L249.499,216.567z M245.561,204.504c0.39-1.038,0.171-2.118-0.597-3.275c-0.74-1.064-1.65-1.663-2.769-1.779
				c-1.104-0.144-2.326,0.259-3.679,1.169l-2.248,1.547l4.588,6.732l2.264-1.547C244.378,206.481,245.198,205.531,245.561,204.504z"
				/>
			<path fill="#1C5986" d="M244.963,201.229c0.767,1.157,0.987,2.237,0.597,3.275c-0.363,1.027-1.183,1.978-2.442,2.847
				l-2.262,1.547l-4.589-6.732l2.249-1.547c1.352-0.91,2.572-1.313,3.679-1.169C243.312,199.565,244.223,200.164,244.963,201.229z"
				/>
			<path fill="#B5E1F9" d="M238.334,384.751c0.013,1.129-0.195,2.195-0.611,3.224c-0.429,1.025-1.053,1.922-1.833,2.677
				c-0.728,0.701-1.442,1.235-2.145,1.612c-0.689,0.362-1.403,0.612-2.105,0.715c-0.715,0.116-1.441,0.116-2.197-0.016
				c-0.728-0.114-1.507-0.322-2.312-0.636c0.208,0.729,0.247,1.508,0.104,2.365c-0.155,0.86-0.532,1.757-1.169,2.731l-2.095,3.407
				l1.716,1.767l-4.171,4.042l-5.98-6.227l4.276-5.771c0.533-0.65,0.923-1.286,1.195-1.883c0.273-0.598,0.403-1.184,0.403-1.743
				c-0.013-0.559-0.143-1.118-0.416-1.664c-0.272-0.532-0.689-1.103-1.248-1.688l-1.742-1.82l-4.679,4.498l1.897,1.965l-3.887,3.742
				l-8.567-8.905l3.888-3.728l2.132,2.221l13.715-13.191l-2.146-2.211l3.899-3.758l10.932,11.361
				c1.066,1.107,1.859,2.264,2.354,3.458C238.049,382.477,238.308,383.633,238.334,384.751z M230.482,386.024
				c0.818-0.808,1.197-1.716,1.08-2.757c-0.105-1.038-0.715-2.145-1.819-3.288l-2.717-2.819l-5.213,5.006l2.717,2.817
				c0.533,0.533,1.04,0.978,1.547,1.315c0.521,0.325,1.027,0.546,1.546,0.649c0.508,0.104,0.987,0.079,1.469-0.065
				C229.572,386.738,230.029,386.454,230.482,386.024z"/>
			<path fill="#B5E1F9" d="M234.188,237.002l-8.385,9.374l-0.17-0.154l-2.743-2.459l-1.183-1.039l2.105-2.354l-14.441-12.908
				l-2.08,2.354l-4.121-3.68l9.358-10.438c1.04-1.171,2.184-2.067,3.406-2.718c1.234-0.651,2.482-1.054,3.73-1.208
				c1.248-0.157,2.445-0.065,3.627,0.247c1.143,0.324,2.17,0.87,3.041,1.662c1.053,0.936,1.898,1.976,2.548,3.119
				c0.636,1.131,1.001,2.341,1.079,3.603c0.105,1.261-0.104,2.561-0.611,3.925c-0.52,1.353-1.378,2.718-2.612,4.095l-2.82,3.146
				l4.315,3.86l1.871-2.08L234.188,237.002z M223.425,222.574c0.104-1.105-0.339-2.118-1.378-3.028
				c-0.963-0.871-2.002-1.234-3.12-1.105c-1.091,0.143-2.197,0.818-3.275,2.039l-1.847,2.029l6.071,5.435l1.844-2.041
				C222.735,224.771,223.294,223.652,223.425,222.574z"/>
			<path fill="#1C5986" d="M231.562,383.268c0.116,1.039-0.261,1.949-1.08,2.757c-0.455,0.427-0.91,0.714-1.391,0.855
				c-0.481,0.145-0.961,0.17-1.469,0.066c-0.521-0.104-1.026-0.325-1.546-0.65c-0.509-0.337-1.016-0.781-1.548-1.314l-2.716-2.821
				l5.213-5.004l2.716,2.821C230.847,381.122,231.457,382.229,231.562,383.268z"/>
			<path fill="#B5E1F9" d="M225.634,246.22l-4.913,9.411l-4.849-2.548l1.391-2.68l-4.498-0.82l-4.328,8.27l3.25,3.236l1.481-2.835
				l4.861,2.534L212.7,270.98l-4.861-2.536l1.053-2.001l-18.226-18.834l3.718-7.112l25.79,4.343l1.002-1.964l1.716,0.886
				L225.634,246.22z M204.641,254.085l2.836-5.435l-10.18-1.832L204.641,254.085z"/>
			<path fill="#1C5986" d="M222.048,219.546c1.039,0.91,1.481,1.923,1.378,3.028c-0.13,1.078-0.689,2.196-1.703,3.327l-1.845,2.041
				l-6.07-5.435l1.846-2.028c1.079-1.222,2.184-1.897,3.276-2.04C220.046,218.309,221.084,218.675,222.048,219.546z"/>
			<path fill="#B5E1F9" d="M215.898,351.682l3.847,6.876l-17.418,18.876l1.066,1.884l-4.692,2.626l-5.538-9.854l4.691-2.625
				l1.469,2.574l3.08-3.25l-4.472-7.994l-4.405,0.923l1.547,2.743l-4.706,2.638l-5.524-9.866l4.692-2.639l1.092,1.936
				L215.898,351.682z M206.019,364.927l6.968-7.371l-9.905,2.118L206.019,364.927z"/>
			<polygon fill="#1C5986" points="212.986,357.556 206.019,364.927 203.081,359.674 			"/>
			<polygon fill="#B5E1F9" points="205.485,321.328 211.712,344.218 201.898,346.883 200.222,340.709 204.304,339.591 
				202.288,332.208 196.621,333.741 198.181,339.475 192.668,340.968 191.109,335.25 184.439,337.059 186.469,344.453 
				191.562,343.062 193.267,349.237 182.945,352.044 176.72,329.165 181.919,327.749 182.738,330.768 200.585,325.917 
				199.754,322.888 			"/>
			<polygon fill="#1C5986" points="207.477,248.65 204.641,254.085 197.297,246.818 			"/>
			<path fill="#B5E1F9" d="M204.603,298.228l0.454,12.752l-5.42,0.193l-0.091-3.146l-19.018,0.662l0.233,6.487
				c0,0.17,0.053,0.324,0.169,0.492c0.092,0.17,0.221,0.3,0.391,0.416c0.169,0.117,0.338,0.222,0.507,0.287
				c0.195,0.079,0.377,0.104,0.548,0.104l3.99-0.143l0.22,6.37l-10.958,0.376l-0.819-23.814l5.382-0.183l0.116,3.08l18.992-0.662
				l-0.092-3.094L204.603,298.228z"/>
			<polygon fill="#B5E1F9" points="201.417,283.255 193.995,284.332 190.667,291.053 187.352,284.332 179.931,283.255 
				185.298,278.016 184.038,270.619 190.667,274.116 197.31,270.619 196.034,278.016 			"/>
		</g>
	</g>
</g>
</svg>
