<?xml version="1.0" encoding="utf-8"?>
<!-- Generator: Adobe Illustrator 16.0.4, SVG Export Plug-In . SVG Version: 6.00 Build 0)  -->
<!DOCTYPE svg PUBLIC "-//W3C//DTD SVG 1.1//EN" "http://www.w3.org/Graphics/SVG/1.1/DTD/svg11.dtd">
<svg version="1.1" id="Layer_1" xmlns="http://www.w3.org/2000/svg" xmlns:xlink="http://www.w3.org/1999/xlink" x="0px" y="0px"
	 width="612px" height="612px" viewBox="0 0 612 612" enable-background="new 0 0 612 612" xml:space="preserve">
<rect y="-0.955" fill="#8697A5" width="612" height="615.5"/>
<g>
	<path fill="#3B4149" d="M196.608,270.153c0-3.498,0.657-6.981,1.966-10.453c1.314-3.471,3.225-6.57,5.74-9.304
		c2.512-2.729,5.572-4.943,9.178-6.639c3.609-1.693,7.707-2.54,12.297-2.54c5.464,0,10.205,1.175,14.217,3.525
		c4.02,2.349,7.011,5.41,8.979,9.178l-10.327,7.215c-0.657-1.531-1.492-2.799-2.502-3.811c-1.012-1.011-2.114-1.832-3.315-2.459
		c-1.207-0.629-2.435-1.066-3.692-1.312c-1.257-0.246-2.486-0.369-3.687-0.369c-2.567,0-4.811,0.518-6.722,1.558
		c-1.915,1.038-3.497,2.375-4.754,4.016c-1.258,1.638-2.183,3.497-2.788,5.574c-0.601,2.077-0.899,4.179-0.899,6.31
		c0,2.296,0.354,4.509,1.064,6.64c0.708,2.13,1.737,4.016,3.072,5.656c1.34,1.638,2.953,2.938,4.837,3.893
		c1.885,0.958,4.002,1.435,6.354,1.435c1.201,0,2.442-0.151,3.726-0.452c1.285-0.298,2.516-0.765,3.691-1.392
		c1.176-0.629,2.252-1.448,3.238-2.459c0.981-1.012,1.777-2.254,2.377-3.73l10.983,6.477c-0.877,2.129-2.174,4.044-3.894,5.736
		c-1.721,1.694-3.701,3.115-5.943,4.262c-2.239,1.148-4.617,2.023-7.132,2.625c-2.512,0.6-4.971,0.901-7.375,0.901
		c-4.206,0-8.074-0.86-11.598-2.583c-3.523-1.72-6.558-4.003-9.099-6.845c-2.542-2.84-4.508-6.065-5.901-9.669
		C197.303,277.529,196.608,273.868,196.608,270.153z"/>
	<path fill="#3B4550" d="M254.31,299.415v-58.197h26.234c2.728,0,5.257,0.575,7.577,1.722c2.326,1.148,4.332,2.652,6.03,4.506
		c1.69,1.859,3.013,3.964,3.972,6.313c0.956,2.35,1.436,4.727,1.436,7.13c0,1.804-0.22,3.541-0.657,5.205
		c-0.437,1.668-1.068,3.238-1.884,4.713c-0.821,1.477-1.815,2.802-2.991,3.975c-1.176,1.178-2.499,2.172-3.977,2.993l12.787,21.639
		h-15.164l-11.144-18.771h-8.771v18.771H254.31z M267.757,268.923h12.294c1.582,0,2.952-0.752,4.097-2.254
		c1.146-1.501,1.721-3.428,1.721-5.779c0-2.403-0.657-4.316-1.967-5.738c-1.314-1.42-2.736-2.13-4.262-2.13h-11.883V268.923z"/>
	<path fill="#3B4149" d="M325.524,241.218h12.13l21.232,58.197h-13.772l-4.508-13.032h-18.111l-4.431,13.032h-13.772
		L325.524,241.218z M338.394,277.119l-6.8-20.574l-6.968,20.574H338.394z"/>
	<path fill="#3B4149" d="M361.316,299.415v-58.197h39.508v11.803h-26.061v12.541h21.47v10.901h-21.47v22.951H361.316z"/>
	<path fill="#3B4149" d="M452.419,253.021h-17.706v46.394h-13.442v-46.394h-17.783v-11.803h48.932V253.021z"/>
	<g>
		<path fill="#3B4550" d="M196.564,369.961v-58.195h39.509v11.801h-26.065v12.544h21.474v10.901h-21.474v22.949H196.564z"/>
		<path fill="#3B4550" d="M265.337,370.782c-4.318,0-8.251-0.848-11.805-2.542s-6.584-3.921-9.099-6.679
			c-2.516-2.763-4.465-5.917-5.861-9.471c-1.393-3.549-2.088-7.21-2.088-10.983c0-3.822,0.722-7.514,2.174-11.065
			c1.444-3.55,3.467-6.679,6.06-9.385c2.599-2.706,5.672-4.862,9.225-6.476c3.549-1.612,7.43-2.416,11.641-2.416
			c4.314,0,8.247,0.847,11.8,2.542c3.553,1.694,6.584,3.934,9.099,6.721c2.512,2.784,4.453,5.957,5.818,9.507
			c1.366,3.552,2.049,7.161,2.049,10.818c0,3.825-0.722,7.517-2.17,11.066c-1.448,3.553-3.458,6.683-6.026,9.384
			c-2.567,2.705-5.628,4.88-9.181,6.519S269.543,370.782,265.337,370.782z M250.173,341.271c0,2.244,0.325,4.414,0.981,6.52
			c0.657,2.101,1.625,3.977,2.909,5.615c1.284,1.638,2.883,2.952,4.793,3.933c1.915,0.981,4.103,1.475,6.562,1.475
			c2.567,0,4.807-0.519,6.721-1.557c1.912-1.036,3.494-2.39,4.751-4.059c1.258-1.664,2.201-3.549,2.832-5.653
			c0.626-2.101,0.943-4.249,0.943-6.437c0-2.239-0.329-4.414-0.986-6.515c-0.657-2.1-1.639-3.964-2.953-5.571
			c-1.31-1.617-2.908-2.9-4.793-3.856c-1.884-0.955-4.059-1.431-6.514-1.431c-2.572,0-4.798,0.502-6.683,1.513
			c-1.884,1.012-3.471,2.339-4.755,3.978c-1.284,1.643-2.239,3.51-2.87,5.614C250.485,336.94,250.173,339.089,250.173,341.271z"/>
		<path fill="#3B4550" d="M325.089,358.488c2.295,0,4.235-0.479,5.817-1.435c1.587-0.956,2.871-2.227,3.855-3.812
			c0.982-1.587,1.678-3.402,2.088-5.451c0.411-2.05,0.614-4.141,0.614-6.272v-29.752h13.443v29.752
			c0,4.046-0.506,7.815-1.513,11.312c-1.017,3.501-2.572,6.557-4.673,9.182c-2.104,2.623-4.785,4.686-8.036,6.189
			c-3.25,1.504-7.119,2.253-11.597,2.253c-4.643,0-8.606-0.792-11.884-2.379c-3.28-1.582-5.943-3.699-7.992-6.35
			c-2.054-2.654-3.553-5.728-4.509-9.224c-0.959-3.497-1.435-7.159-1.435-10.984v-29.752h13.443v29.752
			c0,2.243,0.217,4.374,0.652,6.397c0.437,2.02,1.149,3.826,2.135,5.408c0.982,1.586,2.252,2.839,3.81,3.769
			C320.869,358.021,322.793,358.488,325.089,358.488z"/>
		<path fill="#3B4550" d="M372.711,336.686v33.275h-13.444v-58.195h10.492l27.132,34.179v-34.179h13.443v58.195h-10.819
			L372.711,336.686z"/>
		<path fill="#3B4550" d="M419.429,369.961v-58.195h21.722c4.811,0,9.021,0.765,12.626,2.296c3.604,1.529,6.622,3.604,9.056,6.228
			c2.435,2.625,4.267,5.697,5.494,9.221c1.228,3.522,1.842,7.283,1.842,11.273c0,4.422-0.683,8.425-2.05,12.008
			c-1.365,3.575-3.319,6.635-5.856,9.182c-2.541,2.536-5.602,4.508-9.186,5.9c-3.575,1.392-7.552,2.088-11.926,2.088H419.429z
			 M456.482,340.783c0-2.571-0.347-4.906-1.028-7.012c-0.684-2.1-1.678-3.92-2.991-5.45c-1.311-1.53-2.923-2.701-4.833-3.522
			c-1.915-0.821-4.072-1.232-6.479-1.232h-8.274v34.594h8.274c2.46,0,4.646-0.438,6.557-1.314c1.915-0.873,3.515-2.088,4.799-3.648
			c1.284-1.556,2.265-3.385,2.948-5.489C456.136,345.603,456.482,343.295,456.482,340.783z"/>
		<path fill="#3B4550" d="M476.067,369.961v-58.195h26.234c2.728,0,5.257,0.574,7.582,1.721c2.321,1.149,4.331,2.649,6.025,4.508
			c1.69,1.859,3.018,3.964,3.974,6.312c0.954,2.351,1.435,4.729,1.435,7.132c0,1.807-0.226,3.536-0.657,5.204
			c-0.438,1.669-1.068,3.237-1.885,4.712c-0.821,1.478-1.815,2.805-2.991,3.977c-1.176,1.176-2.499,2.17-3.98,2.991l12.79,21.64
			h-15.159l-11.152-18.77h-8.767v18.77H476.067z M489.516,339.474h12.294c1.582,0,2.947-0.753,4.097-2.257
			c1.15-1.504,1.722-3.428,1.722-5.779c0-2.403-0.657-4.314-1.968-5.74c-1.314-1.418-2.735-2.131-4.262-2.131h-11.883V339.474z"/>
		<path fill="#3B4550" d="M536.07,311.766l12.539,26.722l12.709-26.722h14.671l-20.735,38.358v19.837h-13.365V349.96l-20.407-38.194
			H536.07z"/>
	</g>
	<g>
		<polygon fill="none" points="154.459,287.079 154.362,287.175 154.375,287.175 		"/>
		<path fill="#3B4149" d="M81.796,313.136h6.292v4.244h-5.73c0.005,0.092,0.01,0.183,0.016,0.277h3.458v4.236h-4.764l-5.989,4.794
			h9.375c1.962-1.812,5.628-4.518,9.979-4.518s8.019,2.706,9.979,4.518h9.375l-7.364-5.896v-1.017
			c0-10.646,5.324-13.766,10.161-14.404v-18.468H55.351v3.746C66.33,291.522,78.885,298.801,81.796,313.136z"/>
		<path fill="#3B4149" d="M100.561,241.274c-32.72,0-59.732,24.367-63.964,55.915l14.513-14.489v-0.039h69.713v2.258h5.644v2.257
			h27.896l0.097-0.097l-0.084,0.097h0.313v5.114l-0.456,0.577c-0.376,0.479-7.087,8.831-19.081,13.5l-17.757,17.776l4.556,3.648
			v9.906h-0.341l-31.789,31.789c3.495,0.588,7.075,0.89,10.74,0.89c35.651,0,64.552-28.879,64.552-64.528
			C165.112,270.175,136.211,241.274,100.561,241.274z"/>
		<path fill="#3B4149" d="M149.862,291.416h-23.396v9.03h-4.241V289.16h-1.403v16.015
			C136.371,304.367,146.566,294.949,149.862,291.416z"/>
		<path fill="#3B4149" d="M94.433,326.41c-3.603,0-6.821,3.022-8.04,4.327v2.719h16.08v-2.719
			C101.39,329.587,98.067,326.41,94.433,326.41z"/>
		<rect x="106.714" y="330.928" fill="#3B4149" width="10.997" height="2.528"/>
		<rect x="71.154" y="330.928" fill="#3B4149" width="11.001" height="2.528"/>
		<path fill="#4A535F" d="M120.822,309.453l-2.12,0.021c-5.302,0-7.79,2.875-8.023,9.298l6.715,5.369l17.757-17.776
			c-4.158,1.619-8.941,2.802-14.33,3.053V309.453z"/>
		<path fill="#4A535F" d="M66.914,337.696v-9.906l11.273-9.018c-0.554-17.451-15.542-23.968-24.957-23.968h-2.121v-12.105
			l-14.513,14.489c-0.368,2.845-0.586,5.708-0.586,8.658c0,31.984,23.282,58.521,53.81,63.639l31.789-31.789H66.914z"/>
		<path fill="#FFFFFF" d="M53.23,294.805c9.415,0,24.403,6.517,24.957,23.968l-11.273,9.018v9.906h54.696h0.341v-9.906l-4.556-3.648
			l-6.715-5.369c0.233-6.423,2.721-9.298,8.023-9.298l2.12-0.021v-0.034c5.388-0.251,10.172-1.435,14.33-3.053
			c11.994-4.668,18.704-13.02,19.081-13.5l0.456-0.577v-5.114h-0.313h-0.013h-27.896v-2.257h-5.644v-2.258H51.109v0.039v12.105
			H53.23z M86.394,333.456v-2.719c1.219-1.305,4.437-4.327,8.04-4.327c3.634,0,6.957,3.177,8.04,4.327v2.719H86.394z
			 M82.155,333.456H71.154v-2.528h11.001V333.456z M117.711,333.456h-10.997v-2.528h10.997V333.456z M120.822,289.16h1.403v11.286
			h4.241v-9.03h23.396c-3.296,3.534-13.491,12.951-29.04,13.759V289.16z M55.351,286.903h61.232v18.468
			c-4.837,0.638-10.161,3.758-10.161,14.404v1.017l7.364,5.896h-9.375c-1.96-1.812-5.627-4.518-9.979-4.518
			s-8.017,2.706-9.979,4.518h-9.375l5.989-4.794h4.764v-4.236h-3.458c-0.006-0.095-0.011-0.186-0.016-0.277h5.73v-4.244h-6.292
			c-2.911-14.334-15.466-21.614-26.445-22.487V286.903z"/>
	</g>
</g>
</svg>
