<?xml version="1.0" encoding="utf-8"?>
<!-- Generator: Adobe Illustrator 21.1.0, SVG Export Plug-In . SVG Version: 6.00 Build 0)  -->
<svg version="1.1" xmlns="http://www.w3.org/2000/svg" xmlns:xlink="http://www.w3.org/1999/xlink" x="0px" y="0px"
	 viewBox="0 0 615 612" style="enable-background:new 0 0 615 612;" xml:space="preserve">
<style type="text/css">
	.st0{fill:#F8E8E9;}
	.st1{fill:#F4DFE3;}
	.st2{fill:#3D3D3D;}
</style>
<g id="Layer_1">
	<rect class="st0" width="615" height="611.6"/>
	<g>
		<g>
			<path class="st1" d="M4,32.4c-0.2-0.6-0.4-1.2-0.6-1.8v14.2c0.2-0.5,0.5-1,0.6-1.6c0.6-1.7,0.9-3.6,0.9-5.5
				C4.9,36.1,4.6,34.3,4,32.4z"/>
			<path class="st1" d="M58.9,22.7c-3.4-4.7-7.5-8.8-10.2-11.5c-0.7-0.7-1.9-0.6-2.5,0C41,16.5,30,27.3,30,37.8
				c0,9.6,7.8,17.5,17.5,17.5s17.5-7.8,17.5-17.5C64.9,33.3,62.9,28.2,58.9,22.7z M47.4,51.8c-7.7,0-13.9-6.2-13.9-13.9
				c0-3.7,1.7-7.9,5.1-12.7c2.6-3.7,5.8-7.1,8.9-10.2c6.6,6.6,13.9,15.1,13.9,22.9C61.4,45.5,55.1,51.8,47.4,51.8z"/>
			<path class="st1" d="M118.9,22.7c-3.4-4.7-7.5-8.8-10.2-11.5c-0.7-0.7-1.9-0.6-2.5,0C101,16.5,90,27.3,90,37.8
				c0,9.6,7.8,17.5,17.5,17.5s17.5-7.8,17.5-17.5C124.9,33.3,122.9,28.2,118.9,22.7z M107.4,51.8c-7.7,0-13.9-6.2-13.9-13.9
				c0-3.7,1.7-7.9,5.1-12.7c2.6-3.7,5.8-7.1,8.9-10.2c6.6,6.6,13.9,15.1,13.9,22.9C121.4,45.5,115.1,51.8,107.4,51.8z"/>
			<path class="st1" d="M178.9,22.7c-3.4-4.7-7.5-8.8-10.2-11.5c-0.7-0.7-1.9-0.6-2.5,0C161,16.5,150,27.3,150,37.8
				c0,9.6,7.8,17.5,17.5,17.5s17.5-7.8,17.5-17.5C184.9,33.3,182.9,28.2,178.9,22.7z M167.4,51.8c-7.7,0-13.9-6.2-13.9-13.9
				c0-3.7,1.7-7.9,5.1-12.7c2.6-3.7,5.8-7.1,8.9-10.2c6.6,6.6,13.9,15.1,13.9,22.9C181.4,45.5,175.1,51.8,167.4,51.8z"/>
			<path class="st1" d="M238.9,22.7c-3.4-4.7-7.5-8.8-10.2-11.5c-0.7-0.7-1.9-0.6-2.5,0C221,16.5,210,27.3,210,37.8
				c0,9.6,7.8,17.5,17.5,17.5s17.5-7.8,17.5-17.5C244.9,33.3,242.9,28.2,238.9,22.7z M227.4,51.8c-7.7,0-13.9-6.2-13.9-13.9
				c0-3.7,1.7-7.9,5.1-12.7c2.6-3.7,5.8-7.1,8.9-10.2c6.6,6.6,13.9,15.1,13.9,22.9C241.4,45.5,235.1,51.8,227.4,51.8z"/>
			<path class="st1" d="M298.9,22.7c-3.4-4.7-7.5-8.8-10.2-11.5c-0.7-0.7-1.9-0.6-2.5,0C281,16.5,270,27.3,270,37.8
				c0,9.6,7.8,17.5,17.5,17.5s17.5-7.8,17.5-17.5C304.9,33.3,302.9,28.2,298.9,22.7z M287.4,51.8c-7.7,0-13.9-6.2-13.9-13.9
				c0-3.7,1.7-7.9,5.1-12.7c2.6-3.7,5.8-7.1,8.9-10.2c6.6,6.6,13.9,15.1,13.9,22.9C301.4,45.5,295.1,51.8,287.4,51.8z"/>
			<path class="st1" d="M358.9,22.7c-3.4-4.7-7.5-8.8-10.2-11.5c-0.7-0.7-1.9-0.6-2.5,0C341,16.5,330,27.3,330,37.8
				c0,9.6,7.8,17.5,17.5,17.5s17.5-7.8,17.5-17.5C364.9,33.3,362.9,28.2,358.9,22.7z M347.4,51.8c-7.7,0-13.9-6.2-13.9-13.9
				c0-3.7,1.7-7.9,5.1-12.7c2.6-3.7,5.8-7.1,8.9-10.2c6.6,6.6,13.9,15.1,13.9,22.9C361.4,45.5,355.1,51.8,347.4,51.8z"/>
			<path class="st1" d="M418.9,22.7c-3.4-4.7-7.5-8.8-10.2-11.5c-0.7-0.7-1.9-0.6-2.5,0C401,16.5,390,27.3,390,37.8
				c0,9.6,7.8,17.5,17.5,17.5s17.5-7.8,17.5-17.5C424.9,33.3,422.9,28.2,418.9,22.7z M407.4,51.8c-7.7,0-13.9-6.2-13.9-13.9
				c0-3.7,1.7-7.9,5.1-12.7c2.6-3.7,5.8-7.1,8.9-10.2c6.6,6.6,13.9,15.1,13.9,22.9C421.4,45.5,415.1,51.8,407.4,51.8z"/>
			<path class="st1" d="M478.9,22.7c-3.4-4.7-7.5-8.8-10.2-11.5c-0.7-0.7-1.9-0.6-2.5,0C461,16.5,450,27.3,450,37.8
				c0,9.6,7.8,17.5,17.5,17.5s17.5-7.8,17.5-17.5C484.9,33.3,482.9,28.2,478.9,22.7z M467.4,51.8c-7.7,0-13.9-6.2-13.9-13.9
				c0-3.7,1.7-7.9,5.1-12.7c2.6-3.7,5.8-7.1,8.9-10.2c6.6,6.6,13.9,15.1,13.9,22.9C481.4,45.5,475.1,51.8,467.4,51.8z"/>
			<path class="st1" d="M538.9,22.7c-3.4-4.7-7.5-8.8-10.2-11.5c-0.7-0.7-1.9-0.6-2.5,0C521,16.5,510,27.3,510,37.8
				c0,9.6,7.8,17.5,17.5,17.5s17.5-7.8,17.5-17.5C544.9,33.3,542.9,28.2,538.9,22.7z M527.4,51.8c-7.7,0-13.9-6.2-13.9-13.9
				c0-3.7,1.7-7.9,5.1-12.7c2.6-3.7,5.8-7.1,8.9-10.2c6.6,6.6,13.9,15.1,13.9,22.9C541.4,45.5,535.1,51.8,527.4,51.8z"/>
			<path class="st1" d="M598.9,22.7c-3.4-4.7-7.5-8.8-10.2-11.5c-0.7-0.7-1.9-0.6-2.5,0C581,16.5,570,27.3,570,37.8
				c0,9.6,7.8,17.5,17.5,17.5s17.5-7.8,17.5-17.5C604.9,33.3,602.9,28.2,598.9,22.7z M587.4,51.8c-7.7,0-13.9-6.2-13.9-13.9
				c0-3.7,1.7-7.9,5.1-12.7c2.6-3.7,5.8-7.1,8.9-10.2c6.6,6.6,13.9,15.1,13.9,22.9C601.4,45.5,595.1,51.8,587.4,51.8z"/>
		</g>
		<g>
			<path class="st1" d="M28.9,82.7c-3.4-4.7-7.5-8.8-10.2-11.5c-0.7-0.7-1.9-0.6-2.5,0C13,74.4,7.7,79.7,4,85.7
				c-0.2,0.4-0.4,0.7-0.6,1.1c-2,3.5-3.4,7.3-3.4,11c0,3.9,1.3,7.4,3.4,10.3c0.2,0.3,0.4,0.5,0.6,0.8c3.2,3.9,8,6.3,13.4,6.3
				c9.6,0,17.5-7.8,17.5-17.5C34.9,93.3,32.9,88.2,28.9,82.7z M17.4,111.8c-6.4,0-11.8-4.3-13.4-10.2c-0.3-1.2-0.5-2.4-0.5-3.7
				c0-1.2,0.2-2.4,0.5-3.6c0.7-2.8,2.3-5.8,4.6-9c2.6-3.7,5.8-7.1,8.9-10.2c6.6,6.6,13.9,15.1,13.9,22.9
				C31.4,105.5,25.1,111.8,17.4,111.8z"/>
			<path class="st1" d="M88.9,82.7c-3.4-4.7-7.5-8.8-10.2-11.5c-0.7-0.7-1.9-0.6-2.5,0C71,76.5,60,87.3,60,97.8
				c0,9.6,7.8,17.5,17.5,17.5s17.5-7.8,17.5-17.5C94.9,93.3,92.9,88.2,88.9,82.7z M77.4,111.8c-7.7,0-13.9-6.2-13.9-13.9
				c0-3.7,1.7-7.9,5.1-12.7c2.6-3.7,5.8-7.1,8.9-10.2c6.6,6.6,13.9,15.1,13.9,22.9C91.4,105.5,85.1,111.8,77.4,111.8z"/>
			<path class="st1" d="M148.9,82.7c-3.4-4.7-7.5-8.8-10.2-11.5c-0.7-0.7-1.9-0.6-2.5,0C131,76.5,120,87.3,120,97.8
				c0,9.6,7.8,17.5,17.5,17.5s17.5-7.8,17.5-17.5C154.9,93.3,152.9,88.2,148.9,82.7z M137.4,111.8c-7.7,0-13.9-6.2-13.9-13.9
				c0-3.7,1.7-7.9,5.1-12.7c2.6-3.7,5.8-7.1,8.9-10.2c6.6,6.6,13.9,15.1,13.9,22.9C151.4,105.5,145.1,111.8,137.4,111.8z"/>
			<path class="st1" d="M208.9,82.7c-3.4-4.7-7.5-8.8-10.2-11.5c-0.7-0.7-1.9-0.6-2.5,0C191,76.5,180,87.3,180,97.8
				c0,9.6,7.8,17.5,17.5,17.5s17.4-7.8,17.4-17.5C214.9,93.3,212.9,88.2,208.9,82.7z M197.4,111.8c-7.7,0-13.9-6.2-13.9-13.9
				c0-3.7,1.7-7.9,5.1-12.7c2.6-3.7,5.8-7.1,8.9-10.2c6.6,6.6,13.9,15.1,13.9,22.9C211.4,105.5,205.1,111.8,197.4,111.8z"/>
			<path class="st1" d="M268.9,82.7c-3.4-4.7-7.5-8.8-10.2-11.5c-0.7-0.7-1.9-0.6-2.5,0C251,76.5,240,87.3,240,97.8
				c0,9.6,7.8,17.5,17.5,17.5s17.5-7.8,17.5-17.5C274.9,93.3,272.9,88.2,268.9,82.7z M257.4,111.8c-7.7,0-13.9-6.2-13.9-13.9
				c0-3.7,1.7-7.9,5.1-12.7c2.6-3.7,5.8-7.1,8.9-10.2c6.6,6.6,13.9,15.1,13.9,22.9C271.4,105.5,265.1,111.8,257.4,111.8z"/>
			<path class="st1" d="M328.9,82.7c-3.4-4.7-7.5-8.8-10.2-11.5c-0.7-0.7-1.9-0.6-2.5,0c-1.5,1.5-3.4,3.4-5.5,5.7
				c-5.1,5.7-10.8,13.4-10.8,21c0,2.5,0.5,4.9,1.5,7.1c2.7,6.1,8.8,10.4,15.9,10.4c3.2,0,6.3-0.9,8.9-2.4c5-3,8.3-8.3,8.5-14.4
				c0-0.2,0-0.4,0-0.6C334.9,93.3,332.9,88.2,328.9,82.7z M331.4,97.8c0,5.4-3.1,10.1-7.6,12.4c-1.9,1-4.1,1.5-6.3,1.5
				c-6.2,0-11.4-4-13.2-9.6c-0.5-1.4-0.7-2.8-0.7-4.4c0-3.7,1.7-7.9,5.1-12.7c1.8-2.5,3.8-4.8,5.8-7c1-1.1,2-2.2,3-3.2
				c5.6,5.7,11.8,12.7,13.5,19.5C331.2,95.6,331.4,96.7,331.4,97.8z"/>
			<path class="st1" d="M388.9,82.7c-3.4-4.7-7.5-8.8-10.2-11.5c-0.7-0.7-1.9-0.6-2.5,0C371,76.5,360,87.3,360,97.8
				c0,9.6,7.8,17.5,17.5,17.5s17.5-7.8,17.5-17.5C394.9,93.3,392.9,88.2,388.9,82.7z M377.4,111.8c-7.7,0-13.9-6.2-13.9-13.9
				c0-3.7,1.7-7.9,5.1-12.7c2.6-3.7,5.8-7.1,8.9-10.2c6.6,6.6,13.9,15.1,13.9,22.9C391.4,105.5,385.1,111.8,377.4,111.8z"/>
			<path class="st1" d="M448.9,82.7c-3.4-4.7-7.5-8.8-10.2-11.5c-0.7-0.7-1.9-0.6-2.5,0C431,76.5,420,87.3,420,97.8
				c0,9.6,7.8,17.5,17.5,17.5s17.5-7.8,17.5-17.5C454.9,93.3,452.9,88.2,448.9,82.7z M437.4,111.8c-7.7,0-13.9-6.2-13.9-13.9
				c0-3.7,1.7-7.9,5.1-12.7c2.6-3.7,5.8-7.1,8.9-10.2c6.6,6.6,13.9,15.1,13.9,22.9C451.4,105.5,445.1,111.8,437.4,111.8z"/>
			<path class="st1" d="M508.9,82.7c-3.4-4.7-7.5-8.8-10.2-11.5c-0.7-0.7-1.9-0.6-2.5,0C491,76.5,480,87.3,480,97.8
				c0,9.6,7.8,17.5,17.5,17.5s17.5-7.8,17.5-17.5C514.9,93.3,512.9,88.2,508.9,82.7z M497.4,111.8c-7.7,0-13.9-6.2-13.9-13.9
				c0-3.7,1.7-7.9,5.1-12.7c2.6-3.7,5.8-7.1,8.9-10.2c6.6,6.6,13.9,15.1,13.9,22.9C511.4,105.5,505.1,111.8,497.4,111.8z"/>
			<path class="st1" d="M568.9,82.7c-3.4-4.7-7.5-8.8-10.2-11.5c-0.7-0.7-1.9-0.6-2.5,0C551,76.5,540,87.3,540,97.8
				c0,9.6,7.8,17.5,17.5,17.5s17.5-7.8,17.5-17.5C574.9,93.3,572.9,88.2,568.9,82.7z M557.4,111.8c-7.7,0-13.9-6.2-13.9-13.9
				c0-3.7,1.7-7.9,5.1-12.7c2.6-3.7,5.8-7.1,8.9-10.2c6.6,6.6,13.9,15.1,13.9,22.9C571.4,105.5,565.1,111.8,557.4,111.8z"/>
			<path class="st1" d="M615,77.5v-5c-5.6,5.6-15,15.6-15,25.3c0,8.8,6.5,16.1,15,17.3v-3.6c-6.5-1.2-11.5-6.9-11.5-13.7
				c0-3.7,1.7-7.9,5.1-12.7C610.5,82.4,612.7,79.9,615,77.5z"/>
		</g>
		<g>
			<path class="st1" d="M4,152.4c-0.2-0.6-0.4-1.2-0.6-1.8v14.2c0.2-0.5,0.5-1,0.6-1.6c0.6-1.7,0.9-3.6,0.9-5.5
				C4.9,156.1,4.6,154.3,4,152.4z"/>
			<path class="st1" d="M58.9,142.7c-3.4-4.7-7.5-8.8-10.2-11.5c-0.7-0.7-1.9-0.6-2.5,0C41,136.5,30,147.3,30,157.8
				c0,9.6,7.8,17.5,17.5,17.5s17.5-7.8,17.5-17.5C64.9,153.3,62.9,148.2,58.9,142.7z M47.4,171.8c-7.7,0-13.9-6.2-13.9-13.9
				c0-3.7,1.7-7.9,5.1-12.7c2.6-3.7,5.8-7.1,8.9-10.2c6.6,6.6,13.9,15.1,13.9,22.9C61.4,165.5,55.1,171.8,47.4,171.8z"/>
			<path class="st1" d="M118.9,142.7c-3.4-4.7-7.5-8.8-10.2-11.5c-0.7-0.7-1.9-0.6-2.5,0C101,136.5,90,147.3,90,157.8
				c0,9.6,7.8,17.5,17.5,17.5s17.5-7.8,17.5-17.5C124.9,153.3,122.9,148.2,118.9,142.7z M107.4,171.8c-7.7,0-13.9-6.2-13.9-13.9
				c0-3.7,1.7-7.9,5.1-12.7c2.6-3.7,5.8-7.1,8.9-10.2c6.6,6.6,13.9,15.1,13.9,22.9C121.4,165.5,115.1,171.8,107.4,171.8z"/>
			<path class="st1" d="M178.9,142.7c-3.4-4.7-7.5-8.8-10.2-11.5c-0.7-0.7-1.9-0.6-2.5,0c-5.3,5.2-16.2,16.1-16.2,26.6
				c0,9.6,7.8,17.5,17.5,17.5s17.5-7.8,17.5-17.5C184.9,153.3,182.9,148.2,178.9,142.7z M167.4,171.8c-7.7,0-13.9-6.2-13.9-13.9
				c0-3.7,1.7-7.9,5.1-12.7c2.6-3.7,5.8-7.1,8.9-10.2c6.6,6.6,13.9,15.1,13.9,22.9C181.4,165.5,175.1,171.8,167.4,171.8z"/>
			<path class="st1" d="M240.9,145.8c-0.6-1-1.3-2-2-3.1c-3.4-4.7-7.5-8.8-10.2-11.5c-0.7-0.7-1.9-0.6-2.5,0
				c-5.3,5.2-16.2,16.1-16.2,26.6c0,6.2,3.3,11.7,8.2,14.8c2.7,1.7,5.9,2.7,9.3,2.7c9.6,0,17.5-7.8,17.5-17.5
				C244.9,154.2,243.6,150.1,240.9,145.8z M227.4,171.8c-2.6,0-5-0.7-7-1.9c-4.1-2.4-6.9-6.9-6.9-12c0-3.7,1.7-7.9,5.1-12.7
				c2.6-3.7,5.8-7.1,8.9-10.2c4,4,8.3,8.8,11,13.6c1.8,3.1,2.9,6.2,2.9,9.3C241.4,165.5,235.1,171.8,227.4,171.8z"/>
			<path class="st1" d="M298.9,142.7c-3.4-4.7-7.5-8.8-10.2-11.5c-0.7-0.7-1.9-0.6-2.5,0c-5.3,5.2-16.2,16.1-16.2,26.6
				c0,9.6,7.8,17.5,17.5,17.5s17.5-7.8,17.5-17.5C304.9,153.3,302.9,148.2,298.9,142.7z M287.4,171.8c-7.7,0-13.9-6.2-13.9-13.9
				c0-3.7,1.7-7.9,5.1-12.7c2.6-3.7,5.8-7.1,8.9-10.2c6.6,6.6,13.9,15.1,13.9,22.9C301.4,165.5,295.1,171.8,287.4,171.8z"/>
			<path class="st1" d="M364.3,153.3c-0.9-3.3-2.7-6.8-5.4-10.6c-3.4-4.7-7.5-8.8-10.2-11.5c-0.7-0.7-1.9-0.6-2.5,0
				c-0.4,0.4-0.7,0.7-1.2,1.1c-5.6,5.6-15.1,15.7-15.1,25.5c0,9.6,7.8,17.5,17.5,17.5s17.5-7.8,17.5-17.5
				C364.9,156.4,364.7,154.8,364.3,153.3z M347.4,171.8c-7.7,0-13.9-6.2-13.9-13.9c0-3.7,1.7-7.9,5.1-12.7c2.6-3.7,5.8-7.1,8.9-10.2
				c0.6,0.6,1.1,1.2,1.7,1.8c0.8,0.8,1.6,1.7,2.4,2.6c5.2,5.8,9.8,12.4,9.8,18.5C361.4,165.5,355.1,171.8,347.4,171.8z"/>
			<path class="st1" d="M418.9,142.7c-3.4-4.7-7.5-8.8-10.2-11.5c-0.7-0.7-1.9-0.6-2.5,0c-5.3,5.2-16.2,16.1-16.2,26.6
				c0,0.1,0,0.2,0,0.3c0.2,8.2,6,15,13.8,16.7c1.2,0.3,2.4,0.4,3.6,0.4c9.6,0,17.5-7.8,17.5-17.5
				C424.9,153.3,422.9,148.2,418.9,142.7z M407.4,171.8c-3.2,0-6.2-1.1-8.5-2.9c0,0,0,0,0,0c-1.6-1.2-2.9-2.9-3.8-4.7
				c-1-1.9-1.5-4.1-1.5-6.3c0-3.7,1.7-7.9,5.1-12.7c2.6-3.7,5.8-7.1,8.9-10.2c6.6,6.6,13.9,15.1,13.9,22.9
				C421.4,165.5,415.1,171.8,407.4,171.8z"/>
			<path class="st1" d="M478.9,142.7c-3.4-4.7-7.5-8.8-10.2-11.5c-0.7-0.7-1.9-0.6-2.5,0c-5.3,5.2-16.2,16.1-16.2,26.6
				c0,9.6,7.8,17.5,17.5,17.5s17.5-7.8,17.5-17.5C484.9,153.3,482.9,148.2,478.9,142.7z M467.4,171.8c-7.7,0-13.9-6.2-13.9-13.9
				c0-3.7,1.7-7.9,5.1-12.7c2.6-3.7,5.8-7.1,8.9-10.2c6.6,6.6,13.9,15.1,13.9,22.9C481.4,165.5,475.1,171.8,467.4,171.8z"/>
			<path class="st1" d="M538.9,142.7c-3.4-4.7-7.5-8.8-10.2-11.5c-0.7-0.7-1.9-0.6-2.5,0c-5.3,5.2-16.2,16.1-16.2,26.6
				c0,9.6,7.8,17.5,17.5,17.5s17.5-7.8,17.5-17.5C544.9,153.3,542.9,148.2,538.9,142.7z M527.4,171.8c-7.7,0-13.9-6.2-13.9-13.9
				c0-3.7,1.7-7.9,5.1-12.7c2.6-3.7,5.8-7.1,8.9-10.2c6.6,6.6,13.9,15.1,13.9,22.9C541.4,165.5,535.1,171.8,527.4,171.8z"/>
			<path class="st1" d="M598.9,142.7c-3.4-4.7-7.5-8.8-10.2-11.5c-0.7-0.7-1.9-0.6-2.5,0c-5.3,5.2-16.2,16.1-16.2,26.6
				c0,9.6,7.8,17.5,17.5,17.5s17.5-7.8,17.5-17.5C604.9,153.3,602.9,148.2,598.9,142.7z M587.4,171.8c-7.7,0-13.9-6.2-13.9-13.9
				c0-3.7,1.7-7.9,5.1-12.7c2.6-3.7,5.8-7.1,8.9-10.2c6.6,6.6,13.9,15.1,13.9,22.9C601.4,165.5,595.1,171.8,587.4,171.8z"/>
		</g>
		<g>
			<path class="st1" d="M28.9,202.7c-3.4-4.7-7.5-8.8-10.2-11.5c-0.7-0.7-1.9-0.6-2.5,0c-3.2,3.2-8.6,8.5-12.2,14.5
				c-0.2,0.4-0.4,0.7-0.6,1.1v21.4c0.2,0.3,0.4,0.5,0.6,0.8c3.2,3.9,8,6.3,13.4,6.3c9.6,0,17.5-7.8,17.5-17.5
				C34.9,213.3,32.9,208.2,28.9,202.7z M17.4,231.8c-6.4,0-11.8-4.3-13.4-10.2c-0.3-1.2-0.5-2.4-0.5-3.7c0-1.2,0.2-2.4,0.5-3.6
				c0.7-2.8,2.3-5.8,4.6-9c2.6-3.7,5.8-7.1,8.9-10.2c6.6,6.6,13.9,15.1,13.9,22.9C31.4,225.5,25.1,231.8,17.4,231.8z"/>
			<path class="st1" d="M88.9,202.7c-3.4-4.7-7.5-8.8-10.2-11.5c-0.7-0.7-1.9-0.6-2.5,0C71,196.5,60,207.3,60,217.8
				c0,9.6,7.8,17.5,17.5,17.5s17.5-7.8,17.5-17.5C94.9,213.3,92.9,208.2,88.9,202.7z M77.4,231.8c-7.7,0-13.9-6.2-13.9-13.9
				c0-3.7,1.7-7.9,5.1-12.7c2.6-3.7,5.8-7.1,8.9-10.2c6.6,6.6,13.9,15.1,13.9,22.9C91.4,225.5,85.1,231.8,77.4,231.8z"/>
			<path class="st1" d="M148.9,202.7c-3.4-4.7-7.5-8.8-10.2-11.5c-0.7-0.7-1.9-0.6-2.5,0c-5.3,5.2-16.2,16.1-16.2,26.6
				c0,9.6,7.8,17.5,17.5,17.5s17.5-7.8,17.5-17.5C154.9,213.3,152.9,208.2,148.9,202.7z M137.4,231.8c-7.7,0-13.9-6.2-13.9-13.9
				c0-3.7,1.7-7.9,5.1-12.7c2.6-3.7,5.8-7.1,8.9-10.2c6.6,6.6,13.9,15.1,13.9,22.9C151.4,225.5,145.1,231.8,137.4,231.8z"/>
			<path class="st1" d="M211.8,207.2c-0.8-1.5-1.8-3-2.9-4.5c-2.3-3.2-5-6.2-7.3-8.6c-1.1-1.1-2-2-2.8-2.9c-0.7-0.7-1.9-0.6-2.5,0
				c-5.3,5.2-16.2,16.1-16.2,26.6c0,2.1,0.4,4.1,1.1,6c1.9,5.3,6.4,9.5,12,10.9c1.4,0.4,2.9,0.6,4.4,0.6c9.6,0,17.4-7.8,17.4-17.5
				C214.9,214.6,213.8,211,211.8,207.2z M197.4,231.8c-0.8,0-1.6-0.1-2.4-0.2c-5.9-1-10.6-5.8-11.4-11.8c-0.1-0.6-0.1-1.3-0.1-1.9
				c0-3.7,1.7-7.9,5.1-12.7c2.6-3.7,5.8-7.1,8.9-10.2c0.7,0.7,1.3,1.3,2,2c3.9,4.1,7.8,8.8,10,13.4c1.2,2.5,1.9,5,1.9,7.4
				C211.4,225.5,205.1,231.8,197.4,231.8z"/>
			<path class="st1" d="M268.9,202.7c-3.4-4.7-7.5-8.8-10.2-11.5c-0.7-0.7-1.9-0.6-2.5,0c-5.3,5.2-16.2,16.1-16.2,26.6
				c0,9.6,7.8,17.5,17.5,17.5s17.5-7.8,17.5-17.5C274.9,213.3,272.9,208.2,268.9,202.7z M257.4,231.8c-7.7,0-13.9-6.2-13.9-13.9
				c0-3.7,1.7-7.9,5.1-12.7c2.6-3.7,5.8-7.1,8.9-10.2c6.6,6.6,13.9,15.1,13.9,22.9C271.4,225.5,265.1,231.8,257.4,231.8z"/>
			<path class="st1" d="M328.9,202.7c-3.4-4.7-7.5-8.8-10.2-11.5c-0.7-0.7-1.9-0.6-2.5,0c-5.3,5.2-16.2,16.1-16.2,26.6
				c0,9.6,7.8,17.5,17.5,17.5s17.5-7.8,17.5-17.5C334.9,213.3,332.9,208.2,328.9,202.7z M317.4,231.8c-7.7,0-13.9-6.2-13.9-13.9
				c0-3.7,1.7-7.9,5.1-12.7c2.6-3.7,5.8-7.1,8.9-10.2c6.6,6.6,13.9,15.1,13.9,22.9C331.4,225.5,325.1,231.8,317.4,231.8z"/>
			<path class="st1" d="M388.9,202.7c-3.4-4.7-7.5-8.8-10.2-11.5c-0.7-0.7-1.9-0.6-2.5,0c-5.3,5.2-16.2,16.1-16.2,26.6
				c0,9.6,7.8,17.5,17.5,17.5s17.5-7.8,17.5-17.5C394.9,213.3,392.9,208.2,388.9,202.7z M377.4,231.8c-7.7,0-13.9-6.2-13.9-13.9
				c0-3.7,1.7-7.9,5.1-12.7c2.6-3.7,5.8-7.1,8.9-10.2c6.6,6.6,13.9,15.1,13.9,22.9C391.4,225.5,385.1,231.8,377.4,231.8z"/>
			<path class="st1" d="M448.9,202.7c-3.4-4.7-7.5-8.8-10.2-11.5c-0.7-0.7-1.9-0.6-2.5,0c-2.8,2.8-7.3,7.2-10.8,12.3
				c-3.1,4.4-5.5,9.4-5.5,14.3c0,9.6,7.8,17.5,17.5,17.5c2.8,0,5.3-0.6,7.7-1.8c5.8-2.8,9.8-8.8,9.8-15.7
				C454.9,213.3,452.9,208.2,448.9,202.7z M443.3,230.5c-1.8,0.8-3.8,1.3-5.8,1.3c-7.7,0-13.9-6.2-13.9-13.9c0-3.3,1.4-7.1,4.1-11.2
				c0.3-0.5,0.6-1,1-1.5c2.6-3.7,5.8-7.1,8.9-10.2c6.6,6.6,13.9,15.1,13.9,22.9C451.4,223.4,448.1,228.3,443.3,230.5z"/>
			<path class="st1" d="M508.9,202.7c-3.4-4.7-7.5-8.8-10.2-11.5c-0.7-0.7-1.9-0.6-2.5,0c-5.3,5.2-16.2,16.1-16.2,26.6
				c0,9.6,7.8,17.5,17.5,17.5s17.5-7.8,17.5-17.5C514.9,213.3,512.9,208.2,508.9,202.7z M497.4,231.8c-7.7,0-13.9-6.2-13.9-13.9
				c0-3.7,1.7-7.9,5.1-12.7c2.6-3.7,5.8-7.1,8.9-10.2c6.6,6.6,13.9,15.1,13.9,22.9C511.4,225.5,505.1,231.8,497.4,231.8z"/>
			<path class="st1" d="M568.9,202.7c-3.4-4.7-7.5-8.8-10.2-11.5c-0.7-0.7-1.9-0.6-2.5,0c-5.3,5.2-16.2,16.1-16.2,26.6
				c0,9.6,7.8,17.5,17.5,17.5s17.5-7.8,17.5-17.5C574.9,213.3,572.9,208.2,568.9,202.7z M557.4,231.8c-7.7,0-13.9-6.2-13.9-13.9
				c0-3.7,1.7-7.9,5.1-12.7c2.6-3.7,5.8-7.1,8.9-10.2c6.6,6.6,13.9,15.1,13.9,22.9C571.4,225.5,565.1,231.8,557.4,231.8z"/>
			<path class="st1" d="M615,197.5v-5c-5.6,5.6-15,15.6-15,25.3c0,8.8,6.5,16.1,15,17.3v-3.6c-6.5-1.2-11.5-6.9-11.5-13.7
				c0-3.7,1.7-7.9,5.1-12.7C610.5,202.4,612.7,199.9,615,197.5z"/>
		</g>
		<g>
			<path class="st1" d="M4,272.4c-0.2-0.6-0.4-1.2-0.6-1.8v14.2c0.2-0.5,0.5-1,0.6-1.6c0.6-1.7,0.9-3.6,0.9-5.5
				C4.9,276.1,4.6,274.3,4,272.4z"/>
			<path class="st1" d="M58.9,262.7c-3.4-4.7-7.5-8.8-10.2-11.5c-0.7-0.7-1.9-0.6-2.5,0C41,256.5,30,267.3,30,277.8
				c0,9.6,7.8,17.5,17.5,17.5s17.5-7.8,17.5-17.5C64.9,273.3,62.9,268.2,58.9,262.7z M47.4,291.8c-7.7,0-13.9-6.3-13.9-13.9
				c0-3.7,1.7-7.9,5.1-12.7c2.6-3.7,5.8-7.1,8.9-10.2c6.6,6.6,13.9,15.1,13.9,22.9C61.4,285.5,55.1,291.8,47.4,291.8z"/>
			<path class="st1" d="M118.9,262.7c-3.4-4.7-7.5-8.8-10.2-11.5c-0.7-0.7-1.9-0.6-2.5,0C101,256.5,90,267.3,90,277.8
				c0,9.6,7.8,17.5,17.5,17.5s17.5-7.8,17.5-17.5C124.9,273.3,122.9,268.2,118.9,262.7z M107.4,291.8c-7.7,0-13.9-6.3-13.9-13.9
				c0-3.7,1.7-7.9,5.1-12.7c2.6-3.7,5.8-7.1,8.9-10.2c6.6,6.6,13.9,15.1,13.9,22.9C121.4,285.5,115.1,291.8,107.4,291.8z"/>
			<path class="st1" d="M178.9,262.7c-0.4-0.5-0.8-1-1.1-1.5c-3.1-4-6.6-7.5-9-10c-0.7-0.7-1.9-0.6-2.5,0c-0.8,0.8-1.8,1.7-2.8,2.8
				c-5.6,5.8-13.5,14.9-13.5,23.8c0,1.5,0.2,2.8,0.5,4.2c1.5,6.1,6.3,11,12.3,12.6c1.5,0.4,3,0.6,4.6,0.6c9.6,0,17.5-7.8,17.5-17.5
				C184.9,273.3,182.9,268.2,178.9,262.7z M167.4,291.8c-1.2,0-2.3-0.1-3.4-0.4c-6.1-1.5-10.6-7-10.6-13.5c0-1.7,0.4-3.6,1.1-5.6
				c0.3-0.9,0.7-1.8,1.2-2.7c0,0,0-0.1,0.1-0.1c0.7-1.4,1.6-2.8,2.7-4.3c2.6-3.7,5.8-7.1,8.9-10.2c2.9,2.9,6,6.2,8.5,9.7
				c3.2,4.3,5.4,8.9,5.4,13.2C181.4,285.5,175.1,291.8,167.4,291.8z"/>
			<path class="st1" d="M238.9,262.7c-3.1-4.3-6.8-8-9.4-10.7c-0.2-0.3-0.5-0.5-0.7-0.7c-0.7-0.7-1.9-0.6-2.5,0
				c-0.1,0.1-0.2,0.2-0.3,0.3c-2.1,2.1-5,5-7.7,8.3c-1.1,1.3-2.1,2.7-3.1,4.1c-2.9,4.3-5.1,9.1-5.1,13.8c0,4.6,1.8,8.7,4.7,11.8
				c3.2,3.5,7.8,5.6,12.8,5.6c4,0,7.7-1.4,10.6-3.6h0c4.1-3.2,6.8-8.2,6.8-13.8C244.9,273.3,242.9,268.2,238.9,262.7z M240.5,282.8
				c-2,5.2-7.1,9-13,9c-5.6,0-10.5-3.4-12.7-8.2v0c-0.8-1.8-1.2-3.7-1.2-5.8c0-3.6,1.6-7.7,4.8-12.3c0.1-0.1,0.2-0.3,0.3-0.4
				c1.4-2,2.9-3.8,4.5-5.6c1.4-1.6,2.9-3.1,4.4-4.6c2.8,2.8,5.7,5.9,8.1,9.1c0,0,0,0,0,0c1.9,2.6,3.5,5.2,4.6,7.9c0,0,0,0,0,0
				c0.8,1.9,1.2,3.9,1.2,5.8C241.4,279.6,241.1,281.2,240.5,282.8C240.5,282.8,240.5,282.8,240.5,282.8z"/>
			<path class="st1" d="M303.5,271c-0.6-1.6-1.4-3.2-2.4-4.8c-0.7-1.1-1.4-2.3-2.2-3.4c-1.4-1.9-2.9-3.7-4.3-5.4
				c-2.1-2.4-4.2-4.5-5.8-6.1c-0.7-0.7-1.9-0.6-2.5,0c-4.7,4.7-14,13.9-15.9,23.2c-0.2,1.1-0.4,2.2-0.4,3.4
				c0,9.6,7.8,17.5,17.5,17.5c1.6,0,3.1-0.2,4.5-0.6c3.5-0.9,6.6-2.9,8.8-5.6c2.6-3,4.1-7,4.1-11.2
				C304.9,275.7,304.4,273.4,303.5,271z M292.6,290.8c-1.6,0.6-3.3,1-5.2,1c-2.7,0-5.2-0.8-7.3-2.1c-2.3-1.4-4.1-3.5-5.3-6
				c-0.8-1.8-1.3-3.8-1.3-5.9c0-1,0.1-2,0.4-3c0.7-2.9,2.2-6.2,4.7-9.7c2.6-3.7,5.8-7.1,8.9-10.2c1.2,1.2,2.4,2.4,3.5,3.7
				c2.7,3,5.3,6.2,7.3,9.5c1.9,3.2,3.1,6.5,3.1,9.7C301.4,283.7,297.7,288.7,292.6,290.8z"/>
			<path class="st1" d="M361.4,266.6c-0.7-1.3-1.6-2.6-2.5-3.9c-0.7-1-1.4-1.9-2.1-2.8c-1.4-1.7-2.8-3.3-4.1-4.7
				c-1.5-1.5-2.8-2.9-3.9-4c-0.4-0.4-1.1-0.6-1.7-0.4c-0.3,0.1-0.6,0.2-0.8,0.4c-5.2,5.1-15.9,15.8-16.2,26.1c0,0.2,0,0.3,0,0.5
				c0,2.8,0.7,5.4,1.8,7.7c1,2,2.4,3.8,4,5.3c2.4,2.2,5.5,3.7,8.9,4.2c0.9,0.1,1.8,0.2,2.7,0.2c4.1,0,7.8-1.4,10.8-3.7
				c4.1-3.2,6.7-8.1,6.7-13.7v0C364.9,274.4,363.7,270.6,361.4,266.6z M358.8,285.9c-2.5,3.6-6.7,5.9-11.4,5.9c-0.7,0-1.4-0.1-2-0.2
				c-3.6-0.5-6.7-2.4-8.9-5.2c-1.9-2.4-3-5.4-3-8.6c0-3.7,1.7-7.9,5.1-12.7c1.5-2.1,3.2-4.1,4.9-6c1.3-1.5,2.6-2.8,4-4.2
				c1.2,1.3,2.5,2.6,3.8,4c1.3,1.4,2.5,2.8,3.7,4.3c1.6,2.1,3.1,4.2,4.2,6.4c0.9,1.8,1.6,3.6,2,5.4c0.2,0.9,0.3,1.8,0.3,2.8
				C361.4,280.8,360.4,283.6,358.8,285.9z"/>
			<path class="st1" d="M418.9,262.7c-3.4-4.7-7.5-8.8-10.2-11.5c-0.5-0.5-1.3-0.6-2-0.4c-0.2,0.1-0.4,0.2-0.5,0.4
				c-5.3,5.2-16.2,16.1-16.2,26.6c0,1.7,0.2,3.3,0.7,4.8c0.8,2.9,2.4,5.5,4.5,7.5c2.1,2,4.6,3.6,7.5,4.4c1.5,0.5,3.1,0.7,4.8,0.7
				c0.2,0,0.4,0,0.6,0c4.4-0.1,8.3-1.9,11.3-4.7c3.4-3.2,5.6-7.7,5.6-12.8C424.9,273.3,422.9,268.2,418.9,262.7z M412.3,290.9
				c-1.5,0.6-3.1,0.9-4.8,0.9c-1.3,0-2.5-0.2-3.7-0.5c-2.7-0.7-5-2.2-6.8-4.2c-2-2.2-3.2-5.1-3.5-8.3c0-0.3,0-0.6,0-0.9
				c0-3.7,1.7-7.9,5.1-12.7c2.2-3.1,4.7-5.9,7.3-8.6c0.5-0.5,1.1-1.1,1.6-1.6c6.6,6.6,13.9,15.1,13.9,22.9c0,3-0.9,5.7-2.5,8
				C417.3,288.1,415,289.9,412.3,290.9z"/>
			<path class="st1" d="M478.9,262.7c-3.4-4.7-7.5-8.8-10.2-11.5c-0.7-0.7-1.9-0.6-2.5,0c-1.9,1.9-4.6,4.5-7.2,7.6
				c-4.4,5.2-8.6,11.6-9,18c0,0.3,0,0.7,0,1c0,5.2,2.3,9.9,5.9,13.1c3.1,2.7,7.1,4.4,11.5,4.4c2.3,0,4.5-0.5,6.5-1.3
				c6.4-2.6,10.9-8.8,10.9-16.2C484.9,273.3,482.9,268.2,478.9,262.7z M472.8,290.7c-1.6,0.7-3.5,1.1-5.4,1.1
				c-7.7,0-13.9-6.3-13.9-13.9c0-3.7,1.7-7.9,5.1-12.7c0.7-1,1.4-1.9,2.2-2.9c2.1-2.6,4.4-5,6.7-7.3c6.6,6.6,13.9,15.1,13.9,22.9
				C481.4,283.6,477.8,288.6,472.8,290.7z"/>
			<path class="st1" d="M538.9,262.7c-3.4-4.7-7.5-8.8-10.2-11.5c-0.7-0.7-1.9-0.6-2.5,0c-5.3,5.2-16.2,16.1-16.2,26.6
				c0,9.6,7.8,17.5,17.5,17.5s17.5-7.8,17.5-17.5C544.9,273.3,542.9,268.2,538.9,262.7z M527.4,291.8c-7.7,0-13.9-6.3-13.9-13.9
				c0-3.7,1.7-7.9,5.1-12.7c2.6-3.7,5.8-7.1,8.9-10.2c6.6,6.6,13.9,15.1,13.9,22.9C541.4,285.5,535.1,291.8,527.4,291.8z"/>
			<path class="st1" d="M598.9,262.7c-3.4-4.7-7.5-8.8-10.2-11.5c-0.7-0.7-1.9-0.6-2.5,0c-5.3,5.2-16.2,16.1-16.2,26.6
				c0,9.6,7.8,17.5,17.5,17.5s17.5-7.8,17.5-17.5C604.9,273.3,602.9,268.2,598.9,262.7z M587.4,291.8c-7.7,0-13.9-6.3-13.9-13.9
				c0-3.7,1.7-7.9,5.1-12.7c2.6-3.7,5.8-7.1,8.9-10.2c6.6,6.6,13.9,15.1,13.9,22.9C601.4,285.5,595.1,291.8,587.4,291.8z"/>
		</g>
		<g>
			<path class="st1" d="M28.9,322.7c-3.4-4.7-7.5-8.8-10.2-11.5c-0.7-0.7-1.9-0.6-2.5,0c-3.2,3.2-8.6,8.5-12.2,14.5
				c-0.2,0.4-0.4,0.7-0.6,1.1c-2,3.5-3.4,7.3-3.4,11c0,3.9,1.3,7.4,3.4,10.3c0.2,0.3,0.4,0.5,0.6,0.8c3.2,3.9,8,6.3,13.4,6.3
				c9.6,0,17.5-7.8,17.5-17.5C34.9,333.3,32.9,328.2,28.9,322.7z M17.4,351.8c-6.4,0-11.8-4.3-13.4-10.2c-0.3-1.2-0.5-2.4-0.5-3.7
				c0-1.2,0.2-2.4,0.5-3.6c0.7-2.8,2.3-5.8,4.6-9c2.6-3.7,5.8-7.1,8.9-10.2c6.6,6.6,13.9,15.1,13.9,22.9
				C31.4,345.5,25.1,351.8,17.4,351.8z"/>
			<path class="st1" d="M88.9,322.7c-3.4-4.7-7.5-8.8-10.2-11.5c-0.7-0.7-1.9-0.6-2.5,0C71,316.5,60,327.3,60,337.8
				c0,9.6,7.8,17.5,17.5,17.5s17.5-7.8,17.5-17.5C94.9,333.3,92.9,328.2,88.9,322.7z M77.4,351.8c-7.7,0-13.9-6.3-13.9-13.9
				c0-3.7,1.7-7.9,5.1-12.7c2.6-3.7,5.8-7.1,8.9-10.2c6.6,6.6,13.9,15.1,13.9,22.9C91.4,345.5,85.1,351.8,77.4,351.8z"/>
			<path class="st1" d="M153.2,330.3c-1-2.4-2.4-5-4.4-7.6c-2.7-3.8-5.9-7.1-8.4-9.7c-0.6-0.6-1.2-1.2-1.7-1.7
				c-0.7-0.7-1.9-0.6-2.5,0c-5.3,5.2-16.2,16.1-16.2,26.6c0,8.8,6.6,16.1,15.1,17.3c0.8,0.1,1.6,0.2,2.4,0.2
				c5.7,0,10.7-2.7,13.9-6.9c2.2-2.9,3.6-6.6,3.6-10.6C154.9,335.5,154.3,333,153.2,330.3z M137.4,351.8c-0.8,0-1.6-0.1-2.3-0.2
				c-6.6-1.1-11.6-6.9-11.6-13.7c0-3.7,1.7-7.9,5.1-12.7c2.6-3.7,5.8-7.1,8.9-10.2c0.7,0.7,1.4,1.4,2,2.1c6,6.3,11.9,13.8,11.9,20.8
				C151.4,345.5,145.1,351.8,137.4,351.8z"/>
			<path class="st1" d="M208.9,322.7c-3.4-4.7-7.5-8.8-10.2-11.5c-0.7-0.7-1.9-0.6-2.5,0c-5.3,5.2-16.2,16.1-16.2,26.6
				c0,7.3,4.5,13.5,10.9,16.1c2,0.8,4.3,1.3,6.6,1.3c4.7,0,9-1.9,12.2-5c3.2-3.2,5.3-7.6,5.3-12.5
				C214.9,333.3,212.9,328.2,208.9,322.7z M206.3,348.6c-2.4,2-5.5,3.2-8.9,3.2c-1.3,0-2.6-0.2-3.8-0.5c-5.8-1.6-10.1-7-10.1-13.4
				c0-3.7,1.7-7.9,5.1-12.7c2.6-3.7,5.8-7.1,8.9-10.2c6.6,6.6,13.9,15.1,13.9,22.9C211.4,342.2,209.4,346,206.3,348.6z"/>
			<path class="st1" d="M274.9,337.4c0-0.8-0.1-1.5-0.2-2.3c-0.1-0.7-0.3-1.4-0.5-2c-0.7-2.4-1.8-4.8-3.4-7.4
				c-0.6-1-1.2-1.9-1.9-2.9c-0.9-1.2-1.8-2.3-2.7-3.4c-2.7-3.2-5.5-6-7.5-8c-0.7-0.7-1.9-0.6-2.5,0c-5.3,5.2-16.2,16.1-16.2,26.6
				c0,9.6,7.8,17.5,17.5,17.5c0.5,0,0.9,0,1.4-0.1c2.8-0.2,5.5-1.1,7.8-2.5c2-1.2,3.7-2.8,5-4.6c2.1-2.9,3.3-6.4,3.3-10.2
				C274.9,337.7,274.9,337.6,274.9,337.4z M267.2,347.8c-1,0.9-2.1,1.8-3.3,2.4c-0.8,0.4-1.6,0.8-2.5,1c-1.1,0.3-2.3,0.5-3.5,0.6
				c-0.2,0-0.3,0-0.5,0c-7.7,0-13.9-6.3-13.9-13.9c0-3.7,1.7-7.9,5.1-12.7c2.6-3.7,5.8-7.1,8.9-10.2c2.1,2.1,4.2,4.3,6.2,6.7
				c0.7,0.9,1.4,1.7,2.1,2.6c0.6,0.9,1.2,1.7,1.8,2.6c0.6,1,1.2,1.9,1.7,2.9c1.1,2.2,1.9,4.4,2.1,6.6c0,0.5,0.1,0.9,0.1,1.4
				c0,2-0.4,3.9-1.2,5.6C269.5,345,268.5,346.5,267.2,347.8z"/>
			<path class="st1" d="M334.4,334c-0.2-0.8-0.4-1.6-0.7-2.5c-0.2-0.5-0.4-1-0.6-1.4c-0.4-0.9-0.8-1.9-1.4-2.8
				c-0.4-0.7-0.8-1.5-1.3-2.2c-0.5-0.8-1-1.6-1.6-2.3c0-0.1-0.1-0.1-0.1-0.2c-3.3-4.6-7.4-8.6-10-11.3c-0.7-0.7-1.9-0.6-2.5,0
				c-4.5,4.4-13,12.9-15.5,21.8c-0.5,1.6-0.7,3.2-0.7,4.8c0,2.6,0.6,5.1,1.6,7.4c2.8,6,8.8,10.1,15.8,10.1c6,0,11.2-3,14.4-7.6
				c0.9-1.3,1.6-2.8,2.2-4.3c0.6-1.8,0.9-3.6,0.9-5.6C334.9,336.6,334.7,335.3,334.4,334z M317.4,351.8c-3.9,0-7.5-1.6-10-4.3
				c-1.3-1.3-2.3-3-3-4.8c-0.3-0.7-0.5-1.3-0.6-2.1c-0.2-0.9-0.3-1.9-0.3-2.8c0-0.6,0-1.1,0.1-1.7c0.4-3.3,2.1-7,5-11
				c2.6-3.7,5.8-7.1,8.9-10.2c3.4,3.4,6.9,7.2,9.6,11.3c0.8,1.1,1.5,2.3,2,3.5c0.2,0.5,0.5,1,0.7,1.4c0.4,1,0.8,1.9,1,2.9
				c0.4,1.3,0.5,2.6,0.5,3.8c0,2.4-0.6,4.6-1.6,6.5c-0.6,1.1-1.3,2.1-2.1,3C325.1,350,321.5,351.8,317.4,351.8z"/>
			<path class="st1" d="M388.9,322.7c-3.4-4.7-7.5-8.8-10.2-11.5c-0.7-0.7-1.9-0.6-2.5,0c-4.5,4.5-13.2,13.1-15.6,22
				c-0.3,1-0.5,2.1-0.6,3.1c-0.1,0.5-0.1,1-0.1,1.5c0,0.3,0,0.6,0,0.9c0,1,0.2,2,0.4,3c0.2,0.9,0.5,1.8,0.8,2.6c0.4,1,0.9,2,1.5,2.9
				c3,4.8,8.3,8,14.4,8.1c0.1,0,0.2,0,0.3,0c8.2,0,15.1-5.7,17-13.4c0.3-1.3,0.5-2.7,0.5-4.1C394.9,333.3,392.9,328.2,388.9,322.7z
				 M379,351.7c-0.5,0.1-1,0.1-1.5,0.1c-4.9,0-9.2-2.5-11.7-6.4c-0.6-0.9-1-1.8-1.4-2.8c-0.5-1.5-0.8-3.1-0.8-4.8
				c0-3.7,1.7-7.9,5.1-12.7c2.6-3.7,5.8-7.1,8.9-10.2c6.6,6.6,13.9,15.1,13.9,22.9c0,1.2-0.1,2.3-0.4,3.4
				C389.5,346.8,384.8,351,379,351.7z"/>
			<path class="st1" d="M448.9,322.7c-3.4-4.7-7.5-8.8-10.2-11.5c-0.7-0.7-1.9-0.6-2.5,0c-5.3,5.2-16.2,16.1-16.2,26.6
				c0,9.6,7.8,17.5,17.5,17.5s17.5-7.8,17.5-17.5C454.9,333.3,452.9,328.2,448.9,322.7z M437.4,351.8c-7.7,0-13.9-6.3-13.9-13.9
				c0-3.7,1.7-7.9,5.1-12.7c2.6-3.7,5.8-7.1,8.9-10.2c6.6,6.6,13.9,15.1,13.9,22.9C451.4,345.5,445.1,351.8,437.4,351.8z"/>
			<path class="st1" d="M508.9,322.7c-3.4-4.7-7.5-8.8-10.2-11.5c-0.7-0.7-1.9-0.6-2.5,0c-3.6,3.6-9.9,9.9-13.5,16.8c0,0,0,0,0,0
				c-1.6,3.2-2.7,6.5-2.7,9.8c0,4.7,1.9,9,4.9,12.1c3.2,3.3,7.6,5.4,12.6,5.4c9.6,0,17.5-7.8,17.5-17.5
				C514.9,333.3,512.9,328.2,508.9,322.7z M497.4,351.8c-5.9,0-10.9-3.7-13-8.8c-0.6-1.6-1-3.3-1-5.1c0-0.8,0.1-1.6,0.2-2.4
				c0.6-3.1,2.2-6.5,4.8-10.2c2.6-3.7,5.8-7.1,8.9-10.2c6.6,6.6,13.9,15.1,13.9,22.9C511.4,345.5,505.1,351.8,497.4,351.8z"/>
			<path class="st1" d="M568.9,322.7c-3.4-4.7-7.5-8.8-10.2-11.5c-0.7-0.7-1.9-0.6-2.5,0c-5.3,5.2-16.2,16.1-16.2,26.6
				c0,9.6,7.8,17.5,17.5,17.5s17.5-7.8,17.5-17.5C574.9,333.3,572.9,328.2,568.9,322.7z M557.4,351.8c-7.7,0-13.9-6.3-13.9-13.9
				c0-3.7,1.7-7.9,5.1-12.7c2.6-3.7,5.8-7.1,8.9-10.2c6.6,6.6,13.9,15.1,13.9,22.9C571.4,345.5,565.1,351.8,557.4,351.8z"/>
			<path class="st1" d="M615,317.5v-5c-5.6,5.6-15,15.6-15,25.3c0,8.8,6.5,16.1,15,17.3v-3.6c-6.5-1.2-11.5-6.9-11.5-13.7
				c0-3.7,1.7-7.9,5.1-12.7C610.5,322.4,612.7,319.9,615,317.5z"/>
		</g>
		<g>
			<path class="st1" d="M4,392.4c-0.2-0.6-0.4-1.2-0.6-1.8v14.2c0.2-0.5,0.5-1,0.6-1.6c0.6-1.7,0.9-3.6,0.9-5.5
				C4.9,396.1,4.6,394.3,4,392.4z"/>
			<path class="st1" d="M58.9,382.7c-3.4-4.7-7.5-8.8-10.2-11.5c-0.7-0.7-1.9-0.6-2.5,0C41,376.5,30,387.3,30,397.8
				c0,9.6,7.8,17.5,17.5,17.5s17.5-7.8,17.5-17.5C64.9,393.3,62.9,388.2,58.9,382.7z M47.4,411.8c-7.7,0-13.9-6.3-13.9-13.9
				c0-3.7,1.7-7.9,5.1-12.7c2.6-3.7,5.8-7.1,8.9-10.2c6.6,6.6,13.9,15.1,13.9,22.9C61.4,405.5,55.1,411.8,47.4,411.8z"/>
			<path class="st1" d="M118.9,382.7c-3.4-4.7-7.5-8.8-10.2-11.5c-0.7-0.7-1.9-0.6-2.5,0C101,376.5,90,387.3,90,397.8
				c0,9.6,7.8,17.5,17.5,17.5s17.5-7.8,17.5-17.5C124.9,393.3,122.9,388.2,118.9,382.7z M107.4,411.8c-7.7,0-13.9-6.3-13.9-13.9
				c0-3.7,1.7-7.9,5.1-12.7c2.6-3.7,5.8-7.1,8.9-10.2c6.6,6.6,13.9,15.1,13.9,22.9C121.4,405.5,115.1,411.8,107.4,411.8z"/>
			<path class="st1" d="M178.9,382.7c-3.4-4.7-7.5-8.8-10.2-11.5c-0.7-0.7-1.9-0.6-2.5,0c-3.2,3.2-8.4,8.3-12.1,14.3
				c-2.4,3.9-4.2,8.2-4.2,12.3c0,8,5.5,14.8,12.9,16.8c1.5,0.4,3,0.6,4.5,0.6c9.6,0,17.5-7.8,17.5-17.5
				C184.9,393.3,182.9,388.2,178.9,382.7z M167.4,411.8c-2.2,0-4.4-0.5-6.3-1.5c-4.5-2.3-7.7-7-7.7-12.5c0-2.2,0.6-4.5,1.8-7.1
				c0.8-1.8,1.9-3.7,3.3-5.6c2.6-3.7,5.8-7.1,8.9-10.2c6.6,6.6,13.9,15.1,13.9,22.9C181.4,405.5,175.1,411.8,167.4,411.8z"/>
			<path class="st1" d="M243.7,391.4c-1-2.7-2.6-5.6-4.8-8.7c-0.8-1.2-1.7-2.3-2.6-3.4c-2.7-3.3-5.5-6.1-7.5-8.1
				c-0.7-0.7-1.9-0.6-2.5,0c-0.8,0.8-1.6,1.6-2.6,2.6c-5.6,5.7-13.5,14.8-13.7,23.7c0,0.1,0,0.2,0,0.3c0,9.6,7.8,17.5,17.5,17.5
				c0.5,0,1.1,0,1.6-0.1c4.7-0.4,8.8-2.7,11.6-6.1c2.6-3,4.2-7,4.2-11.3C244.9,395.8,244.5,393.6,243.7,391.4z M228.5,411.7
				c-0.3,0-0.7,0-1.1,0c-7.7,0-13.9-6.3-13.9-13.9c0-3.7,1.7-7.9,5.1-12.7c2.6-3.7,5.8-7.1,8.9-10.2c2.5,2.5,5,5.2,7.3,8.1
				c3.8,4.8,6.6,9.9,6.6,14.8C241.4,405.2,235.7,411.2,228.5,411.7z"/>
			<path class="st1" d="M302.7,389.1c-1-2.1-2.2-4.2-3.8-6.4c-3.3-4.5-7.2-8.5-9.9-11.2c-0.1-0.1-0.2-0.2-0.2-0.2
				c-0.7-0.7-1.9-0.6-2.5,0c-2.3,2.3-5.7,5.6-8.7,9.5c-1.6,2.1-3.1,4.3-4.4,6.6c-1.9,3.4-3.1,7-3.1,10.5c0,4.6,1.8,8.8,4.7,11.9
				c2.9,3.1,6.9,5.1,11.3,5.5c0.5,0,0.9,0.1,1.4,0.1c6.8,0,12.7-3.9,15.6-9.6c0.9-1.7,1.5-3.6,1.7-5.6c0.1-0.7,0.1-1.5,0.1-2.2
				C304.9,395.1,304.2,392.2,302.7,389.1z M292.1,411C292.1,411,292.1,411,292.1,411c-0.3,0.1-0.5,0.2-0.7,0.2
				c-1.3,0.4-2.6,0.6-4,0.6c-4.8,0-9.1-2.5-11.6-6.2c-1.5-2.2-2.4-4.9-2.4-7.8c0-3.3,1.4-7.1,4.1-11.2c0.3-0.5,0.6-1,1-1.5
				c1-1.4,2.1-2.8,3.2-4.1c1.8-2.1,3.8-4.2,5.6-6.1c0.4,0.4,0.8,0.8,1.3,1.3c4.4,4.5,8.9,9.8,11.2,15.1c1,2.2,1.5,4.4,1.5,6.5
				C301.4,403.9,297.5,409,292.1,411z"/>
			<path class="st1" d="M358.9,382.7c-3.4-4.7-7.5-8.8-10.2-11.5c-0.7-0.7-1.9-0.6-2.5,0c-5.3,5.2-16.2,16.1-16.2,26.6
				c0,3.6,1.1,7,3,9.8c2.3,3.3,5.7,5.8,9.6,7c0.7,0.2,1.5,0.4,2.2,0.5c0.8,0.1,1.7,0.2,2.6,0.2c6.7,0,12.6-3.8,15.5-9.4
				c1.3-2.4,2-5.1,2-8C364.9,393.3,362.9,388.2,358.9,382.7z M349.1,411.7c-0.5,0.1-1.1,0.1-1.6,0.1c-1.7,0-3.3-0.3-4.8-0.8
				c-4.1-1.5-7.2-4.8-8.5-9v0c-0.4-1.3-0.6-2.7-0.6-4.1c0-3.7,1.7-7.9,5.1-12.7c2.6-3.7,5.8-7.1,8.9-10.2c3.9,3.9,8.1,8.5,10.8,13.2
				c1.9,3.2,3.1,6.5,3.1,9.7C361.4,405,356,410.9,349.1,411.7z"/>
			<path class="st1" d="M424.5,394.2c-0.8-3.6-2.7-7.4-5.6-11.5c-0.2-0.3-0.4-0.6-0.6-0.8c-3.2-4.3-7-8.1-9.5-10.6
				c-0.7-0.7-1.9-0.6-2.5,0c-5.3,5.2-16.2,16.1-16.2,26.6c0,4.4,1.7,8.4,4.4,11.5c3.2,3.6,7.9,5.9,13.1,5.9c3,0,5.9-0.8,8.4-2.2
				c5.4-3,9.1-8.7,9.1-15.3C424.9,396.7,424.8,395.5,424.5,394.2z M409.3,411.6c-0.6,0.1-1.2,0.1-1.9,0.1c-5.6,0-10.5-3.4-12.7-8.2
				c-0.8-1.8-1.3-3.7-1.3-5.8c0-3.7,1.7-7.9,5.1-12.7c2.6-3.7,5.8-7.1,8.9-10.2c1.8,1.8,3.7,3.8,5.5,5.9c4.6,5.4,8.4,11.3,8.4,16.9
				c0,1.1-0.1,2.2-0.4,3.2C419.7,406.6,415.1,410.9,409.3,411.6z"/>
			<path class="st1" d="M481.9,387.5c-0.8-1.5-1.8-3.1-3-4.8c-3.4-4.7-7.5-8.8-10.2-11.5c-0.2-0.2-0.4-0.3-0.7-0.4
				c-0.6-0.2-1.4-0.1-1.8,0.4c-5.3,5.2-16.2,16.1-16.2,26.6c0,6.1,3.2,11.5,8,14.6c2.7,1.8,6,2.8,9.5,2.8c2.6,0,5.1-0.6,7.3-1.6
				c6-2.8,10.2-8.8,10.2-15.8C484.9,394.7,483.9,391.2,481.9,387.5z M476.6,408.4c-2.4,2.1-5.6,3.4-9.1,3.4c-3,0-5.9-1-8.2-2.7
				c-3.5-2.5-5.8-6.6-5.8-11.3c0-3.7,1.7-7.9,5.1-12.7c2.6-3.7,5.8-7.1,8.9-10.2c0,0,0.1,0.1,0.1,0.1c5.3,5.3,11.1,11.9,13.1,18.3
				c0,0,0,0,0,0c0.5,1.5,0.7,3,0.7,4.4C481.4,402,479.5,405.8,476.6,408.4z"/>
			<path class="st1" d="M538.9,382.7c-3.4-4.7-7.5-8.8-10.2-11.5c-0.7-0.7-1.9-0.6-2.5,0c-5.3,5.2-16.2,16.1-16.2,26.6
				c0,9.6,7.8,17.5,17.5,17.5s17.5-7.8,17.5-17.5C544.9,393.3,542.9,388.2,538.9,382.7z M527.4,411.8c-7.7,0-13.9-6.3-13.9-13.9
				c0-3.7,1.7-7.9,5.1-12.7c2.6-3.7,5.8-7.1,8.9-10.2c6.6,6.6,13.9,15.1,13.9,22.9C541.4,405.5,535.1,411.8,527.4,411.8z"/>
			<path class="st1" d="M598.9,382.7c-3.4-4.7-7.5-8.8-10.2-11.5c-0.7-0.7-1.9-0.6-2.5,0c-5.3,5.2-16.2,16.1-16.2,26.6
				c0,9.6,7.8,17.5,17.5,17.5s17.5-7.8,17.5-17.5C604.9,393.3,602.9,388.2,598.9,382.7z M587.4,411.8c-7.7,0-13.9-6.3-13.9-13.9
				c0-3.7,1.7-7.9,5.1-12.7c2.6-3.7,5.8-7.1,8.9-10.2c6.6,6.6,13.9,15.1,13.9,22.9C601.4,405.5,595.1,411.8,587.4,411.8z"/>
		</g>
		<g>
			<path class="st1" d="M28.9,442.7c-3.4-4.7-7.5-8.8-10.2-11.5c-0.7-0.7-1.9-0.6-2.5,0c-3.2,3.2-8.6,8.5-12.2,14.5
				c-0.2,0.4-0.4,0.7-0.6,1.1c-2,3.5-3.4,7.3-3.4,11c0,3.9,1.3,7.4,3.4,10.3c0.2,0.3,0.4,0.5,0.6,0.8c3.2,3.9,8,6.3,13.4,6.3
				c9.6,0,17.5-7.8,17.5-17.5C34.9,453.3,32.9,448.2,28.9,442.7z M17.4,471.8c-6.4,0-11.8-4.3-13.4-10.2c-0.3-1.2-0.5-2.4-0.5-3.7
				c0-1.2,0.2-2.4,0.5-3.6c0.7-2.8,2.3-5.8,4.6-9c2.6-3.7,5.8-7.1,8.9-10.2c6.6,6.6,13.9,15.1,13.9,22.9
				C31.4,465.5,25.1,471.8,17.4,471.8z"/>
			<path class="st1" d="M88.9,442.7c-3.4-4.7-7.5-8.8-10.2-11.5c-0.7-0.7-1.9-0.6-2.5,0C71,436.5,60,447.3,60,457.8
				c0,9.6,7.8,17.5,17.5,17.5s17.5-7.8,17.5-17.5C94.9,453.3,92.9,448.2,88.9,442.7z M77.4,471.8c-7.7,0-13.9-6.3-13.9-13.9
				c0-3.7,1.7-7.9,5.1-12.7c2.6-3.7,5.8-7.1,8.9-10.2c6.6,6.6,13.9,15.1,13.9,22.9C91.4,465.5,85.1,471.8,77.4,471.8z"/>
			<path class="st1" d="M148.9,442.7c-3.4-4.7-7.5-8.8-10.2-11.5c-0.7-0.7-1.9-0.6-2.5,0c-5.3,5.2-16.2,16.1-16.2,26.6
				c0,9.6,7.8,17.5,17.5,17.5s17.5-7.8,17.5-17.5C154.9,453.3,152.9,448.2,148.9,442.7z M137.4,471.8c-7.7,0-13.9-6.3-13.9-13.9
				c0-3.7,1.7-7.9,5.1-12.7c2.6-3.7,5.8-7.1,8.9-10.2c6.6,6.6,13.9,15.1,13.9,22.9C151.4,465.5,145.1,471.8,137.4,471.8z"/>
			<path class="st1" d="M208.9,442.7c-3.4-4.7-7.5-8.8-10.2-11.5c-0.7-0.7-1.9-0.6-2.5,0c-3.8,3.8-10.5,10.4-14,17.8
				c-1.4,2.9-2.2,5.9-2.2,8.8c0,9.6,7.8,17.5,17.5,17.5c2.6,0,5.1-0.6,7.3-1.6c6-2.8,10.1-8.8,10.1-15.8
				C214.9,453.3,212.9,448.2,208.9,442.7z M201.9,471c-1.4,0.5-2.9,0.7-4.5,0.7c-7.7,0-13.9-6.3-13.9-13.9c0-1.7,0.4-3.6,1.2-5.6
				c0.8-2.2,2.1-4.6,3.9-7.1c2.6-3.7,5.8-7.1,8.9-10.2c6.6,6.6,13.9,15.1,13.9,22.9C211.4,464,207.4,469.2,201.9,471z"/>
			<path class="st1" d="M268.9,442.7c-3.4-4.7-7.5-8.8-10.2-11.5c-0.7-0.7-1.9-0.6-2.5,0c-5.3,5.2-16.2,16.1-16.2,26.6
				c0,9.6,7.8,17.5,17.5,17.5s17.5-7.8,17.5-17.5C274.9,453.3,272.9,448.2,268.9,442.7z M257.4,471.8c-7.7,0-13.9-6.3-13.9-13.9
				c0-3.7,1.7-7.9,5.1-12.7c2.6-3.7,5.8-7.1,8.9-10.2c6.6,6.6,13.9,15.1,13.9,22.9C271.4,465.5,265.1,471.8,257.4,471.8z"/>
			<path class="st1" d="M332.6,448.8c-1-2-2.2-4-3.7-6.1c-0.3-0.4-0.5-0.8-0.8-1.1c-2.1-2.7-4.3-5.2-6.3-7.3c-1.1-1.1-2.1-2.2-3-3
				c-0.7-0.7-1.9-0.6-2.5,0c-5.3,5.2-16.2,16.1-16.2,26.6c0,9.6,7.8,17.5,17.5,17.5c9.1,0,16.5-7,17.4-15.8c0-0.5,0.1-1.1,0.1-1.6
				C334.9,455,334.1,452,332.6,448.8z M317.4,471.8c-7.7,0-13.9-6.3-13.9-13.9c0-3.7,1.7-7.9,5.1-12.7c2.6-3.7,5.8-7.1,8.9-10.2
				c0.9,0.9,1.8,1.8,2.6,2.7c2.5,2.6,4.9,5.5,6.9,8.4c1.5,2.2,2.6,4.4,3.4,6.5c0.6,1.7,1,3.5,1,5.2c0,1.5-0.2,2.9-0.6,4.2
				C328.9,467.7,323.7,471.8,317.4,471.8z"/>
			<path class="st1" d="M388.9,442.7c-3.4-4.7-7.5-8.8-10.2-11.5c-0.7-0.7-1.9-0.6-2.5,0c-5.3,5.2-16.2,16.1-16.2,26.6
				c0,9.6,7.8,17.5,17.5,17.5s17.5-7.8,17.5-17.5C394.9,453.3,392.9,448.2,388.9,442.7z M377.4,471.8c-7.7,0-13.9-6.3-13.9-13.9
				c0-3.7,1.7-7.9,5.1-12.7c2.6-3.7,5.8-7.1,8.9-10.2c6.6,6.6,13.9,15.1,13.9,22.9C391.4,465.5,385.1,471.8,377.4,471.8z"/>
			<path class="st1" d="M454.3,453.5c-0.8-3.4-2.7-7-5.5-10.8c-1.2-1.6-2.4-3.2-3.7-4.6c-2.4-2.7-4.7-5.1-6.5-6.9
				c-0.7-0.7-1.9-0.6-2.5,0c-5.3,5.2-16.2,16.1-16.2,26.6c0,3.3,0.9,6.3,2.5,9c2.9,4.9,8.2,8.2,14.2,8.5c0.2,0,0.5,0,0.7,0
				c9.6,0,17.5-7.8,17.5-17.5C454.9,456.5,454.7,455,454.3,453.5z M451.4,457.8c0,6.7-4.8,12.4-11.2,13.7c-0.9,0.2-1.8,0.3-2.8,0.3
				c-5.4,0-10.1-3.1-12.4-7.6c-1-1.9-1.5-4.1-1.5-6.3c0-3.7,1.7-7.9,5.1-12.7c2.6-3.7,5.8-7.1,8.9-10.2c1.9,1.9,3.9,4,5.8,6.2
				c4.5,5.3,8.1,11.1,8.2,16.5V457.8z"/>
			<path class="st1" d="M508.9,442.7c-3.4-4.7-7.5-8.8-10.2-11.5c-0.7-0.7-1.9-0.6-2.5,0c-5.3,5.2-16.2,16.1-16.2,26.6
				c0,9.6,7.8,17.5,17.5,17.5s17.5-7.8,17.5-17.5C514.9,453.3,512.9,448.2,508.9,442.7z M497.4,471.8c-7.7,0-13.9-6.3-13.9-13.9
				c0-3.7,1.7-7.9,5.1-12.7c2.6-3.7,5.8-7.1,8.9-10.2c6.6,6.6,13.9,15.1,13.9,22.9C511.4,465.5,505.1,471.8,497.4,471.8z"/>
			<path class="st1" d="M568.9,442.7c-3.4-4.7-7.5-8.8-10.2-11.5c-0.7-0.7-1.9-0.6-2.5,0c-5.3,5.2-16.2,16.1-16.2,26.6
				c0,9.6,7.8,17.5,17.5,17.5s17.5-7.8,17.5-17.5C574.9,453.3,572.9,448.2,568.9,442.7z M557.4,471.8c-7.7,0-13.9-6.3-13.9-13.9
				c0-3.7,1.7-7.9,5.1-12.7c2.6-3.7,5.8-7.1,8.9-10.2c6.6,6.6,13.9,15.1,13.9,22.9C571.4,465.5,565.1,471.8,557.4,471.8z"/>
			<path class="st1" d="M615,437.5v-5c-5.6,5.6-15,15.6-15,25.3c0,8.8,6.5,16.1,15,17.3v-3.6c-6.5-1.2-11.5-6.9-11.5-13.7
				c0-3.7,1.7-7.9,5.1-12.7C610.5,442.4,612.7,439.9,615,437.5z"/>
		</g>
		<g>
			<path class="st1" d="M4,512.4c-0.2-0.6-0.4-1.2-0.6-1.8v14.2c0.2-0.5,0.5-1,0.6-1.6c0.6-1.7,0.9-3.6,0.9-5.5
				C4.9,516.1,4.6,514.3,4,512.4z"/>
			<path class="st1" d="M58.9,502.7c-3.4-4.7-7.5-8.8-10.2-11.5c-0.7-0.7-1.9-0.6-2.5,0C41,496.5,30,507.3,30,517.8
				c0,9.6,7.8,17.5,17.5,17.5s17.5-7.8,17.5-17.5C64.9,513.3,62.9,508.2,58.9,502.7z M47.4,531.8c-7.7,0-13.9-6.3-13.9-13.9
				c0-3.7,1.7-7.9,5.1-12.7c2.6-3.7,5.8-7.1,8.9-10.2c6.6,6.6,13.9,15.1,13.9,22.9C61.4,525.5,55.1,531.8,47.4,531.8z"/>
			<path class="st1" d="M118.9,502.7c-3.4-4.7-7.5-8.8-10.2-11.5c-0.7-0.7-1.9-0.6-2.5,0C101,496.5,90,507.3,90,517.8
				c0,9.6,7.8,17.5,17.5,17.5s17.5-7.8,17.5-17.5C124.9,513.3,122.9,508.2,118.9,502.7z M107.4,531.8c-7.7,0-13.9-6.3-13.9-13.9
				c0-3.7,1.7-7.9,5.1-12.7c2.6-3.7,5.8-7.1,8.9-10.2c6.6,6.6,13.9,15.1,13.9,22.9C121.4,525.5,115.1,531.8,107.4,531.8z"/>
			<path class="st1" d="M178.9,502.7c-3.4-4.7-7.5-8.8-10.2-11.5c-0.7-0.7-1.9-0.6-2.5,0c-5.3,5.2-16.2,16.1-16.2,26.6
				c0,9.6,7.8,17.5,17.5,17.5s17.5-7.8,17.5-17.5C184.9,513.3,182.9,508.2,178.9,502.7z M167.4,531.8c-7.7,0-13.9-6.3-13.9-13.9
				c0-3.7,1.7-7.9,5.1-12.7c2.6-3.7,5.8-7.1,8.9-10.2c6.6,6.6,13.9,15.1,13.9,22.9C181.4,525.5,175.1,531.8,167.4,531.8z"/>
			<path class="st1" d="M244.9,517.1c-0.2-4.3-2.2-9.2-6-14.4c-3.4-4.7-7.5-8.8-10.2-11.5c-0.7-0.7-1.9-0.6-2.5,0
				c-2.6,2.6-6.6,6.6-10,11.2c-3.4,4.7-6.2,10.1-6.2,15.4c0,9.6,7.8,17.5,17.5,17.5s17.5-7.8,17.5-17.5
				C244.9,517.6,244.9,517.4,244.9,517.1z M227.4,531.8c-7.7,0-13.9-6.3-13.9-13.9c0-3.7,1.7-7.9,5.1-12.7c0.2-0.3,0.4-0.6,0.6-0.9
				c2.5-3.4,5.4-6.5,8.2-9.3c6,6,12.5,13.5,13.7,20.6c0.1,0.8,0.2,1.5,0.2,2.2C241.4,525.5,235.1,531.8,227.4,531.8z"/>
			<path class="st1" d="M304.3,513.5c-0.9-3.3-2.7-7-5.4-10.8c-3.4-4.7-7.5-8.8-10.2-11.5c-0.7-0.7-1.9-0.6-2.5,0
				c-3.8,3.8-10.5,10.5-14,17.8c-1.4,2.9-2.2,5.8-2.2,8.8c0,2.8,0.6,5.3,1.8,7.7c2.8,5.8,8.8,9.8,15.7,9.8c5.2,0,9.8-2.2,13-5.8
				c2.8-3.1,4.5-7.2,4.5-11.6C304.9,516.4,304.7,515,304.3,513.5z M295.6,529.1c-2.3,1.7-5.1,2.7-8.2,2.7c-4.4,0-8.4-2.1-10.9-5.3
				c-1.9-2.4-3-5.4-3-8.7c0-2.4,0.7-5.1,2.2-8c0.8-1.5,1.7-3.1,2.9-4.7c2.6-3.7,5.8-7.1,8.9-10.2c5.3,5.3,11.1,11.9,13.2,18.4
				c0.5,1.5,0.8,3,0.8,4.5C301.4,522.5,299.1,526.6,295.6,529.1z"/>
			<path class="st1" d="M360.6,505.3c-0.5-0.9-1.1-1.7-1.8-2.6c-3.4-4.7-7.5-8.8-10.2-11.5c-0.7-0.7-1.9-0.6-2.5,0
				c-4.3,4.3-12.5,12.4-15.3,21c-0.6,1.9-1,3.8-1,5.6c0,3.9,1.3,7.4,3.4,10.3c3.2,4.3,8.3,7.1,14.1,7.1c8.5,0,15.7-6.2,17.2-14.3
				c0.2-1,0.3-2.1,0.3-3.2C364.9,514,363.5,509.8,360.6,505.3z M347.4,531.8c-3.9,0-7.5-1.6-10-4.2c-2.5-2.5-4-6-4-9.7
				c0-1.9,0.5-4,1.4-6.2c0.9-2,2.1-4.2,3.7-6.5c2.6-3.7,5.8-7.1,8.9-10.2c3.4,3.4,7,7.4,9.8,11.5c2.5,3.8,4.2,7.7,4.2,11.4
				c0,1.5-0.2,3-0.7,4.4C358.8,527.8,353.6,531.8,347.4,531.8z"/>
			<path class="st1" d="M418.9,502.7c-1.8-2.5-3.8-4.8-5.6-6.8c-1.7-1.8-3.3-3.4-4.5-4.7c-0.7-0.7-1.9-0.6-2.5,0
				c-3.8,3.8-10.6,10.5-14.1,18c-1.3,2.8-2.2,5.7-2.2,8.6c0,9.6,7.8,17.5,17.5,17.5s17.5-7.8,17.5-17.5
				C424.9,513.3,422.9,508.2,418.9,502.7z M407.4,531.8c-7.7,0-13.9-6.3-13.9-13.9c0-3.5,1.5-7.5,4.6-12c0.2-0.2,0.3-0.5,0.5-0.7
				c2.6-3.7,5.8-7.1,8.9-10.2c1,1,2,2,2.9,3c5.7,6.1,11,13.2,11,19.8C421.4,525.5,415.1,531.8,407.4,531.8z"/>
			<path class="st1" d="M478.9,502.7c-3.4-4.7-7.5-8.8-10.2-11.5c-0.7-0.7-1.9-0.6-2.5,0c-5.3,5.2-16.2,16.1-16.2,26.6
				c0,9.6,7.8,17.5,17.5,17.5s17.5-7.8,17.5-17.5C484.9,513.3,482.9,508.2,478.9,502.7z M467.4,531.8c-7.7,0-13.9-6.3-13.9-13.9
				c0-3.7,1.7-7.9,5.1-12.7c2.6-3.7,5.8-7.1,8.9-10.2c6.6,6.6,13.9,15.1,13.9,22.9C481.4,525.5,475.1,531.8,467.4,531.8z"/>
			<path class="st1" d="M538.9,502.7c-3.4-4.7-7.5-8.8-10.2-11.5c-0.7-0.7-1.9-0.6-2.5,0c-5.3,5.2-16.2,16.1-16.2,26.6
				c0,9.6,7.8,17.5,17.5,17.5s17.5-7.8,17.5-17.5C544.9,513.3,542.9,508.2,538.9,502.7z M527.4,531.8c-7.7,0-13.9-6.3-13.9-13.9
				c0-3.7,1.7-7.9,5.1-12.7c2.6-3.7,5.8-7.1,8.9-10.2c6.6,6.6,13.9,15.1,13.9,22.9C541.4,525.5,535.1,531.8,527.4,531.8z"/>
			<path class="st1" d="M598.9,502.7c-3.4-4.7-7.5-8.8-10.2-11.5c-0.7-0.7-1.9-0.6-2.5,0c-5.3,5.2-16.2,16.1-16.2,26.6
				c0,9.6,7.8,17.5,17.5,17.5s17.5-7.8,17.5-17.5C604.9,513.3,602.9,508.2,598.9,502.7z M587.4,531.8c-7.7,0-13.9-6.3-13.9-13.9
				c0-3.7,1.7-7.9,5.1-12.7c2.6-3.7,5.8-7.1,8.9-10.2c6.6,6.6,13.9,15.1,13.9,22.9C601.4,525.5,595.1,531.8,587.4,531.8z"/>
		</g>
		<g>
			<path class="st1" d="M28.9,562.7c-3.4-4.7-7.5-8.8-10.2-11.5c-0.7-0.7-1.9-0.6-2.5,0c-3.2,3.2-8.6,8.5-12.2,14.5
				c-0.2,0.4-0.4,0.7-0.6,1.1c-2,3.5-3.4,7.3-3.4,11c0,3.9,1.3,7.4,3.4,10.3c0.2,0.3,0.4,0.5,0.6,0.8c3.2,3.9,8,6.3,13.4,6.3
				c9.6,0,17.5-7.8,17.5-17.5C34.9,573.3,32.9,568.2,28.9,562.7z M17.4,591.8c-6.4,0-11.8-4.3-13.4-10.2c-0.3-1.2-0.5-2.4-0.5-3.7
				c0-1.2,0.2-2.4,0.5-3.6c0.7-2.8,2.3-5.8,4.6-9c2.6-3.7,5.8-7.1,8.9-10.2c6.6,6.6,13.9,15.1,13.9,22.9
				C31.4,585.5,25.1,591.8,17.4,591.8z"/>
			<path class="st1" d="M88.9,562.7c-3.4-4.7-7.5-8.8-10.2-11.5c-0.7-0.7-1.9-0.6-2.5,0C71,556.5,60,567.3,60,577.8
				c0,9.6,7.8,17.5,17.5,17.5s17.5-7.8,17.5-17.5C94.9,573.3,92.9,568.2,88.9,562.7z M77.4,591.8c-7.7,0-13.9-6.3-13.9-13.9
				c0-3.7,1.7-7.9,5.1-12.7c2.6-3.7,5.8-7.1,8.9-10.2c6.6,6.6,13.9,15.1,13.9,22.9C91.4,585.5,85.1,591.8,77.4,591.8z"/>
			<path class="st1" d="M148.9,562.7c-3.4-4.7-7.5-8.8-10.2-11.5c-0.7-0.7-1.9-0.6-2.5,0c-5.3,5.2-16.2,16.1-16.2,26.6
				c0,9.6,7.8,17.5,17.5,17.5s17.5-7.8,17.5-17.5C154.9,573.3,152.9,568.2,148.9,562.7z M137.4,591.8c-7.7,0-13.9-6.3-13.9-13.9
				c0-3.7,1.7-7.9,5.1-12.7c2.6-3.7,5.8-7.1,8.9-10.2c6.6,6.6,13.9,15.1,13.9,22.9C151.4,585.5,145.1,591.8,137.4,591.8z"/>
			<path class="st1" d="M208.9,562.7c-3.4-4.7-7.5-8.8-10.2-11.5c-0.7-0.7-1.9-0.6-2.5,0c-5.3,5.2-16.2,16.1-16.2,26.6
				c0,9.6,7.8,17.5,17.5,17.5s17.4-7.8,17.4-17.5C214.9,573.3,212.9,568.2,208.9,562.7z M197.4,591.8c-7.7,0-13.9-6.3-13.9-13.9
				c0-3.7,1.7-7.9,5.1-12.7c2.6-3.7,5.8-7.1,8.9-10.2c6.6,6.6,13.9,15.1,13.9,22.9C211.4,585.5,205.1,591.8,197.4,591.8z"/>
			<path class="st1" d="M268.9,562.7c-3.4-4.7-7.5-8.8-10.2-11.5c-0.7-0.7-1.9-0.6-2.5,0c-5.3,5.2-16.2,16.1-16.2,26.6
				c0,9.6,7.8,17.5,17.5,17.5s17.5-7.8,17.5-17.5C274.9,573.3,272.9,568.2,268.9,562.7z M257.4,591.8c-7.7,0-13.9-6.3-13.9-13.9
				c0-3.7,1.7-7.9,5.1-12.7c2.6-3.7,5.8-7.1,8.9-10.2c6.6,6.6,13.9,15.1,13.9,22.9C271.4,585.5,265.1,591.8,257.4,591.8z"/>
			<path class="st1" d="M328.9,562.7c-3.4-4.7-7.5-8.8-10.2-11.5c-0.7-0.7-1.9-0.6-2.5,0c-5.3,5.2-16.2,16.1-16.2,26.6
				c0,9.6,7.8,17.5,17.5,17.5s17.5-7.8,17.5-17.5C334.9,573.3,332.9,568.2,328.9,562.7z M317.4,591.8c-7.7,0-13.9-6.3-13.9-13.9
				c0-3.7,1.7-7.9,5.1-12.7c2.6-3.7,5.8-7.1,8.9-10.2c6.6,6.6,13.9,15.1,13.9,22.9C331.4,585.5,325.1,591.8,317.4,591.8z"/>
			<path class="st1" d="M388.9,562.7c-3.4-4.7-7.5-8.8-10.2-11.5c-0.7-0.7-1.9-0.6-2.5,0c-5.3,5.2-16.2,16.1-16.2,26.6
				c0,9.6,7.8,17.5,17.5,17.5s17.5-7.8,17.5-17.5C394.9,573.3,392.9,568.2,388.9,562.7z M377.4,591.8c-7.7,0-13.9-6.3-13.9-13.9
				c0-3.7,1.7-7.9,5.1-12.7c2.6-3.7,5.8-7.1,8.9-10.2c6.6,6.6,13.9,15.1,13.9,22.9C391.4,585.5,385.1,591.8,377.4,591.8z"/>
			<path class="st1" d="M448.9,562.7c-3.4-4.7-7.5-8.8-10.2-11.5c-0.7-0.7-1.9-0.6-2.5,0c-5.3,5.2-16.2,16.1-16.2,26.6
				c0,9.6,7.8,17.5,17.5,17.5s17.5-7.8,17.5-17.5C454.9,573.3,452.9,568.2,448.9,562.7z M437.4,591.8c-7.7,0-13.9-6.3-13.9-13.9
				c0-3.7,1.7-7.9,5.1-12.7c2.6-3.7,5.8-7.1,8.9-10.2c6.6,6.6,13.9,15.1,13.9,22.9C451.4,585.5,445.1,591.8,437.4,591.8z"/>
			<path class="st1" d="M508.9,562.7c-3.4-4.7-7.5-8.8-10.2-11.5c-0.7-0.7-1.9-0.6-2.5,0c-5.3,5.2-16.2,16.1-16.2,26.6
				c0,9.6,7.8,17.5,17.5,17.5s17.5-7.8,17.5-17.5C514.9,573.3,512.9,568.2,508.9,562.7z M497.4,591.8c-7.7,0-13.9-6.3-13.9-13.9
				c0-3.7,1.7-7.9,5.1-12.7c2.6-3.7,5.8-7.1,8.9-10.2c6.6,6.6,13.9,15.1,13.9,22.9C511.4,585.5,505.1,591.8,497.4,591.8z"/>
			<path class="st1" d="M568.9,562.7c-3.4-4.7-7.5-8.8-10.2-11.5c-0.7-0.7-1.9-0.6-2.5,0c-5.3,5.2-16.2,16.1-16.2,26.6
				c0,9.6,7.8,17.5,17.5,17.5s17.5-7.8,17.5-17.5C574.9,573.3,572.9,568.2,568.9,562.7z M557.4,591.8c-7.7,0-13.9-6.3-13.9-13.9
				c0-3.7,1.7-7.9,5.1-12.7c2.6-3.7,5.8-7.1,8.9-10.2c6.6,6.6,13.9,15.1,13.9,22.9C571.4,585.5,565.1,591.8,557.4,591.8z"/>
			<path class="st1" d="M615,557.5v-5c-5.6,5.6-15,15.6-15,25.3c0,8.8,6.5,16.1,15,17.3v-3.6c-6.5-1.2-11.5-6.9-11.5-13.7
				c0-3.7,1.7-7.9,5.1-12.7C610.5,562.4,612.7,559.9,615,557.5z"/>
		</g>
		<g>
			<path class="st1" d="M48.7,611.2c-0.7-0.7-1.9-0.6-2.5,0l-0.8,0.8h4L48.7,611.2z"/>
			<path class="st1" d="M108.7,611.2c-0.7-0.7-1.9-0.6-2.5,0l-0.8,0.8h4L108.7,611.2z"/>
			<path class="st1" d="M168.7,611.2c-0.7-0.7-1.9-0.6-2.5,0l-0.8,0.8h4L168.7,611.2z"/>
			<path class="st1" d="M228.7,611.2c-0.7-0.7-1.9-0.6-2.5,0l-0.8,0.8h4L228.7,611.2z"/>
			<path class="st1" d="M288.7,611.2c-0.7-0.7-1.9-0.6-2.5,0l-0.8,0.8h4L288.7,611.2z"/>
			<path class="st1" d="M348.7,611.2c-0.7-0.7-1.9-0.6-2.5,0l-0.8,0.8h4L348.7,611.2z"/>
			<path class="st1" d="M408.7,611.2c-0.7-0.7-1.9-0.6-2.5,0l-0.8,0.8h4L408.7,611.2z"/>
			<path class="st1" d="M468.7,611.2c-0.7-0.7-1.9-0.6-2.5,0l-0.8,0.8h4L468.7,611.2z"/>
			<path class="st1" d="M528.7,611.2c-0.7-0.7-1.9-0.6-2.5,0l-0.8,0.8h4L528.7,611.2z"/>
			<path class="st1" d="M588.7,611.2c-0.7-0.7-1.9-0.6-2.5,0l-0.8,0.8h4L588.7,611.2z"/>
		</g>
	</g>
</g>
<g id="Layer_2">
	<g>
		<path class="st2" d="M248.6,267.1c-0.7-2.1-1.6-4-2.8-5.7c-1.2-1.8-2.8-3.4-4.7-4.8s-4.1-2.6-6.7-3.4c-2.6-0.9-5.6-1.4-9-1.7
			c-3.4-0.2-7.2-0.1-11.5,0.5c-2.3,0.3-4.5,0.8-6.7,1.4c-2.1,0.6-4.1,1.4-6,2.4c-1.8,1-3.5,2.1-4.9,3.3c-1.5,1.3-2.6,2.7-3.6,4.3
			c-0.9,1.6-1.6,3.4-1.9,5.4s-0.3,4.1,0.1,6.4c0.4,2.4,1.2,3.5,2.3,3.3c0.8-0.1,1.7-1,2.6-2.7c0.9-1.6,2.2-4,3.6-6.9
			c0.5-1.1,1.4-2.3,2.7-3.2c1.3-1,2.8-1.9,4.5-2.6c1.7-0.8,3.7-1.4,5.8-2c2.1-0.5,4.2-0.9,6.4-1.2c3-0.4,5.8-0.3,8.3,0.2
			c2.6,0.5,4.8,1.4,6.8,2.7c1.9,1.3,3.5,3,4.7,5.1c1.2,2.1,1.9,4.5,2.2,7.3c0.2,2.2,0.2,4.6-0.1,7.1c-0.3,2.5-0.9,4.9-1.7,7.4
			c-0.8,2.4-1.8,4.8-3.1,7.1c-1.2,2.3-2.7,4.3-4.4,6.1c-1.7,1.8-3.5,3.3-5.6,4.5c-2.1,1.2-4.3,2-6.7,2.3c-0.8,0.1-1.4,0.1-1.9,0
			c-0.5-0.1-0.9-0.3-1.2-0.6c-0.3-0.3-0.5-0.8-0.6-1.4c-0.1-0.6-0.3-1.3-0.4-2.2c-0.1-0.8-0.2-1.7-0.3-2.6c-0.1-0.9-0.1-1.9-0.2-3.1
			c0-1.2,0-2.6,0-4.1c0-1.6,0-3.5,0.1-5.7c0-2,0.1-4.1,0.1-6.2c0.1-2.1,0.2-4.2,0.5-6.2c0.3-2.1,0.6-4,1.2-5.9
			c0.5-1.9,2.3-4.5,2.3-5.3c-0.1-0.9-3.2-2.5-5.1-2.3c-1.5,0.2-3.6,1.1-4.7,2.5c-1.8,2.3-2.8,6.6-3.5,10.3c-0.7,3.7-1,7.6-1.1,11.7
			s0.2,8.1,0.6,12.2c0.5,4.1,1,8.2,1.6,12.1c0.1,0.4,0.1,0.7,0.2,1c0.1,0.3,0.2,0.5,0.3,0.6c0.1,0.2,0.3,0.3,0.5,0.4
			c0.2,0.1,0.5,0.2,0.8,0.2c0.7,0.2,1.7,0.5,2.8,0.7c1,0.2,2.1,0.4,3.3,0.5s2.3,0.2,3.5,0.2c1.2,0,2.3-0.1,3.5-0.2
			c3.3-0.5,6.3-1.4,9.1-2.8s5.2-3.2,7.4-5.4c2.2-2.1,4.1-4.6,5.7-7.3s3-5.6,4-8.6c1-3,1.8-6.1,2.2-9.2c0.4-3.1,0.5-6.2,0.2-9.2
			C249.7,271.3,249.3,269.2,248.6,267.1z"/>
		<path class="st2" d="M295.1,268.7c1.3,0,2.4-0.2,3.3-0.6c0.9-0.4,1.7-0.9,2.3-1.5c0.6-0.6,1-1.3,1.3-2.1c0.3-0.8,0.4-1.6,0.4-2.4
			c0-0.9-0.2-1.6-0.6-2.3c-0.4-0.6-0.8-1.2-1.4-1.5c-0.6-0.4-1.3-0.7-2.1-0.8c-0.8-0.2-1.7-0.3-2.6-0.2c-1.5,0-2.7,0.3-3.6,0.7
			c-1,0.4-1.7,1-2.3,1.6s-1,1.3-1.2,2c-0.2,0.7-0.3,1.3-0.3,1.9c0.1,1.6,0.6,3,1.7,3.9C291.2,268.3,292.9,268.7,295.1,268.7z"/>
		<path class="st2" d="M424.9,300.5c-1.1,0.7-2.4,1.5-3.9,2.3c-1.5,0.8-3.1,1.5-4.8,2.1c-1.7,0.6-3.3,1.1-5,1.4
			c-1.7,0.3-3.3,0.4-4.7,0.2c-0.5-0.1-0.9-0.2-1.3-0.3c-0.4-0.2-0.7-0.4-1.1-0.7c-0.3-0.3-0.6-0.7-0.9-1.1c-0.3-0.5-0.9-1.6-0.9-1.7
			c0.1-0.2,4.3-0.8,6.2-1.6c2-0.8,3.7-1.7,5.2-2.8c1.5-1.1,2.8-2.3,3.7-3.7c0.9-1.3,1.5-2.6,1.8-4c0-0.1,0-0.1,0-0.2
			c0.2-1.3,0.1-2.6-0.2-3.8c-0.1-0.3-0.2-0.6-0.3-0.9c-0.3-0.8-0.8-1.6-1.4-2.2c-0.8-0.9-1.7-1.7-2.9-2.3c-1.1-0.6-2.4-1-3.8-1.2
			c-1.7-0.2-3.4-0.2-4.9,0.2c-1.5,0.4-2.9,1-4.2,1.8c-1.3,0.8-2.4,1.8-3.4,3c-0.5,0.6-1,1.2-1.4,1.9c-0.4,0.6-0.8,1.3-1.2,1.9
			c-0.2,0.4-0.4,0.8-0.6,1.2c-0.5,1-0.8,2-1.2,3c-0.5,1.5-0.8,2.8-0.9,4.2c-0.1,0.6-0.1,1.2-0.1,1.7c-0.5,0.3-1.1,0.6-1.6,0.8
			c-0.7,0.3-1.4,0.7-2.2,1c-0.8,0.3-1.5,0.6-2.2,0.9c-0.7,0.2-1.4,0.4-2,0.6c-0.6,0.1-1.1,0.2-1.6,0.1c-0.2,0-0.4-0.2-0.6-0.5
			c-0.2-0.3-0.4-0.7-0.5-1.2c-0.1-0.5-0.2-1-0.3-1.6c-0.1-0.6-0.1-1.2,0-1.8c0-0.2,0-0.3,0-0.5c0.1-0.5,0.3-1,0.5-1.4
			c0.2-0.5,0.3-0.9,0.5-1.4c0.2-0.4,0.3-0.8,0.5-1.2c0.2-0.4,0.3-0.7,0.5-0.9c1.3-2,2.8-4.1,4.4-6.2c0.8-1.1,1.6-2.1,2.3-3.2
			c0.8-1.1,1.6-2.1,2.4-3.2c0.2-0.2,0.3-0.5,0.5-0.7c1.4-1.9,2.8-3.9,4.1-5.9c1.5-2.2,2.9-4.4,4.1-6.6c1.2-2.2,2.3-4.4,3.1-6.7
			c0.4-1,0.7-2,1-3c0.3-1.2,0.6-2.5,0.7-3.7c0.1-0.7,0.1-1.3,0.1-2c0-0.3,0-0.6,0-1c0-1-0.2-1.9-0.5-2.7s-0.8-1.5-1.5-2.1
			c-0.7-0.5-1.6-0.9-2.7-1c-1.7-0.2-3.4,0-5.1,0.8c-1.7,0.7-3.4,1.8-5,3.2c-1.6,1.4-3.2,3.1-4.8,5.1c-1.6,2-3,4.2-4.4,6.5
			c-1.4,2.3-2.6,4.8-3.8,7.4c-1.1,2.6-2.1,5.2-3,7.8c-0.9,2.6-1.6,5.1-2.1,7.6c-0.5,2.5-0.9,4.8-1.1,6.9c-0.1,1.6-0.2,3.2-0.2,4.7
			c-0.4,0.3-0.8,0.5-1.2,0.8c-1,0.6-2,1.2-2.9,1.7c-1,0.5-1.9,0.9-2.9,1.3s-2.7,1.3-2.8,1.3c0,0,1.5-2,2-3c0.5-1,1-2,1.3-3
			c0.3-1,0.6-2.1,0.8-3.1c0.2-1.1,0.3-2.2,0.4-3.4c0.1-1.5,0-2.9-0.3-4.2c-0.3-1.4-0.8-2.6-1.6-3.7c-0.2-0.3-0.4-0.5-0.5-0.7
			c-0.6-0.8-1.4-1.4-2.2-2c-0.5-0.3-1-0.6-1.6-0.8c-0.7-0.2-1.5-0.4-2.3-0.5c-1.2-0.1-2.4,0.3-3.6,1.3c-1.2,1-2.6,2.2-4.1,3.8
			c-0.2-0.2-0.3-0.3-0.6-0.4c1.9-1.9,3.8-4,5.7-6.2c1-1.1,2-2.3,2.9-3.5c0.8-1,1.6-2,2.3-3.1c0,0,0.1-0.1,0.1-0.2
			c1.6-2.3,3-4.6,4.1-7c1.1-2.3,1.7-4.6,1.9-6.9c0.1-1.6,0.1-3.2,0-4.6c-0.1-1.5-0.4-2.7-1-3.8s-1.5-2-2.6-2.7
			c-1.2-0.7-2.8-1.1-4.8-1.2c-1.8-0.1-3.5,0.4-5.2,1.7c-1.6,1.2-3.1,2.9-4.6,5c-0.8,1.2-1.6,2.5-2.3,4c-0.5,1-1.1,2.1-1.6,3.3
			c-0.7,1.6-1.4,3.3-2,5.1c-0.4,1.1-0.8,2.3-1.2,3.4c-1,2.9-1.8,5.8-2.5,8.7c-0.7,2.8-1.3,5.4-1.8,7.8c-0.6,2.7-1,5.2-1.4,7.5
			c-0.1,0.7-0.2,1.4-0.3,2c-0.1,0.8-0.2,1.6-0.4,2.4c-0.1,0.8-0.2,1.6-0.3,2.4c-0.7,0.5-1.4,0.9-2,1.3c-0.9,0.5-1.9,1-2.8,1.5
			c-0.9,0.5-2.7,1.4-2.7,1.4c0,0,1.4-2.1,1.9-3.2c0.5-1,0.9-2,1.2-3.1c0.3-1,0.5-2.1,0.6-3.2c0.1-0.8,0.2-1.6,0.2-2.4
			c0-0.3,0-0.7,0-1c0-1.5-0.1-2.9-0.5-4.2c-0.3-1.1-0.7-2.1-1.3-2.9c-0.1-0.2-0.3-0.5-0.4-0.7c-0.8-1.1-1.8-1.9-2.9-2.5
			c-1.2-0.6-2.5-1-4-1c-1.2,0-2.3,0.5-3.5,1.5c-1.2,1-2.5,2.3-3.9,4c-0.2-0.2-0.4-0.2-0.6-0.4c1.8-2,3.5-4.2,5.4-6.5
			c1.8-2.3,3.5-4.6,5-7s2.8-4.8,3.7-7.2c1-2.4,1.5-4.7,1.5-7c0-1.6,0-3.2-0.2-4.6c-0.2-1.4-0.6-2.7-1.2-3.8c-0.6-1.1-1.6-2-2.8-2.6
			c-1.2-0.6-2.8-1-4.8-1c-1.8,0-3.5,0.6-5.1,1.9c-1.5,1.3-3,3.1-4.3,5.2c-1.3,2.2-2.5,4.7-3.5,7.5c-1,2.8-2,5.7-2.8,8.6
			c-0.8,3-1.5,5.9-2.1,8.8c0,0.1,0,0.2,0,0.2c-0.6,2.8-1,5.3-1.4,7.6c-0.5,3.5-1,6.7-1.3,9.6c0,0.3-0.1,0.6-0.1,0.9
			c-0.3,2.5-0.5,4.7-0.6,6.6c0,0.6-0.1,1.3-0.2,2c0,0-0.1,0.1-0.1,0.1c-1.1,0.9-2.2,1.6-3.2,2.2c-1.1,0.6-2,1-2.9,1
			c-0.8,0-1.3-0.3-1.5-0.9s-0.4-1.5-0.4-2.5c0-0.8,0-1.8,0.1-2.8c0-0.3,0.1-0.6,0.1-1c0.2-1,0.3-1.9,0.5-2.9
			c0.1-0.4,0.2-0.9,0.3-1.3c0.3-1.5,0.7-2.9,1.1-4.4c0.4-1.5,0.8-2.8,1.1-4.1c0.3-1.3,0.6-2.4,0.9-3.4s0.3-1.8,0.3-2.3
			c0-0.6-0.2-1.1-0.6-1.5c-0.4-0.4-1.1-0.5-2.2-0.5c-0.6,0-1.2,0.1-2,0.2c-0.7,0.2-1.4,0.4-2.1,0.7c-0.7,0.3-1.2,0.7-1.8,1.1
			c-0.5,0.5-0.9,1-1,1.6c-0.4,1.8-0.8,3.8-1.3,5.9c-0.4,1.5-0.7,3.1-1,4.6c-0.9,0.6-1.9,1.1-2.9,1.6c-0.4,0.2-0.9,0.4-1.3,0.5
			c-0.7,0.2-1.4,0.3-2.1,0.4c-0.4,0-0.8,0-1.1-0.2c-0.4-0.1-0.7-0.3-1-0.7c-0.3-0.3-0.6-0.8-0.8-1.3c-0.2-0.6-0.3-1.3-0.4-2.1
			c0-0.5,0-1.1,0.1-1.9c0,0,0-0.1,0-0.1c0.1-0.7,0.2-1.5,0.3-2.2c0.1-0.8,0.2-1.6,0.3-2.3c0.1-0.7,0.1-1.3,0.1-1.7
			c0-0.5-0.2-1-0.4-1.4c-0.2-0.4-0.5-0.8-0.9-1c-0.1-0.1-0.2-0.2-0.4-0.2c-0.3-0.2-0.6-0.3-0.9-0.4c-0.5-0.1-0.9-0.2-1.4-0.2
			c-0.4,0-0.8,0.1-1.2,0.2c-0.9,0.2-1.7,0.6-2.4,1.1c-1,0.8-1.9,1.7-2.7,2.8c-0.8,1.1-1.4,2.2-2,3.5c-0.5,1.2-1,2.3-1.5,3.3
			c-0.2,0-0.2,0-0.4,0c-0.1-1.2-0.2-2.5-0.4-3.7c-0.1-1.2-0.2-2.3-0.2-3.2c-0.1-0.7-0.1-1.3-0.2-1.8c-0.1-0.4-0.2-0.8-0.4-1
			c-0.2-0.2-0.5-0.3-0.8-0.4c-0.4,0-0.9,0-1.5,0c-0.6,0.1-1.1,0.1-1.5,0.2c-0.4,0.1-0.7,0.2-1,0.4s-0.5,0.5-0.6,0.8
			c-0.2,0.3-0.3,0.8-0.5,1.3c-0.2,0.8-0.5,1.8-0.7,3.1c-0.2,1.2-0.4,2.6-0.6,4.1c-0.2,1.5-0.4,3-0.5,4.7c-0.1,1.6-0.2,3.2-0.3,4.8
			c-0.1,1.6-0.1,3-0.1,4.5c0,1.4,0,2.6,0.2,3.7c0.1,1,0.2,1.9,0.4,2.8c0.2,0.9,0.5,1.7,0.9,2.3c0.4,0.7,0.9,1.2,1.5,1.5
			c0.6,0.4,1.4,0.5,2.4,0.4c0.4,0,0.8-0.2,1.2-0.3c0.3-0.2,0.7-0.5,0.9-0.9c0.3-0.4,0.5-0.9,0.8-1.6c0.2-0.6,0.5-1.4,0.8-2.4
			c2-7.3,3.1-11,5.3-18.3c0.2,0,0.4,0,0.6,0c0.3,1.5,0.7,3,1.1,4.4s1,2.7,1.7,3.9c0.7,1.1,1.7,2,2.9,2.7c1.2,0.7,2.7,0.9,4.5,0.8
			c1,0,2-0.2,3-0.6c0.9-0.3,1.7-0.7,2.6-1.1c-0.2,1.7-0.3,3.3-0.2,4.6c0,1.1,0.2,2,0.5,2.9c0.3,0.9,0.7,1.6,1.2,2.2
			c0.6,0.6,1.3,1.1,2.1,1.4c0.9,0.3,1.9,0.4,3.2,0.4c1.4,0,2.9-0.3,4.4-0.9c1.5-0.5,3-1.2,4.5-2c1-0.5,2-1.1,3-1.8
			c1.2,0.5,11.9,7,22.8,0.9c1.1-0.6,3.3-0.8,4.8-1.2c1.5-0.4,3-1,4.4-1.6c0.3-0.1,0.5-0.3,0.8-0.4c0,0.6-0.1,1.2,0.1,1.4
			c0,0,10.3,8.5,24.3,3.3c1.2-0.4,3.3-0.6,4.9-0.9c1.6-0.4,3-0.8,4.5-1.3c1.4-0.5,2.9-1.2,4.3-2c0.3-0.2,0.5-0.3,0.8-0.5
			c0.2,1.1,0.5,2.1,0.8,3.1c0.7,2,1.5,3.6,2.5,4.8c1,1.2,2.2,1.9,3.5,2.1c0.8,0.1,1.7,0.1,2.7-0.1s2-0.3,3-0.6c1-0.3,2.1-0.6,3.1-1
			c1-0.4,2-0.8,3-1.1c0.9-0.4,1.8-0.8,2.8-1.2c0.2,0.4,0.4,0.8,0.7,1.2c1,1.5,2.2,2.8,3.8,3.8c1.6,1,3.5,1.7,5.7,2
			c1.4,0.2,2.9,0.2,4.3,0.1c1.5-0.1,2.9-0.3,4.2-0.7c1.4-0.3,2.7-0.8,4-1.2c1.3-0.5,2.5-1,3.7-1.6c2.7-1.2,5.2-2.8,7.7-4.5
			C427.3,303.9,426.5,302.8,424.9,300.5z M384.3,275.4c0.6-2.4,1.3-4.7,2.2-6.9c0.9-2.2,1.8-4.3,2.8-6.2c1-1.9,2-3.6,3.1-5
			c1-1.4,2-2.5,3-3.3c1-0.8,1.8-1.1,2.6-1c0.2,0,0.3,0.3,0.3,0.8c0,0.5,0,1.1-0.2,1.8c-0.4,2-1.3,4.4-2.5,6.8
			c-1.2,2.4-2.4,4.8-3.9,7.2s-2.9,4.7-4.4,6.9c-1.5,2.2-4.2,6-4.3,6C383,282.4,383.7,277.8,384.3,275.4z M310.9,272.3
			c0.2-1.3,0.6-2.7,0.9-4.2c0.3-1.5,0.7-3.2,1.2-4.9c0.4-1.7,0.9-3.4,1.4-5.1c0.5-1.7,1-3.2,1.5-4.8c0.5-1.5,1.1-2.8,1.6-4
			c0.6-1.1,1.1-2.1,1.7-2.8c0.6-0.7,1.1-1,1.6-1c0.5,0,0.8,0.1,1.1,0.4c0.3,0.3,0.5,0.6,0.6,0.9c0.1,0.3,0.2,0.7,0.3,1
			c0,0.3,0,0.5,0,0.6c-0.1,1.6-0.5,3.4-1,5c-0.5,1.6-1.1,3.2-1.8,4.8c-0.7,1.6-1.5,3.1-2.3,4.6c-0.9,1.5-1.7,3-2.6,4.4
			c-0.9,1.4-1.7,2.8-2.6,4.2c-0.8,1.3-2.1,3.6-2.3,3.8C310.3,275.2,310.6,273.5,310.9,272.3z M323.2,288.8c-0.1,1.1-0.3,2.2-0.6,3.3
			c-0.3,1.1-0.6,2.2-1,3.2c-0.4,1-0.9,1.9-1.4,2.7c-0.6,0.8-1.2,1.4-1.9,1.9c-0.7,0.5-1.4,0.7-2.3,0.7c-0.7,0-1.4-0.1-2.2-0.2
			c-0.8-0.1-1.5-0.2-2.2-0.4c-0.8-0.2-2.2-0.4-2.4-0.6c-0.1-0.2,0.2-1.7,0.2-2.7c0.1-0.8,0.2-1.8,0.4-2.9c0.1-1.1,0.3-2.3,0.5-3.6
			c0.3-1.6,0.7-3,1.3-4.1c0.6-1.1,1.2-2.1,2-2.8c0.8-0.7,1.6-1.3,2.4-1.6c0.9-0.3,1.8-0.5,2.6-0.5c1,0,1.8,0.1,2.4,0.4
			c0.6,0.2,1.1,0.6,1.5,1c0.4,0.4,0.6,0.9,0.7,1.4c0.1,0.5,0.2,1.1,0.2,1.7C323.4,286.8,323.4,287.8,323.2,288.8z M352.9,254.5
			c0.6-1.5,1.2-2.8,1.8-3.9c0.6-1.1,1.2-2,1.8-2.7c0.6-0.6,1.2-0.9,1.7-0.9c0.4,0,0.8,0.2,1,0.5c0.2,0.3,0.4,0.6,0.5,0.9
			c0.1,0.3,0.2,0.7,0.2,1c0,0.3,0,0.5,0,0.6c-0.2,1.6-0.6,3.3-1.2,4.9c-0.6,1.6-1.2,3.2-2,4.7c0,0.1-0.1,0.2-0.2,0.3
			c-0.6,1.1-1.2,2.2-1.8,3.3c-0.2,0.3-0.4,0.6-0.6,0.9c-0.9,1.5-1.9,2.9-2.8,4.3c-1,1.4-1.9,2.7-2.8,4c-0.9,1.2-2.3,3.5-2.5,3.7
			c0-0.2,0.5-1.9,0.8-3c0.3-1.3,0.7-2.7,1.1-4.2c0.4-1.5,0.9-3.1,1.4-4.8c0.5-1.7,1.1-3.4,1.6-5c0-0.1,0.1-0.2,0.1-0.2
			c0.5-1.3,0.9-2.5,1.4-3.7C352.7,255,352.8,254.7,352.9,254.5z M357.7,293.6c-0.3,1.1-0.7,2.1-1.2,3.1s-1,1.9-1.6,2.6
			c-0.6,0.8-1.2,1.4-2,1.8s-1.5,0.6-2.3,0.6c-0.7,0-1.5-0.1-2.2-0.3c-0.8-0.2-1.5-0.3-2.2-0.5c-0.8-0.2-2.2-0.5-2.4-0.7
			c-0.2-0.2,0.2-1.7,0.4-2.7c0.1-0.7,0.3-1.5,0.4-2.5c0-0.1,0-0.3,0.1-0.4c0.2-0.9,0.4-2,0.6-3c0-0.2,0.1-0.3,0.1-0.5
			c0.3-1.6,0.8-2.9,1.5-4c0.6-1.1,1.3-2,2.1-2.7c0.8-0.7,1.6-1.2,2.5-1.5c0.9-0.3,1.8-0.4,2.7-0.4c1,0.1,1.8,0.2,2.4,0.5
			c0.6,0.3,1.1,0.7,1.4,1.1c0.3,0.4,0.6,0.9,0.7,1.5c0,0.1,0,0.2,0,0.3c0.1,0.5,0.1,1,0,1.5c-0.1,0.9-0.2,1.9-0.4,3
			c-0.1,0.4-0.2,0.8-0.3,1.2C358.1,292.2,357.9,292.9,357.7,293.6z M402.6,294.7c0,0,0-0.1,0-0.1c0.1-0.7,0.3-1.4,0.6-2.1
			c0.1-0.4,0.3-0.8,0.5-1.2c0.1-0.3,0.3-0.7,0.5-1c0.4-0.7,0.9-1.4,1.5-1.9c0.6-0.5,1.3-0.9,2.1-1.2c0.8-0.3,1.8-0.3,2.8-0.2
			c0.6,0.1,1.1,0.5,1.4,1.2c0.3,0.7,0.4,1.6,0.2,2.7v0c-0.1,0.8-0.5,1.5-1.3,2.2c-0.7,0.7-1.6,1.3-2.6,1.9c-0.1,0.1-0.3,0.2-0.4,0.2
			c-0.9,0.5-1.8,0.8-2.7,1.1c-1.1,0.3-2.8,0.5-3,0.3C402.2,296.5,402.5,295.5,402.6,294.7z"/>
	</g>
	<g>
		<path class="st2" d="M319.3,341.1c-0.5,0.6-1,1.2-1.5,1.6c-0.2,0.2-0.5,0.4-0.7,0.6c-0.2,0.2-0.5,0.4-0.7,0.5
			c-0.2,0.2-0.5,0.3-0.7,0.4c-0.2,0.1-0.5,0.1-0.7,0.1c-0.2,0-0.4-0.2-0.5-0.5c-0.2-0.4-0.2-0.8-0.2-1.4c0-0.7,0-1.4,0.1-2.1
			c0.1-0.7,0.1-1.3,0.2-1.9c0.1-0.6,0.2-1.3,0.2-1.9c0.1-0.7,0.1-1.3,0.1-2.1c0-0.5-0.2-0.8-0.5-1.1s-0.8-0.4-1.3-0.4
			c-0.4,0-0.8,0.2-1.1,0.4c-0.3,0.3-0.6,0.6-0.9,1.1c-0.3,0.4-0.7,0.9-1,1.5c-0.4,0.6-0.7,1.1-1,1.6c-0.3,0.5-0.6,1-0.8,1.3
			c-0.2,0.4-0.3,0.6-0.4,0.6l-0.2-0.2c0,0,0-0.1,0-0.1c0-0.1,0-0.2,0.1-0.5c0.1-0.3,0.2-0.7,0.2-1c0.1-0.3,0.2-0.7,0.2-1
			c0.1-0.4,0.1-0.7,0.2-1.1c0.1-0.4,0.1-0.8,0.1-1.2c0-0.5-0.2-0.8-0.5-1.1c-0.3-0.3-0.7-0.4-1.1-0.4c-0.5,0-0.9,0.1-1.2,0.4
			c-0.3,0.3-0.7,0.6-1,1.1c-0.3,0.4-0.6,0.9-1,1.5c0,0.1-0.1,0.1-0.1,0.1c-0.3,0.5-0.6,1-0.9,1.5c-0.3,0.5-0.6,1-0.8,1.3
			c-0.2,0.4-0.3,0.6-0.3,0.6l-0.2-0.2c0.1-0.7,0.2-1.3,0.3-1.9c0-0.3,0.1-0.5,0.1-0.8c0-0.3,0.1-0.6,0.1-0.8c0-0.3,0.1-0.5,0.1-0.7
			c0-0.2,0-0.4,0-0.6c0-0.3,0-0.6,0-0.8c0-0.2-0.1-0.3-0.2-0.4c-0.1-0.1-0.3-0.2-0.5-0.2c-0.2,0-0.4,0-0.6,0c-0.1,0-0.2,0-0.3,0
			c-0.3,0-0.5,0-0.7,0.1c-0.2,0-0.3,0.1-0.4,0.2c-0.1,0.1-0.2,0.3-0.3,0.5c-0.1,0.2-0.2,0.5-0.3,0.8c-0.1,0.3-0.2,0.8-0.3,1.3
			c-0.1,0.3-0.2,0.7-0.2,1.1c-0.1-0.1-0.3-0.3-0.4-0.4c-0.7-0.7-1.4-1.3-2.1-1.8c-0.8-0.5-1.6-0.9-2.5-1.2c-0.9-0.3-1.8-0.5-2.8-0.5
			c-1.2,0-2.2,0.2-3.2,0.6c-0.9,0.4-1.7,1-2.4,1.8c-0.6,0.7-1.1,1.6-1.5,2.6c-0.2,0.6-0.3,1.2-0.4,1.8c-0.5,0.2-0.9,0.3-1.3,0.3
			c-0.2,0-0.3,0-0.5-0.1c-0.2-0.1-0.3-0.2-0.4-0.3c-0.1-0.2-0.2-0.4-0.3-0.6c-0.1-0.2-0.1-0.6-0.1-0.9c0-0.2,0-0.5,0.1-0.8
			c0.1-0.3,0.1-0.7,0.2-1c0.1-0.3,0.1-0.7,0.2-1c0-0.3,0.1-0.6,0.1-0.8c0-0.2,0-0.4-0.1-0.6c-0.1-0.2-0.2-0.3-0.3-0.5
			c-0.1-0.1-0.3-0.2-0.5-0.3c-0.2-0.1-0.4-0.1-0.6-0.1c-0.6,0-1.1,0.2-1.5,0.5c-0.4,0.3-0.8,0.7-1.2,1.1c-0.3,0.5-0.7,0.9-0.9,1.5
			c-0.2,0.5-0.5,1-0.7,1.4c0,0,0,0,0,0h-0.2c0-0.5,0-1.1,0-1.6v-1.4c0-0.3,0-0.6,0-0.8c0-0.2-0.1-0.3-0.1-0.4
			c-0.1-0.1-0.2-0.2-0.3-0.2c0,0,0,0,0,0c-0.2,0-0.4,0-0.6,0c-0.2,0-0.5,0-0.6,0c-0.2,0-0.3,0.1-0.4,0.1s-0.2,0.2-0.3,0.3
			c-0.1,0.1-0.2,0.3-0.2,0.5c-0.1,0.3-0.3,0.8-0.4,1.3c-0.1,0.3-0.2,0.7-0.2,1c-0.1,0.2-0.1,0.5-0.2,0.7c0,0,0,0,0,0
			c-0.2,0.2-0.5,0.4-0.8,0.5c-0.5,0.3-1.2,0.6-2,0.8c-0.8,0.2-1.7,0.4-2.8,0.4c-0.1,0-0.2,0-0.3,0c-0.1,0-0.2-0.1-0.2-0.1
			s-0.1-0.1-0.2-0.1c-0.1,0-0.2,0-0.3,0c-0.1,0-0.2,0-0.3,0c-0.1,0-0.3,0.1-0.5,0.2l0-0.3c0.6-0.8,1.3-1.7,1.9-2.7
			c0.6-1,1.2-1.9,1.8-2.9c0.6-1,1.1-2,1.6-3c0-0.1,0.1-0.2,0.1-0.3c0.4-0.9,0.8-1.7,1.1-2.6c0.2-0.6,0.4-1.1,0.5-1.6
			c0.1-0.3,0.2-0.6,0.3-1c0.2-0.8,0.3-1.5,0.3-2.1c0-0.7-0.1-1.3-0.3-1.7c-0.2-0.5-0.5-0.8-0.8-1.1c-0.3-0.3-0.7-0.5-1.1-0.6
			c-0.4-0.1-0.8-0.2-1.1-0.2c-0.7,0-1.2,0.1-1.8,0.4c-0.2,0.1-0.4,0.2-0.7,0.4c-0.7,0.5-1.4,1.2-1.9,2c-0.1,0.1-0.1,0.1-0.1,0.2
			c-0.6,1-1.2,2-1.7,3.3c-0.5,1.2-0.9,2.6-1.3,4c-0.4,1.4-0.7,2.9-1,4.4c-0.3,1.5-0.5,3-0.7,4.4c-0.2,1.4-0.4,2.8-0.5,4.1
			c-0.1,1.3-0.2,2.4-0.3,3.4c-0.1,1-0.1,1.8-0.1,2.4c0,0.6,0,0.9,0,1c0,0.6,0,1.3,0.1,2c0,0.3,0,0.7,0.1,1c0,0.3,0.1,0.7,0.2,1
			c0.1,0.7,0.3,1.3,0.5,1.9c0.1,0.2,0.1,0.4,0.2,0.6c0.2,0.4,0.3,0.7,0.5,1c0.3,0.5,0.7,0.8,1.1,1.1c0.4,0.3,0.9,0.4,1.5,0.4
			s1.1-0.1,1.5-0.4c0.5-0.2,0.9-0.6,1.2-1c0.3-0.4,0.7-0.8,0.9-1.3c0.3-0.5,0.5-1,0.7-1.6c0.1-0.2,0.2-0.5,0.2-0.7
			c0.1-0.3,0.2-0.6,0.2-0.9c0.1-0.5,0.2-1,0.3-1.5c0.1-0.4,0.1-0.8,0.1-1.1c0-0.3,0-0.5,0-0.6c0-0.3,0-0.5,0-0.8
			c0-0.5-0.1-1.1-0.3-1.6c-0.2-0.8-0.5-1.5-0.7-2.2c-0.3-0.8-0.6-1.5-1-2.2c0.7,0,1.5-0.1,2.2-0.2c0.6-0.1,1.3-0.3,2.1-0.5
			c0.3-0.1,0.7-0.2,1-0.3c0,0.1,0,0.3-0.1,0.5c-0.1,0.7-0.2,1.3-0.2,1.9c0,0.1,0,0.1,0,0.2c0,0.5-0.1,1-0.1,1.5c0,0.4,0,0.8,0.1,1.2
			c0,0.4,0.1,0.7,0.3,1.1c0.1,0.3,0.3,0.5,0.6,0.7c0.1,0.1,0.3,0.2,0.5,0.2c0.2,0,0.4,0.1,0.6,0.1c0.2,0,0.4,0,0.5-0.1
			c0.1-0.1,0.3-0.2,0.4-0.4c0.1-0.2,0.3-0.4,0.4-0.6c0.1-0.3,0.3-0.6,0.4-1l2.8-7.9h0.2c0.1,0.7,0.2,1.3,0.3,2
			c0.1,0.6,0.3,1.2,0.6,1.8c0.3,0.5,0.7,0.9,1.1,1.3c0.5,0.3,1.1,0.5,1.9,0.5c0.5,0,0.9-0.1,1.3-0.2c0.2-0.1,0.4-0.2,0.6-0.2
			c0,0.2,0.1,0.4,0.1,0.6c0.2,0.8,0.5,1.6,0.9,2.2c0.4,0.6,1,1.2,1.6,1.6c0.7,0.4,1.5,0.6,2.4,0.6c0.6,0,1.2-0.1,1.8-0.3
			c0.6-0.2,1.1-0.5,1.6-0.9c0.5-0.4,0.9-0.8,1.3-1.3c0.4-0.5,0.7-1.1,0.9-1.7c0.3-0.6,0.5-1.2,0.6-1.8c0.1-0.6,0.2-1.3,0.2-1.9
			s-0.1-1.3-0.2-2c-0.2-0.7-0.4-1.3-0.7-1.9l0.1-0.2c0.4,0.3,0.8,0.6,1.4,0.9c0.5,0.4,1.1,0.8,1.6,1.2c0.4,0.3,0.8,0.6,1.1,0.9
			c0,0.1,0,0.2,0,0.2c-0.1,0.7-0.2,1.3-0.3,2c-0.1,0.6-0.2,1.3-0.2,1.9c-0.1,0.6-0.1,1.1-0.1,1.5c0,0.4,0,0.8,0.1,1.2
			c0,0.4,0.1,0.8,0.3,1.1c0.1,0.3,0.3,0.6,0.6,0.8c0.3,0.2,0.6,0.3,1,0.3c0.3,0,0.7-0.1,0.9-0.2c0.3-0.1,0.5-0.4,0.7-0.9
			c0.3-0.7,0.6-1.3,0.9-1.8c0.3-0.7,0.6-1.3,0.9-1.8c0.5-1,0.8-1.8,1.1-2.4c0.1-0.1,0.1-0.2,0.2-0.3c0.2-0.5,0.4-0.8,0.5-1
			c0.2-0.3,0.3-0.6,0.4-0.7h0.2c-0.2,1-0.3,1.9-0.4,2.7c-0.1,0.4-0.1,0.7-0.2,1.1v0c0,0.4-0.1,0.7-0.1,1c0,0.3-0.1,0.6-0.1,0.9
			c0,0.3,0,0.5,0,0.6c0,0.3,0,0.7,0.1,1c0,0.3,0.1,0.7,0.2,1c0.1,0.3,0.3,0.5,0.5,0.7c0.2,0.2,0.5,0.3,0.8,0.3
			c0.4,0,0.8-0.1,1.2-0.2c0.2-0.1,0.4-0.2,0.5-0.4c0.1-0.1,0.2-0.3,0.4-0.5l3.2-8.2h0.2c-0.1,0.8-0.2,1.5-0.2,2.2
			c0,0.7-0.1,1.4-0.1,2.1c0,0.7,0,1.4,0.1,2c0.1,0.6,0.2,1.1,0.3,1.6c0.2,0.5,0.4,0.8,0.6,1c0.3,0.2,0.6,0.4,1,0.4
			c0.8,0,1.5-0.1,2.1-0.3s1.2-0.5,1.7-0.8s1-0.7,1.5-1.1c0.5-0.4,0.9-0.8,1.4-1.1L319.3,341.1z M263.2,333.4
			c0.1-0.7,0.2-1.5,0.4-2.4c0.2-0.9,0.4-1.9,0.8-3.1c0.3-1.1,0.7-2.3,1.3-3.6c0-0.1,0.1-0.2,0.1-0.4c0.2-0.5,0.4-0.9,0.7-1.2
			c0.2-0.3,0.6-0.4,1.1-0.4c0.3,0,0.5,0.1,0.6,0.4c0.2,0.3,0.2,0.7,0.2,1.2c0,0.4-0.2,1-0.5,1.8c-0.1,0.3-0.3,0.7-0.5,1.1
			c-0.2,0.5-0.5,1-0.8,1.5c-0.5,1-1.1,2.1-1.8,3.3c-0.7,1.2-1.3,2.4-2,3.6C263.1,334.7,263.2,334,263.2,333.4z M263.9,350.8
			c0,0.6-0.1,1.1-0.2,1.6c-0.1,0.5-0.3,0.9-0.5,1.2c-0.2,0.3-0.5,0.5-0.9,0.5c-0.1,0-0.2-0.1-0.3-0.2c-0.1-0.1-0.2-0.4-0.3-0.9
			c-0.1-0.4-0.2-1-0.2-1.8c0-0.1,0-0.2,0-0.3c0-0.9-0.1-2.1-0.1-3.7c0-0.2,0-0.5,0-0.9c0-0.4,0-0.8,0.1-1.2c0-0.5,0.1-0.9,0.1-1.4
			s0.1-0.9,0.1-1.3c0-0.4,0.1-0.7,0.2-0.9c0-0.2,0.1-0.4,0.1-0.4c0.1,0,0.3,0.2,0.4,0.4c0.1,0.3,0.3,0.7,0.4,1.1
			c0.1,0.5,0.3,1,0.4,1.6s0.2,1.2,0.4,1.7c0.1,0.6,0.2,1.2,0.2,1.7c0.1,0.5,0.1,1,0.1,1.4c0,0.4,0,0.7,0,1.1
			C263.9,350.4,263.9,350.6,263.9,350.8z M291.1,341.4c-0.1,0.7-0.3,1.3-0.6,1.8c-0.3,0.5-0.5,1-0.9,1.4c-0.3,0.4-0.7,0.5-1,0.5
			c-0.4,0-0.8-0.1-1.1-0.3c-0.3-0.2-0.5-0.4-0.7-0.7c-0.2-0.3-0.3-0.6-0.4-1c-0.1-0.4-0.1-0.8-0.1-1.2c0-0.6,0.1-1.3,0.2-2
			c0.2-0.7,0.4-1.3,0.7-1.9c0.3-0.6,0.6-1,1-1.4s0.8-0.5,1.2-0.5c0.3,0,0.6,0.1,0.8,0.3c0.2,0.2,0.4,0.4,0.6,0.7
			c0.1,0.3,0.3,0.7,0.3,1.1c0.1,0.4,0.1,0.9,0.1,1.3C291.4,340,291.3,340.7,291.1,341.4z"/>
		<path class="st2" d="M366.3,341c-0.4,0.4-0.9,0.8-1.5,1.3c-0.2,0.1-0.3,0.2-0.5,0.4c-0.4,0.3-0.9,0.6-1.4,0.9
			c-0.6,0.3-1.1,0.6-1.7,0.8c-0.1,0-0.2,0.1-0.3,0.1c-0.7,0.3-1.4,0.4-2,0.4c-0.2,0-0.4,0-0.6-0.1c-0.2,0-0.3-0.1-0.5-0.2
			c-0.2-0.1-0.3-0.2-0.5-0.4c-0.2-0.2-0.3-0.4-0.5-0.7c0.9-0.3,1.8-0.6,2.6-1.1c0.3-0.2,0.6-0.4,0.9-0.6c0.4-0.3,0.8-0.6,1.1-0.9
			c0.6-0.6,1-1.2,1.3-1.8c0.3-0.7,0.5-1.3,0.5-2c0-0.6-0.1-1.2-0.3-1.6c-0.2-0.5-0.5-0.9-0.9-1.2c-0.4-0.3-0.8-0.6-1.3-0.8
			c-0.1,0-0.1,0-0.2-0.1c-0.5-0.2-1-0.2-1.5-0.2c-0.7,0-1.4,0.1-2,0.4c-0.6,0.2-1.1,0.6-1.6,1s-0.9,0.9-1.3,1.5
			c-0.4,0.6-0.6,1.2-0.9,1.8c-0.2,0.6-0.4,1.3-0.5,1.9c-0.1,0.7-0.2,1.3-0.2,1.9c0,0.2,0,0.4,0,0.6c-0.1,0.1-0.2,0.2-0.3,0.3
			c-0.2,0.2-0.5,0.5-0.8,0.7c-0.3,0.2-0.5,0.4-0.8,0.6c-0.3,0.2-0.6,0.3-0.8,0.4c-0.3,0.1-0.5,0.1-0.8,0.1c-0.2,0-0.4-0.1-0.5-0.4
			c-0.1-0.2-0.2-0.6-0.2-1c0-0.8,0.1-1.5,0.3-2.2c0.2-0.7,0.4-1.4,0.6-2.1c0.2-0.7,0.5-1.4,0.7-2c0.2-0.7,0.3-1.4,0.3-2.1
			c0-0.4,0-0.7-0.1-0.9c-0.1-0.2-0.2-0.4-0.4-0.5c-0.1-0.1-0.3-0.2-0.5-0.3c-0.2-0.1-0.3-0.1-0.4-0.1c-0.5,0-1,0.2-1.6,0.6
			c-0.6,0.4-1.2,0.8-1.7,1.4c-0.6,0.6-1.1,1.2-1.7,1.8c-0.5,0.7-1,1.3-1.5,1.8l-0.3-0.2c0.3-0.7,0.8-1.4,1.2-2.3
			c0.5-0.9,0.9-1.8,1.4-2.8c0.5-1,1-2,1.4-3c0.5-1.1,0.9-2.1,1.2-3.1c0.4-1,0.7-2,0.9-3c0.2-0.9,0.3-1.8,0.3-2.6c0-0.5,0-1-0.1-1.4
			c-0.1-0.4-0.2-0.8-0.5-1.1c-0.2-0.3-0.5-0.5-0.9-0.7c-0.4-0.2-0.8-0.3-1.4-0.3c-1.1,0-2.1,0.3-2.9,0.9c-0.8,0.6-1.6,1.4-2.2,2.5
			c-0.6,1-1.1,2.2-1.6,3.6s-0.8,2.8-1.1,4.3c-0.2,1.2-0.4,2.4-0.5,3.6c0-0.3,0-0.5-0.1-0.7c-0.1-0.2-0.2-0.3-0.5-0.3
			c-0.2,0-0.4,0-0.7,0c-0.3,0-0.6,0-0.9,0c-0.3,0-0.6,0-1,0c-0.3,0-0.5,0-0.8,0c-0.1,0-0.1,0-0.2,0c-0.3,0-0.5,0-0.8,0
			c-0.2,0-0.4,0-0.5,0c0.3-0.4,0.6-0.9,0.8-1.4c0.1-0.1,0.2-0.3,0.2-0.4c0.3-0.6,0.6-1.2,0.9-1.8c0.2-0.6,0.4-1.2,0.6-1.8
			c0.1-0.6,0.2-1.1,0.2-1.6c0-0.6-0.1-1.2-0.2-1.8c-0.2-0.6-0.4-1.1-0.6-1.5c-0.3-0.4-0.6-0.8-1-1c-0.4-0.3-0.8-0.4-1.2-0.4
			c-0.7,0-1.4,0.3-2,0.9c-0.5,0.5-0.9,1-1.3,1.7c-0.1,0.2-0.3,0.5-0.4,0.8c-0.5,0.9-0.9,1.8-1.3,2.9c-0.1,0.2-0.1,0.4-0.2,0.6
			c-0.4,1.3-0.8,2.7-1.1,4.1c-0.1,0-0.3,0-0.6,0c-0.3,0-0.6,0-1,0c-0.4,0-0.7,0-1.1,0c-0.4,0-0.7,0-1.1,0.1
			c-0.3,0.1-0.6,0.1-0.8,0.2c-0.2,0.1-0.3,0.3-0.3,0.5c0,0.1,0,0.2,0,0.3c0,0.1,0,0.3,0.1,0.4s0.2,0.2,0.3,0.3
			c0.1,0.1,0.3,0.2,0.6,0.2c0.6,0.1,1,0.1,1.3,0.2c0.3,0,0.5,0.1,0.7,0.1c0.2,0,0.4,0.1,0.5,0.1s0.4,0.1,0.7,0.1
			c-0.1,0.7-0.2,1.4-0.2,2.1c-0.1,0.7-0.1,1.4-0.1,2c0,1.6,0.1,3.1,0.3,4.4c0.2,1.3,0.5,2.4,0.9,3.3c0.4,0.8,0.9,1.5,1.4,2
			c0,0,0.1,0.1,0.1,0.1c0.6,0.5,1.3,0.7,2.1,0.7c0.4,0,0.8-0.1,1.3-0.2c0.2-0.1,0.4-0.1,0.6-0.2c0.3-0.1,0.7-0.3,1-0.4
			c0.6-0.3,1.3-0.7,2.1-1.1c0.6-0.3,1.3-0.7,2-1.2c0,0.3,0,0.6,0,0.9c0,0.4,0.1,0.8,0.2,1.1c0.1,0.3,0.2,0.6,0.4,0.8
			c0.2,0.2,0.5,0.3,0.8,0.3c0.3,0,0.5-0.1,0.6-0.2c0.2-0.1,0.3-0.3,0.5-0.5c0.1-0.2,0.3-0.5,0.4-0.9c0.2-0.4,0.3-0.8,0.6-1.2
			c0.5-1,1-1.9,1.6-2.8c0.6-0.9,1.1-1.7,1.7-2.4c0.5-0.7,1-1.3,1.5-1.8c0.4-0.5,0.7-0.8,0.9-0.9l0.3,0c0,0-0.1,0.2-0.2,0.3
			c-0.1,0.2-0.2,0.5-0.4,0.8c-0.2,0.3-0.3,0.7-0.5,1.1c-0.2,0.4-0.3,0.8-0.4,1.2c-0.1,0.4-0.2,0.8-0.3,1.2c-0.1,0.4-0.1,0.8-0.1,1.1
			c0,0.5,0.1,1,0.2,1.6c0.1,0.6,0.3,1.1,0.6,1.6c0.3,0.5,0.6,0.9,1,1.2c0.4,0.3,0.9,0.5,1.5,0.5c0.4,0,0.8-0.1,1.2-0.2
			c0.4-0.1,0.8-0.3,1.2-0.5c0.4-0.2,0.8-0.4,1.2-0.7s0.8-0.5,1.2-0.8c0.3-0.2,0.6-0.5,0.9-0.7c0.2,0.3,0.3,0.5,0.5,0.8
			c0.5,0.6,1.1,1.1,1.9,1.4c0.7,0.4,1.6,0.5,2.6,0.5c0.6,0,1.2-0.1,1.9-0.2c0.6-0.1,1.2-0.3,1.8-0.6c0.1-0.1,0.3-0.1,0.4-0.2
			c0.4-0.2,0.8-0.4,1.2-0.6c0.5-0.3,1-0.6,1.5-0.9c0.1-0.1,0.2-0.2,0.3-0.2c0.9-0.7,1.8-1.5,2.6-2.3L366.3,341z M329.4,328.5
			c0.2-0.9,0.5-1.7,0.7-2.5c0.1-0.3,0.2-0.6,0.4-0.9c0.1-0.3,0.3-0.7,0.5-0.9c0.3-0.5,0.5-0.7,0.8-0.7c0.2,0,0.4,0,0.5,0.1
			c0.1,0.1,0.2,0.2,0.2,0.3c0,0.1,0.1,0.3,0.1,0.4c0,0.1,0,0.3,0,0.4c0,0.3-0.1,0.8-0.3,1.3c-0.1,0.4-0.3,0.9-0.5,1.4
			c0,0.1-0.1,0.2-0.1,0.3c-0.3,0.6-0.6,1.2-0.9,1.9c-0.3,0.6-0.6,1.1-0.9,1.6c0,0,0,0.1-0.1,0.1c-0.2,0-0.3,0-0.5-0.1
			c-0.2,0-0.3,0-0.5,0c0.1-0.5,0.2-0.9,0.3-1.4C329.2,329.3,329.3,328.9,329.4,328.5z M337.5,333.7c-0.2,1.5-0.3,3-0.4,4.4
			c-0.1,1.1-0.1,2.2-0.1,3.1c-0.1,0.1-0.3,0.3-0.4,0.4c-0.4,0.3-0.8,0.6-1.2,1c-0.4,0.3-0.9,0.6-1.3,0.8c0,0-0.1,0-0.1,0
			c-0.4,0.2-0.8,0.4-1.2,0.6c-0.4,0.2-0.8,0.3-1.1,0.4c-0.3,0.1-0.6,0.2-0.8,0.2c-0.4,0-0.7-0.1-1-0.2c-0.1,0-0.1,0-0.2-0.1
			c-0.2-0.1-0.4-0.3-0.6-0.5c-0.2-0.2-0.4-0.6-0.5-1c-0.1-0.4-0.2-0.9-0.2-1.4c0-0.2,0-0.5,0-0.7c0-0.3,0-0.5,0-0.8
			c0-0.3,0-0.6,0-0.9c0-0.3,0-0.6,0-0.8c0-0.6,0.1-1.3,0.1-1.9c0.3-0.3,0.5-0.7,0.9-1.1c0.3-0.4,0.6-0.8,0.9-1.2h6.1
			c0.3,0,0.5-0.1,0.7-0.3c0.1-0.2,0.2-0.3,0.3-0.5C337.6,333.3,337.5,333.5,337.5,333.7z M341.4,334.8c-0.3,0.8-0.6,1.5-0.9,2.2
			c0.1-1.2,0.2-2.4,0.4-3.7c0.1-0.5,0.2-1.1,0.3-1.7c0.1-0.6,0.2-1.2,0.3-1.8c0.1-0.6,0.3-1.2,0.4-1.8c0.1-0.6,0.3-1.2,0.5-1.8
			c0.7-1.7,1.4-3,1.9-3.9c0.5-0.9,0.9-1.3,1.2-1.3c0.2,0,0.3,0.4,0.3,1.2c0,0.5-0.1,1.4-0.4,2.5c-0.3,1.1-0.7,2.5-1.4,4.1
			c-0.2,0.5-0.4,1.1-0.7,1.7c-0.3,0.7-0.6,1.4-0.9,2.2C342,333.2,341.7,334,341.4,334.8z M356.6,339.9c0-0.3,0.1-0.7,0.1-1
			c0.1-0.3,0.2-0.7,0.3-1c0.1-0.3,0.3-0.7,0.5-0.9c0.2-0.3,0.5-0.5,0.8-0.7c0.3-0.2,0.7-0.2,1.2-0.2c0.2,0,0.4,0.1,0.5,0.3
			c0,0,0.1,0.1,0.1,0.1c0.2,0.3,0.3,0.7,0.3,1.2c0,0.3-0.1,0.7-0.4,1l0,0c-0.3,0.3-0.6,0.7-1,1c-0.4,0.3-0.8,0.6-1.2,0.8
			c-0.5,0.2-0.9,0.3-1.2,0.3C356.6,340.5,356.6,340.2,356.6,339.9z"/>
	</g>
	<g>
		<path class="st2" d="M280.1,381.1c1.6,0.1,2.9-0.1,4-0.5c1.1-0.4,2.1-1,2.8-1.7c0.7-0.7,1.3-1.5,1.7-2.4c0.4-0.9,0.5-1.9,0.6-2.9
			c0-1.1-0.2-2-0.5-2.8c-0.4-0.8-0.9-1.4-1.6-1.9c-0.7-0.5-1.5-0.9-2.4-1.1c-0.9-0.3-1.9-0.4-3-0.4c-1.7-0.1-3.1,0.1-4.2,0.6
			c-1.1,0.5-2.1,1-2.8,1.8c-0.7,0.7-1.2,1.5-1.6,2.3c-0.3,0.8-0.5,1.6-0.6,2.2c-0.1,2,0.5,3.6,1.7,4.9
			C275.5,380.3,277.5,381,280.1,381.1z"/>
		<path class="st2" d="M435.2,399.8c-1.1,1.3-2.4,2.6-4,4.1c-1.6,1.5-3.3,2.9-5.1,4.2c-1.8,1.3-3.8,2.4-5.8,3.4
			c-1.5,0.7-3,1.3-4.5,1.6c-0.5,0.1-0.9,0.2-1.4,0.2c-0.6,0.1-1.2,0.1-1.7,0c-0.5-0.1-1.1-0.2-1.6-0.4c-0.5-0.2-1-0.6-1.6-1
			c-0.1-0.1-0.2-0.2-0.3-0.3c-0.6-0.5-1.4-1.4-1.3-1.5c0.1-0.3,5.1-2.3,7.3-3.8c2.2-1.5,4-3.2,5.5-5c0.1-0.1,0.2-0.2,0.2-0.3
			c1.4-1.7,2.4-3.5,3-5.3c0.2-0.5,0.3-1,0.5-1.5c0.3-1.4,0.4-2.7,0.2-4c-0.2-1.6-0.7-3.1-1.5-4.3c-0.8-1.2-1.8-2.2-3-3
			c-0.6-0.4-1.2-0.7-1.9-1c-0.7-0.3-1.4-0.5-2.2-0.7c-1-0.2-2-0.3-3.1-0.3c-0.6,0-1.2,0-1.8,0.1c-2.1,0.3-4,0.8-5.6,1.8
			c-1.6,0.9-3.1,2-4.3,3.4c-1.3,1.4-2.3,2.9-3.2,4.6c-0.9,1.7-1.6,3.4-2.1,5.2c-0.5,1.8-0.9,3.6-1,5.5c-0.1,0.8-0.1,1.5-0.1,2.2
			c0,1,0,2,0.1,3c0.1,0.7,0.2,1.4,0.3,2.1c-0.3,0.2-0.6,0.5-0.8,0.7c-0.3,0.3-0.7,0.5-1,0.8c-0.8,0.6-1.6,1.2-2.5,1.8
			c-0.9,0.6-1.7,1.1-2.6,1.6c-0.8,0.5-1.6,0.9-2.4,1.2c-0.8,0.3-1.4,0.5-2,0.5c-0.3,0-0.5-0.1-0.8-0.4c-0.3-0.3-0.6-0.7-0.9-1.3
			c-0.3-0.5-0.6-1.2-0.8-1.9c-0.2-0.7-0.4-1.4-0.5-2.2c0-0.2,0-0.4,0-0.6c0-0.6,0.1-1.2,0.2-1.8c0.1-0.6,0.2-1.2,0.3-1.8
			c0.1-0.5,0.2-1.1,0.4-1.5s0.3-0.9,0.4-1.2c1.2-2.7,2.5-5.5,3.9-8.4s2.7-5.8,4-8.8c1.3-3,2.5-6,3.7-9c1.2-3,2.1-6,2.9-9
			c0.8-3,1.3-5.9,1.7-8.8c0.3-2.9,0.3-5.7,0-8.4c-0.1-1.2-0.4-2.4-0.7-3.5c-0.3-1.1-0.8-2.2-1.3-3c-0.5-0.8-1.1-1.4-1.9-1.9
			c-0.1-0.1-0.2-0.1-0.2-0.2c-0.9-0.5-1.9-0.7-3.2-0.5c0,0,0,0,0,0c-1.8,0.2-3.5,0.9-5.2,2.2c-1.7,1.3-3.2,2.9-4.7,5
			c-0.7,1-1.4,2.1-2.1,3.2c-0.6,1.1-1.3,2.3-1.9,3.6c-0.1,0.1-0.1,0.2-0.2,0.4c-1.3,2.7-2.5,5.6-3.5,8.7s-2,6.3-2.8,9.6
			c-0.8,3.3-1.5,6.6-2,9.9c-0.5,3.3-0.9,6.4-1.1,9.5c-0.2,3-0.2,5.9,0,8.4c0.2,3.4,0.8,6.5,1.6,9.6c0.2,0.6,0.3,1.2,0.5,1.7
			c-1.5,1.2-3.1,2.3-4.9,3.3c-2.1,1.1-4.4,2-7,2.8c-2.6,0.7-5.5,1.2-8.8,1.3c-0.1-0.4-0.2-0.6-0.3-0.9c2.8-1.3,5.2-2.7,7.2-4.3
			s3.6-3.2,4.9-5c1-1.4,1.7-2.8,2.3-4.3c0.1-0.4,0.3-0.8,0.4-1.1c0.5-1.9,0.7-3.8,0.6-5.8c-0.2-2.5-0.7-4.5-1.5-6.2
			c-0.8-1.6-1.9-3-3.2-4c-0.3-0.2-0.6-0.5-0.9-0.7c-1.1-0.7-2.2-1.1-3.5-1.4c-1.7-0.4-3.4-0.5-5.3-0.4c-2.5,0.1-4.7,0.7-6.4,1.6
			c-1.8,0.9-3.2,2.2-4.5,3.7c-1.2,1.5-2.2,3.3-3,5.3c-0.6,1.6-1.1,3.3-1.6,5.1v0c-0.1,0.4-0.2,0.9-0.3,1.3c-0.3,1.4-0.6,2.8-0.8,4.3
			c-0.1,0.9-0.3,1.8-0.4,2.6c-0.1,0.5-0.1,1.1-0.2,1.6c-0.9,0.9-1.8,1.7-2.8,2.5c-1.7,1.4-3.6,2.5-5.7,3.6s-4.5,1.8-7.2,2.4
			c-2.6,0.6-5.6,0.9-8.8,0.9c-0.1-0.4-0.2-0.6-0.3-0.9c2.9-1.1,5.3-2.5,7.4-4c2.1-1.5,3.8-3.1,5.1-4.8c1.3-1.7,2.3-3.5,2.9-5.3
			c0.6-1.9,0.9-3.8,0.8-5.7c0-2.5-0.4-4.5-1.2-6.2c-0.7-1.7-1.7-3.1-3-4.1c-1.2-1.1-2.7-1.8-4.3-2.3c-1.6-0.5-3.4-0.7-5.2-0.7
			c-2.5,0-4.7,0.4-6.4,1.3c-0.4,0.2-0.7,0.4-1.1,0.6c-1,0.6-2,1.3-2.8,2.2c-0.2,0.2-0.5,0.5-0.7,0.7c-1.3,1.5-2.4,3.2-3.2,5.2
			c-0.9,2-1.6,4.1-2.2,6.3c-0.6,2.2-1.1,4.5-1.5,6.9c0,0.2-0.1,0.4-0.1,0.6c0,0.2-0.1,0.5-0.1,0.7c0-0.2,0-0.5,0-0.7
			c0-0.1,0-0.2,0-0.2c-0.2,0.1-0.4,0.3-0.6,0.5c-0.9,0.7-1.9,1.4-3.1,2.3c-0.8,0.6-1.6,1.2-2.4,1.8c-0.6,0.5-1.3,0.9-1.9,1.3
			c-1.5,1-2.9,1.8-4.3,2.5c-1.4,0.7-2.7,1-3.9,0.9c-1,0-1.6-0.4-1.9-1.2c-0.3-0.8-0.4-1.8-0.3-3.1c0-1.3,0.3-2.8,0.7-4.5
			c0.1-0.5,0.2-1,0.4-1.4c0.3-1.2,0.7-2.4,1-3.7c0-0.2,0.1-0.3,0.1-0.5c0.5-1.6,1-3.2,1.6-4.7c0.6-1.7,1.2-3.4,1.7-4.9
			c0.5-1.5,1-2.8,1.3-4c0.4-1.2,0.5-2.1,0.6-2.8c0-0.8-0.2-1.4-0.6-1.8c-0.4-0.5-1.3-0.7-2.6-0.8c-0.1,0-0.1,0-0.2,0
			c-0.7,0-1.4,0-2.2,0.1c-0.8,0.1-1.5,0.3-2.3,0.5c-0.1,0-0.2,0.1-0.3,0.1c-0.8,0.3-1.6,0.7-2.2,1.2c-0.7,0.5-1.1,1.1-1.4,1.9
			c-0.7,2.1-1.4,4.5-2.3,7c-0.9,2.5-1.7,5.1-2.5,7.6c-0.7,2.3-1.3,4.5-1.9,6.6c-0.2,0.2-0.4,0.3-0.6,0.5c-1.5,1.1-3.2,2.2-4.9,3.1
			c-1.7,1-3.4,1.7-5.2,2.3c-1.8,0.6-3.4,0.8-4.9,0.7c-1.1-0.1-2-0.4-2.8-0.8c-0.7-0.5-1.4-1.1-1.8-1.8c-0.5-0.7-0.8-1.5-1.1-2.4
			c-0.2-0.9-0.4-1.7-0.5-2.6c0-0.6-0.1-1.1-0.1-1.7c0-0.3,0-0.6,0-1c0-0.9,0.1-1.6,0.1-2.3c0.2-2.1,0.5-4.4,1-6.8
			c0.5-2.4,1.1-4.8,1.7-7.3c0-0.1,0.1-0.2,0.1-0.4c0.6-2.3,1.2-4.7,1.9-7.1c0.7-2.5,1.4-4.9,2-7.2c0.6-2.3,1.1-4.6,1.6-6.7
			c0.4-2.1,0.7-4,0.9-5.8c0.1-1.5,0-3-0.2-4.6s-0.7-3-1.4-4.3c-0.7-1.3-1.6-2.5-2.7-3.4c-1.1-0.9-2.6-1.4-4.3-1.6
			c-1.5-0.1-3,0-4.6,0.2c-1.6,0.3-3.3,0.9-5.1,1.9c-1.8,1-3.7,2.3-5.7,4.1c-2,1.8-4.1,4.1-6.4,7c-2.3,2.9-4.7,6.4-7.2,10.5
			c-2.6,4.1-5.3,9-8.2,14.6c-0.3-0.1-0.5-0.2-0.8-0.4c1.1-2.3,2.1-4.6,3.2-7c1-2.4,2-4.7,2.9-6.9c0.9-2.3,1.6-4.5,2.2-6.6
			c0.6-2.2,1-4.2,1.2-6.1c0.2-1.9,0.3-3.7,0.1-5.3c-0.2-1.6-0.7-3-1.4-4.2c-0.5-0.9-1.2-1.6-2-2.3c-0.3-0.3-0.7-0.5-1.1-0.8
			c-0.7-0.4-1.4-0.7-2.2-1c-0.9-0.3-1.8-0.5-2.9-0.7c-1.4-0.2-2.8-0.1-4.3,0.4c-1.5,0.4-3.1,1.2-4.7,2.4c-0.2,0.2-0.5,0.4-0.7,0.5
			c-0.9,0.8-1.9,1.7-2.8,2.7c-0.4,0.5-0.9,1-1.3,1.6c-1.6,2.1-3,5.8-4.6,7.7c-0.1,0.1-0.2,0.2-0.2,0.4c0,0.3,0,0.7,0.2,1.1
			c0.2,0.4,0.4,0.8,0.7,1.2c0.3,0.4,0.7,0.8,1,1.1c0.4,0.3,0.8,0.5,1.2,0.6c0.5,0.1,0.9,0,1.3-0.1c0.4-0.1,0.7-0.4,1-0.8
			c0.9-1.3,2.1-2.6,3.2-3.8c1.1-1.2,2.2-2.1,3.3-3c1-0.8,2-1.5,3-1.9c0.9-0.4,1.7-0.6,2.3-0.5c0.4,0.1,0.8,0.2,0.9,0.5
			c0.2,0.3,0.3,0.6,0.3,1c0,0.4,0,0.8,0,1.2c0,0.4-0.1,0.8-0.1,1c-0.5,2.8-1.2,5.5-1.8,8c-0.6,2.5-1.3,4.9-2,7.3
			c-0.7,2.3-1.4,4.7-2.2,7c-0.8,2.3-1.6,4.7-2.5,7.1c-0.9,2.5-1.9,5-3,7.7c-1.1,2.7-2.2,5.6-3.5,8.8c-0.4,1-0.7,1.9-1,2.9
			c-0.3,1-0.5,2-0.7,3.2c-0.2,1.2-0.1,2.2,0.1,3.2c0.2,1,0.6,1.8,1.1,2.5c0.5,0.7,1.1,1.3,1.9,1.7c0.7,0.4,1.5,0.7,2.4,0.8
			c1.4,0.2,2.8,0.1,4-0.4c1.3-0.5,2.6-1.5,3.5-2.9c1.5-2.4,3-5.7,4.6-8.8c1.6-3.1,3.3-6.2,4.9-9.5c0.4-0.8,0.8-1.6,1.3-2.4
			c1.3-2.4,2.5-4.8,3.9-7.2c1.7-3.2,3.4-6.2,5.1-9c1.6-2.7,3.1-5.2,4.7-7.5c0.1-0.2,0.2-0.3,0.3-0.5c1.6-2.5,3.2-4.6,4.8-6.4
			c1.5-1.8,3-3.1,4.4-4.1c1.4-1,2.6-1.4,3.8-1.3c0.7,0.1,1.3,0.4,1.6,0.9c0.4,0.5,0.6,1.1,0.8,1.8c0.1,0.7,0.2,1.4,0.2,2.1
			c0,0.7,0,1.3-0.1,1.7c-0.2,1.6-0.5,3.3-1,5.1c-0.5,1.7-1.2,3.5-1.9,5.4c-0.1,0.2-0.2,0.5-0.3,0.7c-0.5,1.2-1,2.4-1.5,3.7
			c-0.2,0.4-0.4,0.8-0.5,1.2c-0.9,1.9-1.7,3.9-2.4,5.9c-0.8,2-1.4,4.1-2,6.2c-0.6,2.1-1,4.3-1.2,6.6c-0.2,1.7-0.2,3.5-0.2,5.3
			c0,1.1,0.1,2.3,0.2,3.4c0.1,0.7,0.2,1.4,0.3,2.1c0.1,0.5,0.2,0.9,0.3,1.4c0.3,1.3,0.7,2.6,1.2,3.8c0.7,1.6,1.6,3.1,2.7,4.4
			c1.1,1.3,2.5,2.4,4.2,3.2c1.6,0.8,3.6,1.3,5.9,1.5c1.7,0.1,3.5,0.1,5.3-0.2c1.8-0.3,3.6-0.7,5.5-1.3c1.8-0.6,3.6-1.3,5.3-2.1
			c0.9-0.4,1.7-0.9,2.6-1.3c0.3,0.8,0.6,1.5,1.1,2c0.7,0.8,1.6,1.4,2.7,1.9c1.1,0.5,2.5,0.8,4.2,0.8c1.9,0.1,3.8-0.1,5.9-0.7
			c2.1-0.5,4.2-1.2,6.2-2.1c2-0.8,3.9-1.8,5.6-2.8c0.1-0.1,0.2-0.2,0.4-0.2c-1.6,2.1-3.4,4.3-4.6,6.3c-1,1.6-2,3.2-2.9,4.8
			c-0.9,1.7-1.8,3.3-2.6,4.9c-0.8,1.6-1.4,3.2-1.9,4.6c-0.5,1.5-0.8,2.8-0.8,4c-0.1,2.1,0,4,0.2,5.9c0.2,1.9,0.7,3.5,1.4,4.9
			c0.7,1.4,1.7,2.5,2.9,3.4s2.8,1.3,4.7,1.4c2.4,0.1,4.7-0.7,6.9-2.3c2.2-1.6,4.2-3.9,6-6.9c1.7-3,3.1-6.7,4.2-11
			c1-4.3,1.6-9.1,1.6-14.4c0-0.3,0-0.5,0-0.8c2.7,0.4,4.8,0.7,6.3,0.9c1.6,0.2,2.8,0.4,3.6,0.6c0.8,0.1,1.4,0.2,1.8,0.3
			c0.3,0,0.6,0.1,0.8,0.1c1.9,0,3.8-0.3,5.7-0.8c1.7-0.4,3.2-1,4.8-1.7c-0.5,0.8-1,1.6-1.5,2.4c-0.9,1.6-1.8,3.3-2.7,5
			c-0.1,0.1-0.1,0.3-0.2,0.4c-0.6,1.1-1.1,2.3-1.6,3.4c-0.2,0.4-0.4,0.8-0.5,1.2c-0.7,1.6-1.3,3.2-1.7,4.7c-0.4,1.5-0.6,2.8-0.6,4
			c0,2.1,0.2,4,0.5,5.8c0.3,1.8,0.9,3.5,1.6,4.8c0.8,1.4,1.8,2.5,3.1,3.2c1.3,0.8,2.9,1.2,4.8,1.1c1.2,0,2.3-0.2,3.4-0.7
			c1.2-0.4,2.3-1.1,3.4-2c0.2-0.2,0.5-0.4,0.7-0.6c1.9-1.7,3.5-3.9,4.9-6.6c1.6-3.1,2.8-6.8,3.6-11.2c0.8-4.3,1.1-9.2,0.9-14.4
			c0-0.3,0-0.5,0-0.8c2.7,0.2,4.8,0.4,6.4,0.6c1.6,0.2,2.8,0.3,3.6,0.4c0.8,0.1,1.4,0.2,1.8,0.2c0.3,0,0.6,0,0.9,0
			c1.9-0.1,3.7-0.5,5.6-1c1.9-0.6,3.7-1.4,5.3-2.3c1.7-0.9,3.2-2,4.6-3.1c0.3-0.2,0.5-0.4,0.7-0.7c1,1.5,2.2,2.8,3.4,3.7
			c1.6,1.3,3.3,1.8,5,1.7c1.1-0.1,2.2-0.3,3.5-0.7c1.2-0.4,2.5-0.9,3.8-1.5c1.3-0.6,2.5-1.2,3.8-2c1.2-0.7,2.5-1.4,3.6-2.2
			c1.1-0.7,2.2-1.5,3.3-2.2c0.4,0.4,0.8,0.8,1.2,1.2c1.7,1.5,3.7,2.6,6.1,3.3c2.4,0.7,5.1,0.9,8.1,0.5c1.9-0.2,3.8-0.7,5.6-1.3
			c1.8-0.6,3.6-1.4,5.2-2.3c1.7-0.9,3.2-1.9,4.7-2.9c1.5-1.1,2.8-2.1,4.1-3.2c2.8-2.5,5.4-5.2,7.8-8.3
			C439.3,402.8,438,401.8,435.2,399.8z M291.8,430c0,0.7-0.1,1.6-0.2,2.7c-0.1,1.1-0.2,2.4-0.3,4c-0.1,0.9-0.1,1.9-0.2,3
			c0,1.1-0.1,2.3-0.2,3.5c-0.1,1.2-0.2,2.3-0.3,3.5c-0.1,1.1-0.3,2.1-0.6,3c-0.3,0.9-0.6,1.6-1,2.1c-0.4,0.5-0.8,0.8-1.4,0.8
			c-0.6,0-1.2-0.2-1.6-0.7c-0.4-0.4-0.8-0.9-1-1.4c-0.2-0.5-0.4-1-0.5-1.6c-0.1-0.5-0.1-0.9-0.1-1.1c0-0.4,0.1-1,0.3-1.9
			c0.2-0.8,0.5-1.8,0.8-3c0.3-1.2,0.8-2.4,1.2-3.8c0.5-1.4,1-2.7,1.5-4.1c0.6-1.4,1.1-2.7,1.8-3.9c0.6-1.2,1.8-3.3,1.9-3.3
			C292,428,291.9,429.2,291.8,430z M302,416.8c-0.1,0,0.1-3.4,0.2-5.2c0.1-1.7,0.3-3.4,0.6-5c0.1-0.4,0.1-0.7,0.2-1
			c0.2-1.2,0.5-2.4,0.9-3.5c0.2-0.8,0.5-1.5,0.9-2.2c0.2-0.5,0.5-1,0.8-1.4c0.7-1,1.4-1.8,2.3-2.4c0.9-0.6,1.9-0.9,3-0.9
			c1,0,1.8,0.3,2.4,0.8c0.6,0.5,1,1.2,1.2,1.9c0.2,0.8,0.3,1.6,0.3,2.4c0,0.9-0.1,1.6-0.3,2.2c-0.3,1.4-0.9,2.7-1.5,4
			c-0.6,1.3-1.4,2.6-2.4,3.8c-1,1.2-2.2,2.4-3.6,3.4C305.6,415,302.3,417,302,416.8z M332.4,449.7c-0.2,0.9-0.5,1.6-0.8,2.2
			c-0.3,0.5-0.7,0.7-1.1,0.8c-0.1,0-0.2,0-0.2,0c-0.6,0-1.2-0.2-1.6-0.6c-0.4-0.4-0.8-0.8-1.1-1.4c-0.3-0.5-0.5-1-0.6-1.6
			c-0.1-0.5-0.2-0.9-0.2-1.1c0-0.4,0.1-1,0.2-1.9c0,0,0-0.1,0-0.1c0.2-0.8,0.4-1.8,0.7-3c0.1-0.5,0.3-1,0.4-1.6
			c0.2-0.7,0.4-1.5,0.6-2.3c0.4-1.4,0.8-2.7,1.3-4.1c0.5-1.4,1-2.7,1.6-4c0.5-1.3,1.7-3.4,1.7-3.4c0,0,0,1.2,0,2c0,0.7,0,1.6,0,2.7
			c0,1.1,0,2.4-0.1,4c0,0.9-0.1,1.9,0,3c0,1.1,0,2.3,0,3.5c0,1.2-0.1,2.4-0.2,3.5c0,0.8-0.1,1.5-0.2,2.2
			C332.5,449.1,332.5,449.4,332.4,449.7z M342.7,416.2c0,0,0-0.7,0-1.7c0-1.1,0-2.6,0-3.5c0-0.1,0-0.1,0-0.2c0-1.7,0.2-3.3,0.4-4.8
			c0.2-1.6,0.5-3.1,0.9-4.5c0.4-1.4,0.8-2.6,1.4-3.7c0.6-1,1.3-1.9,2.1-2.5c0.8-0.6,1.8-1,3-1c1,0,1.8,0.2,2.4,0.7
			c0.6,0.5,1,1.1,1.3,1.9c0.3,0.7,0.4,1.5,0.4,2.4s-0.1,1.6-0.2,2.3c-0.3,1.4-0.7,2.7-1.3,4.1c-0.6,1.3-1.3,2.6-2.2,3.9
			c-0.5,0.7-1.1,1.4-1.8,2.1c-0.5,0.5-1,1-1.5,1.5c-0.6,0.5-1.7,1.3-2.7,2C343.8,415.8,342.9,416.3,342.7,416.2z M378.6,382.7
			c0.2-3,0.5-5.9,1-8.7c0.5-2.8,1.1-5.5,1.8-8.1c0.7-2.5,1.5-4.8,2.3-6.7c0.8-1.9,1.7-3.5,2.5-4.7c0.9-1.2,1.8-1.8,2.6-1.9
			c0.2,0,0.4,0.3,0.5,0.9c0.1,0.6,0.2,1.3,0.3,2.1c0.1,2.5-0.3,5.5-1,8.7c-0.7,3.1-1.6,6.3-2.6,9.5s-2.2,6.3-3.5,9.3
			c-1.3,3-3.6,8.2-3.7,8.2C378.7,391.3,378.5,385.7,378.6,382.7z M406,397.9c0.1-1,0.3-2,0.6-2.9c0.3-1,0.7-1.9,1.2-2.7
			c0.5-0.8,1.3-1.5,2.2-2.1c0.9-0.6,2-0.9,3.3-1.1c0.7-0.1,1.4,0.2,2,1c0.6,0.8,1,1.8,1.2,3.1c0.1,0.9-0.1,1.9-0.8,3
			c-0.6,1.1-1.5,2.1-2.5,3.1c-1,1-2.2,1.8-3.5,2.5c-1.3,0.7-3.3,1.4-3.6,1.2c-0.1-0.1-0.1-1.4-0.2-2.3
			C405.9,399.9,405.9,398.9,406,397.9z"/>
	</g>
	<path class="st2" d="M484.9,349.9c-0.1-2.3-0.2-4.6-0.4-6.9c-0.2-2.5-0.4-5-0.8-7.6c-0.3-2.4-0.6-4.9-1-7.3c0,0,0,0,0,0
		c-1.8-11-4.7-22.4-8.7-34.1c-0.4-1.1-0.8-2.2-1.2-3.3c-3.3-9.3-7.3-18.8-12-28.4c-0.6-1.2-1.1-2.3-1.7-3.5
		c-4.1-8.3-8.8-16.8-14-25.3c-0.6-1-1.2-2-1.8-3c-4.8-7.9-10-15.8-15.7-23.9c-0.7-1-1.4-2-2.2-3.1c-0.8-1.2-1.6-2.3-2.5-3.5
		c-6.2-8.6-12.6-17-19.2-25.1c-1.6-2-3.2-4-4.9-6c0,0,0,0,0,0c-1.3-1.6-2.6-3.1-3.8-4.7c-1.7-2-3.4-4-5-6
		c-19-22.4-38.3-42.7-55.1-59.8c-1.3-1.4-2.7-2.7-4-4c-5.3-5.4-10.4-10.4-15.1-15.1c-0.4-0.5-0.9-0.8-1.5-1.2
		c-1.1-0.7-2.4-1.1-3.6-1.2c-0.2,0-0.5,0-0.7,0c-2.1,0-3.9,0.8-5.2,2.3l-0.2,0.2c-17.2,17-40.2,39.9-63.7,66.5
		c-0.8,0.9-1.6,1.8-2.4,2.8c-6,6.9-12.1,14-18.1,21.3c-0.7,0.9-1.5,1.8-2.2,2.8c-5.6,7-11.2,14.2-16.6,21.5c-0.7,1-1.4,1.9-2.1,2.9
		c-5.5,7.5-10.7,15.1-15.8,22.8c-0.9,1.3-1.8,2.7-2.6,4c-6.3,9.9-12.2,20-17.6,30.2c-2.7,5.1-5.2,10.3-7.6,15.5c0,0,0,0.1-0.1,0.1
		c-0.4,0.9-0.8,1.8-1.2,2.7c-1.5,3.2-2.8,6.5-4.1,9.8c-4.1,10.2-7.5,20.6-10.1,30.9c-0.3,1.4-0.7,2.7-1,4.1
		c-2.6,11.5-4.1,23.1-4.4,34.5c0,1.1,0,2.1,0,3.2v0.3c0.1,61.9,32.5,116.3,81.2,147.3c1,0.6,2,1.2,3,1.9c7,4.3,14.3,8.1,22,11.3
		c1.2,0.5,2.5,1,3.7,1.5c8.7,3.5,17.6,6.3,26.9,8.4c1.6,0.4,3.2,0.7,4.8,1c6.2,1.2,12.6,2.1,19.1,2.6c1.6,0.1,3.2,0.2,4.8,0.3
		c3.2,0.2,6.4,0.3,9.6,0.3c7.9,0,15.7-0.5,23.4-1.6c1.4-0.2,2.7-0.4,4.1-0.6c7.9-1.2,15.7-3,23.2-5.3c1.3-0.4,2.6-0.8,4-1.2
		c9.6-3.1,18.8-7.1,27.5-11.8c2-1.1,4-2.2,5.9-3.3c4.2-2.5,8.3-5.1,12.3-7.9c1-0.7,1.9-1.4,2.9-2.1c8.4-6.2,16.3-13.1,23.5-20.7
		c1.2-1.2,2.3-2.5,3.5-3.8c4-4.4,7.7-9,11.2-13.8c1-1.4,2-2.8,3-4.2c8.4-12.3,15.3-25.6,20.4-39.9c0.6-1.8,1.2-3.5,1.8-5.3
		c1.6-4.9,3-9.9,4.1-15c0,0,0,0,0,0c0.5-2,0.9-3.9,1.2-5.9c2-10.6,3.1-21.5,3.1-32.7C485,353.2,484.9,351.5,484.9,349.9z
		 M459.3,409.1c-0.4,1.1-0.8,2.2-1.3,3.4c-3.5,9-7.8,17.5-12.8,25.6c-0.6,1-1.3,2.1-2,3.1c-5.4,8.2-11.4,15.9-18.2,23
		c-0.8,0.9-1.7,1.8-2.5,2.6c-17.2,17.2-38.3,30.6-61.9,38.5c-1.1,0.4-2.3,0.8-3.4,1.1c-7.2,2.2-14.7,4-22.3,5.2
		c-1.3,0.2-2.6,0.4-3.9,0.6c-6.8,0.9-13.8,1.4-20.9,1.4c-1.9,0-3.8,0-5.7-0.1c-1.2,0-2.5-0.1-3.7-0.2c-8.5-0.5-16.8-1.7-24.9-3.5
		c-1.2-0.3-2.3-0.5-3.5-0.8c-25.4-6.2-48.4-18.6-67.4-35.4c-1-0.9-1.9-1.7-2.9-2.6c-6.2-5.8-12-12.1-17.2-18.8
		c-0.8-1.1-1.6-2.1-2.4-3.2c-7.8-10.5-14.3-22-19.3-34.3c-0.6-1.5-1.2-2.9-1.7-4.4c-2.4-6.3-4.3-12.9-5.9-19.5
		c-0.4-1.7-0.8-3.5-1.1-5.3c-2-9.9-3-20.2-3-30.7c0-2.1,0-4.2,0.1-6.4c0.3-5.9,0.9-11.9,1.9-18c1.9-11.5,5.1-23.4,9.6-35.7
		c0.4-1.1,0.8-2.2,1.2-3.3c3.3-8.7,7.3-17.6,11.9-26.7c0.6-1.1,1.2-2.3,1.8-3.5c4.5-8.7,9.6-17.5,15.3-26.5c0.7-1.1,1.3-2.1,2-3.2
		c3.8-5.9,7.8-11.9,12.1-17.9c0.8-1.1,1.5-2.2,2.3-3.2c0.8-1.1,1.5-2.1,2.3-3.2c27.2-37.2,59-71.1,89.8-102.3
		c0.9-0.9,1.8-1.8,2.7-2.7l2.4-2.4l3.4-3.4l3.4,3.4c3.4,3.4,6.9,6.9,10.4,10.5c0.8,0.9,1.7,1.7,2.5,2.6c6.2,6.4,12.5,12.9,18.8,19.5
		c1.4,1.4,2.7,2.9,4.1,4.3c0.8,0.9,1.6,1.7,2.4,2.6c4.2,4.6,8.5,9.2,12.7,14c34.5,38.7,66.5,80.9,85.8,123.5
		c2.1,4.7,4.1,9.4,5.9,14.1c8.2,21.4,12.9,42.8,12.9,63.9c0,5.4-0.3,10.8-0.8,16.1c-0.1,1.4-0.3,2.8-0.5,4.2
		C466,386.9,463.2,398.3,459.3,409.1z"/>
</g>
</svg>
