<?xml version="1.0" encoding="utf-8"?>
<!-- Generator: Adobe Illustrator 16.0.4, SVG Export Plug-In . SVG Version: 6.00 Build 0)  -->
<!DOCTYPE svg PUBLIC "-//W3C//DTD SVG 1.1//EN" "http://www.w3.org/Graphics/SVG/1.1/DTD/svg11.dtd">
<svg version="1.1" id="Layer_1" xmlns="http://www.w3.org/2000/svg" xmlns:xlink="http://www.w3.org/1999/xlink" x="0px" y="0px"
	 width="612px" height="612px" viewBox="0 0 612 612" enable-background="new 0 0 612 612" xml:space="preserve">
<rect fill="#EEEEEE" width="612" height="612"/>
<g id="XMLID_1_">
	<g>
		<path fill="#FFFFFF" d="M346.64,478.26l0.051,1.3l0.35,7.78l0.32,7.45c-12.75,3.68-25.971,5.54-39.471,5.54
			c-19.25,0-37.91-3.771-55.459-11.19c-0.84-0.35-1.67-0.72-2.5-1.1l4.75-0.63l1.29-0.17l-0.06-1.3l-0.35-7.79l-0.07-1.53
			l-0.17-3.851c1.92,2.65,4.36,4.9,7.28,6.721c0.08,0.05,0.14,0.08,0.14,0.08c6.09,3.67,13.43,4.97,21.79,3.85l11.28-1.5l7.71-1.03
			l1.29-0.17l-0.06-1.29l-0.15-3.22c6.37,2.34,13.65,3.01,21.709,1.94l39-5.21l0.141,2.81l-9.811,1.31l-7.71,1.03L346.64,478.26z"/>
		<path fill="#FFFFFF" d="M215.32,467.77l0.62,14.79l-32.7,4.36c-7.76,1.04-14.63-0.91-20.41-5.76
			c-5.78-4.86-8.88-11.311-9.19-19.16c0,0-3.42-74.04-3.42-74.05c-0.31-7.8,2.18-14.91,7.39-21.17
			c5.22-6.261,11.77-9.95,19.47-10.98l33-4.399l0.65,14.96l-24.64,3.29c-2.91,0.39-5.27,1.72-7.22,4.08
			c-1.93,2.369-2.8,4.89-2.62,7.729l1.55,32.69l28.61-3.82l0.87,14.93l-28.82,3.851c0.28,6.689,1.42,33.18,1.42,33.21
			c0.08,2.77,1.11,4.97,3.18,6.729c2.07,1.75,4.47,2.431,7.32,2.05L215.32,467.77z"/>
		<path fill="#FFFFFF" d="M293.85,457.12l0.65,14.96l-11.28,1.5c-6.07,0.81-11.23-0.04-15.36-2.521
			c-4.79-2.979-7.38-7.689-7.71-14.02l-2.22-48.03c-0.11-2.29-0.85-4.189-2.21-5.74c-1.66-1.77-3.54-2.489-5.73-2.189l-7.74,1.03
			l3.33,74.96l0.07,1.529l-1.51,0.2l-24.78,3.311l-3.4-76.5l-6.52,0.87l-0.64-14.961l40.25-5.369c9.79-1.311,17.82-0.33,23.88,2.89
			c3.96,2.16,6.89,5.18,8.79,9.04c1.47,3,2.31,6.5,2.52,10.49l2.19,43.819c0.25,4,1.14,4.801,1.31,4.91l0.04,0.03l0.03,0.02
			c0.03,0.021,0.79,0.471,4.23,0.011L293.85,457.12z"/>
		<path fill="#FFFFFF" d="M367.57,461.08l0.069,1.53l-1.52,0.199l-41.11,5.48c-8.979,1.2-16.49-0.18-22.31-4.09
			c-3.12-2.061-5.54-4.72-7.24-7.96c-1.85-3.471-2.86-7.62-3.05-12.4l-2.2-48.12l-4.22,0.57l-1.81,0.24l-0.07-1.82l-0.51-11.66
			l-0.07-1.53l1.51-0.199l28.9-3.86l1.8-0.24l0.09,1.82l3.18,64.5c0.181,2.92,1.021,5.3,2.57,7.25c1.4,1.77,3.11,2.44,5.41,2.14
			l6.74-0.899l-3.351-75.221l-0.07-1.529l1.521-0.2l23.05-3.08l1.8-0.24l0.09,1.82l3.5,74.9l4.9-0.65l1.811-0.24l0.079,1.83
			L367.57,461.08z"/>
		<path fill="#FFFFFF" d="M461.38,331.37l0.07,1.53l-1.521,0.199l-13.02,1.74c-1.44,0.19-2.66,1.12-3.74,2.86
			c-1.17,1.87-1.67,4.03-1.53,6.6l0.73,16.05l12.51-1.67l0.66,14.96l-12.51,1.67c0.529,11.79,4.04,88.12,4.04,88.12
			c0.359,7.38-2.271,14.07-7.82,19.92c-5.51,5.78-12.63,9.301-21.2,10.44l-14.84,1.979l-0.64-14.96l13.16-1.76
			c2.439-0.319,5.64-1.649,5.26-9.46l-4.24-90.77l-19.32,2.569c0.54,11.79,4.04,88.13,4.04,88.13
			c0.17,3.471-0.319,6.801-1.479,9.961c-1.29,3.539-3.4,6.859-6.34,9.949c-5.5,5.78-12.631,9.301-21.2,10.45l-14.83,1.97
			l-0.65-14.96l13.16-1.75c2.44-0.33,5.64-1.659,5.271-9.47l-4.24-90.77l-10.82,1.439l-0.64-14.96l10.8-1.439
			c-0.15-3.79-0.53-13.4-0.53-13.4c-0.359-8.19,2.271-15.22,7.811-20.9c5.06-5.069,11.68-8.18,19.67-9.25l15.95-2.13l1.8-0.229
			l0.08,1.81l0.5,11.62l0.069,1.53l-1.51,0.2l-13.03,1.729c-1.439,0.2-2.659,1.12-3.729,2.86c-1.18,1.87-1.67,4.029-1.54,6.609
			l0.729,16.04l19.33-2.58c-0.149-3.779-0.529-13.399-0.529-13.399c-0.19-4.08,0.38-7.891,1.689-11.391
			c1.3-3.479,3.351-6.659,6.12-9.51c5.05-5.069,11.67-8.18,19.67-9.24l15.94-2.13l1.81-0.239l0.07,1.81L461.38,331.37z"/>
		<path fill="#FFFFFF" d="M440.4,297.57l0.67,14.93l-9.57,1.28c-7.04,0.939-12.92-0.24-17.48-3.521
			c-5.029-3.51-7.779-9.06-8.14-16.51l-0.04-0.75l-2.34-52.42l-25.24,3.36c-6.92,0.92-6.58,3.46-6.46,4.42
			c0.2,1.45,0.99,2.83,2.45,4.2c0,0,19.57,18.49,19.57,18.5c6.25,5.96,9.899,12.57,10.85,19.67c0.1,0.78,0.18,1.55,0.21,2.31
			c0.39,7.31-2.24,13.68-7.85,18.92c-5.3,4.96-12.311,8.06-20.851,9.2l-67.37,8.99c-8.959,1.189-16.439-0.181-22.24-4.07
			c-6.44-4.271-9.89-11.09-10.26-20.29l-2.19-47.95l-6.01,0.8l-0.88-14.93l32.34-4.32l3.26,66.09c0.17,2.92,1.01,5.28,2.56,7.24
			c1.38,1.75,3.1,2.431,5.379,2.12l6.73-0.89l-3.41-76.49l26.28-3.51l1.03,22.03l2.54,54.44l22.369-2.99
			c6.21-0.83,8.631-3.81,7.851-9.66c-0.45-3.38-1.94-6.14-4.54-8.41c0,0-15.79-13.76-15.8-13.77c-5.44-4.8-8.61-10.44-9.45-16.76
			c-0.14-1.01-0.21-2-0.24-2.96c0-0.01,0-0.01,0-0.02c-0.14-6.81,2.48-12.65,7.84-17.39c5.21-4.71,11.95-7.65,20.03-8.73l30.84-4.11
			l-0.979-20.46l26.3-3.5l0.81,20.48l9.931-1.33l0.649,14.96l-9.77,1.31c0.399,8.84,2.38,53.46,2.39,53.46
			c0.17,4.99,2.21,7.17,6.6,7.06L440.4,297.57z"/>
		<path fill="#FFFFFF" d="M273.41,159.78c0.72,2.47,2.45,6.36,1.85,8.77c-0.79,1.97-4.43,3.24-6.11,4.16
			c-3.71,2.04-6.35,5.72-7,8.11c-0.76,2.78-0.93,5.68-0.81,8.61l8.38,142.54c0.38,7.471-2.03,14.17-7.17,19.9
			c-5.11,5.689-12,9.149-20.48,10.28l-27.68,3.689l-0.66-14.95l20.2-2.689c6.8-0.91,9.82-5.04,9.5-13l-5.26-145.36
			c0,0-7.4-5.18-7.88-8.71c-0.34-2.54,2.6-5.62,1.81-8.11c-2.92-0.58-5.86-1.16-8.78-1.74c-0.07-0.14-0.14-0.3-0.2-0.44
			c-0.27-0.8,0.02-2.5,1.03-2.86c2.8-0.32,6.6,2.51,9.26,1.55c0.62-2.52,1.25-5.05,1.87-7.57c-0.11-0.11-0.22-0.23-0.32-0.34
			c-2.75,0.19-6.42-0.48-9.01-1.75c-0.1-1-0.14-3.09,1.22-3.6c3.16-0.43,5.88,1.98,8.97,2.18c0.79-2.66,1.16-5.05,1.94-7.71
			l-1.78-0.42c-0.58,1.85-3.04,1.27-6.14,0.3c-1.77-2.84-0.8-5.98,1.87-7.49c4.72,1.16,5.97,1.37,5.19,3.9
			c0.57,0.14,1.4,0.3,1.97,0.44c0.17-0.13,1.56-5.87,2.19-8.39c-2.52-1.3-5.23,2.23-9.01-1.75c-0.42-1.52-0.06-3.29,1.53-4.66
			c2.78-0.27,5.5,1.26,8.09,3.09c0.16-0.13,0.32-0.27,0.48-0.39c0.66-2.5,1.32-4.98,1.98-7.46c-0.1-0.11-0.2-0.23-0.32-0.34
			c-2.47,0.09-6.44-0.97-8.75-1.95c-0.24-1.09-0.09-2.19,0.72-3.2c3.03,0.62,6.07,1.24,9.1,1.86c1.09-1.68,2.05-5.37,1.96-7.24
			c-0.1-0.11-0.21-0.23-0.32-0.34c-5.05,0.66-11.62,1.9-7.87-5.68c3.92-1.32,5.8,2.47,9.17,2.41c1.21-2.42,1.54-4.58,3.81-7.12
			c6.14-6.89,19.5-4.8,22.51,3.65c1.73,4.87,1.28,10.54-2.7,15.1c-1.84,2.1-7.23,3.72-7.4,5.81c0.94,2.66,1.88,5.31,2.84,7.97
			C269.55,145.8,271.41,152.93,273.41,159.78z"/>
		<path fill="#FFFFFF" d="M233.5,335.56c0.06,1.4-0.06,2.221-0.14,2.65c-0.18,0.06-0.42,0.1-0.76,0.14l-20.19,2.71l-7.71,1.03
			l-1.29,0.17v0.01l-27.65,3.69c-3.55,0.47-6.9,1.37-10.06,2.68c1.01-15.989,4.66-31.51,10.89-46.25
			c3.57-8.44,7.99-16.58,13.14-24.19c5.09-7.55,10.95-14.65,17.41-21.11c6.45-6.45,13.55-12.31,21.1-17.41
			c0.57-0.39,1.16-0.76,1.74-1.15L233.5,335.56z"/>
		<path fill="#010101" d="M420.99,469.59c0.38,7.811-2.82,9.141-5.26,9.46l-13.16,1.76l-2.58-1.329
			c1.16-3.16,1.649-6.49,1.479-9.961c0,0-3.5-76.34-4.04-88.13l19.32-2.569L420.99,469.59z"/>
		<path fill="#010101" d="M417.26,339.06c-1.31,3.5-1.88,7.311-1.689,11.391c0,0,0.38,9.62,0.529,13.399l-19.33,2.58l-0.729-16.04
			c-0.13-2.58,0.36-4.739,1.54-6.609c1.07-1.74,2.29-2.66,3.729-2.86l13.03-1.729l1.51-0.2L417.26,339.06z"/>
		<path fill="#010101" d="M423.38,329.55c-2.77,2.851-4.82,6.03-6.12,9.51l-1.41-0.069l-0.069-1.53l-0.5-11.62l-0.08-1.81
			l-1.8,0.229l-15.95,2.13c-7.99,1.07-14.61,4.181-19.67,9.25c-5.54,5.681-8.17,12.71-7.811,20.9c0,0,0.38,9.61,0.53,13.4
			l-10.8,1.439l0.64,14.96l10.82-1.439l4.24,90.77c0.369,7.811-2.83,9.14-5.271,9.47l-13.16,1.75l0.65,14.96l14.83-1.97
			c8.569-1.149,15.7-4.67,21.2-10.45c2.939-3.09,5.05-6.41,6.34-9.949l2.58,1.329l0.64,14.96l14.84-1.979
			c8.57-1.14,15.69-4.66,21.2-10.44c5.55-5.85,8.18-12.54,7.82-19.92c0,0-3.511-76.33-4.04-88.12l12.51-1.67l-0.66-14.96
			l-12.51,1.67l-0.73-16.05c-0.14-2.569,0.36-4.729,1.53-6.6c1.08-1.74,2.3-2.67,3.74-2.86l13.02-1.74l1.521-0.199l-0.07-1.53
			l-0.51-11.62l-0.07-1.81l-1.81,0.239l-15.94,2.13C435.05,321.37,428.43,324.48,423.38,329.55z M470.75,319.18l0.03,0.03
			l-0.03-0.01h-0.01c0,0.05,0.55,11.75,0.55,11.75l0.06,1.52l0.341,7.78l0.06,1.3l-1.29,0.181l-1.31,0.17
			c0.51,5.25,0.779,10.569,0.779,15.949c0,24.08-5.26,46.94-14.68,67.48l0.42,9.18l1.311,28.471c0.079,1.859,0.06,2.979-0.15,5.449
			c-0.2,2.391-0.561,3.65-0.62,3.87c-1.45,6.561-4.729,12.601-9.78,17.91c-7.1,7.46-16.21,11.99-27.08,13.44l-14.84,1.97
			l-9.229,1.24l-1.53,0.199l-0.07-1.56l-0.13-3.07c-5.74,3.86-12.37,6.311-19.8,7.301l-14.83,1.979l-0.13,0.01
			c-16.01,5.3-33.12,8.17-50.9,8.17c-33.47,0-64.56-10.14-90.37-27.52l-0.28,0.04l-5.79,0.77l-26.91,3.59
			c-10.49,1.4-20.21-1.359-28.11-8c-7.9-6.649-12.31-15.75-12.72-26.3c0,0-3.41-73.85-3.42-73.89c0,0,0-0.23,0-0.24
			c-0.32-8.09,1.62-15.59,5.75-22.41c-0.13-2.68-0.2-5.37-0.2-8.08c0-60.93,33.63-113.99,83.33-141.669l-0.77-21.39
			c-4.72-4.1-6.91-7.99-7.87-12.01c-0.29-1.21,0.09-2.98,0.08-3.53c0,0-5.45-1.03-6.91-5.25c-1.4-4.16-0.4-8.97,2.46-12.21
			l-0.09-0.86c-0.47-4.45,0.71-8.34,3.31-11.08c-0.22-1.7-0.38-4.86-0.04-6.85l0.01-0.05l0.02-0.06c0.66-2.62,2.15-4.35,3.02-5.18
			c-0.42-3.81,0.71-7.6,3.18-10.63c-0.66-3.78,0.22-7.46,2.52-10.52c-0.37-2.99-0.09-9.01,3.91-12.86c2.75-2.66,8.3-2.3,11.72-1.33
			c4.89-10.19,14.66-11.29,23.09-9.64c8.12,1.59,14.47,6.79,17,13.92c3.12,8.76,1.41,18.09-4.59,24.95c-0.83,0.96-1.84,1.83-3.1,2.7
			c0.21,0.57,0.41,1.15,0.42,1.18l0.02,0.06c0,0,0.02,0.03,0.03,0.09l0.02,0.03c1.72,5.11,3.16,10.23,4.56,15.17l1.76,6.13
			l0.01,0.04c0.1,0.34,0.27,0.84,0.46,1.42c1.13,3.31,2.66,7.85,1.48,12.56l-0.14,0.54l-0.03,0.09l-0.02,0.09l-0.21,0.51
			c-2.06,5.19-6.88,7.47-9.76,8.82c-0.2,0.11-0.7,0.34-0.81,0.4c-1.18,0.64-2.02,1.82-2.24,2.22c-0.36,1.41-0.5,3.16-0.42,5.34
			l0.64,10.83c11.58-2.63,23.63-4.02,36-4.02c29.5,0,57.16,7.89,80.99,21.67l3.601-0.48l-0.551-11.34l-0.38-7.81l-0.06-1.31
			l1.3-0.17l7.75-1.04l26.29-3.51l9.26-1.23l1.55-0.21l0.061,1.56l0.37,9.34l0.38,9.58l8.359-1.11l1.54-0.21l0.061,1.55l0.399,9.31
			l0.65,14.96l0.33,7.77l0.06,1.3l-1.279,0.17l-7.721,1.03l-0.76,0.1l0.88,19.67c8.971,12.88,16.11,27.13,21.061,42.37l6.66-0.89
			l1.54-0.2l0.069,1.54c0,0,0.45,10.44,0.44,10.96L470.75,319.18z M360.27,448.48l-3.5-74.9l-0.09-1.82l-1.8,0.24l-23.05,3.08
			l-1.521,0.2l0.07,1.529l3.351,75.221l-6.74,0.899c-2.3,0.301-4.01-0.37-5.41-2.14c-1.55-1.95-2.39-4.33-2.57-7.25l-3.18-64.5
			l-0.09-1.82l-1.8,0.24l-28.9,3.86l-1.51,0.199l0.07,1.53l0.51,11.66l0.07,1.82l-2.46,1.55c-1.9-3.86-4.83-6.88-8.79-9.04
			c-6.06-3.22-14.09-4.2-23.88-2.89l-40.25,5.369l0.64,14.961l6.52-0.87l3.4,76.5l24.78-3.311l1.51-0.2l-0.07-1.529l-3.33-74.96
			l7.74-1.03c2.19-0.3,4.07,0.42,5.73,2.189c1.36,1.551,2.1,3.45,2.21,5.74l2.22,48.03c0.33,6.33,2.92,11.04,7.71,14.02
			c4.13,2.48,9.29,3.33,15.36,2.521l11.28-1.5l-0.65-14.96l1.61-0.88c1.7,3.24,4.12,5.899,7.24,7.96
			c5.819,3.91,13.33,5.29,22.31,4.09l41.11-5.48l1.52-0.199l-0.069-1.53l-0.511-11.66l-0.079-1.83l-1.811,0.24L360.27,448.48z
			 M269.72,331.97l-8.38-142.54c-0.12-2.93,0.05-5.83,0.81-8.61c0.65-2.39,3.29-6.07,7-8.11c1.68-0.92,5.32-2.19,6.11-4.16
			c0.6-2.41-1.13-6.3-1.85-8.77c-2-6.85-3.86-13.98-6.21-20.94c-0.96-2.66-1.9-5.31-2.84-7.97c0.17-2.09,5.56-3.71,7.4-5.81
			c3.98-4.56,4.43-10.23,2.7-15.1c-3.01-8.45-16.37-10.54-22.51-3.65c-2.27,2.54-2.6,4.7-3.81,7.12c-3.37,0.06-5.25-3.73-9.17-2.41
			c-3.75,7.58,2.82,6.34,7.87,5.68c0.11,0.11,0.22,0.23,0.32,0.34c0.09,1.87-0.87,5.56-1.96,7.24c-3.03-0.62-6.07-1.24-9.1-1.86
			c-0.81,1.01-0.96,2.11-0.72,3.2c2.31,0.98,6.28,2.04,8.75,1.95c0.12,0.11,0.22,0.23,0.32,0.34c-0.66,2.48-1.32,4.96-1.98,7.46
			c-0.16,0.12-0.32,0.26-0.48,0.39c-2.59-1.83-5.31-3.36-8.09-3.09c-1.59,1.37-1.95,3.14-1.53,4.66c3.78,3.98,6.49,0.45,9.01,1.75
			c-0.63,2.52-2.02,8.26-2.19,8.39c-0.57-0.14-1.4-0.3-1.97-0.44c0.78-2.53-0.47-2.74-5.19-3.9c-2.67,1.51-3.64,4.65-1.87,7.49
			c3.1,0.97,5.56,1.55,6.14-0.3l1.78,0.42c-0.78,2.66-1.15,5.05-1.94,7.71c-3.09-0.2-5.81-2.61-8.97-2.18
			c-1.36,0.51-1.32,2.6-1.22,3.6c2.59,1.27,6.26,1.94,9.01,1.75c0.1,0.11,0.21,0.23,0.32,0.34c-0.62,2.52-1.25,5.05-1.87,7.57
			c-2.66,0.96-6.46-1.87-9.26-1.55c-1.01,0.36-1.3,2.06-1.03,2.86c0.06,0.14,0.13,0.3,0.2,0.44c2.92,0.58,5.86,1.16,8.78,1.74
			c0.79,2.49-2.15,5.57-1.81,8.11c0.48,3.53,7.88,8.71,7.88,8.71l5.26,145.36c0.32,7.96-2.7,12.09-9.5,13l-20.2,2.689l0.66,14.95
			l27.68-3.689c8.48-1.131,15.37-4.591,20.48-10.28C267.69,346.14,270.1,339.44,269.72,331.97z M268.11,258.64l6.01-0.8l2.19,47.95
			c0.37,9.2,3.82,16.02,10.26,20.29c5.8,3.89,13.28,5.26,22.24,4.07l67.37-8.99c8.54-1.141,15.551-4.24,20.851-9.2
			c5.609-5.24,8.239-11.61,7.85-18.92l0.96-0.04l0.04,0.75c0.36,7.45,3.11,13,8.14,16.51c4.561,3.28,10.44,4.46,17.48,3.521
			l9.57-1.28l-0.67-14.93l-1.631,0.03c-4.39,0.11-6.43-2.07-6.6-7.06c-0.01,0-1.99-44.62-2.39-53.46l9.77-1.31l-0.649-14.96
			l-9.931,1.33l-0.81-20.48l-26.3,3.5l0.979,20.46L372,229.73c-8.08,1.08-14.82,4.02-20.03,8.73c-5.359,4.74-7.979,10.58-7.84,17.39
			c0,0.01,0,0.01,0,0.02l-2.729,0.11l-1.03-22.03l-26.28,3.51l3.41,76.49l-6.73,0.89c-2.279,0.311-4-0.37-5.379-2.12
			c-1.55-1.96-2.39-4.319-2.56-7.24l-3.26-66.09l-32.34,4.32L268.11,258.64z M365.45,475.75l-0.141-2.81l-39,5.21
			c-8.06,1.069-15.34,0.399-21.709-1.94l0.15,3.22l0.06,1.29l-1.29,0.17l-7.71,1.03l-11.28,1.5c-8.36,1.12-15.7-0.18-21.79-3.85
			c0,0-0.06-0.03-0.14-0.08c-2.92-1.82-5.36-4.07-7.28-6.721l0.17,3.851l0.07,1.53l0.35,7.79l0.06,1.3l-1.29,0.17l-4.75,0.63
			c0.83,0.38,1.66,0.75,2.5,1.1c17.55,7.42,36.21,11.19,55.459,11.19c13.5,0,26.721-1.86,39.471-5.54l-0.32-7.45l-0.35-7.78
			l-0.051-1.3l1.29-0.17l7.71-1.03L365.45,475.75z M350,227.44c2.02-1.37,4.19-2.56,6.47-3.59c-15.52-5.64-31.83-8.49-48.58-8.49
			c-11.88,0-23.53,1.44-34.83,4.28l0.78,13.17l24.41-3.26l6.8-0.91l2.37-0.31l5.35-0.72l26.28-3.5l9.19-1.23l1.529-0.2l0.07,1.54
			L350,227.44z M233.36,338.21c0.08-0.43,0.2-1.25,0.14-2.65l-3.52-97.03c-0.58,0.39-1.17,0.76-1.74,1.15
			c-7.55,5.1-14.65,10.96-21.1,17.41c-6.46,6.46-12.32,13.56-17.41,21.11c-5.15,7.61-9.57,15.75-13.14,24.19
			c-6.23,14.74-9.88,30.26-10.89,46.25c3.16-1.31,6.51-2.21,10.06-2.68l27.65-3.69v-0.01l1.29-0.17l7.71-1.03l20.19-2.71
			C232.94,338.31,233.18,338.27,233.36,338.21z M215.94,482.56l-0.62-14.79l-24.94,3.33c-2.85,0.381-5.25-0.3-7.32-2.05
			c-2.07-1.76-3.1-3.96-3.18-6.729c0-0.03-1.14-26.521-1.42-33.21l28.82-3.851l-0.87-14.93l-28.61,3.82l-1.55-32.69
			c-0.18-2.84,0.69-5.36,2.62-7.729c1.95-2.36,4.31-3.69,7.22-4.08l24.64-3.29l-0.65-14.96l-33,4.399
			c-7.7,1.03-14.25,4.72-19.47,10.98c-5.21,6.26-7.7,13.37-7.39,21.17c0,0.01,3.42,74.05,3.42,74.05c0.31,7.85,3.41,14.3,9.19,19.16
			c5.78,4.85,12.65,6.8,20.41,5.76L215.94,482.56z"/>
		<path fill="#010101" d="M403.5,240.58l2.34,52.42l-0.96,0.04c-0.03-0.76-0.11-1.53-0.21-2.31c-0.95-7.1-4.6-13.71-10.85-19.67
			c0-0.01-19.57-18.5-19.57-18.5c-1.46-1.37-2.25-2.75-2.45-4.2c-0.12-0.96-0.46-3.5,6.46-4.42L403.5,240.58z"/>
		<path fill="#010101" d="M344.37,258.83c0.84,6.32,4.01,11.96,9.45,16.76c0.01,0.01,15.8,13.77,15.8,13.77
			c2.6,2.27,4.09,5.03,4.54,8.41c0.78,5.85-1.641,8.83-7.851,9.66l-22.369,2.99l-2.54-54.44l2.729-0.11
			C344.16,256.83,344.23,257.82,344.37,258.83z"/>
		<path fill="#010101" d="M293.85,457.12l-1.81,0.24c-3.44,0.46-4.2,0.01-4.23-0.011l-0.03-0.02l-0.04-0.03
			c-0.17-0.109-1.06-0.91-1.31-4.91l-2.19-43.819c-0.21-3.99-1.05-7.49-2.52-10.49l2.46-1.55l1.81-0.24l4.22-0.57l2.2,48.12
			c0.19,4.78,1.2,8.93,3.05,12.4L293.85,457.12z"/>
	</g>
	<g>
	</g>
</g>
</svg>
