<?xml version="1.0" encoding="utf-8"?>
<!-- Generator: Adobe Illustrator 16.0.4, SVG Export Plug-In . SVG Version: 6.00 Build 0)  -->
<!DOCTYPE svg PUBLIC "-//W3C//DTD SVG 1.1//EN" "http://www.w3.org/Graphics/SVG/1.1/DTD/svg11.dtd">
<svg version="1.1" id="Layer_1" xmlns="http://www.w3.org/2000/svg" xmlns:xlink="http://www.w3.org/1999/xlink" x="0px" y="0px"
	 width="637.027px" height="240.137px" viewBox="4.863 58.436 637.027 240.137"
	 enable-background="new 4.863 58.436 637.027 240.137" xml:space="preserve">
<g>
	<path fill="#282F65" d="M4.863,253.782l3.731-58.159c0.088-0.833,0.088-1.77,0.088-2.707c0-2.598-0.171-5.405-0.434-7.385h13.898
		l16.153,54.409l18.151-54.409h12.86l3.381,68.251H60.451l-2.348-46.815l-15.633,46.815h-9.815l-14.069-47.131l-2.869,47.131H4.863z
		"/>
	<path fill="#282F65" d="M96.513,196.932c2.693-1.318,9.124-4.074,12.51-4.074l19.019,56.78c0.521,1.585,1.042,2.724,1.042,4.144
		H116.14l-5.208-15.786l-19.719,0.622l-4.949,13.744c-0.347,1.061-0.955,1.42-2.349,1.42h-8.16L96.513,196.932z M94.077,230.602
		l14.249-0.447l-6.776-20.438L94.077,230.602z"/>
	<path fill="#282F65" d="M132.313,250.041c0-4.091,1.038-9.558,2.085-11.195h0.351c3.04,4.073,9.466,6.412,15.891,6.412
		c6.168,0,8.861-2.339,8.861-7.813c0-4.074-2.957-6.159-6.776-7.464l-7.122-2.348c-7.122-2.786-11.9-6.781-11.9-16.338
		c0-9.461,8.515-16.233,20.323-16.233c7.473,0,14.249,1.647,16.68,3.04c0,4.424-1.389,7.814-2.781,9.812h-0.263
		c-1.734-1.306-6.338-4.336-13.285-4.336c-5.037,0-8.427,1.997-8.427,6.079c0,3.732,1.301,5.904,5.041,7.464l7.814,2.698
		c6.43,2.173,13.201,6.071,13.201,15.979c0,11.555-9.119,17.985-21.712,17.985C142.821,253.782,136.396,252.388,132.313,250.041z"/>
	<path fill="#282F65" d="M175.224,224.934c0-19.711,13.289-29.873,30.919-29.873c16.505,0,28.835,10.075,28.835,28.147
		c0,20.411-13.807,30.573-30.92,30.573C187.991,253.782,175.224,243.62,175.224,224.934z M221.688,224.592
		c0-15.55-7.38-20.674-16.587-20.674c-9.812,0-16.588,6.771-16.588,19.632c0,15.549,7.468,21.365,16.588,21.365
		C214.57,244.916,221.688,237.444,221.688,224.592z"/>
	<path fill="#282F65" d="M243.418,253.782v-41.979c0-2.769,0-11.187-0.697-16.736h12.243l23.46,36.333l1.992,4.485v-40.818h12.243
		v58.716h-11.551l-24.056-37.406l-1.389-2.777v40.184H243.418z"/>
	<path fill="#282F65" d="M301.108,250.041c0-4.091,1.033-9.558,2.076-11.195h0.351c3.039,4.073,9.465,6.412,15.896,6.412
		c6.162,0,8.864-2.339,8.864-7.813c0-4.074-2.961-6.159-6.784-7.464l-7.118-2.348c-7.126-2.786-11.9-6.781-11.9-16.338
		c0-9.461,8.515-16.233,20.328-16.233c7.468,0,14.244,1.647,16.671,3.04c0,4.424-1.394,7.814-2.777,9.812h-0.259
		c-1.743-1.306-6.347-4.336-13.293-4.336c-5.033,0-8.419,1.997-8.419,6.079c0,3.732,1.301,5.904,5.033,7.464l7.818,2.698
		c6.43,2.173,13.206,6.071,13.206,15.979c0,11.555-9.128,17.985-21.721,17.985C311.611,253.782,305.182,252.388,301.108,250.041z"/>
	<path fill="#282F65" d="M366.346,253.782v-48.716c0-4.875,0-12.982-0.701-19.422h12.947v68.138H366.346z"/>
	<path fill="#282F65" d="M385.193,250.084c0-4.073,1.042-9.54,2.085-11.178h0.342c3.044,4.064,9.479,6.403,15.896,6.403
		c6.176,0,8.865-2.339,8.865-7.797c0-4.064-2.952-6.149-6.776-7.445l-7.118-2.34c-7.126-2.768-11.909-6.754-11.909-16.276
		c0-9.448,8.52-16.206,20.328-16.206c7.473,0,14.249,1.646,16.68,3.035c0,4.415-1.389,7.792-2.781,9.79h-0.263
		c-1.73-1.306-6.334-4.328-13.285-4.328c-5.042,0-8.428,1.979-8.428,6.062c0,3.723,1.301,5.878,5.037,7.446l7.818,2.681
		c6.426,2.163,13.202,6.062,13.202,15.935c0,11.52-9.119,17.932-21.712,17.932C395.705,253.798,389.279,252.415,385.193,250.084z"/>
	<path fill="#282F65" d="M432.209,253.782v-42.067c0-4.205,0-11.204-0.696-16.767h12.948v50.038h12.851
		c4.087,0,7.819-0.351,9.903-1.34v0.367c0,4.205-1.393,7.964-4.428,9.769H432.209z"/>
	<path fill="#282F65" d="M490.574,196.832c2.686-1.323,9.006-3.895,12.392-3.895l19.124,56.692c0.529,1.594,1.047,2.732,1.047,4.152
		h-12.939l-5.217-15.812l-19.71,0.622l-4.954,13.771c-0.351,1.061-0.951,1.42-2.353,1.42h-8.16L490.574,196.832z M488.131,230.567
		l14.248-0.447l-6.776-20.481L488.131,230.567z"/>
	<path fill="#282F65" d="M528.883,253.782v-41.874c0-2.777,0-11.161-0.688-16.706h12.233l23.46,36.25l2.002,4.477v-40.727h12.247
		v58.58h-11.563l-24.056-37.328l-1.389-2.75v40.078H528.883z"/>
	<path fill="#282F65" d="M590.647,252.739h-0.347v-40.683c0-4.082,0-10.845-0.7-16.224h0.7c1.647-0.167,11.195-0.692,19.369-0.692
		c19.285,0,32.221,9.111,32.221,27.753c0,19.333-12.234,30.889-32.922,30.889C601.939,253.782,594.462,253.334,590.647,252.739z
		 M602.553,203.734v41.112c1.988,0.429,4.604,0.771,6.775,0.771c12.852,0,19.711-8.497,19.711-21.682
		c0-14.568-7.118-20.644-20.07-20.644C607.326,203.292,604.812,203.462,602.553,203.734z"/>
	<path fill="#404041" d="M387.62,298.573v-12.72l-8.248-15.182c-0.412-0.814-0.867-1.595-0.867-2.05h4.739l7.113,13.403
		l7.061-12.624c0.271-0.412,0.548-0.779,1.095-0.779h3.285l-9.618,16.688v13.264H387.62z"/>
	<path fill="#404041" d="M410.467,269.533c1.139-0.588,3.464-0.851,5.103-0.851l9.075,27.771c0.271,0.858,0.5,1.401,0.5,2.12h-4.652
		l-3.145-9.847l-10.39,0.402l-3.009,8.726c-0.18,0.534-0.548,0.719-1.231,0.719h-3.009L410.467,269.533z M408.005,286.167
		l8.432-0.411l-3.916-12.448L408.005,286.167z"/>
	<path fill="#404041" d="M427.159,283.435c0-8.9,6.75-14.937,15.681-14.937c3.784,0,6.886,0.92,8.388,1.979
		c0,1.279-0.683,2.996-1.322,3.479h-0.18c-1.003-0.754-3.513-2.418-7.293-2.418c-6.29,0-10.351,4.625-10.351,11.546
		c0,8.243,4.332,12.08,9.759,12.08c4.144,0,7.245-1.9,8.932-3.539h0.275c0,1.288-0.319,3.312-0.731,4.327
		c-1.686,1.148-4.875,2.375-8.703,2.375C433.405,298.328,427.159,293.386,427.159,283.435z"/>
	<path fill="#404041" d="M456.164,298.573v-21.428c0-2.138,0-5.738-0.363-8.523h4.923v12.859l14.45-0.596v-3.74
		c0-2.138,0-5.738-0.368-8.523h4.924v29.951h-4.556v-14.455l-14.45,0.552v13.903H456.164z"/>
	<path fill="#404041" d="M493.785,298.573v-26.351l-9.479,0.184v-3.373l23.608-0.596v3.469l-9.662,0.229v26.438H493.785z"/>
	<path fill="#404041" d="M519.737,283.505c0-8.971,6.745-15.068,15.681-15.068c3.784,0,6.881,0.938,8.388,1.998
		c0,1.296-0.683,3.03-1.322,3.513h-0.185c-1.003-0.763-3.508-2.444-7.293-2.444c-6.289,0-10.346,4.669-10.346,11.643
		c0,8.313,4.332,12.186,9.755,12.186c4.148,0,7.249-1.919,8.936-3.565h0.271c0,1.296-0.319,3.346-0.728,4.362
		c-1.686,1.156-4.879,2.4-8.707,2.4C525.983,298.529,519.737,293.544,519.737,283.505z"/>
	<path fill="#404041" d="M548.742,298.573v-21.48c0-2.146,0-5.755-0.363-8.541h4.923v26.728h6.926c2.189,0,4.06-0.185,5.106-0.596
		l0.093,0.096c0,1.639-0.684,3.11-1.871,3.794H548.742z"/>
	<path fill="#404041" d="M569.22,288.13v-11.336c0-1.664,0-5.686-0.364-8.445h4.92v18.923c0,5.159,1.826,7.954,6.793,7.954
		c4.831,0,7.337-2.523,7.337-8.305v-10.127c0-1.664,0-5.738-0.315-8.445h4.008v19.431c0,6.316-3.964,10.793-11.029,10.793
		C573.639,298.573,569.22,295.454,569.22,288.13z"/>
	<path fill="#404041" d="M598.812,297.872v-20.7c0-2.067,0-5.545-0.363-8.234c1.638-0.176,6.198-0.342,8.795-0.342
		c5.971,0,9.575,2.242,9.575,6.509c0,4.669-3.465,6.736-5.063,7.218c4.196,0.842,6.794,3.479,6.794,7.053
		c0,6.026-5.243,9.022-11.533,9.022C604.694,298.397,600.135,298.046,598.812,297.872z M603.371,271.713v9.82
		c1.091,0.132,2.37,0.132,3.146,0.132c2.961,0,5.742-2.067,5.742-5.414c0-3.171-1.73-4.845-5.65-4.845
		C605.557,271.407,604.374,271.495,603.371,271.713z M603.371,284.398v10.696c1.139,0.22,2.55,0.359,4.057,0.359
		c3.464,0,6.425-1.463,6.425-5.816c0-3.171-2.641-5.37-6.701-5.37C606.196,284.267,604.738,284.267,603.371,284.398z"/>
	<path fill="#282F65" d="M298.217,199.012c-0.236,0-0.477-0.254-0.477-0.499c1.195-0.745,2.573-2.922,2.573-4.6
		c0-3.67-2.573-2.172-2.573-4.599c0-1.928,1.315-3.671,3.53-3.671c2.632,0,3.769,1.743,3.769,5.099c0,3.548-1.914,6.343-3.291,7.525
		C300.791,198.758,299.297,199.012,298.217,199.012z"/>
	<linearGradient id="SVGID_1_" gradientUnits="userSpaceOnUse" x1="182.7725" y1="96.8853" x2="223.9644" y2="76.5144">
		<stop  offset="0" style="stop-color:#D7B350"/>
		<stop  offset="0.0686" style="stop-color:#DDB952"/>
		<stop  offset="0.3107" style="stop-color:#ECC757"/>
		<stop  offset="0.5917" style="stop-color:#F5CF5A"/>
		<stop  offset="1" style="stop-color:#F8D25B"/>
	</linearGradient>
	<path fill="url(#SVGID_1_)" d="M157.446,72.417c0,0,24.365,4.03,85.274-0.033c0,0-40.445,39.892-57.011,60.04
		C181.997,116.246,165.278,123.604,157.446,72.417z"/>
	<linearGradient id="SVGID_2_" gradientUnits="userSpaceOnUse" x1="188.085" y1="128.6982" x2="185.4587" y2="120.5287">
		<stop  offset="0.2595" style="stop-color:#EDC558"/>
		<stop  offset="0.5734" style="stop-color:#A98D3A"/>
		<stop  offset="0.8617" style="stop-color:#705F21"/>
		<stop  offset="1" style="stop-color:#5A4D17"/>
	</linearGradient>
	<path fill="url(#SVGID_2_)" d="M184.697,109.328c0,0,8.191,7.083,9.184,12.227c-4.415,4.917-6.393,6.051-8.171,10.869
		c-0.562,1.52-5.331-10.663-9.979-17.822C170.723,106.881,184.697,109.328,184.697,109.328z"/>
	<path fill="#F8D15A" d="M127.382,166.114c-6.399-13.099-34.01-73.343-41.132-82.355c13.259-13.828,54.763-27.893,74.396-24.923
		c8.929,1.355,33.532,55.301,33.229,62.719C171.253,124.982,142.769,154.688,127.382,166.114z"/>
	<path fill="#292C6A" d="M106.328,70.579c0,0-6.412,17.316-10.229,30.711c0,0,2.731,5.789,4.172,8.149l24.327-0.479
		c0,0-10.764,24.55-11.853,26.268c1.612,3.34,4.282,9.029,4.282,9.029l29.888,5.723c0,0,18.523-14.824,28.309-21.114
		c-13.973-4.231-30.236-4.729-30.236-4.729s21.528-31.731,21.967-35.426c-7.825-3.476-41.215-1.912-41.215-1.912
		s4.524-13.462,10.836-26.112C115.619,64.177,106.328,70.579,106.328,70.579z"/>
	<path fill="#282D69" d="M242.721,72.384l-23.133,1.25c0,0-35.501,10.865-35.721,12.111c4.348,0.955,11.214,3.364,11.214,3.364
		s-2.062,6.802-3.458,11.68c13.18-7.028,40.128-17.446,40.128-17.446L242.721,72.384z"/>
</g>
</svg>
