<?xml version="1.0" encoding="utf-8"?>
<!-- Generator: Adobe Illustrator 21.1.0, SVG Export Plug-In . SVG Version: 6.00 Build 0)  -->
<svg version="1.1" id="Layer_1" xmlns="http://www.w3.org/2000/svg" xmlns:xlink="http://www.w3.org/1999/xlink" x="0px" y="0px"
	 viewBox="0 0 612 612" style="enable-background:new 0 0 612 612;" xml:space="preserve">
<style type="text/css">
	.st0{fill:#FFFFFF;}
	.st1{fill:#010101;}
	.st2{enable-background:new    ;}
	.st3{fill:#D6525C;}
</style>
<rect class="st0" width="612" height="612"/>
<g>
	<g>
		<g>
			<g>
				<g>
					<path class="st1" d="M118.4,362.8c-6.6,1.3-11.8-0.3-13.7-3.8c-0.5-0.9-0.1-1.4,1-1.5c11.6-1.2,23.2-6.7,34.8-8.3
						c4.7-0.6,9.3,0,11.4,3.8c0.4,0.8,0.3,1.7-1.2,1.7c-5.5,0.3-17.9,2.5-18.9,4.2c-0.4,0.7,0.2,6-2.1,11.4
						c-6.5,15.8-13.1,31.9-17.2,48.2c-0.3,1.1-0.8,1.2-1.7,0.6c-1.7-1.1-3.6-4-3-9.1c2.1-16.6,17.2-49.1,17.2-49.1
						C125,360.9,120.4,362.4,118.4,362.8z"/>
				</g>
				<g>
					<path class="st1" d="M165.5,412.2c-9,1.1-12.2-5.1-10-14.2c1.9-8,8.7-23.1,8.7-23.1c-0.7-0.6-14.3,11.2-17.8,18.5
						c-3.2,6.7-5.7,14-7.7,21c-0.3,1-1,1.3-1.8,0.7c-2-1.6-3.5-4.5-2.1-10.8c4.8-20.8,16.4-43.7,28.3-61.8c0.9-1.3,2-1.4,2.7-0.2
						c1.8,2.8,2.1,8.1-1.4,15c-3.5,7-11,21-11,21c0,0,9.4-8.8,12.4-8.9c3.8,0,7.8,4.8,5.6,10.3c-1.9,4.8-6.3,13-8.1,18.7
						c-2,6.3-0.8,11.1,3.1,10.4c4.4-0.8,9.6-8.9,12.1-15.8c0.3-1,1.4-1.1,2-0.3c0.7,1,0.9,3.3-0.4,6.5
						C177.7,405.5,171.8,411.5,165.5,412.2z"/>
				</g>
				<g>
					<path class="st1" d="M193.4,406.1c9.1-0.7,16-8.9,20.3-16.6c0.5-0.9,1.3-0.9,1.9,0c0.5,0.8,0.4,3.8-1.3,6.6
						c-4.4,7.1-11.9,11.9-20.2,13.1c-14.7,2.1-18.7-13.9-14.2-24.9c3.2-7.8,12.9-21.6,22.5-18.1c2.8,1,5,2.7,7,4.8
						c2.2,2.3,1.5,8.8-2.4,14.4c-4.5,6.6-19.4,4.6-20.1,4.9C185.1,391,187.8,406.5,193.4,406.1z M200.2,381.5
						c3.1-4.7,4.7-11,3.5-11.3c-4.9-0.9-12.5,9-15.3,15.8c-0.3,0.7-0.8,1.7-0.7,1.9C188.5,389.9,197.3,385.7,200.2,381.5z"/>
				</g>
				<g>
					<path class="st1" d="M237.9,405.2c-0.4,1-1,1.1-1.8,0.3c-1.6-1.5-3.1-5.1-0.9-11.3c6.8-19.1,19.7-38,31.7-54.4
						c1-1.4,2.1-1.8,3.6-0.7c4.5,3.3,5.9,7,3.1,15.3c-4,12.2-10.6,37-10.6,37c0.3,0.1,27-34.9,39.7-52.5c1-1.4,2-1.6,3.3-0.3
						c4.6,4.2,3.4,10,0.3,15.2c-9.2,15.8-17.6,32.8-23.8,49.7c-0.4,1-0.8,1-1.7,0.3c-1.7-1.3-3.2-4.6-1.4-11.3
						c3.1-11.8,15.4-33.9,15.4-33.9c-0.1-0.1-24.1,28.6-32.2,44.9c-0.5,1-1,1.4-1.9,0.8c-3.6-2.4-5.5-6-4.6-12.4
						c1.5-11.6,8.2-34.4,8.2-34.4C264.2,357.4,244.1,388.5,237.9,405.2z"/>
				</g>
				<g>
					<path class="st1" d="M401,396.9c-3.5,5.4-11,10.1-16.9,9.7c-8.7-0.5-11.8-9.2-7.7-16.1c4-6.8,14.2-18.2,13.5-19.9
						c-0.1-0.3-5.4,0.6-12.4,6.9c-8.4,7.5-15.2,16.6-20.4,27c-0.6,1.2-1.6,1.5-2.5,0.5c-1.6-1.7-2.9-6,0.5-13
						c3.7-7.7,15.5-20.6,14.4-23c-0.2-0.4-6.9,2-14.2,9c-7.3,7-12.4,16.6-16.9,25.3c-0.4,0.8-1,1.1-2.1,0.3
						c-2.2-1.8-2.6-5.4-0.8-10.5c1.2-3.4,7.4-14.3,7.4-14.3c-0.1-0.1-9.3,1.6-10.3,2.3c-2.8,1.9-8.5,18.8-17.5,22
						c-3.7,1.3-9.8,1-13.7-4.5c-5.5-7.6-1.9-16.1,1.8-23.4c3.3-6.4,10.2-12.7,17.8-13.4c3.3-0.3,5.1,0.8,7.4,3.7
						c2.6,3.3,5.6,4.2,5.1,11.5c0,0.5-0.3,1.6-0.3,1.7c0.7,1,15.7-8.8,20.5-15.5c0.7-1,1.8-1,2.5,0.1c1.6,2.8-0.7,10.8-0.7,10.8
						c0.1,0.1,13.7-10.7,17.7-10.3c3.8,0.3,3.7,10.4,3.7,10.4c0.2,0.2,13.3-8.7,16.9-8.3c4,0.4,4.4,6.6,1.8,11.4
						c-2.4,4.5-8.2,11-11.2,15.8c-3.4,5.7-2.4,10.7,1.6,10.7c4.3,0.1,9.7-6.4,14.4-13.3c0.6-0.9,1.4-0.6,1.9,0.2
						C402.8,391.2,402.6,394.5,401,396.9z M318.5,369.2c-0.4-0.2-6.1,5.9-8.6,9.8c-4.8,7.8-6.2,17.2-3.4,19.6
						c2.9,2.5,9.5-1.3,15-10.6c1.9-3.2,4.4-8,4.1-8.9C324.9,377.8,318.5,369.2,318.5,369.2z M327.3,369.4c-0.5-3.3-2.8-2.8-3.3,0.3
						c-0.4,2.2,2.5,7,2.5,7C326.9,376.5,327.6,371.2,327.3,369.4z"/>
				</g>
				<g>
					<path class="st1" d="M435.9,368.4c3.8,0.5,3.2,10.6,3.2,10.6c0.2,0.2,13.9-8.2,17.6-7.6c4,0.6,4,6.8,1.2,11.7
						c-2.6,4.4-8.8,10.5-12.2,15.3c-3.8,5.5-2.8,10.4,1.1,10.8c4.4,0.4,10.1-5.7,15.4-12.3c0.7-0.9,1.5-0.7,2,0.1
						c0.4,0.8-0.4,4.2-1.9,6.4c-3.8,5.4-11.5,9.5-17.6,8.9c-8.8-0.8-11.6-9.8-7-16.6c4.4-6.5,15.3-17.4,14.7-19.2
						c-0.1-0.3-5.3,0.2-12.7,6.1c-8.9,7.1-15.9,16.3-21.9,26.2c-0.7,1.2-1.6,1.3-2.5,0.3c-1.5-1.7-2.9-6.1,1-13.1
						c4.2-7.4,16.8-19.7,15.7-22.2c-0.2-0.5-7.1,1.5-14.8,8.1c-7.7,6.7-13.4,15.7-18.3,24.5c-0.5,0.9-1.2,1.2-2.1,0.4
						c-2.2-2.2-2.5-5.7-0.2-10.8c4.8-10.5,12.4-20.5,20-29.3c0.9-1,1.8-0.9,2.3,0.2c1.6,3.1-1.2,11.1-1.2,11.1
						C417.6,378,431.9,367.9,435.9,368.4z"/>
				</g>
				<g>
					<path class="st1" d="M478.1,419.1c-6.1,4.2-14.9,27.2-26.9,30.5c-1.9,0.5-4,0.2-5.6-2.9c-1.7-3.3-3.4-7.3-0.5-13
						c4.8-9.4,20.2-12.9,25.3-16.4c1.3-0.9,4.4-6.9,4.4-6.9c0,0-8.3,4.9-12.5,4c-7.6-1.7-6.9-9.3-3.4-15.7
						c4.7-8.9,11.3-17,18.6-23.9c1-1,2.1-0.7,2.8,0.4c2.1,3.7,0.8,7.9-4.1,13.4c-4.8,5.4-7.8,9.3-10.6,13.8
						c-2.9,4.7-2.8,8.8-0.7,8.9c6.5,0.5,12.9-7.9,17.4-13c5.5-6.3,10.8-13.9,16.8-19.9c1.2-1.2,2.2-1.2,2.9-0.3
						c1.3,1.8,1.4,6.7-2.4,11.4c-6.6,8.4-19,25.9-19,25.9c0.2,0.3,15.2-6.7,21.6-12.7c0.7-0.6,1.6-0.5,1.7,0.5c0,0.9-0.7,3.3-3,5.6
						C494.9,414.8,482.1,416.2,478.1,419.1z M448,443.4c1.5,1.1,19.9-22.1,19.9-22.1C467.7,420.9,447.1,442.7,448,443.4z"/>
				</g>
			</g>
		</g>
		<g class="st2">
			<path class="st1" d="M72.9,504.6v-65.7h24.5c5.4,0,10.2,0.9,14.3,2.6c4.1,1.7,7.5,4.1,10.2,7c2.7,3,4.8,6.4,6.2,10.4
				c1.4,4,2.1,8.2,2.1,12.7c0,5-0.8,9.5-2.3,13.6c-1.5,4-3.8,7.5-6.6,10.4c-2.9,2.9-6.3,5.1-10.4,6.7c-4,1.6-8.5,2.4-13.5,2.4H72.9z
				 M114.7,471.6c0-2.9-0.4-5.5-1.2-7.9c-0.8-2.4-1.9-4.4-3.4-6.2c-1.5-1.7-3.3-3.1-5.5-4c-2.2-0.9-4.6-1.4-7.3-1.4h-9.3v39.1h9.3
				c2.8,0,5.2-0.5,7.4-1.5c2.2-1,4-2.4,5.4-4.1c1.4-1.8,2.6-3.8,3.3-6.2C114.3,477.1,114.7,474.5,114.7,471.6z"/>
			<path class="st1" d="M139.1,504.6v-65.7h15.2v65.7L139.1,504.6L139.1,504.6z"/>
			<path class="st1" d="M206.3,458.1c-0.2-0.2-0.8-0.7-1.9-1.4c-1.1-0.7-2.5-1.4-4.2-2.1c-1.7-0.7-3.5-1.4-5.5-1.9
				c-2-0.6-3.9-0.8-5.9-0.8c-5.4,0-8.1,1.8-8.1,5.5c0,1.1,0.3,2,0.9,2.8c0.6,0.7,1.4,1.4,2.6,2c1.1,0.6,2.6,1.1,4.3,1.6
				c1.7,0.5,3.7,1.1,6,1.7c3.1,0.9,6,1.8,8.5,2.8c2.5,1,4.7,2.3,6.4,3.8c1.8,1.5,3.1,3.3,4.1,5.5c1,2.2,1.4,4.8,1.4,7.8
				c0,3.7-0.7,6.8-2.1,9.4c-1.4,2.6-3.2,4.6-5.5,6.2c-2.3,1.6-4.9,2.7-7.9,3.4c-3,0.7-6,1.1-9.2,1.1c-2.4,0-4.9-0.2-7.4-0.6
				c-2.5-0.4-5-0.9-7.4-1.6c-2.4-0.7-4.7-1.6-7-2.5c-2.3-1-4.3-2.1-6.2-3.4l6.7-13.2c0.2,0.3,1,0.9,2.4,1.8c1.4,0.9,3,1.7,5,2.6
				c2,0.9,4.2,1.6,6.7,2.3c2.5,0.7,5,1,7.5,1c5.4,0,8-1.6,8-4.9c0-1.2-0.4-2.3-1.2-3.1c-0.8-0.8-1.9-1.5-3.3-2.2
				c-1.4-0.6-3.1-1.2-5-1.8c-1.9-0.6-4.1-1.2-6.3-1.9c-3-0.9-5.6-1.9-7.9-3c-2.2-1.1-4.1-2.3-5.5-3.7c-1.4-1.4-2.5-3.1-3.2-4.9
				c-0.7-1.8-1.1-4-1.1-6.5c0-3.5,0.6-6.5,1.9-9.2c1.3-2.7,3.1-4.9,5.3-6.7c2.2-1.8,4.8-3.2,7.7-4.1c2.9-0.9,6-1.4,9.3-1.4
				c2.3,0,4.5,0.2,6.8,0.6c2.2,0.4,4.3,1,6.4,1.7c2,0.7,3.9,1.4,5.7,2.3c1.8,0.9,3.4,1.7,4.9,2.6L206.3,458.1z"/>
			<path class="st1" d="M273.4,452.2h-20v52.4h-15.2v-52.4h-20.1v-13.3h55.2L273.4,452.2L273.4,452.2z"/>
			<path class="st1" d="M280.8,504.6v-65.7h29.6c3.1,0,5.9,0.6,8.6,1.9c2.6,1.3,4.9,3,6.8,5.1c1.9,2.1,3.4,4.5,4.5,7.1
				c1.1,2.7,1.6,5.3,1.6,8c0,2-0.2,4-0.7,5.9s-1.2,3.7-2.1,5.3c-0.9,1.7-2.1,3.2-3.4,4.5c-1.3,1.3-2.8,2.5-4.5,3.4l14.4,24.4h-17.1
				l-12.6-21.2H296v21.2H280.8z M296,470.1h13.9c1.8,0,3.3-0.8,4.6-2.5c1.3-1.7,1.9-3.9,1.9-6.5c0-2.7-0.7-4.9-2.2-6.5
				c-1.5-1.6-3.1-2.4-4.8-2.4H296L296,470.1L296,470.1z"/>
			<path class="st1" d="M342.8,504.6v-65.7H358v65.7L342.8,504.6L342.8,504.6z"/>
			<path class="st1" d="M366.8,471.2c0-3.9,0.7-7.9,2.2-11.8c1.5-3.9,3.6-7.4,6.5-10.5c2.8-3.1,6.3-5.6,10.4-7.5
				c4.1-1.9,8.7-2.9,13.9-2.9c6.2,0,11.5,1.3,16.1,4c4.5,2.7,7.9,6.1,10.1,10.4l-11.7,8.1c-0.7-1.7-1.7-3.2-2.8-4.3
				s-2.4-2.1-3.7-2.8s-2.7-1.2-4.2-1.5c-1.4-0.3-2.8-0.4-4.2-0.4c-2.9,0-5.4,0.6-7.6,1.8c-2.2,1.2-4,2.7-5.4,4.5
				c-1.4,1.9-2.5,3.9-3.1,6.3c-0.7,2.3-1,4.7-1,7.1c0,2.6,0.4,5.1,1.2,7.5c0.8,2.4,2,4.5,3.5,6.4c1.5,1.9,3.3,3.3,5.5,4.4
				c2.1,1.1,4.5,1.6,7.2,1.6c1.4,0,2.8-0.2,4.2-0.5c1.4-0.3,2.8-0.9,4.2-1.6c1.3-0.7,2.5-1.6,3.7-2.8c1.1-1.1,2-2.5,2.7-4.2
				l12.4,7.3c-1,2.4-2.5,4.6-4.4,6.5c-1.9,1.9-4.2,3.5-6.7,4.8c-2.5,1.3-5.2,2.3-8.1,3c-2.8,0.7-5.6,1-8.3,1c-4.8,0-9.1-1-13.1-2.9
				c-4-1.9-7.4-4.5-10.3-7.7c-2.9-3.2-5.1-6.8-6.7-10.9C367.6,479.5,366.8,475.4,366.8,471.2z"/>
			<path class="st1" d="M483.7,452.2h-20v52.4h-15.2v-52.4h-20.1v-13.3h55.2L483.7,452.2L483.7,452.2z"/>
			<path class="st1" d="M530.5,458.1c-0.2-0.2-0.8-0.7-1.9-1.4c-1.1-0.7-2.5-1.4-4.2-2.1c-1.7-0.7-3.5-1.4-5.5-1.9
				c-2-0.6-3.9-0.8-5.9-0.8c-5.4,0-8.1,1.8-8.1,5.5c0,1.1,0.3,2,0.9,2.8c0.6,0.7,1.4,1.4,2.6,2c1.1,0.6,2.6,1.1,4.3,1.6
				c1.7,0.5,3.7,1.1,6,1.7c3.1,0.9,6,1.8,8.5,2.8c2.5,1,4.7,2.3,6.4,3.8c1.8,1.5,3.1,3.3,4.1,5.5c1,2.2,1.4,4.8,1.4,7.8
				c0,3.7-0.7,6.8-2.1,9.4c-1.4,2.6-3.2,4.6-5.5,6.2c-2.3,1.6-4.9,2.7-7.9,3.4c-3,0.7-6,1.1-9.2,1.1c-2.4,0-4.9-0.2-7.4-0.6
				c-2.5-0.4-5-0.9-7.4-1.6s-4.7-1.6-7-2.5c-2.3-1-4.3-2.1-6.2-3.4l6.7-13.2c0.2,0.3,1,0.9,2.4,1.8c1.4,0.9,3,1.7,5,2.6
				c2,0.9,4.2,1.6,6.7,2.3c2.5,0.7,5,1,7.5,1c5.4,0,8-1.6,8-4.9c0-1.2-0.4-2.3-1.2-3.1c-0.8-0.8-1.9-1.5-3.3-2.2
				c-1.4-0.6-3.1-1.2-5-1.8c-1.9-0.6-4.1-1.2-6.3-1.9c-3-0.9-5.6-1.9-7.9-3c-2.2-1.1-4.1-2.3-5.5-3.7c-1.4-1.4-2.5-3.1-3.2-4.9
				c-0.7-1.8-1.1-4-1.1-6.5c0-3.5,0.6-6.5,1.9-9.2s3.1-4.9,5.3-6.7c2.2-1.8,4.8-3.2,7.7-4.1c2.9-0.9,6-1.4,9.3-1.4
				c2.3,0,4.5,0.2,6.8,0.6c2.2,0.4,4.3,1,6.4,1.7c2,0.7,3.9,1.4,5.7,2.3c1.8,0.9,3.4,1.7,4.9,2.6L530.5,458.1z"/>
		</g>
	</g>
	<path class="st3" d="M262.8,218.3c-0.8-3.4,51.2,3.3,36.5-36.9c-5.9-16.1,13.2-25,21.5-5.6c11,25.9,56.2,48.4,77.1,11.8
		c43.3-75.9-67.4-108.4-94-50.9c-26.6-57.5-119.3-26.9-95.8,47.8c12.6,37.1,69.4,92,99.9,86.7c30.5-5.3,61.5-28.2,53-41.2
		c-7.5-11.4-35.7,6-55.5,5.5C281.7,234.7,263.7,222.2,262.8,218.3z M364.3,137c17,0,30.8,13.8,30.8,30.8s-13.8,30.8-30.8,30.8
		s-30.8-13.8-30.8-30.8S347.3,137,364.3,137z"/>
</g>
</svg>
