<?xml version="1.0" encoding="utf-8"?>
<!-- Generator: Adobe Illustrator 16.0.4, SVG Export Plug-In . SVG Version: 6.00 Build 0)  -->
<!DOCTYPE svg PUBLIC "-//W3C//DTD SVG 1.1//EN" "http://www.w3.org/Graphics/SVG/1.1/DTD/svg11.dtd">
<svg version="1.1" id="Layer_1" xmlns="http://www.w3.org/2000/svg" xmlns:xlink="http://www.w3.org/1999/xlink" x="0px" y="0px"
	 width="612px" height="612px" viewBox="0 0 612 612" enable-background="new 0 0 612 612" xml:space="preserve">
<rect fill="#E0E0E0" width="612" height="612"/>
<g>
	<g>
		<g id="XMLID_1_">
			<g>
				<polygon fill="#3B3B3B" points="111.229,279.247 143.496,333.221 109.032,333.221 93.997,308.07 				"/>
				<polygon fill="#3B3B3B" points="84.772,298.338 105.602,333.176 90.559,333.176 84.772,323.5 78.986,333.176 63.946,333.176 
									"/>
			</g>
			<g>
				<polygon fill="#3B3B3B" stroke="#FFFFFF" stroke-width="0" stroke-linecap="round" stroke-linejoin="round" points="
					78.986,333.176 84.772,323.5 90.559,333.176 105.602,333.176 84.772,298.338 63.946,333.176 				"/>
			</g>
		</g>
	</g>
	<g>
		<path fill="#3B3B3B" d="M167.811,280.129c0-0.75,0.674-1.351,1.424-1.351h1.875l31.199,33.149h0.075v-30.974
			c0-0.75,0.6-1.425,1.425-1.425h6.9c0.75,0,1.424,0.675,1.424,1.425v50.472c0,0.75-0.674,1.352-1.424,1.352h-1.801l-31.349-34.424
			h-0.075v32.249c0,0.75-0.6,1.426-1.425,1.426h-6.825c-0.75,0-1.424-0.676-1.424-1.426V280.129z"/>
		<path fill="#3B3B3B" d="M222.785,280.954c0-0.75,0.6-1.425,1.424-1.425h30.524c0.825,0,1.425,0.675,1.425,1.425v6.15
			c0,0.75-0.6,1.425-1.425,1.425h-22.199v12.3h18.524c0.75,0,1.425,0.674,1.425,1.424v6.226c0,0.824-0.675,1.424-1.425,1.424
			h-18.524v13.125h22.199c0.825,0,1.425,0.674,1.425,1.424v6.15c0,0.75-0.6,1.426-1.425,1.426h-30.524
			c-0.824,0-1.424-0.676-1.424-1.426V280.954z"/>
		<path fill="#3B3B3B" d="M262.234,281.329c-0.3-1.05,0.301-1.8,1.35-1.8h6.9c0.6,0,1.199,0.525,1.35,1.05l7.8,29.923h0.3
			l11.925-30.898c0.149-0.45,0.524-0.825,1.274-0.825h1.351c0.749,0,1.124,0.375,1.274,0.825l12,30.898h0.3l7.649-29.923
			c0.15-0.524,0.75-1.05,1.351-1.05h6.899c1.05,0,1.649,0.75,1.35,1.8l-14.174,50.398c-0.15,0.6-0.75,1.051-1.35,1.051h-1.201
			c-0.674,0-1.125-0.375-1.274-0.826l-13.425-33.973h-0.375l-13.273,33.973c-0.226,0.451-0.525,0.826-1.275,0.826h-1.2
			c-0.601,0-1.2-0.451-1.351-1.051L262.234,281.329z"/>
		<path fill="#3B3B3B" d="M357.258,278.779c7.574,0,13.049,2.399,18.148,6.976c0.676,0.6,0.676,1.5,0.075,2.1l-4.574,4.725
			c-0.525,0.6-1.275,0.6-1.875,0c-3.15-2.775-7.35-4.425-11.55-4.425c-9.6,0-16.725,8.024-16.725,17.474
			c0,9.375,7.2,17.324,16.8,17.324c4.5,0,8.324-1.725,11.475-4.273c0.6-0.525,1.425-0.451,1.875,0l4.649,4.799
			c0.6,0.525,0.45,1.5-0.075,2.025c-5.1,4.949-11.55,7.275-18.224,7.275c-15,0-27.074-11.926-27.074-26.924
			C330.184,290.854,342.258,278.779,357.258,278.779z"/>
		<path fill="#3B3B3B" d="M385.309,280.954c0-0.75,0.6-1.425,1.425-1.425h6.899c0.75,0,1.425,0.675,1.425,1.425v42.074h19.124
			c0.825,0,1.425,0.674,1.425,1.424v6.15c0,0.75-0.6,1.426-1.425,1.426h-27.448c-0.825,0-1.425-0.676-1.425-1.426V280.954z"/>
		<path fill="#3B3B3B" d="M423.183,280.954c0-0.75,0.675-1.425,1.425-1.425h6.975c0.75,0,1.425,0.675,1.425,1.425v49.648
			c0,0.75-0.675,1.426-1.425,1.426h-6.975c-0.75,0-1.425-0.676-1.425-1.426V280.954z"/>
		<path fill="#3B3B3B" d="M452.132,279.904c0.074-0.6,0.524-1.125,1.35-1.125h1.2c0.6,0,1.05,0.3,1.274,0.75l16.5,35.399
			c0.149,0,0.149,0,0.225,0l16.499-35.399c0.226-0.45,0.601-0.75,1.275-0.75h1.2c0.824,0,1.274,0.525,1.35,1.125l8.85,50.397
			c0.225,1.051-0.375,1.727-1.35,1.727h-6.825c-0.675,0-1.274-0.602-1.425-1.125l-4.425-28.424c-0.075,0-0.225,0-0.225,0
			l-13.125,29.473c-0.149,0.451-0.6,0.826-1.274,0.826h-1.351c-0.675,0-1.05-0.375-1.274-0.826l-13.274-29.473c0,0-0.15,0-0.226,0
			l-4.35,28.424c-0.075,0.523-0.675,1.125-1.35,1.125h-6.75c-0.975,0-1.575-0.676-1.425-1.727L452.132,279.904z"/>
		<path fill="#3B3B3B" d="M512.131,280.954c0-0.75,0.6-1.425,1.425-1.425h17.174c8.925,0,15.824,6,15.824,13.874
			c0,5.775-4.725,10.275-8.249,11.926c3.975,1.274,9.749,5.324,9.749,12.224c0,8.398-7.199,14.475-16.35,14.475h-18.148
			c-0.825,0-1.425-0.676-1.425-1.426V280.954z M529.83,301.579c3.824,0,6.449-3,6.449-6.75s-2.625-6.375-6.449-6.375h-8.025v13.125
			H529.83z M530.88,323.178c3.75,0,6.749-2.926,6.749-6.826c0-3.75-3.749-6.523-7.649-6.523h-8.175v13.35H530.88z"/>
	</g>
</g>
</svg>
