<?xml version="1.0" encoding="utf-8"?>
<!-- Generator: Adobe Illustrator 16.0.4, SVG Export Plug-In . SVG Version: 6.00 Build 0)  -->
<!DOCTYPE svg PUBLIC "-//W3C//DTD SVG 1.1//EN" "http://www.w3.org/Graphics/SVG/1.1/DTD/svg11.dtd">
<svg version="1.1" id="Layer_1" xmlns="http://www.w3.org/2000/svg" xmlns:xlink="http://www.w3.org/1999/xlink" x="0px" y="0px"
	 width="612px" height="612px" viewBox="0 0 612 612" enable-background="new 0 0 612 612" xml:space="preserve">
<rect fill="#D6E0E8" width="612" height="612"/>
<g id="Layer_2">
	<g>
		<g>
			<path fill="none" d="M301.961,537.814l-10.143-7.223C298.235,535.461,301.961,537.814,301.961,537.814z"/>
			<path fill="#173158" d="M481.887,154.324c-0.186-0.08-18.971-8.07-51.299-16.144c-28.812-7.196-74.502-15.83-128.531-16.094
				h-0.192c-54.028,0.264-99.716,8.897-128.531,16.094c-32.303,8.068-51.111,16.063-51.255,16.125l-13.033,5.491l-21.391,27.43
				c0,0,9.311,220.37,171.973,341.382l42.334,9.207c0,0-3.727-2.354-10.144-7.223l10.144,7.223l11.916-8.484
				c4.508-3.24,45.273-33.305,87.553-90.744c25.438-34.545,46.066-71.875,61.318-110.951
				c19.072-48.877,29.707-100.591,31.607-153.701l0.521-14.137L481.887,154.324z M486.861,173.657
				c-1.869,52.259-12.33,103.15-31.102,151.25c-15.01,38.461-35.318,75.211-60.369,109.23c-42.721,58.041-84.148,87.85-85.891,89.1
				l-7.539,5.371l-7.541-5.371c-1.738-1.25-43.17-31.059-85.89-89.1c-25.05-34.021-45.36-70.771-60.37-109.23
				c-18.77-48.1-29.23-98.989-31.1-151.25l-0.33-8.96l8.26-3.48c0.77-0.33,19.13-8.01,50.16-15.76
				c28.43-7.1,73.51-15.61,126.75-15.87h0.061h0.062c53.239,0.26,98.319,8.77,126.749,15.87c31.029,7.75,49.391,15.43,50.16,15.76
				l8.262,3.48L486.861,173.657z"/>
			<path fill="#FFFFFF" d="M428.771,145.457c-28.432-7.1-73.512-15.61-126.75-15.87h-0.061h-0.062
				c-53.239,0.26-98.319,8.77-126.75,15.87c-31.03,7.75-49.39,15.43-50.16,15.76l-8.26,3.48l0.33,8.96
				c1.87,52.259,12.33,103.15,31.1,151.25c15.01,38.461,35.32,75.211,60.37,109.23c42.72,58.041,84.15,87.85,85.891,89.1
				l7.539,5.371l7.541-5.371c1.74-1.25,43.17-31.059,85.891-89.1c25.051-34.021,45.359-70.771,60.369-109.23
				c18.771-48.1,29.23-98.989,31.102-151.25l0.33-8.96l-8.262-3.48C478.162,160.887,459.801,153.207,428.771,145.457z
				 M434.77,341.309c-0.092,0.201-0.182,0.402-0.271,0.602c-1.537,3.398-3.1,6.748-4.688,10.047c-0.09,0.186-0.18,0.369-0.27,0.555
				c-1.604,3.318-3.23,6.588-4.883,9.807c-0.062,0.123-0.127,0.246-0.189,0.369c-0.797,1.549-1.598,3.086-2.402,4.609
				c-0.039,0.076-0.08,0.152-0.119,0.229c-1.693,3.199-3.408,6.346-5.139,9.441c-0.074,0.131-0.148,0.264-0.223,0.395
				c-1.721,3.068-3.457,6.086-5.209,9.051c-0.078,0.135-0.156,0.27-0.236,0.402c-1.76,2.971-3.529,5.891-5.312,8.76
				c-0.061,0.098-0.121,0.193-0.182,0.291c-1.812,2.908-3.633,5.766-5.461,8.566c-0.006,0.008-0.012,0.014-0.016,0.021
				c-0.9,1.381-1.805,2.748-2.711,4.104c-0.047,0.072-0.094,0.143-0.141,0.213c-1.822,2.727-3.65,5.396-5.48,8.018
				c-0.064,0.094-0.131,0.188-0.195,0.281c-1.828,2.613-3.658,5.172-5.486,7.68c-0.055,0.074-0.109,0.148-0.164,0.225
				c-1.848,2.529-3.693,5.006-5.535,7.428c-0.014,0.021-0.029,0.039-0.045,0.061c-0.916,1.205-1.832,2.396-2.746,3.576
				c-0.02,0.023-0.037,0.047-0.057,0.07c-1.836,2.367-3.664,4.678-5.484,6.938c-0.053,0.064-0.104,0.129-0.156,0.193
				c-1.809,2.24-3.605,4.428-5.391,6.562c-0.051,0.061-0.102,0.121-0.15,0.182c-1.793,2.141-3.572,4.229-5.334,6.26
				c-0.027,0.033-0.057,0.064-0.084,0.098c-2.66,3.064-5.279,6.006-7.852,8.822c-0.035,0.041-0.072,0.08-0.107,0.119
				c-1.697,1.859-3.371,3.662-5.02,5.412c-0.055,0.057-0.105,0.111-0.158,0.168c-1.645,1.742-3.262,3.43-4.852,5.062
				c-0.045,0.047-0.09,0.092-0.133,0.137c-1.604,1.646-3.18,3.24-4.723,4.777c-0.002,0.004-0.006,0.008-0.01,0.01
				c-0.766,0.764-1.521,1.512-2.271,2.248c-0.025,0.025-0.053,0.053-0.078,0.078c-1.492,1.465-2.951,2.875-4.373,4.23
				c-0.057,0.055-0.113,0.109-0.17,0.164c-1.406,1.34-2.775,2.627-4.105,3.861c-0.055,0.049-0.105,0.098-0.158,0.146
				c-1.334,1.234-2.627,2.418-3.877,3.547c-0.033,0.029-0.066,0.059-0.102,0.09c-0.598,0.537-1.184,1.062-1.76,1.578
				c-0.037,0.031-0.074,0.064-0.109,0.096c-1.191,1.062-2.34,2.07-3.439,3.023c-0.057,0.051-0.115,0.102-0.172,0.15
				c-1.084,0.938-2.119,1.824-3.105,2.658c-0.061,0.051-0.119,0.102-0.18,0.152c-0.979,0.824-1.906,1.602-2.781,2.322
				c-0.049,0.039-0.094,0.078-0.143,0.117c-0.406,0.334-0.801,0.658-1.186,0.971c-0.029,0.023-0.061,0.051-0.09,0.074
				c-0.41,0.334-0.805,0.654-1.186,0.961c-0.035,0.027-0.066,0.053-0.102,0.08c-0.338,0.271-0.662,0.531-0.977,0.781
				c-0.059,0.045-0.115,0.092-0.172,0.137c-0.678,0.539-1.298,1.025-1.861,1.465c-0.051,0.039-0.101,0.078-0.149,0.115
				c-0.548,0.426-1.039,0.803-1.47,1.131c-0.045,0.033-0.086,0.064-0.131,0.1c-0.187,0.141-0.36,0.273-0.522,0.395
				c-0.019,0.014-0.037,0.029-0.054,0.041c-0.18,0.135-0.342,0.256-0.488,0.365c-0.031,0.021-0.057,0.041-0.085,0.062
				c-0.115,0.086-0.22,0.162-0.312,0.23c-0.024,0.018-0.049,0.035-0.072,0.053c-0.105,0.078-0.197,0.146-0.271,0.199
				c-0.005,0.002-0.007,0.004-0.011,0.008c-0.066,0.047-0.116,0.084-0.154,0.111c-0.021,0.016-0.029,0.021-0.043,0.031
				c-0.023,0.016-0.038,0.025-0.038,0.025s-0.015-0.01-0.038-0.025c-0.013-0.01-0.021-0.018-0.043-0.031
				c-0.037-0.027-0.088-0.064-0.154-0.111c-0.004-0.004-0.006-0.006-0.01-0.008c-0.074-0.055-0.166-0.121-0.271-0.199
				c-0.023-0.018-0.047-0.035-0.071-0.053c-0.094-0.068-0.196-0.146-0.312-0.23c-0.028-0.021-0.055-0.041-0.086-0.062
				c-0.147-0.109-0.312-0.232-0.493-0.369c-0.011-0.008-0.022-0.018-0.032-0.025c-0.166-0.123-0.348-0.262-0.539-0.406
				c-0.044-0.033-0.086-0.064-0.131-0.1c-0.428-0.324-0.915-0.699-1.459-1.121c-0.057-0.045-0.112-0.088-0.17-0.133
				c-0.561-0.436-1.18-0.922-1.854-1.457c-0.056-0.045-0.113-0.09-0.17-0.135c-0.311-0.248-0.632-0.506-0.965-0.773
				c-0.04-0.031-0.078-0.061-0.117-0.094c-0.38-0.307-0.772-0.625-1.181-0.955c-0.03-0.025-0.062-0.051-0.091-0.076
				c-0.381-0.309-0.773-0.631-1.178-0.965c-0.051-0.043-0.104-0.084-0.154-0.127c-0.873-0.721-1.801-1.494-2.776-2.318
				c-0.06-0.051-0.118-0.102-0.179-0.15c-0.985-0.834-2.02-1.719-3.1-2.654c-0.062-0.055-0.123-0.105-0.184-0.16
				c-1.097-0.951-2.238-1.953-3.428-3.012c-0.042-0.039-0.086-0.078-0.129-0.115c-0.568-0.506-1.146-1.023-1.733-1.555
				c-0.041-0.037-0.08-0.072-0.121-0.109c-1.243-1.121-2.532-2.299-3.858-3.529c-0.06-0.055-0.118-0.107-0.178-0.162
				c-1.326-1.232-2.691-2.516-4.095-3.854c-0.06-0.057-0.12-0.113-0.18-0.172c-1.417-1.352-2.869-2.756-4.354-4.215
				c-0.037-0.035-0.074-0.072-0.109-0.105c-0.736-0.725-1.479-1.459-2.231-2.209c-0.014-0.014-0.028-0.027-0.042-0.041
				c-1.536-1.531-3.104-3.117-4.702-4.76c-0.05-0.051-0.099-0.102-0.149-0.15c-1.582-1.629-3.194-3.311-4.832-5.045
				c-0.061-0.064-0.12-0.129-0.182-0.193c-1.642-1.74-3.308-3.535-4.996-5.385c-0.045-0.051-0.093-0.102-0.139-0.152
				c-1.71-1.875-3.441-3.803-5.193-5.787c-0.006-0.008-0.013-0.016-0.02-0.021c-0.859-0.977-1.727-1.965-2.596-2.967
				c-0.041-0.047-0.082-0.094-0.123-0.143c-1.75-2.02-3.518-4.092-5.297-6.217c-0.064-0.076-0.129-0.152-0.192-0.23
				c-1.772-2.119-3.558-4.291-5.354-6.518c-0.063-0.08-0.129-0.16-0.193-0.24c-1.809-2.244-3.626-4.541-5.45-6.893
				c-0.032-0.041-0.063-0.082-0.097-0.123c-0.896-1.156-1.795-2.326-2.693-3.51c-0.027-0.035-0.057-0.072-0.085-0.111
				c-1.83-2.406-3.665-4.867-5.5-7.381c-0.065-0.092-0.133-0.184-0.2-0.273c-1.818-2.492-3.637-5.039-5.455-7.635
				c-0.076-0.111-0.154-0.223-0.229-0.33c-1.82-2.605-3.638-5.262-5.449-7.973c-0.06-0.088-0.117-0.176-0.176-0.264
				c-0.888-1.328-1.772-2.668-2.656-4.021c-0.021-0.031-0.042-0.062-0.062-0.096c-0.926-1.418-1.851-2.85-2.771-4.295
				c-0.005-0.008-0.011-0.018-0.018-0.023c-0.881-1.387-1.762-2.785-2.639-4.193c-0.072-0.115-0.143-0.227-0.213-0.342
				c-1.771-2.852-3.533-5.754-5.281-8.707c-0.092-0.154-0.184-0.311-0.274-0.465c-1.741-2.949-3.468-5.949-5.179-9
				c-0.083-0.146-0.166-0.295-0.249-0.443c-0.837-1.498-1.671-3.006-2.5-4.527c-0.011-0.021-0.023-0.043-0.034-0.062
				c-0.864-1.586-1.722-3.188-2.576-4.799c-0.053-0.1-0.105-0.199-0.158-0.299c-0.79-1.496-1.575-3.002-2.355-4.521
				c-0.075-0.145-0.15-0.291-0.225-0.436c-1.64-3.197-3.258-6.447-4.851-9.744c-0.101-0.207-0.201-0.416-0.301-0.623
				c-1.579-3.279-3.132-6.607-4.658-9.984c-0.101-0.223-0.202-0.447-0.302-0.672c-0.748-1.662-1.491-3.334-2.225-5.02
				c-0.003-0.008-0.006-0.014-0.009-0.021l0,0c-19.915-45.741-34.598-100.167-36.851-163.042c0,0,71.35-30.11,171.91-30.6
				c100.561,0.49,171.91,30.6,171.91,30.6C471.535,238.406,455.82,294.534,434.77,341.309z"/>
			<path fill="#1A2F59" d="M321.154,496.885c-1.193,1.061-2.34,2.068-3.439,3.023C318.814,498.953,319.961,497.947,321.154,496.885z
				"/>
			<path fill="#1A2F59" d="M314.258,502.869c-0.979,0.824-1.908,1.602-2.783,2.322C312.35,504.471,313.279,503.695,314.258,502.869z
				"/>
			<path fill="#1A2F59" d="M317.541,500.059c-1.082,0.938-2.119,1.824-3.105,2.658C315.424,501.883,316.459,500.996,317.541,500.059
				z"/>
			<path fill="#1A2F59" d="M323.023,495.209c-0.598,0.539-1.186,1.064-1.762,1.578C321.84,496.273,322.426,495.748,323.023,495.209z
				"/>
			<path fill="#1A2F59" d="M331.264,487.564c-1.404,1.34-2.775,2.629-4.105,3.861C328.488,490.193,329.859,488.904,331.264,487.564z
				"/>
			<path fill="#1A2F59" d="M338.158,480.844c-0.766,0.764-1.521,1.512-2.271,2.248C336.637,482.355,337.393,481.607,338.158,480.844
				z"/>
			<path fill="#1A2F59" d="M342.889,476.057c-1.604,1.646-3.18,3.24-4.721,4.777C339.711,479.297,341.287,477.703,342.889,476.057z"
				/>
			<path fill="#1A2F59" d="M327,491.574c-1.332,1.234-2.627,2.418-3.877,3.545C324.373,493.992,325.666,492.809,327,491.574z"/>
			<path fill="#1A2F59" d="M335.807,483.17c-1.49,1.465-2.949,2.875-4.371,4.23C332.857,486.045,334.316,484.635,335.807,483.17z"/>
			<path fill="#1A2F59" d="M311.334,505.309c-0.406,0.336-0.803,0.66-1.186,0.971C310.531,505.969,310.928,505.645,311.334,505.309z
				"/>
			<path fill="#1A2F59" d="M303.436,511.559c-0.18,0.135-0.342,0.256-0.488,0.365C303.094,511.814,303.256,511.693,303.436,511.559z
				"/>
			<path fill="#1A2F59" d="M302.479,512.271c-0.105,0.076-0.199,0.146-0.271,0.197C302.28,512.416,302.372,512.35,302.479,512.271z"
				/>
			<path fill="#1A2F59" d="M302.862,511.986c-0.114,0.086-0.22,0.164-0.312,0.232C302.643,512.148,302.747,512.072,302.862,511.986z
				"/>
			<path fill="#1A2F59" d="M302.196,512.477c-0.065,0.049-0.116,0.084-0.154,0.111C302.08,512.561,302.131,512.525,302.196,512.477z
				"/>
			<path fill="#1A2F59" d="M310.057,506.355c-0.408,0.332-0.805,0.652-1.186,0.959C309.254,507.008,309.648,506.688,310.057,506.355
				z"/>
			<path fill="#1A2F59" d="M304.012,511.123c-0.186,0.141-0.361,0.273-0.522,0.395C303.651,511.396,303.826,511.264,304.012,511.123
				z"/>
			<path fill="#1A2F59" d="M307.625,508.312c-0.678,0.539-1.299,1.027-1.861,1.465C306.326,509.34,306.947,508.852,307.625,508.312z
				"/>
			<path fill="#1A2F59" d="M308.773,507.395c-0.34,0.271-0.664,0.531-0.979,0.783C308.109,507.926,308.434,507.666,308.773,507.395z
				"/>
			<path fill="#1A2F59" d="M305.612,509.895c-0.548,0.426-1.039,0.803-1.47,1.129C304.573,510.697,305.064,510.32,305.612,509.895z"
				/>
			<path fill="#1A2F59" d="M366.428,449.979c-1.793,2.141-3.57,4.227-5.334,6.26C362.855,454.205,364.635,452.117,366.428,449.979z"
				/>
			<path fill="#1A2F59" d="M405.646,395.863c-1.811,2.908-3.631,5.766-5.461,8.566C402.016,401.629,403.836,398.773,405.646,395.863
				z"/>
			<path fill="#1A2F59" d="M411.143,386.812c-1.76,2.973-3.531,5.893-5.314,8.762C407.611,392.703,409.383,389.783,411.143,386.812z
				"/>
			<path fill="#1A2F59" d="M416.588,377.361c-1.721,3.068-3.457,6.084-5.209,9.051C413.131,383.445,414.867,380.43,416.588,377.361z
				"/>
			<path fill="#1A2F59" d="M347.873,470.857c-1.645,1.742-3.262,3.43-4.85,5.062C344.611,474.287,346.23,472.6,347.873,470.857z"/>
			<path fill="#1A2F59" d="M434.498,341.91c-1.535,3.398-3.1,6.746-4.688,10.045C431.398,348.656,432.963,345.309,434.498,341.91z"
				/>
			<path fill="#1A2F59" d="M397.32,408.768c-1.822,2.727-3.65,5.396-5.48,8.018C393.67,414.164,395.498,411.492,397.32,408.768z"/>
			<path fill="#1A2F59" d="M429.543,352.51c-1.604,3.318-3.23,6.59-4.883,9.807C426.312,359.1,427.939,355.828,429.543,352.51z"/>
			<path fill="#1A2F59" d="M424.469,362.688c-0.795,1.547-1.596,3.084-2.4,4.609C422.873,365.771,423.674,364.234,424.469,362.688z"
				/>
			<path fill="#1A2F59" d="M421.947,367.525c-1.693,3.199-3.406,6.344-5.139,9.439C418.541,373.869,420.254,370.725,421.947,367.525
				z"/>
			<path fill="#1A2F59" d="M400.172,404.451c-0.9,1.383-1.805,2.748-2.711,4.104C398.367,407.199,399.27,405.832,400.172,404.451z"
				/>
			<path fill="#1A2F59" d="M361.01,456.336c-2.658,3.062-5.277,6.006-7.85,8.822C355.73,462.342,358.35,459.4,361.01,456.336z"/>
			<path fill="#1A2F59" d="M301.999,512.619c-0.016,0.012-0.038,0.027-0.038,0.027S301.975,512.637,301.999,512.619z"/>
			<path fill="#1A2F59" d="M353.051,465.277c-1.695,1.859-3.369,3.662-5.02,5.412C349.68,468.939,351.355,467.137,353.051,465.277z"
				/>
			<path fill="#1A2F59" d="M371.969,443.234c-1.807,2.242-3.604,4.428-5.389,6.562C368.363,447.662,370.162,445.477,371.969,443.234
				z"/>
			<path fill="#1A2F59" d="M391.643,417.066c-1.826,2.611-3.656,5.172-5.486,7.68C387.986,422.238,389.814,419.68,391.643,417.066z"
				/>
			<path fill="#1A2F59" d="M385.992,424.971c-1.846,2.529-3.693,5.006-5.533,7.428C382.301,429.977,384.146,427.5,385.992,424.971z"
				/>
			<path fill="#1A2F59" d="M380.414,432.455c-0.918,1.207-1.834,2.398-2.748,3.578C378.58,434.855,379.496,433.662,380.414,432.455z
				"/>
			<path fill="#1A2F59" d="M377.611,436.105c-1.836,2.365-3.666,4.678-5.486,6.938C373.945,440.781,375.775,438.471,377.611,436.105
				z"/>
			<path fill="#1A2F59" d="M184.562,372.348c-0.864-1.588-1.722-3.188-2.576-4.799C182.84,369.16,183.698,370.76,184.562,372.348z"
				/>
			<path fill="#1A2F59" d="M223.449,432.379c-1.83-2.406-3.665-4.867-5.5-7.383C219.785,427.512,221.619,429.973,223.449,432.379z"
				/>
			<path fill="#1A2F59" d="M217.749,424.725c-1.817-2.492-3.637-5.039-5.454-7.635C214.112,419.686,215.932,422.232,217.749,424.725
				z"/>
			<path fill="#1A2F59" d="M203.721,404.406c-0.926-1.418-1.85-2.85-2.771-4.295C201.871,401.559,202.795,402.988,203.721,404.406z"
				/>
			<path fill="#1A2F59" d="M206.439,408.523c-0.887-1.328-1.772-2.668-2.656-4.02C204.667,405.855,205.553,407.195,206.439,408.523z
				"/>
			<path fill="#1A2F59" d="M212.064,416.76c-1.82-2.605-3.637-5.264-5.449-7.973C208.428,411.496,210.244,414.154,212.064,416.76z"
				/>
			<path fill="#1A2F59" d="M226.229,436c-0.896-1.156-1.795-2.326-2.693-3.51C224.434,433.674,225.333,434.844,226.229,436z"/>
			<path fill="#1A2F59" d="M245.531,459.328c-0.859-0.975-1.727-1.965-2.596-2.965C243.805,457.363,244.672,458.354,245.531,459.328
				z"/>
			<path fill="#1A2F59" d="M231.775,443.016c-1.809-2.244-3.626-4.541-5.45-6.895C228.149,438.475,229.967,440.771,231.775,443.016z
				"/>
			<path fill="#1A2F59" d="M242.813,456.221c-1.75-2.02-3.517-4.092-5.298-6.217C239.297,452.129,241.063,454.201,242.813,456.221z"
				/>
			<path fill="#1A2F59" d="M237.323,449.773c-1.772-2.119-3.558-4.291-5.354-6.518C233.766,445.482,235.551,447.654,237.323,449.773
				z"/>
			<path fill="#1A2F59" d="M200.934,400.088c-0.883-1.387-1.764-2.785-2.641-4.193C199.172,397.303,200.051,398.701,200.934,400.088
				z"/>
			<path fill="#1A2F59" d="M169.136,341.27c-0.748-1.662-1.491-3.334-2.225-5.02C167.645,337.936,168.387,339.607,169.136,341.27z"
				/>
			<path fill="#1A2F59" d="M179.248,362.293c-1.64-3.197-3.258-6.447-4.851-9.744C175.99,355.846,177.608,359.096,179.248,362.293z"
				/>
			<path fill="#1A2F59" d="M174.096,351.926c-1.579-3.279-3.132-6.607-4.658-9.984C170.964,345.318,172.517,348.646,174.096,351.926
				z"/>
			<path fill="#1A2F59" d="M250.744,465.139c-1.71-1.875-3.441-3.803-5.193-5.787C247.303,461.336,249.033,463.264,250.744,465.139z
				"/>
			<path fill="#1A2F59" d="M301.961,512.646c0,0-0.021-0.016-0.037-0.025C301.946,512.637,301.961,512.646,301.961,512.646z"/>
			<path fill="#1A2F59" d="M198.081,395.553c-1.772-2.852-3.534-5.754-5.282-8.707C194.547,389.799,196.309,392.701,198.081,395.553
				z"/>
			<path fill="#1A2F59" d="M192.524,386.381c-1.741-2.949-3.468-5.949-5.179-9C189.057,380.432,190.783,383.432,192.524,386.381z"/>
			<path fill="#1A2F59" d="M187.097,376.938c-0.837-1.498-1.671-3.006-2.5-4.527C185.426,373.932,186.26,375.439,187.097,376.938z"
				/>
			<path fill="#1A2F59" d="M181.829,367.248c-0.79-1.494-1.575-3.002-2.355-4.52C180.254,364.246,181.039,365.754,181.829,367.248z"
				/>
			<path fill="#1A2F59" d="M299.778,511.023c-0.427-0.324-0.915-0.699-1.459-1.121C298.863,510.324,299.35,510.699,299.778,511.023z
				"/>
			<path fill="#1A2F59" d="M300.975,511.924c-0.148-0.111-0.312-0.232-0.494-0.369C300.661,511.691,300.826,511.814,300.975,511.924
				z"/>
			<path fill="#1A2F59" d="M300.448,511.529c-0.166-0.123-0.349-0.262-0.539-0.406C300.1,511.268,300.282,511.404,300.448,511.529z"
				/>
			<path fill="#1A2F59" d="M293.773,506.279c-0.381-0.309-0.773-0.631-1.178-0.965C293,505.648,293.393,505.971,293.773,506.279z"/>
			<path fill="#1A2F59" d="M295.045,507.311c-0.38-0.307-0.772-0.625-1.181-0.955C294.271,506.686,294.665,507.004,295.045,507.311z
				"/>
			<path fill="#1A2F59" d="M296.127,508.178c-0.311-0.248-0.632-0.506-0.965-0.773C295.495,507.672,295.816,507.93,296.127,508.178z
				"/>
			<path fill="#1A2F59" d="M298.149,509.77c-0.562-0.436-1.179-0.922-1.853-1.457C296.971,508.848,297.59,509.334,298.149,509.77z"
				/>
			<path fill="#1A2F59" d="M301.372,512.219c-0.093-0.068-0.198-0.146-0.312-0.232C301.176,512.072,301.278,512.148,301.372,512.219
				z"/>
			<path fill="#1A2F59" d="M301.881,512.588c-0.039-0.027-0.089-0.062-0.154-0.111C301.792,512.525,301.842,512.561,301.881,512.588
				z"/>
			<path fill="#1A2F59" d="M255.879,470.676c-1.642-1.74-3.308-3.535-4.996-5.385C252.571,467.141,254.237,468.936,255.879,470.676z
				"/>
			<path fill="#1A2F59" d="M301.715,512.469c-0.072-0.053-0.166-0.121-0.271-0.197C301.551,512.35,301.641,512.416,301.715,512.469z
				"/>
			<path fill="#1A2F59" d="M292.441,505.188c-0.873-0.721-1.801-1.494-2.776-2.318C290.641,503.693,291.568,504.467,292.441,505.188
				z"/>
			<path fill="#1A2F59" d="M280.791,495.113c-1.244-1.123-2.531-2.301-3.859-3.529C278.26,492.812,279.547,493.988,280.791,495.113z
				"/>
			<path fill="#1A2F59" d="M268.016,483.074c-0.735-0.725-1.479-1.461-2.23-2.209C266.537,481.613,267.281,482.35,268.016,483.074z"
				/>
			<path fill="#1A2F59" d="M272.481,487.396c-1.417-1.352-2.869-2.756-4.354-4.215C269.612,484.641,271.064,486.045,272.481,487.396
				z"/>
			<path fill="#1A2F59" d="M260.893,475.914c-1.584-1.629-3.195-3.311-4.832-5.045C257.697,472.604,259.309,474.285,260.893,475.914
				z"/>
			<path fill="#1A2F59" d="M265.743,480.824c-1.536-1.531-3.104-3.117-4.702-4.76C262.639,477.707,264.207,479.293,265.743,480.824z
				"/>
			<path fill="#1A2F59" d="M276.756,491.42c-1.328-1.232-2.692-2.516-4.096-3.854C274.063,488.904,275.428,490.188,276.756,491.42z"
				/>
			<path fill="#1A2F59" d="M286.202,499.902c-1.097-0.949-2.239-1.953-3.428-3.012C283.963,497.949,285.106,498.951,286.202,499.902
				z"/>
			<path fill="#1A2F59" d="M289.486,502.717c-0.984-0.832-2.02-1.717-3.1-2.654C287.467,501,288.502,501.885,289.486,502.717z"/>
			<path fill="#1A2F59" d="M282.645,496.775c-0.567-0.506-1.146-1.023-1.732-1.555C281.5,495.752,282.077,496.27,282.645,496.775z"
				/>
			<path fill="#EC2227" d="M166.902,336.23L166.902,336.23c0.003,0.006,0.006,0.014,0.009,0.02c0.734,1.688,1.477,3.357,2.225,5.021
				c0.101,0.225,0.201,0.447,0.302,0.672c1.526,3.377,3.08,6.705,4.658,9.982c0.1,0.209,0.201,0.416,0.301,0.625
				c1.593,3.297,3.211,6.545,4.851,9.742c0.075,0.146,0.15,0.291,0.225,0.438c0.78,1.518,1.565,3.023,2.355,4.52
				c0.053,0.1,0.105,0.199,0.158,0.301c0.854,1.611,1.712,3.211,2.576,4.799c0.011,0.02,0.023,0.041,0.034,0.061
				c0.829,1.521,1.663,3.029,2.5,4.527c0.083,0.148,0.166,0.297,0.249,0.445c1.709,3.051,3.438,6.049,5.179,8.998
				c0.091,0.154,0.183,0.311,0.274,0.465c1.748,2.953,3.51,5.855,5.281,8.709c0.07,0.113,0.143,0.227,0.212,0.34
				c0.878,1.41,1.759,2.809,2.64,4.193c0.007,0.008,0.012,0.018,0.018,0.025c0.921,1.445,1.846,2.877,2.771,4.295
				c0.021,0.031,0.041,0.062,0.062,0.096c0.884,1.354,1.771,2.691,2.656,4.02c0.059,0.088,0.118,0.176,0.176,0.264
				c1.812,2.711,3.629,5.367,5.449,7.973c0.077,0.109,0.153,0.221,0.229,0.33c1.817,2.598,3.637,5.143,5.455,7.635
				c0.066,0.092,0.133,0.184,0.2,0.273c1.836,2.514,3.67,4.975,5.5,7.383c0.028,0.037,0.058,0.074,0.085,0.111
				c0.898,1.182,1.798,2.352,2.693,3.508c0.033,0.041,0.064,0.082,0.097,0.123c1.824,2.352,3.642,4.648,5.45,6.893
				c0.064,0.08,0.13,0.162,0.193,0.242c1.797,2.225,3.582,4.396,5.354,6.518c0.063,0.076,0.128,0.152,0.192,0.229
				c1.779,2.127,3.547,4.199,5.297,6.219c0.041,0.047,0.082,0.094,0.123,0.143c0.869,1,1.734,1.99,2.596,2.965
				c0.006,0.008,0.013,0.016,0.02,0.023c1.752,1.982,3.483,3.912,5.193,5.787c0.046,0.051,0.094,0.102,0.139,0.152
				c1.688,1.848,3.354,3.643,4.996,5.385c0.062,0.064,0.121,0.129,0.182,0.193c1.638,1.732,3.25,3.416,4.832,5.043
				c0.051,0.051,0.1,0.102,0.149,0.152c1.597,1.641,3.166,3.229,4.702,4.758c0.016,0.016,0.027,0.027,0.042,0.043
				c0.751,0.748,1.495,1.484,2.231,2.207c0.037,0.035,0.072,0.07,0.108,0.107c1.486,1.459,2.938,2.863,4.354,4.215
				c0.061,0.059,0.121,0.115,0.181,0.172c1.401,1.336,2.769,2.619,4.095,3.852c0.06,0.055,0.118,0.107,0.178,0.164
				c1.326,1.229,2.615,2.406,3.858,3.529c0.041,0.037,0.08,0.072,0.121,0.107c0.588,0.531,1.166,1.049,1.733,1.555
				c0.043,0.039,0.087,0.078,0.129,0.115c1.188,1.059,2.33,2.062,3.428,3.012c0.061,0.055,0.123,0.107,0.184,0.16
				c1.082,0.938,2.114,1.822,3.1,2.654c0.061,0.051,0.119,0.102,0.179,0.152c0.976,0.824,1.903,1.598,2.776,2.316
				c0.052,0.045,0.104,0.086,0.154,0.129c0.403,0.332,0.797,0.654,1.178,0.965c0.029,0.023,0.061,0.051,0.091,0.074
				c0.407,0.332,0.801,0.65,1.18,0.955c0.04,0.033,0.078,0.062,0.118,0.096c0.333,0.268,0.654,0.523,0.965,0.771
				c0.057,0.045,0.114,0.092,0.17,0.137c0.674,0.535,1.293,1.021,1.854,1.457c0.058,0.045,0.113,0.088,0.17,0.131
				c0.544,0.422,1.031,0.797,1.459,1.123c0.045,0.033,0.087,0.064,0.131,0.1c0.191,0.145,0.373,0.281,0.539,0.406
				c0.01,0.008,0.021,0.018,0.031,0.023c0.183,0.137,0.347,0.26,0.494,0.371c0.031,0.021,0.058,0.041,0.086,0.061
				c0.113,0.086,0.22,0.164,0.312,0.232c0.024,0.018,0.048,0.035,0.071,0.053c0.105,0.076,0.199,0.146,0.271,0.197
				c0.004,0.004,0.006,0.006,0.01,0.008c0.066,0.049,0.117,0.084,0.154,0.111c0.021,0.016,0.03,0.021,0.043,0.031
				c0.016,0.012,0.038,0.027,0.038,0.027s0.022-0.016,0.038-0.027c0.014-0.01,0.021-0.016,0.043-0.031
				c0.038-0.027,0.088-0.062,0.154-0.111c0.004-0.002,0.006-0.004,0.011-0.008c0.072-0.053,0.166-0.121,0.271-0.197
				c0.023-0.018,0.047-0.035,0.072-0.053c0.092-0.068,0.197-0.146,0.312-0.232c0.028-0.02,0.054-0.039,0.085-0.061
				c0.146-0.109,0.309-0.23,0.488-0.365c0.017-0.014,0.035-0.027,0.054-0.041c0.161-0.121,0.338-0.254,0.522-0.396
				c0.045-0.033,0.086-0.064,0.131-0.1c0.431-0.326,0.922-0.703,1.47-1.129c0.05-0.039,0.1-0.078,0.149-0.117
				c0.563-0.438,1.186-0.926,1.861-1.465c0.057-0.045,0.113-0.09,0.172-0.135c0.312-0.252,0.639-0.512,0.977-0.783
				c0.033-0.027,0.066-0.053,0.102-0.08c0.381-0.307,0.775-0.627,1.186-0.959c0.029-0.025,0.061-0.051,0.09-0.076
				c0.385-0.311,0.779-0.635,1.186-0.971c0.049-0.039,0.094-0.076,0.143-0.117c0.875-0.721,1.805-1.496,2.781-2.322
				c0.061-0.051,0.119-0.102,0.18-0.15c0.986-0.834,2.021-1.721,3.105-2.66c0.057-0.049,0.115-0.1,0.172-0.15
				c1.102-0.953,2.248-1.961,3.439-3.021c0.035-0.031,0.072-0.064,0.109-0.098c0.576-0.514,1.162-1.039,1.76-1.578
				c0.033-0.029,0.066-0.061,0.102-0.09c1.25-1.129,2.543-2.311,3.877-3.547c0.053-0.049,0.104-0.098,0.158-0.146
				c1.33-1.232,2.699-2.521,4.105-3.861c0.057-0.055,0.113-0.107,0.17-0.164c1.422-1.355,2.881-2.766,4.373-4.23
				c0.025-0.025,0.053-0.053,0.078-0.078c0.75-0.736,1.506-1.484,2.271-2.246c0.004-0.004,0.008-0.008,0.01-0.01
				c1.543-1.537,3.119-3.131,4.723-4.779c0.043-0.045,0.088-0.09,0.133-0.135c1.59-1.635,3.207-3.322,4.852-5.064
				c0.053-0.055,0.104-0.109,0.158-0.168c1.648-1.75,3.322-3.553,5.02-5.41c0.035-0.041,0.072-0.08,0.107-0.119
				c2.57-2.816,5.191-5.76,7.852-8.822c0.027-0.033,0.057-0.064,0.084-0.098c1.762-2.033,3.541-4.121,5.334-6.262
				c0.049-0.061,0.102-0.121,0.15-0.182c1.785-2.135,3.582-4.32,5.391-6.562c0.053-0.062,0.104-0.129,0.156-0.191
				c1.818-2.26,3.648-4.57,5.484-6.938c0.02-0.025,0.037-0.049,0.057-0.072c0.914-1.18,1.83-2.371,2.746-3.576
				c0.016-0.02,0.031-0.039,0.045-0.059c1.842-2.422,3.689-4.898,5.535-7.428c0.055-0.076,0.109-0.15,0.164-0.227
				c1.828-2.506,3.658-5.066,5.486-7.68c0.064-0.094,0.131-0.188,0.195-0.281c1.83-2.619,3.658-5.291,5.48-8.016
				c0.047-0.07,0.094-0.143,0.141-0.213c0.906-1.355,1.811-2.723,2.711-4.105c0.004-0.006,0.01-0.014,0.016-0.02
				c1.828-2.803,3.648-5.658,5.461-8.566c0.061-0.098,0.121-0.193,0.182-0.291c1.783-2.869,3.555-5.789,5.312-8.762
				c0.078-0.133,0.158-0.268,0.236-0.4c1.752-2.967,3.488-5.982,5.209-9.051c0.074-0.131,0.146-0.264,0.223-0.396
				c1.73-3.096,3.443-6.24,5.139-9.439c0.039-0.076,0.08-0.152,0.119-0.229c0.807-1.525,1.605-3.062,2.402-4.609
				c0.062-0.125,0.127-0.246,0.189-0.371c1.652-3.217,3.279-6.486,4.883-9.807c0.09-0.186,0.18-0.367,0.27-0.555
				c1.588-3.299,3.15-6.646,4.688-10.045c0.09-0.201,0.18-0.4,0.271-0.602c0.756-1.684,1.508-3.373,2.25-5.08H166.902V336.23z"/>
		</g>
		<g>
			<g>
				<path fill="#192F59" d="M150.744,108.529c-2.65-8.236,5.909-14.713,12.966-16.769c11.137-3.245,17.364,0.953,18.699,5.954
					c0.954,3.572-0.363,7.554-4.302,10.977c-0.042,0.036-0.062,0.055-0.104,0.09c4.964,0.187,10.086,2.678,11.381,7.857
					c2.17,8.694-6.285,15.069-13.554,17.333c-6.715,2.092-17.11,1.77-20.003-5.95c-1.776-4.739,0.261-9.208,4.579-12.784
					c-0.014-0.043-0.021-0.064-0.035-0.107C155.245,114.478,151.886,112.079,150.744,108.529z M169.736,115.731
					c-2.88,0.867-4.487,4.841-3.569,7.8c0.885,2.851,4.007,4.315,7.863,3.139c3.628-1.108,5.617-3.392,4.777-6.288
					C177.747,116.722,172.984,114.754,169.736,115.731z M169.176,108.23c2.003-0.594,3.93-3.96,3.182-6.526
					c-0.766-2.621-2.934-4.197-7.044-2.94c-3.869,1.183-5.139,3.455-4.325,6.001C161.872,107.528,166.24,109.102,169.176,108.23z"/>
				<path fill="#192F59" d="M209.104,90.041c1.195,5.909,1.794,8.863,2.988,14.773c1.529,7.56,2.295,11.339,3.824,18.899
					c-4.367,0.884-6.548,1.354-10.896,2.35c-2.557-11.162-5.113-22.325-7.674-33.487c-4.326,0.991-6.484,1.513-10.792,2.608
					c-0.813-3.198-1.219-4.795-2.031-7.994c4.383-1.114,6.578-1.645,10.982-2.653c4.775-1.095,7.168-1.61,11.963-2.581
					c4.472-0.904,6.711-1.33,11.199-2.126c0.576,3.249,0.863,4.872,1.44,8.12C215.699,88.733,213.499,89.152,209.104,90.041z"/>
				<path fill="#192F59" d="M262.446,97.479c0.676,7.707,1.015,11.56,1.688,19.266c-4.445,0.389-6.668,0.613-11.104,1.116
					c-0.796-7.007-1.194-10.511-1.991-17.519c-4.831,0.549-7.244,0.855-12.062,1.535c0.984,6.984,1.478,10.475,2.462,17.459
					c-4.38,0.617-6.566,0.955-10.933,1.684c-2.342-14.026-4.684-28.052-7.027-42.078c4.795-0.8,7.197-1.17,12.006-1.847
					c0.965,6.848,1.447,10.273,2.413,17.122c4.901-0.69,7.358-1.003,12.272-1.561c-0.781-6.872-1.172-10.309-1.953-17.181
					c4.873-0.554,7.311-0.798,12.192-1.226C261.092,81.991,261.766,89.737,262.446,97.479z"/>
				<path fill="#192F59" d="M316.99,115.342c-8.641-0.296-17.288-0.336-25.93-0.116c-0.359-14.215-0.723-28.431-1.082-42.646
					c4.82-0.122,7.232-0.154,12.052-0.154c0,11.451,0.003,22.903,0.003,34.354c5.746-0.001,8.621,0.045,14.363,0.231
					C316.641,110.343,316.76,112.01,316.99,115.342z"/>
				<path fill="#192F59" d="M332.963,96.799c-0.527,7.717-0.793,11.576-1.318,19.293c-4.404-0.3-6.607-0.421-11.018-0.61
					c0.605-14.207,1.211-28.414,1.818-42.621c4.844,0.208,7.266,0.341,12.104,0.671C334.018,81.287,333.49,89.043,332.963,96.799z"
					/>
				<path fill="#192F59" d="M371.234,100.068c-0.162,1.057-0.244,1.584-0.406,2.642c-1,6.499-1.5,9.747-2.502,16.246
					c-1.248,0.095-2.553,0.191-3.959,0.214c-2.52,0.042-5.721-0.061-9.566-0.531c-9.012-1.103-14.762-4.846-17.039-11.559
					c-0.727-2.143-0.98-5.67-0.596-10.661c0.086-1.111,0.129-1.667,0.215-2.778c0.457-5.897,1.816-9.977,3.562-12.039
					c3.945-4.659,10.146-7.025,19.174-5.919c3.787,0.463,7.65,1.381,11.812,2.745c-0.092,3.39-0.143,5.086-0.248,8.475
					c-4.4-1.352-8.943-2.297-11.422-2.607c-4.152-0.52-7.021,0.102-8.389,0.916c-1.033,0.614-2.613,3.557-3.084,8.14
					c-0.271,2.648-0.408,3.973-0.68,6.621c-0.439,4.301,0.537,6.486,1.223,7.277c0.91,1.049,3.293,2.462,7.389,2.972
					c0.469,0.058,0.703,0.088,1.172,0.147c0.352,0.045,0.527,0.067,0.879,0.113c0.48-3.723,0.721-5.585,1.201-9.308
					c-2.652-0.343-3.98-0.504-6.637-0.807c0.709-3.034,1.068-4.549,1.789-7.58c2.166,0.252,3.25,0.383,5.412,0.661
					c4.594,0.588,6.887,0.912,11.469,1.617C371.697,97.066,371.541,98.067,371.234,100.068z"/>
				<path fill="#192F59" d="M410.082,108.784c-1.84,7.514-2.762,11.271-4.602,18.785c-4.363-1.07-6.551-1.576-10.936-2.53
					c1.502-6.892,2.252-10.337,3.754-17.228c-4.773-1.04-7.164-1.528-11.957-2.438c-1.314,6.93-1.973,10.395-3.285,17.324
					c-4.355-0.826-6.537-1.209-10.908-1.924c2.295-14.034,4.584-28.068,6.881-42.102c4.799,0.784,7.193,1.207,11.975,2.114
					c-1.289,6.795-1.932,10.193-3.221,16.988c4.875,0.925,7.309,1.42,12.162,2.479c1.473-6.758,2.209-10.138,3.68-16.896
					c4.814,1.048,7.215,1.604,12.008,2.777C413.783,93.684,411.932,101.234,410.082,108.784z"/>
				<path fill="#192F59" d="M440.389,101.595c-1.779,5.761-2.67,8.64-4.447,14.401c-2.275,7.37-3.412,11.055-5.688,18.424
					c-4.289-1.324-6.438-1.957-10.75-3.168c3.094-11.026,6.188-22.052,9.283-33.076c-4.289-1.204-6.438-1.781-10.748-2.881
					c0.816-3.197,1.223-4.795,2.037-7.992c4.387,1.119,6.574,1.706,10.939,2.931c4.732,1.329,7.096,2.026,11.805,3.479
					c4.391,1.355,6.578,2.06,10.941,3.523c-1.049,3.128-1.572,4.692-2.621,7.82C446.852,103.619,444.701,102.927,440.389,101.595z"
					/>
			</g>
		</g>
		<g>
			<g id="XMLID_1_">
				<g>
					<path fill="#294773" d="M156.901,311.23h290.12c-2.59,7.07-5.311,13.959-8.148,20.67H165.042
						C162.201,325.189,159.49,318.301,156.901,311.23z"/>
					<path fill="#294773" d="M148.791,286.9h306.34c-2.129,7.05-4.398,13.93-6.789,20.661H155.581
						C153.191,300.829,150.911,293.949,148.791,286.9z"/>
					<path fill="#294773" d="M142.201,262.56h319.521c-1.689,7.04-3.529,13.92-5.5,20.67H147.701
						C145.731,276.48,143.891,269.6,142.201,262.56z"/>
					<path fill="#294773" d="M137.071,238.23h329.792c-1.281,7.02-2.701,13.91-4.271,20.67h-321.25
						C139.771,252.14,138.341,245.25,137.071,238.23z"/>
					<path fill="#294773" d="M133.321,213.9h337.271c-0.881,7.01-1.91,13.89-3.09,20.66H136.411
						C135.24,227.79,134.201,220.9,133.321,213.9z"/>
					<path fill="#294773" d="M130.931,189.56h342.061c-0.5,7-1.16,13.89-1.951,20.67h-338.16
						C132.091,203.45,131.431,196.56,130.931,189.56z"/>
					<path fill="#294773" d="M473.871,173.19c-0.148,4.27-0.369,8.51-0.629,12.71H130.691c-0.27-4.2-0.49-8.44-0.64-12.71
						c0,0,8.09-3.42,22.65-7.96h298.521C465.781,169.77,473.871,173.19,473.871,173.19z"/>
					<path fill="#294773" d="M438.832,161.56H165.091c30.48-8.53,78.799-18.69,136.87-18.97
						C360.031,142.87,408.352,153.03,438.832,161.56z"/>
					<path fill="#173158" d="M451.221,165.23h-298.52c3.72-1.16,7.85-2.39,12.39-3.67h273.741
						C443.371,162.84,447.502,164.07,451.221,165.23z"/>
					<path fill="#173158" d="M473.242,185.9c-0.08,1.22-0.17,2.44-0.25,3.66H130.931c-0.08-1.22-0.17-2.44-0.24-3.66H473.242z"/>
					<path fill="#173158" d="M132.881,210.23h338.16c-0.148,1.23-0.289,2.45-0.449,3.67H133.321
						C133.171,212.68,133.031,211.45,132.881,210.23z"/>
					<path fill="#173158" d="M467.502,234.56c-0.211,1.23-0.42,2.45-0.641,3.67h-329.79c-0.23-1.22-0.45-2.44-0.66-3.67H467.502z"/>
					<path fill="#173158" d="M141.341,258.9h321.25c-0.279,1.22-0.58,2.44-0.869,3.66H142.201
						C141.911,261.35,141.621,260.12,141.341,258.9z"/>
					<path fill="#173158" d="M456.221,283.23c-0.359,1.23-0.721,2.45-1.09,3.67h-306.34c-0.37-1.22-0.73-2.439-1.09-3.67H456.221z"
						/>
					<path fill="#173158" d="M448.342,307.561c-0.439,1.229-0.881,2.449-1.32,3.67h-290.12c-0.44-1.221-0.88-2.439-1.32-3.67
						H448.342z"/>
					<path fill="#173158" d="M438.871,331.9c-0.609,1.449-1.229,2.891-1.859,4.33h-270.11c-0.62-1.441-1.24-2.881-1.86-4.33H438.871
						z"/>
				</g>
				<g>
					<path fill="none" d="M466.861,238.23c-1.279,7.02-2.699,13.91-4.271,20.67"/>
					<path fill="none" d="M137.071,238.23c1.27,7.02,2.7,13.91,4.27,20.67"/>
					<path fill="none" d="M467.502,234.56c-0.211,1.23-0.42,2.45-0.641,3.67"/>
					<path fill="none" d="M142.201,262.56c1.69,7.04,3.53,13.92,5.5,20.67"/>
					<path fill="none" d="M456.221,283.23c-0.359,1.23-0.721,2.45-1.09,3.67"/>
					<path fill="none" d="M455.131,286.9c-2.129,7.05-4.398,13.93-6.789,20.661"/>
					<path fill="none" d="M461.721,262.56c-1.689,7.04-3.529,13.92-5.5,20.67"/>
					<path fill="none" d="M462.592,258.9c-0.279,1.22-0.58,2.44-0.869,3.66"/>
					<path fill="none" d="M155.581,307.561c0.44,1.229,0.88,2.449,1.32,3.67"/>
					<path fill="none" d="M470.592,213.9c-0.881,7.01-1.91,13.89-3.09,20.66"/>
					<path fill="none" d="M473.242,185.9c-0.08,1.22-0.17,2.44-0.25,3.66"/>
					<path fill="none" d="M438.832,161.56c4.539,1.28,8.67,2.51,12.391,3.67"/>
					<path fill="none" d="M448.342,307.561c-0.439,1.229-0.881,2.449-1.32,3.67"/>
					<path fill="none" d="M451.221,165.23c14.561,4.54,22.65,7.96,22.65,7.96c-0.15,4.27-0.371,8.51-0.631,12.71"/>
					<path fill="none" d="M471.041,210.23c-0.148,1.23-0.289,2.45-0.449,3.67"/>
					<path fill="none" d="M472.992,189.56c-0.5,7-1.16,13.89-1.951,20.67"/>
					<path fill="none" d="M147.701,283.23c0.36,1.23,0.72,2.45,1.09,3.67"/>
					<path fill="none" d="M148.791,286.9c2.12,7.05,4.4,13.93,6.79,20.661"/>
					<path fill="none" d="M141.341,258.9c0.28,1.22,0.57,2.45,0.86,3.66"/>
					<path fill="none" d="M133.321,213.9c0.88,7,1.92,13.89,3.09,20.66"/>
					<path fill="none" d="M437.012,336.23h-270.11c-0.62-1.441-1.24-2.881-1.86-4.33"/>
					<path fill="none" d="M132.881,210.23c0.15,1.22,0.29,2.45,0.44,3.67"/>
					<path fill="none" d="M156.901,311.23c2.59,7.07,5.3,13.959,8.14,20.67"/>
					<path fill="none" d="M136.411,234.56c0.21,1.23,0.43,2.45,0.66,3.67"/>
					<path fill="none" d="M438.832,161.56c-30.48-8.53-78.801-18.69-136.871-18.97c-58.07,0.28-106.39,10.44-136.87,18.97"/>
					<path fill="none" d="M130.931,189.56c0.5,7,1.16,13.89,1.95,20.67"/>
					<path fill="none" d="M165.091,161.56c-4.54,1.28-8.67,2.51-12.39,3.67"/>
					<path fill="none" d="M152.701,165.23c-14.56,4.54-22.65,7.96-22.65,7.96c0.15,4.27,0.37,8.51,0.64,12.71"/>
					<path fill="none" d="M130.691,185.9c0.07,1.22,0.16,2.44,0.24,3.66"/>
					<path fill="none" d="M434.771,341.311c0.68-1.521,1.359-3.051,2.029-4.59"/>
					<path fill="none" d="M437.012,336.23h0.01c-0.068,0.17-0.148,0.33-0.221,0.49"/>
					<path fill="none" d="M437.012,336.23c-0.068,0.16-0.141,0.33-0.211,0.49"/>
					<path fill="none" d="M437.012,336.23c0.631-1.441,1.25-2.881,1.859-4.33"/>
					<path fill="none" d="M447.021,311.23c-2.59,7.07-5.311,13.959-8.15,20.67"/>
					<line fill="none" x1="156.901" y1="311.23" x2="447.021" y2="311.23"/>
					<line fill="none" x1="438.871" y1="331.9" x2="165.041" y2="331.9"/>
					<line fill="none" x1="155.581" y1="307.561" x2="448.342" y2="307.561"/>
					<line fill="none" x1="148.791" y1="286.9" x2="455.131" y2="286.9"/>
					<line fill="none" x1="147.701" y1="283.23" x2="456.221" y2="283.23"/>
					<line fill="none" x1="142.201" y1="262.56" x2="461.721" y2="262.56"/>
					<line fill="none" x1="141.341" y1="258.9" x2="462.592" y2="258.9"/>
					<line fill="none" x1="137.071" y1="238.23" x2="466.861" y2="238.23"/>
					<line fill="none" x1="136.411" y1="234.56" x2="467.502" y2="234.56"/>
					<line fill="none" x1="133.321" y1="213.9" x2="470.592" y2="213.9"/>
					<line fill="none" x1="132.881" y1="210.23" x2="471.041" y2="210.23"/>
					<line fill="none" x1="130.931" y1="189.56" x2="472.992" y2="189.56"/>
					<line fill="none" x1="152.701" y1="165.23" x2="451.221" y2="165.23"/>
					<line fill="none" x1="130.691" y1="185.9" x2="473.242" y2="185.9"/>
					<line fill="none" x1="438.832" y1="161.56" x2="165.091" y2="161.56"/>
				</g>
			</g>
		</g>
		<rect x="192.524" y="309.26" fill="#192F59" width="202.429" height="73.148"/>
		<g>
			<g>
				<path fill="#FFFFFF" d="M309.523,270.822c-0.361,0-0.551-0.034-0.551-0.034c-0.58-0.105-1.203-0.429-1.578-0.883
					c-8.54-10.337-22.627-25.346-27.207-26.35c-2.028-0.444-3.924-0.661-5.799-0.661c-3.381,0-6.096,0.698-8.969,1.438
					c-1.871,0.481-3.804,0.978-5.875,1.244c-0.107,0.014-0.214,0.021-0.32,0.021c-0.944,0-1.821-0.537-2.244-1.402
					c-0.471-0.962-0.275-2.118,0.484-2.873l35.553-35.274c0.479-0.476,1.117-0.725,1.763-0.725c0.378,0,0.759,0.086,1.112,0.262
					c0.959,0.478,1.508,1.513,1.363,2.574c-0.281,2.074-0.795,4.007-1.289,5.876c-1.147,4.322-2.23,8.404-0.891,14.751
					c0.967,4.594,15.861,18.795,26.129,27.413c0.34,0.286,0.598,0.657,0.748,1.075c0.299,0.841,0.902,3.971-3.928,8.939
					C313.98,270.373,310.732,270.822,309.523,270.822z"/>
				<path fill="#1A2F59" d="M294.779,207.822c-0.877,6.464-4.23,11.624-2.148,21.48c1.58,7.502,26.969,28.811,26.969,28.811
					s0.756,2.119-3.365,6.357c-3.475,3.571-6.002,3.852-6.709,3.852c-0.135,0-0.201-0.01-0.201-0.01s-21.113-25.559-28.6-27.199
					c-2.351-0.515-4.434-0.719-6.334-0.719c-6.058,0-10.239,2.07-15.164,2.702L294.779,207.822 M294.78,202.822
					c-1.29,0-2.563,0.5-3.522,1.451l-35.553,35.274c-1.521,1.509-1.912,3.82-0.971,5.745c0.846,1.731,2.6,2.805,4.49,2.805
					c0.211,0,0.425-0.013,0.639-0.041c2.227-0.286,4.236-0.803,6.18-1.303c2.717-0.698,5.282-1.358,8.348-1.358
					c1.691,0,3.412,0.197,5.262,0.604c2.936,0.788,14.02,11.225,25.814,25.5c0.795,0.962,1.92,1.592,3.156,1.767
					c0.275,0.039,0.578,0.059,0.9,0.059c1.895,0,5.754-0.697,10.293-5.366c5.68-5.841,5.031-10.004,4.49-11.523
					c-0.299-0.836-0.814-1.579-1.494-2.149c-14.182-11.905-24.527-23.07-25.295-26.028c-1.213-5.751-0.252-9.379,0.863-13.581
					c0.517-1.943,1.049-3.953,1.353-6.181c0.286-2.123-0.81-4.193-2.726-5.148C296.301,202.994,295.537,202.822,294.78,202.822
					L294.78,202.822z"/>
			</g>
			<g>
				<path fill="#FFFFFF" d="M255.03,245.727c-0.087,0-0.174-0.004-0.261-0.014c-13.832-0.864-24.938-5.702-33.952-14.789
					c-9.019-9.089-14.146-20.959-14.438-33.425c-0.283-11.998,4.074-23.361,11.952-31.176c7.623-7.563,18.204-11.729,29.794-11.729
					c13.012,0,25.364,5.228,34.783,14.721c9.025,9.093,13.777,20.251,14.527,34.113c0,0.008,0,0.016,0,0.024
					c0.054,0.723-0.213,1.438-0.731,1.953l-39.913,39.597C256.319,245.469,255.684,245.727,255.03,245.727z"/>
				<path fill="#1A2F59" d="M248.125,157.093c11.535,0,23.594,4.494,33.008,13.982c9.717,9.789,13.191,21.111,13.807,32.487
					c0,0.025,0,0.044,0.004,0.068l-39.913,39.597c-0.021-0.003-0.042-0.003-0.065-0.006c-11.371-0.704-22.666-4.271-32.373-14.057
					c-18.076-18.217-17.664-46.024-2.5-61.066C227.354,160.891,237.518,157.093,248.125,157.093 M248.125,152.093
					c-12.255,0-23.461,4.423-31.556,12.455c-8.363,8.296-12.989,20.328-12.69,33.009c0.307,13.107,5.692,25.583,15.163,35.127
					c9.456,9.532,21.076,14.609,35.527,15.521c0.153,0.015,0.308,0.021,0.461,0.021c1.31,0,2.578-0.514,3.521-1.45l39.914-39.597
					c1.03-1.023,1.562-2.439,1.467-3.874c0-0.004,0-0.009,0-0.014c-0.784-14.501-5.772-26.191-15.25-35.74
					C274.791,157.584,261.809,152.093,248.125,152.093L248.125,152.093z"/>
			</g>
		</g>
		<g>
			<g>
				<path fill="#FFFFFF" d="M293.575,270.407c-1.55,0-4.133-0.716-7.64-4.125c-4.9-4.766-4.668-8.38-4.572-9.057
					c0.088-0.617,0.402-1.178,0.883-1.575c10.337-8.54,25.346-22.626,26.348-27.207c1.393-6.345,0.34-10.439-0.773-14.773
					c-0.48-1.868-0.979-3.8-1.244-5.871c-0.138-1.063,0.418-2.095,1.381-2.565c0.35-0.171,0.725-0.254,1.098-0.254
					c0.652,0,1.295,0.255,1.775,0.739l35.275,35.553c0.756,0.76,0.939,1.916,0.465,2.875c-0.428,0.857-1.301,1.386-2.238,1.386
					c-0.111,0-0.223-0.007-0.336-0.022c-2.076-0.281-4.012-0.794-5.883-1.29c-2.918-0.773-5.674-1.504-9.139-1.504
					c-1.812,0-3.646,0.201-5.607,0.615c-4.594,0.967-18.797,15.86-27.416,26.127c-0.285,0.339-0.654,0.597-1.072,0.746
					C294.621,270.298,294.188,270.407,293.575,270.407L293.575,270.407z"/>
				<path fill="#1A2F59" d="M309.053,207.482l35.277,35.553c-4.98-0.673-9.186-2.817-15.357-2.817c-1.842,0-3.859,0.191-6.125,0.669
					c-7.504,1.581-28.812,26.966-28.812,26.966s-0.152,0.055-0.46,0.055c-0.833,0-2.799-0.405-5.896-3.417
					c-4.238-4.121-3.84-6.912-3.84-6.912s25.559-21.112,27.197-28.6C313.195,219.138,309.887,213.953,309.053,207.482
					 M309.053,202.482c-0.746,0-1.496,0.166-2.195,0.508c-1.926,0.941-3.036,3.004-2.764,5.13c0.287,2.224,0.804,4.232,1.303,6.174
					c1.084,4.213,2.02,7.852,0.755,13.613c-0.787,2.938-11.224,14.022-25.498,25.817c-0.96,0.793-1.59,1.917-1.767,3.149
					c-0.176,1.246-0.318,5.733,5.306,11.202c3.298,3.206,6.455,4.832,9.382,4.832c0.971,0,1.702-0.188,2.145-0.347
					c0.834-0.299,1.576-0.814,2.146-1.493c11.905-14.18,23.071-24.525,26.03-25.292c1.775-0.375,3.441-0.558,5.078-0.558
					c3.139,0,5.742,0.69,8.498,1.421c1.945,0.516,3.957,1.049,6.189,1.351c0.225,0.03,0.449,0.045,0.672,0.045
					c1.877,0,3.621-1.058,4.475-2.772c0.953-1.917,0.58-4.229-0.928-5.75l-35.275-35.553
					C311.643,202.991,310.357,202.482,309.053,202.482L309.053,202.482z"/>
			</g>
			<g>
				<path fill="#FFFFFF" d="M348.52,245.702c-0.658,0-1.301-0.26-1.773-0.739l-39.596-39.916c-0.529-0.533-0.788-1.272-0.715-2.011
					c0.873-13.854,5.711-24.956,14.793-33.963c9.391-9.318,21.652-14.451,34.527-14.451c11.566,0,22.527,4.362,30.07,11.967
					c7.816,7.875,12.084,19.272,11.707,31.267c-0.391,12.463-5.609,24.292-14.699,33.308c-9.082,9.017-20.227,13.769-34.064,14.526
					C348.688,245.698,348.604,245.702,348.52,245.702z"/>
				<path fill="#1A2F59" d="M355.758,157.122c10.73,0,21.012,3.885,28.295,11.228c15.045,15.159,15.238,42.97-2.979,61.039
					c-9.787,9.716-21.109,13.192-32.486,13.807c-0.023,0.001-0.043,0-0.066,0.006l-39.598-39.916c0.004-0.02,0.004-0.04,0.006-0.063
					c0.707-11.372,4.273-22.668,14.061-32.375C332.383,161.526,344.326,157.122,355.758,157.122 M355.758,152.122
					c-13.539,0-26.428,5.39-36.289,15.176c-9.533,9.454-14.61,21.078-15.523,35.537c-0.133,1.462,0.384,2.919,1.43,3.973
					l39.596,39.916c0.951,0.958,2.234,1.479,3.551,1.479c0.146,0,0.293-0.006,0.439-0.02c14.438-0.793,26.104-5.781,35.639-15.246
					c9.543-9.466,15.023-21.896,15.436-35.002c0.396-12.679-4.135-24.746-12.432-33.107
					C379.592,156.754,367.986,152.122,355.758,152.122L355.758,152.122z"/>
			</g>
		</g>
		<g>
			<path fill="none" d="M339.586,299.603c0.008-0.153,0.016-0.323,0.021-0.514c0.053-1.726,0.105-3.45,0.158-5.176
				c0.012-0.404,0.016-0.747,0.012-1.036c-0.492-0.055-1.148-0.104-2.012-0.129c-0.021-0.001-0.043-0.002-0.064-0.002
				c-0.064,2.25-0.129,4.5-0.193,6.751c0.654,0.05,1.242,0.082,1.766,0.098C339.383,299.598,339.486,299.601,339.586,299.603z"/>
			<path fill="none" d="M407.359,319.127c0.496,0.191,1.613,0.533,3.727,0.779c2.07,0.158,3.203,0.045,3.717-0.047
				c0.002-0.004,0.006-0.006,0.008-0.01c0.242-0.652,0.707-2.225,1.018-5.334c0.293-2.922,0.588-5.844,0.881-8.766
				c0.344-3.429,0.225-5.34,0.098-6.25c-0.51-0.222-1.605-0.596-3.664-0.885c-2.436-0.129-3.594,0.111-3.992,0.226
				c-0.295,0.697-0.855,2.399-1.164,5.759c-0.273,2.949-0.545,5.9-0.816,8.85c-0.268,2.887-0.078,4.689,0.096,5.51
				C407.295,319.016,407.328,319.07,407.359,319.127z"/>
			<path fill="none" d="M91.428,314.531c-0.086,0.588-0.18,2.342,0.632,6.496c0.563,2.883,1.127,5.766,1.69,8.646
				c0.625,3.189,1.299,4.527,1.545,4.938c0.416,0.088,1.855,0.258,5.325-0.402c0.471-0.09,0.942-0.18,1.414-0.268
				c2.119-0.398,5.53-1.414,10.136-2.971c-1.14-6.377-2.279-12.754-3.419-19.131c-5.097,0.223-9.114,0.619-11.914,1.15
				C92.596,313.799,91.636,314.359,91.428,314.531z"/>
			<path fill="none" d="M501.279,330.32c-1.408-0.982-2.746-2.068-3.982-3.254c-0.094,0.537-0.188,1.072-0.281,1.607
				c0.213,0.086,0.428,0.168,0.641,0.254C498.518,329.271,499.779,329.768,501.279,330.32z"/>
			<path fill="#192F59" d="M544.73,294.423c-4.1-1.486-10.299-3.59-16.66-4.847c-0.764-0.151-1.527-0.302-2.293-0.451
				c-0.066-0.013-0.133-0.026-0.199-0.039c-0.068-0.01-0.135-0.02-0.203-0.029c-4.711-0.681-11.172-1.569-17.482,0.258
				c-1.336,0.355-2.768,0.867-4.211,1.581c0.311-1.772,0.625-3.545,0.938-5.317c-2.479-0.437-4.955-0.866-7.436-1.286
				c-5.256-0.893-10.518-1.747-15.781-2.565c-2.484-0.386-4.969-0.763-7.453-1.133c-0.344,2.309-0.688,4.616-1.029,6.924
				c-0.207,1.384-0.412,2.769-0.617,4.152c-1.168-2.76-2.348-5.518-3.535-8.274c-0.547-1.266-1.096-2.53-1.646-3.795
				c-1.441-0.206-2.885-0.408-4.326-0.608c-5.248-0.728-10.498-1.418-15.752-2.071c-2.492-0.311-4.982-0.612-7.477-0.906
				c-0.26,2.194-0.518,4.388-0.775,6.582c-1.289-1.272-2.715-2.417-4.287-3.439c-4.977-3.296-11.354-5.368-18.896-6.097
				c-7.652-0.737-14.119,0.057-19.711,2.374c-1.938,0.787-3.729,1.77-5.381,2.921c0.002-0.036,0.004-0.072,0.008-0.108
				c0.174-2.327,0.348-4.654,0.521-6.98c-2.502-0.188-5.004-0.366-7.506-0.537c-5.273-0.36-10.553-0.683-15.832-0.97
				c-2.502-0.136-5.006-0.264-7.51-0.383c-0.07,1.454-0.141,2.907-0.209,4.361c-5.523-4.32-12.521-5.228-17.896-5.39
				c-6.438-0.205-11.928-0.227-16.336-0.225c-1.09,0-2.109,0.002-3.057,0.003c-0.018,0-0.031,0-0.049,0s-0.033,0-0.049,0
				c-1.26,0.017-2.463,0.02-3.611,0.024c-1.363,0.004-2.652,0.012-3.914,0.046c-2.414,0.064-4.826,0.135-7.238,0.215
				c-0.002,0.982-0.004,1.965-0.006,2.947c-0.176-1.094-0.352-2.189-0.529-3.283c-2.153-0.003-4.308,0-6.461,0.009
				c-7.887,0.033-15.771,0.147-23.654,0.343c-1.895,0.047-3.788,0.099-5.682,0.155c-0.466,1.711-0.93,3.423-1.392,5.134
				c-0.332,1.23-0.662,2.461-0.992,3.691c-0.401-1.201-0.806-2.402-1.21-3.604c-0.566-1.685-1.137-3.368-1.709-5.052
				c-1.898,0.065-3.797,0.135-5.695,0.21c-8.074,0.318-16.146,0.722-24.214,1.211c-2.155,0.131-4.312,0.268-6.467,0.411
				c-0.188,2.005-0.374,4.01-0.558,6.015c-1.058,11.498-2.053,22.997-3,34.497c-5.279-11.5-10.683-22.967-16.242-34.389
				c-0.723-1.485-1.448-2.97-2.176-4.453c-1.754,0.15-3.508,0.305-5.262,0.463c-5.793,0.523-11.584,1.091-17.37,1.703
				c-1.748,0.185-3.495,0.373-5.242,0.566c-0.429,1.592-0.855,3.184-1.28,4.775c-2.586,9.71-5.078,19.428-7.483,29.151
				c-1.035-8.501-2.069-17.002-3.104-25.504c-0.282-2.315-0.563-4.632-0.845-6.948c-2.493,0.304-4.984,0.615-7.475,0.935
				c-5.308,0.682-10.611,1.4-15.912,2.156c-2.487,0.354-4.974,0.718-7.459,1.089c-1.715,0.258,0,0-1.715,0.258
				c-2.485,0.375-4.969,0.759-7.452,1.15c-5.236,0.825-10.469,1.688-15.696,2.586c-2.479,0.427-4.957,0.861-7.434,1.304
				c0.037,0.205,0.073,0.41,0.11,0.615c-5.205,0.131-9.633,0.571-13.683,1.345c-9.948,1.88-22.837,7.097-27.365,20.18
				c-1.949,5.246-1.916,12.055,0.042,20.805c0.275,1.23,0.551,2.465,0.826,3.695c1.523,6.812,3.546,11.994,6.154,15.854
				c0.013,0.02,0.027,0.039,0.041,0.061c0.014,0.02,0.028,0.039,0.042,0.061c5.094,7.184,14.98,14.764,33.895,11.107
				c3.495-0.668,12.601-2.883,12.601-2.883c2.321-0.414,4.643-0.82,6.966-1.221c4.899-0.842,9.802-1.65,14.709-2.424
				c2.327-0.367,4.655-0.727,6.984-1.078c-0.348-2.309-0.697-4.613-1.045-6.922c-0.843-5.588-1.687-11.178-2.531-16.768
				c0.548-0.082,1.096-0.164,1.644-0.246c0.835,5.59,1.67,11.182,2.505,16.771c0.345,2.307,0.689,4.615,1.034,6.924
				c2.329-0.35,4.659-0.688,6.99-1.021c4.304-0.613,8.612-1.189,12.921-1.75c1.255-0.164,2.51-0.334,3.766-0.492
				c0.851-0.107,1.701-0.213,2.551-0.318c4.923-0.613,9.85-1.195,14.778-1.738c1.748-0.191,3.494-0.381,5.242-0.564
				c0.32-1.713,0.644-3.428,0.969-5.143c0.25-1.324,0.502-2.646,0.757-3.971c3.313-0.342,6.627-0.666,9.942-0.977
				c0.523,1.266,1.047,2.529,1.568,3.797c0.66,1.6,1.316,3.201,1.973,4.803c1.734-0.158,3.469-0.312,5.205-0.461
				c5.457-0.469,10.916-0.896,16.377-1.281c3.34-0.234,6.68-0.455,10.021-0.66c-0.012-0.023-0.021-0.051-0.034-0.076
				c2.888-0.148,5.774-0.289,8.661-0.416c2.1-0.092,4.201-0.178,6.301-0.258c0.154-2.084,0.311-4.166,0.467-6.246
				c0.172-2.273,0.344-4.547,0.52-6.816c0.893,2.59,1.779,5.184,2.66,7.775c0.565,1.662,1.129,3.326,1.689,4.99
				c1.766-0.072,3.531-0.145,5.297-0.211c3.654-0.135,7.309-0.252,10.965-0.352c1.766-0.047,3.532-0.09,5.299-0.129
				c0.453-1.697,0.908-3.395,1.365-5.09c0.711-2.643,1.43-5.285,2.153-7.926c0.32,2.254,0.638,4.51,0.955,6.764
				c0.287,2.049,0.574,4.098,0.858,6.146c2.082-0.037,4.164-0.064,6.246-0.09c5.146-0.057,10.291-0.074,15.438-0.059
				c1.008,0.002,2.014,0.01,3.021,0.016c1.266,0.008,2.529,0.018,3.795,0.029c4.508,0.043,9.014,0.107,13.521,0.207
				c2.348,0.053,4.695,0.111,7.043,0.18c0.066-2.334,0.135-4.666,0.201-6.998c0.088-3.1,0.178-6.201,0.266-9.301
				c0.936,0.082,1.906,0.152,2.748,0.18c0.354,0.01,0.67,0.014,0.963,0.01c5.174,0.141,11.676-0.244,17.244-3.867
				c-0.219,4.588-0.438,9.176-0.656,13.764c-0.109,2.332-0.223,4.662-0.334,6.992c2.348,0.111,4.693,0.23,7.039,0.359
				c4.947,0.27,9.895,0.57,14.838,0.908c2.346,0.16,4.689,0.328,7.033,0.502c0.17-2.293,0.344-4.586,0.514-6.879
				c1.377,1.363,2.891,2.607,4.572,3.697c4.787,3.066,10.768,4.93,17.861,5.611c7.08,0.686,13.299,0.006,18.545-2.066
				c1.684-0.652,3.258-1.465,4.744-2.402c-0.252,2.141-0.504,4.277-0.756,6.418c2.336,0.275,4.672,0.559,7.008,0.85
				c4.924,0.611,9.844,1.26,14.762,1.939c2.332,0.324,4.664,0.654,6.994,0.994c0.336-2.311,0.67-4.619,1.006-6.928
				c0.207-1.418,0.412-2.834,0.617-4.25c1.102,2.766,2.189,5.533,3.27,8.303c0.494,1.273,0.988,2.547,1.479,3.818
				c1.359,0.207,2.717,0.416,4.076,0.627c4.934,0.766,9.865,1.566,14.791,2.402c2.324,0.395,4.645,0.797,6.969,1.205
				c0,0,12.352,2.717,17.449,3.701c0.613,0.119,1.227,0.238,1.84,0.357c0.062,0.014,0.125,0.023,0.188,0.037
				c0.061,0.01,0.125,0.018,0.188,0.025c0.051,0.008,0.104,0.016,0.154,0.021c4.705,0.666,10.537,1.529,16.418-0.131
				c5.246-1.402,12.24-5.184,15.842-15.523c2.459-6.867,1.977-13.258-1.506-18.482c-2.049-3.225-5.033-5.729-8.482-7.898
				c1.537,0.578,2.768,1.098,3.461,1.428c3.145,1.486,6.275,2.986,9.398,4.502c0.383-3.287,0.764-6.576,1.141-9.865
				c0.482-4.219,0.963-8.439,1.438-12.661c0.203-1.811,0.406-3.622,0.605-5.434C548.418,295.766,546.576,295.092,544.73,294.423z
				 M265.415,333.785c-4.5-13.494-9.149-26.962-13.95-40.398c-1.074,13.721-2.084,27.441-3.029,41.166
				c-5.66,0.248-11.319,0.541-16.978,0.879c1.597-19.426,3.349-38.849,5.259-58.269c8.019-0.486,16.041-0.888,24.065-1.204
				c3.11,9.056,6.153,18.124,9.132,27.204c2.414-9.254,4.896-18.499,7.445-27.737c7.835-0.194,15.672-0.308,23.51-0.341
				c3.217,19.308,6.271,38.63,9.168,57.962c-5.533-0.023-11.066-0.002-16.6,0.061c-1.824-13.635-3.711-27.264-5.662-40.887
				c-3.928,13.717-7.702,27.455-11.325,41.211C272.772,333.529,269.094,333.648,265.415,333.785z M111.488,350.545
				c-2.406,0.832-5.299,1.605-8.619,2.24c-12.263,2.352-21.084-0.332-26.624-8.24c-1.799-2.695-3.61-6.891-5.051-13.535
				c-0.267-1.234-0.535-2.469-0.802-3.703c-1.77-8.156-1.525-13.586-0.174-17.115c2.754-7.933,9.992-13.185,21.645-15.416
				c4.886-0.934,10.055-1.259,15.77-1.25c0.664,3.754,1.328,7.509,1.992,11.264c-6.197,0.232-10.787,0.697-14.091,1.323
				c-5.48,1.043-8.453,2.112-10.213,4.588c-1.56,1.811-1.75,5.396-0.461,11.762c0.583,2.877,1.165,5.756,1.748,8.633
				c1.213,5.984,2.893,8.248,4.292,9.15c2.021,1.566,5.41,1.91,11.028,0.842c0.468-0.092,0.937-0.18,1.405-0.268
				c2.733-0.516,6.785-1.742,12.038-3.535c0.668,3.779,1.337,7.561,2.005,11.338C115.789,349.139,113.816,349.729,111.488,350.545z
				 M122.564,348.658c-3.274-19.041-6.548-38.082-9.822-57.123c5.195-0.894,10.396-1.751,15.6-2.571
				c1.22,7.736,2.44,15.473,3.66,23.209c5.39-0.852,10.785-1.66,16.184-2.432c-1.106-7.752-2.212-15.506-3.318-23.259
				c5.268-0.751,10.539-1.466,15.814-2.143c1.345,10.476,2.689,20.951,4.035,31.428c1.115,8.689,2.23,17.375,3.346,26.062
				c-5.006,0.643-10.01,1.32-15.009,2.033c-1.128-7.904-2.256-15.811-3.384-23.717c-5.348,0.762-10.692,1.564-16.031,2.406
				c1.244,7.889,2.488,15.775,3.731,23.666C132.43,346.998,127.495,347.812,122.564,348.658z M170.78,341.486
				c4.671-20.061,9.73-40.1,15.175-60.104c5.751-0.608,11.506-1.172,17.264-1.692c9.106,18.449,17.845,37.004,26.213,55.653
				c-0.01,0.129-0.021,0.258-0.03,0.387c-5.431,0.383-10.859,0.809-16.284,1.275c-1.165-2.873-2.337-5.744-3.518-8.615
				c-6.873,0.607-13.743,1.283-20.607,2.021c-0.574,3.041-1.141,6.082-1.699,9.125C181.784,340.145,176.28,340.793,170.78,341.486z
				 M329.82,316.303c-0.125,5.666-0.25,11.332-0.375,16.998c-4.881-0.107-9.762-0.184-14.643-0.225
				c0.164-19.295,0.328-38.588,0.492-57.882c2.229-0.059,4.701-0.031,7.428-0.067c4.703-0.005,11.227-0.034,19.145,0.219
				c9.408,0.306,14.34,3.023,17.125,8.332c1.264,2.769,2.15,6.295,1.859,12.161c-0.045,0.9-0.088,1.801-0.133,2.701
				c-0.244,4.939-0.816,8.394-1.871,10.199c-3.193,6.275-8.475,8.947-18.318,8.627c-0.213,0.006-0.469,0.004-0.762-0.004
				c-1.355-0.043-3.486-0.246-5.508-0.488C332.914,316.684,331.408,316.492,329.82,316.303z M514.525,310.453
				c-0.607,0.986-0.793,1.977-0.498,3.055c0.807,2.748,4.582,4.645,9.389,7.1c5.127,2.518,10.574,5.391,13.104,9.408
				c3.012,4.439,1.898,9.5,0.842,12.514c-2.047,6.041-5.762,9.738-10.957,11.104c-4.455,1.279-9.277,0.543-13.645-0.074
				c-0.617-0.121-1.234-0.24-1.854-0.359c-6.713-1.305-13.336-3.527-17.025-4.805c0.365-4.33,0.727-8.662,1.082-12.992
				c2.801,1.111,10.648,4.174,17.201,5.445c5.543,1.068,8.982,0.51,10.334-1.742c0.668-0.891,0.867-1.873,0.518-2.971
				c-0.703-2.586-4.105-4.377-8.594-6.58c-4.734-2.176-10.791-5.254-13.959-9.584c-2.998-4.377-2.162-9.246-1.17-12.525
				c1.83-6.189,5.414-9.963,10.895-11.397c4.617-1.354,9.729-0.703,14.246-0.052c0.76,0.149,1.52,0.299,2.277,0.449
				c5.941,1.173,11.793,3.179,15.49,4.521c-0.445,4.224-0.898,8.446-1.354,12.671c-2.434-1.156-9.021-3.729-15.059-4.926
				C519.752,307.508,516.039,308.148,514.525,310.453z M409.295,338.49c-6.006-0.58-10.898-2.09-14.645-4.49
				c-3.965-2.576-6.775-6.119-8.416-10.814c-1.133-2.949-1.432-7.697-0.953-14.326c0.092-1.26,0.182-2.519,0.271-3.777
				c0.582-8.092,2.121-13.64,4.717-16.469c2.195-3.011,5.008-5.275,8.684-6.757c4.363-1.809,9.648-2.438,15.98-1.827
				c6.25,0.604,11.402,2.239,15.342,4.849c3.33,2.158,5.578,4.909,7.24,8.294c1.92,3.34,2.379,9.002,1.402,17.057
				c-0.15,1.254-0.303,2.508-0.453,3.762c-0.816,6.75-2.018,11.354-3.6,13.889c-2.508,4.295-5.955,7.312-10.336,9.004
				C420.395,338.525,415.299,339.07,409.295,338.49z M439.027,341.309c2.383-19.146,4.768-38.295,7.148-57.441
				c5.223,0.649,10.441,1.336,15.656,2.059c4.773,10.934,9.377,21.896,13.809,32.882c1.562-10.055,3.125-20.109,4.688-30.164
				c5.232,0.813,10.461,1.663,15.684,2.55c-1.766,10.412-3.531,20.825-5.301,31.239c-1.461,8.609-2.922,17.219-4.383,25.828
				c-4.957-0.84-9.92-1.646-14.887-2.418c-4.266-11.092-8.701-22.16-13.312-33.201c-1.414,10.207-2.828,20.414-4.242,30.621
				C448.938,342.576,443.984,341.926,439.027,341.309z M379.119,335.541c-4.977-0.34-9.955-0.645-14.936-0.914
				c1.049-19.293,2.096-38.585,3.145-57.877c5.246,0.285,10.49,0.604,15.734,0.964c-0.719,10.537-1.438,21.074-2.156,31.61
				C380.311,318.064,379.715,326.803,379.119,335.541z"/>
			<path fill="#FFFFFF" d="M115.37,337.283c-5.253,1.793-9.305,3.021-12.038,3.535c-0.468,0.09-0.937,0.178-1.405,0.268
				c-5.619,1.068-9.007,0.727-11.028-0.842c-1.399-0.902-3.079-3.164-4.292-9.148c-0.583-2.879-1.165-5.756-1.748-8.635
				c-1.289-6.363-1.099-9.951,0.461-11.76c1.76-2.479,4.732-3.547,10.213-4.589c3.304-0.626,7.894-1.091,14.091-1.323
				c-0.664-3.755-1.328-7.51-1.992-11.264c-5.715-0.009-10.884,0.316-15.77,1.25c-11.653,2.231-18.891,7.483-21.645,15.417
				c-1.351,3.529-1.595,8.959,0.174,17.115c0.267,1.234,0.535,2.469,0.802,3.701c1.441,6.646,3.252,10.842,5.051,13.537
				c5.54,7.906,14.36,10.592,26.624,8.24c3.32-0.635,6.213-1.41,8.619-2.24c2.328-0.818,4.301-1.406,5.887-1.924
				C116.707,344.844,116.038,341.064,115.37,337.283z"/>
			<path fill="#FFFFFF" d="M149.669,320.148c1.128,7.906,2.256,15.812,3.384,23.717c4.999-0.713,10.002-1.391,15.009-2.033
				c-1.115-8.688-2.23-17.375-3.346-26.062c-1.345-10.477-2.69-20.952-4.035-31.428c-5.275,0.677-10.547,1.392-15.814,2.143
				c1.106,7.753,2.212,15.507,3.318,23.259c-5.399,0.771-10.793,1.58-16.184,2.432c-1.22-7.736-2.44-15.473-3.66-23.209
				c-5.204,0.82-10.404,1.678-15.6,2.571c3.274,19.041,6.548,38.082,9.822,57.123c4.931-0.848,9.866-1.66,14.806-2.438
				c-1.244-7.889-2.488-15.777-3.731-23.666C138.977,321.713,144.321,320.91,149.669,320.148z"/>
			<path fill="#FFFFFF" d="M209.6,328.391c1.18,2.871,2.352,5.742,3.517,8.615c5.425-0.469,10.854-0.893,16.284-1.275
				c0.011-0.129,0.021-0.258,0.031-0.387c-8.369-18.648-17.106-37.204-26.215-55.653c-5.758,0.521-11.512,1.084-17.263,1.692
				c-5.445,20.004-10.503,40.043-15.175,60.104c5.5-0.691,11.005-1.342,16.513-1.949c0.56-3.041,1.125-6.084,1.699-9.125
				C195.856,329.674,202.725,329,209.6,328.391z M195.821,293.973c3.407,7.975,6.757,15.965,10.05,23.969
				c-5.086,0.463-10.17,0.963-15.251,1.496C192.297,310.947,194.03,302.458,195.821,293.973z"/>
			<path fill="#192F59" d="M195.821,293.973c-1.792,8.485-3.524,16.975-5.201,25.465c5.081-0.533,10.165-1.033,15.251-1.496
				C202.578,309.938,199.229,301.947,195.821,293.973z"/>
			<path fill="#FFFFFF" d="M293.438,333.107c5.533-0.062,11.066-0.084,16.6-0.061c-2.896-19.332-5.951-38.654-9.168-57.962
				c-7.838,0.033-15.674,0.146-23.51,0.341c-2.549,9.238-5.031,18.483-7.445,27.737c-2.979-9.08-6.021-18.148-9.132-27.204
				c-8.024,0.316-16.048,0.718-24.065,1.204c-1.91,19.42-3.662,38.843-5.259,58.269c5.658-0.338,11.317-0.631,16.978-0.879
				c0.947-13.725,1.957-27.445,3.029-41.166c4.801,13.437,9.45,26.904,13.95,40.398c3.679-0.137,7.357-0.256,11.036-0.354
				c3.624-13.756,7.398-27.494,11.325-41.211C289.727,305.844,291.613,319.473,293.438,333.107z"/>
			<path fill="#FFFFFF" d="M339.768,317.361c0.293,0.01,0.549,0.012,0.762,0.004c9.846,0.32,15.125-2.352,18.318-8.625
				c1.055-1.807,1.627-5.26,1.871-10.199c0.045-0.9,0.088-1.801,0.133-2.701c0.291-5.866-0.596-9.393-1.859-12.161
				c-2.785-5.309-7.717-8.026-17.125-8.332c-7.918-0.253-14.439-0.224-19.145-0.219c-2.727,0.036-5.197,0.009-7.428,0.067
				c-0.164,19.294-0.328,38.588-0.492,57.881c4.881,0.043,9.762,0.117,14.643,0.225c0.125-5.666,0.25-11.332,0.375-16.998
				c1.588,0.191,3.094,0.383,4.439,0.572C336.281,317.115,338.412,317.32,339.768,317.361z M330.49,285.939
				c3.061-0.187,5.506-0.244,7.477-0.188c4.621,0.135,6.641,0.888,7.91,2.18c0.861,1.036,1.379,2.447,1.238,6.23
				c-0.064,1.725-0.129,3.45-0.191,5.175c-0.137,3.629-0.816,4.686-2.066,5.88c-0.859,0.913-2.066,1.49-5.797,1.375
				c-2.084-0.062-4.959-0.339-9.008-0.874C330.199,299.125,330.344,292.532,330.49,285.939z"/>
			<path fill="#192F59" d="M344.855,305.216c1.25-1.194,1.932-2.251,2.066-5.88c0.064-1.725,0.129-3.45,0.191-5.175
				c0.143-3.783-0.377-5.194-1.236-6.23c-1.271-1.292-3.289-2.045-7.91-2.18c-1.973-0.057-4.418,0.001-7.479,0.188
				c-0.146,6.594-0.291,13.187-0.438,19.779c4.049,0.534,6.924,0.812,9.008,0.874C342.791,306.706,343.998,306.129,344.855,305.216z
				"/>
			<path fill="#FFFFFF" d="M383.062,277.714c-5.244-0.358-10.488-0.679-15.734-0.964c-1.049,19.292-2.096,38.584-3.145,57.877
				c4.98,0.27,9.959,0.574,14.936,0.914c0.596-8.738,1.191-17.477,1.787-26.217C381.625,298.788,382.344,288.251,383.062,277.714z"
				/>
			<path fill="#FFFFFF" d="M434.867,327.877c1.582-2.535,2.781-7.139,3.598-13.889c0.152-1.254,0.305-2.508,0.455-3.762
				c0.977-8.055,0.518-13.717-1.402-17.057c-1.662-3.385-3.91-6.136-7.24-8.294c-3.939-2.609-9.092-4.245-15.342-4.849
				c-6.334-0.61-11.619,0.019-15.982,1.827c-3.674,1.481-6.486,3.746-8.682,6.757c-2.596,2.829-4.135,8.377-4.717,16.469
				c-0.092,1.26-0.182,2.52-0.271,3.778c-0.479,6.629-0.18,11.377,0.953,14.326c1.641,4.695,4.451,8.238,8.416,10.812
				c3.744,2.402,8.639,3.912,14.643,4.492c6.006,0.58,11.102,0.033,15.236-1.609C428.91,335.189,432.357,332.172,434.867,327.877z
				 M423.986,306.505c-0.312,2.92-0.625,5.84-0.939,8.76c-0.633,5.916-1.91,8.889-3.277,9.754c-1.449,1.639-4.539,2.244-9.355,1.855
				c-4.799-0.539-7.791-1.73-8.902-3.615c-1.176-1.111-2.074-4.604-1.574-10.453c0.254-2.951,0.506-5.903,0.76-8.855
				c0.553-6.469,2.146-9.823,3.775-10.61c1.762-1.396,4.85-1.975,9.342-1.698c4.465,0.587,7.387,1.747,8.848,3.453
				C424.109,296.18,424.67,300.127,423.986,306.505z"/>
			<path fill="#192F59" d="M422.662,295.096c-1.461-1.706-4.385-2.866-8.848-3.453c-4.492-0.276-7.582,0.303-9.342,1.698
				c-1.629,0.787-3.225,4.142-3.777,10.61c-0.252,2.952-0.506,5.903-0.758,8.854c-0.5,5.852,0.398,9.342,1.572,10.455
				c1.111,1.885,4.105,3.076,8.904,3.615c4.816,0.389,7.904-0.219,9.354-1.855c1.367-0.867,2.646-3.838,3.279-9.754
				c0.312-2.922,0.625-5.842,0.938-8.762C424.67,300.127,424.109,296.18,422.662,295.096z"/>
			<path fill="#FFFFFF" d="M471.441,345.842c4.967,0.771,9.93,1.578,14.887,2.42c1.461-8.609,2.922-17.219,4.383-25.83
				c1.77-10.412,3.535-20.826,5.301-31.238c-5.223-0.887-10.451-1.736-15.684-2.55c-1.562,10.055-3.125,20.11-4.688,30.165
				c-4.432-10.986-9.035-21.949-13.809-32.883c-5.215-0.723-10.434-1.409-15.656-2.059c-2.383,19.146-4.766,38.293-7.148,57.44
				c4.957,0.617,9.91,1.27,14.859,1.955c1.414-10.207,2.828-20.414,4.242-30.621C462.74,323.684,467.178,334.752,471.441,345.842z"
				/>
			<path fill="#FFFFFF" d="M540.848,313.635c0.455-4.225,0.906-8.447,1.354-12.671c-3.697-1.342-9.549-3.348-15.49-4.521
				c-0.76-0.15-1.52-0.3-2.277-0.449c-4.52-0.651-9.631-1.303-14.248,0.052c-5.479,1.435-9.062,5.208-10.893,11.397
				c-0.992,3.279-1.828,8.148,1.17,12.525c3.168,4.33,9.223,7.408,13.957,9.584c4.488,2.203,7.893,3.994,8.596,6.58
				c0.35,1.098,0.148,2.08-0.518,2.971c-1.352,2.252-4.791,2.812-10.334,1.742c-6.553-1.271-14.402-4.334-17.201-5.445
				c-0.355,4.33-0.719,8.662-1.084,12.992c3.691,1.277,10.312,3.5,17.027,4.805c0.617,0.119,1.234,0.238,1.852,0.359
				c4.367,0.617,9.189,1.354,13.646,0.074c5.193-1.365,8.91-5.062,10.957-11.104c1.057-3.014,2.17-8.074-0.844-12.514
				c-2.527-4.02-7.975-6.893-13.102-9.408c-4.807-2.455-8.584-4.352-9.389-7.1c-0.295-1.078-0.109-2.066,0.496-3.055
				c1.516-2.305,5.229-2.945,11.264-1.746C531.824,309.906,538.414,312.479,540.848,313.635z"/>
		</g>
		<g>
			<path fill="#FFFFFF" d="M349.311,474.387c-17.797,6.584-36.559,0.197-41.906-14.26s4.74-31.518,22.535-38.1
				c17.797-6.586,36.559-0.201,41.904,14.258C377.193,450.744,367.102,467.805,349.311,474.387z"/>
			<path fill="#FFFFFF" d="M332.369,416.736c0,0-11.387-5.461-18.93-12.08c-7.543-6.615-22.43-5.398-23.975-3.438
				c0,0,8.871,3.484,7.959,6.764c-0.91,3.281-9.137,8.93-15.576,1.838c-6.437-7.096-7.772-11.779-16.33-14.143
				c-8.56-2.361-18.775,2.047-18.775,2.047s10.234,0.916,9.5,8.4c-0.734,7.482-13.299,7.869-17.48-2.113
				c-4.182-9.98-19.953-10.715-24.297-7.227c-4.344,3.486-17.063,4.992-27.62-4.867c0,0,3.4,18.934,26.333,18.414
				c22.935-0.521,15.851,15.303,4.153,10.281c0,0,11.636,14.371,28.982,10.15c17.347-4.227,18.348,17.547,0.254,9.354
				c0,0,3.409,12.428,15.112,13.395s25.485-11.189,41.123,8.965c0,0-7.617-11.336-4.15-21.934c0,0-13.715-12.684-23.398-4.646
				c0,0-2.904-19.697-22.185-16.416c0,0,14.807-8.596,29.053,0.986c14.248,9.584,21.614,7.07,23.202,7
				C305.325,427.469,316.766,418.875,332.369,416.736z"/>
		</g>
		<g>
			<polygon fill="#192F59" points="270.76,376.365 282.15,376.365 276.454,357.322 			"/>
			<path fill="#192F59" d="M408.201,340.941h-25.984h-6v0.061h-9.301h-6v6v26.043c0,1.939-0.182,3.07-0.314,3.637
				c-0.393,0.096-1.096,0.221-2.227,0.268c-1.242-0.053-1.979-0.201-2.361-0.307c-0.145-0.557-0.359-1.73-0.359-3.775v-25.865v-6h-6
				h-11.035h-6v0.854c-4.35-0.805-8.26-1.209-11.91-1.209c-10.4,0-17.943,3.678-22.425,10.93c-1.821,2.719-2.899,6.562-3.282,11.633
				l-6.613-18.305l-1.432-3.961h-4.212h-12.459h-4.2l-1.438,3.947l-10.369,28.486l0.689-7.875l0.348-3.957h2.643v-6v-8.604v-6h-6
				h-25.984h-6v6v29.834h-6.979v-29.834v-6h-6h-11.274h-6v6v44.496v6h6h24.252h2.386h3.614h3.033h16.516h6.437h2.132h3.868h8.708
				h4.482l1.271-4.299l0.745-2.523h6.615l0.783,2.57l1.294,4.252h4.445h12.517h8.55l-1.029-2.848
				c3.564,1.928,8.209,3.203,14.307,3.203c3.723,0,7.238-0.277,10.752-0.85c1.625-0.271,3.074-0.6,4.402-0.916l4.609-1.1v-2.881
				c1.148,0.979,2.406,1.854,3.793,2.6c4.029,2.133,8.785,3.205,14.17,3.205s10.143-1.072,14.139-3.189
				c1.334-0.691,2.564-1.547,3.705-2.521v5.297h6h25.984h6v-6v-8.781v-6h-3.967l0.266-3.027l0.713-8.127l0.346-3.957h2.643v-6
				v-8.604v-6H408.201L408.201,340.941z M408.201,355.543h-14.535v9.434h11.568l-0.711,8.127h-10.857v9.553h14.535v8.779h-25.984
				v-44.494h25.984V355.543z M358.373,391.852c-4.568,0-8.305-0.891-11.33-2.492c-3.205-1.721-5.518-4.27-6.941-7.713
				c-1.01-2.076-1.482-5.754-1.482-11.033v-23.611h11.035v25.865c0,4.51,0.891,7.061,1.84,7.83c1.008,1.365,3.322,2.137,6.881,2.256
				c3.619-0.119,5.873-0.891,6.822-2.256c0.891-0.77,1.721-3.143,1.721-7.652v-26.043h11.213v23.611c0,5.16-0.533,8.84-1.543,11.033
				c-1.482,3.502-3.797,6.111-6.881,7.713C366.68,390.961,362.883,391.852,358.373,391.852z M320.646,391.793
				c-9.314,0-15.484-3.383-18.391-10.205c-0.892-2.195-1.425-5.814-1.425-11.035v-2.906c0-6.17,0.892-10.5,2.492-12.814
				c3.321-5.457,8.897-8.188,17.384-8.188c3.559,0,7.236,0.416,11.27,1.188l0.949,8.779c-4.33-0.711-8.721-1.066-11.094-1.066
				c-3.975,0-6.586,0.652-7.832,1.957c-1.127,0.713-2.135,3.975-2.135,8.779v6.941c0,4.51,0.83,6.705,1.957,7.416
				c1.01,1.482,3.561,2.195,7.713,2.195h1.186h0.893v-9.789h-6.586l0.891-8.068h5.279h11.213v5.279v2.789v17.145
				c-1.246,0.297-2.551,0.594-3.977,0.832C327.885,391.436,324.621,391.793,320.646,391.793z M266.665,391.436H254.09l16.194-44.494
				h12.459l16.077,44.494h-12.518l-2.076-6.822h-15.543L266.665,391.436z M195.721,391.436v-44.494h11.271v35.834h14.477l0.89,8.66
				H195.721z M225.973,346.941h25.984v8.604h-14.535v9.432h11.568l-0.712,8.129h-10.856v9.551h14.535v8.781h-25.984V346.941
				L225.973,346.941z"/>
			<polygon fill="#FFFFFF" points="206.992,382.775 206.992,346.941 195.721,346.941 195.721,391.436 222.358,391.436 
				221.469,382.775 			"/>
			<polygon fill="#FFFFFF" points="251.957,391.436 251.957,382.654 237.422,382.654 237.422,373.104 248.279,373.104 
				248.99,364.977 237.422,364.977 237.422,355.543 251.957,355.543 251.957,346.941 225.973,346.941 225.973,391.436 			"/>
			<path fill="#FFFFFF" d="M286.303,391.436h12.518l-16.077-44.494h-12.459l-16.194,44.494h12.575l2.019-6.822h15.543
				L286.303,391.436z M270.76,376.365l5.694-19.043l5.695,19.043H270.76z"/>
			<path fill="#FFFFFF" d="M334.41,373.045v-2.789v-5.279h-11.213h-5.279l-0.891,8.068h6.586v9.789h-0.891h-1.186
				c-4.152,0-6.703-0.713-7.713-2.195c-1.127-0.711-1.957-2.906-1.957-7.416v-6.941c0-4.805,1.008-8.066,2.135-8.779
				c1.246-1.305,3.857-1.957,7.832-1.957c2.373,0,6.764,0.355,11.094,1.066l-0.949-8.779c-4.035-0.771-7.713-1.188-11.271-1.188
				c-8.484,0-14.061,2.729-17.383,8.188c-1.602,2.314-2.492,6.645-2.492,12.814v2.906c0,5.221,0.533,8.84,1.424,11.035
				c2.906,6.822,9.076,10.205,18.393,10.205c3.975,0,7.236-0.357,9.787-0.771c1.426-0.238,2.73-0.535,3.977-0.832v-17.145H334.41z"
				/>
			<path fill="#FFFFFF" d="M376.586,381.646c1.012-2.193,1.543-5.873,1.543-11.033v-23.611h-11.213v26.043
				c0,4.51-0.83,6.883-1.721,7.652c-0.949,1.365-3.203,2.137-6.822,2.256c-3.559-0.119-5.873-0.891-6.881-2.256
				c-0.949-0.77-1.84-3.32-1.84-7.83v-25.865h-11.035v23.611c0,5.279,0.475,8.957,1.484,11.033c1.424,3.441,3.736,5.992,6.941,7.713
				c3.025,1.604,6.762,2.492,11.33,2.492c4.51,0,8.307-0.891,11.332-2.492C372.789,387.758,375.104,385.148,376.586,381.646z"/>
			<polygon fill="#FFFFFF" points="382.217,346.941 382.217,391.436 408.201,391.436 408.201,382.654 393.666,382.654 
				393.666,373.104 404.523,373.104 405.234,364.977 393.666,364.977 393.666,355.543 408.201,355.543 408.201,346.941 			"/>
		</g>
		<path fill="none" d="M341.648,539.574c0,0,182.389-146.59,176.889-374.501"/>
		
			<text transform="matrix(0.7265 -0.6872 0.6872 0.7265 351.2158 531.3809)" fill="#163256" font-family="'FacebookLetterFaces'" font-size="27">B</text>
		
			<text transform="matrix(0.7265 -0.6872 0.6872 0.7265 364.2412 519.0537)" fill="#163256" font-family="'FacebookLetterFaces'" font-size="27">O</text>
		
			<text transform="matrix(0.7265 -0.6872 0.6872 0.7265 377.6621 505.3291)" fill="#163256" font-family="'FacebookLetterFaces'" font-size="27">O</text>
		
			<text transform="matrix(0.7265 -0.6872 0.6872 0.7265 390.665 491.207)" fill="#163256" font-family="'FacebookLetterFaces'" font-size="27">M</text>
		
			<text transform="matrix(0.7265 -0.6872 0.6872 0.7265 408.9414 469.1426)" fill="#163256" font-family="'FacebookLetterFaces'" font-size="27"> </text>
		
			<text transform="matrix(0.7265 -0.6872 0.6872 0.7265 415.8818 460.3037)" fill="#163256" font-family="'FacebookLetterFaces'" font-size="27">G</text>
		
			<text transform="matrix(0.7265 -0.6872 0.6872 0.7265 426.2627 446.3076)" fill="#163256" font-family="'FacebookLetterFaces'" font-size="27">O</text>
		
			<text transform="matrix(0.7265 -0.6872 0.6872 0.7265 437.168 430.5137)" fill="#163256" font-family="'FacebookLetterFaces'" font-size="27">T</text>
		
			<text transform="matrix(0.7265 -0.6872 0.6872 0.7265 446.5107 415.9336)" fill="#163256" font-family="'FacebookLetterFaces'" font-size="27"> </text>
		
			<text transform="matrix(0.7265 -0.6872 0.6872 0.7265 452.3369 406.3105)" fill="#163256" font-family="'FacebookLetterFaces'" font-size="27"></text>
		
			<text transform="matrix(0.7265 -0.6872 0.6872 0.7265 455.8389 400.3877)" fill="#163256" font-family="'FacebookLetterFaces'" font-size="27">E</text>
		
			<text transform="matrix(0.7265 -0.6872 0.6872 0.7265 462.7627 388.3018)" fill="#163256" font-family="'FacebookLetterFaces'" font-size="27">M</text>
	</g>
</g>
</svg>
