<?xml version="1.0" encoding="utf-8"?>
<!-- Generator: Adobe Illustrator 22.1.0, SVG Export Plug-In . SVG Version: 6.00 Build 0)  -->
<svg version="1.1" id="Layer_1" xmlns="http://www.w3.org/2000/svg" xmlns:xlink="http://www.w3.org/1999/xlink" x="0px" y="0px"
	 viewBox="0 0 800 800" style="enable-background:new 0 0 800 800;" xml:space="preserve">
<style type="text/css">
	.st0{fill:#3C4344;}
	.st1{fill:#FFFFFF;}
</style>
<rect x="-0.5" y="0.3" class="st0" width="799.7" height="799.7"/>
<g>
	<path class="st1" d="M155,216.9v366.2c0,1.3,1.1,2.4,2.4,2.4h485.2c1.3,0,2.4-1.1,2.4-2.4V216.9c0-1.3-1.1-2.4-2.4-2.4H157.4
		C156.1,214.5,155,215.6,155,216.9z M355.5,242.6c8.8,0,17.6,0,26.3-0.1c1.3,0,2.4,1.1,2.4,2.4v100.7c0,1.5,1.4,2.7,2.9,2.3
		c6.6-1.4,11-2.3,17.6-3.8c1.5-0.3,2.9,0.8,2.9,2.3v27.2c0,1.1-0.7,2-1.8,2.3c-16.6,4.6-33.1,9.3-49.7,13.9c-1.5,0.4-3-0.7-3-2.3
		V245C353.1,243.7,354.1,242.6,355.5,242.6z M183.1,244.9c0-1.3,1.1-2.4,2.4-2.4c9.2,0,18.5,0.1,27.8,0c12.5-0.3,25.6,3.8,33.4,13.7
		c9.5,12.1,13,29,12.8,44.2c-0.2,16.3-3.1,35.2-13.6,48.6c-7.1,9.2-17.9,14.5-29.3,16c-0.9,1-1.4,1.7-2.3,2.7V427
		c0,1.1-0.7,2-1.8,2.3c-8.8,2.5-17.6,4.9-26.3,7.4c-1.5,0.4-3-0.7-3-2.3V244.9z M268.4,484.5c-0.4,18.5-1,38.4-9.8,55.1
		c-6.2,11.7-18.7,17.7-31.6,17.9c-12.5,0.1-24.5-5.4-32.3-15.2c-8.9-11.1-11.7-26.6-11.6-40.4c0-15.2,3.2-31.4,11.7-44.3
		c7.4-11.3,19.3-20.8,32-24.7c16.5-5,31.7,4.1,38.3,19.4c0.5,1.1,0.1,2.4-0.9,3c-8.3,5.3-16.6,10.4-25.1,15.4
		c-1.4,0.8-3.2,0.1-3.5-1.4c-0.6-2.2-1.4-4-2.5-5.3c-1.6-1.9-3.7-2.7-6-2c-13.2,3.6-12.5,27.8-12.7,38.6c-0.2,10,0.9,17.4,2.8,21.9
		c1.9,4.5,4.8,6.6,8.9,6.3c1.6-0.1,3.1-0.6,4.4-1.6c1.3-0.9,2.4-2.2,3.4-3.8c0.9-1.6,1.6-3.5,2.1-5.8c0.3-1.4,0.6-2.9,0.7-4.6
		c0.1-1.5-1.1-2.7-2.6-2.6c-2.1,0.2-3.8,0.4-5.9,0.6c-1.4,0.2-2.6-1-2.6-2.4V488c0-1.2,0.9-2.2,2-2.4c12.7-2.1,25.4-4.2,38.1-6.2
		c1.5-0.2,2.8,0.9,2.8,2.4V484.5z M259.8,328.2c0-22.9,2.7-48.5,15.7-68.6c6.2-9.5,16.1-17.2,27.7-17.1c13.3,0.2,25,9.5,31.2,20.8
		c8.9,16.1,11.3,36.1,11.6,54.4c0.3,18.9-3.6,39.5-11.8,56.5c-6.1,12.7-16.7,25.3-30.6,29.7c-10.9,3.4-21.9-0.8-28.7-9.7
		C261,376,259.8,349.5,259.8,328.2z M327.9,557.5c-16.6,0.1-33.2-0.1-49.8,0c-1.3,0-2.4-1.1-2.4-2.4V421.3c0-1.1,0.7-2,1.8-2.3
		c8.8-2.5,17.6-4.9,26.4-7.4c1.5-0.4,3,0.7,3,2.3v106.3c0,1.4,1.2,2.5,2.6,2.4c6.9-0.5,11.4-0.8,18.3-1.3c1.4-0.1,2.6,1,2.6,2.4
		v31.4C330.3,556.4,329.2,557.5,327.9,557.5z M404,533.5c-5.5,12.2-16.6,23.8-30.7,23.9c-11.7,0.1-22.1-7.2-28.8-16.6
		c-12.6-17.6-15.1-40.5-15.1-60.9c0-21.8,3.9-44.5,15.8-63.9c6.4-10.5,15.8-20,27.8-23.7c13.1-4,25.3,3.3,31.3,14.8
		c9.8,18.7,11.6,41.8,11.6,62.2C415.9,490.8,412.9,513.7,404,533.5z M478.7,408.9c-5.3,1.1-8.7,1.9-14.1,3c-1.1,0.2-1.9,1.2-1.9,2.3
		v140.8c0,1.3-1.1,2.4-2.4,2.4c-8.8,0-17.6,0-26.4,0c-1.3,0-2.4-1.1-2.4-2.4V421.9c0-1.5-1.4-2.7-2.9-2.3c-4.2,0.9-7.2,1.5-11.4,2.4
		c-1.5,0.3-2.9-0.8-2.9-2.3v-36.8c0-1.1,0.7-2,1.8-2.3c20.5-5.7,41-11.4,61.4-17.2c1.5-0.4,3,0.7,3,2.3v40.8
		C480.6,407.7,479.8,408.6,478.7,408.9z M453.8,310.6v50.1c0,1.1-0.7,2-1.8,2.3c-8.8,2.5-17.6,4.9-26.3,7.4c-1.5,0.4-3-0.7-3-2.3
		v-52.3c0-0.3-0.1-0.6-0.2-0.9c-9.5-22.7-18.5-46-27.2-69.1c-0.6-1.6,0.6-3.2,2.2-3.2c9.1,0,18.1,0,27.2,0c1.1,0,2,0.7,2.3,1.7
		c1.9,6.3,3.1,10.2,5.1,16.8c1.1,3.5,2.1,6.9,2.9,10.1c0,0,0,0.1,0,0.1c0.6,2.4,4,2.4,4.6,0c0.2-0.9,0.5-1.8,0.7-2.6
		c0.9-3.3,1.6-5.9,2.2-7.9c2.1-6.7,3.3-10.4,5.2-16.5c0.3-1,1.2-1.7,2.3-1.7c9,0,17.9,0,26.8,0c1.7,0,2.9,1.7,2.2,3.3
		c-8.8,21.2-17.2,42.5-25.2,63.9C453.8,310.1,453.8,310.4,453.8,310.6z M628.6,571.5H511c-1.3,0-2.4-1.1-2.4-2.4V230.9
		c0-1.3,1.1-2.4,2.4-2.4h117.5c1.3,0,2.4,1.1,2.4,2.4v338.2C631,570.4,629.9,571.5,628.6,571.5z"/>
	<path class="st1" d="M228,302.6c0,6.3-1.1,11.3-3.4,15.2c-1.6,2.7-4.5,4.9-7.2,6c-1.6,0.6-3.2-0.6-3.2-2.3v-36.3
		c0-1.6,1.5-2.7,3-2.3c2.7,0.7,6,2.2,7.5,4.9C226.9,291.5,228,296.4,228,302.6z"/>
	<path class="st1" d="M315.1,323.8c0,9.9-0.5,20.5-3.1,30.3c-2,7.5-4.8,11.8-8.5,12.5c-3.6,0.8-6.4-2.4-8.4-9.4
		c-2.8-10-2.9-20.8-3-31.1c-0.2-10.5,0.4-21.5,3.2-31.7c2.2-7.8,5.5-12.2,8.8-12.1C316.2,282.9,315.2,315.7,315.1,323.8z"/>
	<path class="st1" d="M380.9,505.5c-1.9,7.6-4.8,11.4-8.4,11.7c-3.5,0.2-6.3-3.3-8.3-10.4c-2.7-9.8-2.8-20.3-3-30.3
		c-0.2-10.2,0.4-21,3.2-31c2.2-7.9,5.6-12.9,8.7-13.1c11.5-0.5,10.8,33.1,10.9,41.7C384.1,484.6,383.5,495.4,380.9,505.5z"/>
	<g>
		<g>
			<path class="st1" d="M601.9,358.7v24.2c0,1.3-1.1,2.4-2.4,2.4h-52.2c-1.3,0-2.4-1.1-2.4-2.4V267.2c0-1.3,1.1-2.4,2.4-2.4h27.8
				c1.3,0,2.4,1.1,2.4,2.4v86.7c0,1.3,1.1,2.4,2.4,2.4h19.6C600.8,356.3,601.9,357.4,601.9,358.7z"/>
		</g>
		<g>
			<path class="st1" d="M589.5,414.7h-36c-1.1,0-2.1,0.8-2.3,1.8l-27.8,115.7c-0.4,1.5,0.8,3,2.3,3h28.6c1.2,0,2.2-0.8,2.4-2l2-11.3
				c0.2-1.1,1.2-2,2.4-2h17.9c1.2,0,2.2,0.9,2.4,2l1.8,11.2c0.2,1.2,1.2,2,2.4,2H614c1.5,0,2.7-1.4,2.3-2.9l-24.5-115.7
				C591.6,415.5,590.6,414.7,589.5,414.7z M566.2,494.1c-1.5,0-2.6-1.3-2.4-2.8l2.8-16.1l2.3-14.6c0.1-0.3,0.2-1,0.3-2.3
				c0.2-1.2,0.4-3.5,0.8-6.7c0.2-1.6,0.4-3.1,0.6-4.4c0.2-1.4,0.3-2.6,0.4-3.7l1,11.4c0.3,2.3,0.5,4.3,0.6,5.8
				c0.2,1.5,0.3,2.7,0.4,3.6c1,7.9,1.5,12.4,1.6,13.6c0.2,1.4,0.3,2.1,0.3,2.1l1.7,11.3c0.2,1.4-0.9,2.8-2.4,2.8H566.2z"/>
		</g>
	</g>
</g>
</svg>
