<?xml version="1.0" encoding="utf-8"?>
<!-- Generator: Adobe Illustrator 16.0.4, SVG Export Plug-In . SVG Version: 6.00 Build 0)  -->
<!DOCTYPE svg PUBLIC "-//W3C//DTD SVG 1.1//EN" "http://www.w3.org/Graphics/SVG/1.1/DTD/svg11.dtd">
<svg version="1.1" id="Layer_1" xmlns="http://www.w3.org/2000/svg" xmlns:xlink="http://www.w3.org/1999/xlink" x="0px" y="0px"
	 width="612px" height="612px" viewBox="0 0 612 612" enable-background="new 0 0 612 612" xml:space="preserve">
<rect fill="#EFF6F9" width="612" height="612"/>
<g id="XMLID_5_">
	<g>
		<polygon fill="#6799BB" points="246.468,251.131 246.677,338.529 154.715,274.125 216.674,230.731 246.557,250.997 		"/>
		<polygon fill="#4080A5" points="154.715,187.338 216.674,230.731 154.715,274.125 154.611,274.05 154.611,187.397 		"/>
		<polygon fill="#6799BB" points="395.422,230.791 457.291,274.125 366.419,337.754 366.419,251.295 366.419,251.28 
			366.195,251.131 395.333,230.731 		"/>
		<polygon fill="#427C92" points="366.195,251.131 366.195,337.918 344.99,323.17 324.576,308.974 324.576,221.74 		"/>
		<polygon fill="#176A94" points="457.291,187.338 395.333,230.731 305.996,168.176 305.996,81.389 		"/>
		<polygon fill="#074871" points="305.996,81.389 305.996,168.176 216.674,230.731 154.715,187.338 		"/>
		<polygon fill="#6799BB" points="366.419,251.295 366.419,337.754 366.195,337.918 366.195,251.131 366.419,251.28 		"/>
		<polygon fill="#37647D" points="457.291,274.125 395.422,230.791 395.333,230.731 457.291,187.338 457.381,187.397 
			457.381,187.413 457.381,274.05 		"/>
		<polygon fill="#5992AF" points="246.99,251.28 288.817,221.74 288.817,308.974 246.677,338.529 246.468,251.131 246.557,250.997 
					"/>
	</g>
	<g>
	</g>
</g>
<text transform="matrix(1 0 0 1 170.6206 435.7793)" fill="#231F20" font-family="'Verlag-Bold'" font-size="73.7169">SPACES</text>
<text transform="matrix(1 0 0 1 85.5532 511.2969)" fill="#999999" font-family="'Verlag-Light'" font-size="73.7169">REIMAGINED</text>
</svg>
