<?xml version="1.0" encoding="utf-8"?>
<!-- Generator: Adobe Illustrator 16.0.4, SVG Export Plug-In . SVG Version: 6.00 Build 0)  -->
<!DOCTYPE svg PUBLIC "-//W3C//DTD SVG 1.1//EN" "http://www.w3.org/Graphics/SVG/1.1/DTD/svg11.dtd">
<svg version="1.1" id="Layer_1" xmlns="http://www.w3.org/2000/svg" xmlns:xlink="http://www.w3.org/1999/xlink" x="0px" y="0px"
	 width="612px" height="612px" viewBox="0 0 612 612" enable-background="new 0 0 612 612" xml:space="preserve">
<rect fill="#FFFFFF" width="612" height="612"/>
<g>
	<g>
		<path fill="none" d="M230.798,215.382c-6.905-7.008-15.223-10.515-24.959-10.515c-9.859,0-18.304,3.507-25.327,10.515
			c-3.452,3.568-6.042,7.377-7.767,11.436c-1.726,4.057-2.587,8.609-2.587,13.649c0,9.592,3.449,17.954,10.354,25.084
			c6.9,6.887,15.344,10.329,25.327,10.329c9.86,0,18.178-3.442,24.959-10.329c7.023-7.007,10.537-15.369,10.537-25.084
			C241.335,230.754,237.821,222.391,230.798,215.382z"/>
		<path fill="none" d="M188.117,428.929c9.836,0,18.137-3.441,24.898-10.328c7.008-7.008,10.514-15.368,10.514-25.084
			c0-9.714-3.506-18.076-10.514-25.085c-6.886-7.009-15.186-10.515-24.898-10.515c-9.839,0-18.264,3.506-25.271,10.515
			c-3.444,3.568-6.026,7.378-7.746,11.436c-1.722,4.057-2.583,8.608-2.583,13.649c0,9.592,3.442,17.954,10.329,25.084
			C169.729,425.487,178.153,428.929,188.117,428.929z"/>
		<path d="M257.646,288.896v-96.879h-16.311v17.531c-9.603-13.772-22.529-20.662-38.778-20.662c-11.937,0-22.164,3.88-30.686,11.622
			v-8.491h-19.377v-22.572h-16.312v22.572h-19.377v2.563c-6.747-3.661-14.321-5.497-22.724-5.497c-9.965,0-18.572,2.458-25.82,7.373
			c-8.573,5.529-12.86,12.962-12.86,22.302c0,12.165,5.381,20.335,16.147,24.511c0.739,0.247,3.604,0.893,8.598,1.938
			c4.995,1.045,12.3,2.549,21.918,4.513c10.849,2.091,16.275,6.328,16.275,12.718c0,9.092-8.058,13.639-24.173,13.639
			c-6.521,0-11.626-0.798-15.315-2.397c-6.029-2.337-9.044-6.087-9.044-11.258H53.753c0,9.474,4.49,17.053,13.472,22.738
			c3.934,2.348,8.117,4.14,12.545,5.374c4.428,1.236,9.227,1.854,14.396,1.854c5.167,0,9.935-0.616,14.301-1.846
			c4.366-1.23,8.516-3.016,12.444-5.355c8.938-5.662,13.41-13.23,13.41-22.706c0-12.061-5.382-20.184-16.146-24.37
			c-0.618-0.246-3.421-0.893-8.416-1.939c-4.995-1.044-12.298-2.552-21.917-4.522c-10.974-2.094-16.46-6.401-16.46-12.924
			c0-4.798,2.706-8.431,8.12-10.893c4.06-1.845,8.92-2.77,14.578-2.77c5.659,0,10.455,0.924,14.394,2.767
			c5.412,2.462,8.12,6.089,8.12,10.887h16.239c0-3.764-0.729-7.224-2.164-10.391h5.513v112.861h0.024v120.756h16.311l0.067-17.37
			c9.839,13.78,22.752,20.666,38.739,20.666c13.897,0,25.456-5.227,34.683-15.682c9.221-10.084,13.835-22.074,13.835-35.972
			c0-13.772-4.677-25.826-14.031-36.158c-9.108-10.327-20.616-15.494-34.522-15.494c-16.126,0-29.05,6.883-38.771,20.65v-49.813
			h-0.023V208.328h12.264c-7.054,9.329-10.582,20.065-10.582,32.211c0,14.02,4.554,26.011,13.665,35.972
			c9.355,10.454,20.927,15.681,34.716,15.681c16.126,0,29.052-6.887,38.778-20.661v17.365H257.646z M155.1,379.867
			c1.72-4.058,4.302-7.867,7.746-11.436c7.007-7.009,15.432-10.515,25.271-10.515c9.712,0,18.013,3.506,24.898,10.515
			c7.008,7.009,10.514,15.371,10.514,25.085c0,9.716-3.506,18.076-10.514,25.084c-6.762,6.887-15.062,10.328-24.898,10.328
			c-9.963,0-18.388-3.441-25.271-10.328c-6.887-7.13-10.329-15.492-10.329-25.084C152.517,388.476,153.377,383.924,155.1,379.867z
			 M230.798,265.551c-6.781,6.887-15.099,10.329-24.959,10.329c-9.983,0-18.427-3.442-25.327-10.329
			c-6.905-7.13-10.354-15.493-10.354-25.084c0-5.04,0.862-9.592,2.587-13.649c1.725-4.058,4.315-7.868,7.767-11.436
			c7.023-7.008,15.468-10.515,25.327-10.515c9.736,0,18.054,3.507,24.959,10.515c7.023,7.009,10.537,15.372,10.537,25.084
			C241.335,250.182,237.821,258.544,230.798,265.551z"/>
		<path d="M276.067,230.722c0-7.141,2.521-13.235,7.567-18.283c5.043-5.046,11.135-7.572,18.27-7.572c1.72,0,3.318,0.16,4.796,0.479
			c1.476,0.319,3.013,0.8,4.536,1.518v-17.571c-0.905-0.296-1.95-0.408-3.058-0.408c-0.986,0-1.969,0-2.953,0
			c-11.936,0-21.653,4.717-29.158,14.144v-11.013h-15.981v96.879h15.981V230.722z"/>
		<polygon points="369.555,189.331 350.178,189.331 350.178,166.759 333.866,166.759 333.866,189.331 314.489,189.331 
			314.489,206.972 333.866,206.972 333.866,318.505 350.178,318.505 350.178,206.971 369.555,206.971 		"/>
		<path d="M333.594,362.138c-9.602-13.772-22.528-20.661-38.777-20.661c-13.789,0-25.299,5.166-34.531,15.494
			c-9.234,10.211-13.85,22.262-13.85,36.157c0,14.021,4.555,26.012,13.666,35.973c9.355,10.454,20.927,15.681,34.716,15.681
			c16.126,0,29.052-6.887,38.777-20.661v17.366h16.312v-96.88h-16.312V362.138z M323.057,418.142
			c-6.78,6.886-15.099,10.328-24.958,10.328c-9.983,0-18.428-3.442-25.327-10.328c-6.905-7.132-10.354-15.493-10.354-25.085
			c0-5.041,0.862-9.592,2.587-13.649c1.726-4.059,4.314-7.868,7.768-11.435c7.023-7.009,15.466-10.516,25.327-10.516
			c9.735,0,18.054,3.507,24.958,10.516c7.023,7.009,10.537,15.371,10.537,25.084C333.594,402.771,330.08,411.134,323.057,418.142z"
			/>
		<path d="M418.215,390.506c-0.619-0.248-3.422-0.894-8.416-1.938c-4.994-1.046-12.298-2.555-21.916-4.524
			c-10.975-2.093-16.461-6.399-16.461-12.923c0-4.8,2.706-8.432,8.119-10.892c4.061-1.846,8.922-2.771,14.579-2.771
			c5.659,0,10.455,0.926,14.395,2.769c5.411,2.461,8.118,6.088,8.118,10.887h16.241c0-9.226-4.308-16.653-12.919-22.289
			c-7.505-4.896-16.116-7.347-25.835-7.347c-9.965,0-18.572,2.458-25.82,7.373c-8.572,5.529-12.859,12.961-12.859,22.301
			c0,12.165,5.38,20.335,16.147,24.512c0.738,0.246,3.604,0.894,8.598,1.938c4.995,1.046,12.3,2.549,21.918,4.514
			c10.85,2.09,16.275,6.328,16.275,12.717c0,9.093-8.058,13.64-24.174,13.64c-6.52,0-11.625-0.798-15.314-2.396
			c-6.029-2.337-9.044-6.089-9.044-11.259h-16.054c0,9.475,4.489,17.054,13.472,22.737c3.934,2.348,8.117,4.14,12.545,5.376
			s9.227,1.854,14.396,1.854c5.167,0,9.935-0.615,14.301-1.846c4.367-1.231,8.518-3.015,12.445-5.355
			c8.938-5.66,13.41-13.229,13.41-22.705C434.361,402.812,428.979,394.691,418.215,390.506z"/>
		<rect x="442.724" y="344.606" width="15.981" height="96.88"/>
		<path d="M517.28,428.47c-9.966,0-18.394-3.442-25.284-10.328c-6.889-7.132-10.334-15.493-10.334-25.085
			c0-5.041,0.862-9.592,2.583-13.649c1.722-4.059,4.307-7.868,7.751-11.435c7.014-7.009,15.439-10.516,25.284-10.516
			c10.822,0,19.988,4.308,27.494,12.917l13.473-8.674c-4.799-6.379-10.829-11.343-18.086-14.895
			c-7.259-3.553-14.884-5.329-22.881-5.329c-14.273,0-26.439,5.042-36.503,15.126c-10.065,10.087-15.096,22.261-15.096,36.525
			c0,14.145,5.02,26.26,15.062,36.34c10.208,10.212,22.387,15.313,36.536,15.313c7.997,0,15.622-1.823,22.881-5.468
			c7.257-3.646,13.287-8.673,18.086-15.087l-13.473-8.672C537.269,424.166,528.103,428.47,517.28,428.47z"/>
	</g>
	<g>
		<path fill="#080707" d="M478.874,271.778c-0.192-0.165-0.415-0.313-0.606-0.478c-0.205,0.596-0.464,1.211-0.674,1.835
			c-0.32-0.051-0.643-0.074-0.969-0.097c0.506,0.954,1.186,1.853,1.398,2.927c0.273,1.216,0.428,2.502,0.395,3.753
			c-0.405,3.629-1.922,6.999-3.423,10.292c-0.498,0.905-0.798,1.951-1.592,2.648c-1.352,1.128-2.197,2.664-3.188,4.094
			c0.621-1.518,1.701-2.823,1.93-4.456c1.861-3.646,4.187-7.137,5.173-11.137c-1.237,3.688-3.045,7.18-5.123,10.486
			c-0.103,0.121-0.304,0.364-0.402,0.485c0.138-1.237,0.276-2.473,0.334-3.694c-0.195,0.188-0.389,0.377-0.557,0.568
			c0.422-1.464,0.122-3.043-0.423-4.44c0.273-1.735,1.38-3.203,2.294-4.671c0.214-0.321,0.193-0.709,0.249-1.056
			c-1.041,0.876-1.468,2.205-2.22,3.316c-0.549,1.062-1.378,2.163-1.195,3.448c0.293,1.962,0.471,3.957,0.186,5.938
			c-0.121,0.417-0.392,0.756-0.615,1.133c-0.319-0.406-0.939-0.64-0.873-1.231c-0.07-1.461,0.35-2.925,0.523-4.376
			c0.544-2.758,0.684-5.553,0.981-8.322c0.078-0.837,0.516-1.532,0.972-2.173c-0.273,0.177-0.606,0.371-0.661,0.718
			c-0.622,1.707-0.455,3.593-0.866,5.332c-0.09,3.187-1.146,6.246-1.071,9.43c0.339,0.271,0.589,0.585,0.9,0.882
			c-0.538,1.501-0.683,3.474-2.401,4.136c0.333-1.591,0.98-3.104,1.338-4.685c-0.542,1.362-0.956,2.773-1.369,4.186
			c-0.139,0.717-0.892,0.979-1.391,1.366c-0.228-0.119-0.461-0.208-0.69-0.299c0.171-3.009,0.349-6.044-0.025-9.055
			c-0.113-1.031-0.387-2.059-0.466-3.111c1.267-0.427,2.664-0.784,3.548-1.874c-1.087,0.813-2.289,1.498-3.628,1.673
			c-0.26-0.261-0.489-0.544-0.749-0.805c0.866,1.616,0.986,3.466,1.146,5.242c0.077,2.28,0.068,4.604-0.319,6.895
			c-0.194-1.205,0.054-2.425-0.033-3.616c-0.1-0.589-0.487-1.089-0.729-1.617c-0.494-1.033-0.784-2.146-1.132-3.242
			c-0.173-0.298,0.066-0.588,0.215-0.84c-0.754,0.099-1.129-0.478-1.13-1.164c-0.146,0.06-0.324,0.143-0.472,0.229
			c-0.384-0.882-1.066-1.563-1.757-2.22c0.05-0.153,0.182-0.462,0.231-0.617c-0.093,0.066-0.282,0.228-0.35,0.299
			c-0.689-0.464-1.317-1-2.074-1.393c0.228-0.239,0.458-0.474,0.685-0.713c-0.792,0.341-1.624,0.596-2.501,0.427
			c-0.023-0.356-0.051-0.719-0.102-1.082c-0.033,0.378-0.039,0.762-0.069,1.138c-0.46,0.146-0.951,0.29-1.383,0.438
			c-1.131-0.805-1.325-2.367-2.517-3.131c0.853,1.012,1.315,2.259,2.198,3.246c-1.371,0.715-2.282,1.993-3.282,3.121
			c-0.308,0.745-0.327,1.563-0.71,2.269c0.419-2.315,0.681-4.679,0.971-7.04c0.585-1.986,0.88-4.047,1.468-6.032
			c0.263-0.807,0.006-1.775-0.745-2.223c-1.987-1.269-3.004-3.507-3.762-5.65c-2.592,1.889-3.726,5.101-3.941,8.212
			c-0.327,4.68,0.391,9.332,0.837,13.968c0.104,0.729-0.145,1.455-0.042,2.184c0.206,2.002,0.135,4.014,0.257,6.027
			c-0.857-0.817-1.398-1.888-2.255-2.706c-0.35-1.258-0.473-2.562-0.568-3.863c-0.109-1.22-0.521-2.434-0.435-3.679
			c0.005-0.545,0.021-1.172-0.316-1.636c-1.475-1.927-2.695-4.088-4.583-5.642c-0.675-0.925-1.098-2.06-2.085-2.734
			c-1.184-2.046-2.634-3.941-3.315-6.21c-0.421,0.236-0.885,0.408-1.342,0.526c1.414,0.743,1.784,2.388,2.688,3.595
			c0.512,1.095,1.388,1.968,1.925,3.063c0.755,0.94,1.541,1.859,2.171,2.888c1.314,1.735,3.328,3.366,3.31,5.743
			c0.366,1.507,0.444,3.077,0.667,4.618c0.273,1.22,0.579,2.413,0.882,3.612c0.046,2.14,1.64,3.839,3.012,5.366
			c0.599,0.37,0.513,1.092,0.47,1.716c-0.637-0.647-1.234-1.535-2.249-1.532c-1.33,0.996-1.729,2.656-2.419,4.081
			c-0.908,2.125-1.69,4.326-2.627,6.447c-3.586,1.762-7.362,3.163-11.207,4.146c0.029,0.332,0.087,0.669,0.119,0.976
			c0.624-0.311,1.22-0.628,1.814-0.918c0.266,0.041,0.516,0.19,0.755,0.063c0.881-0.38,1.74-0.984,2.74-0.91
			c2.186-1.021,4.315-2.22,6.672-2.778c0.054,0.529,0.082,1.053,0.134,1.579c-0.136-1.387,0.678-2.572,1.044-3.854
			c0.704-1.692,1.302-3.404,1.876-5.146c0.266-0.644,0.464-1.378,1-1.839c0.928,0.72,1.651,1.682,2.291,2.658
			c0.414,1.021-0.261,2.337,0.654,3.136c0.022-0.323,0.07-0.971,0.067-1.302c0.099,0.591,0.143,1.2,0.323,1.772
			c-0.23-0.089-0.46-0.208-0.689-0.3c-0.32,1.156-0.011,2.324,0.539,3.344c0.344,0.436,0.046,0.935-0.054,1.385
			c0.144,0.13,0.433,0.368,0.577,0.498c-0.293,1.35-1.378,2.329-1.828,3.626c-0.456,0.995-0.332,2.108-0.548,3.139
			c-0.232,0.622-0.575,1.224-0.81,1.844c0.366-0.41,0.655-0.854,0.994-1.268c-0.548,2.075-1.965,3.793-2.587,5.83
			c-1.407,2.868-3.624,5.144-5.575,7.628c-1.02,1.097-1.979,2.339-3.393,2.964c0.361-0.024,0.721-0.049,1.079-0.074
			c0.114,0.319,0.233,0.609,0.345,0.931c0.614-1.272,1.644-2.258,2.523-3.351c0.655-0.5,0.891-1.31,1.517-1.814
			c0.711-0.517,0.917-1.468,1.624-1.984c0.995-1.104,1.725-2.438,2.521-3.682c0.192-0.352,0.689-0.381,0.858-0.767
			c0.645-1.481,1.181-2.984,1.696-4.52c0.091-0.585,0.748-0.757,0.938-1.273c0.424-0.944,0.688-1.942,1.16-2.852
			c0.097,0.262,0.166,0.516,0.284,0.81c-0.201,0.242-0.383,0.513-0.561,0.786c0.975,0.918,2.361,0.974,3.499,1.564
			c-0.785,0.121-1.563,0.027-2.302,0.212c-0.595,0.125-1.175,0.497-1.783,0.21c0.03,0.144,0.091,0.453,0.123,0.596
			c-0.903,1.059-1.742,2.378-1.451,3.843c0.139,1.719,1.706,3.059,3.353,3.373c-0.168,0.028-0.483,0.114-0.626,0.151
			c0.897,0.737,1.466,1.813,2.356,2.584c-0.267,0.643-0.699,1.146-1.256,1.55c1.122-0.178,2.058-0.741,2.775-1.64
			c0.153,0.053,0.522,0.137,0.68,0.188c0.197-0.216,0.417-0.399,0.616-0.616c0.034,0.143,0.075,0.396,0.112,0.513
			c-0.482,0.28-1.035,0.492-1.289,1.055c0.504-0.251,0.991-0.555,1.472-0.834c0.113,0.673,0.199,1.343,0.485,1.961
			c0.296-0.309,0.469-0.718,0.612-1.105c0.153,0.078,0.478,0.266,0.624,0.372c-0.441-0.674-0.9-1.401-0.474-2.21
			c-0.043-0.062-0.185-0.219-0.228-0.281c0.156,0.052,0.467,0.155,0.622,0.207c1.045-0.383,2.103-0.682,3.212-0.78
			c1.874-0.251,3.289-1.942,3.523-3.793c0.15-1.127-0.525-2.053-0.911-3.069c0.638,0.458,0.899,1.234,1.411,1.808
			c-0.142,1.592-0.635,3.155-0.748,4.752c-0.08,1.024-0.73,2.044-0.287,3.044c0.549,1.206,1.189,2.348,1.505,3.653
			c1.039,2.08,1.93,4.24,3.086,6.285c0.369,0.604,0.533,1.313,0.697,1.994c0.306-0.197,0.605-0.367,0.933-0.535
			c-2.231-3.551-3.925-7.4-5.185-11.371c0.411-1.741,0.499-3.533,0.665-5.284c-0.035-1.508,0.502-3.01,0.022-4.481
			c-0.201-0.988-0.665-1.853-0.895-2.821c0.184-0.488,0.697-0.79,0.933-1.246c-0.451,0.258-0.86,0.601-1.288,0.89
			c0.075-0.834,0.184-1.692,0.527-2.487c0.622-0.476,1.334-0.828,1.844-1.461c-0.673,0.278-1.269,0.759-1.896,1.099
			c0.306-0.555,0.658-1.044,0.936-1.604c-0.278,0.201-0.558,0.406-0.836,0.608c0.314-1.129,1.14-2.009,1.729-2.982
			c2.556-2.007,3.735-5.157,5.287-7.894c0.216,0.363,0.371,0.77,0.175,1.148c-0.771,2.286-1.792,4.449-2.688,6.659
			c-0.246,0.701-1.226,1.531-0.542,2.24c1.373,1.172,2.769,2.377,4.009,3.721c0.229,0.283,0.519,0.519,0.876,0.685
			c0.863,0.41,1.508,1.193,2.408,1.554c1.488,0.974,3.126,1.696,4.639,2.671c0.031-0.212,0.151-0.604,0.209-0.813
			c-3.524-1.402-6.743-3.548-9.507-6.143c-0.569-0.556-1.341-1.031-1.521-1.827c0.897-3.25,2.726-6.188,3.124-9.572
			c0.144-0.74-0.3-1.414-0.554-2.057c0.7-1.502,1.402-3.004,1.975-4.556c0.493-1.398,1.269-2.673,1.445-4.147
			c1.979-4.586,4.555-8.965,5.472-13.933c0.54-2.57,0.299-5.369-1.095-7.64C477.705,272.963,478.265,272.339,478.874,271.778
			L478.874,271.778z"/>
		<path fill="#FFFFFF" d="M447.736,267.538c-0.095,0.095-0.293,0.31-0.396,0.43c0.06,1.896-0.317,3.753-0.178,5.66
			c0.3,5.052,0.538,10.147,1.386,15.176c0.177-0.081,0.503-0.248,0.656-0.334c-0.112-0.508-0.369-0.96-0.655-1.418
			c0.28,0.319,0.589,0.616,0.87,0.904c0.098-0.613,0.163-1.204,0.313-1.811c0.631-2.279,0.629-4.686,1.388-6.918
			c0.333-1.589,0.768-3.134,1.072-4.727c0.157-0.82-0.604-1.379-1.161-1.822C449.375,271.378,448.417,269.478,447.736,267.538
			L447.736,267.538z"/>
		<path fill="#FFFFFF" d="M447.211,268.111c-1.136,0.778-1.783,2.099-2.254,3.363c-0.1,1.162,0.046,2.334-0.088,3.517
			c-0.19,5.219,1.251,10.312,1.895,15.446c0.203,1.646,0.608,3.241,0.9,4.873c-0.157-0.217-0.471-0.65-0.629-0.866
			c0.104,1.249,0.15,2.513,0.48,3.715c0.031-0.544,0.003-1.067-0.05-1.595c0.133,0.02,0.41,0.008,0.542,0.03
			c-0.056-1.211,0.023-2.402,0.183-3.581c0.17-0.576-0.507-0.79-0.833-1.144c0.31,0.104,0.597,0.203,0.904,0.335
			c0.091-0.751-0.257-1.327-0.847-1.746c0.271,0.179,0.519,0.354,0.76,0.557c0.035-0.403,0.068-0.784,0.071-1.165
			c-0.236-0.229-0.474-0.458-0.737-0.688c0.225,0.142,0.639,0.455,0.838,0.596c-0.816-5.434-1.076-10.918-1.413-16.411
			C446.799,271.603,447.234,269.865,447.211,268.111L447.211,268.111z"/>
		<path fill="#FFFFFF" d="M444.614,275.743c-0.063-1.158,0.319-2.384-0.014-3.555c-0.949,4.115-0.5,8.397-0.032,12.546
			c0.124,0.947,0.1,1.982,0.68,2.812c0.529,0.794,0.676,1.774,1.147,2.614C445.834,285.368,444.641,280.616,444.614,275.743
			L444.614,275.743z"/>
		<path fill="#080707" d="M469.382,282.755C469.2,282.863,469.2,282.863,469.382,282.755L469.382,282.755z"/>
		<path fill="#080707" d="M468.741,283.174C468.583,283.314,468.583,283.314,468.741,283.174L468.741,283.174z"/>
		<path fill="#FFFFFF" d="M446.266,291.509c-0.288-1.304-0.526-2.735-1.342-3.821c0.06,1.022,0.171,2.05,0.143,3.085
			c0.38,0.744,1.03,1.447,0.948,2.339c-0.345-0.603-0.537-1.29-0.938-1.872c-0.16,1.367,0.085,2.773,0.088,4.141
			c0.129,0.925-0.086,1.932,0.443,2.752c0.121-0.255,0.243-0.51,0.364-0.763c-0.05,0.319-0.126,0.637-0.206,0.953
			c0.326,0.379,0.587,0.8,0.936,1.187c-0.343-2.163-0.548-4.328-0.754-6.491c0.629,1.219,0.202,2.712,0.829,3.932
			C446.985,295.095,446.33,293.351,446.266,291.509L446.266,291.509z"/>
		<path fill="#FFFFFF" d="M470.702,292.26c-0.344,0.111-0.572,0.352-0.654,0.692c-0.288,0.966-0.58,1.958-0.82,2.96
			C470.736,295.356,470.581,293.554,470.702,292.26L470.702,292.26z"/>
		<path fill="#FFFFFF" d="M448.966,289.118c-0.395-0.092-0.474,0.579-0.294,0.827C449.04,290.031,449.119,289.359,448.966,289.118
			L448.966,289.118z"/>
		<path fill="#FFFFFF" d="M473.612,292.882c-1.307,0.999-2.07,2.573-2.843,3.985c0.572-0.322,1.076-0.734,1.668-1.023
			C472.709,294.82,473.24,293.865,473.612,292.882L473.612,292.882z"/>
		<path fill="#FFFFFF" d="M472.45,296.092c-0.537,0.298-1.098,0.563-1.521,0.989c-1.086,1.526-1.615,3.328-2.524,4.935
			c-0.381,0.681-0.662,1.429-0.913,2.156c0.643-0.255,1.59-0.023,1.901-0.795C470.557,301.018,471.521,298.542,472.45,296.092
			L472.45,296.092z"/>
		<path fill="#FFFFFF" d="M470.179,296.989c-0.654,0.856-1.264,1.772-1.642,2.778c-0.042-0.417-0.064-0.802-0.135-1.225
			c-0.245,0.864-0.072,1.851-0.65,2.578c-0.602,0.863-0.773,1.959-0.964,2.995c0.392-0.239,0.446-0.751,0.67-1.125
			C468.475,301.044,469.469,299.068,470.179,296.989L470.179,296.989z"/>
		<path fill="#FFFFFF" d="M467.742,299.26c-0.564,0.459-1.124,0.892-1.571,1.477c0.129,0.568,0.424,1.134,0.326,1.745
			c-0.486,0.663-1.031,1.345-0.816,2.253c1.063-0.681,1.182-1.977,1.197-3.093C467.218,300.875,467.711,300.159,467.742,299.26
			L467.742,299.26z"/>
		<path fill="#FFFFFF" d="M466.037,300.551C465.854,300.66,465.854,300.66,466.037,300.551L466.037,300.551z"/>
		<path fill="#080707" d="M443.388,300.244C443.201,300.38,443.201,300.38,443.388,300.244L443.388,300.244z"/>
		<path fill="#FFFFFF" d="M465.268,304.231c-0.371-0.086-0.69,0.546-0.629,0.86C465.035,305.182,465.403,304.581,465.268,304.231
			L465.268,304.231z"/>
		<path fill="#FFFFFF" d="M461.943,303.79c-0.447-0.452-0.484,0.665-0.214,0.842C462.133,304.67,462.098,304.035,461.943,303.79
			L461.943,303.79z"/>
		<path fill="#FFFFFF" d="M468.019,306.195c-0.556,0.241-1.369,0.195-1.607,0.841c-0.562,1.307-1.226,2.57-1.759,3.881
			c0.062,0.12,0.246,0.339,0.309,0.459c0.173-0.739,0.352-1.529,0.983-2.062C466.872,308.477,467.435,307.308,468.019,306.195
			L468.019,306.195z"/>
		<path fill="#FFFFFF" d="M465.711,306.792c-0.463,0.333-0.877,0.709-1.268,1.11c-0.033-0.141-0.094-0.451-0.126-0.594
			c-0.181,0.274-0.365,0.573-0.548,0.873c0.145-0.06,0.46-0.146,0.635-0.202c-0.047,0.458-0.119,0.913-0.135,1.373
			C465.122,308.777,465.401,307.726,465.711,306.792L465.711,306.792z"/>
		<path fill="#FFFFFF" d="M446.057,310.562c-0.07-0.583,0.157-1.341-0.504-1.665c0.125,0.949,0.023,2.111,0.817,2.81
			C446.297,311.312,446.163,310.936,446.057,310.562L446.057,310.562z"/>
		<path fill="#FFFFFF" d="M462.747,314.17c-0.358-0.162-0.512-0.052-0.486,0.31C462.617,314.646,462.769,314.559,462.747,314.17
			L462.747,314.17z"/>
		<path fill="#080707" d="M463.129,315.381C462.945,315.516,462.945,315.516,463.129,315.381L463.129,315.381z"/>
		<path fill="#080707" d="M425.563,316.555c0.401-0.127,1.312-0.53,0.586-0.945c-1.269,0.238-2.592,0.825-3.897,0.263
			c0.561,0.444,0.591,1.104,0.331,1.719C423.471,316.99,424.492,316.578,425.563,316.555L425.563,316.555z"/>
		<path fill="#080707" d="M447.507,320.827c-0.398,0.104-0.397,0.266-0.053,0.514C447.825,321.231,447.85,321.073,447.507,320.827
			L447.507,320.827z"/>
		<path fill="#FFFFFF" d="M450.105,330.561C449.399,330.014,449.912,331.433,450.105,330.561L450.105,330.561z"/>
		<path fill="#080707" d="M451.307,333.186C450.566,332.657,451.141,334.06,451.307,333.186L451.307,333.186z"/>
	</g>
</g>
</svg>
