<?xml version="1.0" encoding="utf-8"?>
<!-- Generator: Adobe Illustrator 16.0.4, SVG Export Plug-In . SVG Version: 6.00 Build 0)  -->
<!DOCTYPE svg PUBLIC "-//W3C//DTD SVG 1.1//EN" "http://www.w3.org/Graphics/SVG/1.1/DTD/svg11.dtd">
<svg version="1.1" id="Layer_1" xmlns="http://www.w3.org/2000/svg" xmlns:xlink="http://www.w3.org/1999/xlink" x="0px" y="0px"
	 width="402.203px" height="401.422px" viewBox="0 0 402.203 401.422" enable-background="new 0 0 402.203 401.422"
	 xml:space="preserve">
<g>
	<g>
		<path d="M74.461,335.81v-41.453H59.468V282.33h43.698v12.026H88.252v41.453H74.461z"/>
		<path d="M139.565,335.81l-8.98-17.96h-7.056v17.96h-13.791V282.33h26.779c11.867,0,18.602,7.857,18.602,17.8
			c0,9.301-5.612,14.271-10.664,16.036l10.905,19.644H139.565z M141.088,300.05c0-3.688-2.966-5.693-6.655-5.693H123.53v11.467
			h10.904C138.122,305.823,141.088,303.818,141.088,300.05z"/>
		<path d="M162.736,335.81V282.33h13.791v53.479H162.736z"/>
		<path d="M198.094,335.81v-41.453h-14.993V282.33h43.698v12.026h-14.914v41.453H198.094z"/>
		<path d="M228.883,309.109c0-16.275,12.268-27.661,28.623-27.661c16.357,0,28.543,11.386,28.543,27.661
			c0,16.276-12.186,27.662-28.543,27.662C241.15,336.771,228.883,325.386,228.883,309.109z M272.018,309.109
			c0-8.739-5.691-15.474-14.512-15.474c-8.818,0-14.592,6.734-14.592,15.474c0,8.66,5.773,15.475,14.592,15.475
			C266.326,324.584,272.018,317.77,272.018,309.109z"/>
		<path d="M329.426,335.81l-22.611-30.949v30.949h-13.789V282.33h14.191l21.646,29.426V282.33h13.871v53.479H329.426z"/>
	</g>
	<g>
		<path d="M158.614,266.784v-14.459h5.42c2.774,0,4.356,1.952,4.356,4.228c0,2.276-1.604,4.227-4.356,4.227h-4.184v6.005H158.614z
			 M167.09,256.553c0-1.821-1.258-3.1-3.187-3.1h-4.053v6.199h4.053C165.833,259.652,167.09,258.352,167.09,256.553z"/>
		<path d="M179.47,266.784l-4.054-5.983h-3.187v5.983h-1.236v-14.459h5.398c2.492,0,4.4,1.582,4.4,4.228
			c0,2.623-1.843,4.075-4.011,4.161l4.184,6.07H179.47z M179.492,256.553c0-1.821-1.279-3.1-3.209-3.1h-4.053v6.222h4.053
			C178.212,259.675,179.492,258.373,179.492,256.553z"/>
		<path d="M183.33,259.565c0-4.227,2.774-7.478,7.023-7.478c4.227,0,7.024,3.251,7.024,7.478c0,4.228-2.798,7.479-7.024,7.479
			C186.104,267.044,183.33,263.793,183.33,259.565z M196.076,259.565c0-3.662-2.254-6.352-5.723-6.352
			c-3.489,0-5.723,2.689-5.723,6.352c0,3.642,2.233,6.352,5.723,6.352C193.822,265.917,196.076,263.207,196.076,259.565z"/>
		<path d="M198.506,265.267l0.759-0.953c0.649,0.867,1.539,1.604,2.883,1.604c1.971,0,3.207-1.366,3.207-3.316v-10.275h1.236v10.275
			c0,3.013-1.973,4.443-4.379,4.443C200.652,267.044,199.458,266.503,198.506,265.267z"/>
		<path d="M210.191,266.784v-14.459h9.168v1.128h-7.934v5.354h7.783v1.127h-7.783v5.723h7.934v1.127H210.191z"/>
		<path d="M221.877,259.565c0-4.443,3.23-7.478,7.326-7.478c2.299,0,4.055,1.018,5.268,2.558l-1.041,0.671
			c-0.91-1.257-2.492-2.103-4.227-2.103c-3.381,0-6.025,2.58-6.025,6.352c0,3.729,2.645,6.352,6.025,6.352
			c1.734,0,3.316-0.845,4.227-2.103l1.062,0.65c-1.299,1.583-2.99,2.579-5.289,2.579
			C225.107,267.044,221.877,264.009,221.877,259.565z"/>
		<path d="M240.65,266.784v-13.331h-4.725v-1.128h10.707v1.128h-4.725v13.331H240.65z"/>
	</g>
	<g id="XMLID_1_">
		<g>
			<g id="XMLID_3_">
				<g>
					<path fill="#506E32" d="M286.022,152.341l-43.848,43.843l-13.857-13.855v-0.002c1.106-7.304,2.956-14.338,5.71-21.836
						l30.071-30.071L286.022,152.341z"/>
					<path fill="#68923E" d="M264.099,130.42l-30.071,30.071c0.47-1.276,0.962-2.567,1.485-3.87
						c3.398-8.545,7.34-16.157,13.249-25.683c1.255-1.997,2.264-3.796,2.264-3.991c0-0.471-0.221-0.471-3.101,0.121
						c-6.724,1.381-14.948,5.244-20.219,9.504c-2.018,1.627-4.308,3.82-4.137,3.991c0.075,0.076,1.208-0.22,2.536-0.663
						c3.938-1.331,4.188-0.988,2.12,3.176c-0.962,1.994-1.874,4.408-2.979,8.126c-2.562,8.543-4.351,15.807-5.517,22.54
						l-15.041-15.039l0.028-12.749l6.499-6.497c0.841,0.151,1.646,0.32,2.309,0.488c1.156,0.322,1.253,0.296,1.057-0.047
						c-0.097-0.223-0.492-0.666-0.859-1.011c-0.249-0.225-0.568-0.568-0.938-1l29.392-29.391L264.099,130.42z"/>
					<path fill="#8DC63F" d="M220.253,86.574l21.922,21.922l-29.392,29.391c-1.281-1.499-3.136-4.036-4.455-6.141
						c-2.832-4.459-6.721-13.023-9.407-20.636c-0.246-0.689-0.493-1.279-0.566-1.279c-0.1,0-0.739,1.651-1.478,3.645
						c-4.135,11.224-8.458,19.328-12.988,24.425l-7.482-7.481L220.253,86.574z"/>
					<path fill="#445436" d="M242.175,196.185l-37.443,37.448v-21.066v-16.204l2.242,0.194c1.231,0.124,5.196,0.692,8.815,1.308
						c6.993,1.156,10.809,1.625,11.006,1.305c0.075-0.097,0.223-2.361,0.369-5.047c0.199-4.078,0.575-7.972,1.153-11.792
						L242.175,196.185z"/>
					<polygon fill="#BED97A" points="220.253,86.572 220.253,86.574 176.408,130.42 154.484,108.496 198.33,64.65 					"/>
					<path fill="#506E32" d="M204.688,158.703l15.041,15.039c-0.073,0.422-0.145,0.841-0.213,1.255V175l-10.406,10.407h-0.003
						c-2.064-0.311-3.635-0.564-3.884-0.616l-0.613-0.1l0.073-22.9L204.688,158.703z"/>
					<path fill="#445436" d="M219.517,175c-0.434,2.662-0.77,5.241-1.019,7.796c-0.173,1.75-0.442,3.323-0.592,3.52
						c-0.223,0.322-1.059,0.249-6.155-0.516c-0.924-0.133-1.819-0.268-2.641-0.393L219.517,175z"/>
					<path fill="#8DC63F" d="M211.216,139.458l-6.499,6.497l0.017-7.067h1.552C207.412,138.887,209.401,139.128,211.216,139.458z"/>
					<polygon fill="#445436" points="191.928,212.517 191.928,233.631 176.408,218.108 191.928,202.591 					"/>
					<path fill="#506E32" d="M191.928,196.268v6.323l-15.52,15.518l-21.924-21.924l13.883-13.879
						c0.199,1.26,0.381,2.522,0.538,3.787c0.32,2.489,0.836,10.27,0.86,12.484v0.715l2.167-0.147
						c1.182-0.074,5.146-0.642,8.792-1.258c3.671-0.613,7.437-1.182,8.372-1.255c0.961-0.1,1.97-0.194,2.29-0.268L191.928,196.268z"
						/>
					<path fill="#506E32" d="M191.928,161.737v22.952l-0.542,0.125c-0.32,0.073-3.226,0.514-6.475,0.983
						c-5.246,0.786-5.933,0.836-6.181,0.49c-0.147-0.194-0.346-1.331-0.443-2.508c-0.157-2.233-0.725-6.354-1.35-10.042
						l14.992-14.992V161.737z"/>
					<path fill="#6A9440" d="M191.928,158.743v0.002l-14.992,14.992c-0.263-1.559-0.538-3.039-0.793-4.268
						c-1.944-9.457-5.639-22.137-7.583-26.154c-1.002-2.032-1.412-3.19-1.307-3.744l0.393-0.391
						c0.293-0.031,1.563,0.285,2.882,0.718c1.331,0.443,2.51,0.737,2.586,0.661c0.074-0.071-0.519-0.736-1.307-1.501
						c-0.685-0.649-1.4-1.281-2.141-1.897l6.743-6.74l7.482,7.481c-0.111,0.125-0.223,0.251-0.334,0.372
						c-1.971,2.141-2.021,2.067,0.812,1.428c0.325-0.076,0.699-0.152,1.099-0.223l6.461,6.458V158.743z"/>
					<path fill="#8DC63F" d="M191.928,138.811v7.126l-6.461-6.458c1.298-0.237,2.875-0.441,3.948-0.519L191.928,138.811z"/>
					<path fill="#8DC63F" d="M176.408,130.42l-6.743,6.74h-0.002c-5.989-4.952-13.687-8.635-21.422-10.191
						c-2.385-0.493-2.607-0.493-2.607-0.021c0,0.194,1.255,2.39,2.783,4.848c3.614,5.829,6.748,11.546,9.417,17.199l-25.272,25.27
						l-21.922-21.924l43.846-43.845L176.408,130.42z"/>
					<path fill="#6A9440" d="M168.367,182.306l-13.883,13.879l-21.924-21.919l25.272-25.27
						C163.14,160.237,166.607,171.224,168.367,182.306z"/>
					<path fill="#6A9440" d="M167.645,139.18l-0.393,0.391c0.042-0.223,0.166-0.346,0.369-0.391
						C167.628,139.18,167.638,139.18,167.645,139.18z"/>
				</g>
				<g>
					<polyline fill="none" stroke="#506E32" stroke-width="0" stroke-linecap="round" stroke-linejoin="round" points="
						264.099,130.42 286.022,152.341 242.175,196.185 					"/>
					
						<line fill="none" stroke="#68923E" stroke-width="0" stroke-linecap="round" stroke-linejoin="round" x1="242.175" y1="108.496" x2="264.099" y2="130.42"/>
					
						<line fill="none" stroke="#68923E" stroke-width="0" stroke-linecap="round" stroke-linejoin="round" x1="264.099" y1="130.42" x2="234.027" y2="160.491"/>
					
						<line fill="none" stroke="#8DC63F" stroke-width="0" stroke-linecap="round" stroke-linejoin="round" x1="220.253" y1="86.574" x2="242.175" y2="108.496"/>
					
						<line fill="none" stroke="#8DC63F" stroke-width="0" stroke-linecap="round" stroke-linejoin="round" x1="212.783" y1="137.887" x2="242.175" y2="108.496"/>
					
						<line fill="none" stroke="#8DC63F" stroke-width="0" stroke-linecap="round" stroke-linejoin="round" x1="211.216" y1="139.458" x2="204.717" y2="145.954"/>
					
						<line fill="none" stroke="#445436" stroke-width="0" stroke-linecap="round" stroke-linejoin="round" x1="176.408" y1="218.108" x2="191.928" y2="233.631"/>
					
						<line fill="none" stroke="#445436" stroke-width="0" stroke-linecap="round" stroke-linejoin="round" x1="204.731" y1="233.633" x2="242.175" y2="196.185"/>
					
						<line fill="none" stroke="#445436" stroke-width="0" stroke-linecap="round" stroke-linejoin="round" x1="228.317" y1="182.33" x2="242.175" y2="196.185"/>
					<polyline fill="none" stroke="#BED97A" stroke-width="0" stroke-linecap="round" stroke-linejoin="round" points="
						154.484,108.496 198.33,64.65 220.253,86.572 					"/>
					<polyline fill="none" stroke="#BED97A" stroke-width="0" stroke-linecap="round" stroke-linejoin="round" points="
						176.408,130.42 220.253,86.574 220.253,86.572 					"/>
					
						<line fill="none" stroke="#506E32" stroke-width="0" stroke-linecap="round" stroke-linejoin="round" x1="176.408" y1="218.108" x2="154.484" y2="196.185"/>
					
						<line fill="none" stroke="#506E32" stroke-width="0" stroke-linecap="round" stroke-linejoin="round" x1="204.688" y1="158.703" x2="219.729" y2="173.742"/>
					
						<line fill="none" stroke="#506E32" stroke-width="0" stroke-linecap="round" stroke-linejoin="round" x1="191.928" y1="202.591" x2="176.408" y2="218.108"/>
					
						<line fill="none" stroke="#506E32" stroke-width="0" stroke-linecap="round" stroke-linejoin="round" x1="219.517" y1="175" x2="209.11" y2="185.406"/>
					
						<line fill="none" stroke="#6A9440" stroke-width="0" stroke-linecap="round" stroke-linejoin="round" x1="132.56" y1="174.265" x2="154.484" y2="196.185"/>
					
						<line fill="none" stroke="#6A9440" stroke-width="0" stroke-linecap="round" stroke-linejoin="round" x1="191.928" y1="145.938" x2="185.467" y2="139.479"/>
					
						<line fill="none" stroke="#6A9440" stroke-width="0" stroke-linecap="round" stroke-linejoin="round" x1="183.89" y1="137.901" x2="176.408" y2="130.42"/>
					
						<line fill="none" stroke="#6A9440" stroke-width="0" stroke-linecap="round" stroke-linejoin="round" x1="168.367" y1="182.306" x2="154.484" y2="196.185"/>
					
						<line fill="none" stroke="#6A9440" stroke-width="0" stroke-linecap="round" stroke-linejoin="round" x1="191.928" y1="158.746" x2="176.936" y2="173.737"/>
					<polyline fill="none" stroke="#8DC63F" stroke-width="0" stroke-linecap="round" stroke-linejoin="round" points="
						154.484,108.496 110.638,152.341 132.56,174.265 					"/>
					
						<line fill="none" stroke="#8DC63F" stroke-width="0" stroke-linecap="round" stroke-linejoin="round" x1="154.484" y1="108.496" x2="176.408" y2="130.42"/>
					
						<line fill="none" stroke="#8DC63F" stroke-width="0" stroke-linecap="round" stroke-linejoin="round" x1="157.833" y1="148.995" x2="132.56" y2="174.265"/>
					
						<line fill="none" stroke="#8DC63F" stroke-width="0" stroke-linecap="round" stroke-linejoin="round" x1="169.665" y1="137.16" x2="176.408" y2="130.42"/>
					
						<line fill="none" stroke="#8DC63F" stroke-width="0" stroke-linecap="round" stroke-linejoin="round" x1="167.252" y1="139.571" x2="167.645" y2="139.18"/>
					
						<line fill="none" stroke="#000000" stroke-width="0" stroke-linecap="round" stroke-linejoin="round" x1="191.928" y1="158.743" x2="191.928" y2="145.938"/>
					<path fill="none" stroke="#000000" stroke-width="0" stroke-linecap="round" stroke-linejoin="round" d="M157.833,148.995
						c-2.669-5.653-5.802-11.371-9.417-17.199c-1.527-2.458-2.783-4.654-2.783-4.848c0-0.471,0.223-0.471,2.607,0.021
						c7.735,1.556,15.433,5.239,21.422,10.191"/>
					<path fill="none" stroke="#000000" stroke-width="0" stroke-linecap="round" stroke-linejoin="round" d="M191.928,145.938
						v-7.126l-2.513,0.149c-1.073,0.078-2.65,0.282-3.948,0.519"/>
					<path fill="none" stroke="#000000" stroke-width="0" stroke-linecap="round" stroke-linejoin="round" d="M183.89,137.901
						c-0.111,0.125-0.223,0.251-0.334,0.372c-1.971,2.141-2.021,2.067,0.812,1.428c0.325-0.076,0.699-0.152,1.099-0.223"/>
					<path fill="none" stroke="#000000" stroke-width="0" stroke-linecap="round" stroke-linejoin="round" d="M228.317,182.327
						c1.106-7.304,2.956-14.338,5.71-21.836"/>
					<path fill="none" stroke="#000000" stroke-width="0" stroke-linecap="round" stroke-linejoin="round" d="M191.928,158.743
						v0.002v2.991v22.952l-0.542,0.125c-0.32,0.073-3.226,0.514-6.475,0.983c-5.246,0.786-5.933,0.836-6.181,0.49
						c-0.147-0.194-0.346-1.331-0.443-2.508c-0.157-2.233-0.725-6.354-1.35-10.042"/>
					<path fill="none" stroke="#000000" stroke-width="0" stroke-linecap="round" stroke-linejoin="round" d="M191.928,202.591
						v-6.323l-0.542,0.097c-0.32,0.074-1.329,0.168-2.29,0.268c-0.936,0.073-4.701,0.642-8.372,1.255
						c-3.645,0.616-7.61,1.184-8.792,1.258l-2.167,0.147v-0.715c-0.024-2.214-0.54-9.995-0.86-12.484
						c-0.156-1.265-0.338-2.527-0.538-3.787"/>
					<path fill="none" stroke="#000000" stroke-width="0" stroke-linecap="round" stroke-linejoin="round" d="M176.936,173.737
						c-0.263-1.559-0.538-3.039-0.793-4.268c-1.944-9.457-5.639-22.137-7.583-26.154c-1.002-2.032-1.412-3.19-1.307-3.744"/>
					<polyline fill="none" stroke="#000000" stroke-width="0" stroke-linecap="round" stroke-linejoin="round" points="
						191.928,202.591 191.928,212.517 191.928,233.631 					"/>
					<path fill="none" stroke="#000000" stroke-width="0" stroke-linecap="round" stroke-linejoin="round" d="M169.663,137.16h0.002
						c0.741,0.616,1.457,1.248,2.141,1.897c0.789,0.765,1.381,1.431,1.307,1.501c-0.076,0.076-1.255-0.218-2.586-0.661
						c-1.319-0.433-2.589-0.749-2.882-0.718"/>
					<path fill="none" stroke="#000000" stroke-width="0" stroke-linecap="round" stroke-linejoin="round" d="M157.833,148.995
						c5.308,11.242,8.775,22.229,10.535,33.311"/>
					<path fill="none" stroke="#000000" stroke-width="0" stroke-linecap="round" stroke-linejoin="round" d="M167.645,139.18
						c-0.007,0-0.017,0-0.024,0c-0.204,0.045-0.327,0.168-0.369,0.391"/>
					<path fill="none" stroke="#000000" stroke-width="0" stroke-linecap="round" stroke-linejoin="round" d="M228.317,182.33
						c-0.578,3.82-0.954,7.714-1.153,11.792c-0.146,2.686-0.294,4.95-0.369,5.047c-0.197,0.32-4.013-0.149-11.006-1.305
						c-3.619-0.616-7.584-1.184-8.815-1.308l-2.242-0.194v16.204v21.066"/>
					
						<line fill="none" stroke="#445436" stroke-width="0" stroke-linecap="round" stroke-linejoin="round" x1="228.317" y1="182.327" x2="228.317" y2="182.33"/>
					<path fill="none" stroke="#000000" stroke-width="0" stroke-linecap="round" stroke-linejoin="round" d="M211.216,139.458
						c-1.814-0.329-3.804-0.571-4.931-0.571h-1.552l-0.017,7.067"/>
					
						<line fill="none" stroke="#000000" stroke-width="0" stroke-linecap="round" stroke-linejoin="round" x1="204.688" y1="158.703" x2="204.717" y2="145.954"/>
					<path fill="none" stroke="#000000" stroke-width="0" stroke-linecap="round" stroke-linejoin="round" d="M219.517,174.997
						c0.068-0.415,0.14-0.833,0.213-1.255"/>
					<path fill="none" stroke="#000000" stroke-width="0" stroke-linecap="round" stroke-linejoin="round" d="M234.027,160.491
						c0.47-1.276,0.962-2.567,1.485-3.87c3.398-8.545,7.34-16.157,13.249-25.683c1.255-1.997,2.264-3.796,2.264-3.991
						c0-0.471-0.221-0.471-3.101,0.121c-6.724,1.381-14.948,5.244-20.219,9.504c-2.018,1.627-4.308,3.82-4.137,3.991
						c0.075,0.076,1.208-0.22,2.536-0.663c3.938-1.331,4.188-0.988,2.12,3.176c-0.962,1.994-1.874,4.408-2.979,8.126
						c-2.562,8.543-4.351,15.807-5.517,22.54"/>
					<path fill="none" stroke="#000000" stroke-width="0" stroke-linecap="round" stroke-linejoin="round" d="M212.783,137.887
						c0.37,0.431,0.689,0.774,0.938,1c0.367,0.346,0.763,0.789,0.859,1.011c0.196,0.343,0.1,0.37-1.057,0.047
						c-0.663-0.168-1.468-0.336-2.309-0.488"/>
					<path fill="none" stroke="#000000" stroke-width="0" stroke-linecap="round" stroke-linejoin="round" d="M183.89,137.901
						c4.53-5.097,8.853-13.201,12.988-24.425c0.739-1.994,1.378-3.645,1.478-3.645c0.073,0,0.32,0.59,0.566,1.279
						c2.686,7.612,6.575,16.176,9.407,20.636c1.319,2.105,3.174,4.642,4.455,6.141"/>
					<path fill="none" stroke="#000000" stroke-width="0" stroke-linecap="round" stroke-linejoin="round" d="M209.107,185.406
						h0.003c0.821,0.125,1.717,0.26,2.641,0.393c5.097,0.765,5.933,0.838,6.155,0.516c0.149-0.196,0.419-1.769,0.592-3.52
						c0.249-2.555,0.585-5.134,1.019-7.796v-0.002"/>
					<path fill="none" stroke="#000000" stroke-width="0" stroke-linecap="round" stroke-linejoin="round" d="M204.688,158.703
						l-0.005,3.088l-0.073,22.9l0.613,0.1c0.249,0.052,1.819,0.305,3.884,0.616"/>
				</g>
			</g>
		</g>
	</g>
</g>
</svg>
