<?xml version="1.0" encoding="utf-8"?>
<!-- Generator: Adobe Illustrator 16.0.4, SVG Export Plug-In . SVG Version: 6.00 Build 0)  -->
<!DOCTYPE svg PUBLIC "-//W3C//DTD SVG 1.1//EN" "http://www.w3.org/Graphics/SVG/1.1/DTD/svg11.dtd">
<svg version="1.1" id="Layer_1" xmlns="http://www.w3.org/2000/svg" xmlns:xlink="http://www.w3.org/1999/xlink" x="0px" y="0px"
	 width="612px" height="612px" viewBox="0 0 612 612" enable-background="new 0 0 612 612" xml:space="preserve">
<rect fill="#1B3749" width="612" height="612"/>
<g id="Layer_1_1_">
	<g>
		<g>
			<g>
				<path fill="#FFFFFF" d="M191.345,114.149c4.607-5.625,9.53-10.489,14.781-14.585c5.241-4.091,10.683-8.063,16.313-11.898
					c7.421-4.859,15.932-8.507,25.53-10.943c9.596-2.427,19.252-3.004,28.982-1.726c3.836,0.515,7.61,1.535,11.325,3.07
					c3.707,1.538,7.033,3.646,9.979,6.333c2.94,2.689,5.376,6.143,7.296,10.367c1.918,4.223,3.006,9.278,3.267,15.164
					c0.254,6.141-0.901,12.542-3.461,19.192c-2.56,6.66-6.208,13.247-10.939,19.771c-4.738,6.522-10.43,12.731-17.083,18.62
					c-6.659,5.887-13.954,11.13-21.881,15.736c-2.05,1.284-4.099,2.496-6.144,3.647c-2.05,1.153-4.797,2.562-8.25,4.224
					c-3.456,1.667-7.811,3.587-13.051,5.759c-5.25,2.175-11.967,4.799-20.155,7.869c-8.195,3.33-15.55,6.335-22.074,9.02
					c-6.527,2.689-11.966,5.057-16.317,7.103h4.607c9.464,0,18.937,1.795,28.407,5.375c15.356,6.656,26.869,9.98,34.55,9.98
					c6.653,0,12.026-1.661,16.123-4.992c0.762-0.51,1.534-1.084,2.302-1.726c0.765-0.636,1.535-1.087,2.303-1.344
					c1.535-0.51,2.812-0.383,3.839,0.386c1.02,0.766,1.277,2.048,0.768,3.838c-0.261,0.516-0.576,1.09-0.962,1.728
					c-0.382,0.641-0.708,1.214-0.959,1.727c-4.863,6.401-9.918,11.9-15.165,16.506c-5.246,4.607-10.811,8.58-16.695,11.899
					c-12.286,6.909-25.212,10.364-38.771,10.364c-7.425,0-13.819-1.021-19.195-3.07c-5.372-2.045-9.471-3.964-12.282-5.759
					c-5.124-3.07-10.365-5.623-15.742-7.677c-5.371-2.043-10.748-3.07-16.123-3.07c-4.354,0-8.577,0.767-12.667,2.305
					c-2.814,1.282-5.376,3.068-7.677,5.373c-2.304,2.305-4.475,4.865-6.526,7.678c-1.536,2.051-3.198,3.069-4.989,3.069
					c-1.278,0-2.556-0.636-3.841-1.92c-1.275-1.79-1.594-3.456-0.956-4.992c0.644-1.532,1.218-2.687,1.729-3.453
					c9.212-15.096,27.381-29.685,54.509-43.764c4.094-2.044,8.063-3.965,11.9-5.757c3.841-1.789,7.678-3.582,11.516-5.374
					c8.188-4.091,16.317-8.124,24.378-12.093c8.057-3.965,16.058-8.377,23.993-13.244c5.372-3.071,10.874-7.292,16.508-12.667
					c5.624-5.376,11-10.751,16.12-16.124c6.654-6.911,11.451-13.946,14.399-21.111c2.938-7.163,3.897-13.689,2.877-19.578
					c-0.516-4.091-2.56-7.93-6.14-11.518c-3.588-3.581-8.702-5.375-15.354-5.375c-3.84,0-7.746,0.577-11.71,1.729
					c-3.97,1.15-7.87,2.751-11.708,4.798c-3.836,2.052-7.361,4.479-10.559,7.294c-3.202,2.817-5.821,5.888-7.869,9.212
					c-2.818,4.355-4.545,8.578-5.184,12.667c-0.64,4.098,1.212,6.784,5.567,8.063c3.072,1.023,6.203,0.958,9.407-0.194
					c3.195-1.152,6.459-2.879,9.788-5.183c2.812-1.787,4.666-2.431,5.566-1.917c0.896,0.513,1.212,1.599,0.959,3.262
					c-0.256,1.667-0.899,3.712-1.917,6.144c-1.025,2.435-2.052,4.545-3.073,6.331c-2.56,4.355-6.591,9.153-12.092,14.398
					c-5.507,5.247-12.608,9.275-21.303,12.089c-6.66,2.052-12.285,1.284-16.895-2.303c-4.604-3.581-6.139-9.849-4.604-18.811
					c1.022-5.884,3.323-12.344,6.91-19.385C181.107,127.653,185.711,120.812,191.345,114.149z"/>
			</g>
		</g>
		<g>
			<g>
				<path fill="#FFFFFF" d="M340.351,254.027c0-6.903-2.671-11.468-5.897-15.812c-4.675,5.346-11.582,9.689-23.717,9.689
					c-17.701,0-31.842-5.569-31.842-20.823c0-9.46,4.453-15.807,17.48-18.7c-6.237-5.68-9.799-11.359-9.799-19.263
					c0-15.253,12.582-21.49,25.61-21.49c15.587,0,22.267,6.125,22.267,14.809c0,7.682-5.682,13.807-17.93,18.037
					c2.453,1.671,5.347,3.563,8.688,5.678c5.899,3.786,11.912,7.573,16.922,12.359c1.229-5.678,1.781-11.138,1.892-16.256h-8.795
					v-2.227h19.373v2.227h-7.795c-0.11,6.347-0.667,12.582-2.113,18.817c5.345,5.9,9.685,11.689,9.685,22.6
					c0,15.921-13.244,30.953-27.721,30.953c-9.688,0-15.256-4.232-15.256-11.247c0-5.565,3.899-9.352,9.241-9.352
					c5.681,0,8.907,2.781,8.907,8.016c0,1.114-0.223,2.45-0.667,4.008h-3.896c-1.113,3.341-0.444,5.902,4.004,5.902
					C336.568,271.954,340.351,263.379,340.351,254.027z M332.555,235.878c-3.672-3.896-7.679-7.126-14.358-11.578
					c-8.129-5.343-15.032-9.685-20.263-14.251c-1.116,2.337-1.67,6.233-1.67,13.915c0,15.812,6.233,21.046,17.594,21.046
					C322.982,245.008,328.771,240.889,332.555,235.878z M314.521,199.135c6.905-3.673,7.015-8.682,7.015-16.03
					c0-8.909-3.341-13.138-9.688-13.138c-4.677,0-10.245,2.338-10.245,11.356C301.604,188.228,304.388,192.123,314.521,199.135z"/>
			</g>
		</g>
		<g>
			<g>
				<path fill="#FFFFFF" d="M425.383,133.515c4.354-1.021,9.341-1.537,14.977-1.537c4.09,0,8.184,0.516,12.278,1.537
					c4.093,1.025,8.124,2.112,12.093,3.262c3.965,1.15,7.997,2.178,12.098,3.07c4.085,0.9,8.308,1.345,12.668,1.345
					c3.834,0,7.161-0.704,9.976-2.112c2.814-1.403,5.242-3.003,7.3-4.798c2.041-1.789,3.896-3.389,5.562-4.798
					c1.661-1.403,3.264-2.114,4.794-2.114c1.279,0,2.5,0.517,3.653,1.538c1.149,1.024,1.727,2.302,1.727,3.835
					c0,1.028-0.384,1.923-1.151,2.689c-4.354,4.866-8.827,9.538-13.433,14.012c-4.608,4.481-9.09,9.153-13.438,14.011
					c-7.424,8.196-14.461,16.449-21.118,24.759c-6.652,8.321-13.301,16.834-19.958,25.53
					c-11.517,15.355-22.907,30.457-34.169,45.295c-11.26,14.847-22.006,30.327-32.239,46.45c-0.521,0.768-1.477,2.301-2.88,4.605
					c-1.413,2.303-2.945,4.676-4.614,7.104c-1.661,2.435-3.257,4.603-4.794,6.526c-1.535,1.916-2.686,2.879-3.456,2.879h-0.767
					c-7.421-1.791-15.868-2.688-25.333-2.688c-5.634,0-11.136,0.383-16.51,1.148c-1.285,0.261-2.626,0.514-4.03,0.771
					c-1.407,0.251-2.751,0.38-4.032,0.38c-2.552,0-3.836-1.019-3.836-3.069c0-0.766,0.383-1.539,1.151-2.302l147.405-145.104
					c-5.373,2.56-11.129,3.838-17.271,3.838c-5.122,0-9.788-0.699-14.011-2.112c-4.224-1.404-8.316-2.879-12.283-4.414
					c-3.972-1.533-8.005-3.003-12.092-4.416c-4.099-1.403-8.447-2.11-13.055-2.11c-5.631,0-10.044,1.026-13.244,3.07
					c-3.2,2.054-5.822,4.226-7.868,6.531c-2.054,2.298-3.775,4.479-5.18,6.524c-1.411,2.049-2.882,3.071-4.415,3.071
					c-3.071,0-4.608-1.791-4.608-5.375c0-3.323,2.496-7.872,7.486-13.627c4.991-5.755,10.809-11.451,17.468-17.083
					c6.646-5.624,13.176-10.423,19.574-14.393c6.396-3.966,11.137-5.952,14.205-5.952c1.275,0,2.494,0.326,3.646,0.961
					c1.15,0.642,1.727,1.6,1.727,2.879v0.383L425.383,133.515L425.383,133.515z"/>
			</g>
		</g>
	</g>
	<g>
		<g>
			<path fill="#FFFFFF" d="M352.058,367.614c0.048-0.734,0.074-1.101,0.123-1.837c0.243-3.756-0.352-5.25-3.188-5.426
				c-0.516-0.026-0.774-0.047-1.294-0.076c-0.286,4.822-0.432,7.229-0.714,12.05c0.415,0.026,0.616,0.036,1.032,0.063
				C350.896,372.562,351.85,370.822,352.058,367.614z"/>
		</g>
		<g>
			<path fill="#FFFFFF" d="M367.277,378.342c2.87,0.238,4.306,0.368,7.179,0.635c-1.001-4.222-1.51-6.328-2.543-10.545
				C370.042,372.391,369.112,374.371,367.277,378.342z"/>
		</g>
		<g>
			<path fill="#FFFFFF" d="M221.456,373.758c-0.711-8.002-1.306-11.975-6.161-11.513c-4.893,0.464-4.797,4.637-3.99,12.632
				c0.114,1.124,0.171,1.691,0.284,2.814c0.74,7.33,1.631,11.482,6.217,11.05c4.391-0.419,4.603-4.239,3.906-12.089
				C221.608,375.498,221.559,374.913,221.456,373.758z"/>
		</g>
		<g>
			<path fill="#FFFFFF" d="M347.853,373.126c-0.368-0.022-0.549-0.033-0.913-0.056c-0.314,5.242-0.475,7.865-0.788,13.111
				c0.738,0.045,1.106,0.067,1.847,0.111c3.024,0.188,4.042-2.023,4.284-5.621c0.054-0.828,0.079-1.242,0.134-2.074
				C352.629,375.393,351.725,373.359,347.853,373.126z"/>
		</g>
		<g>
			<polygon fill="#FFFFFF" points="194.907,432.838 194.907,411.265 161.336,415.655 			"/>
		</g>
		<g>
			<polygon fill="#FFFFFF" points="156.184,382.502 108.144,383.482 130.15,409.189 108.144,434.891 192.852,434.891 
				159.283,417.704 			"/>
		</g>
		<g>
			<polygon fill="#FFFFFF" points="397.161,410.598 397.161,432.838 430.731,415.655 			"/>
		</g>
		<g>
			<path fill="#FFFFFF" d="M402.276,365.271c-0.526-0.068-0.802-0.101-1.329-0.164c-0.588,4.793-0.873,7.19-1.458,11.984
				c0.506,0.062,0.757,0.09,1.266,0.154c2.938,0.365,4.659-1.036,5.199-5.232c0.059-0.451,0.086-0.674,0.146-1.125
				C406.662,366.531,405.1,365.618,402.276,365.271z"/>
		</g>
		<g>
			<path fill="#FFFFFF" d="M430.731,412.573c1.606-11.295,3.217-22.587,4.82-33.882c1.217-8.553,2.436-17.105,3.653-25.658
				c-94.796-13.494-191.032-13.494-285.832,0c2.825,19.846,5.65,39.693,8.474,59.539c81.448-11.592,164.024-12.598,245.669-3.014
				C415.263,410.469,423.003,411.474,430.731,412.573z M201.167,390.882c-0.332-0.476-0.52-0.735-1.145-0.663
				c-1.332,0.154-3.34,1.614-7.636,2.154c-8.279,1.041-13.962-2.557-15.282-11.834c-1.337-9.395,3.598-15.186,11.873-16.227
				c4.199-0.527,6.28,0.457,7.693,0.293c0.646-0.073,0.777-0.367,1.001-0.906c0.177-0.02,0.266-0.034,0.443-0.055
				c0.518,3.366,0.778,5.053,1.294,8.418c-0.288,0.032-0.435,0.047-0.722,0.08c-2.752-4.535-5.577-7.558-9.046-7.123
				c-4.073,0.513-5.776,4.381-4.709,12.426c0.163,1.227,0.244,1.84,0.407,3.065c0.946,7.149,3.63,11.5,7.891,10.97
				c3.167-0.396,5.311-3.97,6.94-9.287c0.284-0.03,0.428-0.047,0.713-0.079c0.286,3.485,0.429,5.228,0.718,8.714
				C201.425,390.85,201.339,390.861,201.167,390.882z M217.729,389.577c-8.731,0.829-13.466-3.7-14.417-12.272
				c-0.991-8.965,3.206-15.06,12.231-15.912c8.702-0.818,13.528,4.02,14.228,12.891
				C230.458,382.997,226.771,388.716,217.729,389.577z M252.387,367.305c-2.261-5.537-4.505-7.07-9.689-6.748
				c-0.454,0.029-0.685,0.043-1.14,0.075c0.326,5.085,0.489,7.628,0.814,12.714c0.718-0.045,1.079-0.068,1.797-0.113
				c2.593-0.16,4.194-2.25,4.659-5.416c0.242-0.017,0.361-0.024,0.603-0.039c0.257,4.635,0.387,6.953,0.642,11.59
				c-0.27,0.017-0.406,0.019-0.672,0.033c-1.095-3.901-2.579-5.312-5.168-5.15c-0.718,0.044-1.076,0.068-1.794,0.113
				c0.306,4.771,0.46,7.156,0.764,11.932c1.948-0.124,2.923-0.18,4.872-0.293c0.019,0.346,0.032,0.509,0.052,0.855
				c-5.936,0.346-8.903,0.543-14.832,0.994c-0.027-0.348-0.041-0.51-0.068-0.856c0.926-0.068,1.391-0.106,2.319-0.175
				c-0.75-10.262-1.127-15.391-1.878-25.646c-0.956,0.069-1.435,0.108-2.389,0.179c-0.026-0.34-0.039-0.518-0.066-0.862
				c8.425-0.644,12.643-0.912,21.078-1.345c0.331,3.246,0.492,4.877,0.82,8.125C252.823,367.284,252.674,367.29,252.387,367.305z
				 M276.181,366.406c-2.104-5.596-4.309-7.197-9.499-7.018c-0.452,0.016-0.682,0.025-1.135,0.043
				c0.184,5.092,0.274,7.643,0.46,12.73c0.718-0.023,1.075-0.038,1.794-0.062c2.595-0.088,4.257-2.137,4.811-5.287
				c0.241-0.008,0.361-0.016,0.601-0.021c0.126,4.643,0.19,6.964,0.319,11.604c-0.269,0.008-0.403,0.013-0.67,0.021
				c-0.985-3.933-2.43-5.388-5.022-5.3c-0.717,0.023-1.076,0.037-1.794,0.062c0.172,4.78,0.259,7.17,0.431,11.952
				c1.949-0.071,2.926-0.104,4.875-0.163c0.012,0.348,0.017,0.514,0.027,0.858c-5.938,0.179-8.909,0.296-14.846,0.579
				c-0.018-0.346-0.025-0.51-0.042-0.854c0.929-0.046,1.391-0.068,2.318-0.109c-0.466-10.278-0.696-15.416-1.161-25.69
				c-0.958,0.043-1.434,0.065-2.388,0.11c-0.019-0.344-0.025-0.521-0.041-0.864c8.437-0.408,12.655-0.558,21.095-0.756
				c0.238,3.258,0.358,4.885,0.595,8.145C276.616,366.393,276.47,366.396,276.181,366.406z M301.359,385.46
				c-8.631-0.049-12.942-0.021-21.572,0.155c-0.007-0.348-0.011-0.514-0.019-0.857c0.93-0.02,1.393-0.027,2.32-0.044
				c-0.178-10.289-0.265-15.429-0.441-25.713c-0.958,0.017-1.438,0.022-2.395,0.044c-0.008-0.346-0.011-0.52-0.018-0.863
				c8.442-0.171,12.664-0.203,21.104-0.164c0.15,3.104,0.224,4.657,0.366,7.764c-0.287-0.002-0.432-0.006-0.722-0.006
				c-2.189-5.145-4.106-6.916-9.013-6.885c-0.566,0.004-0.854,0.008-1.42,0.012c0.04,4.844,0.061,7.264,0.099,12.108
				c0.545-0.004,0.816-0.004,1.36-0.009c2.597-0.02,4.271-2.172,4.951-5.148c0.24,0,0.362,0,0.604,0
				c0,4.641,0.001,6.957,0.001,11.599c-0.271,0-0.405,0-0.673,0c-0.954-3.919-2.48-5.443-5.275-5.427
				c-0.384,0.002-0.574,0.006-0.959,0.008c0.041,5.033,0.062,7.55,0.102,12.582c0.598-0.004,0.896-0.006,1.493-0.01
				c4.997-0.033,8.468-3.424,9.681-7.691c0.317,0.002,0.473,0.002,0.79,0.003C301.578,380.334,301.502,382.044,301.359,385.46z
				 M325.881,385.967c-8.626-0.303-12.938-0.404-21.566-0.484c0.002-0.346,0.002-0.51,0.009-0.854
				c0.925,0.009,1.396,0.015,2.317,0.024c0.129-10.288,0.193-15.435,0.313-25.719c-0.957-0.012-1.436-0.015-2.391-0.023
				c0.002-0.346,0.007-0.52,0.011-0.863c8.443,0.079,12.66,0.167,21.098,0.452c0.06,3.108,0.088,4.663,0.146,7.772
				c-0.289-0.01-0.438-0.019-0.728-0.026c-2.042-5.207-3.909-7.033-8.813-7.146c-0.566-0.016-0.846-0.021-1.411-0.033
				c-0.103,4.844-0.154,7.267-0.26,12.11c0.543,0.011,0.812,0.019,1.354,0.03c2.598,0.059,4.336-2.044,5.104-5.002
				c0.244,0.008,0.364,0.008,0.606,0.016c-0.136,4.641-0.206,6.959-0.342,11.598c-0.271-0.008-0.409-0.015-0.678-0.021
				c-0.84-3.947-2.319-5.516-5.113-5.578c-0.382-0.009-0.576-0.014-0.956-0.021c-0.111,5.033-0.162,7.546-0.267,12.578
				c0.597,0.014,0.895,0.019,1.493,0.033c4.994,0.112,8.562-3.168,9.899-7.397c0.317,0.011,0.471,0.011,0.789,0.022
				C326.248,380.85,326.127,382.555,325.881,385.967z M347.441,387.004c-4.612-0.279-6.929-0.404-11.546-0.62
				c0.018-0.299,0.023-0.446,0.034-0.743c1.023,0.045,1.54,0.067,2.561,0.118c0.525-10.368,0.795-15.547,1.311-25.913
				c-1.052-0.054-1.585-0.08-2.637-0.127c0.013-0.299,0.021-0.451,0.032-0.75c4.853,0.229,7.279,0.358,12.128,0.657
				c7.132,0.437,11.145,2.328,10.782,7.173c-0.277,3.756-2.82,5.561-7.059,5.945c0,0.033-0.006,0.049-0.008,0.08
				c4.986,0.959,7.775,3.271,7.464,7.374C360.044,386.257,354.818,387.454,347.441,387.004z M386.715,390.338
				c-5.115-0.555-7.677-0.818-12.797-1.297c0.027-0.296,0.037-0.447,0.063-0.742c1.111,0.104,1.671,0.156,2.782,0.264
				c-0.817-3.48-1.235-5.217-2.078-8.694c-3.135-0.292-4.7-0.431-7.841-0.694c-1.501,3.273-2.245,4.909-3.724,8.192
				c1.178,0.095,1.764,0.142,2.938,0.239c-0.021,0.297-0.038,0.442-0.062,0.74c-2.398-0.199-3.599-0.301-5.997-0.482
				c0.022-0.297,0.031-0.438,0.056-0.736c0.737,0.059,1.104,0.087,1.842,0.143c4.851-10.427,7.34-15.625,12.437-25.979
				c1.327,0.122,1.994,0.181,3.323,0.306c3.068,11.11,4.529,16.672,7.335,27.807c0.724,0.076,1.083,0.119,1.802,0.195
				C386.765,389.893,386.749,390.043,386.715,390.338z M403.3,385.469c0.147-1.135,0.215-1.703,0.362-2.839
				c0.351-2.758-0.02-4.271-2.161-4.538c-0.843-0.107-1.257-0.162-2.1-0.264c-0.642,5.213-0.967,7.82-1.605,13.033
				c1.019,0.123,1.523,0.188,2.545,0.315c-0.038,0.296-0.061,0.446-0.097,0.742c-5.082-0.635-7.615-0.938-12.704-1.495
				c0.034-0.297,0.048-0.443,0.081-0.738c1.018,0.111,1.535,0.166,2.55,0.283c1.162-10.316,1.748-15.477,2.91-25.789
				c-1.05-0.121-1.574-0.172-2.623-0.287c0.034-0.297,0.05-0.447,0.079-0.742c4.883,0.535,7.32,0.82,12.198,1.427
				c8.432,1.049,12.34,2.491,11.551,8.159c-0.657,4.736-3.396,5.775-7.651,5.574c-0.005,0.049-0.014,0.07-0.016,0.119
				c4.218,1.104,5.459,2.943,4.839,7.45c-0.115,0.822-0.174,1.235-0.287,2.06c-0.35,2.525-0.361,3.435,0.732,3.586
				c0.706,0.099,1.336-0.129,2.27-3.086c0.266,0.067,0.4,0.103,0.66,0.17c-1.221,4.342-2.459,5.312-6.09,4.816
				C403.834,392.759,402.595,390.95,403.3,385.469z"/>
		</g>
		<g>
			<polygon fill="#FFFFFF" points="484.954,383.482 436.021,383.482 433.812,417.704 400.242,434.891 484.954,434.891 
				462.945,409.189 			"/>
		</g>
	</g>
	<g>
		<path fill="#FFFFFF" d="M182.782,484.569c-0.422,0.401-0.944,0.796-1.567,1.183l-3.359-3.518l-2.571,2.451l4.368,4.572
			c-0.401,0.593-0.809,1.083-1.219,1.477c-0.447,0.427-0.975,0.826-1.586,1.199l-7.446-7.797l13.013-12.417l7.342,7.689
			c-0.22,0.301-0.433,0.573-0.637,0.813c-0.208,0.244-0.413,0.466-0.617,0.661c-0.398,0.379-0.922,0.786-1.57,1.218l-4.263-4.463
			l-1.991,1.897l3.358,3.517C183.609,483.671,183.191,484.178,182.782,484.569z"/>
		<path fill="#FFFFFF" d="M194.901,493.025c0.371,0.664,0.686,1.284,0.939,1.864c0.255,0.581,0.414,1.158,0.47,1.729
			c0.057,0.573-0.009,1.15-0.2,1.735c-0.19,0.586-0.543,1.196-1.054,1.834c-0.553,0.688-1.175,1.212-1.859,1.569
			c-0.687,0.356-1.424,0.544-2.214,0.562c-0.789,0.019-1.613-0.145-2.472-0.483c-0.858-0.338-1.732-0.866-2.622-1.582
			c-0.812-0.654-1.475-1.296-1.991-1.927c-0.516-0.629-1.024-1.372-1.524-2.225c0.418-0.411,0.898-0.823,1.442-1.232
			c0.543-0.407,1.121-0.802,1.734-1.188c0.784,1.491,1.621,2.593,2.51,3.312c0.667,0.535,1.268,0.855,1.801,0.955
			c0.535,0.099,1-0.1,1.398-0.594c0.167-0.209,0.271-0.418,0.314-0.63c0.041-0.214,0.038-0.424-0.009-0.634
			c-0.047-0.211-0.124-0.418-0.229-0.619c-0.107-0.202-0.219-0.404-0.336-0.606l-0.769-1.296c-0.335-0.549-0.601-1.098-0.798-1.642
			c-0.197-0.545-0.307-1.085-0.324-1.626c-0.018-0.541,0.063-1.078,0.248-1.617c0.184-0.537,0.501-1.084,0.95-1.643
			c0.553-0.688,1.161-1.207,1.826-1.549c0.664-0.343,1.357-0.527,2.081-0.558c0.721-0.027,1.459,0.106,2.214,0.402
			c0.752,0.297,1.502,0.746,2.248,1.347c0.666,0.539,1.258,1.12,1.774,1.751c0.516,0.631,1.027,1.354,1.536,2.171
			c-0.387,0.375-0.851,0.757-1.39,1.146c-0.54,0.39-1.091,0.719-1.656,0.994c-0.226-0.417-0.504-0.888-0.837-1.413
			c-0.333-0.524-0.838-1.062-1.518-1.609c-0.209-0.167-0.424-0.309-0.645-0.422c-0.221-0.114-0.441-0.188-0.659-0.226
			c-0.219-0.037-0.433-0.02-0.646,0.059c-0.212,0.074-0.405,0.224-0.584,0.445c-0.303,0.375-0.404,0.756-0.301,1.138
			c0.101,0.383,0.27,0.774,0.505,1.182L194.901,493.025z"/>
		<path fill="#FFFFFF" d="M207.582,498.243l-3.583-2.202c0.246-0.692,0.526-1.296,0.839-1.807c0.287-0.468,0.686-0.978,1.198-1.523
			l10.958,6.746c-0.134,0.349-0.27,0.667-0.406,0.954c-0.137,0.288-0.278,0.554-0.427,0.796c-0.287,0.468-0.689,0.997-1.204,1.581
			l-3.583-2.204l-7.314,11.951c-0.836-0.338-1.504-0.662-2.005-0.97c-0.529-0.326-1.126-0.781-1.791-1.367L207.582,498.243z"/>
		<path fill="#FFFFFF" d="M214.598,518.314c-0.378-0.104-0.718-0.206-1.021-0.311c-0.304-0.104-0.591-0.222-0.865-0.349
			c-0.273-0.128-0.581-0.294-0.92-0.499c-0.341-0.204-0.714-0.446-1.12-0.73l12.602-13.843c0.417,0.139,0.802,0.273,1.159,0.403
			c0.355,0.128,0.709,0.273,1.059,0.438c0.288,0.133,0.597,0.297,0.925,0.488c0.329,0.188,0.703,0.409,1.122,0.66l-2.459,18.603
			c-0.93-0.27-1.722-0.554-2.375-0.86c-0.305-0.143-0.602-0.301-0.893-0.472s-0.597-0.369-0.917-0.594l0.59-3.564
			c-0.482-0.074-0.931-0.174-1.347-0.296c-0.417-0.121-0.814-0.27-1.194-0.445c-0.351-0.163-0.696-0.356-1.037-0.579
			c-0.339-0.225-0.684-0.479-1.03-0.771L214.598,518.314z M223.332,507.806l-4.225,5.126c0.223,0.198,0.439,0.37,0.646,0.521
			c0.208,0.152,0.433,0.285,0.676,0.396c0.258,0.124,0.522,0.223,0.79,0.302c0.269,0.077,0.559,0.146,0.866,0.197L223.332,507.806z"
			/>
		<path fill="#FFFFFF" d="M245.091,524.504c-0.334,1.051-0.803,1.855-1.404,2.416s-1.3,0.932-2.096,1.107
			c-0.797,0.181-1.684,0.201-2.659,0.061c-0.977-0.142-2.008-0.388-3.092-0.74c-0.862-0.278-1.625-0.563-2.292-0.851
			c-0.665-0.287-1.38-0.605-2.148-0.959l5.441-17.062c0.637,0.104,1.324,0.237,2.062,0.407c0.738,0.17,1.585,0.411,2.544,0.721
			c0.91,0.295,1.735,0.646,2.476,1.055c0.742,0.407,1.35,0.887,1.827,1.434c0.476,0.553,0.79,1.182,0.943,1.889
			c0.152,0.71,0.085,1.516-0.204,2.424c-0.24,0.745-0.623,1.373-1.155,1.876c-0.532,0.505-1.104,0.839-1.721,1.01
			c0.321,0.261,0.615,0.563,0.885,0.904c0.271,0.343,0.481,0.729,0.636,1.155c0.154,0.428,0.235,0.905,0.243,1.437
			C245.386,523.309,245.291,523.883,245.091,524.504z M237.825,519.722l-1.28,4.011c0.106,0.054,0.243,0.107,0.407,0.172
			c0.166,0.063,0.383,0.137,0.655,0.226c0.303,0.099,0.62,0.167,0.952,0.203c0.331,0.038,0.649,0.023,0.952-0.046
			c0.302-0.068,0.571-0.211,0.808-0.421c0.236-0.215,0.417-0.521,0.544-0.917c0.244-0.763,0.16-1.374-0.249-1.831
			c-0.408-0.459-1.011-0.813-1.808-1.077L237.825,519.722z M238.903,516.335l0.67,0.217c0.686,0.224,1.263,0.257,1.736,0.104
			c0.472-0.155,0.817-0.573,1.035-1.256c0.107-0.333,0.127-0.637,0.063-0.902c-0.065-0.268-0.18-0.496-0.347-0.691
			c-0.168-0.194-0.371-0.357-0.611-0.487c-0.24-0.13-0.48-0.235-0.718-0.312c-0.096-0.032-0.212-0.069-0.347-0.114
			c-0.137-0.043-0.254-0.074-0.354-0.09L238.903,516.335z"/>
		<path fill="#FFFFFF" d="M254.143,513.693c0.457,0.032,0.868,0.072,1.235,0.117c0.367,0.048,0.69,0.101,0.967,0.161
			c0.295,0.064,0.622,0.154,0.984,0.269c0.363,0.116,0.749,0.249,1.159,0.411l-2.931,13.721l5.674,1.248
			c-0.006,0.426-0.028,0.792-0.068,1.104c-0.042,0.307-0.086,0.58-0.138,0.828c-0.061,0.276-0.134,0.565-0.223,0.86
			c-0.09,0.297-0.222,0.647-0.394,1.056l-10.021-2.202L254.143,513.693z"/>
		<path fill="#FFFFFF" d="M269.116,535.02c-0.612-0.092-1.339-0.276-2.178-0.557l2.535-17.718c0.457,0.003,0.87,0.014,1.24,0.033
			c0.369,0.021,0.694,0.053,0.977,0.095c0.298,0.044,0.632,0.112,1,0.2c0.369,0.089,0.762,0.2,1.184,0.331l-2.536,17.719
			C270.439,535.139,269.7,535.107,269.116,535.02z"/>
		<path fill="#FFFFFF" d="M286.595,525.771c0.679,0.341,1.286,0.683,1.823,1.021s0.989,0.728,1.358,1.169
			c0.368,0.444,0.639,0.961,0.812,1.553c0.174,0.595,0.229,1.299,0.165,2.114c-0.069,0.885-0.283,1.668-0.647,2.351
			c-0.365,0.683-0.865,1.254-1.508,1.711c-0.639,0.457-1.408,0.789-2.306,0.989c-0.897,0.202-1.914,0.255-3.049,0.159
			c-1.036-0.085-1.943-0.247-2.722-0.478c-0.781-0.234-1.616-0.564-2.507-0.99c0.11-0.578,0.275-1.19,0.495-1.835
			c0.217-0.646,0.468-1.299,0.758-1.962c1.483,0.797,2.792,1.241,3.927,1.335c0.853,0.072,1.524,0,2.021-0.221
			c0.495-0.221,0.767-0.646,0.816-1.278c0.021-0.267-0.012-0.501-0.097-0.702c-0.085-0.197-0.207-0.37-0.364-0.521
			c-0.156-0.146-0.335-0.275-0.536-0.384c-0.201-0.11-0.408-0.216-0.617-0.316l-1.361-0.643c-0.584-0.267-1.11-0.57-1.58-0.911
			c-0.469-0.341-0.864-0.729-1.185-1.169c-0.318-0.438-0.554-0.931-0.703-1.48c-0.151-0.551-0.198-1.182-0.143-1.898
			c0.069-0.883,0.279-1.654,0.633-2.312s0.818-1.202,1.398-1.634c0.58-0.43,1.263-0.731,2.049-0.911
			c0.787-0.174,1.657-0.225,2.607-0.146c0.852,0.073,1.667,0.225,2.446,0.459c0.78,0.23,1.608,0.546,2.485,0.938
			c-0.107,0.528-0.274,1.105-0.499,1.731c-0.225,0.628-0.493,1.214-0.805,1.759c-0.42-0.222-0.914-0.454-1.483-0.704
			c-0.568-0.247-1.289-0.409-2.155-0.481c-0.268-0.022-0.522-0.021-0.77,0.012c-0.245,0.028-0.469,0.091-0.668,0.183
			c-0.2,0.093-0.367,0.229-0.498,0.413c-0.132,0.184-0.21,0.414-0.229,0.697c-0.038,0.482,0.091,0.855,0.393,1.116
			c0.298,0.258,0.659,0.488,1.079,0.693L286.595,525.771z"/>
		<path fill="#FFFFFF" d="M309.36,537.066c-0.621,0.042-1.368,0.014-2.248-0.079l-0.524-7.312l-4.435,0.289l0.524,7.312
			c-0.875,0.209-1.604,0.33-2.189,0.367c-0.616,0.042-1.366,0.016-2.244-0.077l-1.281-17.88c0.445-0.095,0.851-0.172,1.215-0.229
			c0.366-0.057,0.689-0.095,0.974-0.114c0.302-0.02,0.641-0.022,1.019-0.016c0.377,0.01,0.787,0.03,1.226,0.069l0.475,6.637
			l4.436-0.29l-0.476-6.636c0.446-0.096,0.846-0.173,1.206-0.228c0.354-0.06,0.684-0.098,0.984-0.118
			c0.301-0.019,0.639-0.022,1.018-0.015c0.38,0.007,0.787,0.032,1.225,0.07l1.284,17.881
			C310.672,536.904,309.943,537.026,309.36,537.066z"/>
		<path fill="#FFFFFF" d="M327.087,524.782c0.104,0.573,0.147,1.232,0.125,1.966l-4.768,0.834l0.637,3.512l6.203-1.086
			c0.271,0.664,0.461,1.279,0.562,1.839c0.113,0.609,0.156,1.274,0.134,1.992l-10.575,1.854l-3.226-17.771l10.43-1.826
			c0.13,0.351,0.24,0.682,0.328,0.987c0.093,0.309,0.163,0.604,0.216,0.883c0.097,0.541,0.148,1.206,0.154,1.985l-6.055,1.061
			l0.492,2.72l4.77-0.837C326.794,523.59,326.985,524.221,327.087,524.782z"/>
		<path fill="#FFFFFF" d="M336.91,513.282c3.042-0.85,5.57-0.731,7.581,0.352c2.012,1.082,3.445,3.131,4.309,6.146
			c0.87,3.061,0.703,5.53-0.499,7.405c-1.205,1.873-3.385,3.253-6.54,4.133c-0.806,0.224-1.594,0.404-2.361,0.542
			c-0.77,0.135-1.53,0.256-2.283,0.361l-4.914-17.258c0.23-0.101,0.525-0.221,0.886-0.365c0.36-0.144,0.753-0.291,1.176-0.445
			c0.426-0.153,0.866-0.307,1.317-0.459C336.031,513.54,336.476,513.403,336.91,513.282z M340.413,527.596
			c0.118-0.016,0.249-0.043,0.395-0.084c0.144-0.039,0.299-0.082,0.46-0.127c0.625-0.175,1.196-0.416,1.708-0.724
			c0.512-0.311,0.914-0.713,1.206-1.212c0.294-0.497,0.462-1.109,0.511-1.836c0.042-0.728-0.08-1.606-0.374-2.639
			c-0.289-1.015-0.651-1.826-1.085-2.436c-0.436-0.61-0.904-1.057-1.413-1.341c-0.506-0.283-1.05-0.439-1.629-0.459
			c-0.578-0.021-1.158,0.048-1.739,0.21c-0.321,0.089-0.554,0.16-0.697,0.209c-0.143,0.048-0.238,0.079-0.286,0.094L340.413,527.596
			z"/>
		<path fill="#FFFFFF" d="M366.685,522.618l-0.58-0.536l1.579-7.198c0.262-1.264,0.414-2.298,0.455-3.102
			c0.045-0.805-0.057-1.462-0.294-1.981c-0.22-0.47-0.562-0.767-1.038-0.894c-0.473-0.123-1.01-0.049-1.617,0.229
			c-0.576,0.266-1.069,0.614-1.475,1.049c-0.409,0.436-0.753,0.855-1.042,1.266c-0.491-0.419-0.954-0.862-1.389-1.328
			c-0.437-0.465-0.805-0.979-1.104-1.544c0.383-0.524,0.897-1.064,1.544-1.617c0.643-0.555,1.437-1.047,2.378-1.479
			c0.775-0.354,1.535-0.594,2.28-0.714c0.746-0.117,1.447-0.104,2.104,0.047c0.66,0.148,1.255,0.444,1.791,0.881
			c0.532,0.438,0.979,1.045,1.343,1.82c0.251,0.548,0.423,1.097,0.513,1.646c0.088,0.549,0.129,1.094,0.12,1.632
			c-0.007,0.538-0.052,1.068-0.136,1.585c-0.081,0.519-0.17,1.019-0.256,1.501l-0.452,2.421l3.984-1.828
			c0.433,0.578,0.761,1.104,0.978,1.573c0.247,0.534,0.448,1.151,0.609,1.852L366.685,522.618z"/>
		<path fill="#FFFFFF" d="M380.307,497.021c0.956-0.574,1.901-0.887,2.828-0.934c0.924-0.047,1.814,0.115,2.669,0.493
			c0.854,0.377,1.655,0.95,2.41,1.71c0.753,0.762,1.439,1.658,2.066,2.692c0.623,1.031,1.085,2.056,1.386,3.068
			c0.298,1.016,0.42,1.982,0.35,2.902c-0.068,0.919-0.348,1.777-0.843,2.575s-1.221,1.48-2.18,2.056
			c-0.958,0.576-1.9,0.893-2.823,0.947c-0.924,0.057-1.806-0.107-2.646-0.48c-0.842-0.375-1.638-0.934-2.391-1.678
			c-0.75-0.741-1.438-1.629-2.062-2.664c-0.626-1.031-1.092-2.062-1.401-3.09c-0.31-1.028-0.435-2.006-0.368-2.936
			c0.062-0.929,0.337-1.792,0.818-2.59C378.603,498.295,379.33,497.604,380.307,497.021z M382.228,500.298
			c-0.57,0.346-0.812,0.95-0.721,1.813c0.092,0.862,0.55,1.971,1.363,3.318c0.807,1.337,1.578,2.242,2.306,2.726
			c0.73,0.482,1.374,0.556,1.934,0.22c0.545-0.325,0.771-0.919,0.676-1.783c-0.093-0.863-0.542-1.965-1.351-3.3
			c-0.812-1.35-1.587-2.266-2.308-2.752C383.405,500.055,382.771,499.974,382.228,500.298z"/>
		<path fill="#FFFFFF" d="M395.298,495.289c-0.251-0.077-0.523-0.182-0.814-0.317c-0.297-0.133-0.588-0.275-0.881-0.433
			c-0.294-0.155-0.57-0.324-0.843-0.509c-0.271-0.184-0.516-0.37-0.729-0.565l3.848-6.988l0.851-0.659l7.812,9.991l2.529-1.97
			c0.521,0.422,0.964,0.863,1.33,1.329c0.377,0.489,0.712,1.037,0.996,1.645l-8.451,6.588c-0.522-0.422-0.976-0.881-1.356-1.367
			c-0.361-0.465-0.686-0.999-0.968-1.605l2.565-2.003l-4.403-5.629L395.298,495.289z"/>
		<path fill="#FFFFFF" d="M410.211,473.368c0.605,0.392,1.092,0.771,1.46,1.14c0.414,0.418,0.816,0.925,1.209,1.529l-3.736,3.735
			l1.815,1.888c0.081-0.13,0.169-0.243,0.265-0.337c0.096-0.095,0.208-0.206,0.338-0.337c0.577-0.578,1.192-1.024,1.842-1.345
			c0.65-0.315,1.307-0.483,1.969-0.507c0.665-0.021,1.327,0.109,1.989,0.397c0.665,0.286,1.307,0.736,1.922,1.354
			c0.733,0.736,1.259,1.505,1.567,2.313c0.311,0.805,0.419,1.632,0.336,2.477c-0.09,0.844-0.369,1.693-0.84,2.544
			s-1.113,1.684-1.929,2.496c-0.155,0.153-0.358,0.332-0.612,0.537c-0.253,0.208-0.545,0.431-0.869,0.673
			c-0.325,0.242-0.684,0.479-1.071,0.715c-0.393,0.235-0.784,0.445-1.188,0.637c-0.215-0.236-0.416-0.509-0.607-0.804
			c-0.188-0.295-0.364-0.596-0.522-0.896c-0.16-0.302-0.308-0.597-0.438-0.88c-0.129-0.284-0.239-0.551-0.321-0.801
			c0.629-0.294,1.174-0.585,1.642-0.873c0.469-0.287,0.877-0.609,1.229-0.963c0.428-0.424,0.739-0.83,0.939-1.223
			c0.201-0.389,0.314-0.746,0.345-1.07c0.023-0.325-0.02-0.625-0.137-0.896c-0.119-0.272-0.284-0.52-0.496-0.729
			c-0.452-0.45-0.974-0.653-1.564-0.608c-0.592,0.044-1.236,0.417-1.935,1.109c-0.28,0.283-0.553,0.62-0.812,1.011
			c-0.261,0.388-0.484,0.843-0.672,1.361l-0.762,0.157l-6.817-7.353L410.211,473.368z"/>
	</g>
	<g>
		<g>
			<path fill="#FFFFFF" d="M394.534,450.315h-52.894c-0.488,0-0.885-0.396-0.885-0.887c0-0.489,0.396-0.887,0.885-0.887h52.894
				c0.488,0,0.886,0.396,0.886,0.887S395.022,450.315,394.534,450.315z"/>
		</g>
		<g>
			<path fill="#FFFFFF" d="M377.2,468.925h-35.56c-0.488,0-0.885-0.396-0.885-0.886s0.396-0.887,0.885-0.887h35.56
				c0.488,0,0.887,0.396,0.887,0.887S377.688,468.925,377.2,468.925z"/>
		</g>
	</g>
	<g>
		<g>
			<path fill="#FFFFFF" d="M248.028,450.315h-52.89c-0.488,0-0.887-0.396-0.887-0.887c0-0.489,0.398-0.887,0.887-0.887h52.89
				c0.491,0,0.887,0.396,0.887,0.887S248.519,450.315,248.028,450.315z"/>
		</g>
		<g>
			<path fill="#FFFFFF" d="M248.028,468.925h-35.553c-0.489,0-0.886-0.396-0.886-0.886s0.397-0.887,0.886-0.887h35.553
				c0.491,0,0.887,0.396,0.887,0.887S248.519,468.925,248.028,468.925z"/>
		</g>
	</g>
	<g>
		<g>
			<g>
				<g>
					<path fill="#FFFFFF" d="M295.613,496.107c-21.613,0-39.197-17.583-39.197-39.195c0-21.614,17.583-39.197,39.197-39.197
						c21.612,0,39.197,17.583,39.197,39.197C334.808,478.524,317.226,496.107,295.613,496.107z M295.613,418.895
						c-20.962,0-38.016,17.057-38.016,38.019c0,20.961,17.054,38.014,38.016,38.014c20.961,0,38.016-17.053,38.016-38.014
						C333.627,435.95,316.574,418.895,295.613,418.895z"/>
				</g>
			</g>
			<g>
				<g>
					<path fill="#FFFFFF" d="M295.613,493.45c-20.149,0-36.539-16.394-36.539-36.538c0-20.148,16.39-36.541,36.539-36.541
						c20.146,0,36.54,16.393,36.54,36.541C332.149,477.058,315.76,493.45,295.613,493.45z M295.613,420.963
						c-19.823,0-35.949,16.126-35.949,35.949c0,19.82,16.126,35.945,35.949,35.945c19.821,0,35.949-16.124,35.949-35.945
						C331.559,437.091,315.435,420.963,295.613,420.963z"/>
				</g>
			</g>
		</g>
	</g>
	<g>
		<g>
			<path fill="#FFFFFF" d="M299.949,446.968c1.741-1.801,3.811-3.251,6.16-4.232c0.954-0.397,2.255-0.33,1.537-1.466
				c-0.343-0.534-1.396-0.952-1.972-1.195c-6.444-2.713-15.104-0.63-21.517,5.684c-6.756,6.673-8.812,15.965-5.167,22.43
				c1.143,2.031,2.244,2.983,4.573,2.056c0.979-0.389,1.916-0.895,2.835-1.573c0.641-0.471,1.231-0.98,1.78-1.513
				c2.312-2.251,3.898-5.055,4.839-8.008C294.506,454.501,296.748,450.22,299.949,446.968z M313.548,449.674
				c-0.272-1.28-0.699-3.27-2.141-3.696c-1.091-0.323-2.596,0.274-3.587,0.695c-1.768,0.747-3.325,1.868-4.75,3.292
				c-2.548,2.593-4.536,6.276-5.846,10.449c-1.111,3.521-3.014,6.95-5.899,9.768c-0.682,0.669-1.429,1.306-2.217,1.898
				c-0.617,0.464-2.066,0.861-2.371,1.587c-0.532,1.239,2.067,1.158,2.978,1.248c5.86,0.638,12.575-1.75,17.634-6.865
				C312.747,462.605,314.837,455.521,313.548,449.674z"/>
		</g>
	</g>
</g>
</svg>
