<?xml version="1.0" encoding="utf-8"?>
<!-- Generator: Adobe Illustrator 16.0.4, SVG Export Plug-In . SVG Version: 6.00 Build 0)  -->
<!DOCTYPE svg PUBLIC "-//W3C//DTD SVG 1.1//EN" "http://www.w3.org/Graphics/SVG/1.1/DTD/svg11.dtd">
<svg version="1.1" id="Layer_1" xmlns="http://www.w3.org/2000/svg" xmlns:xlink="http://www.w3.org/1999/xlink" x="0px" y="0px"
	 width="402.203px" height="401.422px" viewBox="0 0 402.203 401.422" enable-background="new 0 0 402.203 401.422"
	 xml:space="preserve">
<rect fill="#325775" width="402.203" height="401.422"/>
<g>
	<g>
		<path fill="#FFFFFF" d="M322.391,210.4c5.133-1.211,10.289-2.629,15.449-4.242l-0.272,5.441c-0.065,1.818-0.157,3.629-0.504,5.42
			C332.369,214.631,327.403,212.424,322.391,210.4z M335.419,227.789l0.815-5.383l0.829-5.387
			c-5.318,1.199-10.608,2.193-15.862,2.99C325.969,222.398,330.713,225,335.419,227.789z M332.759,238.352l1.355-5.271
			c0.426-1.77,0.963-3.514,1.305-5.291c-5.316,0.783-10.792,1.328-16.101,1.699C323.844,232.246,328.325,235.203,332.759,238.352z
			 M329.314,248.672l1.88-5.109c0.693-1.689,1.13-3.443,1.564-5.211c-5.313,0.369-10.581,0.541-16.027,0.449
			C320.988,241.902,325.188,245.191,329.314,248.672z M325.108,258.711l2.342-4.92l1.864-5.119
			c-5.372-0.068-10.682-0.332-15.902-0.787C317.435,251.33,321.286,254.916,325.108,258.711z M320.146,268.398
			c0.996-1.523,1.865-3.121,2.597-4.781l2.365-4.906c-5.388-0.52-10.683-1.223-15.884-2.102
			C313.093,260.432,316.731,264.361,320.146,268.398z M314.453,277.688l2.86-4.639l2.833-4.65
			c-5.359-0.963-10.612-2.102-15.755-3.402C307.85,269.055,311.274,273.328,314.453,277.688z M307.928,286.412l3.259-4.365
			l3.267-4.359c-5.28-1.404-10.459-2.973-15.509-4.697C302.055,277.299,305.054,281.779,307.928,286.412z M300.726,294.584
			l3.666-4.031c1.213-1.352,2.509-2.633,3.536-4.141c-4.984-1.672-10.116-3.723-15.019-5.855
			C295.645,285.084,298.254,289.762,300.726,294.584z M292.941,302.189l4.031-3.656c1.407-1.158,2.49-2.645,3.753-3.949
			c-4.952-2.176-9.594-4.318-14.411-6.924C288.661,292.363,290.873,297.209,292.941,302.189z M284.592,309.188
			c1.435-1.115,2.967-2.102,4.313-3.324l4.036-3.674c-4.754-2.531-9.358-5.213-13.802-8.008
			C281.204,299.166,282.926,304.049,284.592,309.188z M275.743,315.537c1.597-0.885,3.046-1.979,4.489-3.082l4.359-3.268
			c-4.554-2.93-8.946-5.986-13.172-9.15C273.082,305.166,274.567,310.398,275.743,315.537z M254.79,309.898
			c0.797,5.25,1.408,10.6,1.834,16.023l4.906-2.369l4.9-2.355C262.381,317.531,258.488,313.754,254.79,309.898z M266.431,321.197
			l4.656-2.832l4.656-2.828c-4.323-3.314-8.474-6.734-12.455-10.252C264.51,310.482,265.56,315.785,266.431,321.197z
			 M246.483,329.889l5.113-1.873c1.718-0.588,3.417-1.236,5.027-2.094c-3.671-3.781-7.243-7.854-10.646-12.061
			C246.334,319.129,246.501,324.475,246.483,329.889z M236.079,333.068l5.276-1.352c1.73-0.527,3.415-1.227,5.128-1.828
			c-3.397-4.189-6.567-8.35-9.6-12.729C236.81,322.4,236.542,327.705,236.079,333.068z M225.461,335.461
			c1.801-0.26,3.602-0.5,5.342-1.031l5.276-1.361c-3.055-4.461-5.905-8.961-8.567-13.51
			C227.067,325.006,226.359,330.203,225.461,335.461z M214.688,337.07l5.391-0.791l5.383-0.818
			c-2.692-4.725-5.184-9.482-7.483-14.26C217.079,326.459,215.997,331.824,214.688,337.07z M203.797,337.613l5.446-0.277
			l5.444-0.266c-2.314-4.965-4.43-9.945-6.342-14.934C207.032,327.279,205.514,332.443,203.797,337.613z M192.91,337.336
			l5.444,0.277c1.818,0.158,3.628,0.158,5.442,0c-1.912-4.916-3.629-9.996-5.143-15.223
			C196.938,327.375,195.021,332.359,192.91,337.336z M182.076,336.279l5.388,0.791l5.446,0.266
			c-1.517-5.156-2.831-10.303-3.947-15.422C186.861,326.797,184.571,331.51,182.076,336.279z M171.348,334.43
			c1.745,0.531,3.545,0.771,5.341,1.031l5.388,0.818c-1.097-5.299-1.99-10.574-2.693-15.805
			C176.889,325.246,174.189,330,171.348,334.43z M160.717,315.52c-3.193,4.234-6.581,8.404-10.164,12.496l5.119,1.873
			c1.708,0.602,3.392,1.301,5.123,1.828C160.554,326.33,160.554,320.846,160.717,315.52z M160.795,331.717l5.281,1.352l5.271,1.361
			c-0.662-5.41-1.12-10.779-1.388-16.088C167.099,322.854,164.049,327.312,160.795,331.717z M140.625,323.553l4.906,2.369
			c1.606,0.857,3.305,1.506,5.021,2.094c0.158-5.307,0.523-10.594,1.162-16.01C148.206,315.939,144.508,319.791,140.625,323.553z
			 M131.063,318.359l4.651,2.838l4.91,2.355c0.611-5.336,1.394-10.576,2.365-15.73C139.19,311.428,135.216,314.945,131.063,318.359z
			 M121.918,312.449c1.443,1.109,2.897,2.203,4.484,3.088l4.661,2.822c1.051-5.299,2.269-10.496,3.656-15.582
			C130.526,306.262,126.302,309.418,121.918,312.449z M113.245,305.863c1.342,1.223,2.888,2.209,4.313,3.324l4.359,3.262
			c1.491-5.225,3.134-10.34,4.938-15.318C122.487,300.152,117.846,303.193,113.245,305.863z M105.178,298.533l4.036,3.656
			l4.031,3.674c1.911-5.119,3.979-10.107,6.192-14.953C114.837,293.584,110.079,296.125,105.178,298.533z M97.759,290.553
			l3.665,4.031c1.264,1.305,2.342,2.791,3.754,3.949c2.143-4.781,4.758-9.752,7.331-14.391
			C107.732,286.424,102.808,288.568,97.759,290.553z M90.969,282.047l3.258,4.365c1.023,1.508,2.324,2.789,3.532,4.141
			c2.619-4.688,5.281-9.145,8.34-13.676C101.184,278.752,96.135,280.482,90.969,282.047z M84.841,273.049l2.86,4.633l3.268,4.365
			c2.99-4.477,6.1-8.785,9.321-12.924C95.189,270.639,90.104,271.906,84.841,273.049z M90.835,252.246
			c-5.286,0.693-10.715,1.234-16.134,1.545l2.347,4.92l2.359,4.906C83.129,259.645,86.942,255.852,90.835,252.246z M79.407,263.617
			c0.731,1.66,1.606,3.254,2.602,4.781l2.832,4.65c3.365-4.234,6.831-8.303,10.396-12.191
			C89.937,262.025,84.643,262.945,79.407,263.617z M70.961,243.562l1.874,5.109l1.866,5.119c4.063-3.67,8.195-7.16,12.398-10.451
			C81.791,243.6,76.408,243.678,70.961,243.562z M68.04,233.076l1.356,5.275c0.431,1.768,0.865,3.521,1.564,5.211
			c4.124-3.271,8.571-6.428,13.079-9.387C78.765,234.006,73.428,233.641,68.04,233.076z M65.916,222.406l0.814,5.383
			c0.343,1.777,0.88,3.521,1.31,5.287c4.504-2.959,8.947-5.699,13.622-8.275C76.455,224.197,71.197,223.402,65.916,222.406z
			 M64.584,211.596c0.064,1.822,0.156,3.633,0.504,5.424l0.828,5.387c4.739-2.596,9.507-4.988,14.297-7.178
			C74.844,214.234,69.711,213.02,64.584,211.596z M64.032,200.709l0.282,5.449l0.27,5.438c4.97-2.209,9.954-4.227,14.944-6.041
			C74.372,204.145,69.202,202.523,64.032,200.709z M64.584,189.818l-0.27,5.447l-0.282,5.443c5.17-1.811,10.34-3.434,15.496-4.846
			C74.538,194.049,69.554,192.031,64.584,189.818z M65.916,179.021l-0.828,5.383c-0.348,1.785-0.439,3.6-0.504,5.414
			c5.127-1.416,10.26-2.633,15.629-3.623C75.423,184.006,70.655,181.613,65.916,179.021z M68.04,168.344
			c-0.43,1.764-0.967,3.508-1.31,5.285l-0.814,5.393c5.285-1,10.539-1.797,15.746-2.402
			C76.987,174.041,72.544,171.301,68.04,168.344z M70.961,157.861c-0.699,1.68-1.134,3.443-1.564,5.207l-1.356,5.275
			c5.388-0.561,10.725-0.926,16-1.096C79.532,164.289,75.085,161.129,70.961,157.861z M87.1,158.078
			c-4.203-3.291-8.335-6.771-12.398-10.451l-1.866,5.119l-1.874,5.115C76.408,157.744,81.791,157.814,87.1,158.078z M79.407,137.805
			l-2.359,4.908l-2.347,4.914c5.419,0.311,10.848,0.85,16.134,1.541C86.942,145.568,83.129,141.779,79.407,137.805z M84.841,128.369
			l-2.832,4.657c-0.995,1.522-1.87,3.111-2.602,4.779c5.235,0.668,10.529,1.594,15.829,2.75
			C91.672,136.676,88.206,132.607,84.841,128.369z M90.969,119.372l-3.268,4.36l-2.86,4.637c5.263,1.144,10.349,2.412,15.449,3.93
			C97.068,128.159,93.959,123.848,90.969,119.372z M97.759,110.863c-1.208,1.354-2.509,2.636-3.532,4.146l-3.258,4.363
			c5.166,1.564,10.215,3.291,15.13,5.17C103.04,120.01,100.378,115.549,97.759,110.863z M105.178,102.886
			c-1.412,1.157-2.49,2.643-3.754,3.944l-3.665,4.032c5.049,1.993,9.974,4.131,14.75,6.41
			C109.936,112.638,107.32,107.667,105.178,102.886z M113.245,95.555l-4.031,3.67l-4.036,3.661c4.901,2.404,9.659,4.947,14.26,7.622
			C117.225,105.661,115.156,100.674,113.245,95.555z M121.918,88.967l-4.359,3.265c-1.426,1.115-2.972,2.104-4.313,3.323
			c4.601,2.675,9.242,5.707,13.611,8.738C125.052,99.308,123.409,94.194,121.918,88.967z M131.063,83.054l-4.661,2.832
			c-1.587,0.884-3.041,1.972-4.484,3.081c4.384,3.033,8.608,6.196,12.802,9.675C133.336,93.561,132.114,88.363,131.063,83.054z
			 M140.625,77.862l-4.91,2.359l-4.651,2.833c4.152,3.418,8.127,6.938,11.927,10.548C142.019,88.446,141.236,83.208,140.625,77.862z
			 M150.553,73.405c-1.717,0.584-3.411,1.24-5.021,2.096l-4.906,2.361c3.883,3.765,7.581,7.617,11.09,11.551
			C151.076,84.002,150.711,78.706,150.553,73.405z M160.8,69.704c-1.736,0.528-3.42,1.225-5.128,1.83l-5.119,1.871
			c3.583,4.094,6.971,8.261,10.164,12.496C160.554,80.573,160.554,75.086,160.8,69.704z M171.348,66.989l-5.271,1.361l-5.276,1.354
			c3.249,4.404,6.304,8.861,9.16,13.369C170.228,77.766,170.686,72.405,171.348,66.989z M182.076,65.133l-5.388,0.824
			c-1.791,0.259-3.596,0.509-5.341,1.031c2.842,4.43,5.541,9.184,8.035,13.957C180.086,75.713,180.979,70.442,182.076,65.133z
			 M192.91,64.083l-5.446,0.273l-5.388,0.777c2.495,4.776,4.785,9.492,6.887,14.371C190.079,74.385,191.394,69.239,192.91,64.083z
			 M203.797,63.803c-1.814-0.158-3.624-0.158-5.438,0l-5.448,0.279c2.111,4.976,4.027,9.965,5.744,14.945
			C200.173,73.802,201.885,68.72,203.797,63.803z M214.688,64.356l-5.444-0.273l-5.446-0.279c1.717,5.172,3.235,10.332,4.549,15.483
			C210.262,74.292,212.373,69.317,214.688,64.356z M225.461,65.958l-5.383-0.824l-5.391-0.777c1.31,5.239,2.392,10.607,3.294,15.865
			C220.277,75.443,222.769,70.682,225.461,65.958z M236.083,68.35l-5.28-1.361c-1.74-0.522-3.541-0.772-5.342-1.031
			c0.898,5.255,1.606,10.459,2.051,15.902C230.174,77.313,233.024,72.809,236.083,68.35z M246.483,71.534
			c-1.713-0.605-3.397-1.302-5.128-1.83l-5.272-1.354c0.459,5.364,0.727,10.668,0.806,15.912
			C239.916,79.879,243.086,75.718,246.483,71.534z M256.624,75.5c-1.61-0.855-3.31-1.512-5.027-2.096l-5.113-1.871
			c0.022,5.411-0.149,10.752-0.505,16.021C249.385,83.35,252.953,79.282,256.624,75.5z M266.431,80.221l-4.9-2.359l-4.906-2.361
			c-0.426,5.42-1.037,10.77-1.834,16.019C258.488,87.664,262.381,83.887,266.431,80.221z M275.743,85.886l-4.651-2.832l-4.661-2.833
			c-0.871,5.408-1.921,10.715-3.143,15.912C267.27,92.616,271.42,89.196,275.743,85.886z M284.592,92.232l-4.359-3.265
			c-1.443-1.109-2.893-2.197-4.489-3.081c-1.176,5.13-2.661,10.368-4.323,15.501C275.65,98.215,280.043,95.164,284.592,92.232z
			 M292.941,99.225l-4.036-3.67c-1.341-1.22-2.879-2.208-4.313-3.323c-1.666,5.138-3.388,10.021-5.452,15.005
			C283.583,104.441,288.188,101.766,292.941,99.225z M300.726,106.831c-1.263-1.302-2.341-2.787-3.753-3.944l-4.031-3.661
			c-2.068,4.984-4.28,9.83-6.627,14.537C291.132,111.153,295.773,109.012,300.726,106.831z M307.928,115.008
			c-1.027-1.505-2.323-2.791-3.536-4.143l-3.666-4.035c-2.472,4.828-5.081,9.506-7.816,14.031
			C297.812,118.729,302.943,116.676,307.928,115.008z M314.453,123.732l-3.267-4.36l-3.259-4.363
			c-2.874,4.637-5.873,9.111-8.983,13.422C303.994,126.706,309.173,125.134,314.453,123.732z M320.146,133.026l-2.833-4.657
			l-2.86-4.637c-3.179,4.36-6.604,8.641-10.062,12.69C309.534,135.123,314.787,133.985,320.146,133.026z M325.108,142.713
			l-2.36-4.908c-0.736-1.667-1.605-3.256-2.602-4.779c-3.415,4.038-7.054,7.964-10.922,11.783
			C314.426,143.93,319.721,143.227,325.108,142.713z M329.319,152.746l-1.865-5.119l-2.346-4.914
			c-3.818,3.797-7.674,7.381-11.696,10.82C318.633,153.084,323.942,152.82,329.319,152.746z M332.759,163.068
			c-0.435-1.764-0.871-3.521-1.564-5.203l-1.875-5.119c-4.132,3.48-8.331,6.775-12.588,9.873
			C322.178,162.525,327.445,162.697,332.759,163.068z M335.419,173.629c-0.342-1.777-0.879-3.521-1.305-5.285l-1.355-5.275
			c-4.434,3.156-8.915,6.107-13.44,8.867C324.627,172.307,330.103,172.848,335.419,173.629z M322.391,191.018l0.505,9.691
			l-0.505,9.691c0.028,3.254-0.795,6.406-1.189,9.609c-0.412,3.201-0.935,6.387-1.883,9.479c-0.912,3.092-1.385,6.312-2.587,9.312
			l-3.319,9.084l-4.188,8.725c-1.236,2.994-3.27,5.562-4.833,8.387c-1.56,2.832-3.438,5.457-5.447,7.994
			c-1.967,2.559-3.73,5.283-6.035,7.566c-2.227,2.342-4.254,4.883-6.595,7.104l-7.175,6.521c-2.494,2.047-5.17,3.879-7.72,5.855
			c-2.485,2.086-5.42,3.494-8.132,5.248c-2.697,1.781-5.526,3.332-8.498,4.613c-2.943,1.307-5.711,3.037-8.812,3.963l-9.095,3.299
			l-9.372,2.398c-3.101,0.898-6.363,1.047-9.534,1.643c-3.171,0.629-6.392,0.865-9.632,0.936c-3.23,0.033-6.461,0.621-9.691,0.254
			l-9.691-0.477l-9.58-1.439c-3.227-0.301-6.286-1.402-9.423-2.133c-3.147-0.719-6.258-1.574-9.243-2.822
			c-2.981-1.219-6.15-1.982-9.002-3.514l-8.725-4.184l-8.271-5.045c-2.818-1.588-5.216-3.805-7.863-5.646
			c-2.681-1.818-5.054-4.014-7.419-6.221c-2.393-2.176-4.869-4.258-6.929-6.768c-2.106-2.447-4.489-4.664-6.41-7.266l-5.809-7.754
			l-5.054-8.266c-1.847-2.666-2.888-5.766-4.401-8.611c-1.523-2.852-2.727-5.846-3.735-8.906c-1.027-3.053-2.439-5.988-3.06-9.164
			l-2.378-9.375l-1.449-9.572c-0.611-3.184-0.407-6.451-0.685-9.674c-0.301-3.23-0.301-6.457,0-9.691
			c0.277-3.217,0.073-6.488,0.685-9.668l1.449-9.576l2.378-9.371c0.62-3.182,2.032-6.115,3.06-9.17
			c1.009-3.062,2.212-6.055,3.735-8.91c1.514-2.842,2.555-5.941,4.401-8.613l5.054-8.256l5.809-7.757
			c1.921-2.602,4.304-4.818,6.41-7.269c2.06-2.507,4.536-4.587,6.929-6.765c2.365-2.203,4.738-4.4,7.419-6.215
			c2.647-1.847,5.045-4.064,7.863-5.651l8.271-5.04l8.725-4.189c2.852-1.531,6.021-2.3,9.002-3.512
			c2.985-1.25,6.096-2.106,9.243-2.828c3.137-0.727,6.196-1.828,9.423-2.127l9.58-1.441l9.691-0.477
			c3.23-0.366,6.461,0.227,9.691,0.259c3.24,0.064,6.461,0.301,9.636,0.935c3.167,0.595,6.43,0.745,9.53,1.639l9.377,2.402
			l9.09,3.293c3.101,0.928,5.868,2.663,8.812,3.964c2.972,1.287,5.801,2.831,8.498,4.614c2.712,1.752,5.646,3.162,8.132,5.254
			c2.555,1.971,5.226,3.804,7.72,5.85l7.175,6.525c2.341,2.222,4.368,4.758,6.595,7.1c2.305,2.281,4.068,5.008,6.035,7.568
			c2.009,2.535,3.888,5.165,5.447,7.992c1.563,2.82,3.605,5.386,4.833,8.386l4.188,8.725l3.319,9.086
			c1.202,2.998,1.679,6.225,2.587,9.316c0.948,3.086,1.471,6.27,1.883,9.479C321.596,184.611,322.419,187.764,322.391,191.018z
			 M321.946,200.709l-0.509-9.617c0.037-3.227-0.787-6.352-1.175-9.531c-0.407-3.178-0.931-6.34-1.871-9.404
			c-0.906-3.062-1.369-6.266-2.568-9.236l-3.29-9.021l-4.151-8.654c-1.223-2.973-3.24-5.518-4.796-8.313
			c-1.55-2.815-3.415-5.415-5.405-7.938c-1.953-2.536-3.698-5.243-5.989-7.507c-2.212-2.318-4.221-4.842-6.544-7.047l-7.118-6.473
			c-2.477-2.031-5.129-3.844-7.66-5.809c-2.458-2.068-5.377-3.471-8.066-5.201c-2.675-1.772-5.489-3.314-8.429-4.582
			c-2.926-1.296-5.664-3.014-8.747-3.935l-9.021-3.272l-9.299-2.383c-3.077-0.884-6.312-1.032-9.46-1.62
			c-3.143-0.63-6.34-0.865-9.562-0.933c-3.202-0.029-6.41-0.623-9.618-0.252l-9.612,0.473l-9.502,1.43
			c-3.202,0.291-6.239,1.393-9.354,2.11c-3.124,0.718-6.207,1.566-9.169,2.8c-2.952,1.213-6.104,1.958-8.927,3.485l-8.66,4.158
			l-8.206,5.001c-2.8,1.574-5.175,3.777-7.804,5.605c-2.66,1.802-5.012,3.984-7.358,6.176c-2.374,2.154-4.832,4.223-6.877,6.709
			c-2.083,2.434-4.459,4.631-6.355,7.211l-5.768,7.694l-5.007,8.198c-1.843,2.641-2.874,5.719-4.374,8.545
			c-1.514,2.828-2.702,5.795-3.707,8.84c-1.019,3.027-2.421,5.938-3.031,9.094l-2.36,9.299l-1.439,9.498
			c-0.606,3.156-0.403,6.404-0.681,9.594c-0.296,3.207-0.296,6.416,0,9.617c0.277,3.199,0.074,6.443,0.681,9.592l1.439,9.5
			l2.36,9.299c0.61,3.16,2.013,6.066,3.031,9.096c1.005,3.045,2.193,6.01,3.707,8.838c1.5,2.824,2.531,5.902,4.374,8.545
			l5.007,8.195l5.768,7.697c1.896,2.578,4.272,4.781,6.355,7.211c2.045,2.49,4.503,4.555,6.877,6.707
			c2.347,2.193,4.698,4.373,7.358,6.178c2.629,1.83,5.004,4.033,7.804,5.605l8.206,5l8.66,4.16c2.822,1.527,5.975,2.271,8.927,3.484
			c2.962,1.23,6.045,2.082,9.169,2.801c3.114,0.717,6.151,1.818,9.354,2.109l9.502,1.43l9.612,0.473
			c3.208,0.371,6.416-0.223,9.618-0.25c3.216-0.068,6.419-0.301,9.562-0.93c3.147-0.588,6.383-0.742,9.46-1.621l9.299-2.387
			l9.021-3.273c3.077-0.916,5.821-2.637,8.747-3.93c2.939-1.271,5.743-2.809,8.429-4.58c2.689-1.732,5.608-3.139,8.066-5.207
			c2.531-1.963,5.184-3.777,7.66-5.809l7.118-6.477c2.323-2.203,4.332-4.719,6.544-7.043c2.291-2.258,4.036-4.967,5.989-7.508
			c1.99-2.518,3.855-5.123,5.405-7.938c1.552-2.795,3.573-5.34,4.796-8.311l4.151-8.656l3.29-9.016
			c1.199-2.971,1.662-6.174,2.568-9.242c0.94-3.064,1.464-6.227,1.871-9.4c0.388-3.18,1.212-6.305,1.175-9.535L321.946,200.709z
			 M319.545,191.24l0.499,9.469l-0.499,9.471c0.037,3.178-0.782,6.252-1.166,9.381c-0.394,3.129-0.912,6.238-1.843,9.256
			c-0.889,3.014-1.337,6.166-2.518,9.094l-3.235,8.873l-4.096,8.512c-1.194,2.93-3.193,5.434-4.721,8.188
			c-1.519,2.768-3.36,5.332-5.318,7.809c-1.92,2.494-3.633,5.168-5.896,7.395c-2.176,2.287-4.15,4.764-6.442,6.934l-7.002,6.373
			c-2.435,1.996-5.05,3.781-7.54,5.711c-2.42,2.051-5.299,3.422-7.937,5.129c-2.639,1.74-5.397,3.258-8.3,4.508
			c-2.878,1.268-5.576,2.971-8.607,3.869l-8.878,3.223l-9.15,2.336c-3.026,0.885-6.215,1.023-9.307,1.607
			c-3.097,0.615-6.243,0.846-9.409,0.916c-3.157,0.018-6.313,0.611-9.469,0.24l-9.47-0.453l-9.349-1.418
			c-3.157-0.277-6.143-1.373-9.207-2.072c-3.072-0.709-6.108-1.541-9.021-2.758c-2.911-1.191-6.007-1.928-8.794-3.43l-8.516-4.088
			l-8.08-4.93c-2.755-1.541-5.087-3.717-7.679-5.512c-2.619-1.773-4.934-3.926-7.239-6.086c-2.336-2.119-4.767-4.15-6.771-6.6
			c-2.054-2.396-4.393-4.555-6.263-7.096l-5.673-7.576l-4.93-8.066c-1.814-2.602-2.823-5.633-4.299-8.41
			c-1.496-2.781-2.667-5.701-3.652-8.697c-1-2.98-2.384-5.846-2.99-8.945l-2.318-9.16l-1.417-9.35
			c-0.597-3.1-0.388-6.299-0.661-9.445c-0.297-3.152-0.297-6.309,0-9.467c0.273-3.141,0.064-6.34,0.661-9.441l1.417-9.348
			l2.318-9.15c0.606-3.109,1.99-5.971,2.99-8.951c0.985-2.994,2.156-5.914,3.652-8.699c1.476-2.779,2.484-5.811,4.299-8.412
			l4.93-8.066l5.673-7.576c1.87-2.541,4.209-4.703,6.263-7.096c2.004-2.448,4.435-4.482,6.771-6.602
			c2.306-2.16,4.62-4.312,7.239-6.084c2.592-1.796,4.924-3.967,7.679-5.516l8.08-4.922l8.516-4.091
			c2.787-1.505,5.883-2.24,8.794-3.425c2.912-1.223,5.948-2.053,9.021-2.758c3.064-0.705,6.05-1.797,9.207-2.084l9.349-1.411
			l9.47-0.456c3.155-0.37,6.312,0.225,9.469,0.248c3.166,0.064,6.312,0.293,9.409,0.916c3.092,0.578,6.28,0.717,9.307,1.599
			l9.15,2.341l8.878,3.221c3.031,0.897,5.729,2.601,8.607,3.871c2.902,1.252,5.661,2.764,8.3,4.51
			c2.638,1.704,5.517,3.074,7.937,5.124c2.49,1.931,5.105,3.714,7.544,5.712l7.003,6.373c2.287,2.172,4.267,4.653,6.438,6.938
			c2.264,2.222,3.977,4.895,5.896,7.389c1.963,2.481,3.805,5.043,5.327,7.81c1.519,2.754,3.518,5.256,4.712,8.188l4.096,8.512
			l3.235,8.881c1.181,2.926,1.629,6.072,2.518,9.09c0.931,3.014,1.449,6.125,1.843,9.258
			C318.763,184.99,319.582,188.064,319.545,191.24z M318.138,200.709l-0.49-9.316c0.041-3.129-0.773-6.156-1.148-9.232
			c-0.389-3.08-0.894-6.145-1.81-9.109c-0.879-2.963-1.314-6.068-2.48-8.941l-3.186-8.73l-4.021-8.381
			c-1.181-2.881-3.147-5.346-4.647-8.053c-1.494-2.726-3.304-5.25-5.234-7.683c-1.897-2.457-3.578-5.092-5.799-7.278
			c-2.147-2.247-4.086-4.69-6.341-6.823l-6.892-6.271c-2.402-1.965-4.971-3.717-7.423-5.624c-2.38-2.019-5.212-3.36-7.813-5.04
			c-2.592-1.723-5.309-3.207-8.164-4.438c-2.832-1.251-5.484-2.931-8.47-3.81l-8.729-3.17l-9.003-2.305
			c-2.98-0.861-6.118-0.996-9.163-1.569c-3.046-0.612-6.142-0.837-9.257-0.896c-3.109-0.025-6.216-0.617-9.321-0.248l-9.321,0.453
			l-9.196,1.387c-3.105,0.275-6.04,1.354-9.058,2.049c-3.021,0.687-6.008,1.504-8.872,2.711c-2.865,1.172-5.919,1.885-8.655,3.375
			l-8.382,4.02l-7.941,4.846c-2.722,1.516-5.013,3.66-7.559,5.429c-2.582,1.738-4.859,3.86-7.127,5.982
			c-2.301,2.087-4.693,4.087-6.665,6.495c-2.018,2.363-4.323,4.487-6.16,6.984l-5.586,7.459l-4.851,7.937
			c-1.787,2.555-2.772,5.541-4.23,8.271c-1.472,2.744-2.62,5.613-3.592,8.561c-0.98,2.93-2.351,5.744-2.938,8.803l-2.282,9.004
			l-1.393,9.201c-0.593,3.053-0.385,6.201-0.657,9.293c-0.292,3.105-0.292,6.217,0,9.322c0.272,3.09,0.064,6.238,0.657,9.293
			l1.389,9.201l2.286,9.002c0.588,3.059,1.958,5.867,2.938,8.803c0.972,2.953,2.12,5.818,3.592,8.562
			c1.458,2.73,2.443,5.715,4.23,8.271l4.851,7.941l5.586,7.455c1.837,2.5,4.143,4.619,6.16,6.979c1.972,2.412,4.364,4.412,6.665,6.5
			c2.268,2.125,4.545,4.24,7.127,5.984c2.546,1.762,4.837,3.914,7.559,5.424l7.941,4.852l8.382,4.021
			c2.736,1.484,5.79,2.197,8.655,3.369c2.864,1.207,5.851,2.025,8.872,2.717c3.018,0.689,5.952,1.768,9.058,2.039l9.196,1.395
			l9.321,0.459c3.105,0.359,6.212-0.229,9.321-0.256c3.11-0.061,6.211-0.281,9.257-0.898c3.045-0.574,6.183-0.707,9.163-1.568
			l9.003-2.305l8.729-3.166c2.985-0.883,5.638-2.564,8.47-3.812c2.855-1.232,5.572-2.717,8.159-4.439
			c2.606-1.684,5.435-3.021,7.818-5.041c2.452-1.906,5.021-3.654,7.423-5.623l6.892-6.27c2.255-2.135,4.193-4.578,6.341-6.828
			c2.221-2.184,3.901-4.812,5.799-7.275c1.931-2.436,3.74-4.947,5.234-7.682c1.5-2.709,3.467-5.166,4.643-8.055l4.025-8.377
			l3.186-8.732c1.166-2.875,1.602-5.98,2.48-8.943c0.916-2.967,1.421-6.029,1.81-9.107c0.375-3.078,1.189-6.1,1.148-9.229
			L318.138,200.709z M337.063,184.404l-0.829-5.383l-0.815-5.393c-4.706,2.801-9.45,5.393-14.218,7.785
			C326.455,182.209,331.745,183.209,337.063,184.404z M343.834,200.709l-0.574,11.336c-0.008,3.799-0.902,7.506-1.384,11.256
			c-0.495,3.752-1.134,7.484-2.212,11.121c-1.041,3.633-1.666,7.393-3.05,10.928l-3.897,10.654l-4.906,10.238
			c-1.486,3.488-3.79,6.533-5.65,9.83c-1.856,3.309-4.05,6.385-6.383,9.371c-2.301,3.004-4.41,6.16-7.077,8.857
			c-2.587,2.76-4.993,5.699-7.729,8.305l-8.405,7.637c-2.911,2.4-6.021,4.568-9.029,6.867c-2.934,2.406-6.336,4.125-9.525,6.156
			c-3.175,2.064-6.493,3.879-9.96,5.416c-3.448,1.549-6.725,3.502-10.345,4.641c-3.562,1.283-7.094,2.652-10.672,3.852
			l-10.997,2.828c-3.651,1.014-7.451,1.264-11.177,1.936c-3.727,0.707-7.493,0.998-11.279,1.1
			c-3.786,0.066-7.559,0.666-11.339,0.287l-11.335-0.572l-11.229-1.676c-3.776-0.398-7.382-1.615-11.062-2.486
			c-3.688-0.865-7.326-1.889-10.839-3.318c-3.513-1.402-7.207-2.369-10.567-4.129l-10.218-4.928l-9.706-5.896
			c-3.281-1.885-6.133-4.43-9.216-6.615c-3.118-2.146-5.918-4.697-8.691-7.275c-2.8-2.549-5.674-5.018-8.113-7.922
			c-2.48-2.852-5.23-5.486-7.493-8.518l-6.794-9.094l-5.933-9.674c-2.125-3.146-3.426-6.738-5.171-10.09
			c-1.763-3.359-3.184-6.863-4.392-10.455c-1.222-3.578-2.81-7.043-3.582-10.756c-0.917-3.676-1.939-7.322-2.769-11.01
			l-1.712-11.221c-0.676-3.729-0.519-7.543-0.814-11.311c-0.319-3.775-0.319-7.559,0-11.34c0.296-3.768,0.139-7.58,0.814-11.311
			l1.712-11.219c0.829-3.689,1.852-7.336,2.769-11.006c0.772-3.717,2.36-7.178,3.582-10.758c1.208-3.592,2.629-7.102,4.392-10.453
			c1.745-3.357,3.046-6.946,5.171-10.095l5.933-9.678l6.794-9.088c2.263-3.034,5.013-5.667,7.493-8.521
			c2.439-2.904,5.313-5.376,8.113-7.919c2.773-2.578,5.573-5.126,8.691-7.282c3.083-2.181,5.935-4.721,9.216-6.612l9.706-5.894
			l10.218-4.929c3.36-1.76,7.055-2.727,10.567-4.133c3.513-1.431,7.15-2.449,10.839-3.314c3.68-0.865,7.285-2.092,11.062-2.487
			l11.229-1.674l11.335-0.569c3.78-0.379,7.553,0.22,11.339,0.287c3.786,0.098,7.553,0.391,11.279,1.098
			c3.726,0.671,7.525,0.918,11.177,1.93l10.997,2.832c3.578,1.199,7.109,2.568,10.672,3.849c3.62,1.138,6.896,3.094,10.345,4.649
			c3.467,1.533,6.785,3.342,9.96,5.41c3.189,2.031,6.592,3.749,9.525,6.155c3.008,2.296,6.118,4.466,9.034,6.866l8.4,7.637
			c2.735,2.607,5.142,5.547,7.729,8.303c2.667,2.701,4.776,5.859,7.077,8.861c2.333,2.98,4.526,6.062,6.383,9.372
			c1.86,3.296,4.164,6.341,5.65,9.835l4.906,10.232l3.897,10.66c1.384,3.531,2.009,7.289,3.05,10.922
			c1.078,3.639,1.717,7.369,2.212,11.121c0.481,3.756,1.376,7.457,1.384,11.258L343.834,200.709z M340.979,200.709l-0.565-11.113
			c-0.004-3.721-0.888-7.354-1.355-11.029c-0.486-3.678-1.106-7.33-2.175-10.895c-1.019-3.559-1.621-7.246-2.977-10.705
			l-3.823-10.445l-4.805-10.027c-1.452-3.432-3.726-6.41-5.544-9.635c-1.81-3.244-3.967-6.266-6.258-9.187
			c-2.249-2.938-4.304-6.042-6.929-8.683c-2.54-2.703-4.896-5.582-7.576-8.141l-8.234-7.484c-2.859-2.352-5.909-4.476-8.854-6.725
			c-2.873-2.365-6.21-4.043-9.335-6.035c-3.109-2.027-6.358-3.807-9.761-5.305c-3.374-1.522-6.586-3.443-10.136-4.549
			c-3.489-1.25-6.947-2.602-10.46-3.777l-10.765-2.771c-3.578-0.998-7.313-1.236-10.96-1.896c-3.647-0.696-7.345-0.975-11.053-1.076
			c-3.707-0.056-7.409-0.659-11.116-0.278l-11.113,0.559l-11.001,1.636c-3.698,0.386-7.229,1.597-10.84,2.438
			c-3.61,0.852-7.179,1.848-10.622,3.25c-3.438,1.381-7.058,2.32-10.348,4.049l-10.021,4.828l-9.507,5.775
			c-3.222,1.848-6.008,4.347-9.035,6.479c-3.058,2.11-5.793,4.61-8.515,7.142c-2.745,2.494-5.563,4.91-7.951,7.762
			c-2.431,2.796-5.129,5.373-7.346,8.345l-6.665,8.914l-5.808,9.479c-2.088,3.082-3.356,6.605-5.068,9.89
			c-1.731,3.285-3.119,6.725-4.3,10.246c-1.198,3.504-2.758,6.896-3.513,10.545c-0.894,3.596-1.897,7.168-2.713,10.777l-1.68,10.998
			c-0.666,3.65-0.504,7.395-0.796,11.09c-0.314,3.697-0.314,7.404,0,11.111c0.292,3.689,0.13,7.434,0.796,11.086l1.68,10.996
			c0.815,3.619,1.819,7.191,2.713,10.783c0.755,3.643,2.314,7.035,3.513,10.543c1.181,3.518,2.568,6.957,4.3,10.238
			c1.712,3.285,2.98,6.812,5.068,9.896l5.808,9.479l6.665,8.912c2.217,2.973,4.915,5.545,7.346,8.346
			c2.388,2.852,5.206,5.268,7.951,7.762c2.722,2.531,5.457,5.031,8.515,7.141c3.027,2.135,5.813,4.629,9.035,6.48l9.507,5.775
			l10.021,4.828c3.29,1.727,6.909,2.67,10.348,4.049c3.443,1.402,7.012,2.398,10.622,3.25c3.605,0.848,7.142,2.055,10.84,2.438
			l11.001,1.639l11.113,0.557c3.707,0.383,7.409-0.223,11.116-0.279c3.708-0.096,7.405-0.379,11.053-1.078
			c3.646-0.656,7.373-0.896,10.96-1.893l10.765-2.771c3.513-1.176,6.971-2.527,10.46-3.771c3.55-1.107,6.762-3.037,10.136-4.555
			c3.402-1.5,6.651-3.273,9.761-5.305c3.125-1.99,6.462-3.67,9.335-6.035c2.944-2.248,5.994-4.369,8.854-6.725l8.234-7.484
			c2.681-2.555,5.036-5.432,7.576-8.141c2.625-2.639,4.68-5.744,6.929-8.684c2.291-2.92,4.448-5.941,6.258-9.186
			c1.818-3.227,4.092-6.201,5.544-9.633l4.805-10.029l3.823-10.441c1.355-3.457,1.958-7.145,2.977-10.705
			c1.068-3.562,1.688-7.215,2.175-10.895c0.468-3.68,1.352-7.309,1.355-11.033L340.979,200.709z M322.896,200.709
			c4.98,1.615,9.965,3.436,14.944,5.449l0.283-5.449l-0.283-5.443C332.86,197.283,327.876,199.098,322.896,200.709z M337.84,195.266
			l-0.272-5.447c-0.065-1.814-0.157-3.629-0.504-5.414c-4.694,2.383-9.66,4.596-14.673,6.613
			C327.523,192.234,332.68,193.65,337.84,195.266z"/>
	</g>
	<g>
		<path fill="#FFFFFF" d="M162.568,150.084h0.347l0.995-0.904l0.727,0.498l12.075,12.162c0.083,0.145,0.203,0.32,0.203,0.525h0.292
			c0.583,0.613,1.199,1.197,1.894,1.721l0.235-0.117l4.055-4.025c0.147-0.352,0.203-0.699,0.147-1.078l-15.111-13.592
			c-0.144-0.176-0.291-0.293-0.351-0.525l0.906-1.166l-0.176-0.352c-0.467-0.611-1.105-1.078-1.717-1.547l-0.555,0.234l-5.744,5.922
			c-0.065,0.027,0.056,0.117-0.032,0.176C161.37,148.682,162.068,149.299,162.568,150.084L162.568,150.084z M208.36,218.889
			L208.36,218.889h0.347c-0.115,0.088,0.236-0.232,0.12-0.17l3.355-8.027l0.319-0.461l-0.208-0.82l-2.712-3.059l-9.799,0.814h-0.643
			v0.352l2.625,3.088l0.087,0.264c-6.766,2.771-15.022,3.961-22.049,1.078l1.458-1.717l16.652-18.117l-5.92-5.979l-18.78,17.24
			l-0.699,0.639c-2.569-6.68-3.587-13.418-0.556-20.24c0.291-0.643,0.671-1.227,1.078-1.809c-0.088,0.061,0.291-0.029,0.177,0.027
			l3.438,2.656l0.556,0.117l0.116-0.645l1.343-14.496l-13.683,5.574l3.708,3.062l0.203,0.26c-2.652,3.559-3.525,7.734-4.258,11.932
			l-0.347,2.713L164.401,220l0.235,0.348c10.149,0,20.328,1.105,30.45-0.814c3.79-0.732,7.289-2.246,10.645-4.146
			c-0.144,0.092,0.328,0.092,0.181,0.18l2.24,2.711L208.36,218.889L208.36,218.889z M179.365,167.061L179.365,167.061l17.79,17.967
			h0.264l0.643-0.498l6.188-6.18l1.397-1.721c-0.12,0.086,0-0.264-0.12-0.176l-17.235-15.432l-1.605-1.545
			c-0.204,0.027-0.348,0.174-0.496,0.264l-6.007,6.154l-0.818,0.814V167.061L179.365,167.061z M201.941,192.434L201.941,192.434
			c-0.524,0.615-1.106,1.193-1.723,1.721v0.354l0.819,0.902c0.903-0.176,1.375-1.166,2.156-1.689
			c-0.088,0.055,0.292-0.033,0.177,0.027l2.452,2.504l10.965-11.02l0.056-0.117c-0.436-1.082-1.744-1.664-2.536-2.596
			c0.643-0.846,1.43-1.551,2.068-2.361l-0.985-0.906l-0.356,0.088c-0.843,0.463-1.337,1.371-2.156,1.898
			c-0.144,0.084-0.061-0.209-0.204-0.121l-4.462-3.965l-10.678,10.818l4.379,4.379C201.853,192.377,202.001,192.406,201.941,192.434
			L201.941,192.434z M211.336,168.08L211.336,168.08l-4.438,4.201l5.05,4.348l3.614-3.879l0.204-0.178l0.527,0.232l15.079,9.859
			l4.082-3.73l0.176-0.117l-0.176-0.643l-13.006-12.949l5.068-5.836c0.473-0.551,0.935-1.254,0.703-1.982
			c-0.176-0.582-0.463-1.049-0.99-1.371c-0.967-0.611-2.217-0.467-3.152,0.176l-5.364,4.932l-13.647-13.42l-4.439,4.58
			L211.336,168.08L211.336,168.08z M224.957,218.189L224.957,218.189c5.864-3.674,11.256-8.658,14.375-14.902
			c0.144-0.297,0.144-0.609,0.176-0.906l-19.717-18.084l-14.347,14.617L224.957,218.189L224.957,218.189z M220.171,157.145
			L220.171,157.145l3.12-2.74c0.76-1.082,1.078-2.395,1.985-3.416c0.875-0.992,1.98-1.514,3.29-1.604
			c1.402-0.086,2.652,0.266,3.708,1.197c1.022,0.873,1.749,1.924,1.897,3.295c0.115,1.428-0.088,2.744-1.019,3.877
			c-0.73,0.879-1.522,1.635-2.688,1.871c-0.556,0.115-1.111,0.23-1.602,0.494l-2.8,3.146l0.522,0.266
			c2.245,0.643,4.379,0.352,6.419-0.729c2.218-1.225,3.847-2.92,4.605-5.396c0.731-2.42,0.584-4.781-0.551-7.059
			c-1.138-2.188-2.888-3.703-5.22-4.461c-2.25-0.76-4.435-0.818-6.592,0.262c-2.337,1.137-4.059,2.799-4.928,5.279
			C219.644,153.322,219.5,155.217,220.171,157.145L220.171,157.145z M229.387,217.807L229.387,217.807
			c0.759,0.527,1.369,1.434,2.271,1.727c0.237,0.055,0.445-0.027,0.616-0.178c3.614-2.447,7.058-5.104,9.016-9.213
			c0.403-0.5-0.06-1.027-0.527-1.314c-0.556-0.467-1.078-0.996-1.81-1.227c-2.977,3.498-6.096,6.826-9.566,9.857V217.807
			L229.387,217.807z"/>
	</g>
	<g>
		<path fill="#FFFFFF" d="M148.591,117.69c15.277-10.633,33.814-16.9,53.8-16.9c18.831,0,36.372,5.579,51.118,15.121
			c0.106-0.486,0.277-0.917,0.49-1.32c-14.912-9.575-32.61-15.176-51.608-15.176c-20.106,0-38.753,6.254-54.185,16.87
			C148.392,116.706,148.512,117.182,148.591,117.69z"/>
	</g>
	<g>
		<polygon fill="#FFFFFF" points="119.414,155.557 116.915,150.955 114.495,155.592 109.353,156.561 113.009,160.295 
			112.338,165.482 117.025,163.16 121.747,165.4 120.987,160.221 124.579,156.42 		"/>
	</g>
	<g>
		<polygon fill="#FFFFFF" points="286.651,155.557 284.147,150.955 281.732,155.592 276.59,156.561 280.246,160.295 
			279.575,165.482 284.265,163.16 288.984,165.4 288.225,160.221 291.812,156.42 		"/>
	</g>
	<g>
		<path fill="#FFFFFF" d="M98.832,215.76l5.212-1.795l-0.686-6.619l-5.471-0.73l-0.439-4.268l25.84,3.656l0.563,5.443l-24.557,8.762
			L98.832,215.76z M119.548,209.123l-0.013-0.143l-12.774-1.443l0.569,5.549L119.548,209.123z"/>
		<path fill="#FFFFFF" d="M124.908,230.512l-6.447,2.564l2.407,6.049l-3.394,1.35l-2.392-6.016l-10.104,4.021l-1.603-4.021
			l23.53-9.363l4.193,10.533l-3.588,1.432L124.908,230.512z"/>
		<path fill="#FFFFFF" d="M116.081,259.566l3.88-3.914l-3.537-5.633l-5.229,1.764l-2.281-3.639l24.793-8.137l2.911,4.637
			l-18.156,18.709L116.081,259.566z M131.729,244.461l-0.078-0.121l-12.094,4.342l2.966,4.73L131.729,244.461z"/>
		<path fill="#FFFFFF" d="M142.477,257.562l-15.949,14.682l-2.86-3.105l15.954-14.682l-3.221-3.498l2.684-2.477l9.303,10.113
			l-2.684,2.467L142.477,257.562z"/>
		<path fill="#FFFFFF" d="M144.227,287.027l6.517-9.154l-6.184-4.393l-6.513,9.148l-3.466-2.465l14.685-20.639l3.468,2.467
			l-5.952,8.367l6.178,4.396l5.953-8.367l3.467,2.467l-14.682,20.637L144.227,287.027z"/>
		<path fill="#FFFFFF" d="M155.969,293.779l9.923-23.303l10.432,4.441l-1.486,3.49l-6.649-2.832l-2.634,6.189l6.155,2.619
			l-1.375,3.225l-6.156-2.619l-2.929,6.871l6.979,2.979l-1.499,3.521L155.969,293.779z"/>
		<path fill="#FFFFFF" d="M184.497,302.777l-1.717-11.367l-2.352-0.473l-2.138,10.586l-4.068-0.82l5.017-24.826l7.081,1.43
			c1.027,0.209,1.948,0.537,2.763,0.982c0.806,0.439,1.464,1.018,1.968,1.725c0.5,0.709,0.837,1.547,1.004,2.506
			c0.176,0.957,0.135,2.059-0.116,3.295c-0.194,0.957-0.485,1.781-0.884,2.467c-0.393,0.689-0.828,1.254-1.305,1.689
			c-0.477,0.439-0.977,0.768-1.499,0.994c-0.519,0.223-1.011,0.348-1.478,0.375l2.144,12.33L184.497,302.777z M187.755,285.189
			c0.158-0.746,0.172-1.389,0.065-1.922c-0.112-0.535-0.312-0.975-0.593-1.322c-0.282-0.352-0.621-0.625-1.019-0.828
			c-0.397-0.199-0.805-0.344-1.226-0.432l-2.384-0.48l-1.546,7.645l2.383,0.482c1.028,0.207,1.939,0.055,2.74-0.455
			C186.969,287.373,187.501,286.477,187.755,285.189z"/>
		<path fill="#FFFFFF" d="M196.971,278.611l3.258,0.141l-2.448,8.775l-2.861-0.121L196.971,278.611z"/>
		<path fill="#FFFFFF" d="M213.816,282.744c-1.041-1.016-2.259-1.457-3.655-1.318c-0.408,0.037-0.792,0.145-1.153,0.314
			c-0.37,0.168-0.693,0.408-0.972,0.729c-0.283,0.312-0.485,0.707-0.62,1.174c-0.135,0.473-0.167,1.016-0.106,1.629
			c0.111,1.07,0.513,1.861,1.212,2.375c0.699,0.518,1.597,0.986,2.694,1.402c0.647,0.246,1.314,0.541,1.995,0.879
			c0.68,0.338,1.309,0.77,1.889,1.283c0.577,0.518,1.074,1.152,1.485,1.902c0.411,0.744,0.671,1.656,0.777,2.727
			c0.125,1.23,0.042,2.34-0.255,3.332c-0.296,0.986-0.735,1.84-1.324,2.559c-0.588,0.723-1.305,1.287-2.147,1.707
			c-0.847,0.422-1.753,0.68-2.726,0.779c-1.402,0.143-2.722,0-3.961-0.426c-1.246-0.426-2.259-1.02-3.056-1.777l2-3.365
			c0.611,0.605,1.318,1.064,2.128,1.365c0.812,0.301,1.621,0.412,2.426,0.332c0.903-0.092,1.616-0.475,2.152-1.152
			c0.527-0.676,0.74-1.572,0.625-2.688c-0.107-1.094-0.551-1.922-1.329-2.49c-0.777-0.57-1.74-1.068-2.883-1.51
			c-0.727-0.262-1.407-0.564-2.051-0.906c-0.648-0.342-1.23-0.768-1.749-1.283c-0.519-0.508-0.949-1.123-1.301-1.842
			c-0.348-0.723-0.574-1.605-0.68-2.646c-0.13-1.307-0.038-2.449,0.282-3.43c0.323-0.977,0.79-1.811,1.401-2.494
			c0.616-0.686,1.334-1.219,2.162-1.602c0.824-0.379,1.671-0.615,2.551-0.709c1.281-0.125,2.447-0.031,3.498,0.279
			c1.051,0.312,1.958,0.842,2.73,1.576L213.816,282.744z"/>
		<path fill="#FFFFFF" d="M242.29,295.51l-5.04,2.033l-15.214-21.176l4.443-1.791l11.515,17.268l0.098-0.041l-3.684-20.424
			l4.248-1.713L242.29,295.51z"/>
		<path fill="#FFFFFF" d="M260.803,269.547c1.153,1.637,2.027,3.244,2.629,4.822c0.597,1.572,0.912,3.068,0.939,4.475
			c0.028,1.412-0.236,2.703-0.791,3.883c-0.556,1.176-1.407,2.17-2.56,2.98c-1.172,0.824-2.397,1.291-3.689,1.412
			c-1.286,0.121-2.587-0.074-3.9-0.574c-1.32-0.504-2.615-1.305-3.898-2.402c-1.281-1.092-2.499-2.461-3.651-4.1
			s-2.031-3.236-2.628-4.801c-0.602-1.561-0.922-3.039-0.944-4.453c-0.032-1.406,0.236-2.691,0.801-3.863
			c0.56-1.166,1.43-2.16,2.596-2.984c1.152-0.811,2.374-1.283,3.661-1.416c1.292-0.141,2.593,0.045,3.911,0.549
			c1.313,0.5,2.61,1.297,3.883,2.385C258.438,266.547,259.65,267.908,260.803,269.547z M257.174,272.096
			c-0.74-1.051-1.518-1.98-2.336-2.791c-0.815-0.811-1.626-1.439-2.422-1.889c-0.791-0.443-1.568-0.693-2.318-0.75
			c-0.754-0.049-1.439,0.139-2.064,0.58c-0.643,0.453-1.069,1.041-1.272,1.768s-0.231,1.541-0.078,2.438
			c0.152,0.902,0.476,1.871,0.972,2.904c0.5,1.041,1.115,2.082,1.855,3.133c0.74,1.055,1.513,1.99,2.324,2.809
			c0.804,0.814,1.609,1.453,2.415,1.906c0.802,0.459,1.578,0.715,2.333,0.77c0.749,0.051,1.448-0.148,2.092-0.602
			c0.644-0.449,1.068-1.043,1.273-1.77c0.198-0.725,0.227-1.545,0.063-2.451c-0.156-0.908-0.485-1.879-0.98-2.922
			C258.535,274.197,257.915,273.15,257.174,272.096z"/>
		<path fill="#FFFFFF" d="M271.776,262.188l7.179,6.516l-2.837,3.123l-7.179-6.512l-15.828-5.822l3.124-3.438l10.917,4.785
			l0.023-0.125l-5.724-10.408l3.054-3.365L271.776,262.188z"/>
		<path fill="#FFFFFF" d="M291.914,250.189l-5.239-1.693l-3.435,5.697l3.935,3.873l-2.212,3.68l-18.453-18.457l2.818-4.688
			l24.896,7.756L291.914,250.189z M271.373,243.045l-0.073,0.123l9.334,8.836l2.88-4.785L271.373,243.045z"/>
		<path fill="#FFFFFF" d="M300.717,228.529c0.028,1.129-0.193,2.395-0.661,3.797c-0.478,1.424-1.203,2.605-2.181,3.535
			c-0.977,0.93-2.152,1.602-3.518,2.008c-1.37,0.412-2.893,0.57-4.572,0.473c-1.676-0.092-3.457-0.453-5.332-1.082
			c-1.833-0.611-3.452-1.381-4.85-2.301c-1.402-0.922-2.536-1.953-3.397-3.096c-0.866-1.145-1.426-2.361-1.685-3.652
			c-0.261-1.297-0.162-2.619,0.291-3.977c0.472-1.424,1.144-2.572,1.999-3.443c0.856-0.875,1.856-1.48,3.005-1.828l2.063,3.297
			c-1.61,0.461-2.675,1.467-3.188,3.008c-0.277,0.832-0.288,1.643-0.019,2.426c0.269,0.775,0.735,1.508,1.401,2.184
			s1.5,1.291,2.491,1.852c0.995,0.555,2.082,1.031,3.259,1.426c1.222,0.406,2.4,0.688,3.544,0.846
			c1.144,0.154,2.185,0.162,3.124,0.023c0.936-0.139,1.736-0.443,2.398-0.916c0.662-0.469,1.133-1.135,1.42-1.996
			c0.181-0.541,0.283-1.053,0.306-1.535c0.028-0.482-0.019-0.895-0.134-1.23l-6.207-2.08l-0.977,2.922l-3.526-1.182l2.208-6.617
			l12.181,4.068C300.509,226.383,300.693,227.406,300.717,228.529z"/>
		<path fill="#FFFFFF" d="M303.226,217.398l-25.173-2.799l1.253-11.271l3.768,0.416l-0.795,7.186l6.683,0.744l0.741-6.65l3.48,0.389
			l-0.735,6.646l7.428,0.828l0.837-7.539l3.809,0.424L303.226,217.398z"/>
	</g>
</g>
</svg>
