<?xml version="1.0" encoding="utf-8"?>
<!-- Generator: Adobe Illustrator 26.5.0, SVG Export Plug-In . SVG Version: 6.00 Build 0)  -->
<svg version="1.1" id="Layer_1" xmlns="http://www.w3.org/2000/svg" xmlns:xlink="http://www.w3.org/1999/xlink" x="0px" y="0px"
	 viewBox="0 0 432 432" style="enable-background:new 0 0 432 432;" xml:space="preserve">
<style type="text/css">
	.st0{fill:#2E3D50;}
	.st1{fill:#FFFFFF;}
</style>
<rect y="0" class="st0" width="432" height="432"/>
<g>
	<path class="st1" d="M59.8,317.2c3.9-1.1,6.3-4.2,6.3-8c0-5.6-5.2-9.1-13.4-9.1H35.4v36.5h17.9c8.6,0,14-3.9,14-10.1
		C67.3,321.7,64.4,318.1,59.8,317.2z M44.6,307.1h7.5c2.7,0,4.4,1.4,4.4,3.7s-1.7,3.8-4.4,3.8h-7.5V307.1z M52.1,329.4h-7.5v-8.1
		h7.5c3.4,0,5.6,1.5,5.6,4C57.7,327.9,55.6,329.4,52.1,329.4z"/>
	<path class="st1" d="M81.1,313.2v-4.7h-9v28.1h9v-14.4c0.5-4,3.9-6.4,9.1-5.9V308C86.2,308.1,83,309.9,81.1,313.2z"/>
	<path class="st1" d="M109.1,333.3v3.2h8.8v-18.3c-0.1-6.4-4.5-10.2-12.2-10.2c-4.7,0-8.7,1.1-13,3.2l2.6,5.9c3-1.5,6-2.3,8.4-2.3
		c3.6,0,5.5,1.7,5.5,4.4v0.4h-7.4c-7,0.1-10.8,3.2-10.8,8.5c0,5.2,3.6,8.8,9.6,8.8C104.3,336.9,107.3,335.7,109.1,333.3z
		 M103.3,330.9c-2.5,0-4-1.3-4-3.3c0-2.1,1.4-3,4.1-3h5.7v2.5C108.5,329.3,106.1,330.9,103.3,330.9z"/>
	<path class="st1" d="M128.3,295.6c-2.8,0-4.7,2-4.7,4.7c0,2.8,2,4.8,4.7,4.8c2.8,0,4.7-2,4.7-4.8
		C133.1,297.6,131.1,295.6,128.3,295.6z"/>
	<rect x="123.8" y="308.4" class="st1" width="9" height="28.1"/>
	<path class="st1" d="M157.9,308c-4.2,0.1-7.4,1.7-9.4,5v-4.6h-9v28.1h9v-14.9c0.4-3.3,2.4-5.7,5.7-5.7c3,0,5,2,5,5.3v15.2h9v-17.7
		C168.1,312.2,164.1,308,157.9,308z"/>
	<path class="st1" d="M183.3,309.8c0-1.8,1.6-2.7,4-2.7c3,0,7.8,1.6,11.7,3.8l3.5-7.2c-3.8-2.5-9.1-4.1-14.4-4.1
		c-8.8,0-14.5,4.3-14.5,11c0,12.9,19.3,9.1,19.3,15.5c0,2.1-1.8,3.2-4.7,3.2c-3.8,0-9.4-2.2-13.2-5.5l-3.6,7.1
		c4.3,3.5,10.6,5.8,16.7,5.8c8.1,0,14.6-3.9,14.6-11.2C202.6,312.5,183.3,316.1,183.3,309.8z"/>
	<path class="st1" d="M204.7,322.5c0,8.7,6.2,14.4,15.4,14.4c9.2,0,15.3-5.7,15.3-14.4s-6.2-14.3-15.3-14.3
		C210.9,308.1,204.7,313.8,204.7,322.5z M220.1,315.3c3.7,0,6.3,3,6.3,7.3c0,4.4-2.6,7.3-6.3,7.3c-3.8,0-6.3-2.9-6.3-7.3
		C213.8,318.2,216.4,315.3,220.1,315.3z"/>
	<path class="st1" d="M258.1,326.5c-1.2,2.1-3.2,3.2-5.7,3.2c-3.5,0-5.9-2.8-5.9-7.1c0-4.2,2.4-7.1,5.9-7.1c2.4,0,4.4,1.1,5.7,2.9
		l6.5-3.9c-2.4-4-6.9-6.3-12.5-6.3c-8.7,0-14.6,5.8-14.6,14.4c0,8.5,5.8,14.3,14.5,14.3c5.9,0,10.5-2.4,12.8-6.5L258.1,326.5z"/>
	<polygon class="st1" points="286.9,336.5 297.6,336.5 287,319.2 297.3,308.4 287.1,308.4 277.8,318.3 277.8,297.9 268.8,297.9 
		268.8,336.5 277.8,336.5 277.8,328.9 280.8,325.7 	"/>
	<path class="st1" d="M297,322.6c0,8.5,5.7,14.3,14.9,14.3c5.2,0,9.4-1.8,12.2-5l-4.7-4.6c-1.9,1.9-4.3,2.9-6.7,2.9
		c-3.3,0-5.7-1.9-6.6-5.2h19.8c0.6-10.3-4.3-16.8-14.2-16.8C303,308.1,297,313.9,297,322.6z M317.2,320.1h-11.3
		c0.6-3.4,2.7-5.7,5.8-5.7C315,314.4,317.2,316.6,317.2,320.1z"/>
	<path class="st1" d="M343.1,329.7c-1.7,0.1-2.6-0.9-2.6-3.1v-11h7.3v-5.9h-7.3v-7.8h-9v7.8h-3.9v5.9h3.9V328c0,5.8,3.9,8.9,9.3,8.9
		c2.7,0,5.5-0.7,7.5-1.9l-1.8-6.3C345.2,329.3,344,329.7,343.1,329.7z"/>
	<path class="st1" d="M354.9,329.9c-2,0-3.5,1.4-3.5,3.5c0,2.1,1.4,3.5,3.5,3.5c2,0,3.5-1.4,3.5-3.5
		C358.4,331.3,356.9,329.9,354.9,329.9z"/>
	<rect x="361.4" y="314.1" class="st1" width="7.2" height="22.5"/>
	<path class="st1" d="M365,303.8c-2.2,0-3.8,1.6-3.8,3.8c0,2.3,1.6,3.8,3.8,3.8c2.2,0,3.8-1.6,3.8-3.8
		C368.8,305.4,367.2,303.8,365,303.8z"/>
	<path class="st1" d="M384.3,313.8c-7.4,0-12.3,4.5-12.3,11.5c0,6.9,4.9,11.5,12.3,11.5c7.3,0,12.3-4.6,12.3-11.5
		C396.6,318.4,391.7,313.8,384.3,313.8z M384.3,331.2c-3,0-5-2.3-5-5.8c0-3.5,2-5.8,5-5.8c3,0,5,2.4,5,5.8
		C389.4,328.9,387.3,331.2,384.3,331.2z"/>
	<g>
		<path class="st1" d="M215.5,232.2c0.1,0,0.2,0,0.3,0c0.1,0,0.2,0,0.3,0c0.1,0,0.2,0,0.3,0c0.1,0,0.2,0,0.3,0h-0.3
			c-0.1,0-0.1,0-0.2,0c0.2,0,0.3-0.1,0.5-0.1c-0.2,0.1-0.3,0.1-0.5,0.1c-0.2,0-0.4,0-0.5-0.1c0.2,0.1,0.3,0.1,0.5,0.1
			c-0.1,0-0.1,0-0.2,0H215.5z"/>
		<path class="st1" d="M208.6,136.9c-0.5,0-0.9,0.1-1.3,0.2l-11.6-11.6c-0.5-0.5-1.2-0.8-1.9-0.8h-12.3c-1.5,0-2.6,1.2-2.6,2.6v9.3
			l-9.7,9.7h-14.9v-14.4c1.6-0.9,2.6-2.6,2.6-4.5c0-2.9-2.3-5.2-5.2-5.2c-2.9,0-5.2,2.3-5.2,5.2c0,1.9,1,3.6,2.6,4.5v17.1
			c0,1.5,1.2,2.6,2.6,2.6h18.6c0.7,0,1.4-0.3,1.9-0.8l11.2-11.2c0.5-0.5,0.8-1.2,0.8-1.9V130h8.6l10.9,10.9
			c-0.1,0.4-0.2,0.9-0.2,1.3c0,2.9,2.3,5.2,5.2,5.2c2.9,0,5.2-2.3,5.2-5.2C213.8,139.3,211.5,136.9,208.6,136.9z M151.7,130
			c-1.4,0-2.6-1.2-2.6-2.6c0-1.4,1.2-2.6,2.6-2.6s2.6,1.2,2.6,2.6C154.3,128.8,153.1,130,151.7,130z M208.6,144.8
			c-1.4,0-2.6-1.2-2.6-2.6c0-1.4,1.2-2.6,2.6-2.6s2.6,1.2,2.6,2.6C211.2,143.6,210.1,144.8,208.6,144.8z"/>
		<path class="st1" d="M183.6,103.5c0-2.9-2.3-5.2-5.2-5.2c-2.9,0-5.2,2.3-5.2,5.2c0,1.9,1,3.6,2.6,4.5v4.4c0,1.5,1.2,2.6,2.6,2.6
			h19.2l9.2,9.2c0.5,0.5,1.2,0.8,1.9,0.8c0.3,0,0.7-0.1,1-0.2c1-0.4,1.6-1.4,1.6-2.4v-22.4c0-1.5-1.2-2.6-2.6-2.6h-17.2L183,89v-9.8
			h9.9v1.4c-1.6,0.9-2.6,2.6-2.6,4.5c0,2.9,2.3,5.2,5.2,5.2c2.9,0,5.2-2.3,5.2-5.2c0-1.9-1-3.6-2.6-4.5v-4c0-1.5-1.2-2.6-2.6-2.6
			h-15.2c-1.5,0-2.6,1.2-2.6,2.6v13.6c0,0.7,0.3,1.4,0.8,1.9l10,9.9c0.5,0.5,1.2,0.8,1.9,0.8H206v13.4l-5.5-5.5
			c-0.5-0.5-1.2-0.8-1.9-0.8H181V108C182.6,107.1,183.6,105.5,183.6,103.5z M195.5,82.5c1.4,0,2.6,1.2,2.6,2.6
			c0,1.4-1.2,2.6-2.6,2.6s-2.6-1.2-2.6-2.6C192.9,83.6,194.1,82.5,195.5,82.5z M178.4,106.1c-1.4,0-2.6-1.2-2.6-2.6
			c0-1.4,1.2-2.6,2.6-2.6c1.4,0,2.6,1.2,2.6,2.6C181,105,179.8,106.1,178.4,106.1z"/>
		<path class="st1" d="M126.9,202.7c0.5,0.5,1.2,0.8,1.9,0.8h0.1v19.7c0,0.7,0.3,1.4,0.8,1.9l6.4,6.4c0.5,0.5,1.2,0.8,1.9,0.8h3.4
			l12.6,12.6c0.5,0.5,1.2,0.8,1.9,0.8h2v6.6c0,0.7,0.3,1.4,0.8,1.9l4.6,4.6c0.5,0.5,1.2,0.8,1.9,0.8h8.6v4.9c0,0.7,0.3,1.4,0.8,1.9
			l7.8,7.8c0.5,0.5,1.2,0.8,1.9,0.8h18c0.7,0,1.4-0.3,1.9-0.8l7.8-7.8c0.5-0.5,0.8-1.2,0.8-1.9v-11.9c1.6-0.9,2.6-2.6,2.6-4.5
			c0-2.9-2.3-5.2-5.2-5.2c-2.9,0-5.2,2.3-5.2,5.2c0,1.9,1,3.6,2.6,4.5v10.8l-6.3,6.3h-15.8l-6.2-6.2v-3.8h11.8
			c0.9,1.6,2.6,2.6,4.5,2.6c2.9,0,5.2-2.3,5.2-5.2c0-2.9-2.3-5.2-5.2-5.2c-1.9,0-3.6,1-4.5,2.6h-24.5l-3.1-3.1v-5.5h24.9
			c0.7,0,1.4-0.3,1.9-0.8l6.3-6.3h3.3c0.9,1.6,2.6,2.6,4.5,2.6c2.9,0,5.2-2.4,5.2-5.2c0-2.9-2.4-5.2-5.2-5.2c-1.9,0-3.6,1.1-4.5,2.6
			H195c-0.7,0-1.4,0.3-1.9,0.8l-6.3,6.3h-29.9l-8.1-8.1h4.2c0.9,1.6,2.6,2.6,4.5,2.6c2.9,0,5.2-2.3,5.2-5.2c0-2.9-2.4-5.2-5.2-5.2
			c-1.9,0-3.6,1-4.5,2.6h-14l-4.8-4.8v-18.6h2.9c1.5,0,2.6-1.2,2.6-2.6v-18.1c1.6-0.9,2.6-2.6,2.6-4.5c0-2.9-2.3-5.2-5.2-5.2
			c-2.9,0-5.2,2.3-5.2,5.2c0,1.9,1,3.6,2.6,4.5v15.5h-4.5l-5.1-5.1v-43.9l4.7-4.7h5v19.6c0,1.5,1.2,2.6,2.6,2.6h27.6v13.7l-5.3,5.3
			h-7.1c-1.5,0-2.6,1.2-2.6,2.6v22.5h-2.7c-0.9-1.6-2.6-2.6-4.5-2.6c-2.9,0-5.2,2.4-5.2,5.2c0,2.9,2.3,5.2,5.2,5.2
			c1.9,0,3.6-1,4.5-2.6h5.3c0.7,0,1.4-0.3,1.9-0.8l13.8-13.8h32.8l5.1,5.1v5.7l-13.9,13.9h-20.4v-2.8l7.4-7.4h5.2
			c0.9,1.6,2.6,2.6,4.5,2.6c2.9,0,5.2-2.4,5.2-5.2c0-2.9-2.3-5.2-5.2-5.2c-1.9,0-3.6,1-4.5,2.6h-6.3c-0.7,0-1.4,0.3-1.9,0.8
			l-8.9,8.9c-0.5,0.5-0.8,1.2-0.8,1.9v6.5c0,1.5,1.2,2.6,2.6,2.6H193c0.7,0,1.4-0.3,1.9-0.8l15.5-15.5c0.5-0.5,0.8-1.2,0.8-1.9v-7.9
			c0-0.7-0.3-1.4-0.8-1.9l-6.7-6.7c-0.5-0.5-1.2-0.8-1.9-0.8h-35c-0.7,0-1.4,0.3-1.9,0.8l-10.1,10.1V191h5.5c0.7,0,1.4-0.3,1.9-0.8
			l6.9-6.9c0.5-0.5,0.8-1.2,0.8-1.9v-17.4c0-1.5-1.2-2.6-2.6-2.6h-27.6v-45h24.1V133c-1.6,0.9-2.6,2.6-2.6,4.5
			c0,2.9,2.4,5.2,5.2,5.2c2.9,0,5.2-2.4,5.2-5.2c0-1.9-1-3.6-2.6-4.5V98.5c0-1.5-1.2-2.6-2.6-2.6h-5c-0.9-1.6-2.6-2.6-4.5-2.6
			c-2.9,0-5.2,2.3-5.2,5.2c0,2.9,2.3,5.2,5.2,5.2c1.9,0,3.6-1,4.5-2.6h2.3v10.1H147v-14l9.1-9.1h11.2c1.5,0,2.6-1.2,2.6-2.6V72.2
			l5.7-5.7h25.2l4.8,4.8v9.3c-1.6,0.9-2.6,2.6-2.6,4.5c0,2.9,2.4,5.2,5.2,5.2c2.9,0,5.2-2.3,5.2-5.2c0-1.9-1-3.6-2.6-4.5V70.1
			c0-0.7-0.3-1.4-0.8-1.9l-6.3-6.3c-0.5-0.5-1.2-0.8-1.9-0.8h-27.4c-0.7,0-1.4,0.3-1.9,0.8l-7.3,7.3c-0.5,0.5-0.8,1.2-0.8,1.9v11.7
			H155c-0.7,0-1.4,0.3-1.9,0.8l-10.7,10.7c-0.5,0.5-0.8,1.2-0.8,1.9v15.1H137c-1.5,0-2.6,1.2-2.6,2.6v25.3h-6.1
			c-0.7,0-1.4,0.3-1.9,0.8l-6.2,6.2c-0.5,0.5-0.8,1.2-0.8,1.9v46.1c0,0.7,0.3,1.4,0.8,1.9L126.9,202.7z M209.8,245.2
			c1.4,0,2.6,1.2,2.6,2.6c0,1.4-1.2,2.6-2.6,2.6s-2.6-1.2-2.6-2.6C207.2,246.4,208.4,245.2,209.8,245.2z M195.2,254.2
			c1.4,0,2.6,1.2,2.6,2.6c0,1.4-1.2,2.6-2.6,2.6c-1.4,0-2.6-1.2-2.6-2.6C192.5,255.3,193.7,254.2,195.2,254.2z M203.9,233.2
			c0.1,0,0.3,0,0.4,0c0,0,0,0,0,0s0,0,0,0c0.1,0,0.2,0,0.3,0.1c0,0,0.1,0,0.1,0c0.2,0.1,0.3,0.1,0.5,0.2c0,0,0,0,0,0
			c0.1,0,0.1,0.1,0.2,0.1c0.1,0,0.1,0.1,0.2,0.1c0.1,0.1,0.1,0.1,0.2,0.2c0.1,0.1,0.1,0.1,0.2,0.2c0.1,0.1,0.2,0.3,0.3,0.4
			c0.1,0.1,0.1,0.3,0.2,0.5c0.1,0.3,0.1,0.5,0.1,0.8c0,1.4-1.2,2.6-2.6,2.6c-1.4,0-2.6-1.2-2.6-2.6
			C201.3,234.4,202.4,233.2,203.9,233.2z M157.5,227c1.4,0,2.6,1.2,2.6,2.6c0,0.3-0.1,0.7-0.2,1c0,0.1-0.1,0.2-0.1,0.3
			c0,0.1-0.1,0.1-0.1,0.2c0,0.1-0.1,0.1-0.1,0.2c-0.1,0.1-0.1,0.1-0.2,0.2s-0.1,0.1-0.2,0.2c-0.1,0.1-0.1,0.1-0.2,0.1
			c-0.1,0-0.1,0.1-0.2,0.1c-0.1,0-0.1,0.1-0.2,0.1c-0.1,0.1-0.2,0.1-0.3,0.1c-0.3,0.1-0.5,0.1-0.8,0.1c-0.1,0-0.2,0-0.3,0
			c-1.3-0.1-2.4-1.3-2.4-2.6C154.9,228.1,156.1,227,157.5,227z M134.5,177.6c0-0.1,0-0.2,0.1-0.2c0.1-0.2,0.1-0.3,0.2-0.5
			c0-0.1,0.1-0.1,0.1-0.2c0-0.1,0.1-0.1,0.1-0.2c0.1-0.1,0.1-0.1,0.2-0.2s0.1-0.1,0.2-0.2c0.1-0.1,0.1-0.1,0.2-0.1
			c0.1,0,0.1-0.1,0.2-0.1c0.1,0,0.1-0.1,0.2-0.1c0.1-0.1,0.2-0.1,0.3-0.1c0.2-0.1,0.5-0.1,0.8-0.1s0.5,0,0.8,0.1
			c0.1,0,0.2,0.1,0.3,0.1c0.1,0,0.1,0.1,0.2,0.1c0.1,0,0.1,0.1,0.2,0.1c0.1,0,0.1,0.1,0.2,0.1s0.1,0.1,0.2,0.2
			c0.1,0.1,0.1,0.1,0.2,0.2c0.1,0.1,0.1,0.1,0.1,0.2c0.1,0.1,0.1,0.1,0.1,0.2c0.1,0.1,0.2,0.3,0.2,0.5c0,0.1,0.1,0.2,0.1,0.2
			c0,0.2,0.1,0.3,0.1,0.5c0,1.4-1.2,2.6-2.6,2.6s-2.6-1.2-2.6-2.6C134.4,178,134.5,177.8,134.5,177.6z M142.4,216.2
			c-1.4,0-2.6-1.2-2.6-2.6c0-1.4,1.2-2.6,2.6-2.6s2.6,1.2,2.6,2.6C145,215,143.8,216.2,142.4,216.2z M188.6,211
			c1.4,0,2.6,1.2,2.6,2.6c0,1.4-1.2,2.6-2.6,2.6s-2.6-1.2-2.6-2.6C186,212.1,187.2,211,188.6,211z M157,101.1
			c-0.4,0-0.9-0.1-1.2-0.3c-0.3-0.1-0.6-0.4-0.8-0.6c-0.2-0.2-0.4-0.5-0.5-0.8c0-0.1-0.1-0.2-0.1-0.3c0,0,0,0,0-0.1
			c0-0.1,0-0.3,0-0.5c0-0.2,0-0.3,0-0.5c0,0,0,0,0-0.1c0-0.1,0.1-0.2,0.1-0.3c0-0.1,0-0.1,0.1-0.1c0.1-0.3,0.2-0.5,0.4-0.7
			c0.2-0.3,0.5-0.5,0.8-0.6c0.4-0.2,0.8-0.3,1.2-0.3c1.4,0,2.6,1.2,2.6,2.6C159.6,100,158.4,101.1,157,101.1z M166.4,134.9
			c1.4,0,2.6,1.2,2.6,2.6c0,1.4-1.2,2.6-2.6,2.6c-1.4,0-2.6-1.2-2.6-2.6C163.8,136.1,165,134.9,166.4,134.9z M208.3,82.5
			c1.4,0,2.6,1.2,2.6,2.6c0,1.4-1.2,2.6-2.6,2.6c-1.4,0-2.6-1.2-2.6-2.6C205.7,83.6,206.9,82.5,208.3,82.5z"/>
		<path class="st1" d="M223.7,90.3c2.9,0,5.2-2.3,5.2-5.2c0-1.9-1-3.6-2.6-4.5v-9.3l4.8-4.8h25.2l5.7,5.7v13.2
			c0,1.5,1.2,2.6,2.6,2.6h11.2l9.1,9.1v14h-16.8v-10.1h2.3c0.9,1.6,2.6,2.6,4.5,2.6c2.9,0,5.2-2.3,5.2-5.2c0-2.9-2.3-5.2-5.2-5.2
			c-1.9,0-3.6,1-4.5,2.6h-5c-1.5,0-2.6,1.2-2.6,2.6V133c-1.6,0.9-2.6,2.6-2.6,4.5c0,2.9,2.4,5.2,5.2,5.2c2.9,0,5.2-2.4,5.2-5.2
			c0-1.9-1-3.6-2.6-4.5v-16.5h24.1v45h-27.6c-1.5,0-2.6,1.2-2.6,2.6v17.4c0,0.7,0.3,1.4,0.8,1.9l6.9,6.9c0.5,0.5,1.2,0.8,1.9,0.8
			h5.5v16.1l-10.1-10.1c-0.5-0.5-1.2-0.8-1.9-0.8h-35c-0.7,0-1.4,0.3-1.9,0.8l-6.7,6.7c-0.5,0.5-0.8,1.2-0.8,1.9v7.9
			c0,0.7,0.3,1.4,0.8,1.9l15.5,15.5c0.5,0.5,1.2,0.8,1.9,0.8h24.2c1.5,0,2.6-1.2,2.6-2.6v-6.5c0-0.7-0.3-1.4-0.8-1.9l-8.9-8.9
			c-0.5-0.5-1.2-0.8-1.9-0.8h-6.3c-0.9-1.6-2.6-2.6-4.5-2.6c-2.9,0-5.2,2.4-5.2,5.2c0,2.9,2.3,5.2,5.2,5.2c1.9,0,3.6-1,4.5-2.6h5.2
			l7.4,7.4v2.8h-20.4l-13.9-13.9v-5.7l5.1-5.1h32.8l13.8,13.8c0.5,0.5,1.1,0.8,1.9,0.8h5.3c0.9,1.6,2.6,2.6,4.5,2.6
			c2.9,0,5.2-2.4,5.2-5.2c0-2.9-2.3-5.2-5.2-5.2c-1.9,0-3.6,1-4.5,2.6h-2.7v-22.5c0-1.5-1.2-2.6-2.6-2.6h-7.1l-5.3-5.3v-13.7H295
			c1.5,0,2.6-1.2,2.6-2.6v-19.6h5l4.7,4.7v43.9l-5.1,5.1h-4.5v-15.5c1.6-0.9,2.6-2.6,2.6-4.5c0-2.9-2.3-5.2-5.2-5.2
			s-5.2,2.3-5.2,5.2c0,1.9,1,3.6,2.6,4.5v18.1c0,1.5,1.2,2.6,2.6,2.6h2.9v18.6l-4.8,4.8h-14c-0.9-1.5-2.6-2.6-4.5-2.6
			c-2.9,0-5.2,2.3-5.2,5.2c0,2.9,2.4,5.2,5.2,5.2c1.9,0,3.6-1.1,4.5-2.6h4.2l-8.1,8.1h-29.9l-6.3-6.3c-0.5-0.5-1.2-0.8-1.9-0.8h-4.4
			c-0.9-1.6-2.6-2.6-4.5-2.6c-2.9,0-5.2,2.4-5.2,5.2c0,2.9,2.4,5.2,5.2,5.2c1.9,0,3.6-1,4.5-2.6h3.3l6.3,6.3
			c0.5,0.5,1.2,0.8,1.9,0.8H269v5.5l-3.1,3.1h-24.5c-0.9-1.6-2.6-2.6-4.5-2.6c-2.9,0-5.2,2.3-5.2,5.2c0,2.9,2.3,5.2,5.2,5.2
			c1.9,0,3.6-1,4.5-2.6h11.8v3.8l-6.2,6.2h-15.8l-6.3-6.3v-10.8c1.6-0.9,2.6-2.6,2.6-4.5c0-2.9-2.4-5.2-5.2-5.2
			c-2.9,0-5.2,2.3-5.2,5.2c0,1.9,1,3.6,2.6,4.5v11.9c0,0.7,0.3,1.4,0.8,1.9l7.8,7.8c0.5,0.5,1.2,0.8,1.9,0.8h18
			c0.7,0,1.4-0.3,1.9-0.8l7.8-7.8c0.5-0.5,0.8-1.2,0.8-1.9v-4.9h8.6c0.7,0,1.4-0.3,1.9-0.8l4.6-4.6c0.5-0.5,0.8-1.2,0.8-1.9v-6.6h2
			c0.7,0,1.4-0.3,1.9-0.8l12.6-12.6h3.4c0.7,0,1.4-0.3,1.9-0.8l6.4-6.4c0.5-0.5,0.8-1.2,0.8-1.9v-19.7h0.1c0.7,0,1.4-0.3,1.9-0.8
			l6.7-6.7c0.5-0.5,0.8-1.2,0.8-1.9V148c0-0.7-0.3-1.4-0.8-1.9l-6.2-6.2c-0.5-0.5-1.2-0.8-1.9-0.8h-6.1v-25.3c0-1.5-1.2-2.6-2.6-2.6
			h-4.7V96.1c0-0.7-0.3-1.4-0.8-1.9l-10.7-10.7c-0.5-0.5-1.2-0.8-1.9-0.8h-9.7V71.1c0-0.7-0.3-1.4-0.8-1.9l-7.3-7.3
			c-0.5-0.5-1.2-0.8-1.9-0.8H230c-0.7,0-1.4,0.3-1.9,0.8l-6.3,6.3c-0.5,0.5-0.8,1.2-0.8,1.9v10.4c-1.6,0.9-2.6,2.6-2.6,4.5
			C218.4,88,220.8,90.3,223.7,90.3z M275,95.9c0.4,0,0.9,0.1,1.2,0.3c0.3,0.1,0.6,0.4,0.8,0.6c0.2,0.2,0.3,0.4,0.4,0.7
			c0,0,0,0.1,0.1,0.1c0,0.1,0.1,0.2,0.1,0.3c0,0,0,0,0,0.1c0,0.1,0,0.3,0,0.5c0,0.2,0,0.3,0,0.5c0,0,0,0,0,0.1
			c0,0.1-0.1,0.2-0.1,0.3c-0.1,0.3-0.3,0.6-0.5,0.8c-0.2,0.3-0.5,0.5-0.8,0.6c-0.4,0.2-0.8,0.3-1.2,0.3c-1.4,0-2.6-1.2-2.6-2.6
			C272.4,97.1,273.6,95.9,275,95.9z M265.6,140.2c-1.4,0-2.6-1.2-2.6-2.6c0-1.4,1.2-2.6,2.6-2.6c1.4,0,2.6,1.2,2.6,2.6
			C268.2,139,267,140.2,265.6,140.2z M243.4,216.2c-1.4,0-2.6-1.2-2.6-2.6c0-1.4,1.2-2.6,2.6-2.6s2.6,1.2,2.6,2.6
			C246,215,244.8,216.2,243.4,216.2z M289.6,210.9c1.4,0,2.6,1.2,2.6,2.6c0,1.4-1.2,2.6-2.6,2.6c-1.4,0-2.6-1.2-2.6-2.6
			C287,212.1,288.2,210.9,289.6,210.9z M295,180.8c-1.4,0-2.6-1.2-2.6-2.6c0-0.2,0-0.4,0.1-0.5c0-0.1,0-0.2,0.1-0.2
			c0-0.2,0.1-0.3,0.2-0.5c0-0.1,0.1-0.1,0.1-0.2c0-0.1,0.1-0.1,0.1-0.2c0.1-0.1,0.1-0.1,0.2-0.2c0.1-0.1,0.1-0.1,0.2-0.2
			c0.1-0.1,0.1-0.1,0.2-0.1c0.1,0,0.1-0.1,0.2-0.1c0.1,0,0.1-0.1,0.2-0.1c0.1-0.1,0.2-0.1,0.3-0.1c0.2-0.1,0.5-0.1,0.8-0.1
			c0.3,0,0.5,0,0.8,0.1c0.1,0,0.2,0.1,0.3,0.1c0.1,0,0.1,0.1,0.2,0.1c0.1,0,0.1,0.1,0.2,0.1c0.1,0,0.1,0.1,0.2,0.1
			c0.1,0.1,0.1,0.1,0.2,0.2s0.1,0.1,0.2,0.2c0.1,0.1,0.1,0.1,0.1,0.2c0.1,0.1,0.1,0.1,0.1,0.2c0.1,0.1,0.1,0.3,0.2,0.5
			c0,0.1,0.1,0.2,0.1,0.2c0,0.2,0.1,0.3,0.1,0.5C297.6,179.6,296.4,180.8,295,180.8z M274.7,232.2c-0.1,0-0.2,0-0.3,0
			c-0.3,0-0.5,0-0.8-0.1c-0.1,0-0.2-0.1-0.3-0.1c-0.1,0-0.1-0.1-0.2-0.1c-0.1,0-0.1-0.1-0.2-0.1c-0.1,0-0.1-0.1-0.2-0.1
			c-0.1-0.1-0.1-0.1-0.2-0.2s-0.1-0.1-0.2-0.2c-0.1-0.1-0.1-0.1-0.1-0.2c-0.1-0.1-0.1-0.1-0.1-0.2c-0.1-0.1-0.1-0.2-0.1-0.3
			c-0.1-0.3-0.2-0.6-0.2-1c0-1.4,1.2-2.6,2.6-2.6c1.4,0,2.6,1.2,2.6,2.6C277.1,230.9,276.1,232,274.7,232.2z M228.1,238.4
			c-1.4,0-2.6-1.2-2.6-2.6c0-0.3,0-0.5,0.1-0.8c0.1-0.2,0.1-0.3,0.2-0.5c0.1-0.2,0.2-0.3,0.3-0.4c0.1-0.1,0.1-0.1,0.2-0.2
			c0.1-0.1,0.1-0.1,0.2-0.2c0.1-0.1,0.1-0.1,0.2-0.1c0.1-0.1,0.1-0.1,0.2-0.1c0,0,0,0,0,0c0.1-0.1,0.3-0.1,0.5-0.2c0,0,0,0,0.1,0
			c0.1,0,0.2-0.1,0.3-0.1c0,0,0,0,0,0s0,0,0,0c0.1,0,0.3,0,0.4,0c1.4,0,2.6,1.2,2.6,2.6C230.7,237.2,229.6,238.4,228.1,238.4z
			 M236.8,259.4c-1.4,0-2.6-1.2-2.6-2.6c0-1.4,1.2-2.6,2.6-2.6c1.4,0,2.6,1.2,2.6,2.6C239.5,258.2,238.3,259.4,236.8,259.4z
			 M222.2,250.4c-1.4,0-2.6-1.2-2.6-2.6c0-1.4,1.2-2.6,2.6-2.6s2.6,1.2,2.6,2.6C224.8,249.2,223.6,250.4,222.2,250.4z M223.7,82.5
			c1.4,0,2.6,1.2,2.6,2.6c0,1.4-1.2,2.6-2.6,2.6c-1.4,0-2.6-1.2-2.6-2.6C221.1,83.6,222.2,82.5,223.7,82.5z"/>
		<path class="st1" d="M223.4,147.4c2.9,0,5.2-2.3,5.2-5.2c0-0.5-0.1-0.9-0.2-1.3l10.9-10.9h8.6v7.7c0,0.7,0.3,1.4,0.8,1.9
			l11.2,11.2c0.5,0.5,1.2,0.8,1.9,0.8h18.6c1.5,0,2.6-1.2,2.6-2.6v-17.1c1.6-0.9,2.6-2.6,2.6-4.5c0-2.9-2.3-5.2-5.2-5.2
			c-2.9,0-5.2,2.3-5.2,5.2c0,1.9,1,3.6,2.6,4.5v14.4h-14.9l-9.7-9.7v-9.3c0-1.5-1.2-2.6-2.6-2.6h-12.3c-0.7,0-1.4,0.3-1.9,0.8
			l-11.6,11.6c-0.4-0.1-0.9-0.2-1.3-0.2c-2.9,0-5.2,2.3-5.2,5.2C218.2,145,220.5,147.4,223.4,147.4z M280.3,124.7
			c1.4,0,2.6,1.2,2.6,2.6c0,1.4-1.2,2.6-2.6,2.6c-1.4,0-2.6-1.2-2.6-2.6C277.7,125.9,278.9,124.7,280.3,124.7z M223.4,139.5
			c1.4,0,2.6,1.2,2.6,2.6c0,1.4-1.2,2.6-2.6,2.6s-2.6-1.2-2.6-2.6C220.8,140.7,221.9,139.5,223.4,139.5z"/>
		<path class="st1" d="M240.6,97.5h-17.2c-1.5,0-2.6,1.2-2.6,2.6v22.4c0,1.1,0.6,2,1.6,2.4c0.3,0.1,0.7,0.2,1,0.2
			c0.7,0,1.4-0.3,1.9-0.8l9.2-9.2h19.2c1.5,0,2.6-1.2,2.6-2.6V108c1.6-0.9,2.6-2.6,2.6-4.5c0-2.9-2.3-5.2-5.2-5.2s-5.2,2.3-5.2,5.2
			c0,1.9,1,3.6,2.6,4.5v1.8h-17.6c-0.7,0-1.4,0.3-1.9,0.8l-5.5,5.5v-13.4h15.7c0.7,0,1.4-0.3,1.9-0.8l10-9.9
			c0.5-0.5,0.8-1.2,0.8-1.9V76.6c0-1.5-1.2-2.6-2.6-2.6h-15.2c-1.5,0-2.6,1.2-2.6,2.6v4c-1.6,0.9-2.6,2.6-2.6,4.5
			c0,2.9,2.3,5.2,5.2,5.2c2.9,0,5.2-2.3,5.2-5.2c0-1.9-1-3.6-2.6-4.5v-1.4h9.9V89L240.6,97.5z M253.6,100.9c1.4,0,2.6,1.2,2.6,2.6
			c0,1.4-1.2,2.6-2.6,2.6c-1.4,0-2.6-1.2-2.6-2.6C251,102.1,252.2,100.9,253.6,100.9z M236.5,87.7c-1.4,0-2.6-1.2-2.6-2.6
			c0-1.4,1.2-2.6,2.6-2.6s2.6,1.2,2.6,2.6C239.1,86.5,237.9,87.7,236.5,87.7z"/>
		<path class="st1" d="M216.8,175.7c-0.2-0.1-0.5-0.1-0.8-0.1s-0.5,0-0.8,0.1c0.2-0.1,0.5-0.1,0.8-0.1S216.5,175.6,216.8,175.7z"/>
		<path class="st1" d="M250.1,186.6v-30.8c0-1.2-0.9-2.1-2.1-2.1H184c-1.2,0-2.1,0.9-2.1,2.1v30.8c0,1.2,0.9,2.1,2.1,2.1H248
			C249.2,188.7,250.1,187.7,250.1,186.6z M245.9,184.4h-59.8v-26.6h59.8V184.4z"/>
		<path class="st1" d="M195.4,169.3c2.1,0,3.7-1.7,3.7-3.7s-1.7-3.7-3.7-3.7c-2.1,0-3.7,1.7-3.7,3.7S193.3,169.3,195.4,169.3z"/>
		<path class="st1" d="M221.9,169.3c2.1,0,3.7-1.7,3.7-3.7s-1.7-3.7-3.7-3.7c-2.1,0-3.7,1.7-3.7,3.7S219.8,169.3,221.9,169.3z"/>
		<path class="st1" d="M235.2,169.3c2.1,0,3.7-1.7,3.7-3.7s-1.7-3.7-3.7-3.7c-2.1,0-3.7,1.7-3.7,3.7S233.1,169.3,235.2,169.3z"/>
		<path class="st1" d="M208.6,169.4c2.1,0,3.7-1.7,3.7-3.7c0-2.1-1.7-3.7-3.7-3.7c-2.1,0-3.7,1.7-3.7,3.7
			C204.9,167.7,206.6,169.4,208.6,169.4z"/>
		<path class="st1" d="M195.4,180.4c2.1,0,3.7-1.7,3.7-3.7c0-2.1-1.7-3.7-3.7-3.7c-2.1,0-3.7,1.7-3.7,3.7
			C191.7,178.7,193.3,180.4,195.4,180.4z"/>
		<circle class="st1" cx="208.6" cy="176.6" r="3.7"/>
		<circle class="st1" cx="221.9" cy="176.6" r="3.7"/>
		<path class="st1" d="M235.2,180.4c2.1,0,3.7-1.7,3.7-3.7c0-2.1-1.7-3.7-3.7-3.7c-2.1,0-3.7,1.7-3.7,3.7
			C231.4,178.7,233.1,180.4,235.2,180.4z"/>
	</g>
	<polygon class="st1" points="103.2,369 109.6,369 109.6,366 106.6,366 106.6,350.6 109.6,350.6 109.6,347.7 103.2,347.7 	"/>
	<path class="st1" d="M120,352.6c-1.8,0-3.2,0.7-4.2,2.1v-1.9H112v18h3.8V364c1,1.3,2.4,2.1,4.2,2.1c3.7,0,6.1-2.7,6.1-6.7
		C126.2,355.3,123.7,352.6,120,352.6z M119.1,362.9c-1.9,0-3.3-1.5-3.3-3.7c0-2.1,1.3-3.6,3.3-3.6c1.9,0,3.3,1.5,3.3,3.6
		C122.3,361.4,121,362.9,119.1,362.9z"/>
	<rect x="128.8" y="347.7" class="st1" width="3.8" height="18.2"/>
	<path class="st1" d="M145.2,359.2c0,1.9-1.1,3.3-2.9,3.4c-1.5,0-2.5-1-2.5-2.7v-7.2H136v8.3c0,3.1,1.8,5.1,4.8,5.1
		c2,0,3.5-0.8,4.4-2.5v2.3h3.8v-13.2h-3.8V359.2z"/>
	<path class="st1" d="M161.2,354.5c-0.9-1.2-2.3-1.9-4.1-1.9c-3.4,0-5.7,2.5-5.7,6.3c0,3.8,2.4,6.4,5.8,6.4c1.7,0,3.1-0.7,4-1.9v1.5
		c0,1.8-1.4,2.9-3.5,2.9c-1.5,0-2.9-0.5-4.1-1.3l-1.4,2.7c1.5,1,3.5,1.7,5.7,1.7c4.2,0,7-2.4,7-6.1v-12h-3.8V354.5z M158.1,362.4
		c-1.9,0-3.1-1.4-3.1-3.4c0-2,1.3-3.4,3.1-3.4c1.8,0,3.1,1.4,3.1,3.4C161.2,361,159.9,362.4,158.1,362.4z"/>
	<path class="st1" d="M176.2,346.8c-1.2,0-2,0.9-2,2.1c0,1.2,0.8,2.1,2,2.1s2-0.9,2-2.1C178.2,347.7,177.4,346.8,176.2,346.8z"/>
	<rect x="174.3" y="352.7" class="st1" width="3.8" height="13.2"/>
	<path class="st1" d="M190.1,352.6c-2.1,0-3.6,0.8-4.6,2.5v-2.3h-3.8v13.2h3.8v-6.5c0-1.9,1.1-3.4,3-3.4c1.6,0,2.6,1,2.6,2.7v7.2
		h3.8v-8.3C194.9,354.5,193,352.6,190.1,352.6z"/>
	<path class="st1" d="M209.8,352.6c-2.3,0-4,0.5-6,1.5l1.2,2.6c1.4-0.8,2.7-1.2,3.9-1.2c1.8,0,2.7,0.8,2.7,2.2v0.2h-3.6
		c-3.2,0-5,1.5-5,4c0,2.4,1.7,4.1,4.5,4.1c1.8,0,3.3-0.6,4.1-1.7v1.5h3.7l0-8.6C215.4,354.3,213.4,352.6,209.8,352.6z M211.7,361.4
		c-0.2,1.1-1.5,2-3.1,2c-1.3,0-2.1-0.7-2.1-1.7c0-1.1,0.7-1.5,2.2-1.5h3V361.4z"/>
	<path class="st1" d="M227.1,352.6c-2.1,0-3.6,0.8-4.6,2.5v-2.3h-3.8v13.2h3.8v-6.5c0-1.9,1.1-3.4,3-3.4c1.6,0,2.6,1,2.6,2.7v7.2
		h3.8v-8.3C231.9,354.5,230,352.6,227.1,352.6z"/>
	<path class="st1" d="M244.4,354.7c-1-1.4-2.4-2.1-4.3-2.1c-3.7,0-6.1,2.7-6.1,6.7c0,4.1,2.5,6.8,6.2,6.8c1.8,0,3.2-0.7,4.2-2.1v1.9
		h3.8v-18.2h-3.8V354.7z M241.2,363c-2,0-3.3-1.5-3.3-3.7c0-2.1,1.4-3.7,3.3-3.7c1.9,0,3.3,1.5,3.3,3.7S243.1,363,241.2,363z"/>
	<rect x="258" y="347.7" class="st1" width="3.8" height="18.2"/>
	<path class="st1" d="M271.3,352.6c-4,0-6.8,2.7-6.8,6.8c0,4,2.7,6.7,6.9,6.7c2.4,0,4.3-0.9,5.6-2.3l-2-2c-0.9,0.9-2.1,1.4-3.3,1.4
		c-1.7,0-3-1-3.4-2.7h9.5C278.1,355.7,275.9,352.6,271.3,352.6z M268.2,358.2c0.3-1.7,1.4-2.9,3.1-2.9c1.7,0,2.9,1.1,2.9,2.9H268.2z
		"/>
	<path class="st1" d="M286,352.6c-2.3,0-4,0.5-6,1.5l1.2,2.6c1.4-0.8,2.7-1.2,3.9-1.2c1.8,0,2.7,0.8,2.7,2.2v0.2h-3.6
		c-3.2,0-5,1.5-5,4c0,2.4,1.7,4.1,4.5,4.1c1.8,0,3.3-0.6,4.1-1.7v1.5h3.7l0-8.6C291.6,354.3,289.5,352.6,286,352.6z M287.9,361.4
		c-0.2,1.1-1.5,2-3.1,2c-1.3,0-2.1-0.7-2.1-1.7c0-1.1,0.7-1.5,2.2-1.5h3V361.4z"/>
	<path class="st1" d="M298.6,355.1v-2.4h-3.8v13.2h3.8v-6.4c0-2.2,1.7-3.7,4.4-3.4v-3.6C301.1,352.6,299.6,353.5,298.6,355.1z"/>
	<path class="st1" d="M313.4,352.6c-2.1,0-3.6,0.8-4.6,2.5v-2.3h-3.8v13.2h3.8v-6.5c0-1.9,1.1-3.4,3-3.4c1.6,0,2.6,1,2.6,2.7v7.2
		h3.8v-8.3C318.3,354.5,316.4,352.6,313.4,352.6z"/>
	<polygon class="st1" points="322.4,350.6 325.4,350.6 325.4,366 322.4,366 322.4,369 328.8,369 328.8,347.7 322.4,347.7 	"/>
</g>
</svg>
