<?xml version="1.0" encoding="utf-8"?>
<!-- Generator: Adobe Illustrator 24.2.1, SVG Export Plug-In . SVG Version: 6.00 Build 0)  -->
<svg version="1.1" id="Layer_1" xmlns="http://www.w3.org/2000/svg" xmlns:xlink="http://www.w3.org/1999/xlink" x="0px" y="0px"
	 viewBox="0 0 432 432" style="enable-background:new 0 0 432 432;" xml:space="preserve">
<style type="text/css">
	.st0{fill:#F8E8E9;}
	.st1{fill:#F4DFE3;}
	.st2{fill:#3D3D3D;}
</style>
<g>
	<rect x="-45.8" y="-126.3" class="st0" width="525.2" height="679.4"/>
	<g>
		<g>
			<path class="st1" d="M-44.2-127.2c-2.9-4-6.4-7.5-8.7-9.8c-0.6-0.6-1.6-0.6-2.1,0c-4.5,4.5-13.9,13.8-13.9,22.8
				c0,8.2,6.7,15,15,15s15-6.7,15-15C-39.1-118.1-40.8-122.4-44.2-127.2z M-54-102.3c-6.6,0-11.9-5.4-11.9-11.9
				c0-3.1,1.5-6.8,4.4-10.9c2.3-3.2,5-6.1,7.6-8.7c5.6,5.7,11.9,12.9,11.9,19.6C-42.1-107.6-47.5-102.3-54-102.3z"/>
			<path class="st1" d="M7.2-127.2c-2.9-4-6.4-7.5-8.7-9.8c-0.6-0.6-1.6-0.6-2.1,0c-4.5,4.5-13.9,13.8-13.9,22.8c0,8.2,6.7,15,15,15
				s15-6.7,15-15C12.4-118.1,10.6-122.4,7.2-127.2z M-2.6-102.3c-6.6,0-11.9-5.4-11.9-11.9c0-3.1,1.5-6.8,4.4-10.9
				c2.3-3.2,5-6.1,7.6-8.7c5.6,5.7,11.9,12.9,11.9,19.6C9.3-107.6,4-102.3-2.6-102.3z"/>
			<path class="st1" d="M58.6-127.2c-2.9-4-6.4-7.5-8.7-9.8c-0.6-0.6-1.6-0.6-2.1,0c-4.5,4.5-13.9,13.8-13.9,22.8
				c0,8.2,6.7,15,15,15s15-6.7,15-15C63.8-118.1,62.1-122.4,58.6-127.2z M48.8-102.3c-6.6,0-11.9-5.4-11.9-11.9
				c0-3.1,1.5-6.8,4.4-10.9c2.3-3.2,5-6.1,7.6-8.7c5.6,5.7,11.9,12.9,11.9,19.6C60.8-107.6,55.4-102.3,48.8-102.3z"/>
			<path class="st1" d="M110.1-127.2c-2.9-4-6.4-7.5-8.7-9.8c-0.6-0.6-1.6-0.6-2.1,0c-4.5,4.5-13.9,13.8-13.9,22.8
				c0,8.2,6.7,15,15,15s15-6.7,15-15C115.2-118.1,113.5-122.4,110.1-127.2z M100.3-102.3c-6.6,0-11.9-5.4-11.9-11.9
				c0-3.1,1.5-6.8,4.4-10.9c2.3-3.2,5-6.1,7.6-8.7c5.6,5.7,11.9,12.9,11.9,19.6C112.2-107.6,106.9-102.3,100.3-102.3z"/>
			<path class="st1" d="M161.5-127.2c-2.9-4-6.4-7.5-8.7-9.8c-0.6-0.6-1.6-0.6-2.1,0c-4.5,4.5-13.9,13.8-13.9,22.8
				c0,8.2,6.7,15,15,15s15-6.7,15-15C166.7-118.1,164.9-122.4,161.5-127.2z M151.7-102.3c-6.6,0-11.9-5.4-11.9-11.9
				c0-3.1,1.5-6.8,4.4-10.9c2.3-3.2,5-6.1,7.6-8.7c5.6,5.7,11.9,12.9,11.9,19.6C163.6-107.6,158.3-102.3,151.7-102.3z"/>
			<path class="st1" d="M212.9-127.2c-2.9-4-6.4-7.5-8.7-9.8c-0.6-0.6-1.6-0.6-2.1,0c-4.5,4.5-13.9,13.8-13.9,22.8
				c0,8.2,6.7,15,15,15s15-6.7,15-15C218.1-118.1,216.4-122.4,212.9-127.2z M203.1-102.3c-6.6,0-11.9-5.4-11.9-11.9
				c0-3.1,1.5-6.8,4.4-10.9c2.3-3.2,5-6.1,7.6-8.7c5.6,5.7,11.9,12.9,11.9,19.6C215.1-107.6,209.7-102.3,203.1-102.3z"/>
			<path class="st1" d="M264.4-127.2c-2.9-4-6.4-7.5-8.7-9.8c-0.6-0.6-1.6-0.6-2.1,0c-4.5,4.5-13.9,13.8-13.9,22.8
				c0,8.2,6.7,15,15,15c8.2,0,15-6.7,15-15C269.5-118.1,267.8-122.4,264.4-127.2z M254.6-102.3c-6.6,0-11.9-5.4-11.9-11.9
				c0-3.1,1.5-6.8,4.4-10.9c2.3-3.2,5-6.1,7.6-8.7c5.6,5.7,11.9,12.9,11.9,19.6C266.5-107.6,261.2-102.3,254.6-102.3z"/>
			<path class="st1" d="M315.8-127.2c-2.9-4-6.4-7.5-8.7-9.8c-0.6-0.6-1.6-0.6-2.1,0c-4.5,4.5-13.9,13.8-13.9,22.8
				c0,8.2,6.7,15,15,15c8.2,0,15-6.7,15-15C321-118.1,319.2-122.4,315.8-127.2z M306-102.3c-6.6,0-11.9-5.4-11.9-11.9
				c0-3.1,1.5-6.8,4.4-10.9c2.3-3.2,5-6.1,7.6-8.7c5.6,5.7,11.9,12.9,11.9,19.6C318-107.6,312.6-102.3,306-102.3z"/>
			<path class="st1" d="M367.2-127.2c-2.9-4-6.4-7.5-8.7-9.8c-0.6-0.6-1.6-0.6-2.1,0c-4.5,4.5-13.9,13.8-13.9,22.8
				c0,8.2,6.7,15,15,15c8.2,0,15-6.7,15-15C372.4-118.1,370.7-122.4,367.2-127.2z M357.4-102.3c-6.6,0-11.9-5.4-11.9-11.9
				c0-3.1,1.5-6.8,4.4-10.9c2.3-3.2,5-6.1,7.6-8.7c5.6,5.7,11.9,12.9,11.9,19.6C369.4-107.6,364-102.3,357.4-102.3z"/>
			<path class="st1" d="M418.7-127.2c-2.9-4-6.4-7.5-8.7-9.8c-0.6-0.6-1.6-0.6-2.1,0c-4.5,4.5-13.9,13.8-13.9,22.8
				c0,8.2,6.7,15,15,15s15-6.7,15-15C423.8-118.1,422.1-122.4,418.7-127.2z M408.9-102.3c-6.6,0-11.9-5.4-11.9-11.9
				c0-3.1,1.5-6.8,4.4-10.9c2.3-3.2,5-6.1,7.6-8.7c5.6,5.7,11.9,12.9,11.9,19.6C420.8-107.6,415.5-102.3,408.9-102.3z"/>
			<path class="st1" d="M470.1-127.2c-2.9-4-6.4-7.5-8.7-9.8c-0.6-0.6-1.6-0.6-2.1,0c-4.5,4.5-13.9,13.8-13.9,22.8
				c0,8.2,6.7,15,15,15c8.2,0,15-6.7,15-15C475.3-118.1,473.5-122.4,470.1-127.2z M460.3-102.3c-6.6,0-11.9-5.4-11.9-11.9
				c0-3.1,1.5-6.8,4.4-10.9c2.3-3.2,5-6.1,7.6-8.7c5.6,5.7,11.9,12.9,11.9,19.6C472.3-107.6,466.9-102.3,460.3-102.3z"/>
		</g>
		<g>
			<path class="st1" d="M-18.5-75.7c-2.9-4-6.4-7.5-8.7-9.8c-0.6-0.6-1.6-0.6-2.1,0c-4.5,4.5-13.9,13.8-13.9,22.8
				c0,8.2,6.7,15,15,15s15-6.7,15-15C-13.4-66.6-15.1-71-18.5-75.7z M-28.3-50.8c-6.6,0-11.9-5.4-11.9-11.9c0-3.1,1.5-6.8,4.4-10.9
				c2.3-3.2,5-6.1,7.6-8.7c5.6,5.7,11.9,12.9,11.9,19.6C-16.4-56.2-21.7-50.8-28.3-50.8z"/>
			<path class="st1" d="M32.9-75.7c-2.9-4-6.4-7.5-8.7-9.8c-0.6-0.6-1.6-0.6-2.1,0C17.6-81.1,8.2-71.8,8.2-62.8c0,8.2,6.7,15,15,15
				s15-6.7,15-15C38.1-66.6,36.3-71,32.9-75.7z M23.1-50.8c-6.6,0-11.9-5.4-11.9-11.9c0-3.1,1.5-6.8,4.4-10.9c2.3-3.2,5-6.1,7.6-8.7
				c5.6,5.7,11.9,12.9,11.9,19.6C35.1-56.2,29.7-50.8,23.1-50.8z"/>
			<path class="st1" d="M84.3-75.7c-2.9-4-6.4-7.5-8.7-9.8c-0.6-0.6-1.6-0.6-2.1,0C69-81.1,59.6-71.8,59.6-62.8c0,8.2,6.7,15,15,15
				s15-6.7,15-15C89.5-66.6,87.8-71,84.3-75.7z M74.5-50.8c-6.6,0-11.9-5.4-11.9-11.9c0-3.1,1.5-6.8,4.4-10.9c2.3-3.2,5-6.1,7.6-8.7
				c5.6,5.7,11.9,12.9,11.9,19.6C86.5-56.2,81.1-50.8,74.5-50.8z"/>
			<path class="st1" d="M135.8-75.7c-2.9-4-6.4-7.5-8.7-9.8c-0.6-0.6-1.6-0.6-2.1,0c-4.5,4.5-13.9,13.8-13.9,22.8
				c0,8.2,6.7,15,15,15s15-6.7,15-15C140.9-66.6,139.2-71,135.8-75.7z M126-50.8c-6.6,0-11.9-5.4-11.9-11.9c0-3.1,1.5-6.8,4.4-10.9
				c2.3-3.2,5-6.1,7.6-8.7c5.6,5.7,11.9,12.9,11.9,19.6C137.9-56.2,132.6-50.8,126-50.8z"/>
			<path class="st1" d="M187.2-75.7c-2.9-4-6.4-7.5-8.7-9.8c-0.6-0.6-1.6-0.6-2.1,0c-4.5,4.5-13.9,13.8-13.9,22.8
				c0,8.2,6.7,15,15,15s15-6.7,15-15C192.4-66.6,190.6-71,187.2-75.7z M177.4-50.8c-6.6,0-11.9-5.4-11.9-11.9
				c0-3.1,1.5-6.8,4.4-10.9c2.3-3.2,5-6.1,7.6-8.7c5.6,5.7,11.9,12.9,11.9,19.6C189.4-56.2,184-50.8,177.4-50.8z"/>
			<path class="st1" d="M238.7-75.7c-2.9-4-6.4-7.5-8.7-9.8c-0.6-0.6-1.6-0.6-2.1,0c-4.5,4.5-13.9,13.8-13.9,22.8
				c0,8.2,6.7,15,15,15c8.2,0,15-6.7,15-15C243.8-66.6,242.1-71,238.7-75.7z M228.9-50.8c-6.6,0-11.9-5.4-11.9-11.9
				c0-3.1,1.5-6.8,4.4-10.9c2.3-3.2,5-6.1,7.6-8.7c5.6,5.7,11.9,12.9,11.9,19.6C240.8-56.2,235.4-50.8,228.9-50.8z"/>
			<path class="st1" d="M290.1-75.7c-2.9-4-6.4-7.5-8.7-9.8c-0.6-0.6-1.6-0.6-2.1,0c-4.5,4.5-13.9,13.8-13.9,22.8
				c0,8.2,6.7,15,15,15c8.2,0,15-6.7,15-15C295.3-66.6,293.5-71,290.1-75.7z M280.3-50.8c-6.6,0-11.9-5.4-11.9-11.9
				c0-3.1,1.5-6.8,4.4-10.9c2.3-3.2,5-6.1,7.6-8.7c5.6,5.7,11.9,12.9,11.9,19.6C292.2-56.2,286.9-50.8,280.3-50.8z"/>
			<path class="st1" d="M341.5-75.7c-2.9-4-6.4-7.5-8.7-9.8c-0.6-0.6-1.6-0.6-2.1,0c-4.5,4.5-13.9,13.8-13.9,22.8
				c0,8.2,6.7,15,15,15c8.2,0,15-6.7,15-15C346.7-66.6,345-71,341.5-75.7z M331.7-50.8c-6.6,0-11.9-5.4-11.9-11.9
				c0-3.1,1.5-6.8,4.4-10.9c2.3-3.2,5-6.1,7.6-8.7c5.6,5.7,11.9,12.9,11.9,19.6C343.7-56.2,338.3-50.8,331.7-50.8z"/>
			<path class="st1" d="M393-75.7c-2.9-4-6.4-7.5-8.7-9.8c-0.6-0.6-1.6-0.6-2.1,0c-4.5,4.5-13.9,13.8-13.9,22.8c0,8.2,6.7,15,15,15
				c8.2,0,15-6.7,15-15C398.1-66.6,396.4-71,393-75.7z M383.2-50.8c-6.6,0-11.9-5.4-11.9-11.9c0-3.1,1.5-6.8,4.4-10.9
				c2.3-3.2,5-6.1,7.6-8.7c5.6,5.7,11.9,12.9,11.9,19.6C395.1-56.2,389.8-50.8,383.2-50.8z"/>
			<path class="st1" d="M444.4-75.7c-2.9-4-6.4-7.5-8.7-9.8c-0.6-0.6-1.6-0.6-2.1,0c-4.5,4.5-13.9,13.8-13.9,22.8
				c0,8.2,6.7,15,15,15s15-6.7,15-15C449.6-66.6,447.8-71,444.4-75.7z M434.6-50.8c-6.6,0-11.9-5.4-11.9-11.9
				c0-3.1,1.5-6.8,4.4-10.9c2.3-3.2,5-6.1,7.6-8.7c5.6,5.7,11.9,12.9,11.9,19.6C446.5-56.2,441.2-50.8,434.6-50.8z"/>
			<path class="st1" d="M495.8-75.7c-2.9-4-6.4-7.5-8.7-9.8c-0.6-0.6-1.6-0.6-2.1,0c-4.5,4.5-13.9,13.8-13.9,22.8
				c0,8.2,6.7,15,15,15c8.2,0,15-6.7,15-15C501-66.6,499.3-71,495.8-75.7z M486-50.8c-6.6,0-11.9-5.4-11.9-11.9
				c0-3.1,1.5-6.8,4.4-10.9c2.3-3.2,5-6.1,7.6-8.7c5.6,5.7,11.9,12.9,11.9,19.6C498-56.2,492.6-50.8,486-50.8z"/>
		</g>
		<g>
			<path class="st1" d="M-44.2-24.3c-2.9-4-6.4-7.5-8.7-9.8c-0.6-0.6-1.6-0.6-2.1,0C-59.6-29.7-69-20.3-69-11.3c0,8.2,6.7,15,15,15
				s15-6.7,15-15C-39.1-15.2-40.8-19.6-44.2-24.3z M-54,0.6C-60.6,0.6-66-4.7-66-11.3c0-3.1,1.5-6.8,4.4-10.9c2.3-3.2,5-6.1,7.6-8.7
				c5.6,5.7,11.9,12.9,11.9,19.6C-42.1-4.7-47.5,0.6-54,0.6z"/>
			<path class="st1" d="M7.2-24.3c-2.9-4-6.4-7.5-8.7-9.8c-0.6-0.6-1.6-0.6-2.1,0c-4.5,4.5-13.9,13.8-13.9,22.8c0,8.2,6.7,15,15,15
				s15-6.7,15-15C12.4-15.2,10.6-19.6,7.2-24.3z M-2.6,0.6c-6.6,0-11.9-5.4-11.9-11.9c0-3.1,1.5-6.8,4.4-10.9c2.3-3.2,5-6.1,7.6-8.7
				C3-25.3,9.3-18,9.3-11.3C9.3-4.7,4,0.6-2.6,0.6z"/>
			<path class="st1" d="M58.6-24.3c-2.9-4-6.4-7.5-8.7-9.8c-0.6-0.6-1.6-0.6-2.1,0c-4.5,4.5-13.9,13.8-13.9,22.8c0,8.2,6.7,15,15,15
				s15-6.7,15-15C63.8-15.2,62.1-19.6,58.6-24.3z M48.8,0.6c-6.6,0-11.9-5.4-11.9-11.9c0-3.1,1.5-6.8,4.4-10.9
				c2.3-3.2,5-6.1,7.6-8.7c5.6,5.7,11.9,12.9,11.9,19.6C60.8-4.7,55.4,0.6,48.8,0.6z"/>
			<path class="st1" d="M110.1-24.3c-2.9-4-6.4-7.5-8.7-9.8c-0.6-0.6-1.6-0.6-2.1,0c-4.5,4.5-13.9,13.8-13.9,22.8
				c0,8.2,6.7,15,15,15s15-6.7,15-15C115.2-15.2,113.5-19.6,110.1-24.3z M100.3,0.6c-6.6,0-11.9-5.4-11.9-11.9
				c0-3.1,1.5-6.8,4.4-10.9c2.3-3.2,5-6.1,7.6-8.7c5.6,5.7,11.9,12.9,11.9,19.6C112.2-4.7,106.9,0.6,100.3,0.6z"/>
			<path class="st1" d="M161.5-24.3c-2.9-4-6.4-7.5-8.7-9.8c-0.6-0.6-1.6-0.6-2.1,0c-4.5,4.5-13.9,13.8-13.9,22.8
				c0,8.2,6.7,15,15,15s15-6.7,15-15C166.7-15.2,164.9-19.6,161.5-24.3z M151.7,0.6c-6.6,0-11.9-5.4-11.9-11.9
				c0-3.1,1.5-6.8,4.4-10.9c2.3-3.2,5-6.1,7.6-8.7c5.6,5.7,11.9,12.9,11.9,19.6C163.6-4.7,158.3,0.6,151.7,0.6z"/>
			<path class="st1" d="M212.9-24.3c-2.9-4-6.4-7.5-8.7-9.8c-0.6-0.6-1.6-0.6-2.1,0c-4.5,4.5-13.9,13.8-13.9,22.8
				c0,8.2,6.7,15,15,15s15-6.7,15-15C218.1-15.2,216.4-19.6,212.9-24.3z M203.1,0.6c-6.6,0-11.9-5.4-11.9-11.9
				c0-3.1,1.5-6.8,4.4-10.9c2.3-3.2,5-6.1,7.6-8.7c5.6,5.7,11.9,12.9,11.9,19.6C215.1-4.7,209.7,0.6,203.1,0.6z"/>
			<path class="st1" d="M264.4-24.3c-2.9-4-6.4-7.5-8.7-9.8c-0.6-0.6-1.6-0.6-2.1,0c-4.5,4.5-13.9,13.8-13.9,22.8
				c0,8.2,6.7,15,15,15c8.2,0,15-6.7,15-15C269.5-15.2,267.8-19.6,264.4-24.3z M254.6,0.6c-6.6,0-11.9-5.4-11.9-11.9
				c0-3.1,1.5-6.8,4.4-10.9c2.3-3.2,5-6.1,7.6-8.7c5.6,5.7,11.9,12.9,11.9,19.6C266.5-4.7,261.2,0.6,254.6,0.6z"/>
			<path class="st1" d="M315.8-24.3c-2.9-4-6.4-7.5-8.7-9.8c-0.6-0.6-1.6-0.6-2.1,0c-4.5,4.5-13.9,13.8-13.9,22.8
				c0,8.2,6.7,15,15,15c8.2,0,15-6.7,15-15C321-15.2,319.2-19.6,315.8-24.3z M306,0.6c-6.6,0-11.9-5.4-11.9-11.9
				c0-3.1,1.5-6.8,4.4-10.9c2.3-3.2,5-6.1,7.6-8.7C311.6-25.3,318-18,318-11.3C318-4.7,312.6,0.6,306,0.6z"/>
			<path class="st1" d="M367.2-24.3c-2.9-4-6.4-7.5-8.7-9.8c-0.6-0.6-1.6-0.6-2.1,0c-4.5,4.5-13.9,13.8-13.9,22.8
				c0,8.2,6.7,15,15,15c8.2,0,15-6.7,15-15C372.4-15.2,370.7-19.6,367.2-24.3z M357.4,0.6c-6.6,0-11.9-5.4-11.9-11.9
				c0-3.1,1.5-6.8,4.4-10.9c2.3-3.2,5-6.1,7.6-8.7c5.6,5.7,11.9,12.9,11.9,19.6C369.4-4.7,364,0.6,357.4,0.6z"/>
			<path class="st1" d="M418.7-24.3c-2.9-4-6.4-7.5-8.7-9.8c-0.6-0.6-1.6-0.6-2.1,0c-4.5,4.5-13.9,13.8-13.9,22.8
				c0,8.2,6.7,15,15,15s15-6.7,15-15C423.8-15.2,422.1-19.6,418.7-24.3z M408.9,0.6c-6.6,0-11.9-5.4-11.9-11.9
				c0-3.1,1.5-6.8,4.4-10.9c2.3-3.2,5-6.1,7.6-8.7c5.6,5.7,11.9,12.9,11.9,19.6C420.8-4.7,415.5,0.6,408.9,0.6z"/>
			<path class="st1" d="M470.1-24.3c-2.9-4-6.4-7.5-8.7-9.8c-0.6-0.6-1.6-0.6-2.1,0c-4.5,4.5-13.9,13.8-13.9,22.8
				c0,8.2,6.7,15,15,15c8.2,0,15-6.7,15-15C475.3-15.2,473.5-19.6,470.1-24.3z M460.3,0.6c-6.6,0-11.9-5.4-11.9-11.9
				c0-3.1,1.5-6.8,4.4-10.9c2.3-3.2,5-6.1,7.6-8.7c5.6,5.7,11.9,12.9,11.9,19.6C472.3-4.7,466.9,0.6,460.3,0.6z"/>
		</g>
		<g>
			<path class="st1" d="M-18.5,27.1c-2.9-4-6.4-7.5-8.7-9.8c-0.6-0.6-1.6-0.6-2.1,0c-4.5,4.5-13.9,13.8-13.9,22.8
				c0,8.2,6.7,15,15,15s15-6.7,15-15C-13.4,36.3-15.1,31.9-18.5,27.1z M-28.3,52.1c-6.6,0-11.9-5.4-11.9-11.9
				c0-3.1,1.5-6.8,4.4-10.9c2.3-3.2,5-6.1,7.6-8.7c5.6,5.7,11.9,12.9,11.9,19.6C-16.4,46.7-21.7,52.1-28.3,52.1z"/>
			<path class="st1" d="M32.9,27.1c-2.9-4-6.4-7.5-8.7-9.8c-0.6-0.6-1.6-0.6-2.1,0C17.6,21.8,8.2,31.1,8.2,40.1c0,8.2,6.7,15,15,15
				s15-6.7,15-15C38.1,36.3,36.3,31.9,32.9,27.1z M23.1,52.1c-6.6,0-11.9-5.4-11.9-11.9c0-3.1,1.5-6.8,4.4-10.9
				c2.3-3.2,5-6.1,7.6-8.7c5.6,5.7,11.9,12.9,11.9,19.6C35.1,46.7,29.7,52.1,23.1,52.1z"/>
			<path class="st1" d="M84.3,27.1c-2.9-4-6.4-7.5-8.7-9.8c-0.6-0.6-1.6-0.6-2.1,0C69,21.8,59.6,31.1,59.6,40.1c0,8.2,6.7,15,15,15
				s15-6.7,15-15C89.5,36.3,87.8,31.9,84.3,27.1z M74.5,52.1c-6.6,0-11.9-5.4-11.9-11.9c0-3.1,1.5-6.8,4.4-10.9
				c2.3-3.2,5-6.1,7.6-8.7c5.6,5.7,11.9,12.9,11.9,19.6C86.5,46.7,81.1,52.1,74.5,52.1z"/>
			<path class="st1" d="M135.8,27.1c-2.9-4-6.4-7.5-8.7-9.8c-0.6-0.6-1.6-0.6-2.1,0c-4.5,4.5-13.9,13.8-13.9,22.8
				c0,8.2,6.7,15,15,15s15-6.7,15-15C140.9,36.3,139.2,31.9,135.8,27.1z M126,52.1c-6.6,0-11.9-5.4-11.9-11.9
				c0-3.1,1.5-6.8,4.4-10.9c2.3-3.2,5-6.1,7.6-8.7c5.6,5.7,11.9,12.9,11.9,19.6C137.9,46.7,132.6,52.1,126,52.1z"/>
			<path class="st1" d="M187.2,27.1c-2.9-4-6.4-7.5-8.7-9.8c-0.6-0.6-1.6-0.6-2.1,0c-4.5,4.5-13.9,13.8-13.9,22.8
				c0,8.2,6.7,15,15,15s15-6.7,15-15C192.4,36.3,190.6,31.9,187.2,27.1z M177.4,52.1c-6.6,0-11.9-5.4-11.9-11.9
				c0-3.1,1.5-6.8,4.4-10.9c2.3-3.2,5-6.1,7.6-8.7c5.6,5.7,11.9,12.9,11.9,19.6C189.4,46.7,184,52.1,177.4,52.1z"/>
			<path class="st1" d="M238.7,27.1c-2.9-4-6.4-7.5-8.7-9.8c-0.6-0.6-1.6-0.6-2.1,0c-4.5,4.5-13.9,13.8-13.9,22.8
				c0,8.2,6.7,15,15,15c8.2,0,15-6.7,15-15C243.8,36.3,242.1,31.9,238.7,27.1z M228.9,52.1c-6.6,0-11.9-5.4-11.9-11.9
				c0-3.1,1.5-6.8,4.4-10.9c2.3-3.2,5-6.1,7.6-8.7c5.6,5.7,11.9,12.9,11.9,19.6C240.8,46.7,235.4,52.1,228.9,52.1z"/>
			<path class="st1" d="M290.1,27.1c-2.9-4-6.4-7.5-8.7-9.8c-0.6-0.6-1.6-0.6-2.1,0c-4.5,4.5-13.9,13.8-13.9,22.8
				c0,8.2,6.7,15,15,15c8.2,0,15-6.7,15-15C295.3,36.3,293.5,31.9,290.1,27.1z M280.3,52.1c-6.6,0-11.9-5.4-11.9-11.9
				c0-3.1,1.5-6.8,4.4-10.9c2.3-3.2,5-6.1,7.6-8.7c5.6,5.7,11.9,12.9,11.9,19.6C292.2,46.7,286.9,52.1,280.3,52.1z"/>
			<path class="st1" d="M341.5,27.1c-2.9-4-6.4-7.5-8.7-9.8c-0.6-0.6-1.6-0.6-2.1,0c-4.5,4.5-13.9,13.8-13.9,22.8
				c0,8.2,6.7,15,15,15c8.2,0,15-6.7,15-15C346.7,36.3,345,31.9,341.5,27.1z M331.7,52.1c-6.6,0-11.9-5.4-11.9-11.9
				c0-3.1,1.5-6.8,4.4-10.9c2.3-3.2,5-6.1,7.6-8.7c5.6,5.7,11.9,12.9,11.9,19.6C343.7,46.7,338.3,52.1,331.7,52.1z"/>
			<path class="st1" d="M393,27.1c-2.9-4-6.4-7.5-8.7-9.8c-0.6-0.6-1.6-0.6-2.1,0c-4.5,4.5-13.9,13.8-13.9,22.8c0,8.2,6.7,15,15,15
				c8.2,0,15-6.7,15-15C398.1,36.3,396.4,31.9,393,27.1z M383.2,52.1c-6.6,0-11.9-5.4-11.9-11.9c0-3.1,1.5-6.8,4.4-10.9
				c2.3-3.2,5-6.1,7.6-8.7c5.6,5.7,11.9,12.9,11.9,19.6C395.1,46.7,389.8,52.1,383.2,52.1z"/>
			<path class="st1" d="M444.4,27.1c-2.9-4-6.4-7.5-8.7-9.8c-0.6-0.6-1.6-0.6-2.1,0c-4.5,4.5-13.9,13.8-13.9,22.8
				c0,8.2,6.7,15,15,15s15-6.7,15-15C449.6,36.3,447.8,31.9,444.4,27.1z M434.6,52.1c-6.6,0-11.9-5.4-11.9-11.9
				c0-3.1,1.5-6.8,4.4-10.9c2.3-3.2,5-6.1,7.6-8.7c5.6,5.7,11.9,12.9,11.9,19.6C446.5,46.7,441.2,52.1,434.6,52.1z"/>
			<path class="st1" d="M495.8,27.1c-2.9-4-6.4-7.5-8.7-9.8c-0.6-0.6-1.6-0.6-2.1,0c-4.5,4.5-13.9,13.8-13.9,22.8
				c0,8.2,6.7,15,15,15c8.2,0,15-6.7,15-15C501,36.3,499.3,31.9,495.8,27.1z M486,52.1c-6.6,0-11.9-5.4-11.9-11.9
				c0-3.1,1.5-6.8,4.4-10.9c2.3-3.2,5-6.1,7.6-8.7c5.6,5.7,11.9,12.9,11.9,19.6C498,46.7,492.6,52.1,486,52.1z"/>
		</g>
		<g>
			<path class="st1" d="M-44.2,78.6c-2.9-4-6.4-7.5-8.7-9.8c-0.6-0.6-1.6-0.6-2.1,0C-59.6,73.2-69,82.5-69,91.5c0,8.2,6.7,15,15,15
				s15-6.7,15-15C-39.1,87.7-40.8,83.3-44.2,78.6z M-54,103.5c-6.6,0-11.9-5.4-11.9-11.9c0-3.1,1.5-6.8,4.4-10.9
				c2.3-3.2,5-6.1,7.6-8.7c5.6,5.7,11.9,12.9,11.9,19.6C-42.1,98.1-47.5,103.5-54,103.5z"/>
			<path class="st1" d="M7.2,78.6c-2.9-4-6.4-7.5-8.7-9.8c-0.6-0.6-1.6-0.6-2.1,0c-4.5,4.5-13.9,13.8-13.9,22.8c0,8.2,6.7,15,15,15
				s15-6.7,15-15C12.4,87.7,10.6,83.3,7.2,78.6z M-2.6,103.5c-6.6,0-11.9-5.4-11.9-11.9c0-3.1,1.5-6.8,4.4-10.9
				c2.3-3.2,5-6.1,7.6-8.7C3,77.6,9.3,84.9,9.3,91.5C9.3,98.1,4,103.5-2.6,103.5z"/>
			<path class="st1" d="M58.6,78.6c-2.9-4-6.4-7.5-8.7-9.8c-0.6-0.6-1.6-0.6-2.1,0c-4.5,4.5-13.9,13.8-13.9,22.8c0,8.2,6.7,15,15,15
				s15-6.7,15-15C63.8,87.7,62.1,83.3,58.6,78.6z M48.8,103.5c-6.6,0-11.9-5.4-11.9-11.9c0-3.1,1.5-6.8,4.4-10.9
				c2.3-3.2,5-6.1,7.6-8.7c5.6,5.7,11.9,12.9,11.9,19.6C60.8,98.1,55.4,103.5,48.8,103.5z"/>
			<path class="st1" d="M110.1,78.6c-2.9-4-6.4-7.5-8.7-9.8c-0.6-0.6-1.6-0.6-2.1,0c-4.5,4.5-13.9,13.8-13.9,22.8
				c0,8.2,6.7,15,15,15s15-6.7,15-15C115.2,87.7,113.5,83.3,110.1,78.6z M100.3,103.5c-6.6,0-11.9-5.4-11.9-11.9
				c0-3.1,1.5-6.8,4.4-10.9c2.3-3.2,5-6.1,7.6-8.7c5.6,5.7,11.9,12.9,11.9,19.6C112.2,98.1,106.9,103.5,100.3,103.5z"/>
			<path class="st1" d="M161.5,78.6c-2.9-4-6.4-7.5-8.7-9.8c-0.6-0.6-1.6-0.6-2.1,0c-4.5,4.5-13.9,13.8-13.9,22.8
				c0,8.2,6.7,15,15,15s15-6.7,15-15C166.7,87.7,164.9,83.3,161.5,78.6z M151.7,103.5c-6.6,0-11.9-5.4-11.9-11.9
				c0-3.1,1.5-6.8,4.4-10.9c2.3-3.2,5-6.1,7.6-8.7c5.6,5.7,11.9,12.9,11.9,19.6C163.6,98.1,158.3,103.5,151.7,103.5z"/>
			<path class="st1" d="M212.9,78.6c-2.9-4-6.4-7.5-8.7-9.8c-0.6-0.6-1.6-0.6-2.1,0c-4.5,4.5-13.9,13.8-13.9,22.8
				c0,8.2,6.7,15,15,15s15-6.7,15-15C218.1,87.7,216.4,83.3,212.9,78.6z M203.1,103.5c-6.6,0-11.9-5.4-11.9-11.9
				c0-3.1,1.5-6.8,4.4-10.9c2.3-3.2,5-6.1,7.6-8.7c5.6,5.7,11.9,12.9,11.9,19.6C215.1,98.1,209.7,103.5,203.1,103.5z"/>
			<path class="st1" d="M264.4,78.6c-2.9-4-6.4-7.5-8.7-9.8c-0.6-0.6-1.6-0.6-2.1,0c-4.5,4.5-13.9,13.8-13.9,22.8
				c0,8.2,6.7,15,15,15c8.2,0,15-6.7,15-15C269.5,87.7,267.8,83.3,264.4,78.6z M254.6,103.5c-6.6,0-11.9-5.4-11.9-11.9
				c0-3.1,1.5-6.8,4.4-10.9c2.3-3.2,5-6.1,7.6-8.7c5.6,5.7,11.9,12.9,11.9,19.6C266.5,98.1,261.2,103.5,254.6,103.5z"/>
			<path class="st1" d="M315.8,78.6c-2.9-4-6.4-7.5-8.7-9.8c-0.6-0.6-1.6-0.6-2.1,0c-4.5,4.5-13.9,13.8-13.9,22.8
				c0,8.2,6.7,15,15,15c8.2,0,15-6.7,15-15C321,87.7,319.2,83.3,315.8,78.6z M306,103.5c-6.6,0-11.9-5.4-11.9-11.9
				c0-3.1,1.5-6.8,4.4-10.9c2.3-3.2,5-6.1,7.6-8.7c5.6,5.7,11.9,12.9,11.9,19.6C318,98.1,312.6,103.5,306,103.5z"/>
			<path class="st1" d="M367.2,78.6c-2.9-4-6.4-7.5-8.7-9.8c-0.6-0.6-1.6-0.6-2.1,0c-4.5,4.5-13.9,13.8-13.9,22.8
				c0,8.2,6.7,15,15,15c8.2,0,15-6.7,15-15C372.4,87.7,370.7,83.3,367.2,78.6z M357.4,103.5c-6.6,0-11.9-5.4-11.9-11.9
				c0-3.1,1.5-6.8,4.4-10.9c2.3-3.2,5-6.1,7.6-8.7c5.6,5.7,11.9,12.9,11.9,19.6C369.4,98.1,364,103.5,357.4,103.5z"/>
			<path class="st1" d="M418.7,78.6c-2.9-4-6.4-7.5-8.7-9.8c-0.6-0.6-1.6-0.6-2.1,0c-4.5,4.5-13.9,13.8-13.9,22.8
				c0,8.2,6.7,15,15,15s15-6.7,15-15C423.8,87.7,422.1,83.3,418.7,78.6z M408.9,103.5c-6.6,0-11.9-5.4-11.9-11.9
				c0-3.1,1.5-6.8,4.4-10.9c2.3-3.2,5-6.1,7.6-8.7c5.6,5.7,11.9,12.9,11.9,19.6C420.8,98.1,415.5,103.5,408.9,103.5z"/>
			<path class="st1" d="M470.1,78.6c-2.9-4-6.4-7.5-8.7-9.8c-0.6-0.6-1.6-0.6-2.1,0c-4.5,4.5-13.9,13.8-13.9,22.8
				c0,8.2,6.7,15,15,15c8.2,0,15-6.7,15-15C475.3,87.7,473.5,83.3,470.1,78.6z M460.3,103.5c-6.6,0-11.9-5.4-11.9-11.9
				c0-3.1,1.5-6.8,4.4-10.9c2.3-3.2,5-6.1,7.6-8.7c5.6,5.7,11.9,12.9,11.9,19.6C472.3,98.1,466.9,103.5,460.3,103.5z"/>
		</g>
		<g>
			<path class="st1" d="M-18.5,130c-2.9-4-6.4-7.5-8.7-9.8c-0.6-0.6-1.6-0.6-2.1,0c-4.5,4.5-13.9,13.8-13.9,22.8c0,8.2,6.7,15,15,15
				s15-6.7,15-15C-13.4,139.1-15.1,134.8-18.5,130z M-28.3,154.9c-6.6,0-11.9-5.4-11.9-11.9c0-3.1,1.5-6.8,4.4-10.9
				c2.3-3.2,5-6.1,7.6-8.7c5.6,5.7,11.9,12.9,11.9,19.6C-16.4,149.6-21.7,154.9-28.3,154.9z"/>
			<path class="st1" d="M32.9,130c-2.9-4-6.4-7.5-8.7-9.8c-0.6-0.6-1.6-0.6-2.1,0C17.6,124.7,8.2,134,8.2,143c0,8.2,6.7,15,15,15
				s15-6.7,15-15C38.1,139.1,36.3,134.8,32.9,130z M23.1,154.9c-6.6,0-11.9-5.4-11.9-11.9c0-3.1,1.5-6.8,4.4-10.9
				c2.3-3.2,5-6.1,7.6-8.7c5.6,5.7,11.9,12.9,11.9,19.6C35.1,149.6,29.7,154.9,23.1,154.9z"/>
			<path class="st1" d="M84.3,130c-2.9-4-6.4-7.5-8.7-9.8c-0.6-0.6-1.6-0.6-2.1,0C69,124.7,59.6,134,59.6,143c0,8.2,6.7,15,15,15
				s15-6.7,15-15C89.5,139.1,87.8,134.8,84.3,130z M74.5,154.9c-6.6,0-11.9-5.4-11.9-11.9c0-3.1,1.5-6.8,4.4-10.9
				c2.3-3.2,5-6.1,7.6-8.7c5.6,5.7,11.9,12.9,11.9,19.6C86.5,149.6,81.1,154.9,74.5,154.9z"/>
			<path class="st1" d="M135.8,130c-2.9-4-6.4-7.5-8.7-9.8c-0.6-0.6-1.6-0.6-2.1,0C120.4,124.7,111,134,111,143c0,8.2,6.7,15,15,15
				s15-6.7,15-15C140.9,139.1,139.2,134.8,135.8,130z M126,154.9c-6.6,0-11.9-5.4-11.9-11.9c0-3.1,1.5-6.8,4.4-10.9
				c2.3-3.2,5-6.1,7.6-8.7c5.6,5.7,11.9,12.9,11.9,19.6C137.9,149.6,132.6,154.9,126,154.9z"/>
			<path class="st1" d="M187.2,130c-2.9-4-6.4-7.5-8.7-9.8c-0.6-0.6-1.6-0.6-2.1,0c-4.5,4.5-13.9,13.8-13.9,22.8c0,8.2,6.7,15,15,15
				s15-6.7,15-15C192.4,139.1,190.6,134.8,187.2,130z M177.4,154.9c-6.6,0-11.9-5.4-11.9-11.9c0-3.1,1.5-6.8,4.4-10.9
				c2.3-3.2,5-6.1,7.6-8.7c5.6,5.7,11.9,12.9,11.9,19.6C189.4,149.6,184,154.9,177.4,154.9z"/>
			<path class="st1" d="M238.7,130c-2.9-4-6.4-7.5-8.7-9.8c-0.6-0.6-1.6-0.6-2.1,0c-4.5,4.5-13.9,13.8-13.9,22.8c0,8.2,6.7,15,15,15
				c8.2,0,15-6.7,15-15C243.8,139.1,242.1,134.8,238.7,130z M228.9,154.9c-6.6,0-11.9-5.4-11.9-11.9c0-3.1,1.5-6.8,4.4-10.9
				c2.3-3.2,5-6.1,7.6-8.7c5.6,5.7,11.9,12.9,11.9,19.6C240.8,149.6,235.4,154.9,228.9,154.9z"/>
			<path class="st1" d="M290.1,130c-2.9-4-6.4-7.5-8.7-9.8c-0.6-0.6-1.6-0.6-2.1,0c-4.5,4.5-13.9,13.8-13.9,22.8c0,8.2,6.7,15,15,15
				c8.2,0,15-6.7,15-15C295.3,139.1,293.5,134.8,290.1,130z M280.3,154.9c-6.6,0-11.9-5.4-11.9-11.9c0-3.1,1.5-6.8,4.4-10.9
				c2.3-3.2,5-6.1,7.6-8.7c5.6,5.7,11.9,12.9,11.9,19.6C292.2,149.6,286.9,154.9,280.3,154.9z"/>
			<path class="st1" d="M341.5,130c-2.9-4-6.4-7.5-8.7-9.8c-0.6-0.6-1.6-0.6-2.1,0c-4.5,4.5-13.9,13.8-13.9,22.8c0,8.2,6.7,15,15,15
				c8.2,0,15-6.7,15-15C346.7,139.1,345,134.8,341.5,130z M331.7,154.9c-6.6,0-11.9-5.4-11.9-11.9c0-3.1,1.5-6.8,4.4-10.9
				c2.3-3.2,5-6.1,7.6-8.7c5.6,5.7,11.9,12.9,11.9,19.6C343.7,149.6,338.3,154.9,331.7,154.9z"/>
			<path class="st1" d="M393,130c-2.9-4-6.4-7.5-8.7-9.8c-0.6-0.6-1.6-0.6-2.1,0c-4.5,4.5-13.9,13.8-13.9,22.8c0,8.2,6.7,15,15,15
				c8.2,0,15-6.7,15-15C398.1,139.1,396.4,134.8,393,130z M383.2,154.9c-6.6,0-11.9-5.4-11.9-11.9c0-3.1,1.5-6.8,4.4-10.9
				c2.3-3.2,5-6.1,7.6-8.7c5.6,5.7,11.9,12.9,11.9,19.6C395.1,149.6,389.8,154.9,383.2,154.9z"/>
			<path class="st1" d="M444.4,130c-2.9-4-6.4-7.5-8.7-9.8c-0.6-0.6-1.6-0.6-2.1,0c-4.5,4.5-13.9,13.8-13.9,22.8c0,8.2,6.7,15,15,15
				s15-6.7,15-15C449.6,139.1,447.8,134.8,444.4,130z M434.6,154.9c-6.6,0-11.9-5.4-11.9-11.9c0-3.1,1.5-6.8,4.4-10.9
				c2.3-3.2,5-6.1,7.6-8.7c5.6,5.7,11.9,12.9,11.9,19.6C446.5,149.6,441.2,154.9,434.6,154.9z"/>
			<path class="st1" d="M495.8,130c-2.9-4-6.4-7.5-8.7-9.8c-0.6-0.6-1.6-0.6-2.1,0c-4.5,4.5-13.9,13.8-13.9,22.8c0,8.2,6.7,15,15,15
				c8.2,0,15-6.7,15-15C501,139.1,499.3,134.8,495.8,130z M486,154.9c-6.6,0-11.9-5.4-11.9-11.9c0-3.1,1.5-6.8,4.4-10.9
				c2.3-3.2,5-6.1,7.6-8.7c5.6,5.7,11.9,12.9,11.9,19.6C498,149.6,492.6,154.9,486,154.9z"/>
		</g>
		<g>
			<path class="st1" d="M-44.2,181.4c-2.9-4-6.4-7.5-8.7-9.8c-0.6-0.6-1.6-0.6-2.1,0c-4.5,4.5-13.9,13.8-13.9,22.8
				c0,8.2,6.7,15,15,15s15-6.7,15-15C-39.1,190.6-40.8,186.2-44.2,181.4z M-54,206.4c-6.6,0-11.9-5.4-11.9-11.9
				c0-3.1,1.5-6.8,4.4-10.9c2.3-3.2,5-6.1,7.6-8.7c5.6,5.7,11.9,12.9,11.9,19.6C-42.1,201-47.5,206.4-54,206.4z"/>
			<path class="st1" d="M7.2,181.4c-2.9-4-6.4-7.5-8.7-9.8c-0.6-0.6-1.6-0.6-2.1,0c-4.5,4.5-13.9,13.8-13.9,22.8c0,8.2,6.7,15,15,15
				s15-6.7,15-15C12.4,190.6,10.6,186.2,7.2,181.4z M-2.6,206.4c-6.6,0-11.9-5.4-11.9-11.9c0-3.1,1.5-6.8,4.4-10.9
				c2.3-3.2,5-6.1,7.6-8.7c5.6,5.7,11.9,12.9,11.9,19.6C9.3,201,4,206.4-2.6,206.4z"/>
			<path class="st1" d="M58.6,181.4c-2.9-4-6.4-7.5-8.7-9.8c-0.6-0.6-1.6-0.6-2.1,0c-4.5,4.5-13.9,13.8-13.9,22.8
				c0,8.2,6.7,15,15,15s15-6.7,15-15C63.8,190.6,62.1,186.2,58.6,181.4z M48.8,206.4c-6.6,0-11.9-5.4-11.9-11.9
				c0-3.1,1.5-6.8,4.4-10.9c2.3-3.2,5-6.1,7.6-8.7c5.6,5.7,11.9,12.9,11.9,19.6C60.8,201,55.4,206.4,48.8,206.4z"/>
			<path class="st1" d="M110.1,181.4c-2.9-4-6.4-7.5-8.7-9.8c-0.6-0.6-1.6-0.6-2.1,0c-4.5,4.5-13.9,13.8-13.9,22.8
				c0,8.2,6.7,15,15,15s15-6.7,15-15C115.2,190.6,113.5,186.2,110.1,181.4z M100.3,206.4c-6.6,0-11.9-5.4-11.9-11.9
				c0-3.1,1.5-6.8,4.4-10.9c2.3-3.2,5-6.1,7.6-8.7c5.6,5.7,11.9,12.9,11.9,19.6C112.2,201,106.9,206.4,100.3,206.4z"/>
			<path class="st1" d="M161.5,181.4c-2.9-4-6.4-7.5-8.7-9.8c-0.6-0.6-1.6-0.6-2.1,0c-4.5,4.5-13.9,13.8-13.9,22.8
				c0,8.2,6.7,15,15,15s15-6.7,15-15C166.7,190.6,164.9,186.2,161.5,181.4z M151.7,206.4c-6.6,0-11.9-5.4-11.9-11.9
				c0-3.1,1.5-6.8,4.4-10.9c2.3-3.2,5-6.1,7.6-8.7c5.6,5.7,11.9,12.9,11.9,19.6C163.6,201,158.3,206.4,151.7,206.4z"/>
			<path class="st1" d="M212.9,181.4c-2.9-4-6.4-7.5-8.7-9.8c-0.6-0.6-1.6-0.6-2.1,0c-4.5,4.5-13.9,13.8-13.9,22.8
				c0,8.2,6.7,15,15,15s15-6.7,15-15C218.1,190.6,216.4,186.2,212.9,181.4z M203.1,206.4c-6.6,0-11.9-5.4-11.9-11.9
				c0-3.1,1.5-6.8,4.4-10.9c2.3-3.2,5-6.1,7.6-8.7c5.6,5.7,11.9,12.9,11.9,19.6C215.1,201,209.7,206.4,203.1,206.4z"/>
			<path class="st1" d="M264.4,181.4c-2.9-4-6.4-7.5-8.7-9.8c-0.6-0.6-1.6-0.6-2.1,0c-4.5,4.5-13.9,13.8-13.9,22.8
				c0,8.2,6.7,15,15,15c8.2,0,15-6.7,15-15C269.5,190.6,267.8,186.2,264.4,181.4z M254.6,206.4c-6.6,0-11.9-5.4-11.9-11.9
				c0-3.1,1.5-6.8,4.4-10.9c2.3-3.2,5-6.1,7.6-8.7c5.6,5.7,11.9,12.9,11.9,19.6C266.5,201,261.2,206.4,254.6,206.4z"/>
			<path class="st1" d="M315.8,181.4c-2.9-4-6.4-7.5-8.7-9.8c-0.6-0.6-1.6-0.6-2.1,0c-4.5,4.5-13.9,13.8-13.9,22.8
				c0,8.2,6.7,15,15,15c8.2,0,15-6.7,15-15C321,190.6,319.2,186.2,315.8,181.4z M306,206.4c-6.6,0-11.9-5.4-11.9-11.9
				c0-3.1,1.5-6.8,4.4-10.9c2.3-3.2,5-6.1,7.6-8.7c5.6,5.7,11.9,12.9,11.9,19.6C318,201,312.6,206.4,306,206.4z"/>
			<path class="st1" d="M367.2,181.4c-2.9-4-6.4-7.5-8.7-9.8c-0.6-0.6-1.6-0.6-2.1,0c-4.5,4.5-13.9,13.8-13.9,22.8
				c0,8.2,6.7,15,15,15c8.2,0,15-6.7,15-15C372.4,190.6,370.7,186.2,367.2,181.4z M357.4,206.4c-6.6,0-11.9-5.4-11.9-11.9
				c0-3.1,1.5-6.8,4.4-10.9c2.3-3.2,5-6.1,7.6-8.7c5.6,5.7,11.9,12.9,11.9,19.6C369.4,201,364,206.4,357.4,206.4z"/>
			<path class="st1" d="M418.7,181.4c-2.9-4-6.4-7.5-8.7-9.8c-0.6-0.6-1.6-0.6-2.1,0c-4.5,4.5-13.9,13.8-13.9,22.8
				c0,8.2,6.7,15,15,15s15-6.7,15-15C423.8,190.6,422.1,186.2,418.7,181.4z M408.9,206.4c-6.6,0-11.9-5.4-11.9-11.9
				c0-3.1,1.5-6.8,4.4-10.9c2.3-3.2,5-6.1,7.6-8.7c5.6,5.7,11.9,12.9,11.9,19.6C420.8,201,415.5,206.4,408.9,206.4z"/>
			<path class="st1" d="M470.1,181.4c-2.9-4-6.4-7.5-8.7-9.8c-0.6-0.6-1.6-0.6-2.1,0c-4.5,4.5-13.9,13.8-13.9,22.8
				c0,8.2,6.7,15,15,15c8.2,0,15-6.7,15-15C475.3,190.6,473.5,186.2,470.1,181.4z M460.3,206.4c-6.6,0-11.9-5.4-11.9-11.9
				c0-3.1,1.5-6.8,4.4-10.9c2.3-3.2,5-6.1,7.6-8.7c5.6,5.7,11.9,12.9,11.9,19.6C472.3,201,466.9,206.4,460.3,206.4z"/>
		</g>
		<g>
			<path class="st1" d="M-18.5,232.9c-2.9-4-6.4-7.5-8.7-9.8c-0.6-0.6-1.6-0.6-2.1,0c-4.5,4.5-13.9,13.8-13.9,22.8
				c0,8.2,6.7,15,15,15s15-6.7,15-15C-13.4,242-15.1,237.6-18.5,232.9z M-28.3,257.8c-6.6,0-11.9-5.4-11.9-11.9
				c0-3.1,1.5-6.8,4.4-10.9c2.3-3.2,5-6.1,7.6-8.7c5.6,5.7,11.9,12.9,11.9,19.6C-16.4,252.4-21.7,257.8-28.3,257.8z"/>
			<path class="st1" d="M32.9,232.9c-2.9-4-6.4-7.5-8.7-9.8c-0.6-0.6-1.6-0.6-2.1,0c-4.5,4.5-13.9,13.8-13.9,22.8
				c0,8.2,6.7,15,15,15s15-6.7,15-15C38.1,242,36.3,237.6,32.9,232.9z M23.1,257.8c-6.6,0-11.9-5.4-11.9-11.9
				c0-3.1,1.5-6.8,4.4-10.9c2.3-3.2,5-6.1,7.6-8.7c5.6,5.7,11.9,12.9,11.9,19.6C35.1,252.4,29.7,257.8,23.1,257.8z"/>
			<path class="st1" d="M84.3,232.9c-2.9-4-6.4-7.5-8.7-9.8c-0.6-0.6-1.6-0.6-2.1,0c-4.5,4.5-13.9,13.8-13.9,22.8
				c0,8.2,6.7,15,15,15s15-6.7,15-15C89.5,242,87.8,237.6,84.3,232.9z M74.5,257.8c-6.6,0-11.9-5.4-11.9-11.9
				c0-3.1,1.5-6.8,4.4-10.9c2.3-3.2,5-6.1,7.6-8.7c5.6,5.7,11.9,12.9,11.9,19.6C86.5,252.4,81.1,257.8,74.5,257.8z"/>
			<path class="st1" d="M135.8,232.9c-2.9-4-6.4-7.5-8.7-9.8c-0.6-0.6-1.6-0.6-2.1,0c-4.5,4.5-13.9,13.8-13.9,22.8
				c0,8.2,6.7,15,15,15s15-6.7,15-15C140.9,242,139.2,237.6,135.8,232.9z M126,257.8c-6.6,0-11.9-5.4-11.9-11.9
				c0-3.1,1.5-6.8,4.4-10.9c2.3-3.2,5-6.1,7.6-8.7c5.6,5.7,11.9,12.9,11.9,19.6C137.9,252.4,132.6,257.8,126,257.8z"/>
			<path class="st1" d="M187.2,232.9c-2.9-4-6.4-7.5-8.7-9.8c-0.6-0.6-1.6-0.6-2.1,0c-4.5,4.5-13.9,13.8-13.9,22.8
				c0,8.2,6.7,15,15,15s15-6.7,15-15C192.4,242,190.6,237.6,187.2,232.9z M177.4,257.8c-6.6,0-11.9-5.4-11.9-11.9
				c0-3.1,1.5-6.8,4.4-10.9c2.3-3.2,5-6.1,7.6-8.7c5.6,5.7,11.9,12.9,11.9,19.6C189.4,252.4,184,257.8,177.4,257.8z"/>
			<path class="st1" d="M238.7,232.9c-2.9-4-6.4-7.5-8.7-9.8c-0.6-0.6-1.6-0.6-2.1,0c-4.5,4.5-13.9,13.8-13.9,22.8
				c0,8.2,6.7,15,15,15c8.2,0,15-6.7,15-15C243.8,242,242.1,237.6,238.7,232.9z M228.9,257.8c-6.6,0-11.9-5.4-11.9-11.9
				c0-3.1,1.5-6.8,4.4-10.9c2.3-3.2,5-6.1,7.6-8.7c5.6,5.7,11.9,12.9,11.9,19.6C240.8,252.4,235.4,257.8,228.9,257.8z"/>
			<path class="st1" d="M290.1,232.9c-2.9-4-6.4-7.5-8.7-9.8c-0.6-0.6-1.6-0.6-2.1,0c-4.5,4.5-13.9,13.8-13.9,22.8
				c0,8.2,6.7,15,15,15c8.2,0,15-6.7,15-15C295.3,242,293.5,237.6,290.1,232.9z M280.3,257.8c-6.6,0-11.9-5.4-11.9-11.9
				c0-3.1,1.5-6.8,4.4-10.9c2.3-3.2,5-6.1,7.6-8.7c5.6,5.7,11.9,12.9,11.9,19.6C292.2,252.4,286.9,257.8,280.3,257.8z"/>
			<path class="st1" d="M341.5,232.9c-2.9-4-6.4-7.5-8.7-9.8c-0.6-0.6-1.6-0.6-2.1,0c-4.5,4.5-13.9,13.8-13.9,22.8
				c0,8.2,6.7,15,15,15c8.2,0,15-6.7,15-15C346.7,242,345,237.6,341.5,232.9z M331.7,257.8c-6.6,0-11.9-5.4-11.9-11.9
				c0-3.1,1.5-6.8,4.4-10.9c2.3-3.2,5-6.1,7.6-8.7c5.6,5.7,11.9,12.9,11.9,19.6C343.7,252.4,338.3,257.8,331.7,257.8z"/>
			<path class="st1" d="M393,232.9c-2.9-4-6.4-7.5-8.7-9.8c-0.6-0.6-1.6-0.6-2.1,0c-4.5,4.5-13.9,13.8-13.9,22.8c0,8.2,6.7,15,15,15
				c8.2,0,15-6.7,15-15C398.1,242,396.4,237.6,393,232.9z M383.2,257.8c-6.6,0-11.9-5.4-11.9-11.9c0-3.1,1.5-6.8,4.4-10.9
				c2.3-3.2,5-6.1,7.6-8.7c5.6,5.7,11.9,12.9,11.9,19.6C395.1,252.4,389.8,257.8,383.2,257.8z"/>
			<path class="st1" d="M444.4,232.9c-2.9-4-6.4-7.5-8.7-9.8c-0.6-0.6-1.6-0.6-2.1,0c-4.5,4.5-13.9,13.8-13.9,22.8
				c0,8.2,6.7,15,15,15s15-6.7,15-15C449.6,242,447.8,237.6,444.4,232.9z M434.6,257.8c-6.6,0-11.9-5.4-11.9-11.9
				c0-3.1,1.5-6.8,4.4-10.9c2.3-3.2,5-6.1,7.6-8.7c5.6,5.7,11.9,12.9,11.9,19.6C446.5,252.4,441.2,257.8,434.6,257.8z"/>
			<path class="st1" d="M495.8,232.9c-2.9-4-6.4-7.5-8.7-9.8c-0.6-0.6-1.6-0.6-2.1,0c-4.5,4.5-13.9,13.8-13.9,22.8
				c0,8.2,6.7,15,15,15c8.2,0,15-6.7,15-15C501,242,499.3,237.6,495.8,232.9z M486,257.8c-6.6,0-11.9-5.4-11.9-11.9
				c0-3.1,1.5-6.8,4.4-10.9c2.3-3.2,5-6.1,7.6-8.7c5.6,5.7,11.9,12.9,11.9,19.6C498,252.4,492.6,257.8,486,257.8z"/>
		</g>
		<g>
			<path class="st1" d="M-44.2,284.3c-2.9-4-6.4-7.5-8.7-9.8c-0.6-0.6-1.6-0.6-2.1,0C-59.6,279-69,288.3-69,297.3
				c0,8.2,6.7,15,15,15s15-6.7,15-15C-39.1,293.4-40.8,289.1-44.2,284.3z M-54,309.2c-6.6,0-11.9-5.4-11.9-11.9
				c0-3.1,1.5-6.8,4.4-10.9c2.3-3.2,5-6.1,7.6-8.7c5.6,5.7,11.9,12.9,11.9,19.6C-42.1,303.9-47.5,309.2-54,309.2z"/>
			<path class="st1" d="M7.2,284.3c-2.9-4-6.4-7.5-8.7-9.8c-0.6-0.6-1.6-0.6-2.1,0c-4.5,4.5-13.9,13.8-13.9,22.8c0,8.2,6.7,15,15,15
				s15-6.7,15-15C12.4,293.4,10.6,289.1,7.2,284.3z M-2.6,309.2c-6.6,0-11.9-5.4-11.9-11.9c0-3.1,1.5-6.8,4.4-10.9
				c2.3-3.2,5-6.1,7.6-8.7c5.6,5.7,11.9,12.9,11.9,19.6C9.3,303.9,4,309.2-2.6,309.2z"/>
			<path class="st1" d="M58.6,284.3c-2.9-4-6.4-7.5-8.7-9.8c-0.6-0.6-1.6-0.6-2.1,0c-4.5,4.5-13.9,13.8-13.9,22.8
				c0,8.2,6.7,15,15,15s15-6.7,15-15C63.8,293.4,62.1,289.1,58.6,284.3z M48.8,309.2c-6.6,0-11.9-5.4-11.9-11.9
				c0-3.1,1.5-6.8,4.4-10.9c2.3-3.2,5-6.1,7.6-8.7c5.6,5.7,11.9,12.9,11.9,19.6C60.8,303.9,55.4,309.2,48.8,309.2z"/>
			<path class="st1" d="M110.1,284.3c-2.9-4-6.4-7.5-8.7-9.8c-0.6-0.6-1.6-0.6-2.1,0c-4.5,4.5-13.9,13.8-13.9,22.8
				c0,8.2,6.7,15,15,15s15-6.7,15-15C115.2,293.4,113.5,289.1,110.1,284.3z M100.3,309.2c-6.6,0-11.9-5.4-11.9-11.9
				c0-3.1,1.5-6.8,4.4-10.9c2.3-3.2,5-6.1,7.6-8.7c5.6,5.7,11.9,12.9,11.9,19.6C112.2,303.9,106.9,309.2,100.3,309.2z"/>
			<path class="st1" d="M161.5,284.3c-2.9-4-6.4-7.5-8.7-9.8c-0.6-0.6-1.6-0.6-2.1,0c-4.5,4.5-13.9,13.8-13.9,22.8
				c0,8.2,6.7,15,15,15s15-6.7,15-15C166.7,293.4,164.9,289.1,161.5,284.3z M151.7,309.2c-6.6,0-11.9-5.4-11.9-11.9
				c0-3.1,1.5-6.8,4.4-10.9c2.3-3.2,5-6.1,7.6-8.7c5.6,5.7,11.9,12.9,11.9,19.6C163.6,303.9,158.3,309.2,151.7,309.2z"/>
			<path class="st1" d="M212.9,284.3c-2.9-4-6.4-7.5-8.7-9.8c-0.6-0.6-1.6-0.6-2.1,0c-4.5,4.5-13.9,13.8-13.9,22.8
				c0,8.2,6.7,15,15,15s15-6.7,15-15C218.1,293.4,216.4,289.1,212.9,284.3z M203.1,309.2c-6.6,0-11.9-5.4-11.9-11.9
				c0-3.1,1.5-6.8,4.4-10.9c2.3-3.2,5-6.1,7.6-8.7c5.6,5.7,11.9,12.9,11.9,19.6C215.1,303.9,209.7,309.2,203.1,309.2z"/>
			<path class="st1" d="M264.4,284.3c-2.9-4-6.4-7.5-8.7-9.8c-0.6-0.6-1.6-0.6-2.1,0c-4.5,4.5-13.9,13.8-13.9,22.8
				c0,8.2,6.7,15,15,15c8.2,0,15-6.7,15-15C269.5,293.4,267.8,289.1,264.4,284.3z M254.6,309.2c-6.6,0-11.9-5.4-11.9-11.9
				c0-3.1,1.5-6.8,4.4-10.9c2.3-3.2,5-6.1,7.6-8.7c5.6,5.7,11.9,12.9,11.9,19.6C266.5,303.9,261.2,309.2,254.6,309.2z"/>
			<path class="st1" d="M315.8,284.3c-2.9-4-6.4-7.5-8.7-9.8c-0.6-0.6-1.6-0.6-2.1,0c-4.5,4.5-13.9,13.8-13.9,22.8
				c0,8.2,6.7,15,15,15c8.2,0,15-6.7,15-15C321,293.4,319.2,289.1,315.8,284.3z M306,309.2c-6.6,0-11.9-5.4-11.9-11.9
				c0-3.1,1.5-6.8,4.4-10.9c2.3-3.2,5-6.1,7.6-8.7c5.6,5.7,11.9,12.9,11.9,19.6C318,303.9,312.6,309.2,306,309.2z"/>
			<path class="st1" d="M367.2,284.3c-2.9-4-6.4-7.5-8.7-9.8c-0.6-0.6-1.6-0.6-2.1,0c-4.5,4.5-13.9,13.8-13.9,22.8
				c0,8.2,6.7,15,15,15c8.2,0,15-6.7,15-15C372.4,293.4,370.7,289.1,367.2,284.3z M357.4,309.2c-6.6,0-11.9-5.4-11.9-11.9
				c0-3.1,1.5-6.8,4.4-10.9c2.3-3.2,5-6.1,7.6-8.7c5.6,5.7,11.9,12.9,11.9,19.6C369.4,303.9,364,309.2,357.4,309.2z"/>
			<path class="st1" d="M418.7,284.3c-2.9-4-6.4-7.5-8.7-9.8c-0.6-0.6-1.6-0.6-2.1,0c-4.5,4.5-13.9,13.8-13.9,22.8
				c0,8.2,6.7,15,15,15s15-6.7,15-15C423.8,293.4,422.1,289.1,418.7,284.3z M408.9,309.2c-6.6,0-11.9-5.4-11.9-11.9
				c0-3.1,1.5-6.8,4.4-10.9c2.3-3.2,5-6.1,7.6-8.7c5.6,5.7,11.9,12.9,11.9,19.6C420.8,303.9,415.5,309.2,408.9,309.2z"/>
			<path class="st1" d="M470.1,284.3c-2.9-4-6.4-7.5-8.7-9.8c-0.6-0.6-1.6-0.6-2.1,0c-4.5,4.5-13.9,13.8-13.9,22.8
				c0,8.2,6.7,15,15,15c8.2,0,15-6.7,15-15C475.3,293.4,473.5,289.1,470.1,284.3z M460.3,309.2c-6.6,0-11.9-5.4-11.9-11.9
				c0-3.1,1.5-6.8,4.4-10.9c2.3-3.2,5-6.1,7.6-8.7c5.6,5.7,11.9,12.9,11.9,19.6C472.3,303.9,466.9,309.2,460.3,309.2z"/>
		</g>
		<g>
			<path class="st1" d="M-18.5,335.8c-2.9-4-6.4-7.5-8.7-9.8c-0.6-0.6-1.6-0.6-2.1,0c-4.5,4.5-13.9,13.8-13.9,22.8
				c0,8.2,6.7,15,15,15s15-6.7,15-15C-13.4,344.9-15.1,340.5-18.5,335.8z M-28.3,360.7c-6.6,0-11.9-5.4-11.9-11.9
				c0-3.1,1.5-6.8,4.4-10.9c2.3-3.2,5-6.1,7.6-8.7c5.6,5.7,11.9,12.9,11.9,19.6C-16.4,355.3-21.7,360.7-28.3,360.7z"/>
			<path class="st1" d="M32.9,335.8c-2.9-4-6.4-7.5-8.7-9.8c-0.6-0.6-1.6-0.6-2.1,0c-4.5,4.5-13.9,13.8-13.9,22.8
				c0,8.2,6.7,15,15,15s15-6.7,15-15C38.1,344.9,36.3,340.5,32.9,335.8z M23.1,360.7c-6.6,0-11.9-5.4-11.9-11.9
				c0-3.1,1.5-6.8,4.4-10.9c2.3-3.2,5-6.1,7.6-8.7c5.6,5.7,11.9,12.9,11.9,19.6C35.1,355.3,29.7,360.7,23.1,360.7z"/>
			<path class="st1" d="M84.3,335.8c-2.9-4-6.4-7.5-8.7-9.8c-0.6-0.6-1.6-0.6-2.1,0c-4.5,4.5-13.9,13.8-13.9,22.8
				c0,8.2,6.7,15,15,15s15-6.7,15-15C89.5,344.9,87.8,340.5,84.3,335.8z M74.5,360.7c-6.6,0-11.9-5.4-11.9-11.9
				c0-3.1,1.5-6.8,4.4-10.9c2.3-3.2,5-6.1,7.6-8.7c5.6,5.7,11.9,12.9,11.9,19.6C86.5,355.3,81.1,360.7,74.5,360.7z"/>
			<path class="st1" d="M135.8,335.8c-2.9-4-6.4-7.5-8.7-9.8c-0.6-0.6-1.6-0.6-2.1,0c-4.5,4.5-13.9,13.8-13.9,22.8
				c0,8.2,6.7,15,15,15s15-6.7,15-15C140.9,344.9,139.2,340.5,135.8,335.8z M126,360.7c-6.6,0-11.9-5.4-11.9-11.9
				c0-3.1,1.5-6.8,4.4-10.9c2.3-3.2,5-6.1,7.6-8.7c5.6,5.7,11.9,12.9,11.9,19.6C137.9,355.3,132.6,360.7,126,360.7z"/>
			<path class="st1" d="M187.2,335.8c-2.9-4-6.4-7.5-8.7-9.8c-0.6-0.6-1.6-0.6-2.1,0c-4.5,4.5-13.9,13.8-13.9,22.8
				c0,8.2,6.7,15,15,15s15-6.7,15-15C192.4,344.9,190.6,340.5,187.2,335.8z M177.4,360.7c-6.6,0-11.9-5.4-11.9-11.9
				c0-3.1,1.5-6.8,4.4-10.9c2.3-3.2,5-6.1,7.6-8.7c5.6,5.7,11.9,12.9,11.9,19.6C189.4,355.3,184,360.7,177.4,360.7z"/>
			<path class="st1" d="M238.7,335.8c-2.9-4-6.4-7.5-8.7-9.8c-0.6-0.6-1.6-0.6-2.1,0c-4.5,4.5-13.9,13.8-13.9,22.8
				c0,8.2,6.7,15,15,15c8.2,0,15-6.7,15-15C243.8,344.9,242.1,340.5,238.7,335.8z M228.9,360.7c-6.6,0-11.9-5.4-11.9-11.9
				c0-3.1,1.5-6.8,4.4-10.9c2.3-3.2,5-6.1,7.6-8.7c5.6,5.7,11.9,12.9,11.9,19.6C240.8,355.3,235.4,360.7,228.9,360.7z"/>
			<path class="st1" d="M290.1,335.8c-2.9-4-6.4-7.5-8.7-9.8c-0.6-0.6-1.6-0.6-2.1,0c-4.5,4.5-13.9,13.8-13.9,22.8
				c0,8.2,6.7,15,15,15c8.2,0,15-6.7,15-15C295.3,344.9,293.5,340.5,290.1,335.8z M280.3,360.7c-6.6,0-11.9-5.4-11.9-11.9
				c0-3.1,1.5-6.8,4.4-10.9c2.3-3.2,5-6.1,7.6-8.7c5.6,5.7,11.9,12.9,11.9,19.6C292.2,355.3,286.9,360.7,280.3,360.7z"/>
			<path class="st1" d="M341.5,335.8c-2.9-4-6.4-7.5-8.7-9.8c-0.6-0.6-1.6-0.6-2.1,0c-4.5,4.5-13.9,13.8-13.9,22.8
				c0,8.2,6.7,15,15,15c8.2,0,15-6.7,15-15C346.7,344.9,345,340.5,341.5,335.8z M331.7,360.7c-6.6,0-11.9-5.4-11.9-11.9
				c0-3.1,1.5-6.8,4.4-10.9c2.3-3.2,5-6.1,7.6-8.7c5.6,5.7,11.9,12.9,11.9,19.6C343.7,355.3,338.3,360.7,331.7,360.7z"/>
			<path class="st1" d="M393,335.8c-2.9-4-6.4-7.5-8.7-9.8c-0.6-0.6-1.6-0.6-2.1,0c-4.5,4.5-13.9,13.8-13.9,22.8c0,8.2,6.7,15,15,15
				c8.2,0,15-6.7,15-15C398.1,344.9,396.4,340.5,393,335.8z M383.2,360.7c-6.6,0-11.9-5.4-11.9-11.9c0-3.1,1.5-6.8,4.4-10.9
				c2.3-3.2,5-6.1,7.6-8.7c5.6,5.7,11.9,12.9,11.9,19.6C395.1,355.3,389.8,360.7,383.2,360.7z"/>
			<path class="st1" d="M444.4,335.8c-2.9-4-6.4-7.5-8.7-9.8c-0.6-0.6-1.6-0.6-2.1,0c-4.5,4.5-13.9,13.8-13.9,22.8
				c0,8.2,6.7,15,15,15s15-6.7,15-15C449.6,344.9,447.8,340.5,444.4,335.8z M434.6,360.7c-6.6,0-11.9-5.4-11.9-11.9
				c0-3.1,1.5-6.8,4.4-10.9c2.3-3.2,5-6.1,7.6-8.7c5.6,5.7,11.9,12.9,11.9,19.6C446.5,355.3,441.2,360.7,434.6,360.7z"/>
			<path class="st1" d="M495.8,335.8c-2.9-4-6.4-7.5-8.7-9.8c-0.6-0.6-1.6-0.6-2.1,0c-4.5,4.5-13.9,13.8-13.9,22.8
				c0,8.2,6.7,15,15,15c8.2,0,15-6.7,15-15C501,344.9,499.3,340.5,495.8,335.8z M486,360.7c-6.6,0-11.9-5.4-11.9-11.9
				c0-3.1,1.5-6.8,4.4-10.9c2.3-3.2,5-6.1,7.6-8.7c5.6,5.7,11.9,12.9,11.9,19.6C498,355.3,492.6,360.7,486,360.7z"/>
		</g>
		<g>
			<path class="st1" d="M-44.2,387.2c-2.9-4-6.4-7.5-8.7-9.8c-0.6-0.6-1.6-0.6-2.1,0c-4.5,4.5-13.9,13.8-13.9,22.8
				c0,8.2,6.7,15,15,15s15-6.7,15-15C-39.1,396.3-40.8,391.9-44.2,387.2z M-54,412.1c-6.6,0-11.9-5.4-11.9-11.9
				c0-3.1,1.5-6.8,4.4-10.9c2.3-3.2,5-6.1,7.6-8.7c5.6,5.7,11.9,12.9,11.9,19.6C-42.1,406.8-47.5,412.1-54,412.1z"/>
			<path class="st1" d="M7.2,387.2c-2.9-4-6.4-7.5-8.7-9.8c-0.6-0.6-1.6-0.6-2.1,0c-4.5,4.5-13.9,13.8-13.9,22.8c0,8.2,6.7,15,15,15
				s15-6.7,15-15C12.4,396.3,10.6,391.9,7.2,387.2z M-2.6,412.1c-6.6,0-11.9-5.4-11.9-11.9c0-3.1,1.5-6.8,4.4-10.9
				c2.3-3.2,5-6.1,7.6-8.7c5.6,5.7,11.9,12.9,11.9,19.6C9.3,406.8,4,412.1-2.6,412.1z"/>
			<path class="st1" d="M58.6,387.2c-2.9-4-6.4-7.5-8.7-9.8c-0.6-0.6-1.6-0.6-2.1,0c-4.5,4.5-13.9,13.8-13.9,22.8
				c0,8.2,6.7,15,15,15s15-6.7,15-15C63.8,396.3,62.1,391.9,58.6,387.2z M48.8,412.1c-6.6,0-11.9-5.4-11.9-11.9
				c0-3.1,1.5-6.8,4.4-10.9c2.3-3.2,5-6.1,7.6-8.7c5.6,5.7,11.9,12.9,11.9,19.6C60.8,406.8,55.4,412.1,48.8,412.1z"/>
			<path class="st1" d="M110.1,387.2c-2.9-4-6.4-7.5-8.7-9.8c-0.6-0.6-1.6-0.6-2.1,0c-4.5,4.5-13.9,13.8-13.9,22.8
				c0,8.2,6.7,15,15,15s15-6.7,15-15C115.2,396.3,113.5,391.9,110.1,387.2z M100.3,412.1c-6.6,0-11.9-5.4-11.9-11.9
				c0-3.1,1.5-6.8,4.4-10.9c2.3-3.2,5-6.1,7.6-8.7c5.6,5.7,11.9,12.9,11.9,19.6C112.2,406.8,106.9,412.1,100.3,412.1z"/>
			<path class="st1" d="M161.5,387.2c-2.9-4-6.4-7.5-8.7-9.8c-0.6-0.6-1.6-0.6-2.1,0c-4.5,4.5-13.9,13.8-13.9,22.8
				c0,8.2,6.7,15,15,15s15-6.7,15-15C166.7,396.3,164.9,391.9,161.5,387.2z M151.7,412.1c-6.6,0-11.9-5.4-11.9-11.9
				c0-3.1,1.5-6.8,4.4-10.9c2.3-3.2,5-6.1,7.6-8.7c5.6,5.7,11.9,12.9,11.9,19.6C163.6,406.8,158.3,412.1,151.7,412.1z"/>
			<path class="st1" d="M212.9,387.2c-2.9-4-6.4-7.5-8.7-9.8c-0.6-0.6-1.6-0.6-2.1,0c-4.5,4.5-13.9,13.8-13.9,22.8
				c0,8.2,6.7,15,15,15s15-6.7,15-15C218.1,396.3,216.4,391.9,212.9,387.2z M203.1,412.1c-6.6,0-11.9-5.4-11.9-11.9
				c0-3.1,1.5-6.8,4.4-10.9c2.3-3.2,5-6.1,7.6-8.7c5.6,5.7,11.9,12.9,11.9,19.6C215.1,406.8,209.7,412.1,203.1,412.1z"/>
			<path class="st1" d="M264.4,387.2c-2.9-4-6.4-7.5-8.7-9.8c-0.6-0.6-1.6-0.6-2.1,0c-4.5,4.5-13.9,13.8-13.9,22.8
				c0,8.2,6.7,15,15,15c8.2,0,15-6.7,15-15C269.5,396.3,267.8,391.9,264.4,387.2z M254.6,412.1c-6.6,0-11.9-5.4-11.9-11.9
				c0-3.1,1.5-6.8,4.4-10.9c2.3-3.2,5-6.1,7.6-8.7c5.6,5.7,11.9,12.9,11.9,19.6C266.5,406.8,261.2,412.1,254.6,412.1z"/>
			<path class="st1" d="M315.8,387.2c-2.9-4-6.4-7.5-8.7-9.8c-0.6-0.6-1.6-0.6-2.1,0c-4.5,4.5-13.9,13.8-13.9,22.8
				c0,8.2,6.7,15,15,15c8.2,0,15-6.7,15-15C321,396.3,319.2,391.9,315.8,387.2z M306,412.1c-6.6,0-11.9-5.4-11.9-11.9
				c0-3.1,1.5-6.8,4.4-10.9c2.3-3.2,5-6.1,7.6-8.7c5.6,5.7,11.9,12.9,11.9,19.6C318,406.8,312.6,412.1,306,412.1z"/>
			<path class="st1" d="M367.2,387.2c-2.9-4-6.4-7.5-8.7-9.8c-0.6-0.6-1.6-0.6-2.1,0c-4.5,4.5-13.9,13.8-13.9,22.8
				c0,8.2,6.7,15,15,15c8.2,0,15-6.7,15-15C372.4,396.3,370.7,391.9,367.2,387.2z M357.4,412.1c-6.6,0-11.9-5.4-11.9-11.9
				c0-3.1,1.5-6.8,4.4-10.9c2.3-3.2,5-6.1,7.6-8.7c5.6,5.7,11.9,12.9,11.9,19.6C369.4,406.8,364,412.1,357.4,412.1z"/>
			<path class="st1" d="M418.7,387.2c-2.9-4-6.4-7.5-8.7-9.8c-0.6-0.6-1.6-0.6-2.1,0c-4.5,4.5-13.9,13.8-13.9,22.8
				c0,8.2,6.7,15,15,15s15-6.7,15-15C423.8,396.3,422.1,391.9,418.7,387.2z M408.9,412.1c-6.6,0-11.9-5.4-11.9-11.9
				c0-3.1,1.5-6.8,4.4-10.9c2.3-3.2,5-6.1,7.6-8.7c5.6,5.7,11.9,12.9,11.9,19.6C420.8,406.8,415.5,412.1,408.9,412.1z"/>
			<path class="st1" d="M470.1,387.2c-2.9-4-6.4-7.5-8.7-9.8c-0.6-0.6-1.6-0.6-2.1,0c-4.5,4.5-13.9,13.8-13.9,22.8
				c0,8.2,6.7,15,15,15c8.2,0,15-6.7,15-15C475.3,396.3,473.5,391.9,470.1,387.2z M460.3,412.1c-6.6,0-11.9-5.4-11.9-11.9
				c0-3.1,1.5-6.8,4.4-10.9c2.3-3.2,5-6.1,7.6-8.7c5.6,5.7,11.9,12.9,11.9,19.6C472.3,406.8,466.9,412.1,460.3,412.1z"/>
		</g>
		<g>
			<path class="st1" d="M-18.5,438.6c-2.9-4-6.4-7.5-8.7-9.8c-0.6-0.6-1.6-0.6-2.1,0c-4.5,4.5-13.9,13.8-13.9,22.8
				c0,8.2,6.7,15,15,15s15-6.7,15-15C-13.4,447.7-15.1,443.4-18.5,438.6z M-28.3,463.5c-6.6,0-11.9-5.4-11.9-11.9
				c0-3.1,1.5-6.8,4.4-10.9c2.3-3.2,5-6.1,7.6-8.7c5.6,5.7,11.9,12.9,11.9,19.6C-16.4,458.2-21.7,463.5-28.3,463.5z"/>
			<path class="st1" d="M32.9,438.6c-2.9-4-6.4-7.5-8.7-9.8c-0.6-0.6-1.6-0.6-2.1,0c-4.5,4.5-13.9,13.8-13.9,22.8
				c0,8.2,6.7,15,15,15s15-6.7,15-15C38.1,447.7,36.3,443.4,32.9,438.6z M23.1,463.5c-6.6,0-11.9-5.4-11.9-11.9
				c0-3.1,1.5-6.8,4.4-10.9c2.3-3.2,5-6.1,7.6-8.7c5.6,5.7,11.9,12.9,11.9,19.6C35.1,458.2,29.7,463.5,23.1,463.5z"/>
			<path class="st1" d="M84.3,438.6c-2.9-4-6.4-7.5-8.7-9.8c-0.6-0.6-1.6-0.6-2.1,0c-4.5,4.5-13.9,13.8-13.9,22.8
				c0,8.2,6.7,15,15,15s15-6.7,15-15C89.5,447.7,87.8,443.4,84.3,438.6z M74.5,463.5c-6.6,0-11.9-5.4-11.9-11.9
				c0-3.1,1.5-6.8,4.4-10.9c2.3-3.2,5-6.1,7.6-8.7c5.6,5.7,11.9,12.9,11.9,19.6C86.5,458.2,81.1,463.5,74.5,463.5z"/>
			<path class="st1" d="M135.8,438.6c-2.9-4-6.4-7.5-8.7-9.8c-0.6-0.6-1.6-0.6-2.1,0c-4.5,4.5-13.9,13.8-13.9,22.8
				c0,8.2,6.7,15,15,15s15-6.7,15-15C140.9,447.7,139.2,443.4,135.8,438.6z M126,463.5c-6.6,0-11.9-5.4-11.9-11.9
				c0-3.1,1.5-6.8,4.4-10.9c2.3-3.2,5-6.1,7.6-8.7c5.6,5.7,11.9,12.9,11.9,19.6C137.9,458.2,132.6,463.5,126,463.5z"/>
			<path class="st1" d="M187.2,438.6c-2.9-4-6.4-7.5-8.7-9.8c-0.6-0.6-1.6-0.6-2.1,0c-4.5,4.5-13.9,13.8-13.9,22.8
				c0,8.2,6.7,15,15,15s15-6.7,15-15C192.4,447.7,190.6,443.4,187.2,438.6z M177.4,463.5c-6.6,0-11.9-5.4-11.9-11.9
				c0-3.1,1.5-6.8,4.4-10.9c2.3-3.2,5-6.1,7.6-8.7c5.6,5.7,11.9,12.9,11.9,19.6C189.4,458.2,184,463.5,177.4,463.5z"/>
			<path class="st1" d="M238.7,438.6c-2.9-4-6.4-7.5-8.7-9.8c-0.6-0.6-1.6-0.6-2.1,0c-4.5,4.5-13.9,13.8-13.9,22.8
				c0,8.2,6.7,15,15,15c8.2,0,15-6.7,15-15C243.8,447.7,242.1,443.4,238.7,438.6z M228.9,463.5c-6.6,0-11.9-5.4-11.9-11.9
				c0-3.1,1.5-6.8,4.4-10.9c2.3-3.2,5-6.1,7.6-8.7c5.6,5.7,11.9,12.9,11.9,19.6C240.8,458.2,235.4,463.5,228.9,463.5z"/>
			<path class="st1" d="M290.1,438.6c-2.9-4-6.4-7.5-8.7-9.8c-0.6-0.6-1.6-0.6-2.1,0c-4.5,4.5-13.9,13.8-13.9,22.8
				c0,8.2,6.7,15,15,15c8.2,0,15-6.7,15-15C295.3,447.7,293.5,443.4,290.1,438.6z M280.3,463.5c-6.6,0-11.9-5.4-11.9-11.9
				c0-3.1,1.5-6.8,4.4-10.9c2.3-3.2,5-6.1,7.6-8.7c5.6,5.7,11.9,12.9,11.9,19.6C292.2,458.2,286.9,463.5,280.3,463.5z"/>
			<path class="st1" d="M341.5,438.6c-2.9-4-6.4-7.5-8.7-9.8c-0.6-0.6-1.6-0.6-2.1,0c-4.5,4.5-13.9,13.8-13.9,22.8
				c0,8.2,6.7,15,15,15c8.2,0,15-6.7,15-15C346.7,447.7,345,443.4,341.5,438.6z M331.7,463.5c-6.6,0-11.9-5.4-11.9-11.9
				c0-3.1,1.5-6.8,4.4-10.9c2.3-3.2,5-6.1,7.6-8.7c5.6,5.7,11.9,12.9,11.9,19.6C343.7,458.2,338.3,463.5,331.7,463.5z"/>
			<path class="st1" d="M393,438.6c-2.9-4-6.4-7.5-8.7-9.8c-0.6-0.6-1.6-0.6-2.1,0c-4.5,4.5-13.9,13.8-13.9,22.8c0,8.2,6.7,15,15,15
				c8.2,0,15-6.7,15-15C398.1,447.7,396.4,443.4,393,438.6z M383.2,463.5c-6.6,0-11.9-5.4-11.9-11.9c0-3.1,1.5-6.8,4.4-10.9
				c2.3-3.2,5-6.1,7.6-8.7c5.6,5.7,11.9,12.9,11.9,19.6C395.1,458.2,389.8,463.5,383.2,463.5z"/>
			<path class="st1" d="M444.4,438.6c-2.9-4-6.4-7.5-8.7-9.8c-0.6-0.6-1.6-0.6-2.1,0c-4.5,4.5-13.9,13.8-13.9,22.8
				c0,8.2,6.7,15,15,15s15-6.7,15-15C449.6,447.7,447.8,443.4,444.4,438.6z M434.6,463.5c-6.6,0-11.9-5.4-11.9-11.9
				c0-3.1,1.5-6.8,4.4-10.9c2.3-3.2,5-6.1,7.6-8.7c5.6,5.7,11.9,12.9,11.9,19.6C446.5,458.2,441.2,463.5,434.6,463.5z"/>
			<path class="st1" d="M495.8,438.6c-2.9-4-6.4-7.5-8.7-9.8c-0.6-0.6-1.6-0.6-2.1,0c-4.5,4.5-13.9,13.8-13.9,22.8
				c0,8.2,6.7,15,15,15c8.2,0,15-6.7,15-15C501,447.7,499.3,443.4,495.8,438.6z M486,463.5c-6.6,0-11.9-5.4-11.9-11.9
				c0-3.1,1.5-6.8,4.4-10.9c2.3-3.2,5-6.1,7.6-8.7c5.6,5.7,11.9,12.9,11.9,19.6C498,458.2,492.6,463.5,486,463.5z"/>
		</g>
		<g>
			<path class="st1" d="M-44.2,490.1c-2.9-4-6.4-7.5-8.7-9.8c-0.6-0.6-1.6-0.6-2.1,0C-59.6,484.7-69,494-69,503c0,8.2,6.7,15,15,15
				s15-6.7,15-15C-39.1,499.2-40.8,494.8-44.2,490.1z M-54,515c-6.6,0-11.9-5.4-11.9-11.9c0-3.1,1.5-6.8,4.4-10.9
				c2.3-3.2,5-6.1,7.6-8.7c5.6,5.7,11.9,12.9,11.9,19.6C-42.1,509.6-47.5,515-54,515z"/>
			<path class="st1" d="M7.2,490.1c-2.9-4-6.4-7.5-8.7-9.8c-0.6-0.6-1.6-0.6-2.1,0c-4.5,4.5-13.9,13.8-13.9,22.8c0,8.2,6.7,15,15,15
				s15-6.7,15-15C12.4,499.2,10.6,494.8,7.2,490.1z M-2.6,515c-6.6,0-11.9-5.4-11.9-11.9c0-3.1,1.5-6.8,4.4-10.9
				c2.3-3.2,5-6.1,7.6-8.7C3,489.1,9.3,496.4,9.3,503C9.3,509.6,4,515-2.6,515z"/>
			<path class="st1" d="M58.6,490.1c-2.9-4-6.4-7.5-8.7-9.8c-0.6-0.6-1.6-0.6-2.1,0c-4.5,4.5-13.9,13.8-13.9,22.8
				c0,8.2,6.7,15,15,15s15-6.7,15-15C63.8,499.2,62.1,494.8,58.6,490.1z M48.8,515c-6.6,0-11.9-5.4-11.9-11.9
				c0-3.1,1.5-6.8,4.4-10.9c2.3-3.2,5-6.1,7.6-8.7c5.6,5.7,11.9,12.9,11.9,19.6C60.8,509.6,55.4,515,48.8,515z"/>
			<path class="st1" d="M110.1,490.1c-2.9-4-6.4-7.5-8.7-9.8c-0.6-0.6-1.6-0.6-2.1,0c-4.5,4.5-13.9,13.8-13.9,22.8
				c0,8.2,6.7,15,15,15s15-6.7,15-15C115.2,499.2,113.5,494.8,110.1,490.1z M100.3,515c-6.6,0-11.9-5.4-11.9-11.9
				c0-3.1,1.5-6.8,4.4-10.9c2.3-3.2,5-6.1,7.6-8.7c5.6,5.7,11.9,12.9,11.9,19.6C112.2,509.6,106.9,515,100.3,515z"/>
			<path class="st1" d="M161.5,490.1c-2.9-4-6.4-7.5-8.7-9.8c-0.6-0.6-1.6-0.6-2.1,0c-4.5,4.5-13.9,13.8-13.9,22.8
				c0,8.2,6.7,15,15,15s15-6.7,15-15C166.7,499.2,164.9,494.8,161.5,490.1z M151.7,515c-6.6,0-11.9-5.4-11.9-11.9
				c0-3.1,1.5-6.8,4.4-10.9c2.3-3.2,5-6.1,7.6-8.7c5.6,5.7,11.9,12.9,11.9,19.6C163.6,509.6,158.3,515,151.7,515z"/>
			<path class="st1" d="M212.9,490.1c-2.9-4-6.4-7.5-8.7-9.8c-0.6-0.6-1.6-0.6-2.1,0c-4.5,4.5-13.9,13.8-13.9,22.8
				c0,8.2,6.7,15,15,15s15-6.7,15-15C218.1,499.2,216.4,494.8,212.9,490.1z M203.1,515c-6.6,0-11.9-5.4-11.9-11.9
				c0-3.1,1.5-6.8,4.4-10.9c2.3-3.2,5-6.1,7.6-8.7c5.6,5.7,11.9,12.9,11.9,19.6C215.1,509.6,209.7,515,203.1,515z"/>
			<path class="st1" d="M264.4,490.1c-2.9-4-6.4-7.5-8.7-9.8c-0.6-0.6-1.6-0.6-2.1,0c-4.5,4.5-13.9,13.8-13.9,22.8
				c0,8.2,6.7,15,15,15c8.2,0,15-6.7,15-15C269.5,499.2,267.8,494.8,264.4,490.1z M254.6,515c-6.6,0-11.9-5.4-11.9-11.9
				c0-3.1,1.5-6.8,4.4-10.9c2.3-3.2,5-6.1,7.6-8.7c5.6,5.7,11.9,12.9,11.9,19.6C266.5,509.6,261.2,515,254.6,515z"/>
			<path class="st1" d="M315.8,490.1c-2.9-4-6.4-7.5-8.7-9.8c-0.6-0.6-1.6-0.6-2.1,0c-4.5,4.5-13.9,13.8-13.9,22.8
				c0,8.2,6.7,15,15,15c8.2,0,15-6.7,15-15C321,499.2,319.2,494.8,315.8,490.1z M306,515c-6.6,0-11.9-5.4-11.9-11.9
				c0-3.1,1.5-6.8,4.4-10.9c2.3-3.2,5-6.1,7.6-8.7c5.6,5.7,11.9,12.9,11.9,19.6C318,509.6,312.6,515,306,515z"/>
			<path class="st1" d="M367.2,490.1c-2.9-4-6.4-7.5-8.7-9.8c-0.6-0.6-1.6-0.6-2.1,0c-4.5,4.5-13.9,13.8-13.9,22.8
				c0,8.2,6.7,15,15,15c8.2,0,15-6.7,15-15C372.4,499.2,370.7,494.8,367.2,490.1z M357.4,515c-6.6,0-11.9-5.4-11.9-11.9
				c0-3.1,1.5-6.8,4.4-10.9c2.3-3.2,5-6.1,7.6-8.7c5.6,5.7,11.9,12.9,11.9,19.6C369.4,509.6,364,515,357.4,515z"/>
			<path class="st1" d="M418.7,490.1c-2.9-4-6.4-7.5-8.7-9.8c-0.6-0.6-1.6-0.6-2.1,0c-4.5,4.5-13.9,13.8-13.9,22.8
				c0,8.2,6.7,15,15,15s15-6.7,15-15C423.8,499.2,422.1,494.8,418.7,490.1z M408.9,515c-6.6,0-11.9-5.4-11.9-11.9
				c0-3.1,1.5-6.8,4.4-10.9c2.3-3.2,5-6.1,7.6-8.7c5.6,5.7,11.9,12.9,11.9,19.6C420.8,509.6,415.5,515,408.9,515z"/>
			<path class="st1" d="M470.1,490.1c-2.9-4-6.4-7.5-8.7-9.8c-0.6-0.6-1.6-0.6-2.1,0c-4.5,4.5-13.9,13.8-13.9,22.8
				c0,8.2,6.7,15,15,15c8.2,0,15-6.7,15-15C475.3,499.2,473.5,494.8,470.1,490.1z M460.3,515c-6.6,0-11.9-5.4-11.9-11.9
				c0-3.1,1.5-6.8,4.4-10.9c2.3-3.2,5-6.1,7.6-8.7c5.6,5.7,11.9,12.9,11.9,19.6C472.3,509.6,466.9,515,460.3,515z"/>
		</g>
		<g>
			<path class="st1" d="M-18.5,541.5c-2.9-4-6.4-7.5-8.7-9.8c-0.6-0.6-1.6-0.6-2.1,0c-4.5,4.5-13.9,13.8-13.9,22.8
				c0,8.2,6.7,15,15,15s15-6.7,15-15C-13.4,550.6-15.1,546.3-18.5,541.5z M-28.3,566.4c-6.6,0-11.9-5.4-11.9-11.9
				c0-3.1,1.5-6.8,4.4-10.9c2.3-3.2,5-6.1,7.6-8.7c5.6,5.7,11.9,12.9,11.9,19.6C-16.4,561.1-21.7,566.4-28.3,566.4z"/>
			<path class="st1" d="M32.9,541.5c-2.9-4-6.4-7.5-8.7-9.8c-0.6-0.6-1.6-0.6-2.1,0c-4.5,4.5-13.9,13.8-13.9,22.8
				c0,8.2,6.7,15,15,15s15-6.7,15-15C38.1,550.6,36.3,546.3,32.9,541.5z M23.1,566.4c-6.6,0-11.9-5.4-11.9-11.9
				c0-3.1,1.5-6.8,4.4-10.9c2.3-3.2,5-6.1,7.6-8.7c5.6,5.7,11.9,12.9,11.9,19.6C35.1,561.1,29.7,566.4,23.1,566.4z"/>
			<path class="st1" d="M84.3,541.5c-2.9-4-6.4-7.5-8.7-9.8c-0.6-0.6-1.6-0.6-2.1,0c-4.5,4.5-13.9,13.8-13.9,22.8
				c0,8.2,6.7,15,15,15s15-6.7,15-15C89.5,550.6,87.8,546.3,84.3,541.5z M74.5,566.4c-6.6,0-11.9-5.4-11.9-11.9
				c0-3.1,1.5-6.8,4.4-10.9c2.3-3.2,5-6.1,7.6-8.7c5.6,5.7,11.9,12.9,11.9,19.6C86.5,561.1,81.1,566.4,74.5,566.4z"/>
			<path class="st1" d="M135.8,541.5c-2.9-4-6.4-7.5-8.7-9.8c-0.6-0.6-1.6-0.6-2.1,0c-4.5,4.5-13.9,13.8-13.9,22.8
				c0,8.2,6.7,15,15,15s15-6.7,15-15C140.9,550.6,139.2,546.3,135.8,541.5z M126,566.4c-6.6,0-11.9-5.4-11.9-11.9
				c0-3.1,1.5-6.8,4.4-10.9c2.3-3.2,5-6.1,7.6-8.7c5.6,5.7,11.9,12.9,11.9,19.6C137.9,561.1,132.6,566.4,126,566.4z"/>
			<path class="st1" d="M187.2,541.5c-2.9-4-6.4-7.5-8.7-9.8c-0.6-0.6-1.6-0.6-2.1,0c-4.5,4.5-13.9,13.8-13.9,22.8
				c0,8.2,6.7,15,15,15s15-6.7,15-15C192.4,550.6,190.6,546.3,187.2,541.5z M177.4,566.4c-6.6,0-11.9-5.4-11.9-11.9
				c0-3.1,1.5-6.8,4.4-10.9c2.3-3.2,5-6.1,7.6-8.7c5.6,5.7,11.9,12.9,11.9,19.6C189.4,561.1,184,566.4,177.4,566.4z"/>
			<path class="st1" d="M238.7,541.5c-2.9-4-6.4-7.5-8.7-9.8c-0.6-0.6-1.6-0.6-2.1,0c-4.5,4.5-13.9,13.8-13.9,22.8
				c0,8.2,6.7,15,15,15c8.2,0,15-6.7,15-15C243.8,550.6,242.1,546.3,238.7,541.5z M228.9,566.4c-6.6,0-11.9-5.4-11.9-11.9
				c0-3.1,1.5-6.8,4.4-10.9c2.3-3.2,5-6.1,7.6-8.7c5.6,5.7,11.9,12.9,11.9,19.6C240.8,561.1,235.4,566.4,228.9,566.4z"/>
			<path class="st1" d="M290.1,541.5c-2.9-4-6.4-7.5-8.7-9.8c-0.6-0.6-1.6-0.6-2.1,0c-4.5,4.5-13.9,13.8-13.9,22.8
				c0,8.2,6.7,15,15,15c8.2,0,15-6.7,15-15C295.3,550.6,293.5,546.3,290.1,541.5z M280.3,566.4c-6.6,0-11.9-5.4-11.9-11.9
				c0-3.1,1.5-6.8,4.4-10.9c2.3-3.2,5-6.1,7.6-8.7c5.6,5.7,11.9,12.9,11.9,19.6C292.2,561.1,286.9,566.4,280.3,566.4z"/>
			<path class="st1" d="M341.5,541.5c-2.9-4-6.4-7.5-8.7-9.8c-0.6-0.6-1.6-0.6-2.1,0c-4.5,4.5-13.9,13.8-13.9,22.8
				c0,8.2,6.7,15,15,15c8.2,0,15-6.7,15-15C346.7,550.6,345,546.3,341.5,541.5z M331.7,566.4c-6.6,0-11.9-5.4-11.9-11.9
				c0-3.1,1.5-6.8,4.4-10.9c2.3-3.2,5-6.1,7.6-8.7c5.6,5.7,11.9,12.9,11.9,19.6C343.7,561.1,338.3,566.4,331.7,566.4z"/>
			<path class="st1" d="M393,541.5c-2.9-4-6.4-7.5-8.7-9.8c-0.6-0.6-1.6-0.6-2.1,0c-4.5,4.5-13.9,13.8-13.9,22.8c0,8.2,6.7,15,15,15
				c8.2,0,15-6.7,15-15C398.1,550.6,396.4,546.3,393,541.5z M383.2,566.4c-6.6,0-11.9-5.4-11.9-11.9c0-3.1,1.5-6.8,4.4-10.9
				c2.3-3.2,5-6.1,7.6-8.7c5.6,5.7,11.9,12.9,11.9,19.6C395.1,561.1,389.8,566.4,383.2,566.4z"/>
			<path class="st1" d="M444.4,541.5c-2.9-4-6.4-7.5-8.7-9.8c-0.6-0.6-1.6-0.6-2.1,0c-4.5,4.5-13.9,13.8-13.9,22.8
				c0,8.2,6.7,15,15,15s15-6.7,15-15C449.6,550.6,447.8,546.3,444.4,541.5z M434.6,566.4c-6.6,0-11.9-5.4-11.9-11.9
				c0-3.1,1.5-6.8,4.4-10.9c2.3-3.2,5-6.1,7.6-8.7c5.6,5.7,11.9,12.9,11.9,19.6C446.5,561.1,441.2,566.4,434.6,566.4z"/>
			<path class="st1" d="M495.8,541.5c-2.9-4-6.4-7.5-8.7-9.8c-0.6-0.6-1.6-0.6-2.1,0c-4.5,4.5-13.9,13.8-13.9,22.8
				c0,8.2,6.7,15,15,15c8.2,0,15-6.7,15-15C501,550.6,499.3,546.3,495.8,541.5z M486,566.4c-6.6,0-11.9-5.4-11.9-11.9
				c0-3.1,1.5-6.8,4.4-10.9c2.3-3.2,5-6.1,7.6-8.7c5.6,5.7,11.9,12.9,11.9,19.6C498,561.1,492.6,566.4,486,566.4z"/>
		</g>
	</g>
	<g>
		<path class="st2" d="M163.9,182.6c-0.6-1.8-1.4-3.4-2.4-4.9c-1.1-1.5-2.4-2.9-4-4.1c-1.6-1.2-3.5-2.2-5.8-2.9
			c-2.2-0.7-4.8-1.2-7.7-1.4c-2.9-0.2-6.2-0.1-9.9,0.4c-2,0.3-3.9,0.7-5.7,1.2c-1.8,0.5-3.6,1.2-5.1,2c-1.6,0.8-3,1.8-4.2,2.9
			c-1.2,1.1-2.3,2.3-3.1,3.7c-0.8,1.4-1.3,2.9-1.6,4.6c-0.3,1.7-0.3,3.5,0.1,5.5c0.4,2,1,3,2,2.8c0.7-0.1,1.4-0.9,2.3-2.3
			c0.8-1.4,1.9-3.4,3.1-5.9c0.5-1,1.2-1.9,2.3-2.8c1.1-0.8,2.4-1.6,3.9-2.3c1.5-0.7,3.1-1.2,4.9-1.7c1.8-0.5,3.6-0.8,5.5-1.1
			c2.5-0.3,4.9-0.3,7.1,0.1c2.2,0.4,4.1,1.2,5.8,2.3c1.7,1.1,3,2.6,4,4.4c1,1.8,1.7,3.9,1.9,6.2c0.2,1.9,0.2,3.9-0.1,6.1
			c-0.3,2.1-0.8,4.2-1.4,6.3c-0.7,2.1-1.6,4.1-2.6,6c-1.1,1.9-2.3,3.7-3.7,5.2c-1.4,1.5-3,2.8-4.8,3.9c-1.8,1-3.7,1.7-5.7,2
			c-0.7,0.1-1.2,0.1-1.7,0c-0.4-0.1-0.8-0.2-1-0.5c-0.2-0.3-0.4-0.7-0.5-1.2c-0.1-0.5-0.2-1.1-0.4-1.9c-0.1-0.7-0.2-1.4-0.2-2.2
			c-0.1-0.8-0.1-1.6-0.1-2.7c0-1,0-2.2,0-3.6c0-1.4,0-3,0.1-4.9c0-1.7,0-3.5,0.1-5.3c0-1.8,0.2-3.6,0.4-5.4c0.2-1.8,0.6-3.5,1-5.1
			c0.5-1.6,2-3.9,2-4.5c-0.1-0.8-2.8-2.2-4.4-1.9c-1.3,0.2-3.1,0.9-4,2.1c-1.5,1.9-2.4,5.6-3,8.8c-0.6,3.2-0.9,6.5-0.9,10
			c0,3.4,0.2,6.9,0.6,10.5c0.4,3.6,0.9,7,1.4,10.4c0.1,0.3,0.1,0.6,0.2,0.8c0.1,0.2,0.1,0.4,0.2,0.5c0.1,0.1,0.2,0.3,0.4,0.3
			c0.2,0.1,0.4,0.1,0.7,0.2c0.6,0.1,1.5,0.4,2.4,0.6c0.9,0.2,1.8,0.3,2.8,0.4c1,0.1,2,0.2,3,0.2c1,0,2-0.1,3-0.2
			c2.8-0.4,5.4-1.2,7.8-2.4c2.3-1.2,4.5-2.8,6.3-4.6c1.9-1.8,3.5-3.9,4.9-6.3c1.4-2.3,2.5-4.8,3.4-7.4c0.9-2.6,1.5-5.2,1.9-7.9
			c0.4-2.7,0.4-5.3,0.2-7.9C164.8,186.2,164.5,184.4,163.9,182.6z"/>
		<path class="st2" d="M203.8,184c1.1,0,2.1-0.2,2.9-0.5c0.8-0.3,1.4-0.8,2-1.3c0.5-0.5,0.9-1.1,1.1-1.8c0.2-0.7,0.3-1.3,0.3-2
			c0-0.8-0.2-1.4-0.5-2c-0.3-0.5-0.7-1-1.2-1.3c-0.5-0.3-1.1-0.6-1.8-0.7c-0.7-0.2-1.4-0.2-2.2-0.2c-1.2,0-2.3,0.2-3.1,0.6
			c-0.8,0.4-1.5,0.8-2,1.4c-0.5,0.5-0.8,1.1-1,1.7c-0.2,0.6-0.3,1.1-0.3,1.6c0,1.4,0.5,2.5,1.5,3.4
			C200.4,183.7,201.8,184.1,203.8,184z"/>
		<path class="st2" d="M315,211.3c-0.9,0.6-2.1,1.3-3.4,2c-1.3,0.7-2.7,1.3-4.1,1.8c-1.4,0.5-2.9,0.9-4.3,1.2
			c-1.5,0.3-2.8,0.3-4,0.2c-0.4-0.1-0.8-0.1-1.1-0.3c-0.3-0.1-0.6-0.3-0.9-0.6c-0.3-0.2-0.6-0.6-0.8-1c-0.3-0.4-0.8-1.4-0.7-1.5
			c0.1-0.2,3.7-0.7,5.3-1.3c1.7-0.6,3.2-1.4,4.5-2.4c1.3-0.9,2.4-2,3.2-3.1c0.8-1.2,1.4-2.4,1.6-3.6c0.2-1.2,0.1-2.2-0.2-3.2
			c-0.3-1-0.8-1.9-1.4-2.7c-0.7-0.8-1.5-1.4-2.5-1.9c-1-0.5-2.1-0.9-3.3-1c-1.5-0.2-2.9-0.1-4.2,0.2c-1.3,0.3-2.5,0.9-3.6,1.6
			c-1.1,0.7-2.1,1.6-2.9,2.6c-0.9,1-1.6,2.1-2.2,3.3c-0.6,1.2-1.1,2.4-1.5,3.6c-0.4,1.2-0.6,2.4-0.8,3.6c-0.1,0.5-0.1,1-0.1,1.5
			c-0.5,0.2-0.9,0.5-1.4,0.7c-0.6,0.3-1.2,0.6-1.9,0.9c-0.6,0.3-1.3,0.5-1.9,0.7c-0.6,0.2-1.2,0.4-1.7,0.5c-0.5,0.1-1,0.1-1.4,0.1
			c-0.2,0-0.3-0.2-0.5-0.4c-0.2-0.3-0.3-0.6-0.4-1c-0.1-0.4-0.2-0.9-0.3-1.4s-0.1-1,0-1.6c0-0.2,0-0.3,0-0.4
			c0.1-0.4,0.2-0.8,0.4-1.2c0.1-0.4,0.3-0.8,0.4-1.2c0.1-0.4,0.3-0.7,0.4-1c0.2-0.3,0.3-0.6,0.4-0.8c1.2-1.7,2.4-3.5,3.7-5.3
			c1.3-1.8,2.7-3.6,4-5.5c1.4-1.9,2.7-3.7,4-5.6c1.3-1.9,2.5-3.8,3.5-5.7c1.1-1.9,2-3.8,2.7-5.7c0.7-1.9,1.2-3.8,1.5-5.7
			c0.1-0.9,0.1-1.7,0.1-2.5c0-0.8-0.2-1.6-0.5-2.3c-0.3-0.7-0.7-1.3-1.3-1.8c-0.6-0.5-1.4-0.8-2.3-0.9c-1.4-0.2-2.9,0-4.3,0.7
			c-1.5,0.6-2.9,1.5-4.3,2.7c-1.4,1.2-2.8,2.7-4.1,4.4c-1.3,1.7-2.6,3.6-3.8,5.6c-1.2,2-2.2,4.1-3.2,6.3c-1,2.2-1.8,4.4-2.6,6.6
			c-0.7,2.2-1.4,4.4-1.8,6.5c-0.5,2.1-0.8,4.1-0.9,5.9c-0.1,1.4-0.2,2.7-0.1,4c-0.3,0.2-0.7,0.5-1,0.7c-0.9,0.5-1.7,1-2.5,1.4
			c-0.8,0.4-1.6,0.8-2.5,1.2c-0.8,0.3-2.4,1.1-2.4,1.1c0,0,1.3-1.8,1.7-2.6c0.5-0.8,0.8-1.7,1.1-2.6c0.3-0.9,0.5-1.8,0.7-2.7
			c0.2-0.9,0.3-1.9,0.4-2.9c0.1-1.2,0-2.5-0.3-3.6c-0.3-1.2-0.7-2.2-1.3-3.2c-0.6-0.9-1.4-1.7-2.4-2.3c-1-0.6-2.1-0.9-3.4-1
			c-1-0.1-2,0.3-3.1,1.1c-1.1,0.8-2.2,1.9-3.5,3.3c-0.2-0.1-0.3-0.2-0.5-0.4c1.6-1.7,3.2-3.4,4.9-5.3c1.7-1.9,3.2-3.8,4.6-5.8
			c1.4-2,2.6-4,3.5-6c0.9-2,1.5-4,1.6-5.9c0.1-1.4,0.1-2.7,0-3.9c-0.1-1.2-0.4-2.3-0.9-3.3c-0.5-1-1.2-1.7-2.3-2.3
			c-1-0.6-2.4-1-4.1-1.1c-1.5-0.1-3,0.4-4.4,1.4c-1.4,1.1-2.7,2.5-3.9,4.3c-1.2,1.8-2.3,3.9-3.3,6.2c-1,2.3-1.9,4.8-2.8,7.3
			c-0.8,2.5-1.5,5-2.2,7.4c-0.6,2.4-1.1,4.7-1.6,6.7c-0.6,3-1.1,5.7-1.5,8.1c-0.2,1.5-0.4,2.8-0.6,4c-0.6,0.4-1.2,0.8-1.7,1.1
			c-0.8,0.5-1.6,0.9-2.4,1.3c-0.8,0.4-2.3,1.2-2.3,1.2c0,0,1.2-1.8,1.6-2.7c0.4-0.9,0.7-1.8,1-2.6c0.2-0.9,0.4-1.8,0.5-2.7
			c0.1-0.9,0.2-1.9,0.2-3c0-1.2-0.1-2.5-0.4-3.6c-0.3-1.2-0.8-2.2-1.5-3.1c-0.7-0.9-1.5-1.6-2.5-2.2c-1-0.6-2.1-0.8-3.4-0.9
			c-1,0-2,0.4-3,1.3c-1,0.9-2.1,2-3.3,3.4c-0.2-0.1-0.3-0.2-0.5-0.3c1.5-1.7,3-3.6,4.6-5.5c1.6-2,3-3.9,4.3-6c1.3-2,2.4-4.1,3.2-6.1
			c0.8-2.1,1.3-4.1,1.3-6c0-1.4,0-2.7-0.2-3.9c-0.2-1.2-0.5-2.3-1-3.2c-0.5-0.9-1.3-1.7-2.4-2.2c-1-0.6-2.4-0.8-4.2-0.9
			c-1.5,0-3,0.5-4.3,1.7c-1.3,1.1-2.6,2.6-3.7,4.5c-1.1,1.9-2.1,4-3,6.4c-0.9,2.4-1.7,4.9-2.4,7.4c-0.7,2.5-1.3,5-1.8,7.5
			c-0.5,2.5-0.9,4.7-1.2,6.7c-0.5,3-0.8,5.8-1.1,8.2c-0.3,2.5-0.5,4.6-0.6,6.4c0,0.5-0.1,1.1-0.2,1.7c0,0-0.1,0-0.1,0.1
			c-0.9,0.7-1.8,1.4-2.8,1.9c-0.9,0.5-1.7,0.8-2.5,0.8c-0.6,0-1.1-0.2-1.3-0.8c-0.2-0.5-0.4-1.3-0.4-2.2c0-0.9,0-2,0.2-3.2
			c0.2-1.2,0.4-2.4,0.7-3.6c0.3-1.2,0.6-2.5,0.9-3.7c0.3-1.2,0.6-2.4,0.9-3.5c0.3-1.1,0.5-2.1,0.7-2.9c0.2-0.9,0.3-1.5,0.3-2
			c0-0.5-0.2-1-0.5-1.3c-0.3-0.3-1-0.5-1.9-0.4c-0.5,0-1.1,0.1-1.7,0.2c-0.6,0.1-1.2,0.3-1.8,0.6c-0.6,0.3-1.1,0.6-1.5,1
			c-0.4,0.4-0.7,0.9-0.9,1.4c-0.3,1.5-0.7,3.2-1.1,5.1c-0.3,1.3-0.6,2.6-0.8,3.9c-0.8,0.5-1.6,0.9-2.5,1.4c-1,0.5-2,0.7-2.9,0.8
			c-0.3,0-0.7,0-1-0.1c-0.3-0.1-0.6-0.3-0.9-0.6c-0.3-0.3-0.5-0.7-0.7-1.2c-0.2-0.5-0.3-1.1-0.3-1.8c0-0.4,0-1,0.1-1.6
			c0.1-0.7,0.2-1.3,0.2-2c0.1-0.7,0.2-1.4,0.2-2c0.1-0.6,0.1-1.1,0.1-1.5c0-0.5-0.1-0.8-0.3-1.2c-0.2-0.3-0.4-0.6-0.7-0.9
			c-0.3-0.2-0.7-0.4-1.1-0.5c-0.4-0.1-0.8-0.2-1.2-0.1c-1.2,0.1-2.2,0.4-3.1,1.1c-0.9,0.7-1.6,1.5-2.3,2.4c-0.7,0.9-1.2,1.9-1.7,3
			c-0.5,1.1-0.9,2-1.2,2.8c-0.1,0-0.2,0-0.4,0c-0.1-1-0.2-2.1-0.3-3.2c-0.1-1.1-0.1-2-0.2-2.7c0-0.6-0.1-1.1-0.2-1.5
			c-0.1-0.4-0.2-0.6-0.3-0.8c-0.2-0.2-0.4-0.3-0.7-0.3c-0.3,0-0.8,0-1.3,0c-0.5,0-0.9,0.1-1.2,0.2c-0.3,0.1-0.6,0.2-0.8,0.4
			c-0.2,0.2-0.4,0.4-0.5,0.7c-0.2,0.3-0.3,0.7-0.4,1.1c-0.2,0.7-0.4,1.6-0.6,2.6c-0.2,1.1-0.4,2.2-0.5,3.5c-0.2,1.3-0.3,2.6-0.4,4
			c-0.1,1.4-0.2,2.8-0.3,4.1c-0.1,1.3-0.1,2.6-0.1,3.8c0,1.2,0,2.3,0.1,3.2c0.1,0.8,0.2,1.6,0.4,2.4c0.2,0.8,0.4,1.4,0.7,2
			c0.3,0.6,0.8,1,1.3,1.3c0.5,0.3,1.2,0.4,2.1,0.4c0.4,0,0.7-0.1,1-0.3c0.3-0.2,0.6-0.4,0.8-0.8c0.2-0.3,0.5-0.8,0.7-1.3
			c0.2-0.5,0.4-1.2,0.7-2c1.8-6.3,2.7-9.4,4.5-15.7c0.2,0,0.3,0,0.5,0c0.3,1.3,0.6,2.5,0.9,3.8c0.4,1.2,0.9,2.3,1.5,3.3
			c0.6,1,1.4,1.7,2.4,2.3c1,0.6,2.3,0.8,3.9,0.7c0.9,0,1.7-0.2,2.6-0.5c0.8-0.3,1.5-0.6,2.2-1c-0.2,1.5-0.2,2.8-0.2,3.9
			c0,0.9,0.2,1.8,0.4,2.5c0.2,0.8,0.6,1.4,1.1,1.9c0.5,0.5,1.1,0.9,1.8,1.2c0.7,0.3,1.7,0.4,2.7,0.3c1.2,0,2.5-0.3,3.8-0.8
			c1.3-0.5,2.6-1,3.9-1.7c0.9-0.5,1.7-1,2.5-1.5c1,0.5,10.2,6,19.5,0.8c0.9-0.5,2.8-0.6,4.2-1c1.3-0.4,2.6-0.8,3.8-1.4
			c0.2-0.1,0.5-0.2,0.7-0.3c0,0.5-0.1,1,0.1,1.2c0,0,8.8,7.3,20.8,2.8c1-0.4,2.9-0.5,4.2-0.8c1.3-0.3,2.6-0.7,3.9-1.2
			c1.2-0.5,2.5-1,3.7-1.7c0.2-0.1,0.5-0.3,0.7-0.4c0.2,0.9,0.4,1.8,0.7,2.7c0.6,1.7,1.3,3.1,2.1,4.1c0.9,1.1,1.9,1.6,3,1.8
			c0.7,0.1,1.5,0.1,2.3-0.1c0.8-0.1,1.7-0.3,2.6-0.5c0.9-0.2,1.8-0.5,2.6-0.8c0.9-0.3,1.7-0.6,2.6-1c0.8-0.3,1.6-0.7,2.4-1.1
			c0.2,0.4,0.4,0.7,0.6,1c0.8,1.3,1.9,2.4,3.3,3.3c1.4,0.9,3,1.5,4.9,1.7c1.2,0.2,2.5,0.2,3.7,0.1c1.2-0.1,2.5-0.3,3.6-0.6
			c1.2-0.3,2.3-0.6,3.4-1.1c1.1-0.4,2.2-0.9,3.1-1.3c2.3-1.1,4.5-2.4,6.6-3.9C317.1,214.2,316.4,213.2,315,211.3z M280.2,189.8
			c0.5-2,1.1-4,1.9-5.9c0.7-1.9,1.5-3.7,2.4-5.3c0.9-1.7,1.7-3.1,2.6-4.3c0.9-1.2,1.8-2.2,2.6-2.8c0.8-0.7,1.6-1,2.2-0.9
			c0.2,0,0.3,0.2,0.2,0.7c0,0.4,0,1-0.1,1.5c-0.3,1.7-1.1,3.8-2.1,5.8c-1,2.1-2.1,4.1-3.3,6.2c-1.2,2-2.5,4-3.8,6
			c-1.3,1.9-3.6,5.2-3.7,5.2C279.1,195.8,279.7,191.8,280.2,189.8z M217.3,187.1c0.2-1.1,0.5-2.3,0.8-3.6c0.3-1.3,0.6-2.7,1-4.2
			c0.4-1.5,0.8-2.9,1.2-4.3c0.4-1.4,0.9-2.8,1.3-4.1c0.5-1.3,0.9-2.4,1.4-3.4c0.5-1,1-1.8,1.5-2.4c0.5-0.6,1-0.9,1.4-0.9
			c0.4,0,0.7,0.1,0.9,0.3c0.2,0.2,0.4,0.5,0.5,0.8c0.1,0.3,0.2,0.6,0.2,0.8c0,0.3,0,0.4,0,0.5c-0.1,1.4-0.4,2.9-0.8,4.3
			c-0.4,1.4-0.9,2.8-1.5,4.1c-0.6,1.4-1.3,2.7-2,4c-0.7,1.3-1.5,2.6-2.2,3.8c-0.8,1.2-1.5,2.4-2.2,3.6c-0.7,1.1-2,3.3-2,3.3
			C216.8,189.8,217.1,188.2,217.3,187.1z M227.8,201.3c-0.1,0.9-0.3,1.9-0.5,2.8c-0.2,1-0.5,1.9-0.9,2.7c-0.3,0.9-0.8,1.7-1.2,2.3
			c-0.5,0.7-1,1.2-1.6,1.6c-0.6,0.4-1.2,0.6-1.9,0.6c-0.6,0-1.2-0.1-1.9-0.2c-0.7-0.1-1.3-0.2-1.9-0.3c-0.7-0.1-1.9-0.3-2.1-0.5
			c-0.1-0.2,0.1-1.5,0.2-2.3c0.1-0.7,0.2-1.5,0.3-2.5c0.1-0.9,0.3-2,0.5-3.1c0.2-1.4,0.6-2.5,1.1-3.5c0.5-1,1.1-1.8,1.7-2.4
			c0.6-0.6,1.3-1.1,2.1-1.4c0.8-0.3,1.5-0.4,2.3-0.4c0.8,0,1.5,0.1,2.1,0.3c0.5,0.2,1,0.5,1.3,0.9c0.3,0.4,0.5,0.8,0.6,1.2
			c0.1,0.5,0.2,1,0.2,1.5C228,199.5,228,200.4,227.8,201.3z M248.2,187.9c0.3-1.1,0.6-2.3,0.9-3.6c0.4-1.3,0.8-2.7,1.2-4.1
			c0.4-1.5,0.9-2.9,1.4-4.3c0.5-1.4,1-2.7,1.5-4c0.5-1.3,1-2.4,1.6-3.4c0.5-1,1.1-1.7,1.6-2.3c0.5-0.6,1-0.8,1.5-0.8
			c0.4,0,0.7,0.2,0.9,0.4c0.2,0.2,0.4,0.5,0.5,0.8c0.1,0.3,0.2,0.6,0.2,0.8c0,0.3,0,0.4,0,0.5c-0.1,1.4-0.6,2.9-1,4.2
			c-0.5,1.4-1.1,2.7-1.7,4.1s-1.4,2.6-2.2,3.9c-0.8,1.3-1.6,2.5-2.4,3.7c-0.8,1.2-1.6,2.4-2.4,3.5c-0.8,1.1-2.1,3.2-2.1,3.2
			C247.6,190.5,248,188.9,248.2,187.9z M258.4,200c-0.1,0.8-0.2,1.6-0.3,2.6c-0.2,0.9-0.4,1.9-0.7,2.8c-0.3,0.9-0.6,1.8-1,2.7
			c-0.4,0.9-0.8,1.6-1.3,2.3c-0.5,0.7-1.1,1.2-1.7,1.5c-0.6,0.4-1.3,0.5-2,0.5c-0.6,0-1.2-0.1-1.9-0.3c-0.7-0.1-1.3-0.3-1.9-0.4
			c-0.7-0.2-1.9-0.4-2-0.6c-0.1-0.2,0.2-1.5,0.3-2.3c0.1-0.7,0.3-1.5,0.4-2.5c0.2-0.9,0.4-1.9,0.6-3c0.3-1.4,0.7-2.5,1.3-3.5
			c0.5-0.9,1.1-1.7,1.8-2.3c0.7-0.6,1.4-1,2.2-1.3c0.8-0.3,1.5-0.4,2.3-0.3c0.8,0.1,1.5,0.2,2.1,0.4c0.5,0.3,0.9,0.6,1.2,0.9
			c0.3,0.4,0.5,0.8,0.6,1.3C258.4,199,258.4,199.5,258.4,200z M295.9,206.3c0.1-0.6,0.3-1.3,0.5-1.9c0.2-0.7,0.5-1.3,0.9-1.9
			c0.4-0.6,0.8-1.2,1.3-1.6c0.5-0.5,1.1-0.8,1.8-1c0.7-0.2,1.5-0.3,2.4-0.2c0.5,0.1,0.9,0.4,1.2,1.1c0.3,0.6,0.3,1.4,0.2,2.3
			c-0.1,0.6-0.5,1.3-1.1,1.9c-0.6,0.6-1.4,1.2-2.2,1.6c-0.9,0.5-1.8,0.8-2.7,1.1c-0.9,0.3-2.4,0.4-2.6,0.2
			C295.6,207.9,295.8,207,295.9,206.3z"/>
	</g>
	<g>
		<path class="st2" d="M223.2,247.5c-0.2,0.2-0.4,0.4-0.6,0.5c-0.2,0.2-0.4,0.3-0.6,0.4c-0.2,0.1-0.4,0.2-0.6,0.3
			c-0.2,0.1-0.4,0.1-0.6,0.1c-0.2,0-0.3-0.2-0.5-0.5c-0.1-0.3-0.2-0.7-0.2-1.2c0-0.6,0-1.2,0.1-1.8c0.1-0.6,0.1-1.1,0.2-1.6
			c0.1-0.5,0.2-1.1,0.2-1.7c0.1-0.6,0.1-1.2,0.1-1.8c0-0.4-0.1-0.7-0.4-0.9c-0.3-0.2-0.7-0.3-1.1-0.3c-0.4,0-0.7,0.1-1,0.4
			c-0.3,0.2-0.5,0.6-0.8,0.9c-0.3,0.4-0.6,0.8-0.9,1.3c-0.3,0.5-0.6,1-0.9,1.4c-0.3,0.4-0.5,0.8-0.7,1.1c-0.2,0.3-0.3,0.5-0.3,0.5
			l-0.2-0.2c0,0,0-0.1,0-0.1c0-0.1,0-0.2,0.1-0.4c0.1-0.3,0.1-0.6,0.2-0.9c0.1-0.3,0.1-0.6,0.2-0.9c0.1-0.3,0.1-0.6,0.2-0.9
			c0-0.3,0.1-0.6,0.1-1c0-0.4-0.1-0.7-0.4-0.9c-0.3-0.2-0.6-0.3-1-0.3c-0.4,0-0.8,0.1-1,0.4c-0.3,0.2-0.6,0.6-0.8,0.9
			c-0.3,0.4-0.6,0.8-0.9,1.3c-0.3,0.5-0.6,0.9-0.8,1.4c-0.3,0.4-0.5,0.8-0.7,1.1c-0.2,0.3-0.3,0.5-0.3,0.5l-0.1-0.2
			c0.1-0.6,0.2-1.1,0.3-1.7c0-0.2,0.1-0.5,0.1-0.7c0-0.2,0.1-0.5,0.1-0.7c0-0.2,0-0.4,0.1-0.6c0-0.2,0-0.4,0-0.5c0-0.3,0-0.5,0-0.7
			c0-0.2-0.1-0.3-0.2-0.4c-0.1-0.1-0.2-0.1-0.4-0.2c-0.2,0-0.5,0-0.8,0c-0.2,0-0.4,0-0.6,0c-0.1,0-0.3,0.1-0.4,0.2
			c-0.1,0.1-0.2,0.2-0.3,0.4c-0.1,0.2-0.2,0.4-0.3,0.7c-0.1,0.3-0.2,0.6-0.3,1.1c-0.1,0.3-0.1,0.6-0.2,1c-0.1-0.1-0.2-0.2-0.3-0.4
			c-0.6-0.6-1.2-1.1-1.8-1.5c-0.7-0.4-1.4-0.8-2.1-1.1c-0.7-0.3-1.6-0.4-2.4-0.4c-1,0-1.9,0.2-2.7,0.5c-0.8,0.4-1.5,0.9-2,1.5
			c-0.6,0.6-1,1.4-1.3,2.2c-0.2,0.5-0.3,1-0.3,1.5c-0.4,0.2-0.8,0.2-1.2,0.2c-0.1,0-0.3,0-0.4-0.1c-0.1-0.1-0.2-0.1-0.4-0.3
			c-0.1-0.1-0.2-0.3-0.3-0.5c-0.1-0.2-0.1-0.5-0.1-0.8c0-0.2,0-0.4,0.1-0.7c0-0.3,0.1-0.6,0.1-0.9c0.1-0.3,0.1-0.6,0.1-0.9
			c0-0.3,0.1-0.5,0.1-0.6c0-0.2,0-0.4-0.1-0.5c-0.1-0.2-0.2-0.3-0.3-0.4c-0.1-0.1-0.3-0.2-0.4-0.2c-0.2-0.1-0.3-0.1-0.5-0.1
			c-0.5,0-0.9,0.1-1.3,0.4c-0.4,0.3-0.7,0.6-1,1c-0.3,0.4-0.6,0.8-0.8,1.3c-0.2,0.4-0.4,0.9-0.6,1.2h-0.1c0-0.5,0-0.9,0-1.4
			c0-0.5,0-0.9,0-1.2c0-0.3,0-0.5,0-0.7c0-0.2-0.1-0.3-0.1-0.4c-0.1-0.1-0.2-0.1-0.3-0.2c-0.1,0-0.3,0-0.5,0c-0.2,0-0.4,0-0.5,0
			c-0.1,0-0.3,0.1-0.4,0.1c-0.1,0.1-0.2,0.2-0.3,0.3c-0.1,0.1-0.1,0.3-0.2,0.5c-0.1,0.3-0.2,0.7-0.4,1.1c-0.1,0.5-0.2,1-0.4,1.5
			c0,0,0,0,0,0c-0.2,0.2-0.4,0.3-0.7,0.4c-0.5,0.3-1,0.5-1.7,0.7c-0.7,0.2-1.5,0.3-2.4,0.3c-0.1,0-0.2,0-0.2,0c-0.1,0-0.1,0-0.2-0.1
			c-0.1,0-0.1-0.1-0.2-0.1c-0.1,0-0.2,0-0.3,0c-0.1,0-0.2,0-0.3,0c-0.1,0-0.2,0.1-0.4,0.2l0-0.2c0.6-0.7,1.1-1.5,1.6-2.3
			c0.5-0.8,1-1.6,1.5-2.5c0.5-0.8,0.9-1.7,1.3-2.5c0.4-0.8,0.8-1.7,1.1-2.4c0.3-0.8,0.5-1.5,0.7-2.2c0.2-0.7,0.3-1.3,0.3-1.8
			c0-0.6-0.1-1.1-0.3-1.5c-0.2-0.4-0.4-0.7-0.7-1c-0.3-0.2-0.6-0.4-0.9-0.5c-0.3-0.1-0.7-0.2-1-0.2c-0.8,0-1.5,0.2-2.1,0.7
			c-0.6,0.5-1.2,1.1-1.8,1.9c-0.5,0.8-1,1.7-1.4,2.8c-0.4,1.1-0.8,2.2-1.1,3.4c-0.3,1.2-0.6,2.5-0.9,3.8c-0.2,1.3-0.4,2.5-0.6,3.8
			c-0.2,1.2-0.3,2.4-0.4,3.5c-0.1,1.1-0.2,2.1-0.3,2.9c-0.1,0.8-0.1,1.5-0.1,2c0,0.5,0,0.8,0,0.8c0,0.5,0,1.1,0.1,1.7
			c0,0.6,0.1,1.2,0.2,1.7c0.1,0.6,0.2,1.1,0.4,1.6c0.2,0.5,0.4,1,0.7,1.3c0.3,0.4,0.6,0.7,0.9,0.9c0.4,0.2,0.8,0.3,1.3,0.3
			s0.9-0.1,1.3-0.3c0.4-0.2,0.7-0.5,1-0.8c0.3-0.3,0.6-0.7,0.8-1.2c0.2-0.4,0.4-0.9,0.6-1.4c0.2-0.5,0.3-0.9,0.4-1.4
			c0.1-0.5,0.2-0.9,0.2-1.3c0.1-0.4,0.1-0.7,0.1-1c0-0.3,0-0.4,0-0.5c0-0.7-0.1-1.4-0.3-2.1c-0.2-0.7-0.4-1.3-0.6-1.8
			c-0.3-0.6-0.6-1.3-0.9-1.9c0.6,0,1.3-0.1,1.9-0.2c0.6-0.1,1.2-0.2,1.8-0.4c0.3-0.1,0.6-0.2,0.9-0.3c0,0.1,0,0.3-0.1,0.4
			c-0.1,0.6-0.1,1.1-0.2,1.7c0,0.5-0.1,1-0.1,1.4c0,0.4,0,0.7,0.1,1s0.1,0.6,0.2,0.9c0.1,0.3,0.3,0.5,0.5,0.6s0.5,0.2,0.9,0.2
			c0.2,0,0.3,0,0.4-0.1c0.1-0.1,0.3-0.2,0.4-0.3c0.1-0.1,0.2-0.3,0.3-0.6c0.1-0.2,0.2-0.5,0.4-0.9l2.4-6.8h0.2
			c0.1,0.6,0.2,1.1,0.3,1.7c0.1,0.6,0.3,1.1,0.5,1.5c0.2,0.4,0.6,0.8,1,1.1c0.4,0.3,1,0.4,1.6,0.4c0.4,0,0.8-0.1,1.1-0.2
			c0.2-0.1,0.4-0.1,0.5-0.2c0,0.2,0,0.3,0.1,0.5c0.2,0.7,0.4,1.3,0.8,1.9c0.4,0.6,0.8,1,1.4,1.4c0.6,0.3,1.2,0.5,2,0.5
			c0.6,0,1.1-0.1,1.6-0.3c0.5-0.2,0.9-0.4,1.3-0.8c0.4-0.3,0.8-0.7,1.1-1.2c0.3-0.4,0.6-0.9,0.8-1.4c0.2-0.5,0.4-1,0.5-1.6
			c0.1-0.5,0.2-1.1,0.2-1.6c0-0.5-0.1-1.1-0.2-1.7c-0.1-0.6-0.3-1.1-0.6-1.7l0.1-0.1c0.3,0.2,0.7,0.5,1.2,0.8c0.5,0.3,0.9,0.7,1.4,1
			c0.3,0.3,0.6,0.5,1,0.8c0,0.1,0,0.1,0,0.2c-0.1,0.6-0.2,1.2-0.2,1.7c-0.1,0.6-0.1,1.1-0.2,1.6c0,0.5-0.1,0.9-0.1,1.3
			c0,0.4,0,0.7,0.1,1c0,0.3,0.1,0.6,0.2,0.9c0.1,0.3,0.3,0.5,0.5,0.6c0.2,0.2,0.5,0.2,0.9,0.2c0.3,0,0.6-0.1,0.8-0.2
			c0.2-0.1,0.4-0.4,0.6-0.8c0.6-1.3,1.1-2.3,1.5-3.1c0.4-0.8,0.7-1.5,1-2c0.3-0.5,0.4-0.9,0.6-1.2c0.1-0.3,0.3-0.5,0.4-0.6h0.2
			c-0.1,0.8-0.3,1.6-0.4,2.3c0,0.3-0.1,0.6-0.1,0.9c0,0.3-0.1,0.6-0.1,0.9c0,0.3-0.1,0.5-0.1,0.7c0,0.2,0,0.4,0,0.5
			c0,0.3,0,0.6,0,0.9c0,0.3,0.1,0.6,0.2,0.8c0.1,0.2,0.2,0.5,0.4,0.6c0.2,0.2,0.4,0.2,0.7,0.2c0.4,0,0.7-0.1,1-0.2
			c0.3-0.1,0.5-0.4,0.8-0.8l2.7-7h0.2c-0.1,0.6-0.1,1.3-0.2,1.9c0,0.6-0.1,1.2-0.1,1.8c0,0.6,0,1.2,0.1,1.7c0.1,0.5,0.2,1,0.3,1.3
			c0.1,0.4,0.3,0.7,0.5,0.9c0.2,0.2,0.5,0.3,0.8,0.3c0.7,0,1.2-0.1,1.8-0.3c0.5-0.2,1-0.4,1.4-0.7c0.4-0.3,0.9-0.6,1.2-0.9
			c0.4-0.3,0.8-0.7,1.2-1l-0.2-3.2C224,246.6,223.6,247.1,223.2,247.5z M176.4,239.5c0.1-0.6,0.2-1.3,0.3-2c0.2-0.8,0.4-1.6,0.7-2.6
			c0.3-1,0.7-2.1,1.2-3.4c0.2-0.4,0.4-0.8,0.6-1c0.2-0.2,0.5-0.3,0.9-0.3c0.2,0,0.4,0.1,0.6,0.3c0.1,0.2,0.2,0.6,0.2,1
			c0,0.3-0.1,0.8-0.4,1.5c-0.3,0.7-0.7,1.4-1.1,2.3c-0.5,0.9-1,1.8-1.5,2.8c-0.6,1-1.1,2-1.7,3.1C176.3,240.6,176.4,240,176.4,239.5
			z M177,254.4c0,0.5-0.1,1-0.2,1.4c-0.1,0.4-0.2,0.8-0.4,1.1c-0.2,0.3-0.4,0.4-0.7,0.4c-0.1,0-0.2-0.1-0.3-0.2
			c-0.1-0.1-0.2-0.4-0.3-0.8c-0.1-0.4-0.1-1-0.2-1.8c0-0.8-0.1-1.8-0.1-3.2c0-0.2,0-0.4,0-0.8c0-0.3,0-0.7,0.1-1.1
			c0-0.4,0.1-0.8,0.1-1.2c0-0.4,0.1-0.8,0.1-1.1c0-0.3,0.1-0.6,0.1-0.8c0-0.2,0.1-0.3,0.1-0.3c0.1,0,0.2,0.1,0.4,0.4
			c0.1,0.2,0.3,0.6,0.4,1c0.1,0.4,0.2,0.8,0.4,1.3c0.1,0.5,0.2,1,0.3,1.5c0.1,0.5,0.2,1,0.2,1.4c0.1,0.5,0.1,0.8,0.1,1.2
			C177,253.4,177,253.9,177,254.4z M200.3,246.3c-0.1,0.6-0.3,1.1-0.5,1.6c-0.2,0.5-0.5,0.9-0.8,1.2c-0.3,0.3-0.6,0.5-0.9,0.5
			c-0.4,0-0.7-0.1-0.9-0.2c-0.3-0.1-0.5-0.3-0.6-0.6c-0.2-0.2-0.3-0.5-0.3-0.9c-0.1-0.3-0.1-0.7-0.1-1.1c0-0.5,0.1-1.1,0.2-1.7
			c0.1-0.6,0.3-1.1,0.6-1.6c0.3-0.5,0.5-0.9,0.9-1.2c0.3-0.3,0.7-0.5,1.1-0.5c0.3,0,0.5,0.1,0.7,0.2c0.2,0.2,0.4,0.4,0.5,0.6
			c0.1,0.3,0.2,0.6,0.3,0.9c0.1,0.4,0.1,0.7,0.1,1.2C200.5,245.2,200.5,245.7,200.3,246.3z"/>
		<path class="st2" d="M264.8,246c-0.4,0.3-0.8,0.7-1.3,1.1c-0.5,0.4-1,0.7-1.6,1.1c-0.6,0.3-1.2,0.6-1.8,0.8
			c-0.6,0.2-1.2,0.3-1.7,0.3c-0.2,0-0.3,0-0.5-0.1c-0.2,0-0.3-0.1-0.4-0.2c-0.1-0.1-0.3-0.2-0.4-0.4c-0.1-0.2-0.3-0.4-0.4-0.6
			c0.8-0.2,1.5-0.5,2.2-0.9c0.7-0.4,1.3-0.8,1.7-1.3c0.5-0.5,0.9-1,1.1-1.6c0.3-0.6,0.4-1.1,0.4-1.7c0-0.5-0.1-1-0.3-1.4
			c-0.2-0.4-0.4-0.8-0.8-1.1c-0.3-0.3-0.7-0.5-1.1-0.7c-0.4-0.2-0.9-0.2-1.4-0.2c-0.6,0-1.2,0.1-1.7,0.3c-0.5,0.2-1,0.5-1.4,0.9
			c-0.4,0.4-0.8,0.8-1.1,1.3c-0.3,0.5-0.6,1-0.8,1.6c-0.2,0.5-0.4,1.1-0.5,1.7c-0.1,0.6-0.1,1.1-0.1,1.6c0,0.2,0,0.3,0,0.5
			c-0.1,0.1-0.2,0.2-0.2,0.2c-0.2,0.2-0.4,0.4-0.7,0.6c-0.2,0.2-0.5,0.3-0.7,0.5c-0.2,0.1-0.5,0.3-0.7,0.4c-0.2,0.1-0.5,0.1-0.7,0.1
			c-0.2,0-0.3-0.1-0.4-0.3c-0.1-0.2-0.2-0.5-0.2-0.9c0-0.7,0.1-1.3,0.3-1.9c0.2-0.6,0.4-1.2,0.6-1.8c0.2-0.6,0.4-1.2,0.6-1.7
			c0.2-0.6,0.3-1.2,0.3-1.8c0-0.3,0-0.6-0.1-0.8c-0.1-0.2-0.2-0.3-0.3-0.5c-0.1-0.1-0.3-0.2-0.4-0.2c-0.1,0-0.3-0.1-0.4-0.1
			c-0.4,0-0.9,0.2-1.4,0.5c-0.5,0.3-1,0.7-1.5,1.2c-0.5,0.5-1,1-1.4,1.6c-0.5,0.6-0.9,1.1-1.2,1.6l-0.3-0.2c0.3-0.6,0.7-1.2,1.1-2
			c0.4-0.8,0.8-1.5,1.2-2.4c0.4-0.8,0.8-1.7,1.2-2.6c0.4-0.9,0.8-1.8,1.1-2.7c0.3-0.9,0.6-1.7,0.8-2.5c0.2-0.8,0.3-1.6,0.3-2.2
			c0-0.5,0-0.9-0.1-1.2c-0.1-0.4-0.2-0.7-0.4-0.9c-0.2-0.3-0.4-0.5-0.7-0.6c-0.3-0.1-0.7-0.2-1.2-0.2c-0.9,0-1.8,0.3-2.5,0.8
			c-0.7,0.5-1.4,1.2-1.9,2.1c-0.5,0.9-1,1.9-1.4,3.1c-0.4,1.2-0.7,2.4-0.9,3.7c-0.2,1-0.3,2-0.5,3.1c0-0.2,0-0.4-0.1-0.6
			c-0.1-0.2-0.2-0.3-0.4-0.3c-0.2,0-0.3,0-0.6,0c-0.2,0-0.5,0-0.8,0c-0.3,0-0.6,0-0.8,0c-0.3,0-0.6,0-0.8,0c-0.2,0-0.5,0-0.7,0
			c-0.2,0-0.3,0-0.4,0c0.3-0.5,0.6-1,0.9-1.6c0.3-0.5,0.5-1,0.8-1.5c0.2-0.5,0.4-1,0.5-1.5c0.1-0.5,0.2-1,0.2-1.4
			c0-0.5-0.1-1-0.2-1.5c-0.1-0.5-0.3-0.9-0.5-1.3c-0.2-0.4-0.5-0.6-0.8-0.9c-0.3-0.2-0.7-0.3-1.1-0.3c-0.6,0-1.2,0.3-1.7,0.8
			c-0.6,0.5-1.1,1.3-1.5,2.1c-0.5,0.9-0.9,1.9-1.3,3c-0.4,1.1-0.7,2.3-0.9,3.5c-0.1,0-0.3,0-0.5,0c-0.2,0-0.5,0-0.8,0
			c-0.3,0-0.6,0-0.9,0c-0.3,0-0.6,0-0.9,0.1c-0.3,0-0.5,0.1-0.7,0.2c-0.2,0.1-0.3,0.2-0.3,0.4c0,0.1,0,0.2,0,0.3
			c0,0.1,0,0.2,0.1,0.3c0.1,0.1,0.1,0.2,0.3,0.3c0.1,0.1,0.3,0.1,0.5,0.2c0.5,0.1,0.9,0.1,1.1,0.1c0.3,0,0.5,0.1,0.6,0.1
			c0.2,0,0.3,0.1,0.5,0.1c0.1,0,0.4,0.1,0.6,0.1c-0.1,0.6-0.1,1.2-0.2,1.8c0,0.6-0.1,1.2-0.1,1.7c0,1.4,0.1,2.6,0.3,3.7
			c0.2,1.1,0.4,2.1,0.8,2.8c0.4,0.8,0.8,1.4,1.3,1.8c0.5,0.4,1.1,0.6,1.8,0.6c0.3,0,0.7-0.1,1.1-0.2c0.4-0.1,0.9-0.3,1.4-0.6
			c0.5-0.3,1.1-0.6,1.8-0.9c0.5-0.3,1.1-0.6,1.8-1c0,0.3,0,0.5,0,0.8c0,0.4,0.1,0.7,0.2,1c0.1,0.3,0.2,0.5,0.4,0.7
			c0.2,0.2,0.4,0.3,0.7,0.3c0.2,0,0.4,0,0.6-0.1c0.1-0.1,0.3-0.2,0.4-0.4c0.1-0.2,0.2-0.4,0.4-0.7c0.1-0.3,0.3-0.7,0.5-1.1
			c0.4-0.8,0.8-1.6,1.3-2.4c0.5-0.8,1-1.5,1.4-2.1c0.5-0.6,0.9-1.1,1.2-1.5c0.4-0.4,0.6-0.7,0.8-0.8l0.3,0c0,0-0.1,0.1-0.2,0.3
			c-0.1,0.2-0.2,0.4-0.3,0.7c-0.1,0.3-0.3,0.6-0.4,0.9c-0.1,0.3-0.3,0.7-0.4,1.1c-0.1,0.4-0.2,0.7-0.3,1.1c-0.1,0.4-0.1,0.7-0.1,1
			c0,0.4,0.1,0.9,0.2,1.4c0.1,0.5,0.3,0.9,0.5,1.3c0.2,0.4,0.5,0.7,0.9,1c0.4,0.3,0.8,0.4,1.3,0.4c0.3,0,0.7-0.1,1-0.2
			c0.4-0.1,0.7-0.2,1.1-0.4c0.4-0.2,0.7-0.4,1.1-0.6c0.4-0.2,0.7-0.4,1-0.6c0.3-0.2,0.5-0.4,0.8-0.6c0.1,0.2,0.3,0.5,0.4,0.7
			c0.4,0.5,1,0.9,1.6,1.2c0.6,0.3,1.4,0.5,2.2,0.5c0.5,0,1.1-0.1,1.6-0.2c0.5-0.1,1-0.3,1.5-0.5c0.5-0.2,1-0.4,1.4-0.7
			c0.4-0.3,0.9-0.5,1.3-0.8c0.9-0.6,1.7-1.4,2.5-2.2L264.8,246z M233.1,235.2c0.2-0.8,0.4-1.5,0.6-2.1c0.2-0.6,0.5-1.2,0.7-1.6
			c0.2-0.4,0.5-0.6,0.7-0.6c0.2,0,0.3,0,0.4,0.1c0.1,0.1,0.2,0.2,0.2,0.3c0,0.1,0.1,0.2,0.1,0.3c0,0.1,0,0.2,0,0.3
			c0,0.3-0.1,0.7-0.2,1.1c-0.2,0.5-0.3,0.9-0.6,1.5c-0.2,0.5-0.5,1-0.8,1.6c-0.3,0.5-0.6,1-0.8,1.5c-0.1,0-0.3,0-0.4,0
			c-0.1,0-0.3,0-0.4,0C232.8,236.8,232.9,236,233.1,235.2z M238.3,247.3c-0.4,0.3-0.7,0.5-1.1,0.7c-0.4,0.2-0.7,0.4-1.1,0.6
			c-0.3,0.2-0.6,0.3-0.9,0.4c-0.3,0.1-0.5,0.1-0.7,0.1c-0.3,0-0.6,0-0.8-0.1c-0.2-0.1-0.5-0.2-0.6-0.5c-0.2-0.2-0.3-0.5-0.4-0.8
			c-0.1-0.3-0.1-0.7-0.1-1.2c0-0.2,0-0.4,0-0.6c0-0.2,0-0.5,0-0.7c0-0.2,0-0.5,0-0.7c0-0.2,0-0.5,0-0.7c0-0.5,0.1-1.1,0.1-1.6
			c0.2-0.3,0.5-0.6,0.7-0.9c0.3-0.3,0.5-0.7,0.8-1.1h5.2c0.2,0,0.4-0.1,0.6-0.3c0.1-0.1,0.2-0.3,0.2-0.5c0,0.2,0,0.3-0.1,0.5
			c-0.1,1.3-0.2,2.6-0.3,3.8c-0.1,1-0.1,1.8-0.1,2.7c-0.1,0.1-0.2,0.2-0.4,0.4C239,246.8,238.6,247.1,238.3,247.3z M243.4,240.7
			c-0.3,0.7-0.6,1.3-0.8,1.9c0.1-1,0.2-2.1,0.4-3.2c0.1-0.5,0.1-0.9,0.2-1.5c0.1-0.5,0.2-1,0.3-1.6c0.1-0.5,0.2-1.1,0.4-1.6
			c0.1-0.5,0.3-1,0.4-1.5c0.6-1.5,1.2-2.6,1.6-3.3c0.5-0.8,0.8-1.2,1-1.2c0.2,0,0.3,0.3,0.3,1c0,0.5-0.1,1.2-0.4,2.1
			c-0.2,0.9-0.6,2.1-1.2,3.5c-0.2,0.4-0.4,0.9-0.6,1.5c-0.2,0.6-0.5,1.2-0.8,1.9C244,239.3,243.7,240,243.4,240.7z M256.5,245
			c0-0.3,0.1-0.6,0.1-0.9c0.1-0.3,0.1-0.6,0.3-0.9c0.1-0.3,0.3-0.6,0.4-0.8c0.2-0.2,0.4-0.4,0.7-0.6c0.3-0.1,0.6-0.2,1-0.2
			c0.2,0,0.4,0.1,0.5,0.4c0.1,0.3,0.2,0.6,0.2,1c0,0.3-0.1,0.6-0.3,0.9c-0.2,0.3-0.5,0.6-0.8,0.9c-0.3,0.3-0.7,0.5-1.1,0.6
			c-0.4,0.2-0.7,0.3-1.1,0.3C256.4,245.6,256.5,245.3,256.5,245z"/>
	</g>
	<g>
		<path class="st2" d="M190.9,280.4c1.3,0,2.5-0.1,3.4-0.5c1-0.4,1.8-0.8,2.4-1.4c0.6-0.6,1.1-1.3,1.4-2.1c0.3-0.8,0.5-1.6,0.5-2.4
			c0-0.9-0.1-1.7-0.5-2.4c-0.3-0.7-0.8-1.2-1.4-1.7c-0.6-0.4-1.3-0.8-2.1-1c-0.8-0.2-1.6-0.4-2.5-0.4c-1.4-0.1-2.6,0.1-3.6,0.5
			c-1,0.4-1.8,0.9-2.4,1.5c-0.6,0.6-1.1,1.3-1.3,2c-0.3,0.7-0.5,1.3-0.5,1.9c-0.1,1.7,0.4,3.1,1.4,4.2
			C186.9,279.7,188.6,280.3,190.9,280.4z"/>
		<path class="st2" d="M323.8,296.4c-0.9,1.1-2,2.3-3.4,3.5c-1.4,1.3-2.8,2.5-4.4,3.6c-1.6,1.1-3.2,2.1-5,2.9
			c-1.7,0.8-3.4,1.3-5,1.5c-0.5,0.1-1,0.1-1.5,0c-0.5,0-0.9-0.2-1.3-0.4c-0.4-0.2-0.9-0.5-1.3-0.9c-0.4-0.4-1.4-1.4-1.4-1.5
			c0.1-0.2,4.4-2,6.2-3.3c1.9-1.3,3.4-2.7,4.7-4.3c1.3-1.5,2.2-3.1,2.8-4.8c0.6-1.6,0.8-3.2,0.6-4.7c-0.2-1.4-0.6-2.6-1.3-3.7
			c-0.7-1.1-1.5-1.9-2.6-2.6c-1-0.7-2.2-1.2-3.5-1.4c-1.3-0.3-2.7-0.3-4.2-0.1c-1.8,0.2-3.4,0.7-4.8,1.5c-1.4,0.8-2.7,1.7-3.7,2.9
			c-1.1,1.2-2,2.5-2.8,3.9c-0.8,1.4-1.4,2.9-1.8,4.5c-0.4,1.5-0.7,3.1-0.9,4.7c-0.1,1.6-0.1,3.1,0,4.4c0.1,0.6,0.2,1.2,0.3,1.8
			c-0.5,0.4-1.1,0.8-1.6,1.2c-0.7,0.5-1.4,1-2.1,1.5c-0.7,0.5-1.5,1-2.2,1.4c-0.7,0.4-1.4,0.7-2,1c-0.6,0.3-1.2,0.4-1.8,0.5
			c-0.2,0-0.5-0.1-0.7-0.4c-0.3-0.3-0.5-0.6-0.8-1.1c-0.3-0.5-0.5-1-0.7-1.6c-0.2-0.6-0.3-1.2-0.4-1.9c0-0.2,0-0.3,0-0.5
			c0-0.5,0.1-1,0.2-1.6c0.1-0.5,0.2-1,0.3-1.5c0.1-0.5,0.2-0.9,0.3-1.3c0.1-0.4,0.2-0.7,0.3-1c1-2.3,2.2-4.7,3.3-7.2
			c1.2-2.5,2.3-5,3.5-7.5c1.1-2.5,2.2-5.1,3.2-7.7c1-2.6,1.8-5.1,2.5-7.7c0.7-2.5,1.1-5,1.4-7.5c0.3-2.5,0.3-4.9,0-7.2
			c-0.1-1-0.3-2-0.6-3c-0.3-1-0.7-1.8-1.1-2.6c-0.5-0.7-1.1-1.3-1.9-1.7c-0.7-0.4-1.7-0.6-2.7-0.4c-1.6,0.2-3.1,0.8-4.5,1.9
			c-1.4,1.1-2.8,2.5-4,4.3c-1.3,1.8-2.4,3.8-3.5,6.2c-1.1,2.3-2.1,4.8-3,7.5c-0.9,2.6-1.7,5.4-2.4,8.2c-0.7,2.8-1.3,5.7-1.7,8.5
			c-0.5,2.8-0.8,5.5-0.9,8.1c-0.2,2.6-0.2,5,0,7.2c0.2,2.9,0.7,5.6,1.4,8.2c0.1,0.5,0.3,1,0.4,1.5c-1.3,1-2.7,2-4.2,2.8
			c-1.8,1-3.8,1.8-6,2.4c-2.2,0.6-4.7,1-7.5,1.1c-0.1-0.3-0.2-0.5-0.3-0.8c2.4-1.1,4.5-2.3,6.2-3.7c1.7-1.4,3.1-2.8,4.2-4.3
			c1.1-1.5,1.8-3.1,2.2-4.7c0.4-1.6,0.6-3.3,0.5-4.9c-0.1-2.1-0.6-3.9-1.3-5.3c-0.7-1.4-1.6-2.5-2.7-3.4c-1.1-0.9-2.4-1.4-3.8-1.8
			c-1.4-0.3-2.9-0.5-4.5-0.4c-2.2,0.1-4,0.6-5.5,1.4c-1.5,0.8-2.8,1.9-3.8,3.2c-1.1,1.3-1.9,2.8-2.6,4.6c-0.7,1.7-1.2,3.6-1.6,5.5
			c-0.4,1.9-0.8,3.9-1,6c-0.1,0.4-0.1,0.9-0.1,1.4c-0.7,0.7-1.5,1.5-2.4,2.1c-1.5,1.2-3.1,2.2-4.9,3.1c-1.8,0.9-3.9,1.6-6.1,2.1
			c-2.3,0.5-4.8,0.8-7.6,0.8c-0.1-0.3-0.1-0.5-0.2-0.8c2.5-1,4.6-2.1,6.4-3.4c1.8-1.3,3.2-2.6,4.4-4.1c1.1-1.5,2-3,2.5-4.6
			c0.5-1.6,0.8-3.2,0.7-4.9c0-2.1-0.4-3.9-1-5.3c-0.6-1.4-1.5-2.6-2.5-3.5c-1.1-0.9-2.3-1.6-3.7-2c-1.4-0.4-2.9-0.6-4.5-0.6
			c-2.2,0-4,0.4-5.5,1.1c-1.5,0.7-2.9,1.7-4,3c-1.1,1.3-2,2.7-2.8,4.4c-0.7,1.7-1.4,3.5-1.9,5.4c-0.5,1.9-0.9,3.9-1.3,5.9
			c-0.1,0.4-0.1,0.7-0.2,1.1c0-0.3,0-0.5,0-0.8c-0.9,0.7-2,1.4-3.1,2.4c-1.2,0.9-2.4,1.8-3.7,2.6c-1.3,0.8-2.5,1.6-3.7,2.1
			c-1.2,0.6-2.3,0.8-3.3,0.8c-0.8,0-1.4-0.4-1.6-1.1c-0.2-0.7-0.3-1.6-0.3-2.7c0-1.1,0.2-2.4,0.6-3.8c0.3-1.4,0.7-2.9,1.2-4.4
			c0.5-1.5,1-3,1.5-4.5c0.5-1.5,1-2.9,1.4-4.2c0.4-1.3,0.8-2.4,1.1-3.5c0.3-1,0.5-1.8,0.5-2.4c0-0.6-0.2-1.2-0.5-1.6
			c-0.4-0.4-1.1-0.6-2.2-0.7c-0.6,0-1.3,0-2,0.1c-0.8,0.1-1.5,0.3-2.2,0.5c-0.7,0.3-1.4,0.6-1.9,1c-0.6,0.4-1,1-1.2,1.6
			c-0.6,1.8-1.2,3.8-2,6c-0.7,2.2-1.5,4.4-2.1,6.6c-0.6,2-1.1,3.8-1.6,5.7c-0.2,0.1-0.3,0.3-0.5,0.4c-1.3,1-2.7,1.9-4.2,2.7
			c-1.5,0.8-2.9,1.5-4.4,2c-1.5,0.5-2.9,0.7-4.2,0.6c-0.9-0.1-1.7-0.3-2.4-0.7c-0.6-0.4-1.2-0.9-1.6-1.5c-0.4-0.6-0.7-1.3-0.9-2
			c-0.2-0.7-0.3-1.5-0.4-2.3c-0.1-0.8-0.1-1.5-0.1-2.3c0-0.7,0.1-1.4,0.1-2c0.2-1.8,0.4-3.8,0.9-5.8c0.4-2,0.9-4.1,1.5-6.2
			c0.5-2.1,1.1-4.2,1.7-6.4c0.6-2.1,1.2-4.2,1.7-6.2c0.5-2,1-3.9,1.4-5.7c0.4-1.8,0.6-3.5,0.7-4.9c0.1-1.3,0-2.6-0.2-3.9
			c-0.2-1.3-0.6-2.6-1.2-3.7c-0.6-1.1-1.4-2.1-2.3-2.9c-1-0.8-2.2-1.2-3.6-1.4c-1.3-0.1-2.6,0-4,0.2c-1.4,0.2-2.8,0.8-4.4,1.6
			c-1.5,0.8-3.2,2-4.9,3.5c-1.7,1.5-3.5,3.5-5.5,6c-2,2.5-4,5.5-6.2,9c-2.2,3.5-4.5,7.7-7,12.5c-0.3-0.1-0.4-0.2-0.6-0.3
			c0.9-2,1.8-4,2.7-6c0.9-2,1.7-4,2.5-6c0.7-1.9,1.4-3.8,1.9-5.7c0.5-1.8,0.9-3.6,1.1-5.2c0.2-1.6,0.2-3.1,0.1-4.5
			c-0.2-1.4-0.6-2.6-1.2-3.6c-0.6-1-1.5-1.9-2.7-2.6c-1.1-0.7-2.6-1.2-4.4-1.4c-1.2-0.2-2.4-0.1-3.7,0.3c-1.3,0.4-2.6,1.1-4,2.1
			c-1.4,1-2.7,2.4-4.1,4.2c-1.4,1.8-2.6,4.9-4,6.6c-0.1,0.1-0.2,0.2-0.2,0.3c0,0.3,0,0.6,0.2,1c0.2,0.4,0.4,0.7,0.6,1.1
			c0.3,0.3,0.6,0.6,0.9,0.9c0.3,0.3,0.7,0.4,1,0.5c0.4,0.1,0.8,0,1.2-0.1c0.4-0.1,0.6-0.4,0.9-0.7c0.8-1.2,1.8-2.3,2.7-3.2
			c1-1,1.9-1.8,2.8-2.6c0.9-0.7,1.7-1.3,2.5-1.6c0.8-0.4,1.4-0.5,1.9-0.4c0.4,0.1,0.7,0.2,0.8,0.5c0.2,0.2,0.3,0.5,0.3,0.8
			c0,0.3,0,0.7,0,1c0,0.3-0.1,0.6-0.1,0.9c-0.4,2.4-1,4.7-1.6,6.9c-0.5,2.1-1.1,4.2-1.7,6.2c-0.6,2-1.2,4-1.9,6s-1.4,4-2.2,6.1
			c-0.8,2.1-1.6,4.3-2.6,6.6c-0.9,2.3-1.9,4.8-3,7.5c-0.3,0.8-0.6,1.7-0.9,2.5c-0.2,0.8-0.4,1.7-0.6,2.8c-0.1,1-0.1,1.9,0.1,2.7
			c0.2,0.8,0.5,1.5,0.9,2.1c0.4,0.6,1,1.1,1.6,1.5c0.6,0.4,1.3,0.6,2,0.7c1.2,0.2,2.4,0,3.5-0.4c1.1-0.4,2.3-1.3,3-2.5
			c1.3-2,2.5-4.9,3.9-7.5c1.4-2.7,2.8-5.4,4.2-8.1c1.4-2.7,2.9-5.5,4.4-8.2c1.5-2.7,3-5.3,4.4-7.8c1.5-2.4,2.9-4.7,4.3-6.8
			c1.4-2.1,2.8-3.9,4.1-5.4c1.3-1.5,2.5-2.7,3.7-3.5c1.2-0.8,2.3-1.2,3.3-1.1c0.6,0.1,1.1,0.3,1.4,0.8c0.3,0.5,0.5,1,0.7,1.6
			c0.1,0.6,0.2,1.2,0.2,1.8c0,0.6,0,1.1-0.1,1.5c-0.1,1.4-0.4,2.9-0.9,4.4c-0.5,1.5-1,3-1.6,4.6c-0.6,1.6-1.3,3.2-2,4.9
			c-0.7,1.7-1.4,3.4-2.1,5.1c-0.6,1.7-1.2,3.5-1.7,5.4c-0.5,1.8-0.9,3.7-1.1,5.6c-0.1,1.5-0.2,3-0.2,4.6c0,1.6,0.2,3.1,0.4,4.7
			c0.3,1.6,0.7,3,1.3,4.4c0.6,1.4,1.4,2.7,2.3,3.8c1,1.1,2.2,2,3.6,2.7c1.4,0.7,3.1,1.2,5,1.3c1.5,0.1,3,0.1,4.6-0.2
			c1.6-0.2,3.1-0.6,4.7-1.1c1.6-0.5,3.1-1.1,4.6-1.8c0.8-0.4,1.5-0.7,2.2-1.1c0.2,0.7,0.5,1.2,1,1.8c0.6,0.7,1.3,1.2,2.3,1.6
			c1,0.4,2.2,0.7,3.6,0.7c1.6,0.1,3.3-0.1,5.1-0.6c1.8-0.5,3.6-1,5.3-1.8c1.7-0.7,3.3-1.5,4.8-2.4c0.1-0.1,0.2-0.1,0.3-0.2
			c-1.4,1.8-2.9,3.7-4,5.4c-0.8,1.3-1.7,2.7-2.5,4.2c-0.8,1.4-1.6,2.8-2.2,4.2c-0.7,1.4-1.2,2.7-1.6,4c-0.4,1.3-0.6,2.4-0.7,3.4
			c-0.1,1.8,0,3.4,0.2,5c0.2,1.6,0.6,3,1.2,4.2c0.6,1.2,1.4,2.2,2.5,2.9c1.1,0.7,2.4,1.1,4.1,1.2c2,0.1,4-0.6,5.9-2
			c1.9-1.4,3.6-3.4,5.1-6c1.5-2.6,2.7-5.7,3.6-9.4c0.9-3.7,1.3-7.8,1.4-12.3c0-0.3,0-0.4,0-0.7c2.3,0.3,4.1,0.6,5.4,0.8
			c1.3,0.2,2.4,0.4,3.1,0.5c0.7,0.1,1.2,0.2,1.5,0.3c0.3,0,0.5,0.1,0.7,0.1c1.6,0,3.2-0.2,4.9-0.7c1.4-0.4,2.8-0.9,4.1-1.5
			c-0.5,0.7-0.9,1.4-1.3,2c-0.8,1.4-1.5,2.8-2.3,4.3c-0.7,1.5-1.4,2.9-2,4.3c-0.6,1.4-1.1,2.8-1.4,4c-0.4,1.3-0.5,2.4-0.5,3.5
			c0,1.8,0.2,3.4,0.4,5c0.3,1.6,0.8,3,1.4,4.1c0.7,1.2,1.5,2.1,2.6,2.8c1.1,0.7,2.5,1,4.1,1c2,0,4-0.8,5.8-2.3
			c1.9-1.5,3.5-3.5,4.8-6.2c1.4-2.7,2.4-5.9,3.1-9.6c0.7-3.7,1-7.8,0.8-12.4c0-0.3,0-0.4,0-0.7c2.3,0.2,4.1,0.4,5.5,0.5
			c1.3,0.1,2.4,0.3,3.1,0.3c0.7,0.1,1.2,0.1,1.5,0.2c0.3,0,0.5,0,0.7,0c1.6-0.1,3.2-0.4,4.8-0.9c1.6-0.5,3.1-1.2,4.6-1.9
			c1.4-0.8,2.7-1.7,3.9-2.7c0.2-0.2,0.4-0.4,0.6-0.6c0.9,1.3,1.8,2.4,2.9,3.2c1.4,1.1,2.8,1.6,4.3,1.4c0.9-0.1,1.9-0.3,3-0.6
			c1.1-0.3,2.1-0.7,3.2-1.2c1.1-0.5,2.2-1.1,3.2-1.7c1.1-0.6,2.1-1.2,3.1-1.9c0.9-0.6,1.9-1.2,2.8-1.9c0.3,0.4,0.7,0.7,1.1,1.1
			c1.4,1.3,3.2,2.2,5.2,2.9c2,0.6,4.3,0.8,6.9,0.5c1.6-0.2,3.3-0.6,4.8-1.1c1.6-0.5,3-1.2,4.5-1.9c1.4-0.8,2.8-1.6,4-2.5
			c1.2-0.9,2.4-1.8,3.5-2.7c2.4-2.1,4.7-4.5,6.7-7.1C327.4,298.9,326.2,298.1,323.8,296.4z M201,322.3c0,0.6-0.1,1.4-0.2,2.3
			c-0.1,0.9-0.1,2.1-0.3,3.4c-0.1,0.8-0.1,1.6-0.2,2.6c0,1-0.1,2-0.2,3c-0.1,1-0.2,2-0.3,3c-0.1,1-0.3,1.8-0.5,2.6
			c-0.2,0.8-0.5,1.4-0.8,1.8c-0.3,0.5-0.7,0.7-1.2,0.7c-0.5,0-1-0.2-1.3-0.6c-0.4-0.4-0.6-0.8-0.9-1.2c-0.2-0.5-0.4-0.9-0.5-1.4
			c-0.1-0.4-0.1-0.8-0.1-1c0-0.3,0.1-0.9,0.3-1.6c0.2-0.7,0.4-1.6,0.7-2.6c0.3-1,0.6-2.1,1-3.2c0.4-1.2,0.8-2.3,1.3-3.5
			c0.5-1.2,1-2.3,1.5-3.3c0.5-1.1,1.6-2.8,1.6-2.8C201.1,320.6,201,321.6,201,322.3z M209.7,311c-0.1,0,0.1-2.9,0.2-4.4
			c0.1-1.5,0.3-2.9,0.5-4.3c0.2-1.4,0.5-2.6,0.9-3.8c0.4-1.2,0.8-2.2,1.4-3.1c0.6-0.9,1.2-1.6,1.9-2.1c0.7-0.5,1.6-0.8,2.6-0.8
			c0.9,0,1.6,0.2,2.1,0.7c0.5,0.5,0.8,1,1,1.7c0.2,0.6,0.3,1.3,0.3,2.1c0,0.7-0.1,1.4-0.3,1.9c-0.3,1.2-0.7,2.3-1.3,3.4
			c-0.5,1.1-1.2,2.2-2.1,3.2c-0.9,1-1.9,2-3.1,2.9C212.7,309.5,209.9,311.2,209.7,311z M236.4,322.2c0,0.6,0,1.4,0,2.3
			c0,0.9,0,2.1-0.1,3.4c0,0.8,0,1.6,0,2.6c0,1,0,2,0,3c0,1-0.1,2-0.1,3c-0.1,1-0.2,1.8-0.4,2.6c-0.2,0.8-0.4,1.4-0.7,1.9
			c-0.3,0.5-0.7,0.7-1.2,0.7c-0.5,0-1-0.2-1.4-0.5c-0.4-0.3-0.7-0.7-0.9-1.2c-0.2-0.4-0.4-0.9-0.5-1.3c-0.1-0.4-0.2-0.8-0.2-1
			c0-0.3,0.1-0.9,0.2-1.6c0.1-0.7,0.3-1.6,0.6-2.6c0.2-1,0.5-2.1,0.9-3.3c0.3-1.2,0.7-2.3,1.1-3.5c0.4-1.2,0.9-2.3,1.3-3.4
			c0.5-1.1,1.4-2.9,1.5-2.9C236.4,320.4,236.4,321.5,236.4,322.2z M248.7,307.8c-1.1,1-3.9,2.8-4.1,2.7c-0.1,0-0.1-2.9,0-4.4
			c0-1.5,0.1-2.9,0.3-4.3c0.2-1.4,0.4-2.7,0.7-3.9c0.3-1.2,0.7-2.3,1.2-3.1c0.5-0.9,1.1-1.6,1.8-2.2c0.7-0.5,1.6-0.8,2.6-0.9
			c0.9,0,1.6,0.2,2.1,0.6c0.5,0.4,0.9,1,1.1,1.6c0.2,0.6,0.3,1.3,0.3,2.1c0,0.7,0,1.4-0.2,1.9c-0.2,1.2-0.6,2.3-1.1,3.5
			c-0.5,1.1-1.1,2.3-1.9,3.3C250.8,305.8,249.8,306.9,248.7,307.8z M275.4,281.8c0.2-2.5,0.4-5,0.9-7.5c0.4-2.4,0.9-4.7,1.5-6.9
			c0.6-2.2,1.2-4.1,1.9-5.8c0.7-1.7,1.4-3,2.2-4c0.8-1,1.5-1.6,2.2-1.6c0.2,0,0.3,0.2,0.4,0.7c0.1,0.5,0.2,1.1,0.2,1.8
			c0.1,2.2-0.3,4.8-0.9,7.5c-0.6,2.7-1.3,5.4-2.3,8.1c-0.9,2.7-1.9,5.4-3,8c-1.1,2.6-3.1,7-3.2,7
			C275.4,289.2,275.2,284.3,275.4,281.8z M298.9,299.2c-0.1-0.1-0.1-1.2-0.1-2c0-0.8,0-1.6,0.1-2.4c0.1-0.8,0.2-1.7,0.5-2.5
			c0.2-0.8,0.6-1.6,1.1-2.3c0.5-0.7,1.1-1.3,1.8-1.8c0.8-0.5,1.7-0.8,2.8-1c0.6-0.1,1.2,0.2,1.7,0.9c0.5,0.7,0.9,1.5,1,2.7
			c0.1,0.8-0.1,1.6-0.7,2.6c-0.6,0.9-1.3,1.8-2.2,2.6c-0.9,0.8-1.9,1.6-3,2.1C300.9,298.7,299.1,299.4,298.9,299.2z"/>
	</g>
	<path class="st2" d="M313.4,125.2c-30.2-41.9-67.3-79-91.8-103.5c-1.4-1.4-3.1-2.1-5-2.1c-1.8,0-3.4,0.7-4.5,1.9l-0.2,0.2
		C164.7,68.5,66.5,165.8,66.5,257.8c0,82.7,67.3,150,150,150c82.7,0,150-67.3,150-150C366.5,218.7,348.6,174.1,313.4,125.2z
		 M216.5,394c-75.1,0-136.2-61.1-136.2-136.2c0-35.4,16.1-76.1,48-121c25.5-35.9,56-68.1,85.3-97.6l2.9-2.9l2.9,2.9
		c62,62,133.3,143,133.3,218.6C352.7,332.9,291.6,394,216.5,394z"/>
</g>
</svg>
