<?xml version="1.0" encoding="utf-8"?>
<!-- Generator: Adobe Illustrator 24.2.1, SVG Export Plug-In . SVG Version: 6.00 Build 0)  -->
<svg version="1.1" id="Layer_1" xmlns="http://www.w3.org/2000/svg" xmlns:xlink="http://www.w3.org/1999/xlink" x="0px" y="0px"
	 viewBox="0 0 432 432" style="enable-background:new 0 0 432 432;" xml:space="preserve">
<style type="text/css">
	.st0{fill:#2B2C2B;}
	.st1{fill:#FFFFFF;}
</style>
<rect class="st0" width="432" height="432"/>
<g>
	<g>
		<path class="st1" d="M274.9,235c-0.1,0.2-0.2,0.4-0.3,0.5c-0.3,0.5-0.5,1-0.7,1.5c-1.1-0.6-2.4-0.9-3.6-1.1
			c-0.7-0.1-1.5-0.1-2.2-0.1c-1.4,0-2.8,0.3-4.2,0.8c-1.8,0.7-3.5,1.6-5.1,2.8c-0.4,0.3-0.7,0.6-1.1,0.9c-0.3,0-0.6,0-0.9-0.1
			c-0.2-0.2-0.4-0.4-0.6-0.6c-0.9-0.9-1.7-1.6-2.6-2.1c-1.2-0.7-2.3-1.1-3.5-1c-0.2,0-0.4,0-0.5,0c-0.6-0.4-1.2-0.8-1.8-1.1
			c-1.4-0.7-2.9-1.2-4.5-1.3c-0.5,0-1-0.1-1.4,0c-1.7,0-3.4,0.4-5,1.1c-1.8,0.7-3.5,1.8-5,3.1c0,0-0.1,0.1-0.1,0.1
			c-0.3-0.3-0.6-0.7-1-1l-0.3-0.3L230,237c-1-0.7-2.1-1.4-3.1-1.9c-1.4-0.7-3-1.1-4.6-1.1c-0.3,0-0.6,0-0.8,0
			c-1.3,0-2.7,0.3-3.9,0.7c0.3-0.7,0.6-1.4,1-2.1l1.8,0l2.3,0c13.1,0.1,26.2,0.5,39.2,1.4l3.5,0.2l3.5,0.3
			C270.9,234.7,272.9,234.9,274.9,235z"/>
		<path class="st1" d="M199.9,232.9l-0.1,0.1c0,0-1.5,3.4-1.9,4.2c-0.2-0.1-0.3-0.2-0.5-0.4c-0.5-0.4-1.2-0.8-2.2-0.9
			c0.3-0.4,0.6-0.8,0.9-1.1l0.1-0.1l0.1-0.1c0.5-0.6,0.8-1.2,1.1-1.9c0.2,0.2,0.5,0.3,0.8,0.2L199.9,232.9z"/>
		<path class="st1" d="M178.5,235c-0.2,1.5-0.2,3-0.1,4.5c0,0.1,0,0.2,0,0.4c-0.1,0-0.1,0-0.2,0c-1.1-0.6-2.1-1.2-3.2-1.6
			c-1.3-0.5-2.6-0.7-4-0.7c-0.2,0-0.4,0-0.7,0c-2.1,0.2-4.2,0.9-6.1,2c-0.6,0.4-1.2,0.8-1.8,1.3c-2,0.2-3.9,0.3-5.9,0.5
			c-0.4-0.2-0.7-0.3-1.1-0.4c-1.1-0.4-2.4-0.6-3.6-0.5c-0.4,0-0.8,0-1.1,0.1c-2,0.3-3.9,0.9-5.7,2c-3.5,0.4-7.1,0.8-10.7,1.3
			c0.2-0.5,0.4-1,0.6-1.6l0.4-1.1l-0.1-1.2c-0.1-0.5-0.2-1.1-0.4-1.6l1.5-0.2c5-0.7,10-1.3,15-1.9l4.4-0.5c0.6-0.1,1.1-0.6,1.1-1.2
			l0.3-35.5c0-0.6,0.5-1.2,1.2-1.2c1.5,0,3-0.1,4.5-0.1c0.7,0,1.2,0.5,1.2,1.2l-0.3,34.6c0,0.7,0.6,1.3,1.3,1.2l5.5-0.4
			c2.7-0.2,5.4-0.4,8.1-0.6C178.6,234.3,178.5,234.7,178.5,235z"/>
		<path class="st1" d="M128.2,199l-14,0.5c-0.4,0-0.7,0.2-0.9,0.5c-1,1.4-4.1,5.6-6,8.7c-0.3,0.4-0.2,0.9,0,1.3
			c2.4,3.7,4.9,7.3,7.4,10.9c0.9,0.2,1.7,0.4,2.6,0.8c1.7,0.8,3.1,2,4.4,3.5c1.2,1.5,2.1,3.3,2.6,5.4c0.1,0.3,0.2,0.6,0.2,0.9
			c0.3-0.1,0.6-0.1,0.9-0.1c0.7,0,1.5,0.1,2.3,0.3c0.5,0.2,1,0.4,1.5,0.6l0.3-32.3C129.5,199.5,128.9,198.9,128.2,199z M123.1,216.9
			c0,1.6-2,2.2-2.9,0.9c-1.8-2.6-3.6-5.2-5.4-7.8c-0.3-0.5-0.4-1.2,0-1.7c0.4-0.6,0.8-1.3,1.2-1.9c0.3-0.5,0.8-0.7,1.3-0.8
			c1.6-0.1,3.1-0.1,4.2-0.2c0.9,0,1.7,0.7,1.7,1.6L123.1,216.9z"/>
		<path class="st1" d="M387.1,221.2v38.7c0,1.1-1,1.8-2,1.5c-4.9-1.4-18.4-5.2-38.4-9.2c-0.7-0.5-1.8-1.1-3.2-1.2
			c-0.6-0.6-1.3-1.2-2-1.7c-1.3-0.9-2.7-1.6-4.1-2c-1.4-0.4-2.8-0.6-4.1-0.6c-0.8,0-1.6,0.1-2.3,0.3c-1.4,0.3-2.8,0.8-4.1,1.5
			c-0.8-0.1-1.6-0.3-2.4-0.4c-0.6-0.8-1.4-1.5-2.2-2.1c-0.8-0.6-1.6-1.2-2.5-1.7c-1-0.6-1.8-1-2.5-1.3l-0.1,0
			c-0.9-0.3-1.8-0.4-2.7-0.4c-1.1,0-2.2,0.3-3.3,0.8c-0.6,0.3-1.2,0.6-1.8,0.9c-0.1-0.1-0.2-0.2-0.3-0.3c-0.8-1-1.7-1.7-2.6-2.4
			c-0.6-0.4-1.2-0.7-1.8-0.9c0.1-0.2,0.2-0.5,0.4-0.7c0.2-0.5,0.5-0.9,0.7-1.4c0.1,0,0.1,0,0.2,0l4.3,0.6c5,0.7,10,1.5,14.9,2.4
			l4.7,0.8l4.6,0.9c12.9,2.4,25.8,5.3,38.5,8.6l6.3,1.6c0.8,0.2,1.5-0.4,1.5-1.2V226c0-0.6-0.4-1.1-1-1.2l-2.1-0.4
			c-0.6-0.1-1-0.6-1-1.2l0-19.8c0-0.7,0.6-1.2,1.3-1.2l0.8,0.1c0.7,0,1.3-0.5,1.3-1.2l0-26.1c0-0.7-0.5-1.2-1.2-1.2h-72.7
			c-0.5,0-0.9,0.3-1.1,0.7c-1,2.2-4.3,9.1-6.4,13.4c-0.4,0.9-1.7,0.9-2.2,0c-1-2-2-4-3-6c-0.4-0.8,0.2-1.8,1.1-1.8h5.5
			c0.7,0,1.2-0.5,1.2-1.2v-33c0-0.7-0.5-1.2-1.2-1.2h-31.3c-0.7,0-1.2,0.5-1.2,1.2v3.4c0,1.1-1.3,1.6-2.1,0.8c0,0,0,0,0,0
			c-1.6-1.7-3.5-3-5.7-4c-2.3-1-4.8-1.5-7.5-1.5c-2.6,0-5.1,0.5-7.3,1.4c-0.2,0.1-0.4,0.2-0.6,0.3c-0.2,0.1-0.5,0.1-0.7,0.1
			l-8.9-1.3c-0.1,0-0.3-0.1-0.4-0.1l-6.5-3.6c-0.4-0.2-0.8-0.2-1.2,0l-6.5,3.6c-0.1,0.1-0.3,0.1-0.4,0.1l-6.5,0.9
			c-0.2,0-0.4,0-0.6-0.1c-0.3-0.1-0.6-0.2-1-0.3c-1-0.3-2.1-0.6-3.1-0.8c-1.2-0.2-2.5-0.4-3.7-0.4c-1.8,0-3.6,0.3-5.2,0.8
			c-1.8,0.6-3.4,1.4-4.8,2.5c-0.2,0.1-0.4,0.3-0.5,0.4c-0.8,0.7-2,0.2-2-0.9v-1.4c0-0.7-0.5-1.2-1.2-1.2h-56.9
			c-0.7,0-1.2,0.5-1.2,1.2v26.7c0,0.7-0.5,1.2-1.2,1.2H98.9c-0.4,0-0.8,0.2-1.1,0.6l-1.4,2.6c-1.2,2.2-2.4,4.4-3.6,6.6
			c-0.5,0.8-1.7,0.8-2.1,0c-1.1-2.1-2.2-4.2-3.3-6.4l-1.4-2.7c-0.2-0.4-0.6-0.7-1.1-0.7H57c-0.9,0-1.5,1-1.1,1.8L60,183
			c5.3,9.6,10.7,18.9,16.1,27.8c0.2,0.4,0.2,0.8,0,1.2c-5.4,10-10.7,20.5-15.7,31.1l-4.6,9.7c-0.4,0.9,0.4,1.9,1.4,1.7l10.4-2.7
			c5.3-1.4,10.7-2.6,16-3.9l0.9-0.2c-0.4,0.7-0.7,1.3-1.1,2c-0.7,1.4-1.4,2.7-2.1,4c-11.4,2.7-22.9,5.9-34.3,9.5
			c-1.3,0.4-2.5-1-1.9-2.2l23.9-48.7c0.2-0.5,0.2-1.1-0.1-1.5c-4.7-7.9-18.8-33.1-23.2-41c-0.6-1.1,0.2-2.4,1.4-2.4h78
			c0.9,0,1.6-0.7,1.6-1.6V140c0-0.9,0.7-1.6,1.6-1.6H306c0.9,0,1.6,0.7,1.6,1.6v25.9c0,0.9,0.7,1.6,1.6,1.6h75.6
			c0.9,0,1.6,0.7,1.6,1.6l0,38.1c0,0.9-0.7,1.6-1.6,1.6c0,0-0.1,0-0.1,0c-0.9-0.1-1.7,0.7-1.7,1.6l0,7.3c0,0.8,0.5,1.4,1.3,1.6
			l1.5,0.3C386.5,219.7,387.1,220.4,387.1,221.2z"/>
		<g>
			<path class="st1" d="M155.6,151.3v4.7c0,0.2-0.2,0.4-0.4,0.4h-9c-0.2,0-0.4,0.2-0.4,0.4v3c0,0.2,0.2,0.4,0.4,0.4h7.2
				c0.2,0,0.4,0.2,0.4,0.4v4.3c0,0.2-0.2,0.4-0.4,0.4h-7.2c-0.2,0-0.4,0.2-0.4,0.4v7.7c0,0.2-0.2,0.4-0.4,0.4h-5.8
				c-0.2,0-0.4-0.2-0.4-0.4v-22.1c0-0.2,0.2-0.4,0.4-0.4h15.6C155.4,150.9,155.6,151.1,155.6,151.3z"/>
			<path class="st1" d="M186.1,151.3v11.4c0,1.6-0.2,3.1-0.6,4.5c-0.4,1.4-1.1,2.6-2,3.6c-0.9,1-2,1.8-3.4,2.4
				c-1.4,0.6-3,0.9-4.8,0.9c-1.9,0-3.5-0.3-4.9-0.9c-1.4-0.6-2.5-1.4-3.3-2.5c-0.9-1-1.5-2.2-1.9-3.6c-0.4-1.4-0.6-2.8-0.6-4.3
				v-11.4c0-0.2,0.2-0.4,0.4-0.4h5.8c0.2,0,0.4,0.2,0.4,0.4v11.4c0,0.8,0.1,1.5,0.2,2.2c0.2,0.7,0.4,1.3,0.7,1.8s0.8,0.9,1.3,1.3
				c0.5,0.3,1.2,0.5,1.9,0.5c0.8,0,1.4-0.2,1.9-0.5c0.5-0.3,1-0.7,1.3-1.3c0.3-0.5,0.6-1.1,0.7-1.8c0.2-0.7,0.2-1.4,0.2-2.2v-11.4
				c0-0.2,0.2-0.4,0.4-0.4h5.8C185.9,150.9,186.1,151.1,186.1,151.3z"/>
			<path class="st1" d="M214.4,166.8c0,1.4-0.3,2.5-0.8,3.5c-0.5,0.9-1.2,1.7-2.1,2.2c-0.9,0.6-1.8,1-2.9,1.2
				c-1.1,0.3-2.2,0.4-3.3,0.4c-0.9,0-1.8-0.1-2.7-0.2c-0.9-0.1-1.8-0.3-2.7-0.5c-0.9-0.2-1.8-0.5-2.6-0.8c-0.7-0.3-1.4-0.6-2-0.9
				c-0.2-0.1-0.3-0.3-0.2-0.5l2.5-4.8c0.1-0.2,0.3-0.3,0.5-0.2c0.7,0.4,1.4,0.7,2.1,1.1c1,0.4,2.1,0.8,3.4,1.1c0,0,0,0,0.1,0
				c1.7,0.2,2.8,0.2,3.3-0.1c0.3-0.2,0.4-0.4,0.4-0.7c0-0.3-0.1-0.6-0.4-0.8c-0.3-0.2-0.7-0.4-1.2-0.6c-0.5-0.2-1.1-0.3-1.7-0.5
				c-0.6-0.2-1.3-0.4-2-0.6c-1.1-0.3-2-0.7-2.7-1.1c-0.8-0.4-1.4-0.8-1.9-1.4c-0.5-0.5-0.9-1.1-1.1-1.7c-0.2-0.6-0.4-1.4-0.4-2.2
				c0-1.3,0.2-2.4,0.7-3.4c0.5-1,1.1-1.8,2-2.4c0.8-0.6,1.8-1.1,2.8-1.5c1.1-0.3,2.2-0.5,3.4-0.5c0.9,0,1.7,0.1,2.6,0.2
				c0.8,0.2,1.6,0.4,2.4,0.6c0.8,0.3,1.5,0.5,2.2,0.8c0.5,0.2,1,0.4,1.4,0.6c0.2,0.1,0.3,0.3,0.2,0.5l-2.4,4.5
				c-0.1,0.2-0.3,0.3-0.5,0.2c-0.6-0.3-1.1-0.6-1.7-0.8c-0.6-0.3-1.3-0.5-2-0.7c-0.8-0.2-1.5-0.3-2.2-0.3c-0.6,0-1,0.1-1.4,0.3
				c-0.3,0.2-0.5,0.5-0.5,0.9c0,0.3,0.1,0.6,0.3,0.7c0.2,0.2,0.5,0.4,0.9,0.5c0.4,0.2,0.8,0.3,1.4,0.5c0.5,0.2,1.2,0.3,1.9,0.6
				c1.1,0.3,2.1,0.7,3,1.1c0.9,0.4,1.6,0.8,2.3,1.4c0.6,0.5,1.1,1.2,1.4,1.9S214.4,165.7,214.4,166.8z"/>
			<path class="st1" d="M230.6,165v8.4c0,0.2-0.2,0.4-0.4,0.4h-5.8c-0.2,0-0.4-0.2-0.4-0.4V165c0-0.1,0.1-0.3,0.2-0.3l2.9-1.5
				c0.1-0.1,0.2-0.1,0.4,0l2.9,1.5C230.5,164.8,230.6,164.9,230.6,165z"/>
			<path class="st1" d="M263.5,158.2c-0.6-1.4-1.4-2.6-2.4-3.7c-1.1-1.1-2.3-2-3.8-2.6c-1.5-0.7-3.1-1-4.9-1c-1.8,0-3.4,0.3-4.9,0.9
				c-1.5,0.6-2.8,1.5-3.9,2.6c-1.1,1.1-1.9,2.3-2.5,3.7c-0.6,1.4-0.9,2.8-0.9,4.4c0,1.5,0.3,2.9,0.9,4.3c0.6,1.4,1.4,2.6,2.5,3.7
				c1.1,1.1,2.3,2,3.8,2.6c1.5,0.7,3.1,1,4.9,1c1.8,0,3.4-0.3,4.9-1c1.5-0.6,2.8-1.5,3.9-2.6c1.1-1.1,1.9-2.3,2.5-3.7
				c0.6-1.4,0.9-2.8,0.9-4.3C264.4,161,264.1,159.6,263.5,158.2z M257.4,164.6c-0.2,0.7-0.5,1.4-1,2c-0.4,0.6-1,1-1.7,1.4
				c-0.7,0.4-1.5,0.5-2.5,0.5c-0.9,0-1.8-0.2-2.4-0.5c-0.7-0.3-1.3-0.8-1.7-1.4c-0.5-0.6-0.8-1.2-1-1.9c-0.2-0.7-0.3-1.5-0.3-2.2
				c0-0.8,0.1-1.5,0.3-2.2c0.2-0.7,0.5-1.4,1-1.9c0.4-0.6,1-1,1.7-1.4c0.7-0.3,1.5-0.5,2.4-0.5c0.9,0,1.7,0.2,2.4,0.5
				c0.7,0.3,1.3,0.8,1.7,1.3c0.5,0.6,0.8,1.2,1,1.9c0.2,0.7,0.3,1.5,0.3,2.2C257.7,163.1,257.6,163.8,257.4,164.6z"/>
			<path class="st1" d="M295.2,151.3v22.1c0,0.2-0.2,0.4-0.4,0.4h-4.6c-0.1,0-0.2-0.1-0.3-0.1l-8.7-10.3c-0.2-0.3-0.7-0.1-0.7,0.2
				v9.8c0,0.2-0.2,0.4-0.4,0.4h-5.8c-0.2,0-0.4-0.2-0.4-0.4v-22.1c0-0.2,0.2-0.4,0.4-0.4h4.5c0.1,0,0.2,0.1,0.3,0.1l8.8,10.7
				c0.2,0.3,0.7,0.1,0.7-0.2v-10.2c0-0.2,0.2-0.4,0.4-0.4h5.8C295,150.9,295.2,151.1,295.2,151.3z"/>
			<path class="st1" d="M99.8,209.1c-0.2,0.3-0.1,0.6,0,0.8c2.7,4.1,5.3,8,8,11.9c-1.7,0.6-3.3,1.5-4.9,2.7
				c-2.2,1.6-4.4,3.5-6.4,5.8c-1.4-2.4-2.7-4.8-4.1-7.2c-0.3-0.6-1.1-0.5-1.4,0c-2.9,5.9-5.7,12.1-8.6,18.4
				c-0.1,0.2-0.3,0.4-0.5,0.4c-4.7,1.1-9.5,2.2-14.2,3.4c-0.6,0.2-1.2-0.5-0.9-1.1c5.5-11.6,11.1-22.4,16.7-32.7
				c0.1-0.2,0.1-0.5,0-0.8c-5.8-9.3-11.6-19.1-17.4-29.7c-0.3-0.5,0.1-1.2,0.7-1.2h14.6c0.3,0,0.6,0.2,0.7,0.4c3,5.9,6,11.6,9,17.2
				c0.3,0.5,1.1,0.5,1.4,0c3.1-5.9,6.1-11.6,9.2-17.2c0.1-0.3,0.4-0.4,0.7-0.4h14.4c0.6,0,1,0.7,0.6,1.2
				C111.5,190,105.6,199.2,99.8,209.1z"/>
			<path class="st1" d="M166.9,180.8l-0.1,10.1c0,0.4-0.3,0.8-0.8,0.8c-4.8,0.1-9.6,0.2-14.3,0.3c-0.4,0-0.8,0.4-0.8,0.8
				c-0.1,12.3-0.2,24.5-0.3,36.8c0,0.4-0.3,0.7-0.7,0.8c-4.5,0.5-9.1,1.1-13.6,1.7c-0.5,0.1-0.9-0.3-0.9-0.8
				c0.1-12.7,0.2-25.3,0.3-38c0-0.4-0.4-0.8-0.8-0.8c-4.8,0.2-9.5,0.3-14.3,0.5c-0.4,0-0.8-0.3-0.8-0.8c0-3.8,0.1-7.7,0.1-11.5
				c0-0.4,0.4-0.8,0.8-0.8h45.3C166.5,180,166.9,180.3,166.9,180.8z"/>
			<path class="st1" d="M206.7,210.1c-0.2-0.4-0.2-0.8,0.2-1.1c2.2-1.5,3.9-3.2,5.2-5.4c1.4-2.3,2.1-4.9,2.1-7.6
				c0-2-0.5-3.9-1.4-5.8c-0.9-1.9-2.2-3.7-3.8-5.2c-1.6-1.5-3.6-2.7-5.9-3.7c-2.3-0.9-4.8-1.4-7.4-1.4h-24.5c-0.4,0-0.8,0.3-0.8,0.8
				c-0.1,15.6-0.2,31.2-0.3,46.8c0,0.5,0.4,0.8,0.8,0.8c3.5-0.3,7-0.5,10.5-0.7c0.2-0.3,0.5-0.7,0.8-1l0.1-0.1
				c0.9-1,1.6-1.7,2.2-2.3c0.3-0.3,0.6-0.5,0.9-0.7c0-3.3,0-6.7,0.1-10c0-0.4,0.3-0.8,0.7-0.8c1.5-0.1,3-0.1,4.5-0.2
				c0.3,0,0.5,0.1,0.7,0.3c3.1,4.5,6.1,8.9,9.2,13.4c0.2,0.2,0.4,0.3,0.7,0.3c0.5,0,1.1,0,1.6,0c0.1-0.2,0.2-0.3,0.2-0.5
				c0.6-1.3,1.1-2.3,1.6-3.2l0-0.1l0.1-0.1c1-1.6,2.7-2.6,4.6-2.7c1,0,2.1,0.2,3.1,0.8c1,0.5,1.9,1.2,2.9,2c0.4,0.4,0.8,0.8,1.1,1.2
				C213.1,219.4,209.9,214.7,206.7,210.1z M197.6,199.9c-0.8,0.9-1.7,1.3-2.6,1.4c-2.9,0.1-5.8,0.1-8.8,0.2c-0.4,0-0.8-0.3-0.8-0.8
				c0-2.9,0-5.7,0.1-8.6c0-0.4,0.3-0.8,0.8-0.8c2.8,0,5.6-0.1,8.4-0.1c0.9,0,1.9,0.4,2.8,1.3c0.9,0.8,1.4,2.1,1.4,3.7
				C198.8,197.8,198.4,199,197.6,199.9z"/>
			<path class="st1" d="M262.4,227c0,0.5-0.4,0.8-0.8,0.8c-12.6-0.8-25.3-1.3-37.9-1.4c-0.4,0-0.8-0.4-0.8-0.8c0-14.9,0-29.9,0-44.8
				c0-0.4,0.3-0.8,0.8-0.8h37c0.4,0,0.8,0.3,0.8,0.8c0,3.3,0,6.6,0.1,9.9c0,0.4-0.4,0.8-0.8,0.8c-7.3-0.1-14.6-0.2-21.9-0.3
				c-0.4,0-0.8,0.3-0.8,0.8c0,1.7,0,3.3,0,5c0,0.4,0.3,0.8,0.8,0.8c6.2,0.1,12.4,0.2,18.5,0.3c0.4,0,0.8,0.4,0.8,0.8c0,3,0,6,0.1,9
				c0,0.4-0.4,0.8-0.8,0.8c-6.2-0.2-12.3-0.4-18.5-0.5c-0.4,0-0.8,0.3-0.8,0.8c0,1.9,0,3.9,0,5.8c0,0.4,0.3,0.8,0.8,0.8
				c7.6,0.2,15.2,0.5,22.8,0.8c0.4,0,0.7,0.4,0.7,0.8C262.3,220.4,262.3,223.7,262.4,227z"/>
			<path class="st1" d="M326.3,234.6c0,0.5-0.4,0.9-0.9,0.8c-4.5-0.8-9-1.5-13.5-2.2c-0.4-0.1-0.7-0.4-0.7-0.8
				c-0.1-8-0.1-16-0.2-23.9c0-0.8-1.1-1.1-1.5-0.3c-2.5,5.1-4.9,10.1-7.4,15.1c-0.1,0.3-0.5,0.5-0.8,0.4c-2.4-0.3-4.7-0.5-7.1-0.8
				c-0.3,0-0.5-0.2-0.6-0.4c-2.6-5.4-5.2-10.7-7.7-15.9c-0.4-0.7-1.5-0.5-1.5,0.4c0,5.5,0.1,10.9,0.1,16.4c-0.2,0-0.4,0-0.6,0
				c-0.9,0-1.7,0.3-2.5,0.7c-0.7,0.4-1.4,1-1.9,1.7c-0.3,0.5-0.6,0.9-0.7,1.2c-0.3,0.5-0.6,1.2-1.1,2.1c-2.6-0.2-5.1-0.5-7.7-0.7
				c-0.4,0-0.7-0.4-0.7-0.8c-0.1-15.6-0.2-31.2-0.3-46.9c0-0.4,0.3-0.8,0.8-0.8h15.3c0.3,0,0.6,0.2,0.7,0.4
				c3.7,7.2,7.5,14.7,11.2,22.3c0.3,0.6,1.1,0.6,1.4,0c3.6-7.2,7.2-14.6,10.8-22.3c0.1-0.3,0.4-0.4,0.7-0.4h15.2
				c0.4,0,0.8,0.3,0.8,0.8C326,198.7,326.2,216.6,326.3,234.6z"/>
			<path class="st1" d="M374.6,230.8v14.1c0,0.5-0.5,0.9-1,0.7c-12.4-3.1-24.8-5.9-37.2-8.3c-0.4-0.1-0.6-0.4-0.6-0.8
				c-0.1-18.6-0.3-37.2-0.4-55.8c0-0.4,0.3-0.8,0.8-0.8h37c0.4,0,0.8,0.3,0.8,0.8c0,4.7,0,9.4,0,14.1c0,0.4-0.4,0.8-0.8,0.8
				c-7.2-0.4-14.5-0.8-21.7-1.2c-0.4,0-0.8,0.3-0.8,0.8c0,2.3,0,4.6,0,7c0,0.4,0.3,0.7,0.7,0.8c6.2,0.5,12.3,1,18.5,1.6
				c0.4,0,0.7,0.4,0.7,0.8c0,4.3,0,8.6,0,12.8c0,0.5-0.4,0.8-0.9,0.8c-6-0.9-12.1-1.7-18.1-2.5c-0.5-0.1-0.9,0.3-0.9,0.8
				c0,2.7,0,5.3,0,8c0,0.4,0.3,0.7,0.7,0.8c7.6,1.2,15.1,2.6,22.6,4C374.3,230.1,374.6,230.4,374.6,230.8z"/>
			<path class="st1" d="M231.7,156.2c-0.1,0.1-0.1,0.2-0.1,0.3l0.8,4.9c0.1,0.3-0.3,0.6-0.6,0.4l-1.8-1l-2.6-1.3
				c-0.1-0.1-0.3-0.1-0.4,0l-2.6,1.3l-1.8,1c-0.3,0.2-0.6-0.1-0.6-0.4l0.8-4.9c0-0.1,0-0.3-0.1-0.3l-3.6-3.5
				c-0.2-0.2-0.1-0.6,0.2-0.7l4.9-0.7c0.1,0,0.2-0.1,0.3-0.2l2.2-4.4c0.1-0.3,0.6-0.3,0.7,0l2.2,4.4c0.1,0.1,0.2,0.2,0.3,0.2
				l4.9,0.7c0.3,0.1,0.4,0.4,0.2,0.7L231.7,156.2z"/>
		</g>
	</g>
	<g>
		<path class="st1" d="M302.1,234.6c-0.4,1.1-0.8,2.1-1.4,3.1c-0.5,1-1.1,2-1.6,2.9c-0.4,0.7-0.8,1.4-1.2,2
			c-0.2-0.3-0.4-0.5-0.6-0.7c-0.8-0.9-1.7-1.6-2.5-2.2c-0.6-0.4-1.1-0.7-1.7-0.9c0.2-0.6,0.5-1.1,0.7-1.6c0.3-0.8,0.6-1.6,0.9-2.4
			c0.3-0.8,0.7-1.6,1.1-2.4c0.4-0.8,0.9-1.6,1.5-2.6c0.3-0.3,0.8-0.3,1.5,0c0.7,0.3,1.3,0.7,1.9,1.3c0.6,0.6,1.1,1.2,1.4,1.8
			C302.4,233.7,302.4,234.2,302.1,234.6z"/>
		<path class="st1" d="M355,262.9c-0.1-0.3-0.2-0.5-0.4-0.7c-0.2-0.2-0.4-0.3-0.7-0.3c-0.3-0.1-0.5,0-0.7,0.1
			c-0.8,0.9-1.5,1.7-2.3,2.5c-0.8,0.8-1.6,1.5-2.4,2.3c-1.1,0.9-2.2,1.8-3.2,2.6c-1.1,0.8-2.2,1.6-3.4,2.3c0-0.1,0.1-0.2,0.1-0.3
			c0.2-0.3,0.4-0.6,0.5-0.9c0.2-0.3,0.3-0.6,0.5-0.8c0.5-0.7,1-1.5,1.6-2.2c0.6-0.8,1.1-1.5,1.6-2.2c0.5-0.7,0.9-1.2,1.3-1.7
			c0.3-0.5,0.5-0.8,0.6-1c0-0.5-0.3-1.1-0.8-1.9c-0.5-0.8-1-1.6-1.6-2.3c-0.6-0.7-1.1-1.3-1.7-1.7c-0.5-0.4-0.9-0.6-1-0.3
			c-0.3,0.4-0.6,0.7-1,1.1c-0.1-0.3-0.3-0.6-0.5-0.8c-0.2-0.3-0.4-0.6-0.7-0.9c-0.8-0.8-1.5-1.4-2.3-2c-0.8-0.6-1.6-1-2.5-1.3
			c-1.4-0.4-2.7-0.5-4-0.2c-1.3,0.3-2.5,0.8-3.7,1.5c-1.2,0.7-2.3,1.7-3.3,2.8c-1,1.1-1.9,2.3-2.6,3.6c-0.2,0.4-0.4,0.8-0.6,1.3
			c-0.7,0.8-1.3,1.5-2,2.3c-0.8,0.9-1.6,1.7-2.3,2.4c-0.7,0.7-1.2,1.2-1.7,1.5c-0.5,0.3-0.8,0.4-0.9,0.2c-0.1-0.1-0.1-0.2,0-0.4
			c0.1-0.2,0.2-0.4,0.4-0.7c0.6-1,1.3-2,2-3s1.4-2,2.1-3.1c0.6-1.1,1.2-2.2,1.6-3.4c0.4-1.2,0.6-2.4,0.5-3.8c-0.1-0.5-0.3-1-0.8-1.6
			c-0.5-0.6-1-1.1-1.7-1.6c-0.6-0.5-1.3-1-2-1.4c-0.7-0.4-1.2-0.7-1.6-0.8c-0.7-0.2-1.4-0.2-2.3,0.2c-0.8,0.4-1.7,0.9-2.7,1.7
			c-0.9,0.8-1.9,1.7-2.8,2.7c-1,1.1-1.9,2.2-2.8,3.3c0.2-0.7,0.6-1.6,1.2-2.5c0-0.1,0.1-0.2,0.3-0.3c0.2-0.2,0.3-0.3,0.5-0.5
			c0.2-0.2,0.3-0.4,0.5-0.6c0.2-0.2,0.2-0.3,0.2-0.4c0-0.5-0.2-1.1-0.7-1.8c-0.4-0.7-1-1.4-1.5-2.1c-0.6-0.7-1.1-1.2-1.7-1.6
			c-0.5-0.4-0.9-0.4-1.1-0.2c0,0,0-0.1,0-0.1s-0.1,0.1-0.1,0.3c-0.1,0.2-0.2,0.5-0.4,0.9c-0.2,0.4-0.5,1-0.8,1.8
			c-0.2,0.4-0.5,1-0.9,1.8c-0.2,0.5-0.5,0.9-0.7,1.4c-0.3,0.3-0.6,0.7-0.9,1c-0.8,1-1.6,2-2.4,3c-0.8,1-1.7,2-2.5,3
			c-0.8,1-1.6,1.8-2.3,2.6c-0.7,0.7-1.3,1.3-1.7,1.6c-0.5,0.4-0.8,0.4-0.9,0.3c-0.1-0.2-0.1-0.6,0.2-1.4c0.3-0.7,0.7-1.6,1.2-2.6
			c0.5-1,1.1-2,1.7-3.2c0.6-1.1,1.2-2.1,1.8-3.1c0.6-1,1-1.8,1.4-2.5c0-0.1,0.1-0.1,0.1-0.1c0.3-0.6,0.5-1,0.5-1.2
			c-0.1-0.4-0.3-1-0.8-1.8c-0.5-0.7-1-1.4-1.6-2.1c-0.6-0.6-1.2-1.2-1.7-1.5c-0.5-0.4-0.9-0.4-1.1-0.2c-0.2,0.2-0.5,0.6-1,1.4
			c-0.1,0.2-0.3,0.5-0.5,0.7c-0.4,0.6-0.8,1.3-1.2,2.1c-0.3,0.6-0.7,1.2-1,1.8c-0.3,0.4-0.7,0.8-1.1,1.3c-0.8,1-1.6,2-2.5,3.1
			c-0.8,1.1-1.7,2.1-2.5,3.1c-0.8,1-1.6,1.9-2.3,2.6c-0.7,0.8-1.3,1.3-1.7,1.7c-0.5,0.4-0.8,0.5-0.9,0.3c-0.1-0.2-0.1-0.6,0.1-1.1
			c0.2-0.6,0.5-1.3,0.8-2.1c0.4-0.8,0.8-1.7,1.2-2.7c0.5-1,0.9-1.9,1.4-2.9c0.5-0.9,0.9-1.8,1.3-2.7c0.4-0.8,0.7-1.5,0.9-2.1
			c0.1-0.2,0.3-0.7,0.7-1.5c0.4-0.8,0.8-1.7,1.4-2.7c0.2-0.4,0.4-0.8,0.6-1.3c0.3-0.7,0.7-1.4,1.1-2.1c0.6-1.2,1.2-2.2,1.6-3.2
			c0.2-0.4,0.4-0.7,0.6-1.1c0.4-0.7,0.8-1.4,1.2-2.3c-0.1-0.5-0.3-1.1-0.8-1.8c-0.5-0.7-1-1.4-1.6-2.1c-0.6-0.6-1.2-1.1-1.7-1.5
			c-0.1-0.1-0.2-0.1-0.3-0.2c-0.4-0.2-0.6-0.2-0.7,0c0,0-0.2,0.3-0.5,0.8c-0.1,0.1-0.1,0.2-0.2,0.3c-0.3,0.5-0.6,1.1-1,1.9
			c-0.5,0.9-1,1.9-1.5,3c-0.2,0.3-0.3,0.7-0.5,1c-0.4,0.8-0.8,1.5-1.1,2.3c-0.6,1.1-1.1,2.1-1.5,3c-0.2,0.4-0.4,0.7-0.5,1.1
			c-0.2,0.4-0.4,0.8-0.5,1.2c-0.1,0.3-0.3,0.6-0.4,0.9c-0.2,0.3-0.3,0.7-0.5,1c-0.3-0.5-0.7-1-1.2-1.5c-0.8-0.7-1.6-1.2-2.4-1.7
			c-0.2-0.1-0.5-0.3-0.7-0.4c-0.6-0.3-1.2-0.4-1.8-0.5c-1-0.1-2-0.1-2.9,0.1c0,0,0,0,0,0c-0.4,0.1-0.7,0.2-1.1,0.3
			c-1.3,0.5-2.6,1.2-3.8,2.1c-1.2,0.9-2.3,2-3.4,3.3c-1,1.3-1.9,2.6-2.6,4c-0.2,0.4-0.4,0.8-0.6,1.2c-0.3,0.4-0.7,0.8-1,1.2
			c-1.1,1.3-2.1,2.5-3.1,3.6c-1,1.1-1.9,2-2.8,2.7c-0.3,0-0.4-0.2-0.3-0.4c0-0.3,0.2-0.7,0.4-1.1c0.2-0.4,0.5-0.9,0.8-1.4
			c0.3-0.5,0.6-1,0.8-1.5c0.5-0.8,1-1.7,1.6-2.6c0.6-0.9,1.1-1.7,1.6-2.5c0.5-0.8,0.9-1.4,1.3-2c0.3-0.6,0.5-0.9,0.6-1.1
			c0-0.5-0.3-1.1-0.8-1.8c-0.5-0.7-1-1.4-1.6-1.9c-0.6-0.6-1.2-1.1-1.7-1.4c-0.5-0.3-0.9-0.4-1.1-0.1c-0.1,0.1-0.2,0.3-0.3,0.5
			c-0.2,0.2-0.3,0.5-0.5,0.9c-0.3-0.4-0.7-0.9-1.2-1.6c-0.8-0.6-1.6-1.1-2.4-1.5c-0.3-0.1-0.5-0.2-0.8-0.3c-0.6-0.2-1.1-0.3-1.8-0.4
			c-0.9-0.1-1.7,0-2.6,0.2c0,0,0,0,0,0c-0.5,0.1-1,0.3-1.5,0.5c-1.3,0.6-2.6,1.3-3.8,2.3c-1.2,1-2.3,2.2-3.4,3.5
			c-0.9,1.2-1.7,2.5-2.4,3.8c-0.1,0.2-0.2,0.3-0.4,0.5c-1.2,1.6-2.4,3.1-3.6,4.4c-1.3,1.4-2.5,2.5-3.7,3.5c-1.2,1-2.4,1.7-3.4,2.3
			c-1.1,0.5-2,0.8-2.7,0.7c-0.5-0.1-0.7-0.2-0.9-0.5c-0.1-0.3-0.2-0.6-0.2-1c0-0.4,0.1-0.9,0.3-1.3c0.1-0.5,0.3-0.9,0.4-1.4
			c0.1-0.2,0.1-0.4,0.2-0.7c0.1-0.2,0.2-0.5,0.3-0.8c0.6-0.1,1.4-0.2,2.4-0.5c1-0.3,2-0.8,3-1.3c1.1-0.6,2.1-1.3,3.2-2.1
			c1.1-0.8,2-1.9,2.9-3c0.5-0.6,0.9-1.2,1.2-1.7c0.4-0.5,0.6-1.1,0.7-1.6c0.1-0.5,0-1.1-0.2-1.7c-0.2-0.6-0.8-1.3-1.5-2
			c-0.8-0.6-1.6-1.1-2.4-1.4c-0.8-0.4-1.6-0.6-2.5-0.6c-1.4,0-2.7,0.2-4,0.9c-1.3,0.6-2.5,1.5-3.6,2.5c-1.1,1.1-2.2,2.3-3.1,3.6
			c-0.9,1.4-1.7,2.8-2.4,4.2c-0.1,0.1-0.1,0.3-0.2,0.4c-0.1,0.1-0.2,0.2-0.3,0.4c-0.8,1.2-1.7,2.4-2.5,3.5c-0.8,1.1-1.6,2.2-2.3,3
			c-0.7,0.9-1.3,1.5-1.7,2c-0.5,0.5-0.8,0.6-0.9,0.4c-0.1-0.2-0.1-0.5,0.1-1.2c0.2-0.6,0.4-1.3,0.8-2.2c0.3-0.9,0.7-1.8,1.2-2.9
			c0.5-1.1,0.9-2.1,1.4-3.1c0.5-1,0.9-2,1.3-2.9c0.4-0.9,0.8-1.7,1-2.3c0.1-0.2,0.3-0.7,0.7-1.6c0.4-0.8,0.8-1.8,1.4-3
			c0.3-0.6,0.6-1.3,0.9-2c0.2-0.5,0.5-1.1,0.7-1.6c0.6-1.3,1.2-2.4,1.7-3.5c0.2-0.4,0.4-0.8,0.6-1.2c0.4-0.8,0.8-1.6,1.2-2.5
			c0-0.5-0.3-1-0.8-1.7c-0.5-0.7-1-1.3-1.6-1.8c-0.1-0.1-0.1-0.1-0.2-0.2c-0.5-0.5-1-0.8-1.5-1.1c-0.6-0.3-0.9-0.3-1.1,0
			c-0.2,0.3-0.4,0.7-0.6,1.1c-0.3,0.5-0.5,1.1-0.8,1.8c-0.6,1.2-1.2,2.5-1.8,4c-0.1,0.2-0.2,0.4-0.3,0.6c-0.6,1.3-1.2,2.6-1.8,4
			c-0.3,0.7-0.7,1.4-1,2.2c-0.4,0.9-0.8,1.7-1.2,2.6c-0.7,1.6-1.4,3-2,4.5c-0.1,0.1-0.1,0.3-0.2,0.4c-0.4,0.6-0.8,1.2-1.3,1.8
			c-0.9,1.2-1.8,2.4-2.7,3.6c-0.9,1.3-1.9,2.5-2.8,3.7c-0.9,1.2-1.8,2.3-2.6,3.3c-0.8,1-1.5,1.8-2,2.3c-0.6,0.6-1,0.9-1.2,0.9
			c-0.5,0.2-0.8,0-0.7-0.7c0.1-0.6,0.5-1.6,1.2-2.9c0.5-0.8,1-1.7,1.6-2.7c0.6-1,1.2-2,1.9-3c0.7-1,1.3-2.1,2-3.1
			c0.6-1,1.2-1.9,1.7-2.7c0.5-0.8,0.9-1.5,1.2-2c0.3-0.5,0.4-0.8,0.3-0.9c0-0.3-0.1-0.8-0.4-1.5c-0.2-0.7-0.6-1.2-1.1-1.6
			c-0.1-0.1-0.4-0.1-0.9,0c-0.5,0.1-1.1,0.2-1.7,0.2c-0.6,0.1-1.3,0.2-2,0.2c-0.7,0.1-1.3,0.1-1.7,0c-0.2,0-0.4-0.1-0.6-0.3
			c-0.1-0.1-0.2-0.3-0.3-0.4c-0.1-0.2,0-0.6,0.2-1.2c0-0.1,0-0.1,0.1-0.2c0.3-0.7,0.7-1.6,1.3-2.5c0.5-0.9,1.1-1.9,1.7-2.8
			c0.6-0.9,1.2-1.7,1.7-2.4c0.4-0.5,0.5-1,0.4-1.6c-0.1-0.5-0.4-1-0.7-1.5c-0.2-0.2-0.4-0.4-0.6-0.6c-0.2-0.2-0.4-0.3-0.6-0.5
			c-0.4-0.3-0.7-0.4-0.9-0.5c-0.1-0.1-0.2-0.1-0.4-0.1c-0.2,0-0.4,0.1-0.7,0.2c-0.3,0.2-0.7,0.5-1.1,0.9c-0.5,0.4-1.1,1-1.8,1.9
			c-0.7,0.8-1.2,1.7-1.6,2.7c-0.2,0.4-0.3,0.7-0.4,1.1c-0.2,0.7-0.4,1.4-0.5,2.1c-0.2,1.1-0.2,2.2-0.1,3.2c0,0.2,0.1,0.4,0.1,0.6
			c0.1,0.8,0.4,1.6,0.8,2.2c-0.6,1-1.2,2-1.8,3c-0.5,0.9-0.9,1.6-1.3,2.3c-1.3,1.9-2.6,3.8-3.9,5.8c-1.2,1.7-2.4,3.4-3.6,4.9
			c-1.3,1.5-2.5,2.8-3.7,3.9c-1.2,1.1-2.3,2-3.4,2.7c-1.1,0.7-1.9,1-2.7,1c-0.4,0-0.7-0.1-0.9-0.4c-0.1-0.3-0.2-0.6-0.2-1
			c0-0.4,0.1-0.9,0.3-1.4c0.1-0.5,0.3-1,0.4-1.4c0.1-0.2,0.1-0.4,0.2-0.7c0.1-0.3,0.2-0.5,0.3-0.8c0.6-0.1,1.4-0.4,2.3-0.8
			c0.9-0.4,1.9-1,3-1.7c1-0.7,2.1-1.5,3.1-2.5c1.1-1,2-2.1,2.9-3.4c0.5-0.7,0.9-1.3,1.2-1.9c0.4-0.6,0.6-1.1,0.7-1.7
			c0.1-0.6,0-1.1-0.2-1.7c-0.2-0.6-0.7-1.2-1.5-1.8c-0.8-0.5-1.6-0.9-2.4-1.2c-0.8-0.3-1.6-0.4-2.5-0.3c-1.4,0.1-2.7,0.5-3.9,1.3
			c-1.3,0.8-2.5,1.7-3.6,2.9c-1.1,1.2-2.2,2.5-3.1,4c-0.9,1.5-1.7,3-2.3,4.5c0,0,0,0,0,0.1c0,0-0.1,0.1-0.1,0.1
			c-1.2,1.8-2.3,3.5-3.6,5c-1.3,1.6-2.5,2.9-3.7,4.1c-1.2,1.2-2.3,2.1-3.4,2.8c-1.1,0.7-1.9,1.1-2.7,1.1c-0.4,0-0.7-0.1-0.9-0.4
			c-0.1-0.3-0.2-0.6-0.2-1c0-0.4,0.1-0.9,0.3-1.4c0.1-0.5,0.3-1,0.4-1.5c0.1-0.2,0.1-0.5,0.2-0.7c0.1-0.3,0.2-0.5,0.3-0.8
			c0.6-0.2,1.4-0.5,2.3-0.9c0.9-0.5,1.9-1.1,3-1.8c1-0.7,2.1-1.6,3.1-2.6c1-1,2-2.2,2.8-3.5c0.5-0.7,0.9-1.3,1.2-1.9
			c0.4-0.6,0.6-1.2,0.7-1.7c0.1-0.6,0-1.1-0.2-1.7c-0.2-0.6-0.7-1.2-1.5-1.8c-0.8-0.5-1.6-0.8-2.4-1.1c-0.8-0.3-1.6-0.3-2.5-0.2
			c-1.4,0.2-2.7,0.7-3.9,1.5c-1.3,0.8-2.4,1.9-3.6,3.1c-1.1,1.2-2.1,2.6-3.1,4.1c-0.9,1.5-1.6,2.9-2.2,4.4c-0.2,0.3-0.4,0.7-0.6,1
			c-0.8,1.4-1.7,2.7-2.5,4c-0.8,1.3-1.6,2.4-2.2,3.4c-0.7,1-1.2,1.7-1.7,2.3c-0.5,0.5-0.8,0.7-0.9,0.6c-0.1-0.1-0.1-0.2,0-0.5
			c0.1-0.3,0.2-0.5,0.4-0.9c0.6-1.3,1.3-2.7,2-4c0.7-1.3,1.4-2.7,2.1-4c0.6-1.3,1.2-2.7,1.6-4c0.4-1.3,0.6-2.7,0.5-4
			c0-0.5-0.3-0.9-0.8-1.3c-0.5-0.4-1-0.7-1.7-0.9c-0.6-0.2-1.3-0.4-2-0.6c-0.7-0.1-1.2-0.2-1.6-0.2c-0.5,0.1-1.1,0.3-1.8,0.8
			c-0.7,0.5-1.4,1.1-2.1,2c-0.7,0.8-1.5,1.8-2.2,2.8c-0.8,1.1-1.5,2.2-2.3,3.4c0.5-1.4,1.1-2.9,1.8-4.6c0.7-1.6,1.5-3.6,2.4-5.8
			c0.4-1,0.8-1.9,1.2-2.9c0.1-0.3,0.2-0.5,0.3-0.7c0.3-0.6,0.5-1.2,0.8-1.8c0.3-0.7,0.7-1.5,1-2.4c-0.1-0.5-0.3-1-0.8-1.6
			c-0.5-0.6-1-1.1-1.6-1.5c-0.6-0.4-1.1-0.7-1.7-0.9c-0.1,0-0.2-0.1-0.2-0.1v0c-0.4-0.1-0.7,0-0.8,0.3c-0.5,1.2-1,2.3-1.4,3.3h0
			c0,0.1-0.1,0.2-0.1,0.3c-0.5,1.1-1,2.3-1.5,3.6c-0.2,0.6-0.5,1.2-0.7,1.8c-0.3,0.7-0.6,1.4-0.9,2.1c-0.5,1.3-1,2.5-1.5,3.6
			c-0.4,1.1-0.8,2-1,2.6c-0.2,0.5-0.5,1.3-1,2.5c-0.5,1.1-1,2.4-1.5,3.8c-0.1,0.1-0.1,0.2-0.2,0.4c-0.5,0.8-1,1.6-1.4,2.4
			c-0.8,1.3-1.8,2.8-3,4.5c-1.1,1.6-2.4,3.3-3.7,5c-1.3,1.7-2.8,3.4-4.2,5.1c-1.5,1.7-3,3.2-4.5,4.7c-1.5,1.4-3.1,2.7-4.6,3.8
			c-1.5,1.1-3,1.9-4.5,2.4c-1.4,0.5-2.5,0.5-3.2,0c-0.7-0.5-1.1-1.4-1.2-2.6c-0.1-1.2,0-2.7,0.4-4.5c0.4-1.8,0.9-3.7,1.6-5.8
			c0.7-2.1,1.5-4.2,2.3-6.4c0.9-2.2,1.8-4.3,2.7-6.4c0.9-2,1.8-3.9,2.7-5.7c0.9-1.7,1.7-3.2,2.3-4.3c0.6-1,1.2-2,1.7-2.9
			c0.7-1.2,1.4-2.3,2.1-3.4c0.6-0.9,1.2-1.8,1.7-2.6c0.7-1,1.4-1.9,2-2.8c1.2-1.6,2.4-3.1,3.6-4.4l0.3-0.3h0
			c1.1-1.1,2.2-2.1,3.2-2.8c0.7-0.5,1.2-0.7,1.6-0.7c0.4,0,0.6,0.2,0.7,0.5c0.1,0.4,0.2,0.8,0.1,1.4c0,0.2-0.1,0.4-0.1,0.5
			c-0.1,0.5-0.2,0.9-0.4,1.5c-0.2,0.5-0.5,1.3-1.1,2.4c-0.5,0.9-1,1.9-1.7,3c-0.1,0.2-0.2,0.4-0.4,0.6c-0.8,1.4-1.7,2.8-2.7,4.4
			c-0.2,0.3-0.4,0.6-0.6,0.9c-0.8,1.2-1.6,2.4-2.4,3.6c-1,1.4-1.9,2.8-2.8,4c-0.9,1.2-1.6,2.1-2.2,2.8c-0.3,0.4-0.3,0.7,0,1
			c0.2,0.3,0.6,0.6,1.2,0.8c0.5,0.2,1.2,0.4,1.9,0.5c0.7,0.1,1.5,0.1,2.2,0.1c0.8,0,1.5-0.2,2.2-0.4c0.7-0.2,1.2-0.6,1.6-1
			c0.8-1,1.9-2.4,3-4.3c1.2-1.9,2.3-3.9,3.4-6c0.5-0.9,0.9-1.8,1.3-2.7c0.6-1.3,1.1-2.6,1.6-3.8c0.2-0.6,0.5-1.2,0.6-1.8h0
			c0.5-1.5,0.7-2.8,0.8-4c0.2-1.9,0.1-3.5-0.3-5c-0.4-1.5-1-2.7-1.7-3.6c-0.8-1-1.6-1.7-2.6-2.1c-1-0.5-1.9-0.6-2.8-0.5
			c-0.5,0.1-1.1,0.2-1.6,0.3c-1.7,0.5-3.4,1.3-5,2.4c-2.1,1.5-4.2,3.5-6.3,5.8c-0.1,0.2-0.3,0.3-0.4,0.5c-1.4,1.6-2.7,3.4-4.1,5.4
			c-0.5,0.7-1,1.5-1.5,2.2c-1.9,3-3.8,6.2-5.7,9.6c0,0.1-0.1,0.1-0.1,0.2c-2.1,3.9-3.9,7.6-5.4,11.3c-1.5,3.7-2.7,7.2-3.4,10.4
			c-0.8,3.2-1.2,6.1-1.2,8.7c0,2.6,0.3,4.6,1.1,6.3c0.8,1.6,2,2.7,3.7,3.3c1.7,0.6,3.8,0.5,6.4-0.3c2.4-0.7,4.7-1.8,7-3.5
			c2.3-1.6,4.4-3.6,6.5-5.7c2.1-2.2,4-4.5,5.7-6.9c1-1.3,1.8-2.6,2.7-3.8c-0.2,0.5-0.3,0.9-0.5,1.3c-0.3,1-0.5,1.6-0.5,1.9
			c0.1,0.5,0.3,1,0.8,1.5c0.5,0.5,1,1,1.5,1.4c0.6,0.4,1.1,0.7,1.6,0.8c0.5,0.1,0.8,0.1,1-0.3c0.2-0.2,0.5-0.9,0.9-2.1
			c0.4-1.2,1-2.6,1.6-4.2c0.6-1,1.3-2.2,2.2-3.5c0.8-1.3,1.7-2.7,2.6-4c0.9-1.4,1.8-2.7,2.7-3.9c0.9-1.3,1.7-2.4,2.4-3.4
			c0.7-1,1.3-1.7,1.8-2.2c0.5-0.5,0.8-0.7,0.9-0.6c0.1,0.1,0.1,0.4-0.1,1c-0.2,0.5-0.4,1.2-0.7,2c-0.6,1.4-1.3,2.9-2.1,4.3
			c-0.8,1.4-1.5,2.9-2.1,4.5c-0.5,1.1-0.9,2.2-1.1,3.2c-0.3,1-0.4,1.9-0.3,2.7c0,0.5,0.2,0.9,0.5,1.2c0.4,0.3,0.8,0.6,1.3,0.8
			c0.5,0.2,1,0.4,1.6,0.5c0.5,0.1,1,0.2,1.4,0.1c0.7-0.1,1.5-0.5,2.4-1.3c0.9-0.8,1.9-1.9,2.8-3.1c1-1.3,2-2.7,3-4.3
			c0,0,0.1-0.1,0.1-0.1c0,0.4,0,0.8,0.1,1.2c0.1,0.6,0.3,1.1,0.8,1.6c0.5,0.5,1.1,0.9,1.7,1.3c0.7,0.4,1.4,0.7,2.1,1
			c0.7,0.3,1.4,0.4,1.9,0.5c0.4,0.1,1,0.1,1.8,0.1c0.7,0,1.3-0.1,1.8-0.3c0.9-0.3,1.8-0.8,2.7-1.6c0.9-0.8,1.7-1.5,2.3-2.2
			c0.7-0.7,1.4-1.6,2.2-2.5c0.7-0.9,1.4-1.8,2-2.8c0,0.5,0,0.9,0.1,1.3c0.1,0.6,0.3,1.1,0.8,1.6c0.5,0.5,1.1,1,1.8,1.4
			c0.7,0.4,1.4,0.8,2.1,1.1c0.7,0.3,1.4,0.5,1.9,0.6c0.4,0.1,1,0.2,1.8,0.1c0.7,0,1.3-0.1,1.8-0.2c0.9-0.3,1.8-0.8,2.8-1.5
			c1-0.7,1.7-1.4,2.3-2.1c0.7-0.7,1.4-1.5,2.2-2.4c0.7-0.9,1.5-1.9,2.2-2.8c0.7-1,1.4-1.9,2-2.9s1.2-1.8,1.7-2.6
			c0.8-1.2,1.5-2.4,2.1-3.5c0.6-1.1,1.2-2.1,1.7-2.9c0.3-0.4,0.6-0.9,1-1.4c0.6-0.9,1.2-1.7,1.8-2.5c0.3,0.2,0.6,0.4,0.8,0.5
			c0.2,0.1,0.4,0.2,0.5,0.3c0.1,0.1,0.2,0.2,0.2,0.3c0,0.1-0.1,0.3-0.2,0.6c-1.5,2.3-2.7,4.4-3.7,6.3c-1,1.9-1.7,3.6-2.2,5
			c-0.5,1.5-0.9,2.7-1.1,3.7c-0.2,1-0.3,1.8-0.2,2.4c0,0.5,0.3,0.9,0.7,1.3c0.5,0.4,1,0.7,1.6,1c0.6,0.3,1.3,0.5,1.9,0.6
			c0.7,0.2,1.2,0.2,1.6,0.3c0.7,0,1.5-0.3,2.5-1c0.9-0.7,1.9-1.6,2.9-2.8c1-1.2,2-2.5,3.1-3.9c0.2-0.3,0.5-0.7,0.7-1
			c-0.2,0.6-0.3,1.2-0.4,1.7c-0.2,0.9-0.2,1.7-0.2,2.5c0,0.5,0.2,0.9,0.5,1.3c0.3,0.4,0.7,0.7,1.1,1c0.4,0.3,0.9,0.5,1.4,0.7
			c0.5,0.2,1,0.3,1.4,0.3c0.7,0.1,1.5-0.3,2.5-0.9c0.9-0.7,1.9-1.6,2.9-2.7c1-1.1,2-2.3,3-3.7c0,0.3,0,0.7,0.1,1
			c0.1,0.6,0.3,1.2,0.8,1.7c0.5,0.6,1.1,1.1,1.8,1.6c0.7,0.5,1.4,0.9,2.1,1.3c0.7,0.4,1.4,0.6,1.9,0.8c0.5,0.2,1.1,0.3,1.8,0.4
			c0.7,0.1,1.4,0.1,1.8,0c0.9-0.2,1.8-0.6,2.8-1.2c1-0.6,1.7-1.2,2.3-1.8c0.7-0.6,1.4-1.4,2.2-2.2c0.6-0.7,1.3-1.5,1.9-2.2
			c0,0.4,0,0.8,0,1.1c0.1,1.2,0.7,2.2,1.6,3.1c0.9,0.9,1.9,1.6,3,2.2c0.4,0.2,0.9,0.4,1.4,0.6c0.5,0.1,1,0.2,1.5,0.1
			c0.4,0,0.9-0.2,1.5-0.6c0.6-0.4,1.1-0.8,1.6-1.3c0.5-0.5,1.1-0.9,1.5-1.4c0.5-0.5,0.9-0.8,1.2-1.1c0.4-0.3,0.7-0.7,1.1-1
			c0.3-0.4,0.7-0.7,1-1.1c-0.1,0.2-0.1,0.5-0.1,0.7c0,0.2,0,0.5-0.1,0.7c-0.1,0.7-0.1,1.5,0,2.1c0.1,0.7,0.2,1.3,0.5,1.8
			c0.3,0.5,0.6,1,1.1,1.3c0.5,0.3,1.1,0.5,1.9,0.6c0.7,0.1,1.6-0.2,2.5-0.9c1-0.6,2-1.5,3-2.5c0.9-0.9,1.7-1.8,2.6-2.9
			c0,0.1,0,0.2,0,0.2c0.1,1.2,0.7,2.2,1.6,3.2c0.9,1,1.9,1.8,3,2.4c0.4,0.3,0.9,0.5,1.4,0.7c0.5,0.2,1,0.2,1.5,0.2
			c0.4,0,0.9-0.2,1.5-0.5c0.6-0.3,1.1-0.7,1.7-1.2c0.6-0.4,1.1-0.9,1.5-1.3s0.8-0.8,1.2-1c0.5-0.4,0.9-0.8,1.4-1.2
			c0.4-0.5,0.8-0.9,1.2-1.3c-0.2,0.7-0.3,1.3-0.4,1.8s-0.1,1.1-0.1,1.6c0,0.5,0.2,0.9,0.5,1.3s0.7,0.8,1.1,1.2
			c0.5,0.4,0.9,0.7,1.4,0.9c0.5,0.3,1,0.4,1.4,0.5c0.7,0.2,1.5,0,2.5-0.5c0.9-0.5,1.9-1.2,2.9-2.2c1-0.9,2-2,3-3.3
			c0.2-0.2,0.3-0.4,0.5-0.6c0,0.1-0.1,0.2-0.1,0.3c-0.4,1.3-0.5,2.5-0.4,3.6c0,0.5,0.2,0.9,0.5,1.4c0.3,0.4,0.7,0.8,1.1,1.2
			c0.4,0.4,0.9,0.7,1.4,1c0.5,0.3,1,0.5,1.4,0.6c0.7,0.2,1.5,0.1,2.5-0.4c0.9-0.5,1.9-1.2,2.9-2.1c0.8-0.7,1.5-1.5,2.3-2.3
			c-0.2,0.7-0.4,1.1-0.3,1.3c0,0.5,0.3,1.1,0.8,1.8c0.5,0.7,1,1.4,1.5,2c0.6,0.6,1.1,1.1,1.6,1.5c0.5,0.4,0.9,0.4,1,0.2
			c0.2-0.1,0.5-0.7,0.9-1.7c0.4-1,1-2.1,1.7-3.4c0.6-0.7,1.4-1.6,2.2-2.5c0.8-1,1.7-1.9,2.6-2.9c0.9-1,1.8-1.9,2.7-2.8
			c0.9-0.9,1.7-1.7,2.4-2.3c0.7-0.7,1.3-1.1,1.8-1.4c0.5-0.3,0.8-0.4,1-0.2c0.1,0.2,0.1,0.5-0.1,0.9c-0.2,0.5-0.4,1-0.7,1.7
			c-0.6,1.2-1.3,2.3-2.1,3.4c-0.8,1.1-1.5,2.3-2.1,3.6c-0.5,0.9-0.9,1.8-1.1,2.7c-0.3,0.9-0.4,1.7-0.3,2.5c0,0.5,0.2,1,0.5,1.4
			c0.4,0.5,0.8,0.9,1.3,1.4c0.5,0.4,1,0.8,1.6,1.2c0.6,0.3,1,0.6,1.4,0.7c0.7,0.2,1.5,0.1,2.4-0.3c0.9-0.4,1.9-1.1,2.9-1.9
			c0.8-0.7,1.6-1.5,2.4-2.3c0,0.1,0,0.2,0,0.3c0.1,1.2,0.7,2.3,1.6,3.4c0.9,1.1,1.9,2,3,2.8c0.4,0.3,0.9,0.6,1.4,0.9
			c0.5,0.3,1,0.4,1.5,0.4c0.4,0.1,0.8,0,1.3-0.2c0.4-0.2,0.9-0.4,1.4-0.7c0.5-0.3,0.9-0.6,1.3-0.9c0.4-0.3,0.8-0.6,1.1-0.9
			c-0.6,1.3-1.2,2.6-1.8,4c-1.9,0.8-3.7,1.6-5.2,2.5c-1.5,0.9-2.9,2.2-4.1,3.9c-0.5,0.7-0.7,1.5-0.8,2.4c-0.1,0.9-0.1,1.9,0.1,2.8
			c0.2,0.9,0.5,1.8,1,2.7c0.5,0.8,1.1,1.5,1.8,2c0.7,0.5,1.6,0.8,2.6,0.8c1,0,2.1-0.3,3.3-0.9c0.4-0.4,0.8-0.8,1.1-1.1
			c0.3-0.4,0.6-0.8,0.9-1.3c0.3-0.5,0.6-1.1,1-1.9c0.4-0.7,0.8-1.7,1.4-2.8c0.7-1.5,1.4-3,2.1-4.2c0.7-1.3,1.3-2.4,1.8-3.5
			c2.1-1.2,4.2-2.5,6.2-3.8c2-1.4,4-3.1,6-5.1c0.9-0.9,1.8-1.8,2.6-2.8c0.8-0.9,1.4-1.8,1.9-2.5C355.1,263.4,355.1,263.1,355,262.9z
			 M219.8,248.1c0.7-0.9,1.4-1.8,2.1-2.5c0.7-0.7,1.3-1.3,1.9-1.8c0.6-0.4,1.1-0.6,1.6-0.6c0.3,0.1,0.5,0.3,0.4,0.6
			c-0.1,0.3-0.3,0.7-0.6,1.1c-0.3,0.4-0.7,0.8-1.1,1.3c-0.5,0.5-0.9,0.9-1.3,1.3c-1.1,1-2,1.8-2.8,2.3c-0.8,0.6-1.5,1-2.1,1.3
			C218.4,250.1,219.1,249.1,219.8,248.1z M168.3,252.1c0.7-1,1.4-2,2.1-2.8c0.7-0.8,1.3-1.5,1.9-2c0.6-0.5,1.1-0.8,1.6-0.8
			c0.3,0,0.5,0.2,0.4,0.5c-0.1,0.3-0.3,0.7-0.6,1.1c-0.3,0.4-0.7,0.9-1.1,1.4c-0.5,0.5-0.9,1-1.3,1.4c-1.1,1.1-2,2-2.8,2.7
			c-0.8,0.7-1.5,1.2-2.1,1.5C167,254.2,167.6,253.1,168.3,252.1z M148.8,255.1c0.7-1.1,1.4-2,2-2.9c0.7-0.9,1.3-1.5,1.9-2.1
			c0.6-0.5,1.1-0.8,1.6-0.9c0.3,0,0.5,0.2,0.4,0.5c-0.1,0.3-0.3,0.7-0.6,1.2c-0.3,0.5-0.7,1-1.1,1.5c-0.4,0.5-0.9,1-1.3,1.5
			c-1.1,1.2-2,2.1-2.8,2.8c-0.8,0.7-1.5,1.2-2.1,1.6C147.5,257.3,148.1,256.2,148.8,255.1z M246.4,244.5c-0.1,0.5-0.3,1.1-0.7,1.8
			c-0.4,0.7-0.8,1.3-1.3,2c-0.5,0.6-0.9,1.1-1.2,1.3c-0.2,0.2-0.2,0.3-0.2,0.4c0.1,0.1,0.2,0.2,0.4,0.2c0.2,0,0.5,0.1,0.8,0
			c0.3,0,0.6-0.1,1-0.1c-0.3,0.7-0.6,1.4-0.9,2.1c-0.9,0.9-1.8,1.8-2.8,2.7c-1,1-2,1.8-3,2.6c-1,0.8-1.8,1.5-2.5,2
			c-0.7,0.5-1.3,0.8-1.6,0.8c-0.4,0.1-0.7-0.1-0.8-0.4c-0.1-0.4-0.1-0.8,0-1.3c0.1-0.5,0.2-1.1,0.4-1.6c0.2-0.6,0.4-1.1,0.5-1.5
			c0.2-0.7,0.6-1.5,1.1-2.3c0.5-0.9,1.2-1.8,1.9-2.7c0.7-0.9,1.4-1.8,2.2-2.6c0.8-0.8,1.6-1.6,2.3-2.3c0.8-0.7,1.5-1.2,2.2-1.5
			c0.7-0.4,1.2-0.5,1.7-0.4C246.4,243.7,246.5,244,246.4,244.5z M273.3,246.4c-0.1,0.5-0.3,1.1-0.7,1.8c-0.4,0.7-0.8,1.3-1.3,1.9
			c-0.5,0.6-0.9,1-1.2,1.3c-0.2,0.2-0.3,0.3-0.2,0.4c0.1,0.1,0.3,0.2,0.5,0.2c0.3,0.1,0.6,0.1,0.9,0.1c0.4,0,0.7-0.1,1.1-0.1
			c-0.2,0.5-0.4,1-0.6,1.5c-0.9,0.8-1.8,1.7-2.9,2.6c-1.1,0.9-2.1,1.8-3.2,2.6c-1,0.8-1.9,1.5-2.7,2c-0.8,0.6-1.3,0.8-1.6,0.8
			c-0.4,0-0.7-0.1-0.8-0.5c-0.1-0.4-0.1-0.8,0-1.3c0.1-0.5,0.2-1.1,0.4-1.6c0.2-0.6,0.4-1.1,0.5-1.5c0.2-0.7,0.6-1.4,1.1-2.3
			c0.5-0.8,1.2-1.7,1.9-2.6c0.7-0.9,1.4-1.7,2.2-2.5c0.8-0.8,1.6-1.5,2.3-2.1c0.8-0.6,1.5-1.1,2.1-1.4c0.7-0.3,1.2-0.4,1.7-0.3
			C273.2,245.6,273.4,245.9,273.3,246.4z M327.1,285.3c-0.3,0.5-0.5,0.9-0.8,1.4c-0.7,1.1-1.3,2-1.7,2.5c-0.4,0.5-0.8,0.7-1.1,0.4
			c-0.4-0.4-0.6-0.8-0.6-1.2c0.1-0.4,0.3-0.9,0.6-1.4c0.4-0.5,0.8-0.9,1.4-1.3c0.5-0.4,1-0.8,1.5-1.1c0.5-0.3,1-0.6,1.4-0.9
			C327.6,284.3,327.4,284.8,327.1,285.3z M339.6,258.2c-0.1,0.5-0.3,1.1-0.7,1.7c-0.4,0.6-0.8,1.2-1.3,1.7c-0.5,0.5-0.9,0.9-1.2,1.1
			c-0.3,0.2-0.3,0.4,0.1,0.5c0.3,0.2,0.8,0.3,1.4,0.3c-0.3,0.4-0.5,0.9-0.7,1.3c-0.2,0.4-0.4,0.9-0.7,1.4c-0.8,0.6-1.7,1.3-2.6,1.9
			c-0.9,0.6-1.8,1.2-2.6,1.7c-0.8,0.5-1.5,0.9-2.2,1.2c-0.6,0.3-1,0.4-1.3,0.4c-0.4,0-0.7-0.2-0.8-0.6c-0.1-0.4-0.1-0.8,0-1.3
			c0.1-0.5,0.2-1,0.4-1.6c0.2-0.5,0.4-1,0.5-1.4c0.2-0.6,0.6-1.3,1.1-2.1c0.5-0.8,1.1-1.5,1.8-2.3c0.7-0.8,1.4-1.5,2.2-2.2
			c0.8-0.7,1.5-1.3,2.3-1.7c0.7-0.5,1.4-0.9,2.1-1.1c0.7-0.2,1.2-0.2,1.7-0.1C339.5,257.3,339.7,257.6,339.6,258.2z"/>
	</g>
</g>
</svg>
