<?xml version="1.0" encoding="utf-8"?>
<!-- Generator: Adobe Illustrator 24.2.1, SVG Export Plug-In . SVG Version: 6.00 Build 0)  -->
<svg version="1.1" id="Layer_1" xmlns="http://www.w3.org/2000/svg" xmlns:xlink="http://www.w3.org/1999/xlink" x="0px" y="0px"
	 viewBox="0 0 432 432" style="enable-background:new 0 0 432 432;" xml:space="preserve">
<style type="text/css">
	.st0{fill:#E5E9F6;}
	.st1{fill:url(#SVGID_1_);}
</style>
<rect class="st0" width="432" height="432"/>
<linearGradient id="SVGID_1_" gradientUnits="userSpaceOnUse" x1="216" y1="393.7277" x2="216" y2="38.2723">
	<stop  offset="0" style="stop-color:#144C8E"/>
	<stop  offset="0.1142" style="stop-color:#184988"/>
	<stop  offset="0.3046" style="stop-color:#1D4278"/>
	<stop  offset="0.5475" style="stop-color:#1E355F"/>
	<stop  offset="0.8305" style="stop-color:#17213E"/>
	<stop  offset="1" style="stop-color:#0D1229"/>
</linearGradient>
<path class="st1" d="M344.9,114.7c-2.4,0-4.7,0.3-6.9,0.8c11.6,11.9,18.8,28.1,18.8,46c0,3.7-0.3,7.4-0.9,11
	c11.1-4.4,18.9-15.2,18.9-27.8C374.8,128.1,361.4,114.7,344.9,114.7z M203.3,241.3c-0.7-2-3-3.3-5-2.7c-2,0.7-3.3,3-2.7,5
	c0.7,2,3,3.3,5,2.7C202.6,245.7,204,243.3,203.3,241.3z M203.3,241.3c-0.7-2-3-3.3-5-2.7c-2,0.7-3.3,3-2.7,5c0.7,2,3,3.3,5,2.7
	C202.6,245.7,204,243.3,203.3,241.3z M203.3,241.3c-0.7-2-3-3.3-5-2.7c-2,0.7-3.3,3-2.7,5c0.7,2,3,3.3,5,2.7
	C202.6,245.7,204,243.3,203.3,241.3z M203.3,241.3c-0.7-2-3-3.3-5-2.7c-2,0.7-3.3,3-2.7,5c0.7,2,3,3.3,5,2.7
	C202.6,245.7,204,243.3,203.3,241.3z M203.3,241.3c-0.7-2-3-3.3-5-2.7c-2,0.7-3.3,3-2.7,5c0.7,2,3,3.3,5,2.7
	C202.6,245.7,204,243.3,203.3,241.3z M203.3,241.3c-0.7-2-3-3.3-5-2.7c-2,0.7-3.3,3-2.7,5c0.7,2,3,3.3,5,2.7
	C202.6,245.7,204,243.3,203.3,241.3z M203.3,241.3c-0.7-2-3-3.3-5-2.7c-2,0.7-3.3,3-2.7,5c0.7,2,3,3.3,5,2.7
	C202.6,245.7,204,243.3,203.3,241.3z M203.3,241.3c-0.7-2-3-3.3-5-2.7c-2,0.7-3.3,3-2.7,5c0.7,2,3,3.3,5,2.7
	C202.6,245.7,204,243.3,203.3,241.3z M203.3,241.3c-0.7-2-3-3.3-5-2.7c-2,0.7-3.3,3-2.7,5c0.7,2,3,3.3,5,2.7
	C202.6,245.7,204,243.3,203.3,241.3z M203.3,241.3c-0.7-2-3-3.3-5-2.7c-2,0.7-3.3,3-2.7,5c0.7,2,3,3.3,5,2.7
	C202.6,245.7,204,243.3,203.3,241.3z M203.3,241.3c-0.7-2-3-3.3-5-2.7c-2,0.7-3.3,3-2.7,5c0.7,2,3,3.3,5,2.7
	C202.6,245.7,204,243.3,203.3,241.3z M235.3,329.8l-30.4,13.7v12.5c3.7,0.3,7.5,0.4,11.3,0.4c10,0,19.8-1.1,29.2-3.1L235.3,329.8z
	 M163.2,330.1l-5.4,13.5c11,5.1,22.8,8.7,35.1,10.8v-11L163.2,330.1z M350,174.1l-53.3,15.5c-4,1.3-8.3-1-9.3-5.3l-13-44.7
	c-1-3.7,1.3-8,5.3-9l38.1-11.1c-25.5-26.8-61.6-43.5-101.6-43.5C138.8,75.9,76,138.7,76,216.1c0,52.2,28.5,97.7,70.8,121.8
	l30.5-76.6l11.3,4.3l-21.7,54.7l25.7,11.7v-65.4h12v65.7l26.4-12L207.6,266l11-4.7l38.6,88.9c57.4-17.5,99.2-71,99.2-134.1
	C356.4,201.5,354.2,187.4,350,174.1z M237.5,126.3c1.6,0,2.9,1.3,2.9,2.9c0,1.6-1.3,2.9-2.9,2.9c-1.6,0-2.9-1.3-2.9-2.9
	C234.6,127.6,235.9,126.3,237.5,126.3z M219.7,104.3c2,0,3.5,1.6,3.5,3.5c0,2-1.6,3.5-3.5,3.5c-2,0-3.5-1.6-3.5-3.5
	C216.1,105.9,217.7,104.3,219.7,104.3z M201.1,138.7l3,10.3l-18.9,5.5l-3-10.3L201.1,138.7z M169.7,147.7l3,10.3l-10.9,3.2l-3-10.3
	L169.7,147.7z M141.5,120.7c1.6,0,2.9,1.3,2.9,2.9c0,1.6-1.3,2.9-2.9,2.9c-1.6,0-2.9-1.3-2.9-2.9C138.6,122,139.9,120.7,141.5,120.7
	z M131.4,255c-1.8,0-3.3-1.5-3.3-3.3c0-1.8,1.5-3.3,3.3-3.3c1.8,0,3.3,1.5,3.3,3.3C134.8,253.5,133.3,255,131.4,255z M103.5,199.6
	l6.3-2l-4.7-16.3l-1.7,0.3l-1.7-6.3l10-3l9-2.3l1.3-0.7l2,6.3l-1.7,0.7l4.7,16.4l7.3-2l10.7,37.4L103.5,199.6z M160.6,239.7
	c-6.5,0-11.7-5.2-11.7-11.7c0-6.4,5.2-11.7,11.7-11.7c6.4,0,11.7,5.2,11.7,11.7C172.3,234.4,167,239.7,160.6,239.7z M228,222.6
	l-14.3,30l-18,5.3l-13-4l-3-10.3l8.3-11.3l7.7-2.3l-3.7-13l56.4-16.7l4.3,15L228,222.6z M184.6,213l-12.7-4.7l-24.7,7.3l-7.7-26.7
	l24.7-7l8-11l6-1.7l-6.7-22l7.3-2l6.7,22l57.1-16.7l12,42L184.6,213z M249.3,147.2l17.7-7.3l14.3,48.7L262,192L249.3,147.2z
	 M264.6,274.7c0-3.2-4.4-8.3-7.2-8.3c2.8,0,7.2-5.1,7.2-8.3c0,3.2,4.4,8.3,7.2,8.3C269,266.4,264.6,271.5,264.6,274.7z M285.4,236.1
	c-2.2,0-4.1-1.8-4.1-4.1c0-2.2,1.8-4.1,4.1-4.1c2.2,0,4.1,1.8,4.1,4.1C289.5,234.3,287.7,236.1,285.4,236.1z M326.8,211.8
	c0-2.4-3.3-6.2-5.4-6.2c2.1,0,5.4-3.8,5.4-6.2c0,2.4,3.3,6.2,5.4,6.2C330.1,205.6,326.8,209.4,326.8,211.8z M39,228l5.1-2.2
	l-0.3-9.7l-5.2-2l-0.2-6.7l28.8,12.5l0,0.9l-28.1,14L39,228z M55.8,220.6l-6.8-2.6l0.1,5.6L55.8,220.6z M51.7,256.9
	c-1.1,0.2-2.2,0.2-3.3,0c-1.1-0.2-2.1-0.7-3.1-1.3c-1-0.7-1.8-1.6-2.5-2.7c-0.7-1.1-1.2-2.6-1.5-4.2c-0.1-0.8-0.2-1.6-0.2-2.5
	c0-0.9,0-1.7,0.1-2.6c0.1-0.9,0.2-1.7,0.4-2.5c0.2-0.8,0.4-1.6,0.7-2.3l6.2,0.7c-0.6,1.3-1,2.7-1.2,4.1c-0.2,1.5-0.2,2.8,0,4.1
	c0.2,1.1,0.6,1.9,1.2,2.3c0.6,0.4,1.2,0.5,1.9,0.4c0.4-0.1,0.7-0.2,1-0.4c0.3-0.2,0.6-0.5,0.8-0.9c0.3-0.4,0.5-1,0.7-1.7
	c0.2-0.7,0.4-1.6,0.7-2.8c0.3-1.3,0.6-2.4,1.1-3.4c0.4-1,0.9-1.8,1.5-2.4c0.6-0.6,1.2-1.2,2-1.5c0.7-0.4,1.5-0.6,2.3-0.8
	c1-0.2,2-0.2,3.1,0.1c1,0.2,2,0.7,2.9,1.4c0.9,0.7,1.7,1.6,2.4,2.7c0.7,1.1,1.2,2.5,1.5,4.1c0.1,0.8,0.2,1.5,0.2,2.3
	c0,0.8,0,1.5-0.1,2.2c-0.1,0.7-0.2,1.4-0.3,2c-0.1,0.6-0.3,1.2-0.5,1.6l-6.1-0.6c0.2-0.5,0.4-1,0.6-1.5c0.2-0.6,0.3-1.1,0.4-1.7
	c0.1-0.6,0.2-1.2,0.2-1.7c0-0.6,0-1.1-0.1-1.6c-0.2-1.2-0.6-2-1.2-2.4c-0.5-0.4-1.1-0.6-1.7-0.5c-0.5,0.1-0.8,0.2-1.1,0.5
	c-0.3,0.2-0.5,0.6-0.7,1c-0.2,0.5-0.4,1-0.5,1.7c-0.2,0.7-0.4,1.5-0.6,2.4c-0.3,1.4-0.7,2.6-1.1,3.6c-0.4,1-0.9,1.8-1.5,2.4
	c-0.6,0.6-1.2,1.1-2,1.5C53.4,256.5,52.6,256.8,51.7,256.9z M71,271.3L50,278.7l-2.2-6.2l20.9-7.4l-2.8-8l5.7-2l7.8,22.1l-5.7,2
	L71,271.3z M63.6,307.1l5.7-8.7c-0.1-0.2-0.2-0.3-0.3-0.5c-0.1-0.1-0.2-0.3-0.3-0.5c-0.2-0.4-0.4-0.8-0.6-1.1
	c-0.2-0.3-0.3-0.7-0.5-1.1l-8.1,4.5l-3.2-5.7l24.4-13.6c0.7,1,1.4,2,2.1,3.2c0.7,1.1,1.5,2.4,2.3,3.9c1.1,1.9,1.8,3.7,2.1,5.3
	c0.3,1.6,0.4,3,0.1,4.3c-0.3,1.3-0.8,2.4-1.6,3.3c-0.8,0.9-1.7,1.7-2.8,2.4c-1.5,0.8-3,1.2-4.7,1.2c-1.7,0-3.3-0.5-4.8-1.4
	l-6.3,11.1L63.6,307.1z M79.5,296.9c1-0.6,1.6-1.4,1.8-2.4c0.2-1.1-0.1-2.2-0.8-3.4c-0.3-0.4-0.5-0.8-0.7-1.1
	c-0.2-0.3-0.4-0.6-0.7-1l-6.8,3.8c0.2,0.4,0.3,0.7,0.4,1c0.1,0.3,0.3,0.5,0.5,0.9c0.8,1.4,1.7,2.3,2.8,2.7
	C77.1,297.7,78.3,297.6,79.5,296.9z M100.6,332.6c-1.6,1.3-3.3,2.3-5.1,2.9c-1.8,0.6-3.6,0.8-5.4,0.7c-1.8-0.1-3.6-0.7-5.3-1.5
	c-1.7-0.9-3.3-2.2-4.7-3.8c-1.4-1.7-2.4-3.4-3-5.3c-0.6-1.8-0.8-3.6-0.6-5.4c0.2-1.8,0.7-3.5,1.7-5.2c0.9-1.7,2.2-3.1,3.8-4.5
	c1.6-1.3,3.3-2.3,5.1-2.9c1.8-0.6,3.6-0.8,5.4-0.7c1.8,0.1,3.6,0.7,5.3,1.5c1.7,0.9,3.3,2.2,4.7,3.8c1.4,1.7,2.4,3.4,3,5.2
	c0.6,1.8,0.8,3.6,0.6,5.4c-0.2,1.8-0.7,3.5-1.7,5.2C103.4,329.8,102.2,331.3,100.6,332.6z M96.1,327.2c1-0.8,1.8-1.7,2.3-2.7
	c0.6-1,1-1.9,1.1-2.9c0.2-1,0.1-2-0.1-3c-0.3-1-0.7-1.9-1.5-2.8c-0.7-0.8-1.5-1.5-2.5-1.9c-0.9-0.4-1.9-0.6-2.9-0.6
	c-1,0-2,0.2-3.1,0.6c-1,0.4-2.1,1-3,1.9c-1,0.8-1.7,1.7-2.3,2.7c-0.6,1-1,1.9-1.1,2.9c-0.2,1-0.1,2,0.1,3c0.3,1,0.7,1.9,1.5,2.7
	c0.7,0.9,1.6,1.5,2.5,1.9c0.9,0.4,1.9,0.6,2.9,0.6c1,0,2.1-0.2,3.1-0.6C94.1,328.7,95.1,328.1,96.1,327.2z M115.6,363.6l-4-22.5
	l-9.1,11.6l-5.2-4l17.6-22.5l0.8,0.4l3.9,22.3l9-11.5l5.2,4l-17.7,22.6L115.6,363.6z M157.2,369.3c-0.9,1.9-2.1,3.4-3.5,4.7
	c-1.4,1.3-3,2.2-4.7,2.8c-1.7,0.6-3.6,0.8-5.5,0.7c-1.9-0.1-3.9-0.7-5.8-1.6c-2-1-3.6-2.2-4.8-3.6c-1.3-1.4-2.2-3-2.7-4.7
	c-0.5-1.7-0.7-3.5-0.5-5.4c0.2-1.9,0.7-3.8,1.6-5.6c0.9-1.9,2.1-3.4,3.5-4.7c1.4-1.3,3-2.2,4.7-2.8c1.7-0.6,3.5-0.8,5.5-0.7
	c1.9,0.1,3.9,0.7,5.8,1.6c2,1,3.6,2.2,4.8,3.6c1.2,1.4,2.1,3,2.7,4.7c0.5,1.7,0.7,3.5,0.6,5.4C158.6,365.6,158.1,367.5,157.2,369.3z
	 M150.9,366.2c0.6-1.2,0.9-2.3,1.1-3.4c0.1-1.1,0.1-2.2-0.2-3.1c-0.2-1-0.7-1.9-1.3-2.7c-0.6-0.8-1.4-1.4-2.5-1.9
	c-1-0.5-2-0.7-3-0.8c-1,0-2,0.2-2.9,0.6c-0.9,0.4-1.8,1-2.6,1.8c-0.8,0.8-1.5,1.8-2,2.9c-0.6,1.1-0.9,2.2-1.1,3.4
	c-0.1,1.1-0.1,2.2,0.1,3.2c0.2,1,0.7,1.9,1.3,2.7c0.6,0.8,1.4,1.4,2.4,1.9c1,0.5,2,0.8,3,0.8c1,0,2-0.2,2.9-0.6
	c0.9-0.4,1.8-1,2.6-1.8C149.6,368.3,150.3,367.4,150.9,366.2z M183.3,390.9l2.9-13.6l-9.9,7.8l-0.7-0.2l-5.4-11.4l-3.5,13.4
	l-6.1-1.5l7.8-27.3l0.9,0.1l8.7,18.6l15.9-12.8l0.8,0.3l-5.3,28L183.3,390.9z M199.3,393l2.1-28.1l6.5,0.5l-2.1,28.1L199.3,393z
	 M238.7,390.6c-1.2,0.9-2.6,1.6-4.1,2.2c-1.6,0.6-3.2,0.9-4.8,1c-2.3,0.1-4.4-0.1-6.3-0.7c-1.9-0.6-3.6-1.5-5-2.8
	c-1.4-1.2-2.6-2.7-3.4-4.4c-0.8-1.7-1.3-3.6-1.4-5.7c-0.1-2.1,0.1-4.1,0.8-5.9c0.6-1.8,1.6-3.4,2.9-4.8c1.3-1.4,2.8-2.5,4.7-3.3
	c1.8-0.8,3.9-1.3,6.2-1.4c1.6-0.1,3.2,0,4.7,0.4c1.5,0.4,2.9,0.9,4.2,1.6l-1.7,5.6c-1.1-0.5-2.2-0.9-3.4-1.2
	c-1.2-0.3-2.3-0.4-3.5-0.3c-1.3,0.1-2.5,0.3-3.5,0.8c-1,0.4-1.9,1.1-2.6,1.8c-0.7,0.8-1.2,1.7-1.5,2.8c-0.3,1.1-0.5,2.3-0.4,3.6
	c0.1,1.3,0.3,2.5,0.8,3.5c0.5,1,1.1,1.9,1.8,2.6c0.8,0.7,1.7,1.2,2.8,1.5c1.1,0.3,2.3,0.5,3.6,0.4c1.2-0.1,2.3-0.3,3.5-0.7
	c1.2-0.4,2.3-1,3.4-1.7L238.7,390.6z M264.1,387.3l-3.2-4.5l-9.5,2.3l-0.9,5.5l-6.5,1.5l6.3-30.8l0.9-0.2l19.5,24.6L264.1,387.3z
	 M253.4,372.5l-1.2,7.2l5.4-1.3L253.4,372.5z M276.8,383.2L266,357.2l6-2.5l8.5,20.6l10.5-4.3l2.3,5.5L276.8,383.2z M317.6,351.9
	c0.6,0.9,1.1,2,1.3,3.1c0.2,1.1,0.2,2.2,0,3.4c-0.2,1.1-0.7,2.3-1.5,3.4c-0.8,1.1-1.9,2.1-3.3,3.1c-0.7,0.4-1.4,0.8-2.2,1.2
	c-0.8,0.3-1.6,0.6-2.5,0.9c-0.8,0.2-1.7,0.4-2.5,0.6c-0.8,0.1-1.6,0.2-2.4,0.2l-1.8-5.9c1.4,0,2.8-0.1,4.3-0.5
	c1.4-0.4,2.7-0.9,3.8-1.6c1-0.6,1.5-1.3,1.7-2c0.1-0.7,0-1.3-0.4-1.9c-0.2-0.3-0.4-0.6-0.7-0.8c-0.3-0.2-0.7-0.3-1.2-0.4
	c-0.5-0.1-1.1-0.1-1.8,0c-0.7,0.1-1.7,0.2-2.8,0.5c-1.3,0.3-2.5,0.4-3.5,0.3c-1,0-2-0.2-2.8-0.5c-0.8-0.3-1.5-0.7-2.2-1.2
	c-0.6-0.5-1.2-1.1-1.6-1.8c-0.6-0.9-0.9-1.8-1.1-2.9c-0.2-1-0.1-2.1,0.1-3.2c0.3-1.1,0.8-2.2,1.6-3.2c0.8-1.1,1.9-2.1,3.2-3
	c0.6-0.4,1.3-0.8,2-1.1c0.7-0.3,1.4-0.6,2.1-0.8c0.7-0.2,1.4-0.4,2-0.5c0.6-0.1,1.2-0.2,1.7-0.2l1.9,5.8c-0.5,0-1,0-1.6,0.1
	c-0.6,0.1-1.2,0.2-1.7,0.3s-1.1,0.3-1.7,0.5c-0.5,0.2-1,0.4-1.4,0.7c-1,0.7-1.6,1.3-1.8,2c-0.2,0.7-0.1,1.2,0.2,1.7
	c0.3,0.4,0.6,0.7,0.9,0.8c0.3,0.2,0.8,0.3,1.2,0.3c0.5,0,1.1,0,1.8-0.2c0.7-0.1,1.5-0.3,2.4-0.4c1.4-0.3,2.6-0.4,3.7-0.4
	c1.1,0,2,0.2,2.8,0.4c0.8,0.3,1.5,0.7,2.1,1.2C316.5,350.5,317.1,351.2,317.6,351.9z M339.8,324c1.4,1.5,2.5,3.1,3.2,4.9
	c0.7,1.8,1.1,3.6,1,5.4c0,1.8-0.4,3.6-1.2,5.4c-0.8,1.8-1.9,3.4-3.5,4.9c-1.6,1.5-3.3,2.6-5,3.3c-1.8,0.7-3.6,1-5.4,0.9
	c-1.8-0.1-3.5-0.5-5.3-1.3c-1.7-0.8-3.3-2-4.7-3.5c-1.4-1.5-2.5-3.1-3.3-4.9c-0.7-1.8-1.1-3.6-1.1-5.4c0-1.8,0.4-3.6,1.2-5.4
	c0.8-1.8,2-3.4,3.5-4.9c1.6-1.5,3.2-2.6,5-3.3c1.8-0.7,3.6-1,5.4-0.9c1.8,0.1,3.6,0.5,5.3,1.3C336.7,321.3,338.3,322.5,339.8,324z
	 M334.7,328.8c-0.9-0.9-1.8-1.6-2.8-2.2c-1-0.5-2-0.8-3-0.9c-1-0.1-2,0-2.9,0.3c-1,0.3-1.8,0.9-2.7,1.7c-0.8,0.8-1.4,1.6-1.7,2.6
	c-0.4,1-0.5,1.9-0.5,2.9c0.1,1,0.3,2,0.8,3c0.5,1,1.2,2,2.1,2.9c0.9,0.9,1.8,1.6,2.8,2.1s2,0.8,3,0.9c1,0.1,2,0,3-0.3
	c1-0.3,1.9-0.9,2.6-1.6c0.8-0.8,1.4-1.6,1.8-2.6c0.4-0.9,0.5-1.9,0.4-2.9c-0.1-1-0.3-2-0.8-3.1C336.3,330.7,335.6,329.7,334.7,328.8
	z M367.4,305.7c0,1.5-0.3,3-0.8,4.6c-0.5,1.6-1.3,3-2.2,4.4c-1.3,1.9-2.8,3.4-4.5,4.5c-1.7,1.1-3.4,1.9-5.3,2.3
	c-1.8,0.4-3.7,0.4-5.6,0c-1.9-0.4-3.7-1.2-5.4-2.4c-1.7-1.2-3.1-2.6-4.2-4.2c-1-1.6-1.7-3.4-2-5.2c-0.3-1.9-0.2-3.8,0.3-5.7
	c0.5-2,1.4-3.9,2.7-5.8c0.9-1.3,2-2.5,3.2-3.5c1.2-1,2.5-1.8,3.8-2.4l3.4,4.8c-1.1,0.5-2.1,1.2-3,1.9c-0.9,0.7-1.7,1.6-2.4,2.5
	c-0.7,1.1-1.3,2.2-1.6,3.3c-0.3,1.1-0.3,2.2-0.2,3.2s0.6,2,1.2,2.9c0.6,0.9,1.5,1.8,2.6,2.5c1.1,0.7,2.2,1.3,3.2,1.5
	c1.1,0.3,2.1,0.3,3.1,0.1s2-0.6,2.9-1.2c0.9-0.6,1.8-1.5,2.5-2.6c0.7-0.9,1.2-2,1.6-3.2c0.4-1.2,0.6-2.5,0.7-3.7L367.4,305.7z
	 M372.6,299.9l-25.1-12.8l3-5.8l25.1,12.8L372.6,299.9z M379.6,285.8l-26.5-9.7l6.2-16.8l5.6,2.1l-3.9,10.6l4.7,1.7l3.6-9.7l5.3,2
	l-3.6,9.7l5.2,1.9l3.9-10.6l5.6,2.1L379.6,285.8z M369,242.8l21.8,4.2l-1.2,6.4l-21.8-4.2l-1.6,8.3l-5.9-1.1l4.5-23.1l5.9,1.1
	L369,242.8z M382.3,216.6l11.2,0.2l-0.1,6.5l-11.2-0.2l-17.2,9.6l0.2-7.5l10.9-5.6l-10.7-6l0.1-7.4L382.3,216.6z M86.2,103.9
	l4.8,4.3l6.6-7.5l4.5,3.9l-6.6,7.5l7.9,7l-4.5,5.1l-21.9-19.3L89.3,91l4.7,4.1L86.2,103.9z M127,78.6c1.3,1.7,2.3,3.5,2.8,5.4
	c0.6,1.9,0.7,3.8,0.5,5.7c-0.2,1.9-0.8,3.7-1.8,5.4c-1,1.7-2.4,3.3-4.1,4.7c-1.8,1.4-3.6,2.4-5.5,2.9c-1.9,0.5-3.8,0.7-5.6,0.4
	c-1.8-0.3-3.6-0.9-5.3-1.9c-1.7-1-3.2-2.4-4.5-4.1c-1.3-1.7-2.3-3.5-2.8-5.4c-0.6-1.9-0.7-3.8-0.5-5.7c0.2-1.9,0.8-3.7,1.8-5.4
	c1-1.8,2.4-3.3,4.1-4.7c1.8-1.4,3.6-2.4,5.5-2.9c1.9-0.5,3.8-0.6,5.6-0.4c1.8,0.3,3.6,0.9,5.3,1.9C124.2,75.5,125.7,76.9,127,78.6z
	 M121.3,83.1c-0.8-1-1.7-1.9-2.7-2.5c-1-0.6-2-1.1-3-1.3c-1-0.2-2-0.2-3.1,0c-1,0.2-2,0.7-2.9,1.4c-0.9,0.7-1.6,1.5-2.1,2.5
	c-0.5,0.9-0.7,1.9-0.8,3c0,1,0.1,2.1,0.5,3.2c0.4,1.1,1,2.2,1.8,3.2c0.8,1,1.7,1.9,2.7,2.5c1,0.6,2,1.1,3,1.3c1,0.2,2.1,0.2,3.1,0
	c1-0.2,2-0.7,2.9-1.4c0.9-0.7,1.6-1.6,2.1-2.5c0.5-0.9,0.7-1.9,0.7-3c0-1.1-0.1-2.1-0.5-3.2C122.7,85.1,122.1,84.1,121.3,83.1z
	 M155.2,80.4l-9.5-6l-1,11.2l-7.1,3.5l2.2-17l-15.2-9.1l7.2-3.6l9.6,6l1-11.3l7.1-3.5l-2.2,17l15.2,9.1L155.2,80.4z M183.4,71.4
	l-0.8,0.2L162.5,46l7.6-1.7l10,13.9l3-16.9l7.4-1.7L183.4,71.4z M216.4,67.4l-2.4-5.2l-10.1,0.5l-1.9,5.4l-6.9,0.3l12.4-30l0.9,0
	l15.1,28.8L216.4,67.4z M208.4,50.2l-2.6,7.1l5.8-0.3L208.4,50.2z M225.2,67.6l3.3-29l6.7,0.8l-2.6,22.9l11.6,1.3l-0.7,6.1
	L225.2,67.6z M246.4,70.4l7.4-28.2l6.5,1.7l-5.9,22.3l11.3,3l-1.6,6L246.4,70.4z M266.9,76.1l11.6-26.8l17,7.3l-2.5,5.7l-10.7-4.7
	l-2.1,4.8l9.8,4.2l-2.3,5.4l-9.8-4.2l-2.3,5.2l10.7,4.7l-2.5,5.7L266.9,76.1z M306.5,83.8l-6.3,9.7l-5.7-3.7l6.3-9.7l1-20.4l6.5,4.2
	l-1.1,12.6l11.1-6.1l6.4,4.2L306.5,83.8z M71.5,189.3c0,3-2.4,5.4-5.4,5.4c-3,0-5.4-2.4-5.4-5.4c0-3,2.4-5.4,5.4-5.4
	C69.1,183.9,71.5,186.3,71.5,189.3z M86.8,140.5c0,1.7-1.4,3.1-3.1,3.1s-3.1-1.4-3.1-3.1s1.4-3.1,3.1-3.1S86.8,138.8,86.8,140.5z
	 M333.1,92.1c0,1.8-1.5,3.3-3.3,3.3c-1.8,0-3.3-1.5-3.3-3.3c0-1.8,1.5-3.3,3.3-3.3C331.6,88.8,333.1,90.3,333.1,92.1z M369,181.7
	c3,0,7.6-4.7,7.6-7.6c0,3,4.7,7.6,7.6,7.6c-3,0-7.6,4.7-7.6,7.6C376.6,186.3,372,181.7,369,181.7z"/>
</svg>
