<?xml version="1.0" encoding="utf-8"?>
<!-- Generator: Adobe Illustrator 24.2.1, SVG Export Plug-In . SVG Version: 6.00 Build 0)  -->
<svg version="1.1" id="Layer_1" xmlns="http://www.w3.org/2000/svg" xmlns:xlink="http://www.w3.org/1999/xlink" x="0px" y="0px"
	 viewBox="0 0 432 432" style="enable-background:new 0 0 432 432;" xml:space="preserve">
<g>
	<path d="M365.3,248l-0.1-1.2l-0.3-7l-0.1-1.4c0,0-0.5-10.5-0.5-10.6l0,0l0,0l0,0l0,0c0-0.5-0.4-9.9-0.4-9.9l-0.1-1.4l-1.4,0.2
		l-6,0.8c-4.5-13.7-10.9-26.6-19-38.2l-0.8-17.7l0.7-0.1l7-0.9l1.2-0.2l-0.1-1.2l-0.3-7l-0.6-13.5l-0.4-8.4l-0.1-1.4l-1.4,0.2
		l-7.5,1l-0.3-8.6l-0.3-8.4l-0.1-1.4l-1.4,0.2l-8.3,1.1l-23.7,3.2l-7,0.9l-1.2,0.2l0.1,1.2l0.3,7l0.5,10.2l-3.2,0.4
		c-21.5-12.4-46.4-19.5-73-19.5c-11.1,0-22,1.3-32.4,3.6l-0.6-9.8c-0.1-2,0.1-3.5,0.4-4.8c0.2-0.4,1-1.4,2-2
		c0.1-0.1,0.5-0.3,0.7-0.4c2.6-1.2,6.9-3.3,8.8-7.9l0.2-0.5l0-0.1l0-0.1l0.1-0.5c1.1-4.2-0.3-8.3-1.3-11.3c-0.2-0.5-0.3-1-0.4-1.3
		l0,0l-1.6-5.5c-1.3-4.5-2.6-9.1-4.1-13.7l0,0c0-0.1,0-0.1,0-0.1l0-0.1c0,0-0.2-0.6-0.4-1.1c1.1-0.8,2-1.6,2.8-2.4
		c5.4-6.2,6.9-14.6,4.1-22.5c-2.3-6.4-8-11.1-15.3-12.5c-7.6-1.5-16.4-0.5-20.8,8.7c-3.1-0.9-8.1-1.2-10.6,1.2
		c-3.6,3.5-3.9,8.9-3.5,11.6c-2.1,2.8-2.9,6.1-2.3,9.5c-2.2,2.7-3.2,6.1-2.9,9.6c-0.8,0.7-2.1,2.3-2.7,4.7l0,0.1l0,0
		c-0.3,1.8-0.2,4.6,0,6.2c-2.3,2.5-3.4,6-3,10l0.1,0.8c-2.6,2.9-3.5,7.3-2.2,11c1.3,3.8,6.2,4.7,6.2,4.7c0,0.5-0.3,2.1-0.1,3.2
		c0.9,3.6,2.8,7.1,7.1,10.8l0.7,19.3C102,160,71.7,207.8,71.7,262.7c0,2.4,0.1,4.9,0.2,7.3c-3.7,6.1-5.5,12.9-5.2,20.2
		c0,0,0,0.2,0,0.2c0,0,3.1,66.6,3.1,66.6c0.4,9.5,4.3,17.7,11.5,23.7c7.1,6,15.9,8.5,25.3,7.2l24.2-3.2l5.2-0.7l0.2,0
		c23.3,15.7,51.3,24.8,81.4,24.8c16,0,31.4-2.6,45.9-7.4l0.1,0l13.4-1.8c6.7-0.9,12.7-3.1,17.8-6.6l0.1,2.8l0.1,1.4l1.4-0.2l8.3-1.1
		l13.4-1.8c9.8-1.3,18-5.4,24.4-12.1c4.5-4.8,7.5-10.2,8.8-16.1c0.1-0.2,0.4-1.3,0.6-3.5c0.2-2.2,0.2-3.2,0.1-4.9l-1.2-25.7
		l-0.4-8.3c8.5-18.5,13.2-39.1,13.2-60.8c0-4.8-0.2-9.6-0.7-14.4l1.2-0.2L365.3,248z M217.7,134.3c15.1,0,29.8,2.6,43.8,7.7
		c-2.1,0.9-4,2-5.8,3.2l-0.1-2.9l-0.1-1.4l-1.4,0.2l-8.3,1.1l-23.7,3.2l-4.8,0.6l-2.1,0.3l-6.1,0.8l-22,2.9l-0.7-11.9
		C196.5,135.6,207,134.3,217.7,134.3z M210.2,156l2.9,59.5c0.2,2.6,0.9,4.8,2.3,6.5c1.2,1.6,2.8,2.2,4.8,1.9l6.1-0.8l-3.1-68.9
		l23.7-3.2l0.9,19.8l2.3,49.1l20.2-2.7c5.6-0.7,7.8-3.4,7.1-8.7c-0.4-3-1.7-5.5-4.1-7.6c0,0-14.2-12.4-14.2-12.4
		c-4.9-4.3-7.8-9.4-8.5-15.1c-0.1-0.9-0.2-1.8-0.2-2.7c-0.1-6.1,2.2-11.4,7.1-15.7c4.7-4.2,10.8-6.9,18-7.9l27.8-3.7l-0.9-18.4
		l23.7-3.2l0.7,18.5l8.9-1.2l0.6,13.5l-8.8,1.2c0.4,8,2.1,48.2,2.1,48.2c0.2,4.5,2,6.5,6,6.4l1.5,0l0.6,13.5l-8.6,1.1
		c-6.3,0.8-11.6-0.2-15.8-3.2c-4.5-3.2-7-8.2-7.3-14.9l0-0.7l-2.1-47.2l-22.7,3c-6.2,0.8-5.9,3.1-5.8,4c0.2,1.3,0.9,2.5,2.2,3.8
		c0,0,17.6,16.7,17.6,16.7c5.6,5.4,8.9,11.3,9.8,17.7c0.1,0.7,0.2,1.4,0.2,2.1c0.3,6.6-2,12.3-7.1,17c-4.8,4.5-11.1,7.3-18.8,8.3
		l-60.7,8.1c-8.1,1.1-14.8-0.2-20-3.7c-5.8-3.8-8.9-10-9.2-18.3l-2-43.2l-5.4,0.7l-0.8-13.5L210.2,156z M238,279.8l-0.1-1.4l1.4-0.2
		l20.8-2.8l1.6-0.2l0.1,1.6l3.2,67.5l4.4-0.6l1.6-0.2l0.1,1.7l0.5,10.5l0.1,1.4l-1.4,0.2l-37,4.9c-8.1,1.1-14.9-0.2-20.1-3.7
		c-5.8-3.8-8.9-10-9.3-18.3l-2-43.4l-3.8,0.5l-1.6,0.2l-0.1-1.6l-0.5-10.5l-0.1-1.4l1.4-0.2l26-3.5l1.6-0.2l0.1,1.6l2.9,58.1
		c0.2,2.6,0.9,4.8,2.3,6.5c1.3,1.6,2.8,2.2,4.9,1.9l6.1-0.8L238,279.8z M141.5,94.6c-0.1-0.1-0.1-0.3-0.2-0.4
		c-0.2-0.7,0-2.3,0.9-2.6c2.5-0.3,5.9,2.3,8.3,1.4c0.6-2.3,1.1-4.6,1.7-6.8c-0.1-0.1-0.2-0.2-0.3-0.3c-2.5,0.2-5.8-0.4-8.1-1.6
		c-0.1-0.9-0.1-2.8,1.1-3.2c2.8-0.4,5.3,1.8,8.1,2c0.7-2.4,1.1-4.6,1.8-7l-1.6-0.4c-0.5,1.7-2.7,1.1-5.5,0.3
		c-1.6-2.6-0.7-5.4,1.7-6.7c4.3,1,5.4,1.2,4.7,3.5c0.5,0.1,1.3,0.3,1.8,0.4c0.1-0.1,1.4-5.3,2-7.6c-2.3-1.2-4.7,2-8.1-1.6
		c-0.4-1.4-0.1-3,1.4-4.2c2.5-0.2,5,1.1,7.3,2.8c0.1-0.1,0.3-0.2,0.4-0.4c0.6-2.2,1.2-4.5,1.8-6.7c-0.1-0.1-0.2-0.2-0.3-0.3
		c-2.2,0.1-5.8-0.9-7.9-1.8c-0.2-1-0.1-2,0.6-2.9c2.7,0.6,5.5,1.1,8.2,1.7c1-1.5,1.8-4.8,1.8-6.5c-0.1-0.1-0.2-0.2-0.3-0.3
		c-4.6,0.6-10.5,1.7-7.1-5.1c3.5-1.2,5.2,2.2,8.3,2.2c1.1-2.2,1.4-4.1,3.4-6.4c5.5-6.2,17.6-4.3,20.3,3.3c1.6,4.4,1.2,9.5-2.4,13.6
		c-1.7,1.9-6.5,3.4-6.7,5.2c0.8,2.4,1.7,4.8,2.6,7.2c2.1,6.3,3.8,12.7,5.6,18.9c0.6,2.2,2.2,5.7,1.7,7.9c-0.7,1.8-4,2.9-5.5,3.8
		c-3.3,1.8-5.7,5.1-6.3,7.3c-0.7,2.5-0.8,5.1-0.7,7.8l7.6,128.4c0.3,6.7-1.8,12.8-6.5,17.9c-4.6,5.1-10.8,8.2-18.5,9.3l-24.9,3.3
		l-0.6-13.5l18.2-2.4c6.1-0.8,8.9-4.5,8.6-11.7l-4.7-131c0,0-6.7-4.7-7.1-7.8c-0.3-2.3,2.3-5.1,1.6-7.3
		C146.8,95.7,144.1,95.1,141.5,94.6z M99.4,212.8c3.2-7.6,7.2-14.9,11.8-21.8c4.6-6.8,9.9-13.2,15.7-19c5.8-5.8,12.2-11.1,19-15.7
		c0.5-0.4,1-0.7,1.6-1l3.2,87.4c0,1.3-0.1,2-0.1,2.4c-0.2,0.1-0.4,0.1-0.7,0.1l-18.2,2.4l-7,0.9l-1.2,0.2l0,0L98.6,252
		c-3.2,0.4-6.2,1.2-9.1,2.4C90.5,240,93.8,226,99.4,212.8z M105.4,379c-7,0.9-13.2-0.8-18.4-5.2c-5.2-4.4-8-10.2-8.3-17.3
		c0,0-3.1-66.7-3.1-66.7c-0.3-7,2-13.4,6.7-19.1c4.7-5.6,10.6-9,17.5-9.9l29.7-4l0.6,13.5l-22.2,3c-2.6,0.3-4.7,1.6-6.5,3.7
		c-1.7,2.1-2.5,4.4-2.4,7l1.4,29.5l25.8-3.4l0.8,13.5l-26,3.5c0.3,6,1.3,29.9,1.3,29.9c0.1,2.5,1,4.5,2.9,6.1c1.9,1.6,4,2.2,6.6,1.8
		l22.5-3l0.6,13.3L105.4,379z M134.9,305.8l-5.9,0.8l-0.6-13.5l36.3-4.8c8.8-1.2,16.1-0.3,21.5,2.6c6.3,3.5,9.8,9.4,10.2,17.6
		l2,39.5c0.2,3.6,1,4.3,1.2,4.4l0,0l0,0c0,0,0.7,0.4,3.8,0l1.6-0.2l0.6,13.5l-10.2,1.4c-5.5,0.7-10.1,0-13.8-2.3
		c-4.3-2.7-6.7-6.9-6.9-12.6l-2-43.3c-0.1-2.1-0.8-3.8-2-5.2c-1.5-1.6-3.2-2.2-5.2-2l-7,0.9l3,67.5l0.1,1.4l-1.4,0.2l-22.3,3
		L134.9,305.8z M217.7,391.1c-17.3,0-34.2-3.4-50-10.1c-0.8-0.3-1.5-0.7-2.3-1l4.3-0.6l1.2-0.2l-0.1-1.2l-0.3-7l-0.1-1.4l-0.2-3.5
		c1.7,2.4,3.9,4.4,6.6,6.1c0.1,0,0.1,0.1,0.1,0.1c5.5,3.3,12.1,4.5,19.6,3.5l10.2-1.4l7-0.9l1.2-0.2l-0.1-1.2l-0.1-2.9
		c5.7,2.1,12.3,2.7,19.6,1.7l35.1-4.7l0.1,2.5l-8.8,1.2l-7,0.9l-1.2,0.2l0,1.2l0.3,7l0.3,6.7C241.8,389.4,229.9,391.1,217.7,391.1z
		 M336.1,375.8c-5,5.2-11.4,8.4-19.1,9.4l-13.4,1.8l-0.6-13.5l11.9-1.6c2.2-0.3,5.1-1.5,4.7-8.5l-3.8-81.8l-17.4,2.3
		c0.5,10.6,3.6,79.4,3.6,79.4c0.3,6.6-2,12.7-7,17.9c-5,5.2-11.4,8.4-19.1,9.4l-13.4,1.8l-0.6-13.5l11.9-1.6
		c2.2-0.3,5.1-1.5,4.7-8.5l-3.8-81.8l-9.7,1.3l-0.6-13.5l9.7-1.3c-0.1-3.4-0.5-12.1-0.5-12.1c-0.3-7.4,2-13.7,7-18.8
		c4.6-4.6,10.5-7.4,17.7-8.3l14.4-1.9l1.6-0.2l0.1,1.6l0.5,10.5l0.1,1.4l-1.4,0.2l-11.7,1.6c-1.3,0.2-2.4,1-3.4,2.6
		c-1.1,1.7-1.5,3.6-1.4,6l0.7,14.5l17.4-2.3c-0.1-3.4-0.5-12.1-0.5-12.1c-0.2-3.7,0.3-7.1,1.5-10.3c1.2-3.1,3-6,5.5-8.6
		c4.6-4.6,10.5-7.4,17.7-8.3l14.4-1.9l1.6-0.2l0.1,1.6l0.5,10.5l0.1,1.4l-1.4,0.2L343,242c-1.3,0.2-2.4,1-3.4,2.6
		c-1.1,1.7-1.5,3.6-1.4,6l0.7,14.5l11.3-1.5l0.6,13.5l-11.3,1.5c0.5,10.6,3.6,79.4,3.6,79.4C343.4,364.5,341.1,370.5,336.1,375.8z"
		/>
</g>
</svg>
