<?xml version="1.0" encoding="utf-8"?>
<!-- Generator: Adobe Illustrator 24.2.1, SVG Export Plug-In . SVG Version: 6.00 Build 0)  -->
<svg version="1.1" id="Layer_1" xmlns="http://www.w3.org/2000/svg" xmlns:xlink="http://www.w3.org/1999/xlink" x="0px" y="0px"
	 viewBox="0 0 432 432" style="enable-background:new 0 0 432 432;" xml:space="preserve">
<style type="text/css">
	.st0{fill:#F9F6E8;}
	.st1{fill:#0072BC;}
	.st2{font-family:'GillSans';}
	.st3{font-size:107.3361px;}
</style>
<rect class="st0" width="432" height="432"/>
<g>
	<path class="st1" d="M128.9,174.6c-1.9,0.4-14.5,5.1-15.6,5.6c-1.2,0.4-4.3,0.8-4.8,0.8c-0.4,0.1-3.7-0.2-4.5-0.2
		c-0.9,0-8.2-1.5-14.7,6.5c-1.8,2-3,3.1-3.9,3.8c-5.5,0.5-10.5-1.7-10.5-1.7s-10-2.8-15.9-4c-6-1.3-16.8-5.2-18-6
		c-1.2-0.8-2.1-0.6-1.8-0.3c0.3,0.4,5.6,5.9,5.6,5.9c-1,0.2-13.4-2.5-13.4-2.5s-3.6-0.9-4.2-0.3c-0.6,0.6,1.7,1.7,1.7,1.7
		c0.4,1,3.6,2.3,3.6,2.3s-0.6,0.9-0.5,1.8c0.1,0.8,4.9,1.9,4.9,1.9s-0.5,0.9,0.3,1.9c0.7,0.8,4.7,1.4,5.7,1.5
		c-0.1,0.1-0.1,0.4,0.1,1.4c0.4,1.8,6,1.8,6,1.8c-0.2,0.2-0.1,1.9,0.4,2.9c0.5,1,5.2,0.1,5.2,0.1s-0.6,2.3,0.2,3.2
		c0.8,0.9,5.2,1,5.2,1c-0.9,1.6,1.3,2.3,1.3,2.3c0.7,0.5,1.3,0.7,1.7,0.7c-1.3,1.4-2.4,2.9-3.4,4.4c0,0-2.7,4.1-2.6,4.5
		c0.1,0.4,0.5,0.6,0.5,0.6s-0.5,2.1-0.5,2.6c0,0.5-0.6,3.6-0.6,3.6l-0.6,4.8c0,0-1.1,5-1.1,5.2c0,0.2,0,1,0,1s-1,2.4-1.2,3
		c-0.2,0.6-1.4,1.8-1.8,3.9c-0.4,2.1-1,3.4-1,3.6c0,0.2,0.4,1,0.8,0.5c0.4-0.5,0.2,0.3,0.2,0.7c0,0.4,2.2,2.7,4.2,0.6
		c2-2.1,6.1-9.8,6.1-9.8s-1,12.1-0.3,12.4c0.7,0.3,2.3,2.3,4.5-1.5c0,0,1.1,3.5,4-1c0,0,2.8-1.2,4.1-6.4c0,0,1.8-5.9,0.7-16.6
		c0,0,1.1-1.4,2.3-1.6c1.2-0.2,7.7-3.9,7.7-3.9s18-7.5,20.1-19c0,0,2.1-6.7,3-8.6c0.9-1.9,2.5-5.3,4.8-6.5c2.5-1.4,17.9-7.5,18-7.7
		C131,174.7,130.8,174.2,128.9,174.6z"/>
	<text transform="matrix(1 0 0 1 141.2012 248.874)" class="st2 st3">ORIN</text>
</g>
</svg>
