<?xml version="1.0" encoding="utf-8"?>
<!-- Generator: Adobe Illustrator 24.2.1, SVG Export Plug-In . SVG Version: 6.00 Build 0)  -->
<svg version="1.1" id="Layer_1" xmlns="http://www.w3.org/2000/svg" xmlns:xlink="http://www.w3.org/1999/xlink" x="0px" y="0px"
	 viewBox="0 0 432 432" style="enable-background:new 0 0 432 432;" xml:space="preserve">
<style type="text/css">
	.st0{fill:#E9F2F7;}
	.st1{fill:none;}
	.st2{fill:#183058;}
	.st3{fill:#FFFFFF;}
	.st4{fill:#1A2E59;}
	.st5{fill:#ED1C24;}
	.st6{fill:#192E58;}
	.st7{fill:#274672;}
	.st8{fill:none;stroke:#1A2E59;stroke-width:0;stroke-linecap:round;stroke-linejoin:round;}
	.st9{fill:#153156;}
</style>
<g>
	<rect class="st0" width="432" height="432"/>
</g>
<g>
	<g>
		<g>
			<path class="st1" d="M313.7,442.6l-12.2-2.5C309.4,441.9,313.7,442.6,313.7,442.6z"/>
		</g>
		<g>
			<path class="st2" d="M323.7,19.1c-0.2,0-20.6,0.3-53.5,5.9c-29.3,5-74.6,15.6-124.1,37.1l-0.2,0.1c-49.3,22-87.6,48.4-111.1,66.6
				C8.5,149.2-5.5,164.1-5.6,164.2l-9.7,10.3l-8.5,33.7c0,0,97.4,197.9,295.1,243l42.5-8.7c0,0-4.4-0.7-12.2-2.5l12.2,2.5l7.5-12.6
				c2.8-4.8,28-48.7,43.5-118.4c9.3-41.9,13.2-84.4,11.3-126.3C373.8,133,362.7,81.4,343,32l-5.2-13.1L323.7,19.1z M336,34.8
				c19.4,48.6,30.3,99.4,32.6,150.9c1.8,41.2-2,83.1-11.2,124.3c-15.7,70.3-41.6,114.3-42.6,116.2l-4.7,8l-9.1-1.9
				c-2.1-0.4-52-11-114.5-46.9c-36.6-21-70.1-46.5-99.3-75.6C50.5,273.4,20.4,231-2.4,184l-3.9-8.1l6.2-6.5
				c0.6-0.6,14.3-15,39.5-34.7c23.1-18,61-43.9,109.6-65.7l0.1,0l0.1,0c48.8-21.2,93.5-31.6,122.4-36.6c31.5-5.4,51.4-5.8,52.3-5.8
				l9-0.1L336,34.8z"/>
		</g>
		<g>
			<path class="st3" d="M271.5,32.4c-28.9,5-73.6,15.4-122.4,36.6l-0.1,0l-0.1,0c-48.6,21.7-86.4,47.7-109.6,65.7
				c-25.3,19.6-39,34-39.5,34.7l-6.2,6.5l3.9,8.1c22.8,47.1,52.9,89.4,89.5,125.8c29.3,29.1,62.7,54.6,99.3,75.6
				c62.5,35.9,112.4,46.4,114.5,46.9l9.1,1.9l4.7-8c1.1-1.8,27-45.8,42.6-116.2c9.2-41.2,13-83.1,11.2-124.3
				c-2.2-51.6-13.2-102.4-32.6-150.9l-3.3-8.3l-9,0.1C322.9,26.6,303,27,271.5,32.4z M356,209.2c0,0.2,0,0.4,0,0.7
				c0,3.7-0.1,7.4-0.2,11.1c0,0.2,0,0.4,0,0.6c-0.1,3.7-0.3,7.3-0.5,10.9c0,0.1,0,0.3,0,0.4c-0.1,1.7-0.2,3.5-0.3,5.2
				c0,0.1,0,0.2,0,0.3c-0.3,3.6-0.6,7.2-0.9,10.7c0,0.2,0,0.3,0,0.5c-0.3,3.5-0.7,7-1.1,10.4c0,0.2,0,0.3-0.1,0.5
				c-0.4,3.4-0.9,6.8-1.3,10.2c0,0.1,0,0.2,0,0.3c-0.5,3.4-1,6.7-1.5,10c0,0,0,0,0,0c-0.3,1.6-0.5,3.2-0.8,4.8c0,0.1,0,0.2,0,0.3
				c-0.6,3.2-1.2,6.4-1.8,9.5c0,0.1,0,0.2-0.1,0.3c-0.6,3.1-1.3,6.2-1.9,9.2c0,0.1,0,0.2-0.1,0.3c-0.7,3.1-1.4,6.1-2.1,9
				c0,0,0,0,0,0.1c-0.4,1.5-0.7,2.9-1.1,4.4c0,0,0,0.1,0,0.1c-0.7,2.9-1.5,5.8-2.2,8.6c0,0.1,0,0.2-0.1,0.2
				c-0.7,2.8-1.5,5.5-2.3,8.2c0,0.1,0,0.2-0.1,0.2c-0.8,2.7-1.6,5.3-2.4,7.9c0,0,0,0.1,0,0.1c-1.2,3.9-2.4,7.6-3.6,11.2
				c0,0.1,0,0.1-0.1,0.2c-0.8,2.4-1.6,4.7-2.4,7c0,0.1-0.1,0.1-0.1,0.2c-0.8,2.3-1.6,4.5-2.4,6.6c0,0.1,0,0.1-0.1,0.2
				c-0.8,2.2-1.6,4.2-2.4,6.3c0,0,0,0,0,0c-0.4,1-0.8,2-1.2,3c0,0,0,0.1,0,0.1c-0.8,1.9-1.5,3.8-2.3,5.6c0,0.1-0.1,0.1-0.1,0.2
				c-0.7,1.8-1.5,3.5-2.2,5.2c0,0.1-0.1,0.1-0.1,0.2c-0.7,1.7-1.4,3.3-2.1,4.8c0,0,0,0.1-0.1,0.1c-0.3,0.7-0.7,1.5-1,2.2
				c0,0,0,0.1-0.1,0.1c-0.7,1.5-1.3,2.8-1.9,4.2c0,0.1-0.1,0.1-0.1,0.2c-0.6,1.3-1.2,2.5-1.8,3.7c0,0.1-0.1,0.1-0.1,0.2
				c-0.6,1.2-1.1,2.2-1.6,3.2c0,0.1-0.1,0.1-0.1,0.2c-0.2,0.5-0.5,0.9-0.7,1.4c0,0,0,0.1-0.1,0.1c-0.2,0.5-0.5,0.9-0.7,1.4
				c0,0,0,0.1-0.1,0.1c-0.2,0.4-0.4,0.8-0.6,1.1c0,0.1-0.1,0.1-0.1,0.2c-0.4,0.8-0.8,1.5-1.1,2.1c0,0.1-0.1,0.1-0.1,0.2
				c-0.3,0.6-0.6,1.2-0.9,1.6c0,0-0.1,0.1-0.1,0.1c-0.1,0.2-0.2,0.4-0.3,0.6c0,0,0,0,0,0.1c-0.1,0.2-0.2,0.4-0.3,0.5
				c0,0,0,0.1-0.1,0.1c-0.1,0.1-0.1,0.2-0.2,0.3c0,0,0,0.1,0,0.1c-0.1,0.1-0.1,0.2-0.2,0.3c0,0,0,0,0,0c0,0.1-0.1,0.1-0.1,0.2
				c0,0,0,0,0,0c0,0,0,0,0,0s0,0,0,0c0,0,0,0-0.1,0c0,0-0.1,0-0.2,0c0,0,0,0,0,0c-0.1,0-0.2,0-0.3-0.1c0,0-0.1,0-0.1,0
				c-0.1,0-0.2-0.1-0.4-0.1c0,0-0.1,0-0.1,0c-0.2,0-0.4-0.1-0.6-0.1c0,0,0,0,0,0c-0.2,0-0.4-0.1-0.7-0.2c-0.1,0-0.1,0-0.2,0
				c-0.5-0.1-1.1-0.3-1.8-0.4c-0.1,0-0.1,0-0.2-0.1c-0.7-0.2-1.5-0.4-2.3-0.6c-0.1,0-0.1,0-0.2-0.1c-0.4-0.1-0.8-0.2-1.2-0.3
				c0,0-0.1,0-0.1,0c-0.5-0.1-1-0.3-1.5-0.4c0,0-0.1,0-0.1,0c-0.5-0.1-1-0.3-1.5-0.4c-0.1,0-0.1,0-0.2-0.1c-1.1-0.3-2.2-0.6-3.5-1
				c-0.1,0-0.1,0-0.2-0.1c-1.2-0.4-2.5-0.8-3.9-1.2c-0.1,0-0.2,0-0.2-0.1c-1.4-0.4-2.8-0.9-4.4-1.4c-0.1,0-0.1,0-0.2-0.1
				c-0.7-0.2-1.5-0.5-2.2-0.7c-0.1,0-0.1,0-0.2-0.1c-1.6-0.5-3.2-1.1-5-1.7c-0.1,0-0.2-0.1-0.2-0.1c-1.7-0.6-3.5-1.2-5.3-1.9
				c-0.1,0-0.2-0.1-0.2-0.1c-1.8-0.7-3.7-1.4-5.7-2.1c0,0-0.1,0-0.1-0.1c-1-0.4-1.9-0.7-2.9-1.1c0,0,0,0-0.1,0
				c-2-0.8-4.1-1.6-6.2-2.5c-0.1,0-0.1-0.1-0.2-0.1c-2.1-0.9-4.3-1.7-6.5-2.7c-0.1,0-0.2-0.1-0.2-0.1c-2.2-0.9-4.5-1.9-6.7-2.9
				c-0.1,0-0.1-0.1-0.2-0.1c-2.3-1-4.7-2.1-7.1-3.2c0,0,0,0,0,0c-1.2-0.5-2.4-1.1-3.6-1.7c-0.1,0-0.1-0.1-0.2-0.1
				c-2.4-1.1-4.9-2.3-7.4-3.6c-0.1,0-0.2-0.1-0.3-0.1c-2.5-1.2-5-2.5-7.5-3.8c-0.1,0-0.2-0.1-0.3-0.1c-2.6-1.3-5.1-2.7-7.8-4.1
				c0,0-0.1,0-0.1-0.1c-1.3-0.7-2.6-1.4-3.9-2.1c0,0-0.1,0-0.1-0.1c-2.6-1.5-5.3-3-8-4.5c-0.1-0.1-0.2-0.1-0.3-0.2
				c-2.7-1.5-5.4-3.1-8.1-4.8c-0.1-0.1-0.2-0.1-0.3-0.2c-2.7-1.6-5.5-3.3-8.2-5.1c-0.1-0.1-0.2-0.1-0.3-0.2
				c-1.3-0.9-2.7-1.7-4.1-2.6c0,0-0.1,0-0.1-0.1c-1.4-0.9-2.8-1.9-4.3-2.8c0,0,0,0,0,0c-1.4-0.9-2.7-1.8-4.1-2.8
				c-0.1-0.1-0.2-0.2-0.3-0.2c-2.8-1.9-5.6-3.8-8.3-5.8c-0.1-0.1-0.3-0.2-0.4-0.3c-2.8-2-5.6-4-8.4-6.1c-0.1-0.1-0.3-0.2-0.4-0.3
				c-1.4-1-2.7-2.1-4.1-3.1c0,0,0,0-0.1,0c-1.4-1.1-2.9-2.2-4.3-3.4c-0.1-0.1-0.2-0.1-0.3-0.2c-1.3-1-2.7-2.1-4-3.2
				c-0.1-0.1-0.3-0.2-0.4-0.3c-2.8-2.3-5.6-4.6-8.4-7c-0.2-0.1-0.4-0.3-0.5-0.4c-2.8-2.4-5.5-4.8-8.3-7.3c-0.2-0.2-0.4-0.3-0.5-0.5
				c-1.4-1.2-2.7-2.4-4.1-3.7c0,0,0,0,0,0l0,0c-36.7-33.8-72.1-77.7-99.5-134.3c0,0,53.1-56.3,145-97.4
				c92.2-40.1,169.6-41.4,169.6-41.4C348.1,100.2,356.4,157.9,356,209.2z"/>
		</g>
		<g>
			<path class="st4" d="M314.8,397.4c-0.7,1.5-1.3,2.8-1.9,4.2C313.5,400.2,314.1,398.8,314.8,397.4z"/>
		</g>
		<g>
			<path class="st4" d="M310.9,405.6c-0.6,1.2-1.1,2.2-1.6,3.2C309.8,407.9,310.3,406.8,310.9,405.6z"/>
		</g>
		<g>
			<path class="st4" d="M312.8,401.7c-0.6,1.3-1.2,2.5-1.8,3.7C311.6,404.3,312.2,403,312.8,401.7z"/>
		</g>
		<g>
			<path class="st4" d="M315.8,395.1c-0.3,0.7-0.7,1.5-1,2.2C315.2,396.5,315.5,395.8,315.8,395.1z"/>
		</g>
		<g>
			<path class="st4" d="M320.3,384.8c-0.7,1.8-1.5,3.5-2.2,5.2C318.8,388.3,319.5,386.6,320.3,384.8z"/>
		</g>
		<g>
			<path class="st4" d="M323.9,375.8c-0.4,1-0.8,2-1.2,3C323.1,377.8,323.5,376.8,323.9,375.8z"/>
		</g>
		<g>
			<path class="st4" d="M326.3,369.5c-0.8,2.2-1.6,4.2-2.4,6.3C324.7,373.8,325.5,371.7,326.3,369.5z"/>
		</g>
		<g>
			<path class="st4" d="M318,390.2c-0.7,1.7-1.4,3.3-2.1,4.8C316.6,393.4,317.3,391.8,318,390.2z"/>
		</g>
		<g>
			<path class="st4" d="M322.7,378.9c-0.8,1.9-1.5,3.8-2.3,5.6C321.1,382.7,321.9,380.9,322.7,378.9z"/>
		</g>
		<g>
			<path class="st4" d="M309.2,409c-0.2,0.5-0.5,0.9-0.7,1.4C308.7,410,309,409.5,309.2,409z"/>
		</g>
		<g>
			<path class="st4" d="M304.5,418c-0.1,0.2-0.2,0.4-0.3,0.5C304.3,418.3,304.4,418.1,304.5,418z"/>
		</g>
		<g>
			<path class="st4" d="M303.9,419c-0.1,0.1-0.1,0.2-0.2,0.3C303.8,419.2,303.9,419.1,303.9,419z"/>
		</g>
		<g>
			<path class="st4" d="M304.2,418.6c-0.1,0.1-0.1,0.2-0.2,0.3C304,418.8,304.1,418.7,304.2,418.6z"/>
		</g>
		<g>
			<path class="st4" d="M303.7,419.3c0,0.1-0.1,0.1-0.1,0.2C303.7,419.4,303.7,419.4,303.7,419.3z"/>
		</g>
		<g>
			<path class="st4" d="M308.5,410.5c-0.2,0.5-0.5,0.9-0.7,1.4C308,411.4,308.2,411,308.5,410.5z"/>
		</g>
		<g>
			<path class="st4" d="M304.9,417.3c-0.1,0.2-0.2,0.4-0.3,0.6C304.6,417.7,304.7,417.5,304.9,417.3z"/>
		</g>
		<g>
			<path class="st4" d="M307,413.3c-0.4,0.8-0.8,1.5-1.1,2.1C306.3,414.8,306.6,414.1,307,413.3z"/>
		</g>
		<g>
			<path class="st4" d="M307.7,412c-0.2,0.4-0.4,0.8-0.6,1.1C307.3,412.7,307.5,412.4,307.7,412z"/>
		</g>
		<g>
			<path class="st4" d="M305.8,415.6c-0.3,0.6-0.6,1.2-0.9,1.6C305.2,416.7,305.5,416.2,305.8,415.6z"/>
		</g>
		<g>
			<path class="st4" d="M337.3,336.2c-0.8,2.7-1.6,5.3-2.4,7.9C335.7,341.5,336.5,338.9,337.3,336.2z"/>
		</g>
		<g>
			<path class="st4" d="M351.3,270.9c-0.5,3.4-1,6.7-1.5,10C350.4,277.6,350.9,274.2,351.3,270.9z"/>
		</g>
		<g>
			<path class="st4" d="M352.7,260.4c-0.4,3.4-0.9,6.8-1.3,10.2C351.9,267.2,352.3,263.8,352.7,260.4z"/>
		</g>
		<g>
			<path class="st4" d="M353.9,249.5c-0.3,3.5-0.7,7-1.1,10.4C353.2,256.5,353.6,253,353.9,249.5z"/>
		</g>
		<g>
			<path class="st4" d="M328.7,362.8c-0.8,2.3-1.6,4.5-2.4,6.6C327.1,367.2,327.9,365,328.7,362.8z"/>
		</g>
		<g>
			<path class="st4" d="M356,209.8c0,3.7-0.1,7.4-0.2,11.1C355.9,217.3,355.9,213.6,356,209.8z"/>
		</g>
		<g>
			<path class="st4" d="M348.9,286c-0.6,3.2-1.2,6.4-1.8,9.5C347.8,292.4,348.4,289.2,348.9,286z"/>
		</g>
		<g>
			<path class="st4" d="M355.7,221.5c-0.1,3.7-0.3,7.3-0.5,10.9C355.4,228.9,355.6,225.2,355.7,221.5z"/>
		</g>
		<g>
			<path class="st4" d="M355.2,232.9c-0.1,1.7-0.2,3.5-0.3,5.2C355,236.4,355.1,234.6,355.2,232.9z"/>
		</g>
		<g>
			<path class="st4" d="M354.8,238.3c-0.3,3.6-0.6,7.2-0.9,10.7C354.3,245.5,354.6,242,354.8,238.3z"/>
		</g>
		<g>
			<path class="st4" d="M349.8,280.9c-0.3,1.6-0.5,3.2-0.8,4.8C349.3,284.2,349.5,282.5,349.8,280.9z"/>
		</g>
		<g>
			<path class="st4" d="M334.9,344.2c-1.2,3.9-2.4,7.6-3.6,11.2C332.5,351.8,333.7,348.1,334.9,344.2z"/>
		</g>
		<g>
			<path class="st4" d="M303.6,419.5C303.6,419.5,303.6,419.5,303.6,419.5C303.6,419.5,303.6,419.5,303.6,419.5z"/>
		</g>
		<g>
			<path class="st4" d="M331.2,355.6c-0.8,2.4-1.6,4.7-2.4,7C329.6,360.3,330.4,358,331.2,355.6z"/>
		</g>
		<g>
			<path class="st4" d="M339.6,327.8c-0.7,2.8-1.5,5.5-2.3,8.2C338.1,333.3,338.9,330.6,339.6,327.8z"/>
		</g>
		<g>
			<path class="st4" d="M347.1,295.9c-0.6,3.1-1.3,6.2-1.9,9.2C345.8,302.1,346.5,299,347.1,295.9z"/>
		</g>
		<g>
			<path class="st4" d="M345.1,305.4c-0.7,3.1-1.4,6.1-2.1,9C343.7,311.5,344.4,308.5,345.1,305.4z"/>
		</g>
		<g>
			<path class="st4" d="M343,314.5c-0.4,1.5-0.7,2.9-1.1,4.4C342.3,317.5,342.7,316,343,314.5z"/>
		</g>
		<g>
			<path class="st4" d="M341.9,319c-0.7,2.9-1.5,5.8-2.2,8.6C340.5,324.7,341.2,321.9,341.9,319z"/>
		</g>
		<g>
			<path class="st4" d="M139.6,338.5c-1.4-1.1-2.9-2.2-4.3-3.4C136.7,336.3,138.1,337.4,139.6,338.5z"/>
		</g>
		<g>
			<path class="st4" d="M199.4,377.8c-2.6-1.5-5.3-3-8-4.5C194.1,374.8,196.7,376.3,199.4,377.8z"/>
		</g>
		<g>
			<path class="st4" d="M191.1,373.1c-2.7-1.5-5.4-3.1-8.1-4.8C185.7,369.9,188.4,371.5,191.1,373.1z"/>
		</g>
		<g>
			<path class="st4" d="M170,360.1c-1.4-0.9-2.8-1.9-4.3-2.8C167.2,358.3,168.6,359.2,170,360.1z"/>
		</g>
		<g>
			<path class="st4" d="M174.2,362.8c-1.3-0.9-2.7-1.7-4.1-2.6C171.5,361.1,172.8,362,174.2,362.8z"/>
		</g>
		<g>
			<path class="st4" d="M182.7,368.1c-2.7-1.6-5.5-3.3-8.2-5.1C177.2,364.7,179.9,366.4,182.7,368.1z"/>
		</g>
		<g>
			<path class="st4" d="M203.4,380c-1.3-0.7-2.6-1.4-3.9-2.1C200.8,378.6,202.1,379.3,203.4,380z"/>
		</g>
		<g>
			<path class="st4" d="M230.4,393.5c-1.2-0.5-2.4-1.1-3.6-1.7C228.1,392.4,229.3,393,230.4,393.5z"/>
		</g>
		<g>
			<path class="st4" d="M211.3,384.1c-2.6-1.3-5.1-2.7-7.8-4.1C206.1,381.5,208.7,382.8,211.3,384.1z"/>
		</g>
		<g>
			<path class="st4" d="M226.7,391.8c-2.4-1.1-4.9-2.3-7.4-3.6C221.8,389.5,224.3,390.6,226.7,391.8z"/>
		</g>
		<g>
			<path class="st4" d="M219.1,388.1c-2.5-1.2-5-2.5-7.5-3.8C214.1,385.6,216.6,386.9,219.1,388.1z"/>
		</g>
		<g>
			<path class="st4" d="M165.7,357.3c-1.4-0.9-2.7-1.8-4.1-2.8C163,355.5,164.4,356.4,165.7,357.3z"/>
		</g>
		<g>
			<path class="st4" d="M112.9,316.3c-1.4-1.2-2.7-2.4-4.1-3.7C110.2,313.9,111.6,315.1,112.9,316.3z"/>
		</g>
		<g>
			<path class="st4" d="M130.6,331.5c-2.8-2.3-5.6-4.6-8.4-7C125.1,326.9,127.9,329.2,130.6,331.5z"/>
		</g>
		<g>
			<path class="st4" d="M121.8,324.1c-2.8-2.4-5.5-4.8-8.3-7.3C116.2,319.3,119,321.7,121.8,324.1z"/>
		</g>
		<g>
			<path class="st4" d="M237.6,396.7c-2.3-1-4.7-2.1-7.1-3.2C232.9,394.6,235.2,395.7,237.6,396.7z"/>
		</g>
		<g>
			<path class="st4" d="M303.6,419.5C303.6,419.5,303.6,419.5,303.6,419.5C303.6,419.5,303.6,419.5,303.6,419.5z"/>
		</g>
		<g>
			<path class="st4" d="M161.3,354.3c-2.8-1.9-5.6-3.8-8.3-5.8C155.7,350.5,158.5,352.4,161.3,354.3z"/>
		</g>
		<g>
			<path class="st4" d="M152.5,348.2c-2.8-2-5.6-4-8.4-6.1C146.9,344.1,149.7,346.2,152.5,348.2z"/>
		</g>
		<g>
			<path class="st4" d="M143.7,341.7c-1.4-1-2.7-2.1-4.1-3.1C141,339.6,142.4,340.7,143.7,341.7z"/>
		</g>
		<g>
			<path class="st4" d="M135,335c-1.3-1-2.7-2.1-4-3.2C132.4,332.9,133.7,333.9,135,335z"/>
		</g>
		<g>
			<path class="st4" d="M300.9,418.9c-0.5-0.1-1.1-0.3-1.8-0.4C299.8,418.7,300.4,418.8,300.9,418.9z"/>
		</g>
		<g>
			<path class="st4" d="M302.4,419.3c-0.2,0-0.4-0.1-0.6-0.1C302,419.2,302.2,419.2,302.4,419.3z"/>
		</g>
		<g>
			<path class="st4" d="M301.8,419.1c-0.2,0-0.4-0.1-0.7-0.2C301.3,419,301.6,419.1,301.8,419.1z"/>
		</g>
		<g>
			<path class="st4" d="M293.5,417c-0.5-0.1-1-0.3-1.5-0.4C292.6,416.8,293.1,416.9,293.5,417z"/>
		</g>
		<g>
			<path class="st4" d="M295.1,417.5c-0.5-0.1-1-0.3-1.5-0.4C294.2,417.2,294.6,417.3,295.1,417.5z"/>
		</g>
		<g>
			<path class="st4" d="M296.5,417.8c-0.4-0.1-0.8-0.2-1.2-0.3C295.7,417.6,296.1,417.7,296.5,417.8z"/>
		</g>
		<g>
			<path class="st4" d="M298.9,418.4c-0.7-0.2-1.5-0.4-2.3-0.6C297.5,418.1,298.3,418.3,298.9,418.4z"/>
		</g>
		<g>
			<path class="st4" d="M302.9,419.4c-0.1,0-0.2-0.1-0.4-0.1C302.6,419.3,302.8,419.4,302.9,419.4z"/>
		</g>
		<g>
			<path class="st4" d="M303.5,419.5c0,0-0.1,0-0.2,0C303.4,419.5,303.5,419.5,303.5,419.5z"/>
		</g>
		<g>
			<path class="st4" d="M244.5,399.7c-2.2-0.9-4.5-1.9-6.7-2.9C240,397.8,242.3,398.8,244.5,399.7z"/>
		</g>
		<g>
			<path class="st4" d="M303.3,419.5c-0.1,0-0.2,0-0.3-0.1C303.1,419.4,303.2,419.5,303.3,419.5z"/>
		</g>
		<g>
			<path class="st4" d="M291.9,416.6c-1.1-0.3-2.3-0.6-3.5-1C289.6,415.9,290.8,416.3,291.9,416.6z"/>
		</g>
		<g>
			<path class="st4" d="M277.1,412c-1.6-0.5-3.2-1.1-5-1.7C273.9,411,275.6,411.5,277.1,412z"/>
		</g>
		<g>
			<path class="st4" d="M260.6,406.2c-1-0.4-1.9-0.7-2.9-1.1C258.7,405.4,259.6,405.8,260.6,406.2z"/>
		</g>
		<g>
			<path class="st4" d="M266.4,408.3c-1.8-0.7-3.7-1.4-5.7-2.1C262.7,407,264.6,407.7,266.4,408.3z"/>
		</g>
		<g>
			<path class="st4" d="M251.2,402.5c-2.1-0.9-4.3-1.7-6.5-2.7C246.9,400.8,249.1,401.7,251.2,402.5z"/>
		</g>
		<g>
			<path class="st4" d="M257.6,405c-2-0.8-4.1-1.6-6.2-2.5C253.5,403.4,255.6,404.3,257.6,405z"/>
		</g>
		<g>
			<path class="st4" d="M272,410.3c-1.7-0.6-3.5-1.2-5.3-1.9C268.5,409.1,270.3,409.7,272,410.3z"/>
		</g>
		<g>
			<path class="st4" d="M284,414.2c-1.4-0.4-2.8-0.9-4.4-1.4C281.2,413.4,282.6,413.8,284,414.2z"/>
		</g>
		<g>
			<path class="st4" d="M288.2,415.5c-1.2-0.4-2.5-0.8-3.9-1.2C285.6,414.7,286.9,415.1,288.2,415.5z"/>
		</g>
		<g>
			<path class="st4" d="M279.5,412.8c-0.7-0.2-1.5-0.5-2.2-0.7C278.1,412.3,278.8,412.6,279.5,412.8z"/>
		</g>
		<g>
			<path class="st5" d="M108.8,312.6L108.8,312.6C108.8,312.6,108.8,312.6,108.8,312.6c1.4,1.3,2.7,2.5,4.1,3.7
				c0.2,0.2,0.4,0.3,0.5,0.5c2.8,2.5,5.5,4.9,8.3,7.3c0.2,0.1,0.4,0.3,0.5,0.4c2.8,2.4,5.6,4.7,8.4,7c0.1,0.1,0.3,0.2,0.4,0.3
				c1.3,1.1,2.7,2.1,4,3.2c0.1,0.1,0.2,0.1,0.3,0.2c1.4,1.1,2.9,2.2,4.3,3.4c0,0,0,0,0.1,0c1.4,1.1,2.7,2.1,4.1,3.1
				c0.1,0.1,0.3,0.2,0.4,0.3c2.8,2.1,5.6,4.1,8.4,6.1c0.1,0.1,0.3,0.2,0.4,0.3c2.8,2,5.6,3.9,8.3,5.8c0.1,0.1,0.2,0.2,0.3,0.2
				c1.4,0.9,2.7,1.9,4.1,2.8c0,0,0,0,0,0c1.4,1,2.8,1.9,4.3,2.8c0,0,0.1,0,0.1,0.1c1.4,0.9,2.7,1.8,4.1,2.6c0.1,0.1,0.2,0.1,0.3,0.2
				c2.8,1.7,5.5,3.4,8.2,5.1c0.1,0.1,0.2,0.1,0.3,0.2c2.7,1.6,5.4,3.2,8.1,4.8c0.1,0.1,0.2,0.1,0.3,0.2c2.7,1.6,5.4,3.1,8,4.5
				c0,0,0.1,0,0.1,0.1c1.3,0.7,2.6,1.4,3.9,2.1c0,0,0.1,0,0.1,0.1c2.6,1.4,5.2,2.8,7.8,4.1c0.1,0,0.2,0.1,0.3,0.1
				c2.5,1.3,5.1,2.6,7.5,3.8c0.1,0,0.2,0.1,0.3,0.1c2.5,1.2,4.9,2.4,7.4,3.6c0.1,0,0.1,0.1,0.2,0.1c1.2,0.6,2.4,1.1,3.6,1.7
				c0,0,0,0,0,0c2.4,1.1,4.8,2.2,7.1,3.2c0.1,0,0.1,0.1,0.2,0.1c2.3,1,4.5,2,6.7,2.9c0.1,0,0.2,0.1,0.2,0.1c2.2,0.9,4.4,1.8,6.5,2.7
				c0.1,0,0.1,0.1,0.2,0.1c2.1,0.9,4.2,1.7,6.2,2.5c0,0,0,0,0.1,0c1,0.4,2,0.8,2.9,1.1c0,0,0.1,0,0.1,0.1c1.9,0.7,3.8,1.4,5.7,2.1
				c0.1,0,0.2,0.1,0.2,0.1c1.8,0.7,3.6,1.3,5.3,1.9c0.1,0,0.2,0.1,0.2,0.1c1.7,0.6,3.4,1.1,5,1.7c0.1,0,0.1,0,0.2,0.1
				c0.8,0.2,1.5,0.5,2.2,0.7c0.1,0,0.1,0,0.2,0.1c1.5,0.5,3,0.9,4.4,1.4c0.1,0,0.2,0,0.2,0.1c1.4,0.4,2.7,0.8,3.9,1.2
				c0.1,0,0.2,0,0.2,0.1c1.2,0.4,2.4,0.7,3.5,1c0.1,0,0.1,0,0.2,0.1c0.5,0.1,1,0.3,1.5,0.4c0,0,0.1,0,0.1,0c0.5,0.1,1,0.3,1.5,0.4
				c0,0,0.1,0,0.1,0c0.4,0.1,0.8,0.2,1.2,0.3c0.1,0,0.1,0,0.2,0.1c0.8,0.2,1.6,0.4,2.3,0.6c0.1,0,0.1,0,0.2,0.1
				c0.7,0.2,1.3,0.3,1.8,0.4c0.1,0,0.1,0,0.2,0c0.2,0.1,0.5,0.1,0.7,0.2c0,0,0,0,0,0c0.2,0.1,0.4,0.1,0.6,0.1c0,0,0.1,0,0.1,0
				c0.1,0,0.3,0.1,0.4,0.1c0,0,0.1,0,0.1,0c0.1,0,0.2,0.1,0.3,0.1c0,0,0,0,0,0c0.1,0,0.1,0,0.2,0c0,0,0,0,0.1,0c0,0,0,0,0,0s0,0,0,0
				c0,0,0,0,0,0c0,0,0.1-0.1,0.1-0.2c0,0,0,0,0,0c0-0.1,0.1-0.2,0.2-0.3c0,0,0-0.1,0-0.1c0.1-0.1,0.1-0.2,0.2-0.3c0,0,0-0.1,0.1-0.1
				c0.1-0.2,0.2-0.3,0.3-0.5c0,0,0,0,0-0.1c0.1-0.2,0.2-0.4,0.3-0.6c0,0,0.1-0.1,0.1-0.1c0.3-0.5,0.6-1,0.9-1.6
				c0-0.1,0.1-0.1,0.1-0.2c0.3-0.6,0.7-1.3,1.1-2.1c0-0.1,0.1-0.1,0.1-0.2c0.2-0.4,0.4-0.7,0.6-1.1c0,0,0-0.1,0.1-0.1
				c0.2-0.4,0.5-0.9,0.7-1.4c0,0,0-0.1,0.1-0.1c0.2-0.4,0.5-0.9,0.7-1.4c0-0.1,0.1-0.1,0.1-0.2c0.5-1,1-2.1,1.6-3.2
				c0-0.1,0.1-0.1,0.1-0.2c0.6-1.2,1.2-2.4,1.8-3.7c0-0.1,0.1-0.1,0.1-0.2c0.6-1.3,1.3-2.7,1.9-4.2c0,0,0-0.1,0.1-0.1
				c0.3-0.7,0.6-1.4,1-2.2c0,0,0-0.1,0.1-0.1c0.7-1.5,1.4-3.1,2.1-4.8c0-0.1,0.1-0.1,0.1-0.2c0.7-1.7,1.5-3.4,2.2-5.2
				c0-0.1,0.1-0.1,0.1-0.2c0.8-1.8,1.5-3.7,2.3-5.6c0,0,0-0.1,0-0.1c0.4-1,0.8-2,1.2-3c0,0,0,0,0,0c0.8-2,1.6-4.1,2.4-6.3
				c0-0.1,0-0.1,0.1-0.2c0.8-2.1,1.6-4.3,2.4-6.6c0-0.1,0.1-0.1,0.1-0.2c0.8-2.3,1.6-4.6,2.4-7c0-0.1,0-0.1,0.1-0.2
				c1.2-3.6,2.4-7.4,3.6-11.2c0,0,0-0.1,0-0.1c0.8-2.6,1.6-5.2,2.4-7.9c0-0.1,0-0.2,0.1-0.2c0.8-2.7,1.5-5.4,2.3-8.2
				c0-0.1,0-0.2,0.1-0.2c0.8-2.8,1.5-5.7,2.2-8.6c0,0,0-0.1,0-0.1c0.4-1.4,0.7-2.9,1.1-4.4c0,0,0,0,0-0.1c0.7-3,1.4-6,2.1-9
				c0-0.1,0-0.2,0.1-0.3c0.7-3,1.3-6.1,1.9-9.2c0-0.1,0-0.2,0.1-0.3c0.6-3.1,1.2-6.3,1.8-9.5c0-0.1,0-0.2,0-0.3
				c0.3-1.6,0.6-3.2,0.8-4.8c0,0,0,0,0,0c0.5-3.3,1.1-6.7,1.5-10c0-0.1,0-0.2,0-0.3c0.5-3.3,0.9-6.7,1.3-10.2c0-0.2,0-0.3,0.1-0.5
				c0.4-3.4,0.8-6.9,1.1-10.4c0-0.1,0-0.3,0-0.5c0.3-3.5,0.6-7.1,0.9-10.7c0-0.1,0-0.2,0-0.3c0.1-1.7,0.2-3.4,0.3-5.2
				c0-0.1,0-0.3,0-0.4c0.2-3.6,0.4-7.3,0.5-10.9c0-0.2,0-0.4,0-0.6c0.1-3.7,0.2-7.4,0.2-11.1c0-0.2,0-0.4,0-0.7c0-1.8,0-3.7,0-5.6
				L108.8,312.6z"/>
		</g>
	</g>
	<g>
		<g>
			<g>
				<path class="st6" d="M2.2,110.8c-5.7-6.5-0.5-15.8,5.1-20.6c8.9-7.5,16.3-6.1,19.5-2.1c2.3,2.9,2.7,7.1,0.5,11.8
					c0,0,0,0.1-0.1,0.1c4.6-1.8,10.3-1.6,13.6,2.6c5.5,7.1,0.3,16.3-5.4,21.3c-5.3,4.6-14.9,8.5-20.7,2.6c-3.5-3.6-3.5-8.5-1-13.5
					c0,0,0-0.1-0.1-0.1C8.7,114.4,4.7,113.6,2.2,110.8z M22.5,109.7c-2.3,2-2.2,6.2-0.1,8.6c2,2.3,5.4,2.3,8.5-0.3
					c2.9-2.5,3.8-5.4,1.8-7.7C30.2,107.4,25,107.5,22.5,109.7z M18.9,103.1c1.6-1.4,2-5.2,0.3-7.3c-1.8-2.1-4.4-2.7-7.6,0.2
					c-3.1,2.6-3.3,5.2-1.5,7.2C12,105.4,16.6,105.1,18.9,103.1z"/>
			</g>
			<g>
				<path class="st6" d="M48.1,70.3c3.5,4.9,5.2,7.4,8.7,12.3c4.4,6.3,6.7,9.4,11.1,15.7c-3.6,2.6-5.4,3.9-9,6.5
					c-6.8-9.2-13.7-18.4-20.5-27.5c-3.6,2.7-5.3,4-8.8,6.7c-2-2.6-3-3.9-5.1-6.5c3.6-2.8,5.4-4.2,9-6.9c3.9-2.9,5.9-4.4,9.9-7.2
					c3.7-2.6,5.6-3.9,9.4-6.5c1.8,2.7,2.8,4.1,4.6,6.8C53.6,66.5,51.8,67.7,48.1,70.3z"/>
			</g>
			<g>
				<path class="st6" d="M99.9,55.6c3.7,6.8,5.6,10.2,9.3,16.9c-3.9,2.1-5.9,3.3-9.7,5.5c-3.6-6.1-5.3-9.1-8.9-15.2
					c-4.2,2.5-6.3,3.7-10.4,6.3c3.7,6,5.6,9,9.3,15c-3.8,2.3-5.6,3.5-9.3,6c-7.8-11.9-15.6-23.8-23.4-35.7c4.1-2.7,6.1-4,10.2-6.5
					c3.6,5.9,5.5,8.8,9.1,14.7c4.2-2.6,6.3-3.9,10.6-6.4c-3.5-6-5.2-9-8.7-14.9c4.2-2.5,6.4-3.7,10.7-6C92.4,42,96.2,48.8,99.9,55.6
					z"/>
			</g>
			<g>
				<path class="st6" d="M157,49.9c-8,3.2-16,6.7-23.8,10.4c-6.1-12.9-12.1-25.7-18.2-38.6c4.4-2.1,6.6-3.1,11-5
					c4.6,10.5,9.2,21,13.9,31.4c5.3-2.3,7.9-3.4,13.2-5.6C154.7,45.5,155.5,47,157,49.9z"/>
			</g>
			<g>
				<path class="st6" d="M164.2,26.5c2.6,7.3,3.9,10.9,6.6,18.2c-4.2,1.5-6.2,2.3-10.3,3.9c-5.2-13.2-10.4-26.5-15.5-39.7
					c4.5-1.8,6.8-2.6,11.3-4.3C158.9,11.9,161.5,19.2,164.2,26.5z"/>
			</g>
			<g>
				<path class="st6" d="M200.5,14.1c0.3,1,0.4,1.5,0.7,2.6c1.7,6.3,2.6,9.5,4.3,15.9c-1.1,0.6-2.3,1.2-3.5,1.8
					c-2.3,1.1-5.3,2.3-9,3.4c-8.7,2.6-15.5,1.5-20.3-3.7c-1.5-1.7-3.2-4.8-4.8-9.5c-0.4-1.1-0.6-1.6-0.9-2.6
					c-2-5.6-2.4-9.9-1.6-12.5c1.7-5.9,6.5-10.5,15.2-13.2c3.7-1.1,7.6-1.8,11.9-2.3c1.3,3.1,1.9,4.7,3.2,7.9
					c-4.6,0.5-9.1,1.5-11.5,2.2c-4,1.2-6.4,2.9-7.3,4.2c-0.7,1-1,4.3,0.5,8.7c0.8,2.5,1.2,3.8,2,6.3c1.3,4.1,3.1,5.7,4.1,6.2
					c1.3,0.6,4,0.9,8-0.3c0.5-0.1,0.7-0.2,1.1-0.3c0.3-0.1,0.5-0.2,0.8-0.3c-1.1-3.6-1.6-5.4-2.7-9c-2.6,0.8-3.8,1.1-6.4,1.9
					c-0.6-3.1-0.9-4.6-1.4-7.7c2.1-0.6,3.1-1,5.2-1.6c4.4-1.3,6.7-1.9,11.1-3.1C199.7,11.2,200,12.1,200.5,14.1z"/>
			</g>
			<g>
				<path class="st6" d="M239.6,6.4c1.3,7.6,2,11.4,3.4,19c-4.4,0.8-6.6,1.2-11,2.1c-1.4-6.9-2.1-10.4-3.5-17.3
					c-4.8,1-7.2,1.5-11.9,2.6c1.6,6.9,2.4,10.3,4,17.2c-4.3,1-6.5,1.5-10.8,2.6c-3.6-13.8-7.1-27.5-10.7-41.3
					c4.7-1.2,7.1-1.8,11.8-2.9c1.6,6.7,2.3,10.1,3.9,16.8c4.8-1.1,7.3-1.6,12.1-2.6c-1.4-6.8-2.1-10.2-3.4-16.9
					c4.8-1,7.2-1.4,12.1-2.3C236.9-8.9,238.2-1.3,239.6,6.4z"/>
			</g>
			<g>
				<path class="st6" d="M264.4-12.4c0.7,6,1,9,1.7,15c0.9,7.7,1.3,11.5,2.2,19.2c-4.5,0.5-6.7,0.8-11.1,1.4
					c-1.6-11.3-3.2-22.7-4.9-34c-4.4,0.6-6.6,1-11,1.7c-0.5-3.3-0.8-4.9-1.4-8.1c4.5-0.7,6.7-1.1,11.2-1.7c4.9-0.7,7.3-1,12.2-1.6
					c4.6-0.5,6.9-0.8,11.4-1.2c0.3,3.3,0.5,4.9,0.8,8.2C271.1-13.2,268.9-12.9,264.4-12.4z"/>
			</g>
		</g>
	</g>
	<g>
		<g id="XMLID_1_">
			<g>
				<path class="st2" d="M352.2,147.4c0.2,1.3,0.3,2.5,0.5,3.8L72.4,274.8c-0.8-1-1.7-1.9-2.5-2.9L352.2,147.4z"/>
				<path class="st7" d="M72.4,274.8l280.3-123.6c0.9,7.3,1.6,14.5,2.1,21.6L86.9,290.9C82,285.8,77.1,280.4,72.4,274.8z"/>
				<path class="st7" d="M9.3,178.3c0,0,6-6.4,17.5-16.4L300,41.4c15.2-1.7,23.9-1.9,23.9-1.9c1.6,4,3.1,7.9,4.6,11.9L15.1,189.7
					C13.1,185.9,11.2,182.1,9.3,178.3z"/>
				<path class="st2" d="M329.7,54.9l-313,138c-0.6-1.1-1.1-2.2-1.7-3.3L328.5,51.5C328.9,52.6,329.3,53.8,329.7,54.9z"/>
				<path class="st2" d="M354.8,172.8c0.1,1.3,0.2,2.6,0.3,3.9L89.6,293.8c-0.9-0.9-1.8-1.9-2.7-2.8L354.8,172.8z"/>
				<path class="st7" d="M89.6,293.8l265.5-117.1c0.5,7.5,0.8,14.9,0.9,22.2L105.4,309.4C100.1,304.4,94.8,299.2,89.6,293.8z"/>
				<path class="st2" d="M287.2,43.1c4.7-0.7,8.9-1.2,12.8-1.6L26.9,161.9c2.9-2.6,6.2-5.4,9.9-8.4L287.2,43.1z"/>
				<path class="st2" d="M355.9,198.9c0,1.6,0,3.1,0,4.7l-247.1,109c-1.1-1.1-2.3-2.1-3.4-3.2L355.9,198.9z"/>
				<path class="st7" d="M154.3,80.9c53.2-23.2,101.6-33.4,132.9-37.9L36.7,153.5C61.2,133.4,101.3,104.6,154.3,80.9z"/>
				<path class="st7" d="M56.5,255.2l292.4-128.9c1.3,7.1,2.4,14.2,3.3,21.1L69.9,271.9C65.4,266.5,60.9,260.9,56.5,255.2z"/>
				<path class="st2" d="M348.9,126.3L56.5,255.2c-0.8-1-1.5-2-2.3-3l293.9-129.6C348.4,123.8,348.6,125,348.9,126.3z"/>
				<path class="st7" d="M42,235l301.8-133.1c1.7,6.9,3.1,13.8,4.4,20.6L54.2,252.2C50.1,246.6,46,240.9,42,235z"/>
				<path class="st2" d="M343.8,101.9L42,235c-0.7-1-1.4-2.1-2.1-3.1L342.9,98.3C343.2,99.5,343.5,100.7,343.8,101.9z"/>
				<path class="st7" d="M342.9,98.3L39.9,231.9c-3.8-5.7-7.5-11.6-11.2-17.7L337.4,78.2C339.4,84.9,341.2,91.6,342.9,98.3z"/>
				<path class="st2" d="M337.4,78.2L28.8,214.2c-0.6-1.1-1.3-2.1-1.9-3.2L336.3,74.6C336.6,75.8,337,77,337.4,78.2z"/>
				<path class="st7" d="M336.3,74.6L26.9,211c-3.5-5.9-6.8-11.9-10.1-18.1l313-138C332.1,61.5,334.3,68.1,336.3,74.6z"/>
			</g>
			<g>
				<path class="st8" d="M343.8,101.9c1.7,6.9,3.1,13.8,4.4,20.6"/>
				<path class="st8" d="M42,235c4,5.9,8.1,11.6,12.2,17.2"/>
				<path class="st8" d="M342.9,98.3c0.3,1.2,0.6,2.4,0.9,3.6"/>
				<path class="st8" d="M56.5,255.2c4.4,5.8,8.8,11.3,13.4,16.7"/>
				<path class="st8" d="M352.2,147.4c0.2,1.3,0.3,2.5,0.5,3.8"/>
				<path class="st8" d="M352.7,151.2c0.9,7.3,1.6,14.5,2.1,21.6"/>
				<path class="st8" d="M348.9,126.3c1.3,7.1,2.4,14.2,3.3,21.1"/>
				<path class="st8" d="M348.2,122.6c0.2,1.2,0.5,2.5,0.7,3.7"/>
				<path class="st8" d="M86.9,290.9c0.9,0.9,1.8,1.9,2.7,2.8"/>
				<path class="st8" d="M337.4,78.2c2,6.8,3.9,13.5,5.5,20.2"/>
				<path class="st8" d="M328.5,51.5c0.4,1.1,0.8,2.3,1.2,3.4"/>
				<path class="st8" d="M287.2,43.1c4.7-0.7,8.9-1.2,12.8-1.6"/>
				<path class="st8" d="M354.8,172.8c0.1,1.3,0.2,2.6,0.3,3.9"/>
				<path class="st8" d="M300,41.4c15.2-1.7,23.9-1.9,23.9-1.9c1.6,4,3.1,7.9,4.6,11.9"/>
				<path class="st8" d="M336.3,74.6c0.4,1.2,0.7,2.4,1.1,3.5"/>
				<path class="st8" d="M329.7,54.9c2.4,6.6,4.5,13.2,6.6,19.7"/>
				<path class="st8" d="M69.9,271.9c0.8,1,1.6,2,2.5,2.9"/>
				<path class="st8" d="M72.4,274.8c4.8,5.6,9.6,11,14.5,16.2"/>
				<path class="st8" d="M54.2,252.2c0.7,1,1.5,2,2.3,3"/>
				<path class="st8" d="M28.8,214.2c3.6,6,7.4,11.9,11.2,17.7"/>
				<path class="st8" d="M356,203.6l-247.1,109c-1.1-1.1-2.3-2.1-3.4-3.2"/>
				<path class="st8" d="M26.9,211c0.6,1.1,1.3,2.1,1.9,3.2"/>
				<path class="st8" d="M89.6,293.8c5.2,5.4,10.5,10.6,15.8,15.6"/>
				<path class="st8" d="M39.9,231.9c0.7,1,1.4,2.1,2.1,3.1"/>
				<path class="st8" d="M287.2,43.1c-31.3,4.5-79.6,14.7-132.9,37.9c-53,23.7-93.1,52.5-117.6,72.6"/>
				<path class="st8" d="M16.7,192.9c3.3,6.2,6.7,12.2,10.1,18.1"/>
				<path class="st8" d="M36.7,153.5c-3.6,3-6.9,5.8-9.9,8.4"/>
				<path class="st8" d="M26.9,161.9c-11.5,10-17.5,16.4-17.5,16.4c1.9,3.8,3.8,7.6,5.7,11.4"/>
				<path class="st8" d="M15.1,189.7c0.6,1.1,1.1,2.2,1.7,3.3"/>
				<path class="st8" d="M356,209.2c0-1.7,0-3.3,0-5"/>
				<path class="st8" d="M356,203.6L356,203.6c0,0.2,0,0.4,0,0.5"/>
				<path class="st8" d="M356,203.6c0,0.2,0,0.4,0,0.5"/>
				<path class="st8" d="M356,203.6c0-1.6,0-3.1,0-4.7"/>
				<path class="st8" d="M355.1,176.7c0.5,7.5,0.8,14.9,0.9,22.2"/>
				<line class="st8" x1="89.6" y1="293.8" x2="355.1" y2="176.7"/>
				<line class="st8" x1="355.9" y1="198.9" x2="105.4" y2="309.4"/>
				<line class="st8" x1="86.9" y1="290.9" x2="354.8" y2="172.8"/>
				<line class="st8" x1="72.4" y1="274.8" x2="352.7" y2="151.2"/>
				<line class="st8" x1="69.9" y1="271.9" x2="352.2" y2="147.4"/>
				<line class="st8" x1="56.5" y1="255.2" x2="348.9" y2="126.3"/>
				<line class="st8" x1="54.2" y1="252.2" x2="348.2" y2="122.6"/>
				<line class="st8" x1="42" y1="235" x2="343.8" y2="101.9"/>
				<line class="st8" x1="39.9" y1="231.9" x2="342.9" y2="98.3"/>
				<line class="st8" x1="28.8" y1="214.2" x2="337.4" y2="78.2"/>
				<line class="st8" x1="26.9" y1="211" x2="336.3" y2="74.6"/>
				<line class="st8" x1="16.7" y1="192.9" x2="329.7" y2="54.9"/>
				<line class="st8" x1="26.9" y1="161.9" x2="300" y2="41.4"/>
				<line class="st8" x1="15.1" y1="189.7" x2="328.5" y2="51.5"/>
				<line class="st8" x1="287.2" y1="43.1" x2="36.7" y2="153.5"/>
			</g>
		</g>
	</g>
	<g>
		
			<rect x="127.6" y="233.7" transform="matrix(0.915 -0.4035 0.4035 0.915 -89.5815 115.2713)" class="st6" width="202.4" height="73.1"/>
	</g>
	<g>
		<g>
			<g>
				<path class="st3" d="M212.9,195.2c-0.3,0.1-0.5,0.2-0.5,0.2c-0.6,0.1-1.3,0.1-1.8-0.2c-12-6-30.9-14.1-35.5-13.1
					c-2,0.4-3.9,1-5.6,1.7c-3.1,1.4-5.3,3.1-7.6,4.9c-1.5,1.2-3.1,2.4-4.9,3.5c-0.1,0.1-0.2,0.1-0.3,0.1c-0.9,0.4-1.9,0.2-2.6-0.4
					c-0.8-0.7-1.1-1.8-0.7-2.8l18.3-46.6c0.2-0.6,0.7-1.1,1.3-1.4c0.3-0.2,0.7-0.2,1.1-0.2c1.1,0.1,2,0.8,2.3,1.8
					c0.6,2,0.9,4,1.2,5.9c0.7,4.4,1.4,8.6,5.1,13.9c2.7,3.8,22.1,10.8,35,14.5c0.4,0.1,0.8,0.4,1.1,0.7c0.6,0.6,2.4,3.3,0,9.8
					C216.8,193,214.1,194.7,212.9,195.2z"/>
			</g>
			<g>
				<path class="st4" d="M174,143.5c1.8,6.3,0.8,12.3,6.7,20.5c4.5,6.2,36.3,15.5,36.3,15.5s1.5,1.6-0.5,7.2
					c-1.7,4.7-3.9,5.9-4.6,6.2c-0.1,0.1-0.2,0.1-0.2,0.1s-29.6-14.9-37.1-13.3c-2.4,0.5-4.3,1.1-6.1,1.9c-5.5,2.4-8.5,6-12.8,8.6
					L174,143.5 M172,139c-1.2,0.5-2.1,1.5-2.6,2.7l-18.3,46.6c-0.8,2-0.2,4.3,1.4,5.6c1.5,1.2,3.5,1.5,5.2,0.8
					c0.2-0.1,0.4-0.2,0.6-0.3c1.9-1.2,3.6-2.4,5.1-3.7c2.2-1.7,4.3-3.4,7.1-4.6c1.5-0.7,3.2-1.2,5.1-1.6c3-0.5,17.4,4.6,33.9,12.9
					c1.1,0.6,2.4,0.7,3.6,0.3c0.3-0.1,0.6-0.2,0.8-0.3c1.7-0.8,5-3,7.3-9.1c2.8-7.6,0.6-11.2-0.5-12.4c-0.6-0.6-1.4-1.1-2.2-1.4
					c-17.8-5.2-31.7-11.2-33.6-13.6c-3.4-4.8-4-8.5-4.7-12.8c-0.3-2-0.6-4-1.3-6.2c-0.6-2.1-2.4-3.5-4.6-3.6
					C173.5,138.5,172.7,138.6,172,139L172,139z"/>
			</g>
		</g>
		<g>
			<g>
				<path class="st3" d="M153,194.2c-0.1,0-0.2,0.1-0.2,0.1c0,0,0,0,0,0c-13,4.8-25.1,4.9-37,0.2c-11.9-4.7-21.4-13.5-26.7-24.8
					c-5.1-10.9-5.7-23-1.6-33.3c3.9-10,11.9-18.1,22.5-22.8c11.9-5.2,25.3-5.5,37.8-0.6c11.9,4.7,20.8,13,27.1,25.4c0,0,0,0,0,0
					c0.3,0.6,0.4,1.4,0.1,2.1l-20.5,52.3C154,193.5,153.6,194,153,194.2z"/>
			</g>
			<g>
				<path class="st4" d="M110.9,115.9c10.6-4.7,23.4-5.4,35.8-0.5c12.8,5,20.6,14,25.7,24.2c0,0,0,0,0,0.1L152,192c0,0,0,0-0.1,0
					c-10.7,3.9-22.5,5.2-35.3,0.2c-23.9-9.4-34.7-35-26.9-54.9C93.4,127.8,101.2,120.2,110.9,115.9 M108.9,111.4
					c-11.2,4.9-19.7,13.5-23.8,24.1c-4.3,11-3.7,23.8,1.7,35.3c5.6,11.9,15.5,21.1,28,26c12.5,4.9,25.2,4.9,38.8-0.1
					c0.1,0,0.3-0.1,0.4-0.2c1.2-0.5,2.2-1.5,2.6-2.7l20.5-52.3c0.5-1.4,0.4-2.9-0.2-4.1c0,0,0,0,0,0c-6.6-13-15.8-21.6-28.4-26.5
					C135.5,105.6,121.4,105.8,108.9,111.4L108.9,111.4z"/>
			</g>
		</g>
	</g>
	<g>
		<g>
			<g>
				<path class="st3" d="M198.2,201.3c-1.4,0.6-4.1,1-8.7-0.7c-6.4-2.4-7.7-5.8-7.8-6.4c-0.2-0.6-0.1-1.2,0.2-1.8
					c6-12,14.1-30.9,13.1-35.5c-1.3-6.4-3.9-9.7-6.7-13.2c-1.2-1.5-2.4-3.1-3.5-4.9c-0.6-0.9-0.5-2.1,0.2-2.9
					c0.3-0.3,0.6-0.5,0.9-0.7c0.6-0.3,1.3-0.3,1.9,0l46.6,18.3c1,0.4,1.6,1.4,1.6,2.4c0,1-0.6,1.8-1.5,2.2c-0.1,0-0.2,0.1-0.3,0.1
					c-2,0.6-4,0.9-5.9,1.2c-3,0.5-5.8,0.9-9,2.3c-1.7,0.7-3.3,1.7-4.9,2.8c-3.8,2.7-10.8,22.1-14.5,35c-0.1,0.4-0.4,0.8-0.7,1.1
					C199.1,200.8,198.7,201,198.2,201.3L198.2,201.3z"/>
			</g>
			<g>
				<path class="st4" d="M187,137.5l46.6,18.3c-4.8,1.4-9.5,1.1-15.2,3.6c-1.7,0.7-3.5,1.7-5.3,3.1c-6.2,4.5-15.5,36.3-15.5,36.3
					s-0.1,0.1-0.4,0.2c-0.8,0.3-2.7,0.8-6.8-0.7c-5.5-2.1-6.3-4.8-6.3-4.8s14.9-29.6,13.3-37.1C195.5,146.5,190.3,143,187,137.5
					 M184.9,132.9c-0.7,0.3-1.3,0.8-1.8,1.4c-1.4,1.6-1.6,4-0.5,5.8c1.2,1.9,2.4,3.5,3.7,5.1c2.7,3.4,5,6.4,6.2,12.2
					c0.5,3-4.6,17.4-12.9,33.9c-0.6,1.1-0.7,2.4-0.3,3.6c0.3,1.2,2,5.4,9.4,8.1c4.3,1.6,7.9,1.8,10.5,0.6c0.9-0.4,1.5-0.9,1.8-1.2
					c0.6-0.6,1.1-1.4,1.4-2.2c5.2-17.8,11.2-31.7,13.6-33.6c1.5-1.1,2.9-1.9,4.4-2.6c2.9-1.3,5.5-1.7,8.3-2.1c2-0.3,4-0.6,6.2-1.3
					c0.2-0.1,0.4-0.1,0.6-0.2c1.7-0.8,2.9-2.4,3-4.3c0.1-2.1-1.2-4.1-3.2-4.9l-46.6-18.3C187.5,132.3,186.1,132.4,184.9,132.9
					L184.9,132.9z"/>
			</g>
		</g>
		<g>
			<g>
				<path class="st3" d="M238.5,156.5c-0.6,0.3-1.3,0.3-1.9,0L184.2,136c-0.7-0.3-1.2-0.8-1.5-1.6c-4.8-13-4.8-25.1-0.2-37
					c4.8-12.3,14-22,25.8-27.2c10.6-4.7,22.4-5.1,32.3-1.2C251,73.1,259.5,81.8,264,93c4.7,11.6,4.7,24.5,0,36.4
					c-4.7,11.9-13,20.8-25.3,27C238.6,156.4,238.6,156.5,238.5,156.5z"/>
			</g>
			<g>
				<path class="st4" d="M209.4,72.5c9.8-4.3,20.8-4.9,30.4-1.1c19.9,7.8,31.3,33.2,21.9,57.1c-5,12.8-14,20.6-24.2,25.7
					c0,0,0,0-0.1,0l-52.3-20.5c0,0,0,0,0-0.1c-3.9-10.7-5.2-22.5-0.2-35.3C189.8,86,198.9,77.1,209.4,72.5 M207.4,68
					c-12.4,5.5-22,15.6-27.1,28.5c-4.9,12.5-4.9,25.2,0.1,38.8c0.5,1.4,1.5,2.5,2.9,3.1l52.3,20.5c1.3,0.5,2.6,0.5,3.8-0.1
					c0.1-0.1,0.3-0.1,0.4-0.2c12.9-6.5,21.6-15.8,26.5-28.3c4.9-12.5,4.9-26.1,0-38.3c-4.8-11.8-13.8-21-24.7-25.3
					C231,62.6,218.5,63,207.4,68L207.4,68z"/>
			</g>
		</g>
	</g>
	<g>
		<g>
			<path class="st1" d="M252.1,209.4c-0.1-0.1-0.1-0.3-0.2-0.5c-0.6-1.6-1.3-3.2-1.9-4.8c-0.2-0.4-0.3-0.7-0.4-1
				c-0.5,0.1-1.1,0.4-1.9,0.7c0,0,0,0-0.1,0c0.8,2.1,1.7,4.2,2.5,6.3c0.6-0.2,1.2-0.4,1.7-0.6C251.9,209.5,252,209.5,252.1,209.4z"
				/>
		</g>
		<g>
			<path class="st1" d="M322,199.9c0.5,0,1.7-0.2,3.7-0.8c2-0.7,2.9-1.3,3.4-1.5c0,0,0,0,0,0c0-0.7-0.3-2.3-1.2-5.3
				c-0.9-2.8-1.8-5.6-2.7-8.4c-1.1-3.3-1.9-5-2.4-5.8c-0.6,0-1.7,0.1-3.7,0.7c-2.3,0.9-3.2,1.6-3.6,1.8c0,0.8,0.2,2.5,1.3,5.7
				c0.9,2.8,1.9,5.6,2.8,8.4c0.9,2.7,1.8,4.3,2.3,5C321.8,199.9,321.9,199.9,322,199.9z"/>
		</g>
		<g>
			<path class="st1" d="M31,323.2c0.2,0.6,0.8,2.2,3.2,5.7c1.7,2.4,3.4,4.8,5,7.2c1.9,2.7,3,3.6,3.4,3.9c0.4-0.1,1.8-0.5,4.7-2.5
				c0.4-0.3,0.8-0.5,1.2-0.8c1.8-1.2,4.5-3.5,8.1-6.8c-3.6-5.4-7.2-10.8-10.8-16.1c-4.6,2.3-8.1,4.2-10.4,5.9
				C31.8,322.1,31.1,323,31,323.2z"/>
		</g>
		<g>
			<path class="st1" d="M412.4,172.3c-1.7-0.3-3.3-0.8-5-1.4c0.1,0.5,0.3,1.1,0.4,1.6c0.2,0,0.5,0,0.7,0
				C409.5,172.5,410.8,172.4,412.4,172.3z"/>
		</g>
		<g>
			<path class="st6" d="M437.7,121.9c-4.3,0.3-10.9,0.9-17.2,2.3c-0.8,0.2-1.5,0.3-2.3,0.5c-0.1,0-0.1,0-0.2,0c-0.1,0-0.1,0-0.2,0.1
				c-4.6,1.3-10.9,3.1-15.9,7.3c-1.1,0.9-2.2,1.9-3.2,3.1c-0.4-1.7-0.9-3.5-1.3-5.2c-2.4,0.6-4.9,1.2-7.3,1.8
				c-5.2,1.3-10.3,2.6-15.5,4c-2.4,0.6-4.9,1.3-7.3,2c0.6,2.3,1.2,4.5,1.9,6.8c0.4,1.3,0.7,2.7,1.1,4c-2.2-2.1-4.4-4.1-6.6-6.1
				c-1-0.9-2-1.9-3-2.8c-1.4,0.4-2.8,0.8-4.2,1.2c-5.1,1.5-10.2,2.9-15.2,4.5c-2.4,0.7-4.8,1.5-7.2,2.2c0.6,2.1,1.3,4.2,1.9,6.3
				c-1.7-0.6-3.5-1.1-5.3-1.4c-5.9-1-12.6-0.3-19.8,2c-7.3,2.4-12.9,5.7-17.1,10.1c-1.5,1.5-2.7,3.1-3.7,4.8c0,0,0-0.1,0-0.1
				c-0.8-2.2-1.6-4.4-2.3-6.6c-2.4,0.8-4.7,1.7-7.1,2.5c-5,1.8-9.9,3.6-14.9,5.5c-2.3,0.9-4.7,1.8-7,2.7c0.5,1.4,1,2.7,1.6,4.1
				c-6.8-1.7-13.6,0.3-18.5,2.3c-6,2.4-11,4.6-15,6.4c-1,0.4-1.9,0.9-2.8,1.2c0,0,0,0,0,0c0,0,0,0,0,0c-1.1,0.5-2.2,1-3.3,1.5
				c-1.2,0.6-2.4,1.1-3.6,1.6c-2.2,1-4.4,2.1-6.5,3.1c0.4,0.9,0.8,1.8,1.2,2.7c-0.6-0.9-1.2-1.9-1.8-2.8c-2,0.9-3.9,1.7-5.9,2.6
				c-7.2,3.2-14.4,6.5-21.5,9.9c-1.7,0.8-3.4,1.6-5.1,2.4c0.3,1.8,0.5,3.5,0.8,5.3c0.2,1.3,0.4,2.5,0.6,3.8
				c-0.9-0.9-1.7-1.9-2.6-2.8c-1.2-1.3-2.4-2.6-3.6-3.9c-1.7,0.8-3.4,1.7-5.1,2.5c-7.3,3.5-14.5,7.2-21.7,10.9c-1.9,1-3.8,2-5.8,3
				c0.6,1.9,1.3,3.8,1.9,5.7c3.7,10.9,7.4,21.9,11.2,32.8c-9.5-8.4-19-16.7-28.7-24.9c-1.3-1.1-2.5-2.1-3.8-3.2
				c-1.5,0.8-3.1,1.7-4.6,2.5c-5.1,2.8-10.2,5.7-15.2,8.6c-1.5,0.9-3,1.8-4.6,2.6c0.2,1.6,0.5,3.3,0.8,4.9
				c1.6,9.9,3.2,19.8,4.9,29.7c-4.4-7.4-8.8-14.7-13.1-22.1c-1.2-2-2.4-4-3.6-6c-2.2,1.3-4.3,2.6-6.5,3.9c-4.6,2.8-9.1,5.6-13.7,8.4
				c-2.1,1.3-4.3,2.7-6.4,4c-1.5,0.9,0,0-1.5,0.9c-2.1,1.3-4.2,2.7-6.4,4.1c-4.5,2.9-8.9,5.8-13.3,8.7c-2.1,1.4-4.2,2.8-6.3,4.2
				c0.1,0.2,0.2,0.3,0.3,0.5c-4.7,2.2-8.6,4.4-12,6.8c-8.3,5.7-18,15.7-16.9,29.5c0.3,5.6,3.1,11.8,8.4,19c0.7,1,1.5,2,2.2,3
				c4.1,5.6,8.1,9.5,12,12c0,0,0,0,0.1,0c0,0,0,0,0.1,0c7.6,4.5,19.7,7.5,35.5-3.5c2.9-2,10.4-7.7,10.4-7.7c2-1.3,3.9-2.6,5.9-3.9
				c4.1-2.7,8.3-5.5,12.5-8.2c2-1.3,4-2.5,6-3.8c-1.2-2-2.5-3.9-3.7-5.9c-3-4.8-6.1-9.5-9.1-14.3c0.5-0.3,0.9-0.6,1.4-0.9
				c3,4.8,6,9.6,9.1,14.3c1.2,2,2.5,3.9,3.7,5.9c2-1.3,4-2.5,6-3.8c3.7-2.3,7.4-4.6,11.1-6.8c1.1-0.7,2.2-1.3,3.2-2
				c0.7-0.4,1.5-0.9,2.2-1.3c4.3-2.5,8.5-5.1,12.8-7.6c1.5-0.9,3-1.8,4.6-2.6c-0.4-1.7-0.8-3.4-1.2-5.1c-0.3-1.3-0.6-2.6-0.9-3.9
				c2.9-1.6,5.8-3.3,8.7-4.9c1,0.9,2,1.9,3,2.8c1.2,1.2,2.5,2.4,3.7,3.6c1.5-0.8,3-1.7,4.6-2.5c4.8-2.6,9.6-5.2,14.5-7.8
				c3-1.6,5.9-3.1,8.9-4.6c0,0,0,0-0.1-0.1c2.6-1.3,5.2-2.6,7.8-3.9c1.9-0.9,3.8-1.9,5.7-2.8c-0.7-2-1.4-3.9-2.1-5.9
				c-0.8-2.1-1.5-4.3-2.3-6.4c1.9,2,3.7,4,5.6,6c1.2,1.3,2.4,2.6,3.6,3.9c1.6-0.8,3.2-1.6,4.8-2.3c3.3-1.6,6.6-3.2,9.9-4.7
				c1.6-0.8,3.2-1.5,4.8-2.3c-0.3-1.7-0.5-3.5-0.8-5.2c-0.4-2.7-0.8-5.4-1.2-8.1c1.2,1.9,2.4,3.9,3.6,5.8c1.1,1.8,2.2,3.5,3.3,5.3
				c1.9-0.9,3.8-1.7,5.7-2.6c4.7-2.1,9.4-4.2,14.1-6.3c0.9-0.4,1.8-0.8,2.8-1.2c1.2-0.5,2.3-1,3.5-1.5c4.1-1.8,8.3-3.5,12.5-5.3
				c2.2-0.9,4.3-1.8,6.5-2.7c-0.9-2.2-1.8-4.3-2.6-6.5c-1.2-2.9-2.3-5.7-3.5-8.6c0.9-0.3,1.8-0.6,2.6-0.9c0.3-0.1,0.6-0.3,0.9-0.4
				c4.8-2,10.6-4.9,14.2-10.5c1.7,4.3,3.3,8.6,5,12.9c0.8,2.2,1.7,4.4,2.5,6.5c2.2-0.8,4.4-1.7,6.6-2.5c4.6-1.8,9.3-3.5,13.9-5.2
				c2.2-0.8,4.4-1.6,6.6-2.4c-0.8-2.2-1.5-4.3-2.3-6.5c1.8,0.7,3.7,1.2,5.7,1.5c5.6,0.9,11.8,0.2,18.6-2.1
				c6.8-2.2,12.2-5.4,16.1-9.4c1.3-1.3,2.4-2.7,3.4-4.1c0.6,2.1,1.3,4.1,1.9,6.2c2.2-0.7,4.5-1.4,6.8-2.1c4.8-1.4,9.5-2.8,14.3-4.2
				c2.3-0.6,4.5-1.3,6.8-1.9c-0.6-2.2-1.2-4.5-1.9-6.7c-0.4-1.4-0.8-2.8-1.1-4.1c2.1,2.1,4.2,4.2,6.3,6.3c1,1,1.9,1.9,2.9,2.9
				c1.3-0.4,2.7-0.7,4-1.1c4.8-1.3,9.7-2.5,14.5-3.8c2.3-0.6,4.6-1.1,6.9-1.7c0,0,12.4-2.5,17.5-3.7c0.6-0.1,1.2-0.3,1.8-0.4
				c0.1,0,0.1,0,0.2,0c0.1,0,0.1,0,0.2-0.1c0.1,0,0.1,0,0.2,0c4.6-1.3,10.3-2.9,15-6.7c4.2-3.4,9.1-9.7,8.2-20.6
				c-0.5-7.3-3.5-12.9-8.8-16.3c-3.2-2.1-6.9-3.2-10.9-3.8c1.6-0.1,3-0.1,3.7-0.1c3.5,0.1,6.9,0.2,10.4,0.3c-1-3.2-2-6.3-2.9-9.5
				c-1.3-4.1-2.5-8.1-3.8-12.2c-0.5-1.7-1.1-3.5-1.6-5.2C441.6,121.7,439.6,121.8,437.7,121.9z M198,270.6
				c-9.6-10.5-19.3-21-29.1-31.3c4.6,13,9.2,25.9,13.8,38.9c-5.1,2.5-10.1,5.1-15.2,7.7c-6.4-18.4-12.6-36.9-18.7-55.4
				c7.1-3.7,14.3-7.3,21.5-10.8c6.5,7,12.9,14.1,19.3,21.2c-1.5-9.4-3-18.9-4.4-28.4c7.1-3.3,14.2-6.6,21.4-9.8
				c10.7,16.4,21.3,32.8,31.8,49.3c-5.1,2.2-10.1,4.5-15.2,6.8c-7.2-11.7-14.4-23.4-21.7-35.1c1.9,14.1,4,28.2,6.3,42.3
				C204.6,267.4,201.3,269,198,270.6z M63.9,348.1c-1.9,1.7-4.2,3.6-7,5.5c-10.3,7.1-19.4,8.2-27.7,3.2c-2.7-1.7-6.1-4.8-10.1-10.3
				c-0.7-1-1.5-2-2.2-3.1c-4.9-6.7-6.9-11.8-7.1-15.6c-0.7-8.4,3.8-16.1,13.6-22.8c4.1-2.8,8.7-5.2,13.9-7.5
				c2.1,3.2,4.2,6.3,6.4,9.5c-5.6,2.7-9.6,5-12.4,6.9c-4.6,3.2-6.9,5.3-7.5,8.3c-0.7,2.3,0.6,5.6,4.3,10.9c1.7,2.4,3.4,4.8,5.1,7.2
				c3.5,5,6,6.4,7.6,6.6c2.5,0.6,5.7-0.4,10.4-3.7c0.4-0.3,0.8-0.5,1.2-0.8c2.3-1.6,5.5-4.3,9.6-8.1c2.1,3.2,4.3,6.4,6.4,9.6
				C67.3,345,65.7,346.4,63.9,348.1z M73.3,341.9c-10.7-16.1-21.4-32.2-32-48.3c4.4-2.9,8.8-5.8,13.2-8.6
				c4.2,6.6,8.5,13.2,12.7,19.8c4.6-3,9.2-5.9,13.8-8.8c-4.1-6.6-8.3-13.3-12.4-19.9c4.5-2.8,9.1-5.6,13.6-8.3
				c5.5,9,10.9,18.1,16.4,27.1c4.5,7.5,9.1,15,13.6,22.5c-4.3,2.6-8.6,5.2-12.9,7.9c-4.2-6.8-8.4-13.6-12.7-20.3
				c-4.6,2.9-9.2,5.7-13.7,8.7c4.3,6.7,8.6,13.4,13,20.1C81.6,336.4,77.5,339.1,73.3,341.9z M114.5,315.9
				c-3.8-20.2-7.3-40.6-10.4-61.1c5-2.9,10.1-5.7,15.1-8.5c15.8,13.2,31.3,26.7,46.4,40.3c0,0.1,0.1,0.2,0.1,0.4
				c-4.8,2.5-9.6,5.1-14.4,7.7c-2.2-2.2-4.5-4.3-6.7-6.5c-6,3.3-12.1,6.7-18,10.2c0.7,3,1.4,6,2.1,9
				C124,310.2,119.3,313,114.5,315.9z M249.9,228.6c2.2,5.2,4.3,10.5,6.5,15.7c-4.5,1.9-9,3.8-13.5,5.7
				c-7.6-17.7-15.3-35.4-22.9-53.2c2-1,4.3-1.9,6.8-3.1c4.3-1.9,10.3-4.6,17.6-7.5c8.7-3.5,14.3-3,19,0.7c2.3,2,4.5,4.9,6.6,10.4
				c0.3,0.8,0.6,1.7,1,2.5c1.8,4.6,2.6,8,2.4,10.1c-0.4,7-4.1,11.6-13.3,15.3c-0.2,0.1-0.4,0.2-0.7,0.3c-1.3,0.5-3.3,1.2-5.2,1.8
				C252.9,227.7,251.4,228.2,249.9,228.6z M416.5,148.8c-0.2,1.1,0.1,2.1,0.8,3c1.8,2.2,6.1,2.4,11.5,2.7c5.7,0.2,11.9,0.7,15.8,3.3
				c4.5,2.8,5.6,7.9,5.8,11.1c0.6,6.4-1.3,11.2-5.5,14.6c-3.6,3-8.3,4.2-12.5,5.4c-0.6,0.1-1.2,0.3-1.8,0.4
				c-6.7,1.5-13.6,2.2-17.5,2.5c-1.4-4.1-2.8-8.2-4.3-12.3c3-0.1,11.4-0.5,17.9-2c5.5-1.3,8.4-3.2,8.8-5.8c0.3-1.1,0-2.1-0.7-2.9
				c-1.7-2.1-5.5-2.3-10.5-2.6c-5.2-0.1-12-0.5-16.6-3.1c-4.5-2.8-5.7-7.6-6.1-11c-0.8-6.4,0.9-11.3,5.4-14.8
				c3.7-3.1,8.6-4.6,13-5.8c0.8-0.2,1.5-0.3,2.3-0.5c5.9-1.3,12.1-1.8,16-2.1c1.3,4,2.6,8.1,3.9,12.1c-2.7-0.1-9.8,0.2-15.8,1.6
				C420.1,144,417,146.1,416.5,148.8z M331.5,216.9c-5.7,1.9-10.8,2.5-15.2,1.8c-4.7-0.8-8.7-2.9-12.1-6.5
				c-2.2-2.2-4.4-6.5-6.7-12.7c-0.4-1.2-0.8-2.4-1.3-3.6c-2.7-7.6-3.6-13.3-2.3-17c0.8-3.6,2.5-6.8,5.2-9.7
				c3.3-3.4,7.8-6.1,13.9-8.1c6-2,11.3-2.6,16-1.8c3.9,0.6,7.1,2.2,10,4.7c3.1,2.3,5.8,7.3,8.2,15c0.4,1.2,0.7,2.4,1.1,3.6
				c2,6.5,2.7,11.2,2.3,14.2c-0.6,4.9-2.5,9.1-5.8,12.4C341.7,212.4,337.3,215,331.5,216.9z M359.9,207.5
				c-5.5-18.5-11.1-37-16.6-55.4c5-1.5,10.1-3,15.2-4.4c8.8,8.1,17.4,16.3,25.9,24.5c-2.6-9.8-5.3-19.7-7.9-29.5
				c5.1-1.4,10.2-2.7,15.4-4c2.6,10.2,5.2,20.5,7.8,30.7c2.1,8.5,4.3,16.9,6.4,25.4c-4.9,1.2-9.7,2.5-14.6,3.8
				c-8.4-8.4-16.9-16.8-25.6-25c2.8,9.9,5.6,19.8,8.5,29.7C369.5,204.6,364.7,206,359.9,207.5z M302.7,226.4
				c-4.7,1.7-9.4,3.4-14,5.2c-6.8-18.1-13.7-36.1-20.5-54.2c4.9-1.9,9.8-3.7,14.8-5.5c3.6,9.9,7.2,19.9,10.8,29.8
				C296.8,209.9,299.8,218.1,302.7,226.4z"/>
		</g>
		<g>
			<path class="st3" d="M62.1,334.4c-4.1,3.8-7.3,6.5-9.6,8.1c-0.4,0.3-0.8,0.5-1.2,0.8c-4.7,3.2-7.9,4.3-10.4,3.7
				c-1.6-0.3-4.1-1.7-7.6-6.6c-1.7-2.4-3.4-4.8-5.1-7.2c-3.7-5.3-5-8.7-4.3-10.9c0.6-3,2.9-5.2,7.5-8.3c2.8-1.9,6.8-4.2,12.4-6.9
				c-2.1-3.2-4.2-6.3-6.4-9.5c-5.2,2.3-9.8,4.7-13.9,7.5c-9.8,6.7-14.3,14.5-13.6,22.8c0.2,3.8,2.2,8.8,7.1,15.6
				c0.7,1,1.5,2,2.2,3.1c4,5.5,7.3,8.6,10.1,10.3c8.3,5,17.4,3.9,27.7-3.2c2.8-1.9,5.1-3.8,7-5.5c1.8-1.7,3.4-3,4.6-4.1
				C66.4,340.7,64.2,337.6,62.1,334.4z"/>
		</g>
		<g>
			<path class="st3" d="M86.6,304.9c4.2,6.8,8.4,13.6,12.7,20.3c4.3-2.7,8.6-5.3,12.9-7.9c-4.5-7.5-9.1-15-13.6-22.5
				c-5.5-9-10.9-18.1-16.4-27.1c-4.6,2.7-9.1,5.5-13.6,8.3c4.1,6.6,8.3,13.3,12.4,19.9c-4.6,2.9-9.2,5.8-13.8,8.8
				c-4.2-6.6-8.5-13.2-12.7-19.8c-4.4,2.9-8.8,5.7-13.2,8.6c10.7,16.1,21.4,32.2,32,48.3c4.2-2.8,8.4-5.5,12.6-8.2
				c-4.3-6.7-8.6-13.4-13-20.1C77.4,310.6,82,307.7,86.6,304.9z"/>
		</g>
		<g>
			<path class="st3" d="M144.7,288.2c2.2,2.2,4.5,4.3,6.7,6.5c4.8-2.6,9.6-5.2,14.4-7.7c0-0.1-0.1-0.2-0.1-0.4
				c-15.2-13.7-30.7-27.1-46.4-40.3c-5.1,2.8-10.1,5.6-15.1,8.5c3.1,20.5,6.5,40.9,10.4,61.1c4.8-2.9,9.5-5.7,14.3-8.4
				c-0.7-3-1.4-6-2.1-9C132.7,294.9,138.7,291.5,144.7,288.2z M118.2,262.3c6.3,5.9,12.6,11.9,18.9,17.9c-4.5,2.5-8.9,5-13.4,7.5
				C121.9,279.2,120,270.8,118.2,262.3z"/>
		</g>
		<g>
			<path class="st6" d="M118.2,262.3c1.8,8.5,3.6,17,5.5,25.4c4.4-2.5,8.9-5,13.4-7.5C130.9,274.2,124.6,268.2,118.2,262.3z"/>
		</g>
		<g>
			<path class="st3" d="M223.4,258.7c5-2.3,10.1-4.5,15.2-6.8c-10.5-16.5-21-33-31.8-49.3c-7.2,3.2-14.3,6.5-21.4,9.8
				c1.4,9.5,2.9,18.9,4.4,28.4c-6.4-7.1-12.8-14.2-19.3-21.2c-7.2,3.5-14.4,7.1-21.5,10.8c6.1,18.5,12.3,37,18.7,55.4
				c5-2.6,10.1-5.1,15.2-7.7c-4.7-12.9-9.3-25.9-13.8-38.9c9.8,10.4,19.5,20.8,29.1,31.3c3.3-1.6,6.6-3.2,10-4.8
				c-2.2-14-4.3-28.1-6.3-42.3C209,235.3,216.2,247,223.4,258.7z"/>
		</g>
		<g>
			<path class="st3" d="M259.4,225.6c0.3-0.1,0.5-0.2,0.7-0.3c9.1-3.7,12.9-8.3,13.3-15.3c0.2-2.1-0.6-5.5-2.4-10.1
				c-0.3-0.8-0.6-1.7-1-2.5c-2.1-5.5-4.3-8.4-6.6-10.4c-4.7-3.7-10.3-4.2-19-0.7c-7.3,3-13.3,5.6-17.6,7.5c-2.5,1.1-4.8,2.1-6.8,3.1
				c7.6,17.7,15.3,35.4,22.9,53.2c4.5-1.9,9-3.8,13.5-5.7c-2.2-5.2-4.3-10.5-6.5-15.7c1.5-0.5,3-0.9,4.3-1.3
				C256.1,226.8,258.1,226.1,259.4,225.6z M238.2,200.6c2.7-1.4,4.9-2.4,6.8-3.2c4.3-1.7,6.4-1.9,8.1-1.2c1.2,0.6,2.2,1.7,3.6,5.2
				c0.6,1.6,1.3,3.2,1.9,4.8c1.3,3.4,1.1,4.6,0.5,6.2c-0.4,1.2-1.3,2.2-4.7,3.6c-1.9,0.8-4.7,1.7-8.6,2.8
				C243.3,212.8,240.8,206.7,238.2,200.6z"/>
		</g>
		<g>
			<path class="st6" d="M259.2,212.4c0.7-1.6,0.9-2.8-0.5-6.2c-0.6-1.6-1.3-3.2-1.9-4.8c-1.4-3.5-2.4-4.6-3.6-5.2
				c-1.7-0.7-3.8-0.5-8.1,1.2c-1.8,0.7-4,1.8-6.8,3.2c2.5,6.1,5.1,12.2,7.6,18.3c3.9-1.1,6.7-2.1,8.6-2.8
				C257.9,214.6,258.7,213.6,259.2,212.4z"/>
		</g>
		<g>
			<path class="st3" d="M283,171.9c-4.9,1.8-9.9,3.6-14.8,5.5c6.8,18.1,13.6,36.1,20.5,54.2c4.7-1.8,9.3-3.5,14-5.2
				c-3-8.2-6-16.5-8.9-24.7C290.2,191.7,286.6,181.8,283,171.9z"/>
		</g>
		<g>
			<path class="st3" d="M350.7,196.9c0.4-3-0.3-7.7-2.3-14.2c-0.4-1.2-0.7-2.4-1.1-3.6c-2.4-7.8-5.1-12.8-8.2-15
				c-2.9-2.4-6.1-4-10-4.7c-4.7-0.8-10-0.2-16,1.8c-6,2-10.6,4.7-13.9,8.1c-2.8,2.8-4.4,6-5.2,9.7c-1.2,3.6-0.4,9.3,2.3,17
				c0.4,1.2,0.8,2.4,1.3,3.6c2.2,6.3,4.4,10.5,6.7,12.7c3.4,3.6,7.4,5.7,12.1,6.5c4.4,0.7,9.5,0.1,15.2-1.8
				c5.7-1.9,10.2-4.4,13.3-7.6C348.2,206,350.1,201.8,350.7,196.9z M332.1,181.7c0.9,2.8,1.8,5.6,2.7,8.4c1.8,5.7,1.8,8.9,0.9,10.2
				c-0.7,2.1-3.2,3.9-7.8,5.5c-4.6,1.4-7.8,1.6-9.6,0.3c-1.5-0.5-3.8-3.4-5.7-8.9c-1-2.8-1.9-5.6-2.9-8.4c-2.1-6.1-2-9.9-0.8-11.2
				c1-2,3.6-3.8,7.9-5.3c4.3-1.3,7.5-1.4,9.5-0.4C328,172.2,330.1,175.6,332.1,181.7z"/>
		</g>
		<g>
			<path class="st6" d="M326.3,171.8c-2-1-5.2-0.9-9.5,0.4c-4.2,1.6-6.8,3.3-7.9,5.3c-1.2,1.4-1.3,5.1,0.8,11.2
				c1,2.8,1.9,5.6,2.9,8.4c1.9,5.6,4.1,8.4,5.7,8.9c1.8,1.3,5,1.2,9.6-0.3c4.6-1.6,7.1-3.4,7.8-5.5c0.9-1.3,0.9-4.6-0.9-10.2
				c-0.9-2.8-1.8-5.6-2.7-8.4C330.1,175.6,328,172.2,326.3,171.8z"/>
		</g>
		<g>
			<path class="st3" d="M391.4,198.5c4.9-1.3,9.7-2.6,14.6-3.8c-2.1-8.5-4.3-16.9-6.4-25.4c-2.6-10.2-5.2-20.5-7.8-30.7
				c-5.1,1.3-10.3,2.6-15.4,4c2.6,9.8,5.3,19.7,7.9,29.5c-8.5-8.3-17.1-16.4-25.9-24.5c-5.1,1.4-10.1,2.9-15.2,4.4
				c5.5,18.5,11.1,37,16.6,55.4c4.8-1.4,9.6-2.8,14.4-4.2c-2.8-9.9-5.6-19.8-8.5-29.7C374.5,181.8,383,190.1,391.4,198.5z"/>
		</g>
		<g>
			<path class="st3" d="M441.9,141.1c-1.3-4-2.6-8.1-3.9-12.1c-3.9,0.3-10.1,0.8-16,2.1c-0.8,0.2-1.5,0.3-2.3,0.5
				c-4.4,1.2-9.3,2.7-13,5.8c-4.4,3.5-6.2,8.4-5.4,14.8c0.4,3.4,1.6,8.2,6.1,11c4.6,2.7,11.4,3.1,16.6,3.1c5,0.2,8.8,0.5,10.5,2.6
				c0.8,0.9,1,1.8,0.7,2.9c-0.3,2.6-3.2,4.5-8.8,5.8c-6.5,1.5-14.9,1.8-17.9,2c1.4,4.1,2.8,8.2,4.3,12.3c3.9-0.3,10.8-1,17.5-2.5
				c0.6-0.1,1.2-0.3,1.8-0.4c4.2-1.2,9-2.5,12.5-5.4c4.2-3.3,6.1-8.2,5.5-14.6c-0.2-3.2-1.3-8.3-5.8-11.1
				c-3.9-2.7-10.1-3.1-15.8-3.3c-5.4-0.3-9.6-0.5-11.5-2.7c-0.7-0.9-0.9-1.8-0.8-3c0.5-2.7,3.6-4.8,9.6-6.1
				C432.1,141.3,439.2,141,441.9,141.1z"/>
		</g>
	</g>
	<g>
		<g>
			<path class="st3" d="M331.5,365.4c-13.6,13.2-33.4,14.9-44.1,3.9c-10.7-11.1-8.4-30.7,5.2-44c13.6-13.2,33.4-14.9,44.1-3.9
				C347.5,332.5,345.1,352.2,331.5,365.4z"/>
		</g>
		<g>
			<path class="st3" d="M292.7,319.5c0,0-12.6-0.4-22.2-3.4c-9.6-3-22.7,4.1-23.3,6.5c0,0,9.5-0.4,10,3c0.5,3.4-4.8,11.9-13.5,8
				c-8.8-3.9-11.9-7.6-20.6-6.4c-8.8,1.3-16.4,9.4-16.4,9.4s9.7-3.3,12.1,3.9c2.3,7.1-9,12.6-16.8,5.1c-7.9-7.4-22.6-1.8-25.1,3.2
				c-2.6,4.9-13.6,11.5-27.2,6.7c0,0,10.8,16,31.5,6.2c20.8-9.7,20.7,7.6,7.9,7.7c0,0,16.4,8.5,30.6-2.4c14.2-10.9,23.9,8.7,4,8.5
				c0,0,8.1,10,19.2,6.2c11.1-3.8,18.8-20.5,41.2-8.4c0,0-11.5-7.3-12.6-18.4c0,0-17.7-6.1-23.3,5.2c0,0-10.6-16.9-26.9-6.1
				c0,0,10.1-13.8,27-10.8c16.9,3,22.6-2.2,24.1-3C272.3,340.2,279.3,327.8,292.7,319.5z"/>
		</g>
	</g>
	<g>
		<g>
			<polygon class="st6" points="220.1,307.4 230.5,302.8 217.6,287.7 			"/>
		</g>
		<g>
			<path class="st6" d="M331.5,219.6l-23.8,10.5l-5.5,2.4l0,0.1l-8.5,3.8l-5.5,2.4l2.4,5.5l10.5,23.8c0.8,1.8,1.1,2.9,1.2,3.5
				c-0.3,0.2-0.9,0.6-1.9,1.1c-1.2,0.5-1.9,0.6-2.3,0.7c-0.4-0.5-1-1.4-1.9-3.3l-10.4-23.7l-2.4-5.5l-5.5,2.4l-10.1,4.5l-5.5,2.4
				l0.3,0.8c-4.3,1-8,2.2-11.4,3.7c-9.5,4.2-14.9,10.6-16.1,19c-0.6,3.2,0,7.2,1.7,12l-13.4-14.1l-2.9-3l-3.9,1.7l-11.4,5l-3.8,1.7
				l0.3,4.2l2,30.2l-2.5-7.5l-1.3-3.8l2.4-1.1l-2.4-5.5l-3.5-7.9l-2.4-5.5l-5.5,2.4l-23.8,10.5l-5.5,2.4l2.4,5.5l12,27.3l-6.4,2.8
				l-12-27.3l-2.4-5.5l-5.5,2.4l-10.3,4.5l-5.5,2.4l2.4,5.5l18,40.7l2.4,5.5l5.5-2.4l22.2-9.8l2.2-1l3.3-1.5l2.8-1.2l15.1-6.7
				l5.9-2.6l2-0.9l3.5-1.6l8-3.5l4.1-1.8l-0.6-4.4l-0.3-2.6l6.1-2.7l1.8,2l2.9,3.4l4.1-1.8l11.5-5.1l7.8-3.4l-2.1-2.2
				c4,0.3,8.8-0.4,14.4-2.8c3.4-1.5,6.5-3.2,9.5-5.1c1.4-0.9,2.6-1.8,3.7-2.6l3.8-2.9l-1.2-2.6c1.4,0.4,2.9,0.7,4.5,0.8
				c4.5,0.3,9.3-0.6,14.3-2.8c4.9-2.2,8.8-5.1,11.7-8.6c0.9-1.2,1.7-2.5,2.4-3.8l2.1,4.8l5.5-2.4l23.8-10.5l5.5-2.4l-2.4-5.5l-3.5-8
				l-2.4-5.5l-3.6,1.6l-1-2.9l-2.6-7.7l-1.3-3.8l2.4-1.1l-2.4-5.5l-3.5-7.9l-2.4-5.5L331.5,219.6z M337.4,232.9l-13.3,5.9l3.8,8.6
				l10.6-4.7l2.6,7.7l-9.9,4.4l3.9,8.7l13.3-5.9l3.5,8l-23.8,10.5l-18-40.7l23.8-10.5L337.4,232.9z M306.5,286.3
				c-4.2,1.8-8,2.5-11.4,2.3c-3.6-0.3-6.8-1.7-9.5-4.3c-1.8-1.5-3.7-4.7-5.8-9.5l-9.5-21.6l10.1-4.5l10.4,23.7
				c1.8,4.1,3.7,6.1,4.8,6.4c1.5,0.8,3.9,0.6,7.2-0.7c3.3-1.6,5-3.2,5.3-4.8c0.5-1.1,0.3-3.6-1.5-7.7l-10.5-23.8l10.3-4.5l9.5,21.6
				c2.1,4.7,3.1,8.3,3,10.7c0.1,3.8-1,7.1-3.2,9.8C313.7,282.1,310.6,284.4,306.5,286.3z M271.9,301.4c-8.5,3.8-15.5,3.2-20.9-1.9
				c-1.7-1.6-3.6-4.7-5.8-9.5l-1.2-2.7c-2.5-5.6-3.4-10-2.9-12.7c0.8-6.3,4.8-11.1,12.6-14.5c3.3-1.4,6.8-2.5,10.8-3.5l4.4,7.7
				c-4.2,1.1-8.4,2.5-10.6,3.5c-3.6,1.6-5.8,3.3-6.4,5c-0.7,1.1-0.3,4.5,1.6,8.9l2.8,6.4c1.8,4.1,3.5,5.8,4.8,6
				c1.5,0.9,4.1,0.6,7.9-1.1l1.1-0.5l0.8-0.4l-3.9-9l-6,2.7l-2.4-7.7l4.8-2.1l10.3-4.5l2.1,4.8l1.1,2.6l6.9,15.7
				c-1,0.8-2.1,1.6-3.3,2.4C278.4,298.2,275.6,299.8,271.9,301.4z M222.4,322.9l-11.5,5.1l-3.1-47.2l11.4-5l32.7,34.2l-11.5,5.1
				l-4.7-5.4l-14.2,6.3L222.4,322.9z M157.5,351.5l-18-40.7l10.3-4.5l14.5,32.8l13.2-5.8l4.3,7.6L157.5,351.5z M167.2,298.6
				l23.8-10.5l3.5,7.9l-13.3,5.9l3.8,8.6l10.6-4.7l2.6,7.7l-9.9,4.4l3.9,8.7l13.3-5.9l3.5,8l-23.8,10.5L167.2,298.6z"/>
		</g>
		<g>
			<polygon class="st3" points="164.3,339 149.8,306.2 139.5,310.8 157.5,351.5 181.9,340.8 177.5,333.2 			"/>
		</g>
		<g>
			<polygon class="st3" points="208.9,328.8 205.4,320.8 192.1,326.6 188.2,317.9 198.2,313.5 195.5,305.8 185,310.5 181.2,301.8 
				194.5,296 191,288.1 167.2,298.6 185.2,339.3 			"/>
		</g>
		<g>
			<path class="st3" d="M240.4,315l11.5-5.1l-32.7-34.2l-11.4,5l3.1,47.2l11.5-5.1l-0.9-7.1l14.2-6.3L240.4,315z M220.1,307.4
				l-2.5-19.7l12.9,15.1L220.1,307.4z"/>
		</g>
		<g>
			<path class="st3" d="M277,278.7l-1.1-2.6l-2.1-4.8l-10.3,4.5l-4.8,2.1l2.4,7.7l6-2.7l3.9,9l-0.8,0.4l-1.1,0.5
				c-3.8,1.7-6.4,2.1-7.9,1.1c-1.3-0.2-3-1.9-4.8-6l-2.8-6.4c-1.9-4.4-2.3-7.8-1.6-8.9c0.6-1.7,2.7-3.3,6.4-5
				c2.2-1,6.3-2.4,10.6-3.5l-4.4-7.7c-4,0.9-7.5,2-10.8,3.5c-7.8,3.4-11.8,8.2-12.6,14.5c-0.5,2.8,0.4,7.1,2.9,12.7l1.2,2.7
				c2.1,4.8,4.1,7.9,5.8,9.5c5.4,5.1,12.4,5.7,20.9,1.9c3.6-1.6,6.5-3.2,8.6-4.7c1.2-0.8,2.3-1.6,3.3-2.4L277,278.7z"/>
		</g>
		<g>
			<path class="st3" d="M319,269.6c0-2.4-1-6-3-10.7l-9.5-21.6l-10.3,4.5l10.5,23.8c1.8,4.1,2,6.6,1.5,7.7c-0.3,1.6-2.1,3.2-5.3,4.8
				c-3.3,1.3-5.7,1.6-7.2,0.7c-1.2-0.3-3-2.3-4.8-6.4l-10.4-23.7l-10.1,4.5l9.5,21.6c2.1,4.8,4,8,5.8,9.5c2.7,2.6,5.8,4,9.5,4.3
				c3.4,0.2,7.2-0.4,11.4-2.3c4.1-1.8,7.2-4.2,9.4-6.9C318,276.7,319.1,273.4,319,269.6z"/>
		</g>
		<g>
			<polygon class="st3" points="310.2,235.5 328.1,276.3 351.9,265.8 348.4,257.7 335.1,263.6 331.2,254.9 341.1,250.5 338.5,242.8 
				327.9,247.4 324.1,238.8 337.4,232.9 333.9,225.1 			"/>
		</g>
	</g>
	<g>
		<path class="st9" d="M357.1,399.1l0.4,0.2c3.7,1.6,3.9,5.5,2.7,8.3c-0.3,0.8-3.7,8.1-3.8,8.3l-18.6-7.8c0.5-1.4,1.1-2.7,1.5-3.8
			c0.7-1.9,1.6-3.9,1.7-4.2c1.4-3.1,3.9-5.4,7.8-3.8l0.5,0.2c1.5,0.6,2.3,1.8,2.6,3.1C353.8,398.4,355.3,398.3,357.1,399.1z
			 M347.7,400.5c-1.2-0.5-2.4-0.2-3.1,1.8l-1,2.5l3.9,1.6l1.5-3.6C349.2,401.8,349.2,401.2,347.7,400.5z M355.4,403.2
			c-1.2-0.5-2.3-0.2-2.9,0.8l-1.6,3.9l4,1.7l0.1-0.1l1.3-2.8C357.1,405,356.6,403.7,355.4,403.2z"/>
		<path class="st9" d="M359.6,379.2l1.2,0.5c2.2,0.8,3.7,1.6,4.4,2.4c1.3,1.2,2,2.6,2.2,4.2c0.2,1.5,0,3.3-0.8,5.2
			c-0.7,1.9-1.7,3.4-2.9,4.4c-1.2,1.1-2.7,1.6-4.4,1.7c-1.1,0.1-2.7-0.3-4.9-1.1l-1.2-0.5c-2.7-1-4.4-2-5.1-3.1
			c-0.8-1-1.3-2.1-1.5-3.4c-0.2-1.6,0-3.3,0.8-5.2c0.7-1.9,1.7-3.4,2.9-4.4c1-0.9,2.1-1.3,3.4-1.6
			C355,377.9,356.9,378.2,359.6,379.2z M362.8,390c0.6-1.6,0.6-2.6,0.2-3.2c-0.2-0.5-1.1-1.2-3-1.9l-2.9-1.1c-2.1-0.8-3.5-1-4-0.6
			c-0.7,0.3-1.3,1.1-1.9,2.5c-0.5,1.4-0.5,2.4-0.2,3.1c0.1,0.6,1.1,1.4,3.2,2.2l2.9,1.1c1.9,0.7,3.2,0.8,3.7,0.5
			C361.6,392.4,362.2,391.5,362.8,390z"/>
		<path class="st9" d="M365.6,361.4l1.3,0.4c2.3,0.8,3.7,1.5,4.5,2.2c1.3,1.1,2.1,2.5,2.3,4.1c0.3,1.5,0.1,3.3-0.6,5.2
			c-0.7,2-1.6,3.5-2.7,4.5c-1.2,1.1-2.6,1.7-4.4,1.9c-1.1,0.1-2.7-0.2-4.9-0.9l-1.3-0.4c-2.7-0.9-4.4-1.9-5.2-3
			c-0.8-1-1.4-2.1-1.6-3.4c-0.3-1.5-0.1-3.3,0.6-5.3c0.7-1.9,1.6-3.5,2.7-4.5c1-0.9,2-1.4,3.3-1.7
			C360.9,360.2,362.9,360.5,365.6,361.4z M369.2,372c0.5-1.6,0.5-2.6,0.1-3.3c-0.2-0.5-1.1-1.2-3.1-1.8l-2.9-1
			c-2.1-0.7-3.5-0.8-4-0.5c-0.7,0.3-1.3,1.2-1.8,2.6c-0.4,1.4-0.5,2.5-0.1,3.2c0.1,0.6,1.2,1.4,3.3,2.1l2.9,1
			c1.9,0.7,3.2,0.6,3.7,0.3C368,374.5,368.7,373.6,369.2,372z"/>
		<path class="st9" d="M382.2,343l-14.2-2.3l12.6,7.9l-1.1,3.7l-14.9,0l13.3,5.6l-1.7,5.6l-18.6-8.5l2.2-7.6l10,0.1l-8.5-5.3
			l2.1-7.4l20.3,2.7L382.2,343z"/>
		<path class="st9" d="M380.9,307.8l1.2,0.3l7.6,1.7c0,0.6,0,1.2,0,1.8c-0.1,1.2-0.2,2.7-0.6,4.4c-0.9,4.1-3.1,6.5-6.4,7.1
			c-1.1,0.2-2.7,0-5-0.5l-1.3-0.3c-2.7-0.6-4.6-1.4-5.4-2.4c-2.1-2-2.7-4.8-1.9-8.5c0.4-1.6,0.9-3.2,1.7-4.9l4,0.5
			c-0.8,1.9-1.3,3.8-1.6,4.8c-0.4,1.8-0.4,3,0.1,3.7c0.2,0.6,1.6,1.3,3.7,1.8l3.1,0.7c2,0.5,3.1,0.3,3.5-0.1
			c0.8-0.3,1.3-1.4,1.7-3.2l0.1-0.5l0.1-0.4l-4.3-1l-0.7,2.9l-3.5-1.2l0.5-2.3l1.1-5L380.9,307.8z"/>
		<path class="st9" d="M383.5,288.5l1.3,0.2c2.3,0.4,3.9,1,4.8,1.6c1.4,1,2.4,2.2,2.9,3.8c0.5,1.5,0.5,3.2,0.1,5.3
			c-0.4,2-1.1,3.7-2.1,4.9c-1,1.3-2.4,2.1-4.1,2.4c-1.1,0.3-2.7,0.2-5-0.3l-1.3-0.2c-2.8-0.5-4.6-1.3-5.5-2.2c-1-0.8-1.6-1.9-2-3.1
			c-0.5-1.5-0.5-3.2-0.1-5.3c0.4-2,1.1-3.6,2.1-4.9c0.8-1,1.8-1.7,3.1-2.1C378.7,288,380.7,288,383.5,288.5z M388.5,298.6
			c0.3-1.6,0.2-2.7-0.4-3.2c-0.3-0.5-1.3-1-3.3-1.4l-3-0.6c-2.2-0.4-3.6-0.4-4,0.1c-0.6,0.4-1.1,1.4-1.4,2.8
			c-0.2,1.5-0.1,2.5,0.3,3.1c0.2,0.6,1.3,1.2,3.6,1.6l3,0.6c2,0.4,3.3,0.2,3.7-0.1C387.7,301.2,388.2,300.2,388.5,298.6z"/>
		<path class="st9" d="M379.8,276.4l7.1,1.1l9,1.4l-0.8,5.1l-16.1-2.5l-0.7,4.7l-3.9-0.6l0.7-4.7l0.8-5.1l0.8-4.8l3.9,0.6
			L379.8,276.4z"/>
		<path class="st9" d="M378.6,256.1l0.1-1.3l2.4,1.2c0.1-0.5,0.3-1.1,0.7-1.5c0.5-0.5,1-0.4,1.6-0.4c0.6,0.1,1.2,0.2,1.6,0.7
			c0.3,0.5,0.3,1.4,0.2,1.8c-0.1,0.5-0.2,1.3-0.6,1.7c-0.5,0.5-1.1,0.4-1.7,0.3c-0.5-0.1-0.8-0.2-1.1-0.3c-0.1-0.1-0.3-0.1-0.4-0.2
			L378.6,256.1z"/>
		<path class="st9" d="M387.7,247.5l0.5-5.2l3.7,0.7l-0.5,4.9l4.3,0.4l0.6-6.6l4,0.4l-1.1,11.8l-20.2-1.9l1.1-11.8l3.9,0.4l-0.6,6.6
			L387.7,247.5z"/>
		<path class="st9" d="M401.7,218.9l-14.4,1l14.1,4.9l-0.2,3.8l-14.5,3.4l14.2,2.5l-0.4,5.8l-20-4.1l0.4-7.9l9.7-2.2l-9.5-3.2
			l0.4-7.7l20.4-2L401.7,218.9z"/>
	</g>
</g>
</svg>
