<?xml version="1.0" encoding="utf-8"?>
<!-- Generator: Adobe Illustrator 24.2.1, SVG Export Plug-In . SVG Version: 6.00 Build 0)  -->
<svg version="1.1" id="Layer_1" xmlns="http://www.w3.org/2000/svg" xmlns:xlink="http://www.w3.org/1999/xlink" x="0px" y="0px"
	 viewBox="0 0 432 432" style="enable-background:new 0 0 432 432;" xml:space="preserve">
<style type="text/css">
	.st0{fill:#FFFFFF;}
</style>
<rect width="432" height="432"/>
<g>
	<path class="st0" d="M48,90.4v251.1c0,0.9,0.7,1.6,1.6,1.6h332.7c0.9,0,1.6-0.7,1.6-1.6V90.4c0-0.9-0.7-1.6-1.6-1.6H49.7
		C48.8,88.8,48,89.5,48,90.4z M185.5,108.1c6,0,12,0,18.1,0c0.9,0,1.6,0.7,1.6,1.6v69c0,1,1,1.8,2,1.6c4.5-1,7.5-1.6,12-2.6
		c1-0.2,2,0.6,2,1.6V198c0,0.7-0.5,1.4-1.2,1.6c-11.4,3.2-22.7,6.4-34.1,9.5c-1,0.3-2.1-0.5-2.1-1.6v-97.8
		C183.8,108.8,184.6,108.1,185.5,108.1z M67.3,109.7c0-0.9,0.7-1.6,1.6-1.6c6.3,0,12.7,0.1,19,0c8.6-0.2,17.6,2.6,22.9,9.4
		c6.5,8.3,8.9,19.9,8.8,30.3c-0.1,11.2-2.1,24.2-9.4,33.3c-4.9,6.3-12.3,9.9-20.1,11c-0.6,0.7-1,1.1-1.6,1.8v40.7
		c0,0.7-0.5,1.4-1.2,1.6c-6,1.7-12,3.4-18,5c-1,0.3-2.1-0.5-2.1-1.6V109.7z M125.8,273.9c-0.3,12.7-0.7,26.4-6.7,37.8
		c-4.2,8-12.8,12.2-21.7,12.3c-8.6,0.1-16.8-3.7-22.1-10.4c-6.1-7.6-8-18.2-8-27.7c0-10.4,2.2-21.5,8-30.4
		c5.1-7.8,13.3-14.3,22-16.9c11.3-3.4,21.7,2.8,26.3,13.3c0.3,0.7,0.1,1.6-0.6,2.1c-5.7,3.6-11.4,7.1-17.2,10.5
		c-0.9,0.6-2.2,0.1-2.4-1c-0.4-1.5-0.9-2.8-1.7-3.7c-1.1-1.3-2.6-1.8-4.1-1.4c-9.1,2.4-8.6,19.1-8.7,26.4c-0.1,6.8,0.6,11.9,1.9,15
		c1.3,3.1,3.3,4.5,6.1,4.4c1.1-0.1,2.1-0.4,3-1.1c0.9-0.6,1.7-1.5,2.3-2.6c0.6-1.1,1.1-2.4,1.5-4c0.2-1,0.4-2,0.5-3.1
		c0.1-1-0.8-1.9-1.8-1.8c-1.4,0.2-2.6,0.3-4.1,0.4c-1,0.1-1.8-0.7-1.8-1.6v-14.1c0-0.8,0.6-1.5,1.4-1.6c8.7-1.4,17.4-2.8,26.1-4.3
		c1-0.2,1.9,0.6,1.9,1.6V273.9z M119.9,166.8c0-15.7,1.8-33.3,10.8-47c4.2-6.5,11-11.8,19-11.7c9.1,0.1,17.1,6.5,21.4,14.3
		c6.1,11.1,7.8,24.8,8,37.3c0.2,13-2.5,27.1-8.1,38.7c-4.2,8.7-11.4,17.4-21,20.4c-7.4,2.3-15-0.6-19.7-6.7
		C120.7,199.6,119.9,181.4,119.9,166.8z M166.5,324c-11.4,0-22.8-0.1-34.1,0c-0.9,0-1.6-0.7-1.6-1.6v-91.7c0-0.7,0.5-1.4,1.2-1.6
		c6-1.7,12.1-3.4,18.1-5.1c1-0.3,2.1,0.5,2.1,1.6v72.9c0,1,0.8,1.7,1.8,1.6c4.7-0.3,7.8-0.6,12.5-0.9c1-0.1,1.8,0.7,1.8,1.6v21.5
		C168.2,323.2,167.5,324,166.5,324z M218.8,307.5c-3.8,8.4-11.4,16.3-21.1,16.4c-8,0.1-15.1-5-19.7-11.4
		c-8.7-12.1-10.4-27.7-10.4-41.7c0-15,2.7-30.5,10.8-43.8c4.4-7.2,10.8-13.7,19-16.3c9-2.8,17.3,2.2,21.5,10.2
		c6.7,12.8,8,28.6,8,42.7C226.9,278.3,224.9,294,218.8,307.5z M269.9,222.1c-3.7,0.8-6,1.3-9.6,2.1c-0.8,0.2-1.3,0.8-1.3,1.6v96.6
		c0,0.9-0.7,1.6-1.6,1.6c-6,0-12.1,0-18.1,0c-0.9,0-1.6-0.7-1.6-1.6V231c0-1-1-1.8-2-1.6c-2.9,0.6-4.9,1.1-7.8,1.7
		c-1,0.2-2-0.6-2-1.6v-25.2c0-0.7,0.5-1.4,1.2-1.6c14-3.9,28.1-7.8,42.1-11.8c1-0.3,2.1,0.5,2.1,1.6v28
		C271.2,221.3,270.7,221.9,269.9,222.1z M252.9,154.7v34.3c0,0.7-0.5,1.4-1.2,1.6c-6,1.7-12,3.4-18.1,5c-1,0.3-2.1-0.5-2.1-1.6
		v-35.9c0-0.2,0-0.4-0.1-0.6c-6.5-15.6-12.7-31.5-18.6-47.4c-0.4-1.1,0.4-2.2,1.5-2.2c6.2,0,12.4,0,18.6,0c0.7,0,1.4,0.5,1.6,1.2
		c1.3,4.3,2.1,7,3.5,11.5c0.7,2.4,1.4,4.7,2,6.9c0,0,0,0,0,0.1c0.4,1.6,2.8,1.6,3.2,0c0.2-0.6,0.3-1.2,0.5-1.8
		c0.6-2.2,1.1-4,1.5-5.4c1.4-4.6,2.2-7.2,3.6-11.3c0.2-0.7,0.9-1.1,1.6-1.2c6.1,0,12.2,0,18.4,0c1.2,0,2,1.2,1.5,2.3
		c-6,14.5-11.8,29.1-17.3,43.8C252.9,154.3,252.9,154.5,252.9,154.7z M372.7,333.6h-80.6c-0.9,0-1.6-0.7-1.6-1.6V100.1
		c0-0.9,0.7-1.6,1.6-1.6h80.6c0.9,0,1.6,0.7,1.6,1.6v231.8C374.4,332.8,373.6,333.6,372.7,333.6z"/>
	<path class="st0" d="M98.1,149.2c0,4.3-0.8,7.8-2.3,10.4c-1.1,1.9-3.1,3.4-5,4.1c-1.1,0.4-2.2-0.4-2.2-1.5v-24.9c0-1.1,1-1.9,2-1.6
		c1.9,0.5,4.1,1.5,5.2,3.3C97.3,141.6,98.1,145,98.1,149.2z"/>
	<path class="st0" d="M157.8,163.7c0,6.8-0.3,14-2.1,20.8c-1.4,5.1-3.3,8.1-5.8,8.6c-2.5,0.5-4.4-1.6-5.8-6.4
		c-1.9-6.9-2-14.3-2.1-21.3c-0.1-7.2,0.3-14.7,2.2-21.7c1.5-5.4,3.8-8.4,6-8.3C158.6,135.7,157.8,158.2,157.8,163.7z"/>
	<path class="st0" d="M202.9,288.4c-1.3,5.2-3.3,7.8-5.8,8c-2.4,0.2-4.3-2.2-5.7-7.1c-1.9-6.7-1.9-13.9-2-20.8
		c-0.1-7,0.3-14.4,2.2-21.2c1.5-5.4,3.9-8.9,6-9c7.9-0.3,7.4,22.7,7.5,28.6C205.1,274,204.7,281.4,202.9,288.4z"/>
	<g>
		<g>
			<path class="st0" d="M354.4,187.7v16.6c0,0.9-0.7,1.6-1.6,1.6H317c-0.9,0-1.6-0.7-1.6-1.6v-79.3c0-0.9,0.7-1.6,1.6-1.6h19
				c0.9,0,1.6,0.7,1.6,1.6v59.5c0,0.9,0.7,1.6,1.6,1.6h13.5C353.7,186,354.4,186.8,354.4,187.7z"/>
		</g>
		<g>
			<path class="st0" d="M345.9,226.1h-24.7c-0.8,0-1.4,0.5-1.6,1.3l-19.1,79.3c-0.2,1,0.5,2,1.6,2h19.6c0.8,0,1.5-0.6,1.6-1.4
				l1.3-7.8c0.1-0.8,0.8-1.4,1.6-1.4h12.2c0.8,0,1.5,0.6,1.6,1.4l1.2,7.7c0.1,0.8,0.8,1.4,1.6,1.4h19.6c1,0,1.8-1,1.6-2l-16.8-79.3
				C347.4,226.6,346.7,226.1,345.9,226.1z M329.9,280.5c-1,0-1.8-0.9-1.6-1.9l1.9-11l1.5-10c0-0.2,0.1-0.7,0.2-1.6
				c0.1-0.9,0.3-2.4,0.5-4.6c0.1-1.1,0.3-2.1,0.4-3c0.1-0.9,0.2-1.8,0.3-2.5l0.7,7.8c0.2,1.6,0.3,2.9,0.4,4c0.1,1.1,0.2,1.9,0.3,2.5
				c0.7,5.4,1,8.5,1.1,9.3c0.1,0.9,0.2,1.4,0.2,1.5l1.2,7.7c0.1,1-0.6,1.9-1.6,1.9H329.9z"/>
		</g>
	</g>
</g>
</svg>
