<?xml version="1.0" encoding="utf-8"?>
<!-- Generator: Adobe Illustrator 24.2.1, SVG Export Plug-In . SVG Version: 6.00 Build 0)  -->
<svg version="1.1" id="Layer_1" xmlns="http://www.w3.org/2000/svg" xmlns:xlink="http://www.w3.org/1999/xlink" x="0px" y="0px"
	 viewBox="0 0 432 432" style="enable-background:new 0 0 432 432;" xml:space="preserve">
<style type="text/css">
	.st0{fill:#EF4423;}
	.st1{fill:#FFFFFF;}
</style>
<rect class="st0" width="432" height="432"/>
<g>
	<g>
		<path class="st1" d="M40.1,305.9v-37.6h18.8c8.4,0,13.1,5.7,13.1,12.5c0,6.8-4.6,12.4-13.1,12.4h-9.1v12.6H40.1z M62.1,280.9
			c0-2.6-2.1-4.1-4.7-4.1h-7.7v8.1h7.7C60,284.9,62.1,283.4,62.1,280.9z"/>
		<path class="st1" d="M76.3,290.7v-22.4h9.9v22c0,4.4,2.7,7.7,7.9,7.7c5.2,0,7.9-3.2,7.9-7.7v-22h9.8v22.3
			c0,9.3-5.6,15.9-17.7,15.9S76.3,299.9,76.3,290.7z"/>
		<path class="st1" d="M144.1,305.9l-15.9-21.7v21.7h-9.7v-37.6h10l15.2,20.7v-20.7h9.7v37.6H144.1z"/>
		<path class="st1" d="M158.3,287.2c0-11.6,8.8-19.4,20.3-19.4c9.1,0,14,5.1,16.4,10l-8.3,4c-1.2-3-4.4-5.5-8.1-5.5
			c-6.1,0-10.5,4.7-10.5,10.9c0,6.1,4.3,10.9,10.5,10.9c3.6,0,6.8-2.5,8.1-5.5l8.3,3.9c-2.4,4.8-7.3,10.1-16.4,10.1
			C167.1,306.6,158.3,298.7,158.3,287.2z"/>
		<path class="st1" d="M224.4,305.9v-15.1h-15.6v15.1h-9.7v-37.6h9.7v14h15.6v-14h9.7v37.6H224.4z"/>
		<path class="st1" d="M238.9,287.2c0-11.6,8.8-19.4,20.3-19.4c9.1,0,14,5.1,16.4,10l-8.3,4c-1.2-3-4.4-5.5-8.1-5.5
			c-6.1,0-10.5,4.7-10.5,10.9c0,6.1,4.3,10.9,10.5,10.9c3.6,0,6.8-2.5,8.1-5.5l8.3,3.9c-2.4,4.8-7.3,10.1-16.4,10.1
			C247.7,306.6,238.9,298.7,238.9,287.2z"/>
		<path class="st1" d="M304.9,305.9l-1.9-5.4h-14.8l-1.9,5.4h-11l14.1-37.6h12.2l14.1,37.6H304.9z M295.6,277.9l-4.8,14.1h9.5
			L295.6,277.9z"/>
		<path class="st1" d="M339.5,305.9l-6.3-12.6h-5v12.6h-9.7v-37.6h18.8c8.3,0,13.1,5.5,13.1,12.5c0,6.5-3.9,10-7.5,11.3l7.7,13.8
			H339.5z M340.6,280.8c0-2.6-2.1-4-4.7-4h-7.7v8.1h7.7C338.5,284.9,340.6,283.4,340.6,280.8z"/>
		<path class="st1" d="M355.8,305.9v-37.6h15.8c11.8,0,20.3,7.1,20.3,18.7c0,11.7-8.5,18.8-20.3,18.8H355.8z M382,287.1
			c0-5.8-3.5-10.3-10.4-10.3h-6.1v20.7h6.1C378.2,297.5,382,292.7,382,287.1z"/>
	</g>
	<g>
		<rect x="195.8" y="172.1" class="st1" width="36.8" height="6.9"/>
		<rect x="195.8" y="158.2" class="st1" width="36.8" height="6.9"/>
		<rect x="195.8" y="144.4" class="st1" width="36.8" height="6.9"/>
		<rect x="237.6" y="172.1" class="st1" width="6.9" height="6.9"/>
		<rect x="237.6" y="158.2" class="st1" width="6.9" height="6.9"/>
		<rect x="237.6" y="144.4" class="st1" width="6.9" height="6.9"/>
		<path class="st1" d="M258,125.4h-71.2H182h-5v9.8v66.2h9.8v-4.7v-61.5h66.5v80.4c0,2.4-0.8,14.3-14.2,14.3
			c-13.4,0-14.2-11.9-14.2-14.2v-5h-71.3v9.8h5h57.3c1.6,8.3,7.7,19,23.3,19c18.8,0,23.7-15.5,23.7-23.7v-80.4v-5v-4.7H258z"/>
	</g>
</g>
</svg>
