<?xml version="1.0" encoding="utf-8"?>
<!-- Generator: Adobe Illustrator 28.1.0, SVG Export Plug-In . SVG Version: 6.00 Build 0)  -->
<svg version="1.1" id="Layer_1" xmlns="http://www.w3.org/2000/svg" xmlns:xlink="http://www.w3.org/1999/xlink" x="0px" y="0px"
	 viewBox="0 0 1000 1000" style="enable-background:new 0 0 1000 1000;" xml:space="preserve">
<style type="text/css">
	.st0{fill:#BCBCBC;}
	.st1{fill:#454545;}
	.st2{fill:#2B2C2B;}
	.st3{fill:#222222;}
	.st4{fill:#FFFFFF;}
</style>
<rect class="st0" width="1000" height="1000"/>
<g>
	<g id="XMLID_1_">
		<g>
			
				<rect x="346" y="601.1" transform="matrix(7.640436e-02 -0.9971 0.9971 7.640436e-02 -285.3695 910.3247)" class="st1" width="5.5" height="16.2"/>
			<path class="st1" d="M584.2,470.2l-2.1,3.6l-8-2.5c-0.3,1-0.8,2-1.6,2.9c-0.8,0.9-1.7,1.7-2.8,2.3c-1.3,0.7-2.6,1.3-4.1,1.6
				c-1.5,0.3-3,0.5-4.5,0.4c-1.5-0.1-3-0.3-4.6-0.8c-1.5-0.4-3-1.1-4.5-1.9c-1.5-0.9-2.6-1.7-3.4-2.6c-0.8-0.9-1.2-1.8-1.4-2.7
				c-0.1-0.9,0.1-1.7,0.8-2.6c0.6-0.8,1.5-1.6,2.8-2.4c1.1-0.6,2.4-1.2,3.9-1.6c1.5-0.4,3-0.8,4.7-0.9l-4.2-4.7l2.2-3.8L584.2,470.2
				z"/>
			<path class="st2" d="M974.1,391.1c0.4,1.4,0.6,2.8,0.6,4.3c0,6.5-3.8,12.2-10.7,16.2l-152.9,88.2c-6.2,3.6-14.4,5.4-22.9,5.4
				c-3.3,0-6.6-0.3-9.9-0.8c-6.8-1.1-13.4-3.3-19.1-6.5l-9.8-5.7l6.8,22.9l0,0.1c0.7,1.8,1,3.7,1,5.6c0,6.5-3.8,12.2-10.7,16.2
				L564,642.5c-6.3,3.6-14.4,5.4-22.9,5.4c-2.2,0-4.5-0.1-6.8-0.4c-7.9-0.9-15.7-3.2-22.2-6.9l-7-4.1l6.2,18.6l0,0.1
				c0.4,0.9,0.7,1.9,0.9,2.8c0.4,1.3,0.5,2.6,0.5,4c0,6.5-3.8,12.3-10.7,16.2L268.7,813c-6.3,3.6-14.4,5.4-23,5.4
				c-1.8,0-3.7-0.1-5.6-0.3c-8.3-0.7-16.6-3.1-23.5-7.1L40.4,709.2c-8.2-4.7-13.1-11-13.9-17.8c-0.3-2.3-0.1-4.6,0.6-6.7h0l0.4-1.1
				l0.1-0.2l35.2-100.5l0.1-0.2c1.8-4.7,6.2-8.8,12.7-11.6c74.3-31.7,139.7-69.5,194.7-112.4c11.9-9.3,33.4-9.5,48.9-0.5l18.1,10.4
				l16.8-52c0.7-4.1,3.6-9.9,13.2-14c57.2-24.8,107.9-54.1,150.8-87.1c11.9-9.2,33.4-9.3,48.9-0.4l17,9.8l15.1-49.1
				c0.3-1.9,0.9-3.6,1.7-5.1c2.2-3.9,6-7.2,11.6-9.6c47.2-20.7,89.3-45.1,125.2-72.3c12-9.1,33.5-9.3,48.9-0.4l145.6,84.1
				c7.5,4.3,12.6,10.2,14.6,16.5l0.5,1.9L974.1,391L974.1,391.1z M964.2,395.4c0-0.5-0.1-1-0.2-1.5h0l-0.2-0.6l-5.1-18.7l-17.9-66
				c-0.5,0.5-1.1,1-1.7,1.4c-13.3,10-27.3,19.7-42.1,28.9c-3.3,2.1-6.7,4.1-10.2,6.2c-23.3,13.9-48.4,26.7-75,38.4
				c-5.9,2.6-13.5,3.9-21.3,3.9c-1.9,0-3.8-0.1-5.7-0.2c-10-0.7-20-3.4-27.7-7.9L662,324.4l-10.4-6l-40-23.1c-2.6-1.5-4.7-3-6.4-4.6
				L593,330.3l119.3,68.9c8.8,5.1,14.3,12.3,15.3,19.9v0l17.4,58.6l19.3,11.2c4.2,2.4,9.2,4.1,14.4,5.1c9.8,1.8,20.3,0.8,27-3.1
				l152.9-88.2C961.3,401.1,964.2,398.7,964.2,395.4z M936.9,294.8c0-0.2,0-0.4,0-0.5c0-0.4-0.1-0.8-0.2-1.2l0-0.2
				c-0.1-0.4-0.2-0.8-0.3-1.2l0-0.1c-1.3-3.6-4.8-7.3-9.7-10.2L781,197.4c-6-3.5-13.4-5.2-20.3-5.2c-6.6,0-12.9,1.6-17.2,4.9
				c-36.5,27.7-79.4,52.4-127.3,73.5c-3,1.4-5.3,3-6.4,4.7l-0.8,2.4c0.1,3.8,5.7,7.4,7.7,8.5l45.2,26.1l10.4,6l89.9,51.9
				c6.3,3.7,14.8,5.9,23.1,6.6c8.2,0.6,16.3-0.3,22.2-2.9c24.3-10.7,47.4-22.4,68.9-34.9c3.5-2,6.9-4,10.3-6.1
				c16.3-9.9,31.7-20.4,46.1-31.3C935.6,299.7,936.9,297.4,936.9,294.8z M746.8,520.9c0-0.4,0-0.8-0.1-1.2l-0.3-1l0-0.1l-5.6-18.9
				l-4.5-15.1l-4.3-14.5l-10.4-34.9c-0.5,0.5-1.1,1-1.8,1.5c-6.5,5-13.2,9.9-20.1,14.8c-3.1,2.2-6.3,4.4-9.5,6.6
				c-3.3,2.3-6.7,4.5-10.1,6.7c-3.3,2.1-6.5,4.2-9.9,6.3c-31.6,19.8-66.2,37.8-103.5,54c-6,2.6-13.5,3.8-21.3,3.8
				c-1.5,0-3,0-4.5-0.1c-10.4-0.6-20.9-3.4-28.9-8l-95.1-54.9l-10.4-6l-40-23.1c-2.6-1.5-4.8-3.1-6.6-4.8L346.3,474l118.2,68.2
				c7.5,4.3,12.6,10.1,14.6,16.4l0.2,0.6l20.9,62.4v0l17.2,9.9c0.7,0.4,1.4,0.8,2.1,1.1c0.6,0.3,1.3,0.6,1.9,0.9
				c1.4,0.6,2.8,1.1,4.3,1.6c0.7,0.2,1.4,0.4,2.1,0.6c0.5,0.1,1,0.3,1.5,0.4c0.5,0.1,1.1,0.3,1.7,0.4c0.5,0.1,1.1,0.2,1.6,0.3
				c0.8,0.1,1.5,0.3,2.3,0.3c0,0,0,0,0,0c0.5,0.1,1,0.1,1.6,0.2c0.5,0,1,0.1,1.6,0.1c0.1,0,0.1,0,0.1,0c0.5,0,1,0.1,1.4,0.1
				c7.2,0.2,14.2-1.1,19.2-3.9l182.5-105.4C743.9,526.7,746.8,524.3,746.8,520.9z M717.5,421.5c0-0.1,0-0.3,0-0.4v0l-1.3-4.4l0-0.1
				c-1.7-3.1-4.8-6.1-9-8.5l-117.3-67.7l-9.3-5.3l-19.1-11c-6-3.5-13.4-5.2-20.2-5.2c-6.6,0-12.8,1.6-17.1,4.9
				c-43.6,33.5-95.1,63.2-153,88.4c-3.2,1.4-5.5,3.1-6.5,4.8l0,0l-0.6,2v0.1c0,2.6,2.8,5.9,7.7,8.7l45.2,26.1l10.4,6l89.9,51.9
				c6.6,3.8,15.6,6.1,24.3,6.6c7.8,0.5,15.4-0.4,21.1-2.9c35-15.2,67.5-32,97.4-50.4c3.4-2.1,6.7-4.1,10-6.3
				c3.4-2.2,6.8-4.4,10.2-6.6c3.2-2.1,6.4-4.3,9.6-6.5c8.2-5.6,16.1-11.4,23.7-17.3C716.1,426.5,717.5,424.2,717.5,421.5z
				 M502.4,662c0-0.3,0-0.7-0.1-1v0l-0.7-2l0-0.1l-6.2-18.6h0l-3.9-11.6l-5-14.9v0l-12-36c-0.7,0.8-1.5,1.5-2.4,2.1
				c-6.3,4.9-12.7,9.7-19.2,14.4c-3.1,2.3-6.2,4.5-9.3,6.6c-2.4,1.7-4.9,3.4-7.3,5.1c-3.2,2.2-6.4,4.4-9.6,6.5
				c-14.7,9.8-30,19.3-45.8,28.4c-32.9,19-68.2,36.6-105.8,52.6c-6,2.6-13.5,3.8-21.3,3.8c-2.3,0-4.5-0.1-6.8-0.3
				c-9.7-0.9-19.4-3.6-26.8-7.9l-95.1-54.9l-10.4-6l-40-23.1c-3-1.7-5.3-3.5-7-5.2l-24.3,69.4l-6.1,17.6l0,0.1l-0.3,0.7l-0.1,0.2
				c-0.1,0.6-0.2,1.3-0.1,2c0.4,3.4,3.6,7.1,8.8,10L222,802c5.4,3.1,12.1,5,18.8,5.6c8.5,0.8,17-0.4,22.7-3.7l233.4-134.7
				C499.4,667.8,502.4,665.4,502.4,662z M469.6,564.7c0-0.2,0-0.4,0-0.5c-0.3-4.5-4.2-9.3-10.3-12.8L343,484.1l-9.2-5.3l-20-11.5
				c-6.1-3.5-13.4-5.3-20.3-5.3c-6.6,0-12.8,1.6-17.1,4.9c-55.6,43.4-121.9,81.7-197,113.8c-1.5,0.6-5.7,2.7-6.9,5.5l-0.1,0.3
				c-0.2,0.5-0.3,1.1-0.1,1.7c0.4,2.5,3.2,5.5,7.6,8l45.2,26.1l10.4,6l89.9,51.9c2.3,1.3,4.9,2.5,7.6,3.4c0.4,0.1,0.8,0.3,1.3,0.4
				c0.5,0.2,1,0.3,1.5,0.5c1.9,0.5,3.8,1,5.8,1.4c2,0.4,4,0.6,6,0.9c1,0.1,2,0.2,3.1,0.2c0.5,0,1,0.1,1.5,0.1c7,0.2,13.7-0.8,18.8-3
				c53.2-22.7,102-48.6,145.5-77.3c3.3-2.1,6.5-4.3,9.7-6.5c2.5-1.7,4.9-3.4,7.4-5.1h0c3.1-2.2,6.3-4.4,9.4-6.6
				c7.8-5.6,15.3-11.2,22.7-17C468.3,569.7,469.6,567.3,469.6,564.7z"/>
			<path class="st3" d="M964.1,393.9c0.1,0.5,0.2,1,0.2,1.5c0,3.3-3,5.8-5.5,7.2l-152.9,88.2c-6.8,3.9-17.2,4.9-27,3.1l6-106.7
				c1.9,0.2,3.8,0.2,5.7,0.2c7.9,0,15.4-1.3,21.3-3.9c26.7-11.7,51.7-24.6,75-38.4c3.4-2,6.8-4.1,10.2-6.2
				c14.8-9.2,28.9-18.9,42.1-28.9c0.6-0.5,1.2-0.9,1.7-1.4l17.9,66l5.1,18.7L964.1,393.9L964.1,393.9z"/>
			<path class="st1" d="M936.9,294.3c0,0.2,0,0.4,0,0.5c0,2.6-1.3,4.9-4,6.9c-14.4,10.9-29.8,21.4-46.1,31.3
				c-3.4,2.1-6.8,4.1-10.3,6.1c-21.5,12.5-44.5,24.2-68.9,34.9c-5.9,2.6-14,3.5-22.2,2.9c-8.3-0.7-16.7-2.9-23.1-6.6l-89.9-51.9
				l-10.4-6l-45.2-26.1c-1.9-1.1-7.5-4.7-7.7-8.5l0.8-2.4c1.1-1.7,3.3-3.4,6.4-4.7c47.9-21.1,90.8-45.8,127.3-73.5
				c4.3-3.3,10.5-4.9,17.2-4.9c6.9,0,14.2,1.8,20.3,5.2l145.6,84.1c5,2.9,8.4,6.5,9.7,10.2l0,0.1c0.1,0.4,0.3,0.8,0.3,1.2l0,0.2
				C936.8,293.5,936.9,293.9,936.9,294.3z M870.6,313l-20.8-27.1l-21.8,12.6l7.5,4.4l11.2-6.5l16.5,20.9L870.6,313z M847,326.6
				l7.4-4.3l-34.6-20l-2.3,1.4l-6.9,10.3l9.5,2.8l2.6-4.3L847,326.6z M828.6,336.2c0.6-1.5,0.7-3,0.1-4.5c-0.6-1.5-1.6-3.1-3.2-4.6
				c-1.6-1.5-3.5-3-5.8-4.3c-2.3-1.4-4.8-2.5-7.4-3.4c-2.6-0.9-5.3-1.5-7.9-1.9c-1.1-0.1-2.1-0.2-3.2-0.2c-0.4,0-0.7,0-1.1,0h0
				c-1.2,0-2.3,0.1-3.5,0.3c-2.5,0.4-4.9,1.1-6.9,2.4c-2.1,1.2-3.5,2.6-4.1,4s-0.6,3-0.1,4.5c0.5,1.5,1.6,3.1,3.2,4.6
				c1.6,1.5,3.5,3,5.9,4.3c2.3,1.3,4.8,2.4,7.4,3.4c2.6,0.9,5.3,1.6,7.9,1.9c1.5,0.2,2.9,0.3,4.3,0.2h0c0.4,0,0.7,0,1.1,0
				c0.8,0,1.6-0.1,2.4-0.2c2.5-0.4,4.9-1.1,6.9-2.4C826.7,339,828,337.6,828.6,336.2z M786.6,361.4l20.4-11.8l-7.2-4.1l-10.1,5.8
				c0.1-2.9-0.1-5.4-0.9-7.5c-0.6-1.6-1.4-3.1-2.4-4.3s-2.3-2.3-3.8-3.1c-1.5-0.9-3.1-1.5-4.9-2c-1.8-0.5-3.6-0.8-5.5-0.8
				c-1.9,0-3.8,0.1-5.6,0.5c-1.9,0.4-3.6,1.1-5.2,2c-1,0.6-1.8,1.1-2.4,1.6c-0.7,0.5-1.2,1.1-1.7,1.7c-0.5,0.6-0.8,1.2-1.1,1.8
				c-0.3,0.6-0.5,1.3-0.7,2l9.1,2.3c0.2-1,0.5-1.8,1-2.5c0.5-0.7,1.2-1.3,2.1-1.9c1.5-0.9,3.1-1.2,4.7-1.1c1.6,0.1,3.2,0.6,4.7,1.4
				c1,0.6,1.8,1.4,2.4,2.3c0.6,1,1.2,2.2,1.6,3.8c0.4,1.3,0.6,2.9,0.8,4.7c0.1,1.8,0.1,3.9,0,6.4L786.6,361.4z"/>
			<polygon class="st4" points="849.8,285.8 870.6,313 863.2,317.2 846.6,296.3 835.4,302.8 827.9,298.4 			"/>
			<polygon class="st4" points="854.4,322.3 847,326.6 822.6,312.4 820,316.7 810.5,314 817.4,303.7 819.8,302.3 			"/>
			<path class="st4" d="M828.8,331.7c0.5,1.5,0.5,3-0.1,4.5c-0.6,1.5-2,2.8-4.1,4c-2.1,1.2-4.4,2-6.9,2.4c-0.8,0.1-1.6,0.2-2.4,0.2
				L815,337c1-0.1,1.9-0.4,2.7-0.8c1.8-1,2.1-2.3,1-3.9c-1.1-1.6-3.3-3.3-6.5-5.1c-3.3-1.9-6.2-3.1-8.9-3.8
				c-0.8-0.2-1.5-0.3-2.2-0.4l0.2-5.8c1,0,2.1,0.1,3.2,0.2c2.6,0.3,5.3,1,7.9,1.9c2.6,0.9,5.1,2,7.4,3.4c2.3,1.3,4.3,2.8,5.8,4.3
				C827.1,328.6,828.2,330.1,828.8,331.7z"/>
			<path class="st1" d="M818.7,332.3c1.1,1.5,0.8,2.8-1,3.9c-0.8,0.5-1.7,0.7-2.7,0.8c-0.3,0-0.7,0.1-1,0.1c-0.9,0-1.9-0.1-2.9-0.4
				c-2.7-0.6-5.7-1.9-8.9-3.8s-5.4-3.6-6.5-5.2c-1.1-1.6-0.8-2.8,1-3.8c1.1-0.6,2.3-0.9,3.8-0.9c0.2,0,0.5,0,0.7,0
				c0.7,0,1.5,0.2,2.2,0.4c2.7,0.6,5.7,1.9,8.9,3.8C815.4,329,817.6,330.7,818.7,332.3z"/>
			<path class="st4" d="M815,337l0.2,5.8c-0.4,0-0.7,0-1.1,0h0c-1.4,0-2.8,0-4.3-0.2c-2.6-0.3-5.3-1-7.9-1.9
				c-2.6-0.9-5.1-2.1-7.4-3.4c-2.3-1.4-4.3-2.8-5.9-4.3c-1.6-1.5-2.6-3.1-3.2-4.6c-0.5-1.5-0.5-3,0.1-4.5s2-2.8,4.1-4
				c2.1-1.2,4.4-2,6.9-2.4c1.1-0.2,2.3-0.3,3.5-0.3h0c0.4,0,0.7,0,1.1,0L801,323c-0.2,0-0.5,0-0.7,0c-1.4,0-2.7,0.3-3.8,0.9
				c-1.7,1-2,2.3-1,3.8c1.1,1.6,3.3,3.3,6.5,5.2s6.2,3.1,8.9,3.8c1,0.3,2,0.4,2.9,0.4C814.3,337,814.6,337,815,337z"/>
			<path class="st4" d="M807.1,349.6l-20.4,11.8l-4.7-2.7c0.1-2.4,0.1-4.6,0-6.4c-0.1-1.8-0.4-3.4-0.8-4.7c-0.4-1.6-0.9-2.8-1.6-3.8
				c-0.6-1-1.5-1.7-2.4-2.3c-1.5-0.8-3-1.3-4.7-1.4c-1.6-0.1-3.2,0.3-4.7,1.1c-0.9,0.5-1.6,1.2-2.1,1.9c-0.5,0.7-0.8,1.5-1,2.5
				l-9.1-2.3c0.2-0.7,0.4-1.4,0.7-2c0.3-0.6,0.6-1.2,1.1-1.8c0.5-0.6,1-1.1,1.7-1.7c0.7-0.5,1.5-1.1,2.4-1.6c1.6-0.9,3.4-1.6,5.2-2
				c1.9-0.4,3.7-0.6,5.6-0.5c1.9,0.1,3.7,0.3,5.5,0.8c1.8,0.5,3.4,1.1,4.9,2c1.5,0.9,2.8,1.9,3.8,3.1s1.8,2.6,2.4,4.3
				c0.7,2.1,1,4.6,0.9,7.5l10.1-5.8L807.1,349.6z"/>
			<path class="st1" d="M784.9,387.2l-6,106.7c-5.2-0.9-10.2-2.6-14.4-5.1l-19.3-11.2l-17.4-58.6v0c-1-7.6-6.5-14.8-15.3-19.9
				L593,330.3l12.2-39.6c1.7,1.6,3.8,3.1,6.4,4.6l40,23.1l10.4,6l95.2,54.9C764.9,383.8,774.9,386.5,784.9,387.2z"/>
			<path class="st3" d="M746.7,519.7c0.1,0.4,0.1,0.8,0.1,1.2c0,3.3-3,5.8-5.5,7.2L558.8,633.5c-5,2.9-11.9,4.1-19.2,3.9
				c-0.5,0-0.9,0-1.4-0.1c0,0-0.1,0-0.1,0c-0.5,0-1-0.1-1.6-0.1c-0.5,0-1-0.1-1.6-0.2l6.1-108.3c1.5,0.1,3,0.1,4.5,0.1
				c7.8,0,15.3-1.2,21.3-3.8c37.3-16.2,71.9-34.2,103.5-54c3.3-2.1,6.6-4.2,9.9-6.3c3.4-2.2,6.8-4.4,10.1-6.7
				c3.2-2.2,6.4-4.4,9.5-6.6c6.9-4.8,13.6-9.8,20.1-14.8c0.6-0.5,1.2-1,1.8-1.5l10.4,34.9l4.3,14.5l4.5,15.1l5.6,18.9l0,0.1
				L746.7,519.7z"/>
			<path class="st1" d="M717.4,421.1c0,0.1,0,0.3,0,0.4c0,2.6-1.3,4.9-3.9,7c-7.7,5.9-15.6,11.7-23.7,17.3c-3.1,2.2-6.4,4.4-9.6,6.5
				c-3.4,2.3-6.8,4.5-10.2,6.6c-3.3,2.1-6.6,4.2-10,6.3c-29.8,18.4-62.4,35.2-97.4,50.4c-5.7,2.5-13.3,3.4-21.1,2.9
				c-8.7-0.5-17.7-2.8-24.3-6.6l-89.9-51.9l-10.4-6l-45.2-26.1c-4.8-2.8-7.7-6-7.7-8.7V419l0.6-2l0,0c1.1-1.7,3.4-3.4,6.5-4.8
				c57.9-25.1,109.4-54.9,153-88.4c4.3-3.3,10.5-4.9,17.1-4.9c6.9,0,14.2,1.8,20.2,5.2l19.1,11l9.3,5.3l117.3,67.7
				c4.2,2.4,7.3,5.4,9,8.5l0,0.1L717.4,421.1L717.4,421.1z M634.5,446.3l6.6-3.8l-44.4-10.9l-0.9,0.5l18.8,25.6l6.4-3.7l-3.6-4.5
				l9.4-5.4L634.5,446.3z M612,460l0.5-0.4l-31.8-18.4l-6.3,3.6l16.3,9.4l-33-0.4l-0.7,0.6l0.4,0.3l-2.2,3.8c-2.1,0.3-4.1,0.6-6,1.2
				c-1.9,0.5-3.7,1.3-5.3,2.2c-2.2,1.3-3.8,2.7-4.8,4.2c-1,1.5-1.4,3.1-1.3,4.7c0.1,1.6,0.8,3.1,2.1,4.7c1.3,1.6,3.1,3,5.4,4.4
				c2.3,1.3,4.8,2.4,7.5,3.1c2.7,0.7,5.4,1.1,8.2,1.2c2.8,0.1,5.4-0.2,8.1-0.8c2.6-0.6,5.1-1.5,7.3-2.8c1.6-0.9,2.9-1.9,3.9-3.1
				c1-1.2,1.7-2.4,1.9-3.6l2.1-3.6l4.5,2.6l6.3-3.6l-16.4-9.5L612,460z M551.8,493.7c0.7-1,0.9-2,0.8-3c-0.1-1-0.6-1.9-1.3-2.8
				c-0.8-0.9-1.8-1.7-3-2.4c-1-0.6-2-1.1-3.1-1.4c-1.1-0.4-2.3-0.6-3.5-0.8c-1.3-0.1-2.6-0.2-4.2-0.1c-1.5,0.1-3.2,0.4-5.1,0.7
				c-1.3,0.3-2.4,0.4-3.3,0.6c-0.9,0.2-1.7,0.3-2.4,0.3s-1.3,0-1.9-0.1c-0.5-0.1-1.1-0.3-1.6-0.6c-0.6-0.4-1-0.9-1-1.5
				c0-0.6,0.5-1.2,1.7-1.9c0.5-0.3,1.1-0.5,1.8-0.8c0.7-0.2,1.4-0.4,2.2-0.6c0.8-0.2,1.6-0.3,2.4-0.4c0.8-0.1,1.5-0.2,2.3-0.3
				l-4.9-4.7c-0.7,0-1.5,0.1-2.4,0.3c-0.9,0.2-1.7,0.4-2.6,0.6s-1.8,0.5-2.6,0.9c-0.9,0.3-1.7,0.7-2.4,1.1c-1.6,0.9-2.7,1.9-3.4,2.8
				c-0.7,1-1,2-1,2.9c0.1,1,0.4,1.9,1.1,2.7c0.7,0.9,1.6,1.6,2.7,2.3c1,0.5,2,1,3.1,1.4c1.1,0.4,2.3,0.6,3.5,0.8
				c1.3,0.2,2.7,0.2,4.2,0.1s3.1-0.3,4.9-0.7c1.5-0.3,2.8-0.6,3.8-0.7c1-0.1,1.9-0.2,2.6-0.2c0.7,0,1.3,0.1,1.8,0.2
				c0.5,0.1,0.9,0.3,1.3,0.6c0.8,0.4,1.2,0.9,1.3,1.5c0,0.6-0.5,1.2-1.6,1.8c-1.3,0.7-2.9,1.3-4.8,1.8c-1.9,0.5-3.8,0.7-5.9,0.9
				l4.9,4.8c1-0.1,2.1-0.2,3.3-0.4c1.1-0.2,2.2-0.5,3.3-0.8c1.1-0.3,2.1-0.6,3.1-1c1-0.4,1.9-0.8,2.6-1.2
				C550,495.7,551.1,494.8,551.8,493.7z"/>
			<path class="st4" d="M641.1,442.5l-6.6,3.8l-7.7-2.1l-9.4,5.4l3.6,4.5l-6.4,3.7l-18.8-25.6l0.9-0.5L641.1,442.5z M613.8,445.3
				l5.4-3.1l-10.2-2.8L613.8,445.3z"/>
			<polygon class="st1" points="619.2,442.2 613.8,445.3 609,439.4 			"/>
			<polygon class="st4" points="612.5,459.6 612,460 578.6,459.7 595,469.1 588.7,472.8 584.2,470.2 557.4,454.7 556.9,454.4 
				557.6,453.8 590.6,454.2 574.4,444.8 580.7,441.2 			"/>
			<path class="st4" d="M574.1,471.3l8,2.5c-0.3,1.2-0.9,2.4-1.9,3.6c-1,1.2-2.3,2.2-3.9,3.1c-2.2,1.3-4.6,2.2-7.3,2.8
				c-2.6,0.6-5.3,0.8-8.1,0.8c-2.8-0.1-5.5-0.5-8.2-1.2c-2.7-0.7-5.2-1.8-7.5-3.1c-2.3-1.4-4.1-2.8-5.4-4.4c-1.3-1.6-2-3.1-2.1-4.7
				c-0.1-1.6,0.3-3.1,1.3-4.7c1-1.5,2.6-2.9,4.8-4.2c1.6-0.9,3.3-1.6,5.3-2.2c1.9-0.5,3.9-0.9,6-1.2l4.2,4.7
				c-1.7,0.2-3.2,0.5-4.7,0.9c-1.5,0.4-2.8,0.9-3.9,1.6c-1.3,0.7-2.2,1.5-2.8,2.4c-0.6,0.8-0.9,1.7-0.8,2.6c0.1,0.9,0.6,1.8,1.4,2.7
				c0.8,0.9,1.9,1.8,3.4,2.6c1.5,0.8,3,1.5,4.5,1.9c1.5,0.5,3.1,0.7,4.6,0.8c1.5,0.1,3-0.1,4.5-0.4c1.5-0.3,2.8-0.9,4.1-1.6
				c1.1-0.6,2-1.4,2.8-2.3C573.3,473.3,573.8,472.3,574.1,471.3z"/>
			<path class="st4" d="M552.6,490.7c0.1,1-0.2,2-0.8,3c-0.7,1-1.8,2-3.5,2.9c-0.8,0.4-1.6,0.9-2.6,1.2c-1,0.4-2,0.7-3.1,1
				c-1.1,0.3-2.2,0.5-3.3,0.8c-1.1,0.2-2.2,0.4-3.3,0.4l-4.9-4.8c2-0.1,4-0.4,5.9-0.9c1.9-0.4,3.5-1,4.8-1.8
				c1.1-0.6,1.6-1.3,1.6-1.8c-0.1-0.6-0.5-1.1-1.3-1.5c-0.4-0.3-0.8-0.4-1.3-0.6c-0.5-0.1-1.1-0.2-1.8-0.2c-0.7,0-1.6,0.1-2.6,0.2
				c-1,0.1-2.3,0.4-3.8,0.7c-1.8,0.4-3.4,0.6-4.9,0.7s-2.9,0.1-4.2-0.1c-1.3-0.1-2.5-0.4-3.5-0.8c-1.1-0.4-2.1-0.8-3.1-1.4
				c-1.1-0.7-2-1.4-2.7-2.3c-0.7-0.9-1-1.8-1.1-2.7c0-0.9,0.3-1.9,1-2.9c0.7-1,1.8-1.9,3.4-2.8c0.8-0.4,1.5-0.8,2.4-1.1
				c0.9-0.4,1.8-0.6,2.6-0.9s1.8-0.5,2.6-0.6c0.9-0.2,1.6-0.3,2.4-0.3l4.9,4.7c-0.7,0-1.5,0.1-2.3,0.3c-0.8,0.1-1.6,0.3-2.4,0.4
				c-0.8,0.2-1.5,0.4-2.2,0.6c-0.7,0.2-1.3,0.5-1.8,0.8c-1.2,0.7-1.7,1.3-1.7,1.9c0,0.6,0.4,1.1,1,1.5c0.5,0.3,1,0.5,1.6,0.6
				c0.6,0.1,1.2,0.1,1.9,0.1s1.5-0.2,2.4-0.3c0.9-0.2,2-0.4,3.3-0.6c1.9-0.4,3.6-0.6,5.1-0.7c1.5-0.1,2.9-0.1,4.2,0.1
				c1.3,0.1,2.4,0.4,3.5,0.8c1.1,0.4,2.1,0.9,3.1,1.4c1.3,0.7,2.3,1.5,3,2.4C552.1,488.8,552.5,489.8,552.6,490.7z"/>
			<path class="st1" d="M541,528.8l-6.1,108.3c0,0,0,0,0,0c-0.8-0.1-1.6-0.2-2.3-0.3c-0.5-0.1-1.1-0.2-1.6-0.3
				c-0.6-0.1-1.1-0.2-1.7-0.4c-0.5-0.1-1-0.2-1.5-0.4c-0.7-0.2-1.4-0.4-2.1-0.6c-1.5-0.5-2.9-1-4.3-1.6c-0.6-0.3-1.3-0.6-1.9-0.9
				c-0.7-0.3-1.4-0.7-2.1-1.1l-17.2-9.9v0l-20.9-62.4l-0.2-0.6c-2-6.3-7.1-12.1-14.6-16.4L346.3,474l13.6-42.1
				c1.8,1.7,4.1,3.4,6.6,4.8l40,23.1l10.4,6l95.1,54.9C520.1,525.5,530.6,528.2,541,528.8z"/>
			<path class="st3" d="M502.3,661c0.1,0.4,0.1,0.7,0.1,1c0,3.3-3,5.8-5.5,7.2L263.5,804c-5.8,3.3-14.3,4.5-22.7,3.7l6.2-110.5
				c2.3,0.2,4.6,0.3,6.8,0.3c7.8,0,15.3-1.2,21.3-3.8C312.6,677.6,348,660,380.9,641c15.8-9.1,31.1-18.6,45.8-28.4
				c3.2-2.1,6.4-4.3,9.6-6.5c2.5-1.7,4.9-3.4,7.3-5.1c3.1-2.2,6.2-4.4,9.3-6.6c6.5-4.7,12.9-9.6,19.2-14.4c0.9-0.7,1.6-1.4,2.4-2.1
				l12,36v0l5,14.9l3.9,11.6h0l6.2,18.6l0,0.1L502.3,661L502.3,661z"/>
			<path class="st1" d="M469.6,564.1c0,0.2,0,0.4,0,0.5c0,2.6-1.3,5-3.9,7c-7.4,5.8-14.9,11.4-22.7,17c-3.1,2.2-6.2,4.4-9.4,6.6h0
				c-2.4,1.7-4.9,3.4-7.4,5.1c-3.2,2.2-6.4,4.3-9.7,6.5c-43.6,28.6-92.3,54.5-145.5,77.3c-5.1,2.2-11.9,3.2-18.8,3
				c-0.5,0-1,0-1.5-0.1c-1,0-2-0.1-3.1-0.2c-2-0.2-4-0.5-6-0.9c-2-0.4-3.9-0.8-5.8-1.4c-0.5-0.1-1-0.3-1.5-0.5
				c-0.4-0.1-0.8-0.3-1.3-0.4c-2.7-0.9-5.3-2.1-7.6-3.4l-89.9-51.9l-10.4-6l-45.2-26.1c-4.4-2.5-7.2-5.5-7.6-8
				c-0.1-0.6,0-1.2,0.1-1.7l0.1-0.3c1.2-2.8,5.4-4.8,6.9-5.5c75.1-32.1,141.4-70.4,197-113.8c4.3-3.3,10.4-4.9,17.1-4.9
				c6.9,0,14.2,1.8,20.3,5.3l20,11.5l9.2,5.3l116.2,67.1C465.4,554.8,469.3,559.6,469.6,564.1z M365.6,607.7l23.5-12.5l-24.7-1.9
				l-24.7-1.9l1.3,14.4l-0.4,5.4l-16.8-1.3l-33-2.5c1.2,12.1,14,19.9,34.7,21.6l0,0l31.3-16.7l0.4-5.4L365.6,607.7z M329.9,605.1
				l-1.1-14.4l-25.1-1.9l1.3,14.4L329.9,605.1z M285.1,650.6l-1.7-19.2l-33-2.5l3.4,38.3L285.1,650.6z M282.8,625.9l-1.6-19.1
				l-33-2.5l1.6,19.1L282.8,625.9z"/>
			<polygon class="st4" points="389,595.3 365.6,607.7 357,607.1 340.8,605.9 339.6,591.5 364.3,593.4 			"/>
			<path class="st4" d="M356.6,612.5l-31.3,16.7l0,0c-20.7-1.7-33.4-9.6-34.7-21.6l33,2.5l16.8,1.3L356.6,612.5z"/>
			<polygon class="st4" points="328.8,590.7 329.9,605.1 305,603.2 303.7,588.8 			"/>
			<polygon class="st4" points="283.4,631.4 285.1,650.6 253.8,667.3 250.4,628.9 			"/>
			<polygon class="st4" points="281.2,606.8 282.8,625.9 249.8,623.4 248.2,604.3 			"/>
			<path class="st1" d="M247,697.1l-6.2,110.5c-6.7-0.6-13.4-2.5-18.8-5.6L45.6,700.2c-5.2-3-8.4-6.6-8.8-10c-0.1-0.7,0-1.4,0.1-2
				l0.1-0.2l0.3-0.7l0-0.1l6.1-17.6l24.3-69.4c1.8,1.8,4,3.5,7,5.2l40,23.1l10.4,6l95.1,54.9C227.6,693.6,237.3,696.3,247,697.1z"/>
		</g>
		<g>
		</g>
	</g>
</g>
</svg>
