<?xml version="1.0" encoding="utf-8"?>
<!-- Generator: Adobe Illustrator 24.2.1, SVG Export Plug-In . SVG Version: 6.00 Build 0)  -->
<svg version="1.1" id="Layer_1" xmlns="http://www.w3.org/2000/svg" xmlns:xlink="http://www.w3.org/1999/xlink" x="0px" y="0px"
	 viewBox="0 0 432 432" style="enable-background:new 0 0 432 432;" xml:space="preserve">
<style type="text/css">
	.st0{fill:#3F2F21;}
	.st1{fill:#F8F9E5;}
</style>
<g>
	<rect class="st0" width="432" height="432"/>
</g>
<g>
	<g>
		<g>
			<g>
				<path class="st1" d="M131.9,75.2c3.4-4.2,7-7.7,10.8-10.7c3.8-3,7.8-5.9,12-8.8c5.5-3.6,11.7-6.2,18.7-8.1
					c7-1.8,14.1-2.2,21.2-1.3c2.8,0.3,5.5,1.1,8.3,2.3c2.7,1.1,5.2,2.7,7.3,4.7c2.2,2,3.9,4.5,5.4,7.6c1.4,3.1,2.2,6.8,2.4,11.1
					c0.2,4.5-0.7,9.2-2.5,14c-1.9,4.9-4.6,9.7-8.1,14.5c-3.5,4.8-7.6,9.4-12.6,13.7c-4.9,4.3-10.2,8.1-16,11.5c-1.5,1-3,1.8-4.5,2.7
					s-3.6,1.9-6.1,3.1s-5.7,2.6-9.5,4.2c-3.8,1.6-8.8,3.6-14.8,5.8c-6,2.4-11.4,4.7-16.2,6.6c-4.8,2-8.8,3.7-12,5.2h3.4
					c6.9,0,13.9,1.3,20.8,3.9c11.3,4.9,19.7,7.3,25.3,7.3c4.9,0,8.8-1.2,11.8-3.6c0.5-0.3,1.1-0.8,1.6-1.3c0.5-0.4,1.1-0.8,1.7-1
					c1.1-0.3,2.1-0.3,2.8,0.3c0.8,0.5,1,1.5,0.6,2.8c-0.2,0.3-0.4,0.8-0.7,1.3c-0.3,0.4-0.5,0.9-0.7,1.3c-3.6,4.7-7.3,8.8-11.1,12.1
					s-8,6.3-12.2,8.8c-9,5-18.5,7.6-28.4,7.6c-5.5,0-10.1-0.8-14-2.3s-6.9-2.9-9-4.2c-3.7-2.3-7.6-4.2-11.5-5.6s-7.9-2.3-11.8-2.3
					c-3.2,0-6.3,0.5-9.3,1.6c-2.1,1-3.9,2.3-5.6,3.9c-1.7,1.7-3.3,3.6-4.8,5.6c-1.1,1.5-2.3,2.3-3.6,2.3c-1,0-1.9-0.4-2.9-1.4
					c-1-1.3-1.2-2.5-0.7-3.6c0.4-1.1,0.9-2,1.3-2.5c6.8-11.1,20.1-21.8,40-32.1c3-1.5,5.9-2.9,8.8-4.2s5.6-2.6,8.4-3.9
					c6-3,12-6,17.9-8.8c5.9-2.9,11.8-6.2,17.6-9.7c3.9-2.3,8-5.4,12.1-9.3c4.2-4,8.1-7.9,11.8-11.8c4.9-5,8.4-10.2,10.6-15.5
					c2.2-5.3,2.9-10.1,2.1-14.4c-0.3-3-1.9-5.8-4.5-8.4c-2.6-2.6-6.4-3.9-11.3-3.9c-2.8,0-5.7,0.4-8.6,1.3c-2.9,0.9-5.8,2-8.6,3.6
					c-2.8,1.5-5.4,3.3-7.7,5.4s-4.2,4.3-5.8,6.8c-2.1,3.2-3.3,6.3-3.8,9.3c-0.4,3,0.9,4.9,4.1,5.9c2.3,0.8,4.6,0.7,6.9-0.2
					c2.3-0.9,4.8-2.1,7.2-3.8c2.1-1.3,3.4-1.8,4.1-1.4c0.7,0.3,0.9,1.2,0.7,2.4c-0.2,1.2-0.7,2.7-1.4,4.5c-0.8,1.8-1.5,3.3-2.3,4.7
					c-1.9,3.2-4.9,6.7-8.8,10.6c-4.1,3.8-9.3,6.8-15.6,8.8c-4.9,1.5-9,1-12.4-1.6c-3.4-2.6-4.5-7.2-3.4-13.8c0.8-4.3,2.4-9,5-14.2
					C124.4,85.1,127.8,80.1,131.9,75.2z"/>
			</g>
		</g>
		<g>
			<g>
				<path class="st1" d="M241.2,177.9c0-5-2-8.4-4.3-11.6c-3.5,3.9-8.5,7.1-17.4,7.1c-13,0-23.4-4.1-23.4-15.3
					c0-6.9,3.3-11.6,12.8-13.7c-4.6-4.2-7.2-8.3-7.2-14.1c0-11.2,9.3-15.8,18.8-15.8c11.4,0,16.3,4.5,16.3,10.8
					c0,5.6-4.2,10.1-13.2,13.3c1.8,1.2,3.9,2.6,6.4,4.2c4.3,2.8,8.8,5.5,12.4,9.1c0.9-4.2,1.3-8.1,1.4-12h-6.4v-1.6h14.2v1.6h-5.7
					c-0.1,4.7-0.5,9.2-1.6,13.8c3.9,4.3,7.1,8.6,7.1,16.6c0,11.7-9.7,22.7-20.4,22.7c-7.1,0-11.2-3.1-11.2-8.2
					c0-4.1,2.9-6.8,6.8-6.8c4.2,0,6.5,2.1,6.5,5.9c0,0.8-0.2,1.8-0.5,2.9h-2.9c-0.8,2.4-0.3,4.3,2.9,4.3
					C238.5,191,241.2,184.7,241.2,177.9z M235.5,164.5c-2.7-2.9-5.6-5.2-10.6-8.5c-6-3.9-11-7.1-14.8-10.5
					c-0.8,1.7-1.2,4.6-1.2,10.2c0,11.6,4.6,15.4,12.9,15.4C228.5,171.3,232.7,168.2,235.5,164.5z M222.2,137.5
					c5-2.7,5.1-6.3,5.1-11.8c0-6.5-2.4-9.6-7.1-9.6c-3.5,0-7.5,1.7-7.5,8.3C212.8,129.6,214.8,132.4,222.2,137.5z"/>
			</g>
		</g>
		<g>
			<g>
				<path class="st1" d="M303.6,89.4c3.2-0.8,6.8-1.1,11-1.1c3,0,6,0.3,9,1.1c3,0.8,6,1.6,8.8,2.4c2.9,0.9,5.9,1.6,8.8,2.3
					c3,0.7,6.1,1,9.3,1c2.8,0,5.3-0.5,7.3-1.6c2.1-1,3.8-2.2,5.4-3.6c1.5-1.3,2.9-2.5,4.1-3.6c1.2-1,2.4-1.6,3.6-1.6
					c1,0,1.8,0.3,2.7,1.1c0.9,0.8,1.3,1.6,1.3,2.8c0,0.8-0.3,1.4-0.9,2c-3.2,3.6-6.5,7-9.9,10.3c-3.4,3.3-6.7,6.7-9.9,10.3
					c-5.5,6-10.6,12-15.5,18.2c-4.9,6.1-9.8,12.3-14.6,18.7c-8.4,11.3-16.8,22.4-25,33.2c-8.2,10.9-16.1,22.3-23.7,34.1
					c-0.3,0.6-1,1.6-2.1,3.4c-1,1.6-2.2,3.5-3.4,5.2c-1.2,1.8-2.4,3.4-3.6,4.8s-2,2.1-2.5,2.1h-0.5c-5.5-1.3-11.6-2-18.5-2
					c-4.2,0-8.1,0.3-12.1,0.9c-1,0.2-1.9,0.3-2.9,0.6c-1,0.2-2,0.3-2.9,0.3c-1.9,0-2.8-0.8-2.8-2.3c0-0.5,0.3-1.1,0.9-1.6L333,120.4
					c-3.9,1.9-8.1,2.8-12.7,2.8c-3.7,0-7.2-0.5-10.3-1.6c-3.1-1-6.1-2.1-9-3.2c-2.9-1.1-5.9-2.2-8.8-3.2c-3-1-6.2-1.6-9.5-1.6
					c-4.2,0-7.4,0.8-9.7,2.3s-4.2,3.1-5.8,4.8c-1.5,1.6-2.8,3.3-3.8,4.8c-1,1.5-2.1,2.3-3.2,2.3c-2.3,0-3.4-1.3-3.4-3.9
					c0-2.4,1.8-5.8,5.5-10c3.6-4.2,7.9-8.4,12.8-12.6c4.9-4.2,9.7-7.6,14.4-10.6c4.7-2.9,8.1-4.3,10.4-4.3c1,0,1.8,0.3,2.7,0.7
					s1.3,1.2,1.3,2.1v0.3H303.6z"/>
			</g>
		</g>
	</g>
	<g>
		<g>
			<path class="st1" d="M249.8,261.2c0-0.5,0.1-0.8,0.1-1.4c0.2-2.8-0.3-3.8-2.3-4c-0.3,0-0.6,0-1-0.1c-0.2,3.6-0.3,5.3-0.5,8.8
				c0.3,0,0.4,0,0.8,0.1C248.9,264.8,249.6,263.6,249.8,261.2z"/>
		</g>
		<g>
			<path class="st1" d="M261,269c2.1,0.2,3.1,0.3,5.3,0.4c-0.7-3.1-1.1-4.7-1.9-7.7C263,264.7,262.3,266.2,261,269z"/>
		</g>
		<g>
			<path class="st1" d="M153.9,265.7c-0.5-5.9-1-8.8-4.5-8.4c-3.6,0.3-3.6,3.4-2.9,9.3c0.1,0.9,0.1,1.2,0.2,2.1
				c0.5,5.4,1.2,8.4,4.6,8.1c3.2-0.3,3.4-3.1,2.9-8.8C154.1,267,154,266.5,153.9,265.7z"/>
		</g>
		<g>
			<path class="st1" d="M246.7,265.2c-0.3,0-0.4,0-0.7,0c-0.3,3.8-0.3,5.8-0.6,9.6c0.5,0,0.8,0.1,1.4,0.1c2.3,0.2,2.9-1.5,3.1-4.2
				c0-0.6,0.1-1,0.1-1.6C250.2,266.9,249.6,265.4,246.7,265.2z"/>
		</g>
		<g>
			<polygon class="st1" points="134.5,309.1 134.5,293.2 109.9,296.4 			"/>
		</g>
		<g>
			<polygon class="st1" points="106.1,272.2 70.8,272.9 87,291.7 70.8,310.6 133,310.6 108.4,298 			"/>
		</g>
		<g>
			<polygon class="st1" points="282.9,292.7 282.9,309.1 307.5,296.4 			"/>
		</g>
		<g>
			<path class="st1" d="M286.6,259.5c-0.3-0.1-0.6-0.1-1-0.1c-0.4,3.6-0.6,5.3-1,8.8c0.3,0.1,0.5,0.1,1,0.1c2.2,0.3,3.4-0.8,3.8-3.8
				c0.1-0.3,0.1-0.5,0.1-0.9C289.9,260.4,288.7,259.8,286.6,259.5z"/>
		</g>
		<g>
			<path class="st1" d="M307.5,294.2c1.2-8.3,2.3-16.6,3.6-24.9c0.9-6.2,1.8-12.6,2.7-18.8c-69.5-9.9-140.2-9.9-209.7,0
				c2.1,14.6,4.2,29.1,6.2,43.7c59.7-8.5,120.3-9.3,180.2-2.3C296.2,292.6,301.8,293.4,307.5,294.2z M139.1,278.2
				c-0.3-0.3-0.3-0.5-0.9-0.5c-1,0.1-2.4,1.2-5.6,1.6c-6.1,0.8-10.2-1.9-11.2-8.7c-1-6.9,2.6-11.2,8.7-11.9c3.1-0.3,4.6,0.3,5.6,0.2
				c0.4-0.1,0.6-0.3,0.7-0.7c0.2,0,0.2,0,0.3,0c0.3,2.4,0.6,3.7,1,6.2c-0.2,0-0.3,0-0.5,0.1c-2-3.3-4.1-5.5-6.7-5.2
				c-2.9,0.3-4.2,3.2-3.5,9.1c0.1,0.9,0.2,1.4,0.3,2.3c0.7,5.3,2.7,8.4,5.8,8.1c2.3-0.3,3.9-2.9,5.1-6.8c0.2,0,0.3,0,0.5-0.1
				c0.2,2.6,0.3,3.8,0.5,6.4C139.3,278.2,139.2,278.2,139.1,278.2z M151.3,277.3c-6.4,0.6-9.9-2.7-10.6-9c-0.7-6.6,2.3-11,9-11.7
				c6.4-0.6,10,2.9,10.4,9.4C160.6,272.5,157.8,276.7,151.3,277.3z M176.7,261c-1.6-4.1-3.3-5.2-7.1-4.9c-0.3,0-0.5,0-0.9,0.1
				c0.3,3.7,0.3,5.6,0.6,9.4c0.5,0,0.8-0.1,1.3-0.1c1.9-0.1,3-1.6,3.4-4c0.2,0,0.3,0,0.4,0c0.2,3.4,0.3,5.1,0.4,8.5
				c-0.2,0-0.3,0-0.5,0c-0.8-2.9-1.9-3.9-3.8-3.8c-0.5,0-0.8,0.1-1.3,0.1c0.3,3.5,0.3,5.3,0.5,8.8c1.4-0.1,2.2-0.2,3.6-0.2
				c0,0.3,0,0.3,0,0.6c-4.3,0.3-6.5,0.4-10.9,0.7c0-0.3,0-0.3-0.1-0.6c0.7-0.1,1-0.1,1.7-0.1c-0.5-7.5-0.9-11.3-1.4-18.8
				c-0.7,0.1-1,0.1-1.7,0.2c0-0.3,0-0.3-0.1-0.6c6.2-0.4,9.3-0.7,15.4-1c0.3,2.3,0.3,3.6,0.6,6C177,261,176.9,261,176.7,261z
				 M194.2,260.3c-1.6-4.1-3.1-5.3-6.9-5.1c-0.3,0-0.5,0-0.9,0c0.2,3.7,0.2,5.6,0.3,9.4c0.5,0,0.8,0,1.3-0.1
				c1.9-0.1,3.1-1.6,3.6-3.9c0.2,0,0.3,0,0.4,0c0.1,3.4,0.2,5.1,0.3,8.5c-0.2,0-0.3,0-0.5,0c-0.7-2.9-1.8-4-3.7-3.9
				c-0.5,0-0.8,0-1.3,0.1c0.1,3.5,0.2,5.3,0.3,8.8c1.5-0.1,2.2-0.1,3.6-0.1c0,0.3,0,0.3,0,0.6c-4.3,0.2-6.5,0.3-10.9,0.4
				c0-0.3,0-0.3,0-0.6c0.7,0,1-0.1,1.7-0.1c-0.3-7.5-0.5-11.3-0.9-18.8c-0.7,0-1,0.1-1.7,0.1c0-0.3,0-0.3,0-0.6
				c6.2-0.3,9.3-0.4,15.5-0.5c0.2,2.4,0.3,3.6,0.4,6C194.4,260.3,194.3,260.3,194.2,260.3z M212.6,274.3c-6.3,0-9.5,0-15.9,0.1
				c0-0.3,0-0.3,0-0.6c0.7,0,1,0,1.7,0c-0.2-7.5-0.2-11.4-0.3-18.9c-0.7,0-1,0-1.7,0c0-0.3,0-0.3,0-0.6c6.2-0.1,9.3-0.2,15.5-0.1
				c0.1,2.3,0.2,3.4,0.3,5.7c-0.2,0-0.3,0-0.5,0c-1.6-3.8-3-5.1-6.6-5c-0.4,0-0.6,0-1,0c0,3.6,0.1,5.3,0.1,8.8c0.4,0,0.6,0,1,0
				c1.9,0,3.1-1.6,3.6-3.8c0.2,0,0.3,0,0.4,0c0,3.4,0,5.1,0,8.5c-0.2,0-0.3,0-0.5,0c-0.7-2.9-1.8-4-3.9-4c-0.3,0-0.4,0-0.7,0
				c0,3.7,0.1,5.5,0.1,9.3c0.4,0,0.7,0,1.1,0c3.6,0,6.2-2.5,7.1-5.6c0.3,0,0.3,0,0.6,0C212.8,270.5,212.7,271.8,212.6,274.3z
				 M230.6,274.7c-6.3-0.3-9.5-0.3-15.9-0.3c0-0.3,0-0.3,0-0.6c0.7,0,1,0,1.7,0c0.1-7.5,0.2-11.4,0.3-18.9c-0.7,0-1,0-1.7,0
				c0-0.3,0-0.3,0-0.6c6.2,0.1,9.3,0.1,15.5,0.3c0,2.3,0.1,3.4,0.1,5.7c-0.2,0-0.3,0-0.5,0c-1.5-3.8-2.9-5.2-6.5-5.2
				c-0.4,0-0.6,0-1,0c-0.1,3.6-0.1,5.3-0.2,8.8c0.4,0,0.6,0,1,0c1.9,0,3.2-1.5,3.7-3.6c0.2,0,0.3,0,0.4,0c-0.1,3.4-0.2,5.1-0.3,8.5
				c-0.2,0-0.3,0-0.5,0c-0.6-2.9-1.7-4.1-3.7-4.1c-0.3,0-0.4,0-0.7,0c-0.1,3.7-0.1,5.5-0.2,9.2c0.4,0,0.7,0,1.1,0
				c3.6,0.1,6.2-2.3,7.3-5.5c0.3,0,0.3,0,0.6,0C230.8,270.9,230.7,272.2,230.6,274.7z M246.4,275.5c-3.4-0.2-5.1-0.3-8.5-0.4
				c0-0.3,0-0.3,0-0.5c0.8,0,1.1,0.1,1.9,0.1c0.3-7.6,0.6-11.4,1-19c-0.8,0-1.1-0.1-1.9-0.1c0-0.3,0-0.3,0-0.5
				c3.6,0.2,5.4,0.3,8.9,0.5c5.2,0.3,8.1,1.7,7.9,5.3c-0.2,2.8-2.1,4.1-5.2,4.3c0,0,0,0,0,0.1c3.6,0.7,5.7,2.4,5.5,5.4
				C255.6,274.8,251.8,275.7,246.4,275.5z M275.2,277.9c-3.7-0.4-5.6-0.6-9.4-1c0-0.2,0-0.3,0.1-0.5c0.8,0.1,1.2,0.1,2.1,0.2
				c-0.6-2.5-0.9-3.8-1.6-6.4c-2.3-0.2-3.5-0.3-5.7-0.5c-1.1,2.4-1.6,3.6-2.8,6c0.9,0.1,1.3,0.1,2.2,0.2c0,0.3,0,0.3-0.1,0.5
				c-1.7-0.2-2.6-0.3-4.4-0.3c0-0.3,0-0.3,0-0.5c0.5,0,0.8,0.1,1.4,0.1c3.6-7.6,5.4-11.4,9.1-19.1c1,0.1,1.5,0.2,2.4,0.3
				c2.3,8.1,3.3,12.2,5.4,20.4c0.5,0.1,0.8,0.1,1.3,0.2C275.3,277.5,275.3,277.6,275.2,277.9z M287.4,274.3c0.1-0.9,0.2-1.2,0.3-2.1
				c0.3-2,0-3.1-1.6-3.3c-0.6-0.1-1-0.1-1.6-0.2c-0.4,3.8-0.7,5.7-1.2,9.5c0.8,0.1,1.1,0.2,1.9,0.3c0,0.2,0,0.3-0.1,0.5
				c-3.7-0.4-5.5-0.7-9.4-1.1c0-0.3,0-0.3,0.1-0.5c0.8,0.1,1.1,0.1,1.9,0.2c0.9-7.5,1.3-11.4,2.2-18.9c-0.8-0.1-1.1-0.1-1.9-0.2
				c0-0.3,0-0.3,0.1-0.5c3.6,0.4,5.4,0.6,8.9,1c6.2,0.8,9,1.8,8.5,6c-0.5,3.5-2.5,4.2-5.6,4.1v0.1c3.1,0.8,4,2.2,3.6,5.5
				c-0.1,0.6-0.1,0.9-0.2,1.5c-0.3,1.8-0.3,2.5,0.5,2.6c0.5,0.1,1-0.1,1.6-2.3c0.2,0.1,0.3,0.1,0.5,0.1c-0.9,3.2-1.8,3.9-4.5,3.6
				C287.8,279.6,286.9,278.3,287.4,274.3z"/>
		</g>
		<g>
			<polygon class="st1" points="347.3,272.9 311.4,272.9 309.8,298 285.2,310.6 347.3,310.6 331.1,291.7 			"/>
		</g>
	</g>
	<g>
		<path class="st1" d="M125.6,347c-0.3,0.3-0.7,0.6-1.1,0.9l-2.4-2.6l-1.9,1.8l3.2,3.4c-0.3,0.4-0.6,0.8-0.9,1
			c-0.3,0.3-0.7,0.6-1.1,0.9l-5.5-5.7l9.5-9.1l5.4,5.6c-0.2,0.3-0.3,0.4-0.4,0.6c-0.2,0.2-0.3,0.3-0.4,0.5c-0.3,0.3-0.7,0.6-1.1,0.9
			l-3.1-3.3l-1.5,1.4l2.4,2.6C126.2,346.4,125.9,346.7,125.6,347z"/>
		<path class="st1" d="M134.5,353.2c0.3,0.5,0.5,1,0.7,1.4s0.3,0.9,0.3,1.3c0,0.4,0,0.9-0.2,1.3c-0.2,0.4-0.4,0.9-0.8,1.4
			c-0.4,0.5-0.9,0.9-1.4,1.1c-0.5,0.3-1,0.4-1.6,0.4c-0.6,0-1.2-0.1-1.8-0.3c-0.6-0.3-1.3-0.6-1.9-1.1s-1-1-1.5-1.4
			c-0.3-0.4-0.8-1-1.1-1.6c0.3-0.3,0.7-0.6,1-0.9c0.3-0.3,0.8-0.6,1.3-0.9c0.6,1.1,1.2,1.9,1.8,2.4c0.5,0.4,1,0.6,1.3,0.7
			c0.4,0.1,0.7-0.1,1-0.4c0.1-0.2,0.2-0.3,0.3-0.4c0-0.2,0-0.3,0-0.4c0-0.2-0.1-0.3-0.2-0.4c-0.1-0.2-0.2-0.3-0.3-0.4l-0.6-1
			c-0.3-0.4-0.4-0.8-0.6-1.2s-0.3-0.8-0.3-1.2s0.1-0.8,0.2-1.2c0.2-0.4,0.3-0.8,0.7-1.2c0.4-0.5,0.9-0.9,1.3-1.1
			c0.5-0.3,1-0.3,1.6-0.4c0.5,0,1,0.1,1.6,0.3c0.5,0.3,1.1,0.5,1.6,1c0.5,0.4,1,0.8,1.3,1.3c0.3,0.4,0.8,1,1.1,1.6
			c-0.3,0.3-0.6,0.5-1,0.9c-0.4,0.3-0.8,0.5-1.2,0.7c-0.2-0.3-0.3-0.7-0.6-1c-0.3-0.3-0.6-0.8-1.1-1.2c-0.2-0.1-0.3-0.3-0.4-0.3
			c-0.2-0.1-0.3-0.2-0.5-0.2c-0.2,0-0.3,0-0.4,0c-0.2,0.1-0.3,0.2-0.4,0.3c-0.3,0.3-0.3,0.5-0.3,0.9c0.1,0.3,0.2,0.6,0.3,0.9
			L134.5,353.2z"/>
		<path class="st1" d="M143.8,357l-2.6-1.6c0.2-0.5,0.3-1,0.6-1.3c0.2-0.3,0.5-0.7,0.9-1.1l8.1,4.9c-0.1,0.3-0.2,0.5-0.3,0.7
			c-0.1,0.2-0.2,0.4-0.3,0.6c-0.2,0.3-0.5,0.7-0.9,1.1l-2.6-1.6l-5.4,8.8c-0.6-0.3-1.1-0.5-1.5-0.7c-0.3-0.3-0.9-0.6-1.3-1
			L143.8,357z"/>
		<path class="st1" d="M148.9,371.7c-0.3-0.1-0.5-0.2-0.8-0.3c-0.3-0.1-0.4-0.2-0.6-0.3c-0.2-0.1-0.4-0.2-0.7-0.3
			c-0.3-0.2-0.5-0.3-0.8-0.5l9.3-10.1c0.3,0.1,0.6,0.2,0.9,0.3c0.3,0.1,0.5,0.2,0.8,0.3c0.2,0.1,0.4,0.3,0.7,0.3
			c0.3,0.2,0.5,0.3,0.9,0.5l-1.8,13.6c-0.7-0.2-1.3-0.4-1.7-0.6c-0.3-0.1-0.4-0.3-0.7-0.3c-0.2-0.1-0.4-0.3-0.7-0.4l0.4-2.6
			c-0.3-0.1-0.7-0.1-1-0.3c-0.3-0.1-0.6-0.2-0.9-0.3c-0.3-0.1-0.5-0.3-0.8-0.4c-0.3-0.2-0.5-0.3-0.8-0.6L148.9,371.7z M155.3,364
			l-3.1,3.7c0.2,0.2,0.3,0.3,0.4,0.3c0.2,0.1,0.3,0.2,0.5,0.3c0.2,0.1,0.3,0.2,0.6,0.3c0.2,0.1,0.4,0.1,0.6,0.2L155.3,364z"/>
		<path class="st1" d="M171.3,376.3c-0.3,0.8-0.6,1.4-1,1.7c-0.4,0.4-1,0.7-1.6,0.8c-0.6,0.2-1.2,0.2-2,0c-0.7-0.1-1.5-0.3-2.3-0.5
			c-0.6-0.2-1.2-0.4-1.6-0.6c-0.5-0.2-1-0.4-1.6-0.7l4-12.5c0.4,0.1,1,0.2,1.5,0.3c0.5,0.1,1.1,0.3,1.9,0.5c0.7,0.2,1.3,0.4,1.8,0.8
			c0.5,0.3,1,0.7,1.3,1c0.3,0.4,0.6,0.9,0.7,1.4c0.1,0.5,0.1,1.1-0.2,1.8c-0.2,0.5-0.4,1-0.9,1.4c-0.3,0.3-0.8,0.6-1.3,0.8
			c0.3,0.2,0.4,0.4,0.7,0.7c0.2,0.3,0.3,0.5,0.4,0.9c0.1,0.3,0.2,0.7,0.2,1C171.5,375.4,171.5,375.8,171.3,376.3z M166,372.8l-1,2.9
			c0.1,0,0.2,0.1,0.3,0.1c0.1,0.1,0.3,0.1,0.5,0.2c0.3,0.1,0.4,0.1,0.7,0.2c0.3,0,0.4,0,0.7,0c0.3-0.1,0.4-0.2,0.6-0.3
			s0.3-0.3,0.4-0.7c0.2-0.5,0.1-1-0.2-1.4c-0.3-0.3-0.8-0.6-1.3-0.8L166,372.8z M166.8,370.3l0.5,0.2c0.5,0.2,1,0.2,1.3,0.1
			c0.3-0.1,0.6-0.4,0.8-1c0.1-0.3,0.1-0.4,0.1-0.7c-0.1-0.2-0.2-0.3-0.3-0.5c-0.1-0.2-0.3-0.3-0.4-0.3c-0.2-0.1-0.3-0.2-0.5-0.3
			c-0.1,0-0.2-0.1-0.3-0.1s-0.2-0.1-0.3-0.1L166.8,370.3z"/>
		<path class="st1" d="M178,368.4c0.3,0,0.6,0.1,0.9,0.1c0.3,0,0.5,0.1,0.7,0.1c0.2,0.1,0.4,0.1,0.7,0.2c0.3,0.1,0.5,0.2,0.9,0.3
			l-2.2,10.1l4.2,1c0,0.3,0,0.6-0.1,0.8c0,0.3-0.1,0.4-0.1,0.6c-0.1,0.2-0.1,0.4-0.2,0.6c-0.1,0.3-0.2,0.4-0.3,0.8l-7.4-1.6
			L178,368.4z"/>
		<path class="st1" d="M189,384.1c-0.4-0.1-1-0.2-1.6-0.4l1.8-13c0.3,0,0.6,0,0.9,0c0.3,0,0.5,0,0.7,0.1c0.3,0,0.4,0.1,0.7,0.2
			c0.3,0.1,0.5,0.2,0.9,0.3l-1.8,13C189.9,384.1,189.4,384.1,189,384.1z"/>
		<path class="st1" d="M201.8,377.2c0.5,0.3,1,0.5,1.3,0.8c0.4,0.3,0.7,0.5,1,0.9c0.3,0.3,0.4,0.7,0.6,1.1c0.1,0.4,0.2,1,0.1,1.6
			s-0.2,1.2-0.4,1.7c-0.3,0.5-0.6,1-1.1,1.2c-0.4,0.3-1,0.6-1.7,0.7c-0.7,0.2-1.4,0.2-2.3,0.1c-0.8-0.1-1.4-0.2-2-0.3
			c-0.6-0.2-1.2-0.4-1.8-0.7c0.1-0.4,0.2-0.9,0.3-1.4c0.2-0.4,0.3-1,0.5-1.5c1.1,0.6,2.1,0.9,2.9,1c0.6,0.1,1.1,0,1.5-0.2
			c0.3-0.2,0.5-0.4,0.6-1c0-0.2,0-0.3-0.1-0.5c-0.1-0.2-0.2-0.3-0.3-0.3s-0.3-0.2-0.4-0.3c-0.2-0.1-0.3-0.2-0.4-0.3l-1-0.4
			c-0.4-0.2-0.8-0.4-1.1-0.7s-0.6-0.5-0.9-0.9c-0.3-0.3-0.4-0.7-0.5-1.1c-0.1-0.4-0.2-0.9-0.1-1.4c0.1-0.6,0.2-1.2,0.4-1.7
			c0.3-0.5,0.6-0.9,1-1.2c0.4-0.3,1-0.5,1.5-0.7c0.6-0.1,1.2-0.2,1.9-0.1c0.6,0.1,1.2,0.2,1.8,0.3c0.6,0.2,1.2,0.4,1.8,0.7
			c-0.1,0.3-0.2,0.8-0.3,1.3c-0.2,0.4-0.3,0.9-0.6,1.3c-0.3-0.2-0.7-0.3-1.1-0.5c-0.4-0.2-1-0.3-1.6-0.3c-0.2,0-0.3,0-0.6,0
			c-0.2,0-0.3,0.1-0.5,0.2c-0.2,0.1-0.3,0.2-0.3,0.3c-0.1,0.1-0.2,0.3-0.2,0.5c0,0.3,0.1,0.6,0.3,0.8c0.3,0.2,0.5,0.3,0.8,0.5
			L201.8,377.2z"/>
		<path class="st1" d="M218.4,385.5c-0.4,0-1,0-1.6-0.1l-0.3-5.4l-3.3,0.2l0.3,5.4c-0.6,0.2-1.2,0.3-1.6,0.3s-1,0-1.6-0.1l-1-13.1
			c0.3-0.1,0.6-0.1,0.9-0.2c0.3,0,0.5-0.1,0.7-0.1c0.3,0,0.4,0,0.8,0c0.3,0,0.6,0,0.9,0.1l0.3,4.9l3.3-0.2l-0.3-4.9
			c0.3-0.1,0.6-0.1,0.9-0.2c0.3,0,0.5-0.1,0.7-0.1c0.3,0,0.4,0,0.8,0c0.3,0,0.6,0,0.9,0.1l1,13.1
			C219.5,385.4,218.9,385.5,218.4,385.5z"/>
		<path class="st1" d="M231.4,376.5c0.1,0.4,0.1,0.9,0.1,1.5l-3.5,0.6l0.4,2.6l4.5-0.8c0.2,0.5,0.3,1,0.4,1.4c0.1,0.4,0.1,1,0.1,1.5
			l-7.8,1.4l-2.3-13l7.6-1.3c0.1,0.3,0.2,0.5,0.3,0.7c0.1,0.3,0.1,0.4,0.2,0.6c0.1,0.4,0.1,0.9,0.1,1.5l-4.4,0.8l0.3,2l3.5-0.6
			C231.3,375.6,231.4,376.1,231.4,376.5z"/>
		<path class="st1" d="M238.7,368.1c2.3-0.6,4.1-0.5,5.5,0.3c1.5,0.8,2.5,2.3,3.1,4.5c0.6,2.3,0.5,4.1-0.3,5.5
			c-0.9,1.4-2.5,2.4-4.8,3c-0.6,0.2-1.1,0.3-1.7,0.4c-0.6,0.1-1.1,0.2-1.6,0.3l-3.6-12.7c0.2-0.1,0.3-0.2,0.7-0.3
			c0.3-0.1,0.5-0.2,0.9-0.3c0.3-0.1,0.6-0.3,1-0.3C238,368.3,238.4,368.2,238.7,368.1z M241.2,378.6c0.1,0,0.2,0,0.3-0.1
			c0.1,0,0.3-0.1,0.3-0.1c0.4-0.1,0.9-0.3,1.2-0.5c0.3-0.3,0.7-0.5,0.9-0.9c0.2-0.3,0.3-0.8,0.3-1.4c0-0.5-0.1-1.2-0.3-1.9
			c-0.2-0.8-0.5-1.3-0.8-1.8c-0.3-0.4-0.7-0.8-1-1s-0.8-0.3-1.2-0.3s-0.9,0-1.3,0.2c-0.3,0.1-0.4,0.1-0.5,0.2
			c-0.1,0-0.2,0.1-0.2,0.1L241.2,378.6z"/>
		<path class="st1" d="M260.6,375l-0.4-0.4l1.1-5.3c0.2-1,0.3-1.6,0.3-2.3c0-0.6,0-1-0.2-1.5c-0.2-0.3-0.4-0.6-0.8-0.7
			c-0.3-0.1-0.8,0-1.2,0.2s-0.8,0.4-1,0.8c-0.3,0.3-0.5,0.6-0.8,1c-0.3-0.3-0.7-0.6-1-1c-0.3-0.3-0.6-0.7-0.8-1.1
			c0.3-0.3,0.7-0.8,1.1-1.2s1-0.8,1.7-1.1c0.6-0.3,1.1-0.4,1.6-0.5c0.5-0.1,1-0.1,1.6,0c0.5,0.1,1,0.3,1.3,0.6
			c0.4,0.3,0.7,0.8,1,1.3c0.2,0.4,0.3,0.8,0.3,1.2c0.1,0.4,0.1,0.8,0.1,1.2s0,0.8-0.1,1.1c-0.1,0.3-0.1,0.8-0.2,1.1l-0.3,1.7
			l2.9-1.3c0.3,0.4,0.5,0.8,0.7,1.1c0.2,0.4,0.3,0.9,0.4,1.4L260.6,375z"/>
		<path class="st1" d="M270.5,356.1c0.7-0.4,1.4-0.7,2.1-0.7c0.7,0,1.3,0.1,2,0.3c0.6,0.3,1.2,0.7,1.7,1.2c0.5,0.5,1,1.2,1.5,2
			c0.4,0.8,0.8,1.5,1,2.3c0.3,0.8,0.3,1.5,0.3,2.2c-0.1,0.7-0.3,1.3-0.6,1.9c-0.3,0.6-0.9,1.1-1.6,1.5c-0.7,0.4-1.4,0.7-2.1,0.7
			s-1.3-0.1-1.9-0.3c-0.6-0.3-1.2-0.7-1.7-1.2c-0.5-0.5-1-1.2-1.5-2c-0.4-0.8-0.8-1.5-1-2.3c-0.3-0.8-0.3-1.5-0.3-2.2
			c0.1-0.7,0.3-1.3,0.6-1.9C269.3,357.1,269.8,356.6,270.5,356.1z M271.9,358.6c-0.4,0.3-0.6,0.7-0.5,1.3s0.4,1.5,1,2.4
			c0.6,1,1.1,1.6,1.7,2c0.5,0.3,1,0.4,1.4,0.2c0.4-0.3,0.6-0.7,0.5-1.3c-0.1-0.6-0.4-1.5-1-2.4c-0.6-1-1.1-1.6-1.7-2
			S272.3,358.3,271.9,358.6z"/>
		<path class="st1" d="M281.5,354.8c-0.2-0.1-0.3-0.2-0.6-0.3c-0.2-0.1-0.4-0.2-0.6-0.3c-0.2-0.1-0.4-0.3-0.6-0.3
			c-0.2-0.2-0.3-0.3-0.5-0.4l2.9-5.1l0.6-0.5l5.7,7.4l1.8-1.5c0.3,0.3,0.7,0.6,1,1c0.3,0.3,0.5,0.8,0.7,1.2l-6.2,4.9
			c-0.3-0.3-0.7-0.6-1-1c-0.3-0.3-0.5-0.7-0.7-1.2l1.9-1.5l-3.2-4.2L281.5,354.8z"/>
		<path class="st1" d="M292.5,338.8c0.4,0.3,0.8,0.6,1,0.9c0.3,0.3,0.6,0.7,0.9,1.1l-2.8,2.8l1.3,1.4c0.1-0.1,0.1-0.2,0.2-0.3
			c0.1-0.1,0.2-0.2,0.3-0.3c0.4-0.4,0.9-0.8,1.4-1c0.5-0.3,1-0.3,1.5-0.3s1,0.1,1.5,0.3c0.5,0.2,1,0.5,1.4,1c0.5,0.5,1,1.1,1.1,1.7
			c0.3,0.6,0.3,1.2,0.3,1.8c-0.1,0.6-0.3,1.2-0.6,1.9c-0.3,0.6-0.8,1.2-1.4,1.8c-0.1,0.1-0.3,0.3-0.4,0.4c-0.2,0.2-0.4,0.3-0.6,0.5
			c-0.3,0.2-0.5,0.3-0.8,0.5s-0.6,0.3-0.9,0.4c-0.2-0.2-0.3-0.3-0.4-0.6c-0.2-0.3-0.3-0.4-0.3-0.7c-0.1-0.3-0.3-0.4-0.3-0.6
			c-0.1-0.2-0.2-0.4-0.3-0.6c0.4-0.2,0.9-0.4,1.2-0.6c0.3-0.2,0.6-0.4,0.9-0.7c0.3-0.3,0.5-0.6,0.7-0.9s0.3-0.5,0.3-0.8
			c0-0.3,0-0.4-0.1-0.7c-0.1-0.2-0.2-0.3-0.3-0.5c-0.3-0.3-0.7-0.5-1.1-0.4c-0.4,0-0.9,0.3-1.4,0.8c-0.2,0.2-0.4,0.4-0.6,0.8
			c-0.2,0.3-0.3,0.6-0.5,1l-0.5,0.1l-5-5.4L292.5,338.8z"/>
	</g>
	<g>
		<g>
			<path class="st1" d="M280.9,321.9h-38.8c-0.3,0-0.7-0.3-0.7-0.7c0-0.3,0.3-0.7,0.7-0.7h38.8c0.3,0,0.7,0.3,0.7,0.7
				C281.6,321.6,281.4,321.9,280.9,321.9z"/>
		</g>
		<g>
			<path class="st1" d="M268.3,335.5h-26.1c-0.3,0-0.7-0.3-0.7-0.7c0-0.3,0.3-0.7,0.7-0.7h26.1c0.3,0,0.7,0.3,0.7,0.7
				C268.9,335.3,268.6,335.5,268.3,335.5z"/>
		</g>
	</g>
	<g>
		<g>
			<path class="st1" d="M173.4,321.9h-38.8c-0.3,0-0.7-0.3-0.7-0.7c0-0.3,0.3-0.7,0.7-0.7h38.8c0.3,0,0.7,0.3,0.7,0.7
				C174.1,321.6,173.8,321.9,173.4,321.9z"/>
		</g>
		<g>
			<path class="st1" d="M173.4,335.5h-26.1c-0.3,0-0.7-0.3-0.7-0.7c0-0.3,0.3-0.7,0.7-0.7h26.1c0.3,0,0.7,0.3,0.7,0.7
				S173.8,335.5,173.4,335.5z"/>
		</g>
	</g>
	<g>
		<g>
			<g>
				<g>
					<path class="st1" d="M208.4,355.5c-15.9,0-28.8-12.9-28.8-28.8c0-15.9,12.9-28.8,28.8-28.8s28.8,12.9,28.8,28.8
						S224.2,355.5,208.4,355.5z M208.4,298.9c-15.3,0-27.9,12.5-27.9,27.9c0,15.3,12.5,27.9,27.9,27.9c15.3,0,27.9-12.5,27.9-27.9
						C236.3,311.3,223.8,298.9,208.4,298.9z"/>
				</g>
			</g>
			<g>
				<g>
					<path class="st1" d="M208.4,353.5c-14.8,0-26.8-12-26.8-26.8c0-14.8,12-26.8,26.8-26.8s26.8,12,26.8,26.8
						C235.2,341.5,223.2,353.5,208.4,353.5z M208.4,300.3c-14.6,0-26.3,11.9-26.3,26.3c0,14.6,11.8,26.3,26.3,26.3
						s26.3-11.8,26.3-26.3C234.7,312.2,222.9,300.3,208.4,300.3z"/>
				</g>
			</g>
		</g>
	</g>
	<g>
		<g>
			<path class="st1" d="M211.6,319.4c1.3-1.3,2.8-2.4,4.5-3.1c0.7-0.3,1.6-0.3,1.1-1c-0.3-0.4-1-0.7-1.5-0.9
				c-4.8-2-11.1-0.4-15.8,4.2c-4.9,4.9-6.5,11.7-3.8,16.5c0.9,1.5,1.6,2.2,3.4,1.5c0.7-0.3,1.4-0.7,2.1-1.1c0.4-0.3,0.9-0.7,1.3-1.1
				c1.7-1.6,2.9-3.7,3.6-5.9C207.6,324.9,209.2,321.8,211.6,319.4z M221.6,321.4c-0.2-1-0.5-2.4-1.6-2.7c-0.8-0.3-1.9,0.2-2.6,0.5
				c-1.3,0.5-2.4,1.4-3.5,2.4c-1.9,1.9-3.3,4.6-4.2,7.6c-0.8,2.6-2.3,5.1-4.3,7.2c-0.5,0.5-1,1-1.6,1.4c-0.4,0.3-1.5,0.6-1.7,1.1
				c-0.4,0.9,1.5,0.9,2.2,1c4.3,0.4,9.2-1.3,12.9-5C220.9,330.9,222.5,325.7,221.6,321.4z"/>
		</g>
	</g>
</g>
</svg>
