<?xml version="1.0" encoding="utf-8"?>
<!-- Generator: Adobe Illustrator 28.1.0, SVG Export Plug-In . SVG Version: 6.00 Build 0)  -->
<svg version="1.1" id="Layer_1" xmlns="http://www.w3.org/2000/svg" xmlns:xlink="http://www.w3.org/1999/xlink" x="0px" y="0px"
	 viewBox="0 0 1000 1000" style="enable-background:new 0 0 1000 1000;" xml:space="preserve">
<style type="text/css">
	.st0{fill:#BB2025;}
</style>
<g>
	<path class="st0" d="M848.8,670.4c-36.1-68.8-74.1-137.3-113.9-205.2c-2.5-4.4-8.2-7.5-13.8-7.5c-0.1,0-0.2,0-0.3,0
		c-54.7-2.2-110.3-3.9-164.1-4.6c-18.9-0.3-37.8-0.4-56.7-0.4c-74.9,0-149.9,1.8-224.8,5.4c-0.2,0.1-0.4,0.1-0.7,0.2
		c-4,1-7.5,3.6-9.4,6.9c-39.8,67.8-77.7,136.2-113.8,204.9c-2.9,5.5-1.2,12.7,3.8,16.5c119.1,89.7,231,184.1,335.5,282.5
		c2.5,2.4,6,3.6,9.4,3.6c1.2,0,2.3-0.2,3.4-0.5c0.1,0,0.2-0.1,0.3-0.1c1.9-0.4,3.4-1.3,5.5-3.1c0,0,0.1-0.1,0.1-0.1
		c104.5-98.4,216.4-192.8,335.5-282.5C849.8,682.9,851.5,675.8,848.8,670.4z M811.3,660.8c-49.7-3.5-99.4-6.1-149.2-7.9
		c19.9-49.7,40.4-99.2,61.5-148.6C754,556.2,783.2,608.4,811.3,660.8z M798.1,687.1C708,756.5,622.1,828.6,540.5,903
		c34.8-74.9,71.3-149.4,109.7-223.4C699.5,681.3,748.8,683.8,798.1,687.1z M528.5,479.9c57.1,0.4,114.2,1.8,171.2,4.2
		c-21.3,50.1-41.9,100.4-61.9,150.8C602.6,582.8,566.2,531.1,528.5,479.9z M618.7,678.7c-41.8,82-81.4,164.6-118.7,247.8
		c-37.4-83.1-76.9-165.7-118.7-247.8C460.4,676.6,539.6,676.6,618.7,678.7z M385.3,651.4c36.8-54.2,75.1-107.9,114.7-161.1
		c39.6,53.2,77.8,106.9,114.7,161.1C538.2,649.5,461.8,649.5,385.3,651.4z M349.7,679.6c38.4,74,75,148.5,109.7,223.4
		C377.9,828.6,292,756.5,201.9,687.1C251.2,683.8,300.4,681.3,349.7,679.6z M300.3,484.1c57-2.5,114.1-3.9,171.2-4.2
		c-37.7,51.2-74.1,102.9-109.2,155C342.2,584.5,321.6,534.2,300.3,484.1z M337.8,652.9c-49.8,1.8-99.5,4.4-149.2,7.9
		c28.1-52.4,57.4-104.6,87.7-156.5C297.4,553.7,317.9,603.2,337.8,652.9z"/>
	<g>
		<path class="st0" d="M461.1,455.7c2-0.1,3.9-0.2,5.9-0.3c-1.1-24.2-2.1-52.4-3.2-76.8c-2.2-0.1-4-0.1-6.5-0.2
			C458.7,403,459.9,431.3,461.1,455.7z"/>
		<path class="st0" d="M446.1,379.7c1.6,24.6,3.2,52.8,4.7,76c1.5-0.1,3-0.2,4.5-0.3c-0.6-9.7-1.1-22.7-1.7-32.3
			c-0.8-13.4-1.6-26.7-2.3-40.1C451,380.2,450.6,377.9,446.1,379.7z"/>
		<path class="st0" d="M663.8,266.1c10.3,1.7,19.9,3.4,30.4,5.4c-0.4,2.2-0.8,4.4-1.3,6.6c-8.7,44.7-17.4,89.5-26,134.2
			c-0.5,2.5-2.4,6.1,3.8,5.6c4.7-23.5,9.4-47,14.2-71c6.7,1.3,13,2.7,20,4.2c-5.7,25.8-11.5,51.6-17.4,78.3
			c18.1,3.3,35.4,7.1,53,11.5c0.4-1.3,0.7-2.5,1.1-3.8c-14.1-4.1-27.7-7.7-42-11.1c6.6-27.8,12.9-54.7,19.4-82
			c-7.4-1.7-14-3.2-21.3-4.8c5.3-24.8,10.4-49.1,15.5-73.4c-20.7-4.4-40.7-8-61.3-11c-3.7,24.9-7.3,49.4-11.1,74.6
			c-6.9-1-13.3-1.9-20.2-2.8c-3.1,24.8-6.2,49-9.3,73.4c-6-0.8-11.5-1.4-17.6-2c0.7-7,1.4-13.6,2.2-20.6c-16.4-1.7-32.2-3-48.7-3.8
			c0.9-18.3,1.8-36.2,2.7-54.1c-3.1-0.5-5.4-0.8-8.3-1.3c2.1-50.7,4.2-101,6.3-152c-8.1-0.3-15.6-0.6-23.6-0.7
			c0.1-2.8,0.1-4.9,0.1-7c0.4-19.2,0.7-38.4,1.2-57.6c0.1-3.5-0.8-6-5.9-8c-7.7-3.1-11.7-7.5-11.2-14.5c1.1-15.8,0.5-31.7,0.6-47.4
			c-6.6-1.7-7.2,0.5-7.2,3.5c0.1,10.9,0.1,21.7,0.1,32.6c0,5.5,0,11.1,0,16.5c-4.1,0.3-7,0.5-10.5,0.8c-0.2-19.2-0.4-38.2-0.5-57
			c-7.8-1.5-6.8,1.7-6.8,4.4c0.3,18,0.5,36,0.8,54c-6,0.9-11.3,1.7-17.2,2.6c0.7,24.2,1.4,48.2,2.2,72.8c-7.1,0.2-13.6,0.5-20.8,0.8
			c2.5,51.5,5,102.3,7.5,153.5c-3.9,0.2-7,0.4-10.8,0.6c0.9,15.2,1.8,30,2.7,45.4c-15.1,0.9-29.6,2.1-44.4,3.8
			c0.7,6.4,1.3,12.1,2,17.9c-3.5,0.4-6.6,0.7-10,1.2c-0.3-2.5-0.6-4.6-0.8-6.7c-4.1-33.5-8.1-67-12.3-100.5
			c-0.2-1.9-0.9-4.8-2.4-5.3c-6.8-2.3-14.1-5.4-21.3-5.1c-12.7,0.5-25.4,3.5-38.8,6c2.7,14.8,5.3,29,8,43.6
			c-7.1,1.3-13.4,2.6-20.5,4c7.4,35.8,14.7,71.2,22.2,107.4c-5.1,0.3-9.4,0.6-13.7,1c-4.6-20.6-9-40.5-13.6-60.4
			c-0.5-2.1-1.5-5-3.3-5.6c-6.5-2.4-8.4-7-9.1-12.6c-0.2-1.8-0.8-3.6-1.2-5.2c-16.9,3.9-32.6,8.1-48.9,12.8
			c10.6,36.5,21.2,73,31.8,109.5c5.6-1.6,11.2-3.2,16.9-4.7c1.4,5.1,2.7,10.1,4.1,15.4c3.1-0.8,6.3-1.7,9.4-2.5
			c-2.1-8.2-4.1-16.2-6.3-24.6c-5.9,1.5-11.3,2.9-17.2,4.6c-8.4-30.4-16.8-60.3-25.2-90.6c7.8-2.2,15.6-4.2,23.9-6.3
			c0.4,1,1.1,2.1,1.4,3.4c9.2,37.1,18.5,74.1,27.7,111.2c0.1,0.4,0.2,0.8,0.3,1.2c1.7-0.4,3.3-0.8,5-1.2
			c-8.5-35.1-17-70.2-25.5-105.4c0.5-0.3,1-0.6,1.6-0.9c1.7,2.4,4.1,4.6,4.8,7.2c6.3,25.8,12.3,51.6,18.4,77.5
			c0.6,2.4,1.1,4.9,1.9,7.9c15-4.2,29.9-8,45.2-11.4c0.9,5.1,1.8,9.9,2.6,14.8c3.7-0.7,7.5-1.3,11.2-1.9c-3.4-20.6-6.7-41-10-61.6
			c14.6-2.4,29.2-4.4,44.5-6.1c2.3,20.4,4.5,41.1,6.8,62c3.1-0.3,6.3-0.7,9.4-1c-2.6-26.7-5.3-53.4-8-81c2.5-0.2,4.5-0.4,6.6-0.6
			c14-1.3,28-2.2,42-2.8c1.1,0,2.2-0.2,3.2-0.1c10,0.5,11.9,2.3,12.1,11.2c0.6,23.2,1.5,52.1,2.1,75.4c3.2-0.1,6.5-0.2,9.7-0.2
			c0-1.7-0.3-9.1-0.3-10.9c12.9-0.2,26-0.1,39.7,0.4c-0.1,1.7-0.2,7.9-0.3,9.7c3.1,0.1,6.2,0.2,9.3,0.4c0.4-9.8,1-24.2,1.5-34.5
			c9.2,0.4,17.8,1,26.9,1.7c0.5-6,0.9-11.3,1.3-17.3c23.7,1.9,46.9,4.6,70.6,8.5C647.8,364.6,655.8,315.5,663.8,266.1z M358.4,447.3
			c-12.3,1.2-24.1,2.6-36.4,4.4c-1.2-5.3-2.4-10.6-3.7-16.4c11.9-3.2,23.9-6.3,36.3-9.1C356,433.5,357.2,440.2,358.4,447.3z
			 M367.1,338.4c0.3,2.2-1.3,4.6-1.9,6.9c-0.6,2.2-1.6,4.4-1.3,6.5c1.6,12.1,3.6,24.1,5.5,36.6c-6.8,1-13.1,2.1-20,3.3
			c2,11.2,3.9,22,5.9,33.7c-5.1,0.4-9.3,0.7-13.7,1.1c-6.5-33.4-12.8-66.1-19.2-99.2c2.9-0.6,5.1-1,7.8-1.5
			c2.7,14.7,5.4,29.1,8.1,44c3.6-0.7,6.7-1.2,10.5-1.9c-5-29.1-10-58.2-15.1-87.6c8.3-1.4,15.8-2.6,23.9-3.8
			c0.4,1.4,0.9,2.8,1.1,4.3C361.6,300,364.5,319.2,367.1,338.4z M384.3,384.4c0.1,0.5-0.1,1.1-0.3,1.9c-3,0.4-5.8,0.8-9.6,1.3
			c-1.8-12.4-3.6-24.8-5.4-37.2c-0.1-0.4-0.2-0.9,0.1-1.1c7.5-6.7,2.8-14,2-20.9c-1.9-16.7-4.5-33.3-6.9-50c0.6-0.3,1.2-0.6,1.8-0.9
			c1.5,1.6,4.2,3.1,4.4,4.9C375.2,316.4,379.7,350.4,384.3,384.4z M502.5,96.6c7.9,1.5,9.8,5,9.7,10.3c-0.7,49.8-1,99.6-1.4,149.3
			c0,2.1,0,4.2-0.1,7c-3.2,0-5.5,0-8.3,0C502.5,207.5,502.5,152.1,502.5,96.6z M502.5,268.2c2.7,0,5,0,7.8,0
			c-0.3,39.7-0.6,79.3-0.9,119.4c-2.5,0-4.5,0-6.9,0C502.5,347.7,502.5,308.1,502.5,268.2z M482.9,96.4c4.4-0.8,7.7-1.4,11.8-2.2
			c0.4,53.8,0.7,107,1.1,160.6c-3.4,0-6.9,0.1-10.2,0.1C484.6,202.1,483.8,149.3,482.9,96.4z M463,171.2c4.6-0.2,8.8-0.3,12.9-0.4
			c0.8,32.4,1.6,64.5,2.4,97c-3.4,0.1-7.4,0.2-11.8,0.4C465.4,236.1,464.2,203.9,463,171.2z M480.8,362.7c-6.9-1-14-1.9-21.5-2.7
			c-0.5-11.1-1.1-22.6-1.7-34.8c3.1-0.3,6.4-0.6,10.3-1c-0.6-16.8-1.2-33.5-1.9-50.8c4.8-0.2,8.3-0.3,12.5-0.4
			C479.3,303.1,480,333.2,480.8,362.7z M485.1,284c-0.2-7.7-0.3-15.5-0.4-23.6c3.8-0.1,7.2-0.1,11.2-0.1
			c0.3,42.2,0.6,84.6,0.9,127.3c-2.5,0-4.5,0-6.6,0.1c-0.2-0.8-0.5-1.3-0.6-1.8C485.4,352,485.8,318,485.1,284z M519.9,435.4
			c-9.9-0.2-19.5-0.2-29.4-0.1c-0.2-13.7-0.4-27.2-0.6-41.1c10-0.1,20.2-0.1,30.9,0.1C520.5,408.1,520.2,421.6,519.9,435.4z
			 M583.5,397.4c-7.7-0.7-15.2-1.3-23.3-1.9c-0.4,5.9-0.8,11.4-1.2,17.3c-9.2-0.6-17.8-1-27-1.4c-0.3,8.2-0.6,16.1-0.8,24.3
			c-2.3,0-4,0.1-6.3,0.1c0.4-16,0.9-31.6,1.3-47.6c-4-0.1-7.3-0.2-11-0.2c0.6-40.1,1.2-79.7,1.7-119.1c2.6-2.6,10.4,2.6,9.5-5
			c-3-0.3-6-0.5-9.5-0.8c0.4-29.3,0.9-58.5,1.3-87.9c4.9,0.1,9.5,0.2,15,0.3c-1.4,50.5-2.9,101-4.3,151.9c3.8,0.3,6.4,0.5,9.5,0.7
			c-0.7,18.1-1.4,35.8-2.1,54.2c16.2,0.6,32,1.7,48.2,3.2C584.2,389.8,583.9,393.4,583.5,397.4z M636.2,403.6
			c-4.5-0.7-9.1-1.4-14.2-2.1c2.9-21,5.9-42.2,8.9-63.8c5.3,0.7,10.1,1.5,15.3,2.3C642.8,361.1,639.5,382.1,636.2,403.6z"/>
		<path class="st0" d="M730.6,475.3c0.9-3.2,1.8-6.3,2.8-9.5c-3.8-1.1-7.5-2.1-11.8-3.3c1.2-4.4,2.5-8.9,3.8-13.9
			c-15-4.1-29.4-7.6-44.5-10.9c-2.3,10.4-4.5,20.9-6.8,31.4c3.2,0.7,6.3,1.4,9.5,2.1c1.7-7.4,3.4-14.8,5.1-22.2
			c7.9,1.8,15.5,3.7,23.6,5.8c-1.3,5-2.5,9.5-3.8,14.5C716.1,471.2,723.3,473.2,730.6,475.3z"/>
		<path class="st0" d="M592.8,455.6c3.2,0.4,6.3,0.7,9.5,1.1c1.3-10.3,2.5-20.5,3.8-30.7c18.6,2.3,36.8,5.2,54.8,8.6
			c-2,10.2-3.9,20.3-5.8,30.4c3.3,0.6,6.6,1.3,9.9,2c2.7-13,5.3-26.1,8.1-39.3c-25.1-5.1-50.1-9.1-75.8-12
			C595.7,428.9,594.3,442.2,592.8,455.6z"/>
	</g>
</g>
</svg>
